<svg xmlns="http://www.w3.org/2000/svg" viewBox="0 0 822 625"><defs><style>.cls-1{isolation:isolate;}.cls-2{opacity:0.36;}.cls-3{fill:#94bfdf;}.cls-3,.cls-4,.cls-5,.cls-6,.cls-7{fill-rule:evenodd;}.cls-4{fill:#78a4ca;}.cls-5,.cls-9{fill:#fff;}.cls-6{fill:#deecf3;}.cls-7{fill:#cce2f0;}.cls-8{fill:#353537;}.cls-10{fill:#e6e7e8;}.cls-10,.cls-18,.cls-21,.cls-23{mix-blend-mode:multiply;}.cls-11{fill:#003a54;}.cls-12,.cls-21{fill:#bbbdbf;}.cls-13{fill:#be1e2d;}.cls-14{fill:#8bc53f;}.cls-15{fill:#00b8c4;}.cls-16{fill:#6c8e26;}.cls-17{fill:#a1cdcd;}.cls-19{fill:#faac35;}.cls-20{fill:#eb524f;}.cls-22{fill:#cf3f42;}.cls-23{fill:#d0d2d3;}</style></defs><title>POS34</title><g class="cls-1"><g id="Layer_1" data-name="Layer 1"><g class="cls-2"><path class="cls-3" d="M123.28,457.11c29.94,0,54.44,22.77,54.44,50.61h0c0,50.79,44.71,92.34,99.34,92.34H653.49c71,0,129-54,129-120h0c0-66-58.07-120-129-120h0c-14.24,0-25.9-10.83-25.9-24.07h0c0-13.24,11.66-24.07,25.9-24.07H721c34.63,0,63-26.34,63-58.53h0c0-32.15-28.27-58.46-62.84-58.52H659.7c-29.94,0-54.44-22.77-54.44-50.61h0c0-50.79-44.7-92.34-99.34-92.34H190.8c-71,0-129,54-129,120h0c0,66,58.08,120,129.05,120h0c14.25,0,25.9,10.83,25.9,24.07h0c0,13.24-11.65,24.08-25.9,24.08H123.28C40.89,340.07,40.89,457.11,123.28,457.11Z"/><path class="cls-4" d="M734.18,482.16H687.55a4.89,4.89,0,0,0-5,4.7V530.2a4.89,4.89,0,0,0,5,4.69h46.63a4.9,4.9,0,0,0,5.05-4.69V486.86A4.9,4.9,0,0,0,734.18,482.16Z"/><path class="cls-5" d="M731.17,482.16H684.54a4.89,4.89,0,0,0-5,4.7V530.2a4.89,4.89,0,0,0,5,4.69h46.63a4.89,4.89,0,0,0,5.05-4.69V486.86A4.89,4.89,0,0,0,731.17,482.16Z"/><path class="cls-6" d="M723.27,491.1H692.45a3.24,3.24,0,0,0-3.34,3.1v28.65a3.23,3.23,0,0,0,3.34,3.1h30.82a3.23,3.23,0,0,0,3.34-3.1V494.2A3.24,3.24,0,0,0,723.27,491.1Z"/><path class="cls-5" d="M719.94,496.69h-8.26a.86.86,0,0,0-.89.83v22a.87.87,0,0,0,.89.83h8.26a.87.87,0,0,0,.89-.83v-22A.86.86,0,0,0,719.94,496.69Z"/><path class="cls-5" d="M704,496.69h-8.26a.86.86,0,0,0-.9.83v22a.87.87,0,0,0,.9.83H704a.87.87,0,0,0,.89-.83v-22A.86.86,0,0,0,704,496.69Z"/><path class="cls-5" d="M479.7,82.48a1.14,1.14,0,0,1,2.28,0v4.76a1.14,1.14,0,0,1-2.28,0V82.48Zm-7.76,3.87a1,1,0,0,1,0-1.5,1.19,1.19,0,0,1,1.61,0l3.62,3.37a1,1,0,0,1,0,1.5,1.21,1.21,0,0,1-1.61,0l-3.62-3.37Zm-2.56,7.84a1.06,1.06,0,1,1,0-2.12h5.13a1.06,1.06,0,1,1,0,2.12Zm4.17,7.22a1.21,1.21,0,0,1-1.61,0,1,1,0,0,1,0-1.5l3.62-3.37a1.21,1.21,0,0,1,1.61,0,1,1,0,0,1,0,1.5l-3.62,3.37Zm8.43,2.37a1.14,1.14,0,0,1-2.28,0V99A1.14,1.14,0,0,1,482,99v4.77Zm7.77-3.87a1,1,0,0,1,0,1.5,1.21,1.21,0,0,1-1.61,0L484.51,98a1,1,0,0,1,0-1.5,1.21,1.21,0,0,1,1.61,0l3.63,3.37Zm2.55-7.84a1.06,1.06,0,1,1,0,2.12h-5.13a1.06,1.06,0,1,1,0-2.12Zm-4.16-7.22a1.19,1.19,0,0,1,1.61,0,1,1,0,0,1,0,1.5l-3.63,3.37a1.21,1.21,0,0,1-1.61,0,1,1,0,0,1,0-1.5Z"/><path class="cls-5" d="M619.73,212.63h5.93a1.91,1.91,0,0,1,2,1.84V220a1.91,1.91,0,0,1-2,1.83h-5.93a1.91,1.91,0,0,1-2-1.83v-5.51A1.91,1.91,0,0,1,619.73,212.63Z"/><path class="cls-5" d="M640,212.63h5.93a1.91,1.91,0,0,1,2,1.84V220a1.91,1.91,0,0,1-2,1.83H640a1.91,1.91,0,0,1-2-1.83v-5.51A1.91,1.91,0,0,1,640,212.63Z"/><path class="cls-5" d="M660.24,212.63h5.93a1.91,1.91,0,0,1,2,1.84V220a1.91,1.91,0,0,1-2,1.83h-5.93a1.91,1.91,0,0,1-2-1.83v-5.51A1.91,1.91,0,0,1,660.24,212.63Z"/><path class="cls-5" d="M680.5,212.63h5.93a1.9,1.9,0,0,1,2,1.84V220a1.9,1.9,0,0,1-2,1.83H680.5a1.91,1.91,0,0,1-2-1.83v-5.51A1.91,1.91,0,0,1,680.5,212.63Z"/><path class="cls-5" d="M249.93,340.74a1.14,1.14,0,0,1,2.28,0v4.77a1.14,1.14,0,0,1-2.28,0v-4.77Zm-7.77,3.87a1,1,0,0,1,0-1.5,1.21,1.21,0,0,1,1.61,0l3.63,3.38a1,1,0,0,1,0,1.49,1.2,1.2,0,0,1-1.62,0l-3.62-3.37Zm-2.55,7.84a1.06,1.06,0,1,1,0-2.12h5.13a1.06,1.06,0,1,1,0,2.12Zm4.16,7.22a1.19,1.19,0,0,1-1.61,0,1,1,0,0,1,0-1.49l3.62-3.37a1.2,1.2,0,0,1,1.62,0,1,1,0,0,1,0,1.5l-3.63,3.36Zm8.44,2.37a1.14,1.14,0,0,1-2.28,0v-4.76a1.14,1.14,0,0,1,2.28,0V362Zm7.77-3.86a1,1,0,0,1,0,1.49,1.2,1.2,0,0,1-1.62,0l-3.62-3.36a1,1,0,0,1,0-1.5,1.19,1.19,0,0,1,1.61,0l3.63,3.37Zm2.55-7.85a1.06,1.06,0,1,1,0,2.12H257.4a1.06,1.06,0,1,1,0-2.12Zm-4.17-7.22a1.22,1.22,0,0,1,1.62,0,1,1,0,0,1,0,1.5L256.35,348a1.19,1.19,0,0,1-1.61,0,1,1,0,0,1,0-1.49Z"/><path class="cls-5" d="M611.41,373.81a1.14,1.14,0,0,1,2.28,0v4.76a1.14,1.14,0,0,1-2.28,0v-4.76Zm-7.76,3.86a1,1,0,0,1,0-1.49,1.21,1.21,0,0,1,1.61,0l3.62,3.37a1,1,0,0,1,0,1.5,1.21,1.21,0,0,1-1.61,0l-3.62-3.38Zm-2.56,7.85a1.06,1.06,0,1,1,0-2.12h5.13a1.06,1.06,0,1,1,0,2.12Zm4.17,7.22a1.21,1.21,0,0,1-1.61,0,1,1,0,0,1,0-1.5l3.62-3.37a1.21,1.21,0,0,1,1.61,0,1,1,0,0,1,0,1.5l-3.62,3.37Zm8.43,2.37a1.14,1.14,0,0,1-2.28,0v-4.76a1.14,1.14,0,0,1,2.28,0v4.76Zm7.77-3.87a1,1,0,0,1,0,1.5,1.21,1.21,0,0,1-1.61,0l-3.62-3.37a1,1,0,0,1,0-1.5,1.21,1.21,0,0,1,1.61,0l3.62,3.37ZM624,383.4a1.06,1.06,0,1,1,0,2.12h-5.12a1.06,1.06,0,1,1,0-2.12Zm-4.16-7.22a1.21,1.21,0,0,1,1.61,0,1,1,0,0,1,0,1.49l-3.62,3.38a1.21,1.21,0,0,1-1.61,0,1,1,0,0,1,0-1.5Z"/><path class="cls-7" d="M282.47,533a1.14,1.14,0,0,1,2.28,0v4.77a1.14,1.14,0,0,1-2.28,0V533Zm-7.77,3.87a1,1,0,0,1,0-1.49,1.2,1.2,0,0,1,1.62,0l3.62,3.37a1,1,0,0,1,0,1.49,1.19,1.19,0,0,1-1.61,0l-3.63-3.37Zm-2.55,7.84a1.06,1.06,0,1,1,0-2.11h5.13a1.06,1.06,0,1,1,0,2.11Zm4.17,7.23a1.22,1.22,0,0,1-1.62,0,1,1,0,0,1,0-1.5l3.63-3.37a1.19,1.19,0,0,1,1.61,0,1,1,0,0,1,0,1.5L276.32,552Zm8.43,2.37a1.14,1.14,0,0,1-2.28,0v-4.77a1.14,1.14,0,0,1,2.28,0v4.77Zm7.77-3.87a1,1,0,0,1,0,1.5,1.21,1.21,0,0,1-1.61,0l-3.63-3.37a1,1,0,0,1,0-1.5,1.2,1.2,0,0,1,1.62,0l3.62,3.37Zm2.55-7.84a1.06,1.06,0,1,1,0,2.11h-5.13a1.06,1.06,0,1,1,0-2.11Zm-4.16-7.22a1.19,1.19,0,0,1,1.61,0,1,1,0,0,1,0,1.49l-3.62,3.37a1.2,1.2,0,0,1-1.62,0,1,1,0,0,1,0-1.49Z"/><path class="cls-5" d="M125.74,377h5.93a1.91,1.91,0,0,1,2,1.83v5.52a1.92,1.92,0,0,1-2,1.83h-5.93a1.92,1.92,0,0,1-2-1.83v-5.52A1.91,1.91,0,0,1,125.74,377Z"/><path class="cls-5" d="M146,377h5.93a1.91,1.91,0,0,1,2,1.83v5.52a1.92,1.92,0,0,1-2,1.83H146a1.92,1.92,0,0,1-2-1.83v-5.52A1.91,1.91,0,0,1,146,377Z"/><path class="cls-5" d="M166.25,377h5.93a1.91,1.91,0,0,1,2,1.83v5.52a1.92,1.92,0,0,1-2,1.83h-5.93a1.92,1.92,0,0,1-2-1.83v-5.52A1.91,1.91,0,0,1,166.25,377Z"/><path class="cls-5" d="M186.5,377h5.93a1.91,1.91,0,0,1,2,1.83v5.52a1.92,1.92,0,0,1-2,1.83H186.5a1.92,1.92,0,0,1-2-1.83v-5.52A1.91,1.91,0,0,1,186.5,377Z"/></g><path class="cls-8" d="M631.4,553.36A21.55,21.55,0,0,1,610,575H336.64a21.54,21.54,0,0,1-21.45-21.64V109a21.54,21.54,0,0,1,21.45-21.64H610A21.55,21.55,0,0,1,631.4,109Z"/><rect class="cls-9" x="328.69" y="155.48" width="289.21" height="389.85"/><rect class="cls-9" x="370.01" y="99.37" width="247.89" height="16.03"/><rect class="cls-10" x="328.69" y="99.37" width="18.06" height="16.03"/><rect class="cls-10" x="348.76" y="99.37" width="18.07" height="16.03"/><rect class="cls-11" x="328.69" y="133.84" width="289.21" height="15.23"/><rect class="cls-12" x="337.72" y="165.11" width="48.87" height="4.01"/><rect class="cls-12" x="337.66" y="195.37" width="61.93" height="4.01"/><rect class="cls-13" x="337.28" y="202.39" width="47.16" height="4.01"/><rect class="cls-12" x="337.28" y="209.2" width="86.88" height="4.01"/><rect class="cls-12" x="337.28" y="215.81" width="86.88" height="4.01"/><rect class="cls-12" x="337.28" y="222.43" width="86.88" height="4.01"/><rect class="cls-12" x="337.28" y="229.04" width="86.88" height="4.01"/><rect class="cls-12" x="337.28" y="235.66" width="86.88" height="4.01"/><rect class="cls-12" x="337.28" y="242.27" width="86.88" height="4.01"/><rect class="cls-12" x="337.28" y="248.88" width="86.88" height="4.01"/><rect class="cls-14" x="431.62" y="195.67" width="61.93" height="4.01"/><rect class="cls-13" x="431.23" y="202.69" width="47.16" height="4.01"/><rect class="cls-12" x="431.23" y="209.5" width="86.88" height="4.01"/><rect class="cls-12" x="431.23" y="216.11" width="86.88" height="4.01"/><rect class="cls-12" x="431.23" y="222.73" width="86.88" height="4.01"/><rect class="cls-12" x="431.23" y="229.34" width="86.88" height="4.01"/><rect class="cls-12" x="431.23" y="235.96" width="86.88" height="4.01"/><rect class="cls-12" x="431.23" y="242.57" width="86.88" height="4.01"/><rect class="cls-12" x="431.23" y="249.18" width="86.88" height="4.01"/><rect class="cls-14" x="523.06" y="195.97" width="61.93" height="4.01"/><rect class="cls-13" x="522.68" y="202.98" width="47.16" height="4.01"/><rect class="cls-12" x="522.68" y="209.8" width="86.88" height="4.01"/><rect class="cls-12" x="522.68" y="216.42" width="86.88" height="4.01"/><rect class="cls-12" x="522.68" y="223.03" width="86.88" height="4.01"/><rect class="cls-12" x="522.68" y="229.64" width="86.88" height="4.01"/><rect class="cls-12" x="522.68" y="236.26" width="86.88" height="4.01"/><rect class="cls-12" x="522.68" y="242.87" width="86.88" height="4.01"/><rect class="cls-12" x="522.68" y="249.48" width="86.88" height="4.01"/><rect class="cls-15" x="339.04" y="270.13" width="81.81" height="4.01"/><rect class="cls-13" x="338.53" y="277.14" width="62.3" height="4.01"/><rect class="cls-12" x="338.53" y="283.96" width="271.02" height="4.01"/><rect class="cls-12" x="338.53" y="290.57" width="271.02" height="4.01"/><rect class="cls-12" x="338.53" y="297.19" width="271.02" height="4.01"/><rect class="cls-12" x="338.53" y="303.8" width="271.02" height="4.01"/><rect class="cls-12" x="338.53" y="310.42" width="271.02" height="4.01"/><rect class="cls-12" x="338.53" y="317.03" width="271.02" height="4.01"/><rect class="cls-12" x="338.53" y="323.64" width="271.02" height="4.01"/><rect class="cls-15" x="340.62" y="493.43" width="81.81" height="3.09"/><rect class="cls-13" x="340.11" y="498.83" width="62.3" height="3.09"/><rect class="cls-12" x="340.11" y="504.07" width="271.02" height="3.09"/><rect class="cls-12" x="340.11" y="509.17" width="271.02" height="3.09"/><rect class="cls-12" x="340.11" y="514.26" width="271.02" height="3.09"/><rect class="cls-12" x="340.11" y="519.35" width="271.02" height="3.09"/><rect class="cls-12" x="340.11" y="524.44" width="271.02" height="3.09"/><rect class="cls-12" x="340.11" y="529.54" width="271.02" height="3.09"/><rect class="cls-12" x="340.11" y="534.63" width="271.02" height="3.09"/><rect class="cls-15" x="339.4" y="337.87" width="61.43" height="4.01"/><rect class="cls-16" x="405.32" y="337.87" width="37.01" height="4.01"/><rect class="cls-13" x="339.15" y="344.89" width="30.42" height="4.01"/><rect class="cls-12" x="339.15" y="351.7" width="132.34" height="4.01"/><rect class="cls-12" x="339.15" y="358.32" width="132.34" height="4.01"/><rect class="cls-12" x="339.15" y="364.93" width="132.34" height="4.01"/><rect class="cls-12" x="339.15" y="371.55" width="132.34" height="4.01"/><rect class="cls-12" x="339.15" y="378.16" width="132.34" height="4.01"/><rect class="cls-12" x="339.15" y="384.78" width="132.34" height="4.01"/><rect class="cls-12" x="339.15" y="391.39" width="132.34" height="4.01"/><rect class="cls-15" x="477.47" y="337.87" width="39.95" height="4.01"/><rect class="cls-13" x="477.21" y="344.89" width="30.42" height="4.01"/><rect class="cls-12" x="477.21" y="351.7" width="132.34" height="4.01"/><rect class="cls-12" x="477.21" y="358.32" width="132.34" height="4.01"/><rect class="cls-12" x="477.21" y="364.93" width="132.34" height="4.01"/><rect class="cls-12" x="477.21" y="371.55" width="132.34" height="4.01"/><rect class="cls-12" x="477.21" y="378.16" width="132.34" height="4.01"/><rect class="cls-12" x="477.21" y="384.78" width="132.34" height="4.01"/><rect class="cls-12" x="477.21" y="391.39" width="132.34" height="4.01"/><rect class="cls-12" x="393.46" y="165.11" width="48.87" height="4.01"/><rect class="cls-12" x="449.2" y="165.11" width="48.87" height="4.01"/><rect class="cls-12" x="504.94" y="165.11" width="48.87" height="4.01"/><rect class="cls-12" x="560.68" y="165.11" width="48.88" height="4.01"/><rect class="cls-17" x="338.53" y="411.03" width="271.02" height="73.96"/><rect class="cls-9" x="350.46" y="419.25" width="53.27" height="4.01"/><rect class="cls-13" x="350.13" y="426.26" width="40.56" height="4.01"/><g class="cls-18"><rect class="cls-12" x="350.13" y="433.08" width="76.87" height="4.01"/><rect class="cls-12" x="350.13" y="439.69" width="76.87" height="4.01"/><rect class="cls-12" x="350.13" y="446.31" width="76.87" height="4.01"/><rect class="cls-12" x="350.13" y="452.92" width="76.87" height="4.01"/><rect class="cls-12" x="350.13" y="459.54" width="76.87" height="4.01"/><rect class="cls-12" x="350.13" y="466.15" width="76.87" height="4.01"/><rect class="cls-12" x="350.13" y="472.76" width="76.87" height="4.01"/></g><rect class="cls-9" x="437.52" y="419.25" width="53.27" height="4.01"/><rect class="cls-13" x="437.18" y="426.26" width="40.56" height="4.01"/><g class="cls-18"><rect class="cls-12" x="437.18" y="433.08" width="76.87" height="4.01"/><rect class="cls-12" x="437.18" y="439.69" width="76.87" height="4.01"/><rect class="cls-12" x="437.18" y="446.31" width="76.87" height="4.01"/><rect class="cls-12" x="437.18" y="452.92" width="76.87" height="4.01"/><rect class="cls-12" x="437.18" y="459.54" width="76.87" height="4.01"/><rect class="cls-12" x="437.18" y="466.15" width="76.87" height="4.01"/><rect class="cls-12" x="437.18" y="472.76" width="76.87" height="4.01"/></g><rect class="cls-9" x="521.41" y="419.25" width="53.27" height="4.01"/><rect class="cls-13" x="521.08" y="426.26" width="40.56" height="4.01"/><g class="cls-18"><rect class="cls-12" x="521.08" y="433.08" width="76.87" height="4.01"/><rect class="cls-12" x="521.08" y="439.69" width="76.87" height="4.01"/><rect class="cls-12" x="521.08" y="446.31" width="76.87" height="4.01"/><rect class="cls-12" x="521.08" y="452.92" width="76.87" height="4.01"/><rect class="cls-12" x="521.08" y="459.54" width="76.87" height="4.01"/><rect class="cls-12" x="521.08" y="466.15" width="76.87" height="4.01"/><rect class="cls-12" x="521.08" y="472.76" width="76.87" height="4.01"/></g><polygon class="cls-19" points="324.35 276.64 179.9 126.84 69.47 387.28 271.82 400.52 324.35 276.64"/><path class="cls-20" d="M249.77,498.23c-7.45,11.91-2.16,26.33,13.09,32.91h0c15.25,6.58,29.23.5,32.63-13.17a332.74,332.74,0,0,1,32.84-77.45c7.45-11.91,2.16-26.33-13.09-32.91h0C300,401,286,407.11,282.61,420.78A333,333,0,0,1,249.77,498.23Z"/><path class="cls-21" d="M250.27,497.34a75.8,75.8,0,0,0,7.41-3c30.6-14.74,56.33-47.23,66.13-81.29,8.36,7.43,10.33,18.23,4.52,27.51A332.74,332.74,0,0,0,295.49,518c-3.4,13.67-17.38,19.75-32.63,13.17s-20.54-21-13.09-32.91C249.94,497.94,250.1,497.63,250.27,497.34Z"/><path class="cls-22" d="M324.35,276.64l51.27,22.13c35.25,15.23,51.6,56.4,36.52,92A69.19,69.19,0,0,1,321,427.59l-51.28-22.14Z"/><path class="cls-21" d="M321.41,382.76c25.82,5.64,51.49.37,71.6-17.39a66.59,66.59,0,0,0,19.17-29.6,70.42,70.42,0,0,1,0,55A69.19,69.19,0,0,1,321,427.59l-51.28-22.14,16.35-38.55A94,94,0,0,0,321.41,382.76Z"/><path class="cls-12" d="M269.06,407a6.92,6.92,0,0,0,3.6,9.05h0a6.81,6.81,0,0,0,9-3.62l56-132a6.93,6.93,0,0,0-3.59-9.05h0a6.8,6.8,0,0,0-9,3.63Z"/><path class="cls-21" d="M333.26,271.2,272,415.71a6.9,6.9,0,0,1-2.93-8.68l56-132A6.77,6.77,0,0,1,333.26,271.2Z"/><path class="cls-23" d="M191.92,139.3a71.61,71.61,0,0,0-14.35,26.28c-5.21,17.66-7.42,35.89-4.52,54.21,5.61,35.41,24.33,68.48,53.71,89.26a142.15,142.15,0,0,0,72.8,26.08l-27.74,65.39L69.47,387.28,179.9,126.84Z"/><path class="cls-20" d="M61.67,388.16a6.91,6.91,0,0,0,3.59,9h0a6.81,6.81,0,0,0,9-3.63l113.23-267a6.92,6.92,0,0,0-3.6-9h0a6.81,6.81,0,0,0-9,3.62Z"/><path class="cls-21" d="M183.13,117.28,64.59,396.83a6.9,6.9,0,0,1-2.92-8.67l113.22-267A6.79,6.79,0,0,1,183.13,117.28Z"/><path class="cls-10" d="M234.06,396.48c13-30.72,18.93-63.72,15.31-97.07-4.8-44.11-23.12-91.48-62.86-114.81a195.54,195.54,0,0,0-25.8-12.5l19.19-45.26,144.45,149.8L271.82,400.52,233.4,398C233.62,397.5,233.85,397,234.06,396.48Z"/></g></g></svg>