<svg xmlns="http://www.w3.org/2000/svg" xmlns:xlink="http://www.w3.org/1999/xlink" viewBox="0 0 927 857"><defs><style>.cls-1{fill:none;}.cls-2{isolation:isolate;}.cls-3{fill:#fff;}.cls-4{fill:#e4e8f4;}.cls-5{fill:#abacae;}.cls-6{fill:#cad0dd;}.cls-7{fill:#a8a9ab;}.cls-8{fill:#a4a5a7;}.cls-9{fill:#a0a1a3;}.cls-10{fill:#9c9c9e;}.cls-11{fill:#999a9c;}.cls-12{fill:#a5a6a8;}.cls-13{fill:#bac1ce;}.cls-14{clip-path:url(#clip-path);}.cls-15{fill:#adaeb0;}.cls-16{fill:#fa5168;}.cls-17{clip-path:url(#clip-path-2);}.cls-18{fill:#e63044;}.cls-19{fill:#33a8ad;}.cls-20{fill:#49a2a5;}.cls-21{fill:#f9607f;}.cls-22{fill:#474b59;}.cls-23{fill:#5b5e71;}.cls-24{fill:#525566;}.cls-25{fill:#455b73;}.cls-26,.cls-27,.cls-28,.cls-39{opacity:0.4;mix-blend-mode:overlay;}.cls-26{fill:url(#linear-gradient);}.cls-27{fill:url(#linear-gradient-2);}.cls-28{fill:url(#linear-gradient-3);}.cls-29{fill:url(#linear-gradient-4);}.cls-30{fill:#428fad;}.cls-31{fill:#137399;}.cls-32{fill:#9dafc2;}.cls-33{fill:#012428;}.cls-34{fill:#011214;}.cls-35{mix-blend-mode:color-dodge;fill:url(#linear-gradient-5);}.cls-36{fill:#03d4ea;}.cls-37{fill:#ebeff3;}.cls-38{fill:url(#linear-gradient-6);}.cls-39{fill:url(#linear-gradient-7);}.cls-40{fill:#ffd527;}.cls-41{fill:#f6a72e;}.cls-42{fill:#f0f0f0;}.cls-43{fill:#f0c62b;}.cls-44{fill:#ffd742;}.cls-45{fill:#d4af26;}.cls-46{fill:#ffde61;}.cls-47{fill:#d4ae26;}</style><clipPath id="clip-path"><path class="cls-1" d="M385.14,521.61q-70.81-41.17-141.67-82.33c-3.31-1.92-5.41-6-5.55-11.63L379.58,510C379.72,515.66,381.83,519.68,385.14,521.61Z"/></clipPath><clipPath id="clip-path-2"><path class="cls-1" d="M229.59,325.6q0,9.31.07,18.59a4.16,4.16,0,0,1,.82-2.47,7.27,7.27,0,0,1,2.47-2.14l0-18.59a7.76,7.76,0,0,0-2.48,2.14A4.38,4.38,0,0,0,229.59,325.6Z"/></clipPath><linearGradient id="linear-gradient" x1="-4951.62" y1="605.05" x2="-4938.79" y2="605.05" gradientTransform="matrix(-1, 0, 0, 1, -4272.45, 0)" gradientUnits="userSpaceOnUse"><stop offset="0" stop-color="#012428"/><stop offset="0.08" stop-color="#4d6669"/><stop offset="0.15" stop-color="#8d9c9e"/><stop offset="0.21" stop-color="#bec7c8"/><stop offset="0.26" stop-color="#e1e5e6"/><stop offset="0.31" stop-color="#f7f8f8"/><stop offset="0.34" stop-color="#fff"/><stop offset="0.47" stop-color="#f8f9f9"/><stop offset="0.65" stop-color="#e5e8e9"/><stop offset="0.87" stop-color="#c5cdce"/><stop offset="1" stop-color="#b0bbbc"/></linearGradient><linearGradient id="linear-gradient-2" x1="-4750.71" y1="492.83" x2="-4737.88" y2="492.83" xlink:href="#linear-gradient"/><linearGradient id="linear-gradient-3" x1="-5068.18" y1="537.33" x2="-5055.35" y2="537.33" xlink:href="#linear-gradient"/><linearGradient id="linear-gradient-4" x1="-5071.22" y1="529.83" x2="-4734.1" y2="529.83" gradientTransform="matrix(-1, 0, 0, 1, -4272.45, 0)" gradientUnits="userSpaceOnUse"><stop offset="0" stop-color="#063b5b"/><stop offset="0.16" stop-color="#084060"/><stop offset="0.37" stop-color="#0c506e"/><stop offset="0.43" stop-color="#0e5673"/><stop offset="0.55" stop-color="#0b4c6a"/><stop offset="0.78" stop-color="#073f5f"/><stop offset="0.99" stop-color="#063b5b"/></linearGradient><linearGradient id="linear-gradient-5" x1="-4992.99" y1="522.59" x2="-4932.83" y2="522.59" gradientTransform="matrix(-1, 0, 0, 1, -4272.45, 0)" gradientUnits="userSpaceOnUse"><stop offset="0" stop-color="#012428"/><stop offset="0.01" stop-color="#0f3034"/><stop offset="0.05" stop-color="#395558"/><stop offset="0.09" stop-color="#5e7477"/><stop offset="0.14" stop-color="#7c8e90"/><stop offset="0.18" stop-color="#93a2a3"/><stop offset="0.23" stop-color="#a3b0b1"/><stop offset="0.29" stop-color="#adb8b9"/><stop offset="0.36" stop-color="#b0bbbc"/><stop offset="0.48" stop-color="#85a7b2"/><stop offset="0.73" stop-color="#3382a0"/><stop offset="0.84" stop-color="#137399"/></linearGradient><linearGradient id="linear-gradient-6" x1="598.5" y1="450.74" x2="598.5" y2="334.65" gradientUnits="userSpaceOnUse"><stop offset="0.02" stop-color="#9dafc2"/><stop offset="0.37" stop-color="#b1c0cf"/><stop offset="1" stop-color="#dee4eb"/></linearGradient><linearGradient id="linear-gradient-7" x1="491.02" y1="446.56" x2="704.96" y2="446.56" gradientUnits="userSpaceOnUse"><stop offset="0" stop-color="#012428"/><stop offset="0.03" stop-color="#3e585b"/><stop offset="0.06" stop-color="#6f8385"/><stop offset="0.09" stop-color="#92a1a3"/><stop offset="0.11" stop-color="#a8b4b5"/><stop offset="0.12" stop-color="#b0bbbc"/><stop offset="0.12" stop-color="#aeb9bb"/><stop offset="0.17" stop-color="#839596"/><stop offset="0.21" stop-color="#62787a"/><stop offset="0.25" stop-color="#4a6366"/><stop offset="0.28" stop-color="#3b5659"/><stop offset="0.31" stop-color="#365255"/><stop offset="0.35" stop-color="#3a5558"/><stop offset="0.38" stop-color="#466063"/><stop offset="0.42" stop-color="#5a7173"/><stop offset="0.45" stop-color="#76898b"/><stop offset="0.48" stop-color="#9aa8aa"/><stop offset="0.52" stop-color="#c7cecf"/><stop offset="0.55" stop-color="#fafbfb"/><stop offset="0.55" stop-color="#fff"/><stop offset="0.57" stop-color="#f8f9f9"/><stop offset="0.59" stop-color="#e5e8e9"/><stop offset="0.62" stop-color="#c5cdce"/><stop offset="0.65" stop-color="#99a7a9"/><stop offset="0.69" stop-color="#617679"/><stop offset="0.73" stop-color="#1d3c40"/><stop offset="0.74" stop-color="#012428"/><stop offset="0.81" stop-color="#3e585b"/><stop offset="0.87" stop-color="#6f8385"/><stop offset="0.93" stop-color="#92a1a3"/><stop offset="0.97" stop-color="#a8b4b5"/><stop offset="1" stop-color="#b0bbbc"/></linearGradient></defs><title>POS35</title><g class="cls-2"><g id="Layer_1" data-name="Layer 1"><circle class="cls-3" cx="485" cy="433" r="356"/><g class="cls-2"><polygon class="cls-4" points="289.93 411.3 285.16 414.03 268.48 307.41 274.19 310.74 289.93 411.3"/><polygon class="cls-5" points="274.19 310.73 268.48 307.41 279.28 299.16 285 302.49 274.19 310.73"/><polygon class="cls-6" points="285 302.49 301.84 410.2 291.04 418.47 274.19 310.73 285 302.49"/></g><g class="cls-2"><polygon class="cls-4" points="321.65 392.98 316.39 396.01 308.23 284.09 313.94 287.41 321.65 392.98"/><polygon class="cls-7" points="313.94 287.41 308.23 284.09 319.14 276.82 324.87 280.14 313.94 287.41"/><polygon class="cls-6" points="324.87 280.14 333.08 392.85 322.15 400.11 313.94 287.41 324.87 280.14"/></g><g class="cls-2"><polygon class="cls-8" points="353.73 264.03 348.02 260.73 358.97 254.5 364.69 257.82 353.73 264.03"/><polygon class="cls-4" points="353.73 264.03 353.72 271.31 353.35 374.65 347.63 377.98 348 268 348.02 260.73 353.73 264.03"/><polygon class="cls-6" points="353.73 264.03 364.69 257.82 364.28 375.5 353.34 381.72 353.73 264.03"/></g><g class="cls-2"><polygon class="cls-9" points="393.56 240.66 387.86 237.34 398.76 232.19 404.48 235.52 393.56 240.66"/><polygon class="cls-4" points="393.56 240.66 389.75 292.27 385.03 356.37 378.83 359.95 384.05 288.95 387.86 237.34 393.56 240.66"/><polygon class="cls-6" points="393.56 240.66 404.48 235.52 395.43 358.17 384.52 363.33 393.56 240.66"/></g><g class="cls-2"><polygon class="cls-10" points="433.43 217.25 427.72 213.95 438.51 209.9 444.22 213.23 433.43 217.25"/><polygon class="cls-4" points="433.43 217.25 420.59 310.17 416.71 338.08 410.35 341.75 410.07 341.6 414.87 306.85 427.72 213.95 433.43 217.25"/><polygon class="cls-6" points="433.43 217.25 444.22 213.23 426.56 340.87 415.78 344.9 433.43 217.25"/></g><g class="cls-2"><path class="cls-1" d="M566.76,413.79,425.1,331.46c6-3.45,10.79-11.81,10.76-18.66l141.67,82.33C577.54,402,572.74,410.35,566.76,413.79Z"/><polygon class="cls-11" points="597.13 280.42 455.47 198.12 463.49 195.52 605.16 277.84 597.13 280.42"/><path class="cls-4" d="M597.1,280.38,577.54,395.13c0,6.88-4.77,15.24-10.74,18.63L425.06,331.42c6-3.4,10.84-11.75,10.84-18.64l19.55-114.65Z"/><g class="cls-2"><g class="cls-2"><path class="cls-12" d="M391.06,511.6,249.4,429.27c2,1.15,4.64,1,7.58-.75l141.65,82.33c-2.94,1.72-5.62,1.88-7.57.75Z"/></g><path class="cls-13" d="M544.59,400.91l-5.69-3.31L513.74,383l-5.69-3.31-30.29-17.62-5.69-3.31-47-27.35L257,428.53h0c-2.94,1.7-5.62,1.9-7.58.75q70.82,41.18,141.66,82.32c1.94,1.14,4.61,1,7.54-.72h0l10.55-6.15,4.78-2.66,26.44-15.33,5.23-3,26-15,5.78-3.31,25.43-14.68,6.24-3.58,25.34-14.6,6.33-3.68,26.07-15.05Z"/></g><g class="cls-2"><g class="cls-14"><path class="cls-4" d="M385.14,521.61,243.47,439.28c-3.31-1.92-5.41-6-5.55-11.63L379.58,510c.14,5.7,2.25,9.72,5.56,11.65Z"/></g></g><polygon class="cls-15" points="359.59 419.62 217.94 337.3 225.96 330.63 367.62 412.94 359.59 419.62"/><polygon class="cls-4" points="379.58 509.96 237.92 427.65 217.94 337.3 359.59 419.62 379.58 509.96"/><path class="cls-6" d="M597.13,280.42l8-2.58-19.42,113.1c-.21,11.94-8.62,26.32-19,32.28L398.66,520.29c-10.33,6-18.78,1.32-19.08-10.33l-20-90.34,8-6.68,20.17,91.22c0,7.36,4.89,10.13,10.84,6.69l168.13-97.06c6-3.44,10.78-11.81,10.77-18.66Z"/></g><g class="cls-2"><polygon class="cls-4" points="413.93 502.03 409.17 504.77 392.5 398.15 398.22 401.47 413.93 502.03"/><polygon class="cls-5" points="398.22 401.47 392.5 398.15 403.29 389.9 409.01 393.22 398.22 401.47"/><polygon class="cls-6" points="409.01 393.22 425.85 500.93 415.07 509.2 398.22 401.47 409.01 393.22"/></g><g class="cls-2"><polygon class="cls-4" points="445.67 483.7 440.41 486.72 432.26 374.81 437.96 378.14 445.67 483.7"/><polygon class="cls-7" points="437.96 378.14 432.26 374.81 443.16 367.54 448.86 370.87 437.96 378.14"/><polygon class="cls-6" points="448.86 370.87 457.1 483.56 446.19 490.84 437.96 378.14 448.86 370.87"/></g><g class="cls-2"><polygon class="cls-8" points="477.75 354.77 472.04 351.46 482.99 345.23 488.7 348.55 477.75 354.77"/><polygon class="cls-4" points="477.75 354.77 477.72 362.06 477.37 465.39 471.63 468.7 472.02 358.75 472.04 351.46 477.75 354.77"/><polygon class="cls-6" points="477.75 354.77 488.7 348.55 488.29 466.23 477.35 472.47 477.75 354.77"/></g><g class="cls-2"><polygon class="cls-9" points="517.59 331.39 511.88 328.08 522.77 322.94 528.48 326.24 517.59 331.39"/><polygon class="cls-4" points="517.59 331.39 513.78 382.99 509.06 447.1 502.83 450.7 508.07 379.67 511.88 328.07 517.59 331.39"/><polygon class="cls-6" points="517.59 331.39 528.48 326.24 519.44 448.92 508.54 454.05 517.59 331.39"/></g><g class="cls-2"><polygon class="cls-10" points="557.45 307.99 551.74 304.69 562.53 300.64 568.24 303.95 557.45 307.99"/><polygon class="cls-4" points="557.45 308.01 544.6 400.9 540.73 428.82 534.36 432.48 534.08 432.34 538.88 397.6 551.74 304.69 557.45 308.01"/><polygon class="cls-6" points="557.45 307.99 568.24 303.95 550.57 431.61 539.8 435.64 557.45 307.99"/></g><g class="cls-2"><path class="cls-1" d="M443.1,199.64l0,18.58a14.27,14.27,0,0,1,2.71-1.16,16.64,16.64,0,0,1,3.05-.61,19,19,0,0,1,6.36.34,14,14,0,0,1,3.7,1.43l-.06-18.58a13.21,13.21,0,0,0-3.71-1.41,18.57,18.57,0,0,0-9.39.24A14,14,0,0,0,443.1,199.64Z"/><path class="cls-16" d="M585.94,294.68q0-9.31-.05-18.6a4.31,4.31,0,0,0-.2-1.2,4.66,4.66,0,0,0-1.06-1.76,8,8,0,0,0-2-1.57l.05,18.59a8.4,8.4,0,0,1,2,1.56,5.17,5.17,0,0,1,1,1.75A3.73,3.73,0,0,1,585.94,294.68Z"/><g class="cls-2"><g class="cls-17"><path class="cls-18" d="M229.59,325.6l.07,18.59a4.16,4.16,0,0,1,.82-2.47,7.27,7.27,0,0,1,2.47-2.14l0-18.59a7.76,7.76,0,0,0-2.48,2.14,4.38,4.38,0,0,0-.83,2.47Z"/></g></g><g class="cls-2"><g class="cls-2"><path class="cls-19" d="M202.24,325.68l0,18.58a13.68,13.68,0,0,0,.8,4.46l0-18.61a13.12,13.12,0,0,1-.8-4.43Z"/><path class="cls-20" d="M203,330.11l0,18.61a15.75,15.75,0,0,0,2,3.83L205,334a15.31,15.31,0,0,1-2-3.85Z"/></g></g><path class="cls-1" d="M455.27,216.76a18.2,18.2,0,0,0-6.34-.27,14.45,14.45,0,0,0-3,.55,18.34,18.34,0,0,0-2.75,1.19L241,334.91l115.55,67.15a13.17,13.17,0,0,0,3.67,1.43,19.53,19.53,0,0,0,6.36.35,17.53,17.53,0,0,0,3.05-.62,14.64,14.64,0,0,0,2.72-1.16L574.52,285.37,458.94,218.23A14.9,14.9,0,0,0,455.27,216.76Z"/><path class="cls-1" d="M232.9,321a7.76,7.76,0,0,0-2.48,2.14,4,4,0,0,0-.62,3.69,5.08,5.08,0,0,0,1,1.76,8.54,8.54,0,0,0,2,1.57l.08.05V321Z"/><path class="cls-1" d="M455.2,198.23h0c.05,0,.08,0,.12.05Z"/><path class="cls-1" d="M454.68,198.15a18.55,18.55,0,0,0-4.56-.32A20.06,20.06,0,0,1,454.68,198.15Z"/><path class="cls-1" d="M447.83,198.07a14.73,14.73,0,0,0-2,.4,7.54,7.54,0,0,0-.82.36,8.77,8.77,0,0,1,.82-.34C446.48,198.31,447.16,198.19,447.83,198.07Z"/><path class="cls-1" d="M584.63,273.12a7.68,7.68,0,0,0-2-1.54v9a7.31,7.31,0,0,0,2.37-2.06,4,4,0,0,0,.63-3.68A4.51,4.51,0,0,0,584.63,273.12Z"/><path class="cls-19" d="M585.89,276.08a4,4,0,0,0-.21-1.2l0-.08.06,18.59a.09.09,0,0,1,0,.06,3.73,3.73,0,0,1,.2,1.23Z"/><path class="cls-18" d="M585.71,293.41a4.75,4.75,0,0,0-1-1.74,8.3,8.3,0,0,0-1.37-1.19,2.69,2.69,0,0,1-.65-.37v-9.46l-8.17,4.68-115.57-67.1a14.9,14.9,0,0,0-3.67-1.47,18.2,18.2,0,0,0-6.34-.27,14.45,14.45,0,0,0-3,.55,18.34,18.34,0,0,0-2.75,1.19L241,334.91l-8.08-4.68V321L443.06,199.6a16.27,16.27,0,0,1,1.93-.74c.27-.09.55-.28.82-.37.64-.18,1.38-.27,2-.46a4,4,0,0,0,1-.18h1.29a18.88,18.88,0,0,1,4.59.28.67.67,0,0,0,.45.09c.1,0,.1,0,.19.09a14.94,14.94,0,0,1,3.58,1.29l123.74,72a1.79,1.79,0,0,1,.55.36,6,6,0,0,1,1.38,1.2,4,4,0,0,1,1,1.65Z"/><path class="cls-21" d="M455.17,198.22c-.15,0-.33,0-.49-.07.17,0,.35,0,.51.07Z"/><path class="cls-21" d="M450.12,197.83c-.43,0-.86,0-1.28,0a9.12,9.12,0,0,0-1,.22c.35-.06.67-.17,1-.21S449.7,197.85,450.12,197.83Z"/><path class="cls-16" d="M610.5,267.71a26.07,26.07,0,0,0-8.45-7.35l-123.74-72a47.27,47.27,0,0,0-9.27-4,57.59,57.59,0,0,0-10.56-2.11,64.41,64.41,0,0,0-21.85,1.19,47.55,47.55,0,0,0-12.76,4.87L213.65,309.75a28.46,28.46,0,0,0-6.88,5.42,15.82,15.82,0,0,0-3.77,6.15A13.63,13.63,0,0,0,205,334a25.13,25.13,0,0,0,8.45,7.34l123.74,72a44.92,44.92,0,0,0,9.28,3.95A56.66,56.66,0,0,0,357,419.36a64.54,64.54,0,0,0,21.85-1.19,49.1,49.1,0,0,0,12.76-4.87L601.87,292a29,29,0,0,0,6.88-5.42,17,17,0,0,0,3.77-6.15C614,276.16,613.25,271.75,610.5,267.71Zm-25.43,10.83a9.14,9.14,0,0,1-2.39,2.11.09.09,0,0,0-.09.09l-8.08,4.59L372.37,402.1a13,13,0,0,1-2.66,1.1,17.43,17.43,0,0,1-3.12.65,20.93,20.93,0,0,1-6.33-.37,11.75,11.75,0,0,1-3.68-1.38L241,334.91l-8.08-4.68-.09-.1a9,9,0,0,1-2-1.56,4.75,4.75,0,0,1-1-1.74,3.86,3.86,0,0,1,.64-3.67,7.49,7.49,0,0,1,2.48-2.21L443.06,199.6a16.27,16.27,0,0,1,1.93-.74,3.3,3.3,0,0,1,.82-.37c.64-.18,1.38-.27,2-.46.37,0,.64-.18,1-.18h1.29a18.88,18.88,0,0,1,4.59.28.67.67,0,0,0,.45.09c.1,0,.1,0,.19.09a16.48,16.48,0,0,1,3.58,1.29l123.74,72a6.48,6.48,0,0,1,1.93,1.56,4,4,0,0,1,1.1,1.74A4,4,0,0,1,585.07,278.54Z"/><path class="cls-21" d="M445,198.83a13.61,13.61,0,0,0-1.93.77L232.93,321v0L443.1,199.64A13.27,13.27,0,0,1,445,198.83Z"/><path class="cls-21" d="M582.65,271.55l0,0h0l-123.74-72a16.52,16.52,0,0,0-3.63-1.33,13.05,13.05,0,0,1,3.6,1.37Z"/></g><path class="cls-18" d="M613.25,276.06v18.55a13.65,13.65,0,0,1-.64,4.31,18.28,18.28,0,0,1-3.76,6.15,32.8,32.8,0,0,1-6.89,5.42L391.74,431.85A47.19,47.19,0,0,1,379,436.71,64.92,64.92,0,0,1,357,438a54.26,54.26,0,0,1-10.46-2.2,43,43,0,0,1-9.37-3.94L213.47,360v-.09a9.76,9.76,0,0,1-1.93-1.2,24.64,24.64,0,0,1-6.52-6.15,14.39,14.39,0,0,1-2.75-8.26V325.64A14.68,14.68,0,0,0,205,334a24.51,24.51,0,0,0,6.43,6.15c.64.37,1.28.83,2,1.19l123.74,72a44.92,44.92,0,0,0,9.28,3.95A56.66,56.66,0,0,0,357,419.36a64.54,64.54,0,0,0,21.85-1.19,49.1,49.1,0,0,0,12.76-4.87L601.87,292a29,29,0,0,0,6.88-5.42,17,17,0,0,0,3.77-6.15A14.66,14.66,0,0,0,613.25,276.06Z"/><g class="cls-2"><path class="cls-22" d="M395.31,116.34c-14.19,3.85-25.66,17-29.79,36.94l-19.74,95.39L334.11,256l18.63-99.24C360.85,117.67,390,119.19,395.31,116.34Z"/><path class="cls-23" d="M546.64,257.89l-19.74,95.3-11.67,7.32,18.62-99.15C541.56,224,523.7,179.59,494,162.48l-80.08-46.24c-11.65-6.76-23.4-8.27-33.83-5.45,8.05-1.1,23.71-11.33,46.62,2L506.78,159C536.49,176.11,554.34,220.48,546.64,257.89Z"/><path class="cls-24" d="M494,162.47c29.7,17.15,47.55,61.46,39.82,98.86l-18.6,99.22-6.66-3.85,18.6-99.21c6.78-32.8-8.91-71.63-34.89-86.63L412.18,124.6c-26-15-52.66-.63-59.44,32.17L334.15,256l-6.67-3.84,18.6-99.21c7.73-37.41,38.13-53.86,67.84-36.72Z"/></g><g class="cls-2"><path class="cls-22" d="M291.68,281.86l-14.15,7.66-19.6-74c-2.87-10.9-1.53-18.74,3-22.76L274,181.16c-4.59,4-5.93,11.76-3.06,22.76Z"/><path class="cls-23" d="M476,388.21,461.84,396l-19.61-74c-7.65-29.07-38.45-66.85-68.67-84.26L292,190.63c-17.13-9.95-30.51-11.2-37.4-5,9.23-4.59,14-27.67,50.5-6.6l81.49,47.06c30.22,17.41,61,55.18,68.67,84.17Z"/><path class="cls-23" d="M372.58,218,356,227.56l-64-36.92c-17.15-10-30.5-11.17-37.43-5,9.62-4.79,14.11-27.62,50.52-6.59Z"/><path class="cls-24" d="M373.53,237.68c30.23,17.45,61,55.2,68.69,84.24l19.57,74L455,392l-19.58-74c-6.73-25.45-33.74-58.54-60.19-73.81l-81.52-47.07c-26.44-15.26-42.53-7.06-35.8,18.4l19.57,74-6.78-3.91-19.57-74c-7.68-29,10.7-38.4,40.86-21Z"/><path class="cls-24" d="M292,190.64l64,36.92-4.77,2.77-57.53-33.19c-26.43-15.25-42.55-7.1-35.79,18.37l15.77,59.61,3.81,14.39-6.76-3.9-2-7.63-17.59-66.37C243.47,182.58,261.84,173.23,292,190.64Z"/><polygon class="cls-16" points="370.5 241.51 256.64 307.27 218 307.27 268.77 277.98 273.71 275.12 351.26 230.33 370.5 241.51"/><path class="cls-16" d="M438.77,183.19v18.89l-47,27.12c-1.73-1-3.46-2.16-5.19-3.12L372.58,218l51.29-29.63a49.06,49.06,0,0,1,12.74-4.85C437.3,183.37,438.08,183.37,438.77,183.19Z"/></g><path class="cls-25" d="M666.46,598.28a4,4,0,0,0,.21.41,2.29,2.29,0,0,0,.14.27,4.51,4.51,0,0,0,.42.48l.16.16a4.67,4.67,0,0,0,.81.58,10,10,0,0,0,9.06,0,4.74,4.74,0,0,0,.82-.57l.19-.21a4.27,4.27,0,0,0,.41-.44c.05-.09.08-.18.13-.27a2.49,2.49,0,0,0,.22-.43,2.93,2.93,0,0,0,.05-.29,2,2,0,0,0,.07-.42h0l0,11.28a3.23,3.23,0,0,1-1.89,2.65,10,10,0,0,1-9,0,3.17,3.17,0,0,1-1.86-2.6l0-11.29c0,.13,0,.26.07.4S666.43,598.18,666.46,598.28Z"/><path class="cls-26" d="M666.46,598.28a4,4,0,0,0,.21.41,2.29,2.29,0,0,0,.14.27,4.51,4.51,0,0,0,.42.48l.16.16a4.67,4.67,0,0,0,.81.58,10,10,0,0,0,9.06,0,4.74,4.74,0,0,0,.82-.57l.19-.21a4.27,4.27,0,0,0,.41-.44c.05-.09.08-.18.13-.27a2.49,2.49,0,0,0,.22-.43,2.93,2.93,0,0,0,.05-.29,2,2,0,0,0,.07-.42h0l0,11.28a3.23,3.23,0,0,1-1.89,2.65,10,10,0,0,1-9,0,3.17,3.17,0,0,1-1.86-2.6l0-11.29c0,.13,0,.26.07.4S666.43,598.18,666.46,598.28Z"/><path class="cls-25" d="M465.56,486.05a1.83,1.83,0,0,0,.21.42,1.66,1.66,0,0,0,.13.27,3.15,3.15,0,0,0,.43.47l.15.18a6.9,6.9,0,0,0,.82.57,10,10,0,0,0,9.05,0,6.32,6.32,0,0,0,.83-.58l.18-.2a5.65,5.65,0,0,0,.41-.46,2.1,2.1,0,0,0,.13-.26,2.82,2.82,0,0,0,.22-.42c0-.11,0-.2.05-.31a1.85,1.85,0,0,0,.07-.41h0v11.29a3.21,3.21,0,0,1-1.88,2.64,10,10,0,0,1-9.06,0,3.21,3.21,0,0,1-1.86-2.6l0-11.28a1.78,1.78,0,0,0,.07.39A1,1,0,0,0,465.56,486.05Z"/><path class="cls-27" d="M465.56,486.05a1.83,1.83,0,0,0,.21.42,1.66,1.66,0,0,0,.13.27,3.15,3.15,0,0,0,.43.47l.15.18a6.9,6.9,0,0,0,.82.57,10,10,0,0,0,9.05,0,6.32,6.32,0,0,0,.83-.58l.18-.2a5.65,5.65,0,0,0,.41-.46,2.1,2.1,0,0,0,.13-.26,2.82,2.82,0,0,0,.22-.42c0-.11,0-.2.05-.31a1.85,1.85,0,0,0,.07-.41h0v11.29a3.21,3.21,0,0,1-1.88,2.64,10,10,0,0,1-9.06,0,3.21,3.21,0,0,1-1.86-2.6l0-11.28a1.78,1.78,0,0,0,.07.39A1,1,0,0,0,465.56,486.05Z"/><path class="cls-25" d="M783,530.56a4,4,0,0,0,.21.41,2.29,2.29,0,0,0,.14.27,2.69,2.69,0,0,0,.43.47,1.22,1.22,0,0,0,.15.17,5.38,5.38,0,0,0,.82.58,10,10,0,0,0,9.05,0,4.89,4.89,0,0,0,.83-.59,1.54,1.54,0,0,0,.17-.19,3.46,3.46,0,0,0,.42-.45c0-.09.08-.18.13-.26a3.51,3.51,0,0,0,.22-.43,2.87,2.87,0,0,0,0-.31,1.87,1.87,0,0,0,.07-.4h0l0,11.28a3.23,3.23,0,0,1-1.89,2.65,10,10,0,0,1-9.05,0,3.17,3.17,0,0,1-1.86-2.6l0-11.29a3,3,0,0,0,.06.4C783,530.35,783,530.46,783,530.56Z"/><path class="cls-28" d="M783,530.56a4,4,0,0,0,.21.41,2.29,2.29,0,0,0,.14.27,2.69,2.69,0,0,0,.43.47,1.22,1.22,0,0,0,.15.17,5.38,5.38,0,0,0,.82.58,10,10,0,0,0,9.05,0,4.89,4.89,0,0,0,.83-.59,1.54,1.54,0,0,0,.17-.19,3.46,3.46,0,0,0,.42-.45c0-.09.08-.18.13-.26a3.51,3.51,0,0,0,.22-.43,2.87,2.87,0,0,0,0-.31,1.87,1.87,0,0,0,.07-.4h0l0,11.28a3.23,3.23,0,0,1-1.89,2.65,10,10,0,0,1-9.05,0,3.17,3.17,0,0,1-1.86-2.6l0-11.29a3,3,0,0,0,.06.4C783,530.35,783,530.46,783,530.56Z"/><path class="cls-29" d="M461.71,456.29l145.51,84,48.15,45.1,16.78-9.69,11.05,18.85L773,542.41l-21.88-12.72L778.32,514l15.86,9.21a9.26,9.26,0,0,1,4.2,4.45h0c1.16,3-.26,6.22-4.26,8.54l-9.51,5.49-98.78,57.4-2.64,1.6c-6.2,3.59-16.22,3.59-22.4,0l-15.88-9.23h0l-37.79-21.83-138.56-80a13.87,13.87,0,0,1-6.93-12.05Z"/><polygon class="cls-30" points="461.71 456.29 588.72 382.48 734.24 466.5 607.22 540.3 461.71 456.29"/><path class="cls-31" d="M607.22,540.31l127-73.81,62.24,58.38h0a3.07,3.07,0,0,1-1,4.43L683.92,594.15A18.43,18.43,0,0,1,662,591.67Z"/><polygon class="cls-32" points="733.95 471.87 792.55 526.41 673.43 594.06 615.67 540.61 733.95 471.87"/><polygon class="cls-33" points="642.68 565.55 761.8 497.89 738.81 476.39 621.36 545.81 642.68 565.55"/><polygon class="cls-31" points="746.39 481.21 720.55 496.93 725.26 501.35 751.1 485.65 746.39 481.21"/><polygon class="cls-31" points="648.63 539.24 622.79 554.95 627.5 559.38 653.34 543.67 648.63 539.24"/><polygon class="cls-34" points="660.38 525.03 659.08 523.82 699.26 499.39 721.88 520.51 720.55 521.27 699.26 501.39 660.38 525.03"/><polygon class="cls-33" points="660.38 525.03 699.26 501.39 720.55 521.27 680.86 543.86 660.38 525.03"/><polygon class="cls-35" points="660.38 524.99 699.26 501.35 720.55 521.24 680.86 543.83 660.38 524.99"/><path class="cls-36" d="M461.68,456.36l.07-.13,36.72,20.41L535,497.43l36.5,20.8c11.91,6.85,23.93,13.52,35.77,20.5l63-36.15,15.93-9.13c5.32-3,10.6-6.12,15.94-9.1l32.06-17.93.08.14L608.39,539.79,664,593.28l-57.57-53.17,0,0Z"/><polygon class="cls-33" points="562.03 514.34 562.03 543.6 556.93 540.65 556.93 511.4 562.03 514.34"/><polygon class="cls-33" points="550.91 507.92 550.91 537.16 545.81 534.22 545.81 504.97 550.91 507.92"/><polygon class="cls-33" points="539.79 501.6 539.79 530.85 534.69 527.91 534.69 498.65 539.79 501.6"/><polygon class="cls-33" points="528.67 495.23 528.67 524.48 523.57 521.54 523.57 492.28 528.67 495.23"/><polygon class="cls-33" points="517.55 488.8 517.55 518.04 512.46 515.1 512.46 485.85 517.55 488.8"/><polygon class="cls-33" points="506.44 482.48 506.44 511.74 501.34 508.79 501.34 479.53 506.44 482.48"/><path class="cls-31" d="M654.92,490.86c30.91-18,30.74-47.12-.41-65.11h0c-31.13-18-81.47-18-112.38,0h0c-30.94,18-30.78,47.15.34,65.11s81.5,18,112.46,0Z"/><path class="cls-37" d="M674,436.56c41.67-24.21,41.45-63.51-.54-87.76h0c-41.94-24.21-109.8-24.21-151.47,0h0c-41.72,24.25-41.5,63.55.44,87.76s109.85,24.25,151.58,0Z"/><path class="cls-38" d="M669.63,433.73c39-22.65,38.77-59.42-.51-82.09h0c-39.24-22.65-102.7-22.64-141.68,0h0c-39,22.67-38.81,59.44.42,82.09s102.76,22.68,141.78,0Z"/><path class="cls-32" d="M674,436.56h0c-41.73,24.25-109.58,24.25-151.58,0-19.5-11.25-30-25.77-31.41-40.52a107.15,107.15,0,0,0,213.94,0C703.66,410.82,693.36,425.31,674,436.56Z"/><path class="cls-39" d="M674,436.56h0c-41.73,24.25-109.58,24.25-151.58,0-19.5-11.25-30-25.77-31.41-40.52a107.15,107.15,0,0,0,213.94,0C703.66,410.82,693.36,425.31,674,436.56Z"/><path class="cls-3" d="M491.11,396s.16,1,.47,2.89a41.63,41.63,0,0,0,2.47,7.84,47,47,0,0,0,6.67,10.83,71.94,71.94,0,0,0,11.94,11.36,88.39,88.39,0,0,0,7.84,5.26l2.13,1.25c.64.38,1.48.76,2.21,1.15l4.63,2.34a48.52,48.52,0,0,0,4.83,2.14l5,2.05c3.46,1.15,7,2.42,10.6,3.5a161.9,161.9,0,0,0,22.87,4.8c2,.26,4,.59,5.94.78l6,.48c4,.43,8.07.33,12.11.48,2,.13,4.05-.05,6.07-.05s4-.08,6.06-.17l6-.48c2-.16,4-.29,6-.61,3.94-.55,7.88-1,11.69-1.85l5.71-1.13,5.54-1.47a145.8,145.8,0,0,0,20.61-7.21c3.16-1.42,6.14-3.08,9-4.51,2.87-1.68,5.53-3.29,8-5.08a71.45,71.45,0,0,0,12.35-10.93A49.38,49.38,0,0,0,701,409.17a42.23,42.23,0,0,0,2.91-7.69c.45-1.85.65-2.85.65-2.85l.17,0s-.18,1-.59,2.89a43.29,43.29,0,0,1-2.77,7.82,49,49,0,0,1-7,10.78,68.05,68.05,0,0,1-12.29,11.3c-2.45,1.82-5.17,3.52-8,5.22-3,1.51-5.91,3.2-9.09,4.69a137.31,137.31,0,0,1-20.75,7.48l-5.6,1.52-5.75,1.17c-3.85.89-7.81,1.34-11.79,1.92-2,.34-4,.47-6,.64s-4,.34-6.07.51-4.07.13-6.11.2-4.08.2-6.12.09c-4.08-.17-8.18-.09-12.23-.54l-6.06-.51c-2-.21-4-.55-6-.81a163.7,163.7,0,0,1-23.07-5c-1.85-.48-3.62-1.19-5.41-1.77s-3.55-1.18-5.27-1.85l-5-2.14a49.82,49.82,0,0,1-4.85-2.22c-3.08-1.67-6.2-3.1-9-4.9a90.53,90.53,0,0,1-7.87-5.43A67.78,67.78,0,0,1,500.16,418a47,47,0,0,1-6.49-11.11,42,42,0,0,1-2.33-8c-.26-1.89-.41-2.91-.41-2.91Z"/><polygon class="cls-40" points="715.17 516.27 675.6 539 676.9 540.21 716.47 517.48 715.17 516.27"/><polygon class="cls-36" points="703.97 505.78 665.12 529.4 666.42 530.61 705.26 506.99 703.97 505.78"/><path class="cls-33" d="M673.11,583.17l59.27-34.45c1.6-.92,1.63-2.75.07-4.1l-7.82-6.82A5.25,5.25,0,0,0,719,537l-59.27,34.44c-1.58.92-1.61,2.76-.07,4.1l3.91,3.41,3.91,3.41A5.26,5.26,0,0,0,673.11,583.17Z"/><path class="cls-31" d="M672.7,582l57.82-33.6c1.4-.8,1.43-2.4.07-3.58l-6.83-5.94a4.55,4.55,0,0,0-5-.67L661,571.81c-1.38.8-1.41,2.41-.06,3.59l3.41,3,3.42,3A4.59,4.59,0,0,0,672.7,582Z"/><polygon class="cls-33" points="674.43 563.88 686.18 574.67 685.19 575.48 673.14 564.4 674.43 563.88"/><polygon class="cls-33" points="685.7 557.26 697.45 568.04 696.46 568.86 684.4 557.77 685.7 557.26"/><polygon class="cls-33" points="696.96 550.63 708.71 561.42 707.72 562.23 695.66 551.15 696.96 550.63"/><polygon class="cls-33" points="708.22 544 719.97 554.79 718.99 555.61 706.93 544.52 708.22 544"/><path class="cls-41" d="M772.59,522.26l-3.6-3.41-6.82-6.5c-2.78-2.63-7.38-3.4-10.28-1.72l-10.3,6-.6.34c-2.91,1.7-3,5.21-.24,7.84l10.42,9.91c2.79,2.64,7.39,3.42,10.3,1.73l2.38-1.39,8.52-4.95C775.27,528.42,775.37,524.91,772.59,522.26Z"/><path class="cls-40" d="M772.59,519.69l-3.6-3.42-6.82-6.49c-2.78-2.63-7.38-3.4-10.28-1.72l-10.3,6-.6.34c-2.91,1.7-3,5.21-.24,7.84l10.42,9.91c2.79,2.65,7.39,3.42,10.3,1.72l2.38-1.38,8.52-5C775.27,525.85,775.37,522.34,772.59,519.69Z"/><path class="cls-42" d="M647.09,408.52c2.78,8.9-16,22.68-41.84,30.76s-49.13,7.42-51.92-1.48,15.95-22.68,41.84-30.77S644.3,399.61,647.09,408.52Z"/><path class="cls-43" d="M549.48,397.85s2.65,12,2.51,17,2.3,15,2.56,16.14.69,8.53.69,8.53A67.59,67.59,0,0,0,580,433.25,350.34,350.34,0,0,1,617.9,418c8.53-2.74,25.57-14.32,25.57-14.32s-2.28-30.75-5.71-43.94C637.76,359.74,555.21,392.25,549.48,397.85Z"/><path class="cls-44" d="M549.48,397.85a134.56,134.56,0,0,0,13.55-6c4.67-2.62,8.13-3.43,13.78-5.45s21.72-9,28.16-10.84,28.51-9.54,32.79-15.82c0,0-7.47-4.26-12.41-5.47s-16.5-4-20.19-4.77c0,0-9.31,7.47-11.16,9.08s-14.59,12.11-17.39,14.31S550.55,394,549.48,397.85Z"/><path class="cls-45" d="M613.7,372.66c0,.34,0,.56,0,.56.6,3.95,4,4.69,5.41,2.72.78-1.1.81-3.53.14-5.42C617.37,371.29,615.47,372,613.7,372.66Z"/><path class="cls-43" d="M581,378.35a2.49,2.49,0,0,1-.39-2.62c.68-1.44,4.65-2.77,5.39-.8S582.47,380.36,581,378.35Z"/><path class="cls-45" d="M594.5,394.74a2.49,2.49,0,0,1,2.44,1c.88,1.33-.05,5.41-2.12,5S592,395,594.5,394.74Z"/><path class="cls-43" d="M603.2,363.48s-4.89,1.17-5.5-2,5.54-4.83,7.64-3.65S607.07,362.47,603.2,363.48Z"/><path class="cls-45" d="M569.26,406s-2.07,4.6-5.94,2.44-1.46-8.1,1.25-8.7A4.52,4.52,0,0,1,569.26,406Z"/><path class="cls-45" d="M620.24,404.39s-2.46,5.48-7.07,2.9-1.75-9.65,1.49-10.36S622.07,400,620.24,404.39Z"/><path class="cls-45" d="M586.05,417.31s-1.71,3.91-5.22,1.94-1.53-7,.87-7.48S587.32,414.14,586.05,417.31Z"/><path class="cls-45" d="M632.73,387.69s-1.72,3.91-5.23,1.94-1.53-7,.88-7.47S634,384.53,632.73,387.69Z"/><path class="cls-43" d="M619.41,370.41c-.61-2.34-6-5.64-7.93-3-1.65,2.33,1.43,4.73,2.19,5.26,1.83-.66,3.77-1.41,5.75-2.2A.13.13,0,0,1,619.41,370.41Z"/><path class="cls-42" d="M243.8,617.16c0,49.62,66,89.84,147.33,89.84s147.33-40.22,147.33-89.84-66-89.85-147.33-89.85S243.8,567.54,243.8,617.16Z"/><path class="cls-43" d="M508.18,655.15s16-26,19.57-56.94S526.39,529,511.1,499.83l.49,71.4Z"/><path class="cls-43" d="M407.12,620.89l-.81,74.56s-57.48,9.28-109.12-22.08-65.52-114.8-51.29-166.8Z"/><polygon class="cls-44" points="511.59 571.23 508.18 655.15 406.14 595.72 403.13 518.35 511.59 571.23"/><path class="cls-46" d="M403.13,518.35l4,102.54s-35.27,8.42-94.78-15.59S231.76,545,247.83,500.66,300.94,436.31,352,433.58s132.81,7.12,161.86,71.93c14.21,31.71-2.27,65.72-2.27,65.72Z"/><path class="cls-43" d="M467.67,507.08c-1.66,3.28.84,7.89,5.59,10.29s9.94,1.69,11.61-1.6-.84-7.89-5.59-10.3S469.34,503.79,467.67,507.08Z"/><path class="cls-43" d="M326.18,577.47c-1.66,3.29.84,7.9,5.59,10.3s9.94,1.68,11.6-1.61-.84-7.89-5.58-10.29S327.84,574.19,326.18,577.47Z"/><path class="cls-43" d="M452,567.57c-1.66,3.29.84,7.9,5.59,10.3s9.94,1.68,11.61-1.61-.84-7.89-5.59-10.29S453.63,564.29,452,567.57Z"/><path class="cls-43" d="M424.78,579.59c-1.19,2.36.6,5.67,4,7.39s7.13,1.21,8.33-1.15-.61-5.67-4-7.39S426,577.23,424.78,579.59Z"/><path class="cls-43" d="M470.05,606.53c-2.23,4.41.49,10.29,6.07,13.11s11.93,1.53,14.16-2.88-.48-10.29-6.07-13.12S472.29,602.11,470.05,606.53Z"/><path class="cls-47" d="M363,646.11c-.23,5.5,4.65,10.16,10.9,10.43s11.51-4,11.74-9.47-4.64-10.16-10.9-10.43S363.21,640.62,363,646.11Z"/><path class="cls-47" d="M308.2,629.46c-.2,4.74,4,8.76,9.39,9s9.92-3.43,10.12-8.16-4-8.76-9.39-9S308.4,624.73,308.2,629.46Z"/><path class="cls-47" d="M278.22,635.91c-2.16,2.45-1.66,6.44,1.13,8.9s6.8,2.48,9,0,1.67-6.43-1.12-8.9S280.39,633.47,278.22,635.91Z"/><path class="cls-47" d="M264.18,597.17c-1.6,1.81-1.23,4.77.84,6.59s5,1.84,6.64,0,1.23-4.77-.83-6.59S265.79,595.35,264.18,597.17Z"/><path class="cls-47" d="M333.63,667.27c-1,2.2.23,4.91,2.74,6.05s5.36.26,6.36-1.94-.23-4.92-2.74-6.06S334.62,665.06,333.63,667.27Z"/><path class="cls-43" d="M405.84,467.22c-3.38,6.7,1.71,16.09,11.39,21s20.26,3.43,23.65-3.27-1.71-16.09-11.39-21S409.23,460.52,405.84,467.22Z"/><path class="cls-43" d="M334.13,475.31C331,481.53,335,489.87,343,494s17.14,2.34,20.29-3.88-.84-14.56-8.9-18.64S337.28,469.09,334.13,475.31Z"/><path class="cls-43" d="M351.23,533.63c-2.71,5.37.73,12.57,7.68,16.09s14.8,2,17.51-3.35-.72-12.57-7.67-16.09S354,528.26,351.23,533.63Z"/><path class="cls-43" d="M280,516.53c-3.52,7,.15,15.93,8.21,20s17.46,1.72,21-5.25-.15-15.93-8.2-20S283.55,509.55,280,516.53Z"/></g></g></svg>