<svg xmlns="http://www.w3.org/2000/svg" xmlns:xlink="http://www.w3.org/1999/xlink" viewBox="0 0 828 650"><defs><style>.cls-1{fill:none;}.cls-2{isolation:isolate;}.cls-3{opacity:0.36;}.cls-4{fill:#94bfdf;}.cls-4,.cls-5,.cls-6,.cls-7,.cls-8{fill-rule:evenodd;}.cls-5{fill:#78a4ca;}.cls-6{fill:#fff;}.cls-7{fill:#deecf3;}.cls-8{fill:#cce2f0;}.cls-9{fill:#ffdda8;}.cls-10{fill:#f9c98a;}.cls-11{fill:#bc7c46;}.cls-12{fill:#dda866;}.cls-13{fill:#4f2e16;}.cls-14{fill:#9b7451;}.cls-15{fill:#caaf8f;}.cls-16{fill:#1a1a1a;}.cls-17{fill:#333;}.cls-18{fill:#282829;}.cls-19{fill:#3a3b3b;}.cls-20{fill:#535457;}.cls-21{fill:#61777c;}.cls-22{fill:#4b666d;}.cls-23{fill:#e4e8f4;}.cls-24{fill:#abacae;}.cls-25{fill:#cad0dd;}.cls-26{fill:#a8a9ab;}.cls-27{fill:#a4a5a7;}.cls-28{fill:#a0a1a3;}.cls-29{fill:#9c9c9e;}.cls-30{fill:#999a9c;}.cls-31{fill:#a5a6a8;}.cls-32{fill:#bac1ce;}.cls-33{clip-path:url(#clip-path);}.cls-34{fill:#adaeb0;}.cls-35{fill:#fa5168;}.cls-36{clip-path:url(#clip-path-2);}.cls-37{fill:#e63044;}.cls-38{fill:#33a8ad;}.cls-39{fill:#49a2a5;}.cls-40{fill:#f9607f;}.cls-41{fill:#474b59;}.cls-42{fill:#5b5e71;}.cls-43{fill:#525566;}.cls-44{fill:#658bee;}.cls-45{fill:#8facfc;}.cls-46{fill:#363a44;}.cls-47{fill:#f9bb4a;}.cls-48{fill:#65aa65;}.cls-49{fill:#e5a03c;}.cls-50{fill:#75ca75;}.cls-51{fill:#3f434f;}.cls-52{fill:#dcdcdc;}.cls-53{fill:#e1e2e4;}.cls-54{fill:#575653;}.cls-55,.cls-56{fill:#e73e2a;}.cls-55,.cls-57{mix-blend-mode:multiply;}.cls-56{opacity:0.75;}.cls-57{fill:#e84629;opacity:0.69;}.cls-58{fill:#4c6690;}.cls-59{fill:#42587b;}.cls-60{fill:#609fd6;}.cls-61{fill:#5187be;}.cls-62{fill:#5c7cb0;}.cls-63{fill:#688cc8;}.cls-64{fill:#f59e2b;}</style><clipPath id="clip-path"><path class="cls-1" d="M478.24,596.94l67.6-39.28c1.58-.92,2.58-2.84,2.65-5.55l-67.6,39.28C480.83,594.1,479.82,596,478.24,596.94Z"/></clipPath><clipPath id="clip-path-2"><path class="cls-1" d="M552.46,503.42l0,8.86a2.05,2.05,0,0,0-.39-1.18,3.67,3.67,0,0,0-1.18-1l0-8.87a3.92,3.92,0,0,1,1.18,1A2.11,2.11,0,0,1,552.46,503.42Z"/></clipPath></defs><title>POS34</title><g class="cls-2"><g id="Layer_1" data-name="Layer 1"><g class="cls-3"><path class="cls-4" d="M114.28,447.11c29.94,0,54.44,22.77,54.44,50.61h0c0,50.79,44.71,92.34,99.34,92.34H644.49c71,0,129-54,129-120h0c0-66-58.07-120-129-120h0c-14.24,0-25.9-10.83-25.9-24.07h0c0-13.24,11.66-24.07,25.9-24.07H712c34.63,0,63-26.34,63-58.53h0c0-32.15-28.27-58.46-62.84-58.52H650.7c-29.94,0-54.44-22.77-54.44-50.61h0c0-50.79-44.7-92.34-99.34-92.34H181.8c-71,0-129,54-129,120h0c0,66,58.08,120,129.05,120h0c14.25,0,25.9,10.83,25.9,24.07h0c0,13.24-11.65,24.08-25.9,24.08H114.28C31.89,330.07,31.89,447.11,114.28,447.11Z"/><path class="cls-5" d="M725.18,472.16H678.55a4.89,4.89,0,0,0-5,4.7V520.2a4.89,4.89,0,0,0,5,4.69h46.63a4.9,4.9,0,0,0,5.05-4.69V476.86A4.9,4.9,0,0,0,725.18,472.16Z"/><path class="cls-6" d="M722.17,472.16H675.54a4.89,4.89,0,0,0-5,4.7V520.2a4.89,4.89,0,0,0,5,4.69h46.63a4.89,4.89,0,0,0,5.05-4.69V476.86A4.89,4.89,0,0,0,722.17,472.16Z"/><path class="cls-7" d="M714.27,481.1H683.45a3.24,3.24,0,0,0-3.34,3.1v28.65a3.23,3.23,0,0,0,3.34,3.1h30.82a3.23,3.23,0,0,0,3.34-3.1V484.2A3.24,3.24,0,0,0,714.27,481.1Z"/><path class="cls-6" d="M710.94,486.69h-8.26a.86.86,0,0,0-.89.83v22a.87.87,0,0,0,.89.83h8.26a.87.87,0,0,0,.89-.83v-22A.86.86,0,0,0,710.94,486.69Z"/><path class="cls-6" d="M695,486.69h-8.26a.86.86,0,0,0-.9.83v22a.87.87,0,0,0,.9.83H695a.87.87,0,0,0,.89-.83v-22A.86.86,0,0,0,695,486.69Z"/><path class="cls-6" d="M470.7,72.48a1.14,1.14,0,0,1,2.28,0v4.76a1.14,1.14,0,0,1-2.28,0V72.48Zm-7.76,3.87a1,1,0,0,1,0-1.5,1.19,1.19,0,0,1,1.61,0l3.62,3.37a1,1,0,0,1,0,1.5,1.21,1.21,0,0,1-1.61,0l-3.62-3.37Zm-2.56,7.84a1.06,1.06,0,1,1,0-2.12h5.13a1.06,1.06,0,1,1,0,2.12Zm4.17,7.22a1.21,1.21,0,0,1-1.61,0,1,1,0,0,1,0-1.5l3.62-3.37a1.21,1.21,0,0,1,1.61,0,1,1,0,0,1,0,1.5l-3.62,3.37ZM473,93.78a1.14,1.14,0,0,1-2.28,0V89A1.14,1.14,0,0,1,473,89v4.77Zm7.77-3.87a1,1,0,0,1,0,1.5,1.21,1.21,0,0,1-1.61,0L475.51,88a1,1,0,0,1,0-1.5,1.21,1.21,0,0,1,1.61,0l3.63,3.37Zm2.55-7.84a1.06,1.06,0,1,1,0,2.12h-5.13a1.06,1.06,0,1,1,0-2.12Zm-4.16-7.22a1.19,1.19,0,0,1,1.61,0,1,1,0,0,1,0,1.5l-3.63,3.37a1.21,1.21,0,0,1-1.61,0,1,1,0,0,1,0-1.5Z"/><path class="cls-6" d="M610.73,202.63h5.93a1.91,1.91,0,0,1,2,1.84V210a1.91,1.91,0,0,1-2,1.83h-5.93a1.91,1.91,0,0,1-2-1.83v-5.51A1.91,1.91,0,0,1,610.73,202.63Z"/><path class="cls-6" d="M631,202.63h5.93a1.91,1.91,0,0,1,2,1.84V210a1.91,1.91,0,0,1-2,1.83H631a1.91,1.91,0,0,1-2-1.83v-5.51A1.91,1.91,0,0,1,631,202.63Z"/><path class="cls-6" d="M651.24,202.63h5.93a1.91,1.91,0,0,1,2,1.84V210a1.91,1.91,0,0,1-2,1.83h-5.93a1.91,1.91,0,0,1-2-1.83v-5.51A1.91,1.91,0,0,1,651.24,202.63Z"/><path class="cls-6" d="M671.5,202.63h5.93a1.9,1.9,0,0,1,2,1.84V210a1.9,1.9,0,0,1-2,1.83H671.5a1.91,1.91,0,0,1-2-1.83v-5.51A1.91,1.91,0,0,1,671.5,202.63Z"/><path class="cls-6" d="M240.93,330.74a1.14,1.14,0,0,1,2.28,0v4.77a1.14,1.14,0,0,1-2.28,0v-4.77Zm-7.77,3.87a1,1,0,0,1,0-1.5,1.21,1.21,0,0,1,1.61,0l3.63,3.38a1,1,0,0,1,0,1.49,1.2,1.2,0,0,1-1.62,0l-3.62-3.37Zm-2.55,7.84a1.06,1.06,0,1,1,0-2.12h5.13a1.06,1.06,0,1,1,0,2.12Zm4.16,7.22a1.19,1.19,0,0,1-1.61,0,1,1,0,0,1,0-1.49l3.62-3.37a1.2,1.2,0,0,1,1.62,0,1,1,0,0,1,0,1.5l-3.63,3.36Zm8.44,2.37a1.14,1.14,0,0,1-2.28,0v-4.76a1.14,1.14,0,0,1,2.28,0V352Zm7.77-3.86a1,1,0,0,1,0,1.49,1.2,1.2,0,0,1-1.62,0l-3.62-3.36a1,1,0,0,1,0-1.5,1.19,1.19,0,0,1,1.61,0l3.63,3.37Zm2.55-7.85a1.06,1.06,0,1,1,0,2.12H248.4a1.06,1.06,0,1,1,0-2.12Zm-4.17-7.22a1.22,1.22,0,0,1,1.62,0,1,1,0,0,1,0,1.5L247.35,338a1.19,1.19,0,0,1-1.61,0,1,1,0,0,1,0-1.49Z"/><path class="cls-6" d="M602.41,363.81a1.14,1.14,0,0,1,2.28,0v4.76a1.14,1.14,0,0,1-2.28,0v-4.76Zm-7.76,3.86a1,1,0,0,1,0-1.49,1.21,1.21,0,0,1,1.61,0l3.62,3.37a1,1,0,0,1,0,1.5,1.21,1.21,0,0,1-1.61,0l-3.62-3.38Zm-2.56,7.85a1.06,1.06,0,1,1,0-2.12h5.13a1.06,1.06,0,1,1,0,2.12Zm4.17,7.22a1.21,1.21,0,0,1-1.61,0,1,1,0,0,1,0-1.5l3.62-3.37a1.21,1.21,0,0,1,1.61,0,1,1,0,0,1,0,1.5l-3.62,3.37Zm8.43,2.37a1.14,1.14,0,0,1-2.28,0v-4.76a1.14,1.14,0,0,1,2.28,0v4.76Zm7.77-3.87a1,1,0,0,1,0,1.5,1.21,1.21,0,0,1-1.61,0l-3.62-3.37a1,1,0,0,1,0-1.5,1.21,1.21,0,0,1,1.61,0l3.62,3.37ZM615,373.4a1.06,1.06,0,1,1,0,2.12h-5.12a1.06,1.06,0,1,1,0-2.12Zm-4.16-7.22a1.21,1.21,0,0,1,1.61,0,1,1,0,0,1,0,1.49l-3.62,3.38a1.21,1.21,0,0,1-1.61,0,1,1,0,0,1,0-1.5Z"/><path class="cls-8" d="M273.47,523a1.14,1.14,0,0,1,2.28,0v4.77a1.14,1.14,0,0,1-2.28,0V523Zm-7.77,3.87a1,1,0,0,1,0-1.49,1.2,1.2,0,0,1,1.62,0l3.62,3.37a1,1,0,0,1,0,1.49,1.19,1.19,0,0,1-1.61,0l-3.63-3.37Zm-2.55,7.84a1.06,1.06,0,1,1,0-2.11h5.13a1.06,1.06,0,1,1,0,2.11Zm4.17,7.23a1.22,1.22,0,0,1-1.62,0,1,1,0,0,1,0-1.5l3.63-3.37a1.19,1.19,0,0,1,1.61,0,1,1,0,0,1,0,1.5L267.32,542Zm8.43,2.37a1.14,1.14,0,0,1-2.28,0v-4.77a1.14,1.14,0,0,1,2.28,0v4.77Zm7.77-3.87a1,1,0,0,1,0,1.5,1.21,1.21,0,0,1-1.61,0l-3.63-3.37a1,1,0,0,1,0-1.5,1.2,1.2,0,0,1,1.62,0l3.62,3.37Zm2.55-7.84a1.06,1.06,0,1,1,0,2.11h-5.13a1.06,1.06,0,1,1,0-2.11Zm-4.16-7.22a1.19,1.19,0,0,1,1.61,0,1,1,0,0,1,0,1.49l-3.62,3.37a1.2,1.2,0,0,1-1.62,0,1,1,0,0,1,0-1.49Z"/><path class="cls-6" d="M116.74,367h5.93a1.91,1.91,0,0,1,2,1.83v5.52a1.92,1.92,0,0,1-2,1.83h-5.93a1.92,1.92,0,0,1-2-1.83v-5.52A1.91,1.91,0,0,1,116.74,367Z"/><path class="cls-6" d="M137,367h5.93a1.91,1.91,0,0,1,2,1.83v5.52a1.92,1.92,0,0,1-2,1.83H137a1.92,1.92,0,0,1-2-1.83v-5.52A1.91,1.91,0,0,1,137,367Z"/><path class="cls-6" d="M157.25,367h5.93a1.91,1.91,0,0,1,2,1.83v5.52a1.92,1.92,0,0,1-2,1.83h-5.93a1.92,1.92,0,0,1-2-1.83v-5.52A1.91,1.91,0,0,1,157.25,367Z"/><path class="cls-6" d="M177.5,367h5.93a1.91,1.91,0,0,1,2,1.83v5.52a1.92,1.92,0,0,1-2,1.83H177.5a1.92,1.92,0,0,1-2-1.83v-5.52A1.91,1.91,0,0,1,177.5,367Z"/></g><path class="cls-9" d="M295.06,124.78l-18.58-10.72L234.07,89.58,129.33,150.05l42.48,24.54,18.51,10.69,46,26.59L341.05,151.4l.06,0Z"/><path class="cls-10" d="M234.07,91.2,132.16,150.05l56.94,32.87,21.32,12.29,26,14.57,21.31-11.88,80.6-46.53Z"/><polygon class="cls-11" points="236.36 211.85 236.36 316 190.42 289.68 171.81 279.03 129.33 254.69 129.33 150.05 171.81 174.59 190.42 185.3 236.36 211.85"/><path class="cls-12" d="M236.37,211.87V316l104.69-60.07V151.4Z"/><polygon class="cls-13" points="293.29 206.34 292.73 206.66 292.73 196.93 293.29 196.61 293.29 206.34"/><polygon class="cls-13" points="295.3 197.59 294.89 198.27 293.01 197.02 291.14 200.44 290.72 200.23 293.01 196.07 295.3 197.59"/><polygon class="cls-13" points="298.88 203.11 298.32 203.44 298.32 193.71 298.88 193.38 298.88 203.11"/><polygon class="cls-13" points="300.89 194.36 300.48 195.03 298.61 193.79 296.73 197.2 296.32 197 298.61 192.84 300.89 194.36"/><path class="cls-13" d="M301,202.2l-10.44,6c-.16.09-.28,0-.28-.16a.6.6,0,0,1,.28-.48l10.44-6c.15-.09.28,0,.28.17A.64.64,0,0,1,301,202.2Z"/><path class="cls-13" d="M300.94,204.83l-10.26,5.93c-1.09.62-2,.12-2-1.13V197.78a4.33,4.33,0,0,1,2-3.4l10.26-5.92c1.08-.62,2-.12,2,1.13v11.86A4.32,4.32,0,0,1,300.94,204.83ZM290.67,195a3.13,3.13,0,0,0-1.4,2.42V209.3c0,.9.63,1.25,1.41.81l10.26-5.92a3.1,3.1,0,0,0,1.4-2.42V189.92c0-.89-.63-1.26-1.4-.81Z"/><path class="cls-13" d="M311.16,197.3c-.16.09-.28,0-.28-.16v-8.48a.61.61,0,0,1,.28-.49.17.17,0,0,1,.28.16v8.49A.64.64,0,0,1,311.16,197.3Z"/><path class="cls-13" d="M316.29,195.94,306,201.87c-1.09.62-2,.11-2-1.13V188.88a4.34,4.34,0,0,1,2-3.39l10.26-5.93c1.08-.62,2-.11,2,1.14v11.85A4.32,4.32,0,0,1,316.29,195.94ZM306,186.14a3.14,3.14,0,0,0-1.4,2.42v11.85c0,.89.64,1.26,1.41.8l10.26-5.91a3.1,3.1,0,0,0,1.39-2.43V181c0-.89-.63-1.25-1.4-.81Z"/><path class="cls-13" d="M315.39,188.74c-.4-1.56-2.14-1.91-4.23-.7a9.22,9.22,0,0,0-4.24,5.6Z"/><path class="cls-13" d="M309.68,187.82c-.15.09-.28,0-.28-.17v-2.06a.61.61,0,0,1,.28-.48c.15-.1.28,0,.28.15v2.07A.64.64,0,0,1,309.68,187.82Z"/><path class="cls-13" d="M311.16,187c-.16.1-.28,0-.28-.16v-2.07a.63.63,0,0,1,.28-.48c.15-.09.28,0,.28.16v2.07A.62.62,0,0,1,311.16,187Z"/><path class="cls-13" d="M312.63,186.11c-.15.09-.28,0-.28-.16v-2.07a.62.62,0,0,1,.28-.48c.16-.09.28,0,.28.16v2.07A.61.61,0,0,1,312.63,186.11Z"/><path class="cls-13" d="M331.51,187.19l-10.27,5.92c-1.08.63-2,.11-1.95-1.13V180.13a4.32,4.32,0,0,1,2-3.39l10.27-5.93c1.08-.62,2-.11,2,1.13v11.85A4.37,4.37,0,0,1,331.51,187.19Zm-10.27-9.81a3.1,3.1,0,0,0-1.39,2.43v11.85c0,.89.62,1.25,1.39.81l10.27-5.93a3.05,3.05,0,0,0,1.39-2.43V172.26c0-.89-.63-1.25-1.4-.81Z"/><path class="cls-13" d="M326.37,186.92c-.15.09-.28,0-.28-.16v-8.49a.66.66,0,0,1,.28-.49c.16-.09.29,0,.28.17v8.49A.62.62,0,0,1,326.37,186.92Z"/><path class="cls-13" d="M327.65,186.18l-2.55,1.47c-.15.09-.28,0-.28-.16a.62.62,0,0,1,.28-.48l2.55-1.48a.18.18,0,0,1,.28.17A.64.64,0,0,1,327.65,186.18Z"/><path class="cls-13" d="M329.08,175.44v4a3.72,3.72,0,0,1-1.68,2.91l-2,1.18c-.93.54-1.68.1-1.68-1v-4l1-.59v4.24c0,.18.12.25.28.17a.64.64,0,0,0,.28-.49v-4.24Z"/><polygon class="cls-14" points="190.42 163.75 190.42 289.68 171.81 279.03 171.81 174.49 190.42 163.75"/><polygon class="cls-15" points="295.06 124.78 190.42 185.21 190.32 185.28 171.81 174.59 171.81 174.49 190.42 163.75 276.48 114.06 295.06 124.78"/><path class="cls-16" d="M639.85,461.07h0v-2.41l-5.42.38-1.89-.36-63.31-36.55c-2.81-1.62-7.09-1.8-9.51-.39l-30.2,17.43-5.6-1.06v2.54h0c0,1.07.78,2.21,2.31,3.09l68.35,39.47c2.81,1.61,7.08,1.79,9.51.39l34.16-19.72A2.67,2.67,0,0,0,639.85,461.07Z"/><path class="cls-17" d="M559.72,415.92l-34.16,19.72c-2.43,1.4-2.12,3.87.68,5.49l68.35,39.46c2.81,1.62,7.08,1.8,9.51.4l34.16-19.72c2.43-1.41,2.12-3.88-.68-5.49l-68.35-39.47C566.42,414.7,562.14,414.52,559.72,415.92Z"/><polygon class="cls-16" points="578.82 432.13 622.91 458.34 622.91 372.54 578.82 372.54 578.82 432.13"/><polygon class="cls-17" points="565.71 433.32 609.8 459.53 609.8 373.74 565.71 373.74 565.71 433.32"/><path class="cls-18" d="M517.48,313.47h0L510,314.62l5.86,3.93,1.18,1.52-3.76,57.36c-.17,2.54,3.61,5.78,8.4,7.2l171.83,51,3.49,4.47,7.69-1.19h0c1.89-.3,3.15-1.2,3.24-2.59L712,374.38c.17-2.54-3.62-5.78-8.4-7.2L524,313.87A12.49,12.49,0,0,0,517.48,313.47Z"/><polygon class="cls-19" points="703.58 429.13 707.14 375.12 704.17 375.59 700.62 429.6 703.58 429.13"/><path class="cls-17" d="M511.46,386.24l179.65,53.31c4.78,1.42,8.84.51,9-2l4.06-61.93c.17-2.54-3.61-5.78-8.4-7.2L516.13,315.08c-4.79-1.42-8.84-.5-9,2L503.06,379C502.9,381.58,506.68,384.82,511.46,386.24Z"/><path class="cls-19" d="M700.62,429.6a1.52,1.52,0,0,0,0-.21l3.52-53.8-197-58.47-3.53,53.79c0,.08,0,.15,0,.22Z"/><polygon class="cls-16" points="622.91 458.34 609.8 459.53 609.8 447.72 622.91 458.34"/><path class="cls-16" d="M435.92,425.68h0v-2.74l-6.17.43-2.16-.4-72.14-41.65c-3.19-1.85-8.07-2.05-10.83-.45l-34.41,19.86-6.38-1.21v2.9h0c0,1.23.89,2.53,2.64,3.53l77.88,45c3.19,1.84,8.06,2,10.83.45l38.92-22.47A3.06,3.06,0,0,0,435.92,425.68Z"/><path class="cls-17" d="M344.62,374.24,305.7,396.71c-2.77,1.6-2.42,4.41.78,6.26l77.88,45c3.19,1.84,8.06,2,10.83.45l38.92-22.47c2.76-1.6,2.41-4.41-.78-6.26l-77.88-45C352.26,372.85,347.38,372.64,344.62,374.24Z"/><polygon class="cls-16" points="366.38 392.7 416.62 422.57 416.62 324.82 366.38 324.82 366.38 392.7"/><polygon class="cls-17" points="351.44 394.06 401.68 423.93 401.68 326.17 351.44 326.17 351.44 394.06"/><path class="cls-16" d="M282.68,76h0l-8.4,4.78,7,10.28,1.46,4.17,0,167.16c0,7.4,4.54,16.07,10.09,19.27L492,396.61l4.3,12.3L505,404v0c2.13-1.24,3.49-4.08,3.49-8.12l0-180.47c0-7.4-4.55-16.07-10.1-19.27L290.08,75.93C287.16,74.25,284.53,74.42,282.68,76Z"/><polygon class="cls-16" points="502.96 375.85 502.94 218.47 499.61 220.4 499.63 377.78 502.96 375.85"/><path class="cls-17" d="M281.32,288.33,489.57,408.49c5.55,3.2,10.09-.23,10.08-7.63l0-180.46c0-7.4-4.54-16.08-10.09-19.28L281.26,81c-5.55-3.2-10.08.23-10.08,7.63l0,180.46C271.22,276.45,275.77,285.12,281.32,288.33Z"/><path class="cls-17" d="M499.63,377.78c0-.21,0-.4,0-.61l0-156.77L271.18,88.59l0,156.77c0,.21,0,.42,0,.64Z"/><polygon class="cls-17" points="499.65 375.94 499.61 222.25 271.18 90.44 271.22 244.13 499.65 375.94"/><polygon class="cls-17" points="499.61 222.25 499.65 375.94 380.9 307.42 380.02 153.24 499.61 222.25"/><path class="cls-18" d="M273,73.22h0L264.55,78l7,10.29L273,92.44l0,167.16c0,7.4,4.55,16.07,10.1,19.28L482.3,393.82l4.31,12.29,8.65-4.93v0c2.13-1.24,3.49-4.08,3.49-8.12l-.05-180.46c0-7.4-4.54-16.08-10.09-19.28L280.36,73.14C277.44,71.45,274.8,71.62,273,73.22Z"/><polygon class="cls-19" points="493.24 373.06 493.22 215.67 489.89 217.6 489.91 374.98 493.24 373.06"/><path class="cls-20" d="M271.59,285.53,479.84,405.69c5.55,3.2,10.09-.23,10.09-7.63l0-180.46c0-7.4-4.55-16.07-10.1-19.28L271.54,78.16c-5.55-3.2-10.09.23-10.09,7.63l.05,180.46C261.5,273.65,266,282.33,271.59,285.53Z"/><path class="cls-19" d="M489.91,375c0-.2,0-.4,0-.61l0-156.77L261.46,85.79l0,156.77c0,.21,0,.43,0,.64Z"/><polygon class="cls-21" points="489.93 373.14 489.89 219.45 261.46 87.64 261.5 241.33 489.93 373.14"/><polygon class="cls-22" points="489.89 219.45 489.93 373.14 371.17 304.62 370.29 150.44 489.89 219.45"/><polygon class="cls-16" points="416.62 422.57 401.68 423.93 401.68 410.47 416.62 422.57"/><g class="cls-2"><polygon class="cls-23" points="523.67 544.31 525.95 545.61 533.91 494.73 531.18 496.32 523.67 544.31"/><polygon class="cls-24" points="531.18 496.32 533.91 494.73 528.75 490.8 526.02 492.38 531.18 496.32"/><polygon class="cls-25" points="526.02 492.38 517.99 543.78 523.14 547.73 531.18 496.32 526.02 492.38"/></g><g class="cls-2"><polygon class="cls-23" points="508.54 535.56 511.04 537.01 514.94 483.61 512.21 485.19 508.54 535.56"/><polygon class="cls-26" points="512.21 485.19 514.94 483.61 509.73 480.14 507 481.72 512.21 485.19"/><polygon class="cls-25" points="507 481.72 503.08 535.5 508.3 538.97 512.21 485.19 507 481.72"/></g><g class="cls-2"><polygon class="cls-27" points="493.23 474.03 495.95 472.46 490.73 469.49 488 471.07 493.23 474.03"/><polygon class="cls-23" points="493.23 474.03 493.23 477.51 493.41 526.82 496.14 528.41 495.96 475.93 495.95 472.46 493.23 474.03"/><polygon class="cls-25" points="493.23 474.03 488 471.07 488.19 527.22 493.41 530.19 493.23 474.03"/></g><g class="cls-2"><polygon class="cls-28" points="474.22 462.88 476.94 461.3 471.74 458.84 469.01 460.43 474.22 462.88"/><polygon class="cls-23" points="474.22 462.88 476.04 487.51 478.29 518.1 481.25 519.8 478.76 485.93 476.94 461.3 474.22 462.88"/><polygon class="cls-25" points="474.22 462.88 469.01 460.43 473.33 518.96 478.53 521.42 474.22 462.88"/></g><g class="cls-2"><polygon class="cls-29" points="455.2 451.71 457.92 450.13 452.77 448.2 450.05 449.79 455.2 451.71"/><polygon class="cls-23" points="455.2 451.71 461.32 496.05 463.17 509.37 466.21 511.12 466.34 511.05 464.05 494.47 457.92 450.13 455.2 451.71"/><polygon class="cls-25" points="455.2 451.71 450.05 449.79 458.48 510.7 463.62 512.63 455.2 451.71"/></g><g class="cls-2"><path class="cls-1" d="M391.57,545.49l67.6-39.28a11.37,11.37,0,0,1-5.14-8.9l-67.6,39.28A11.34,11.34,0,0,0,391.57,545.49Z"/><polygon class="cls-30" points="377.08 481.85 444.68 442.58 440.85 441.34 373.25 480.63 377.08 481.85"/><path class="cls-23" d="M377.1,481.83l9.33,54.76a11.27,11.27,0,0,0,5.12,8.89l67.64-39.29A11.31,11.31,0,0,1,454,497.3l-9.33-54.71Z"/><g class="cls-2"><g class="cls-2"><path class="cls-31" d="M475.41,592.17,543,552.88a3.6,3.6,0,0,1-3.62-.35L471.8,591.81a3.56,3.56,0,0,0,3.61.36Z"/></g><path class="cls-32" d="M402.15,539.35l2.72-1.58,12-7,2.72-1.58L434,520.82l2.72-1.58,22.43-13.05,80.2,46.34h0a3.6,3.6,0,0,0,3.62.35q-33.79,19.65-67.6,39.29a3.54,3.54,0,0,1-3.59-.35h0l-5-2.94-2.28-1.27-12.62-7.31-2.49-1.45L437,571.68l-2.76-1.58-12.14-7-3-1.71-12.09-7-3-1.75-12.44-7.19Z"/></g><g class="cls-2"><g class="cls-33"><path class="cls-23" d="M478.24,596.94l67.6-39.28c1.58-.92,2.58-2.84,2.65-5.55l-67.6,39.28c-.06,2.71-1.07,4.63-2.65,5.55Z"/></g></g><polygon class="cls-34" points="490.43 548.28 558.02 509 554.2 505.81 486.6 545.09 490.43 548.28"/><polygon class="cls-23" points="480.89 591.39 548.49 552.11 558.02 509 490.43 548.28 480.89 591.39"/><path class="cls-25" d="M377.08,481.85l-3.83-1.23,9.27,54c.1,5.7,4.11,12.56,9,15.41l80.23,46.31c4.92,2.85,9,.64,9.1-4.92l9.54-43.11-3.83-3.19L477,588.62c0,3.51-2.34,4.83-5.18,3.19l-80.23-46.32a11.34,11.34,0,0,1-5.14-8.9Z"/></g><g class="cls-2"><polygon class="cls-23" points="464.5 587.6 466.77 588.91 474.73 538.03 472 539.62 464.5 587.6"/><polygon class="cls-24" points="472 539.62 474.73 538.03 469.58 534.1 466.85 535.68 472 539.62"/><polygon class="cls-25" points="466.85 535.68 458.81 587.08 463.96 591.02 472 539.62 466.85 535.68"/></g><g class="cls-2"><polygon class="cls-23" points="449.36 578.86 451.86 580.29 455.75 526.9 453.04 528.48 449.36 578.86"/><polygon class="cls-26" points="453.04 528.48 455.75 526.9 450.55 523.43 447.83 525.01 453.04 528.48"/><polygon class="cls-25" points="447.83 525.01 443.9 578.79 449.11 582.26 453.04 528.48 447.83 525.01"/></g><g class="cls-2"><polygon class="cls-27" points="434.05 517.33 436.77 515.75 431.55 512.78 428.82 514.36 434.05 517.33"/><polygon class="cls-23" points="434.05 517.33 434.06 520.81 434.23 570.12 436.96 571.7 436.78 519.23 436.77 515.75 434.05 517.33"/><polygon class="cls-25" points="434.05 517.33 428.82 514.36 429.02 570.52 434.24 573.5 434.05 517.33"/></g><g class="cls-2"><polygon class="cls-28" points="415.04 506.18 417.76 504.6 412.56 502.14 409.84 503.72 415.04 506.18"/><polygon class="cls-23" points="415.04 506.18 416.86 530.8 419.11 561.39 422.08 563.11 419.58 529.22 417.76 504.59 415.04 506.18"/><polygon class="cls-25" points="415.04 506.18 409.84 503.72 414.15 562.26 419.35 564.71 415.04 506.18"/></g><g class="cls-2"><polygon class="cls-29" points="396.02 495.01 398.74 493.44 393.59 491.5 390.87 493.08 396.02 495.01"/><polygon class="cls-23" points="396.02 495.02 402.15 539.35 403.99 552.67 407.04 554.41 407.17 554.35 404.88 537.77 398.74 493.44 396.02 495.02"/><polygon class="cls-25" points="396.02 495.01 390.87 493.08 399.3 554 404.44 555.92 396.02 495.01"/></g><g class="cls-2"><path class="cls-1" d="M450.58,443.31l0,8.86a6.86,6.86,0,0,0-1.3-.55,7.6,7.6,0,0,0-1.45-.29,9.06,9.06,0,0,0-3,.16,6.78,6.78,0,0,0-1.76.68l0-8.86a6.26,6.26,0,0,1,1.77-.68,9.21,9.21,0,0,1,3-.17,8.39,8.39,0,0,1,1.46.29A6.21,6.21,0,0,1,450.58,443.31Z"/><path class="cls-35" d="M382.42,488.66l0-8.87a2,2,0,0,1,.09-.58,2.46,2.46,0,0,1,.5-.84,3.94,3.94,0,0,1,.95-.75l0,8.87a3.75,3.75,0,0,0-1,.75,2.37,2.37,0,0,0-.51.83A2,2,0,0,0,382.42,488.66Z"/><g class="cls-2"><g class="cls-36"><path class="cls-37" d="M552.46,503.42l0,8.86a2.05,2.05,0,0,0-.39-1.18,3.67,3.67,0,0,0-1.18-1l0-8.87a3.92,3.92,0,0,1,1.18,1,2.11,2.11,0,0,1,.39,1.19Z"/></g></g><g class="cls-2"><g class="cls-2"><path class="cls-38" d="M565.51,503.45l0,8.87a6.38,6.38,0,0,1-.38,2.13l0-8.88a6,6,0,0,0,.38-2.12Z"/><path class="cls-39" d="M565.13,505.57l0,8.88a7.34,7.34,0,0,1-.94,1.82l0-8.87a7.23,7.23,0,0,0,.94-1.83Z"/></g></g><path class="cls-1" d="M444.78,451.48a8.72,8.72,0,0,1,3-.13,6.84,6.84,0,0,1,1.44.26,9.52,9.52,0,0,1,1.32.57L547,507.86l-55.14,32a6.25,6.25,0,0,1-1.75.68,9.27,9.27,0,0,1-3,.17,7.56,7.56,0,0,1-1.46-.3,7.15,7.15,0,0,1-1.3-.55l-96.45-55.68,55.15-32A6.74,6.74,0,0,1,444.78,451.48Z"/><path class="cls-1" d="M550.89,501.21a3.8,3.8,0,0,1,1.18,1,1.91,1.91,0,0,1,.29,1.76,2.28,2.28,0,0,1-.5.83,4.22,4.22,0,0,1-1,.76l0,0V501.2Z"/><path class="cls-1" d="M444.81,442.64h0l-.06,0Z"/><path class="cls-1" d="M445.05,442.6a8.31,8.31,0,0,1,2.18-.15A9.23,9.23,0,0,0,445.05,442.6Z"/><path class="cls-1" d="M448.32,442.56a7.56,7.56,0,0,1,1,.19c.14,0,.26.12.39.17-.13-.05-.25-.12-.39-.16C449,442.67,448.64,442.62,448.32,442.56Z"/><path class="cls-1" d="M383,478.37a3.83,3.83,0,0,1,.94-.73V482a3.6,3.6,0,0,1-1.13-1,1.92,1.92,0,0,1-.31-1.76A2.46,2.46,0,0,1,383,478.37Z"/><path class="cls-38" d="M382.45,479.79a2,2,0,0,1,.09-.58l0,0,0,8.87,0,0a2,2,0,0,0-.09.59Z"/><path class="cls-37" d="M382.53,488.05a2.42,2.42,0,0,1,.48-.83,5.66,5.66,0,0,1,.66-.57,1,1,0,0,0,.31-.17V482l3.89,2.24,55.15-32a6.74,6.74,0,0,1,1.76-.7,8.72,8.72,0,0,1,3-.13,6.84,6.84,0,0,1,1.44.26,9.52,9.52,0,0,1,1.32.57L547,507.85l3.86-2.23V501.2L450.6,443.29a6.92,6.92,0,0,0-.92-.35c-.13-.05-.26-.14-.39-.18-.31-.09-.66-.13-1-.22a2.09,2.09,0,0,1-.48-.08h-.61a8.82,8.82,0,0,0-2.19.13.36.36,0,0,1-.22,0s0,0-.09,0a7,7,0,0,0-1.71.62l-59,34.34a1,1,0,0,0-.27.17,3.05,3.05,0,0,0-.65.57,2,2,0,0,0-.49.79Z"/><path class="cls-40" d="M444.82,442.63a1.81,1.81,0,0,1,.23,0l-.24,0Z"/><path class="cls-40" d="M447.23,442.45c.21,0,.41,0,.61,0a4.1,4.1,0,0,1,.48.1c-.16,0-.32-.08-.49-.1A6,6,0,0,0,447.23,442.45Z"/><path class="cls-35" d="M369.74,481.83a8,8,0,0,0,1.8,2.94,13.3,13.3,0,0,0,3.28,2.58l100.31,57.91a23.64,23.64,0,0,0,6.09,2.33,30.9,30.9,0,0,0,10.43.56,26.67,26.67,0,0,0,5-1,21.18,21.18,0,0,0,4.43-1.89l59-34.34a12.06,12.06,0,0,0,4-3.5,6.51,6.51,0,0,0,1-6.05,7.48,7.48,0,0,0-1.8-2.93,13.56,13.56,0,0,0-3.28-2.59L459.76,437.94a23.43,23.43,0,0,0-6.09-2.32,30.83,30.83,0,0,0-10.43-.57,28.48,28.48,0,0,0-5,1,22.6,22.6,0,0,0-4.42,1.88l-59,34.34a12.49,12.49,0,0,0-4,3.51A6.61,6.61,0,0,0,369.74,481.83Zm12.79-2.62a1.92,1.92,0,0,1,.53-.84,3.1,3.1,0,0,1,.92-.74l59-34.34a7.62,7.62,0,0,1,1.71-.62s0,0,.09,0a.36.36,0,0,0,.22,0,8.82,8.82,0,0,1,2.19-.13h.61c.18,0,.31.08.48.08s.66.13,1,.22a1.36,1.36,0,0,1,.39.18,6.92,6.92,0,0,1,.92.35L550.87,501.2a3.43,3.43,0,0,1,1.18,1.05,1.82,1.82,0,0,1,.31,1.75,2.25,2.25,0,0,1-.48.83,4.52,4.52,0,0,1-1,.75l0,0L547,507.85l-55.14,32.07a5.78,5.78,0,0,1-1.76.66,10.14,10.14,0,0,1-3,.17,7.16,7.16,0,0,1-1.49-.31,6.16,6.16,0,0,1-1.27-.52L387.87,484.2,384,482c0-.05,0-.05,0-.05a4.07,4.07,0,0,1-1.14-1A1.91,1.91,0,0,1,382.53,479.21Z"/><path class="cls-40" d="M449.68,442.92a7.07,7.07,0,0,1,.92.37L550.87,501.2h0L450.58,443.31A6.6,6.6,0,0,0,449.68,442.92Z"/><path class="cls-40" d="M384,477.62v0h0l59-34.34a8.31,8.31,0,0,1,1.73-.64,6.4,6.4,0,0,0-1.71.66Z"/></g><path class="cls-37" d="M369.39,479.77v8.86a6.45,6.45,0,0,0,.31,2.05,8.72,8.72,0,0,0,1.79,2.94,15.62,15.62,0,0,0,3.29,2.58l100.31,57.91a22.31,22.31,0,0,0,6.09,2.32,31.07,31.07,0,0,0,10.47.62,27.29,27.29,0,0,0,5-1,20.86,20.86,0,0,0,4.47-1.89l59-34.3v0a5.14,5.14,0,0,0,.92-.57,11.91,11.91,0,0,0,3.11-2.94,6.88,6.88,0,0,0,1.31-3.94v-8.89a7,7,0,0,1-1.31,4,11.68,11.68,0,0,1-3.07,2.93c-.31.18-.61.4-1,.57l-59,34.34a21.18,21.18,0,0,1-4.43,1.89,26.67,26.67,0,0,1-5,1,30.9,30.9,0,0,1-10.43-.56,23.64,23.64,0,0,1-6.09-2.33L374.82,487.35a13.3,13.3,0,0,1-3.28-2.58,8,8,0,0,1-1.8-2.94A7,7,0,0,1,369.39,479.77Z"/><g class="cls-2"><path class="cls-41" d="M473.38,403.56c6.78,1.84,12.25,8.12,14.22,17.63L497,466.71l5.57,3.49-8.89-47.36C489.83,404.19,475.94,404.92,473.38,403.56Z"/><path class="cls-42" d="M401.18,471.1l9.41,45.48,5.57,3.49-8.88-47.31c-3.68-17.85,4.84-39,19-47.18l38.21-22.07c5.56-3.23,11.17-3.94,16.15-2.6-3.84-.53-11.32-5.4-22.25.94l-38.21,22.07C406,432.08,397.5,453.25,401.18,471.1Z"/><path class="cls-43" d="M426.28,425.57c-14.18,8.18-22.69,29.33-19,47.18l8.87,47.34,3.18-1.84-8.87-47.34c-3.24-15.65,4.25-34.18,16.65-41.34l38.22-22.07c12.4-7.16,25.13-.3,28.37,15.35l8.87,47.34,3.18-1.83L496.88,421c-3.69-17.85-18.2-25.7-32.37-17.52Z"/></g><g class="cls-2"><path class="cls-41" d="M522.84,482.54l6.75,3.66,9.35-35.33c1.37-5.2.73-8.94-1.41-10.86l-6.26-5.52c2.2,1.92,2.83,5.61,1.46,10.86Z"/><path class="cls-42" d="M434.89,533.29l6.75,3.7L451,501.67c3.65-13.88,18.34-31.9,32.76-40.21L522.69,439c8.17-4.75,14.56-5.34,17.85-2.38-4.41-2.19-6.69-13.2-24.1-3.15l-38.88,22.46c-14.42,8.31-29.12,26.33-32.77,40.16Z"/><path class="cls-42" d="M484.23,452.08l7.9,4.55L522.69,439c8.18-4.76,14.55-5.34,17.86-2.4-4.59-2.29-6.74-13.18-24.11-3.14Z"/><path class="cls-43" d="M483.78,461.46c-14.43,8.33-29.12,26.34-32.78,40.2L441.66,537l3.24-1.87,9.34-35.32c3.21-12.15,16.1-27.94,28.72-35.22l38.9-22.46c12.61-7.29,20.29-3.37,17.08,8.77L529.6,486.2l3.24-1.86L542.18,449c3.66-13.86-5.11-18.33-19.5-10Z"/><path class="cls-43" d="M522.69,439l-30.56,17.61L494.4,458l27.46-15.83c12.61-7.28,20.3-3.39,17.07,8.76l-7.52,28.45-1.82,6.86,3.23-1.86.95-3.64L542.16,449C545.84,435.17,537.07,430.71,522.69,439Z"/><polygon class="cls-35" points="485.23 463.29 539.55 494.67 558 494.67 533.77 480.69 531.41 479.33 494.4 457.95 485.23 463.29"/><path class="cls-35" d="M452.65,435.46v9l22.45,12.95c.82-.5,1.65-1,2.48-1.49l6.65-3.85-24.47-14.14a23.43,23.43,0,0,0-6.08-2.31C453.35,435.54,453,435.54,452.65,435.46Z"/></g><path class="cls-41" d="M288.44,369.45l-.05,0-.07-.62L286,361.05a15.94,15.94,0,0,0-7.79-9.77l.23.1-15-8.16c2.22-7,7.46-20,17.19-25.62L252.8,301.43c-10.44,6-15.72,20.55-17.64,27.05-.26-.05-.51-.15-.77-.2a14.16,14.16,0,0,0-4.64-.09,20.92,20.92,0,0,0-9.11,3.9l-70.59,48.59a19.23,19.23,0,0,0-7.78,14.87,3.35,3.35,0,0,0,1.62,3.05l32.81,17.82,6.83,3.72.08.05h0a2.73,2.73,0,0,0,1.67.27,3.46,3.46,0,0,0,1-.31l57.24-27.24a17.86,17.86,0,0,1,5.21-1.59,16.44,16.44,0,0,1,9.69,1.58,20.12,20.12,0,0,0,28.93-18.43,11.14,11.14,0,0,1,.83-3.89,3.48,3.48,0,0,0,.13-1.12Zm-12.31-19.07c.21.07.4.16.6.24C276.53,350.54,276.34,350.45,276.13,350.38Z"/><g class="cls-2"><polygon class="cls-43" points="183.66 420.2 144.1 398.69 248.88 347.93 288.44 369.45 183.66 420.2"/><path class="cls-41" d="M288.39,369.43a3.19,3.19,0,0,1-.13,1.16,11.14,11.14,0,0,0-.83,3.89,20.28,20.28,0,0,1-28.93,18.43,16.44,16.44,0,0,0-9.69-1.58,17.86,17.86,0,0,0-5.21,1.59l-57.24,27.24a3.46,3.46,0,0,1-1,.31,2.82,2.82,0,0,1-1.72-.28Z"/><path class="cls-42" d="M278.43,351.38a14.41,14.41,0,0,0-4.51-1.58,13.9,13.9,0,0,0-4.6-.09,21.12,21.12,0,0,0-9.15,3.9L189.61,402.2a19,19,0,0,0-6.68,9,19.44,19.44,0,0,0-1.09,5.85,3.28,3.28,0,0,0,1.61,3L143.89,398.6a3.35,3.35,0,0,1-1.62-3.05,19.23,19.23,0,0,1,7.78-14.87l70.59-48.59a20.92,20.92,0,0,1,9.11-3.9,14.16,14.16,0,0,1,4.64.09,14.79,14.79,0,0,1,4.51,1.59Z"/><path class="cls-43" d="M269.35,348.18h-.25a22.6,22.6,0,0,0-9.81,4.18L230,372.43l-36.55-19.9,28.08-19.19a19.73,19.73,0,0,1,8.48-3.66c.64-.06,1.28-.12,1.92-.12a10.43,10.43,0,0,1,2.19.21,13.3,13.3,0,0,1,4.09,1.44Z"/><path class="cls-43" d="M269.27,349.7a14,14,0,0,1,4.62.08A15.53,15.53,0,0,1,286,361.05l2.33,7.75.07.63L183.61,420.19a3.23,3.23,0,0,1-1.82-3.14,19.16,19.16,0,0,1,7.77-14.87l70.58-48.58A20.53,20.53,0,0,1,269.27,349.7Z"/></g><g class="cls-2"><polygon class="cls-41" points="232.12 368.53 199.47 350.77 226.79 331.96 259.44 349.72 232.12 368.53"/><polygon class="cls-44" points="256.51 349.86 232.01 366.75 224.78 362.81 216.92 358.55 214.33 357.12 209.67 354.59 202.38 350.62 226.89 333.74 229.6 335.23 234.29 337.76 236.88 339.16 244.75 343.46 256.51 349.86"/></g><polygon class="cls-45" points="234.29 337.76 214.33 357.12 209.67 354.59 229.6 335.23 234.29 337.76"/><polygon class="cls-45" points="244.75 343.46 224.78 362.81 216.92 358.55 236.88 339.16 244.75 343.46"/><g class="cls-2"><path class="cls-46" d="M195.33,361.28a.77.77,0,0,1,0,1.38l-2.14,1.59a2,2,0,0,1-2.07.13l-6.31-3.76a.77.77,0,0,1,0-1.38l2.15-1.59a2,2,0,0,1,2.06-.14Z"/></g><g class="cls-2"><path class="cls-46" d="M206,367.66c.58.35.56.95,0,1.37l-2.14,1.59a2,2,0,0,1-2,.15L195.52,367c-.58-.35-.56-.95,0-1.37l2.15-1.59a2,2,0,0,1,2-.15Z"/></g><g class="cls-2"><path class="cls-46" d="M188,366.73a.77.77,0,0,1,0,1.38l-2.14,1.59a2,2,0,0,1-2.07.14l-6.31-3.77a.77.77,0,0,1,0-1.38l2.14-1.59a2,2,0,0,1,2.07-.13Z"/></g><g class="cls-2"><path class="cls-46" d="M198.66,373.11a.76.76,0,0,1,0,1.37l-2.14,1.59a2,2,0,0,1-2.05.15l-6.31-3.77c-.58-.34-.56-.95,0-1.37l2.15-1.58a2,2,0,0,1,2-.15Z"/></g><g class="cls-2"><path class="cls-46" d="M209.35,379.5c.58.34.56.95,0,1.37l-2.14,1.58a2,2,0,0,1-2.05.15l-6.31-3.76a.76.76,0,0,1,0-1.37l2.15-1.59a2,2,0,0,1,2-.15Z"/></g><g class="cls-2"><path class="cls-46" d="M180.61,372.19a.77.77,0,0,1,0,1.38l-2.14,1.59a2,2,0,0,1-2.07.13l-6.31-3.76a.78.78,0,0,1,0-1.39l2.15-1.58a2,2,0,0,1,2.06-.14Z"/></g><g class="cls-2"><path class="cls-46" d="M191.3,378.57c.58.34.56.95,0,1.37l-2.14,1.59a2,2,0,0,1-2,.14l-6.31-3.76a.76.76,0,0,1,0-1.37L183,375a2,2,0,0,1,2-.15Z"/></g><g class="cls-2"><path class="cls-46" d="M202,385c.58.35.56.95,0,1.37l-2.14,1.59a2,2,0,0,1-2,.15l-6.31-3.77a.76.76,0,0,1,0-1.37l2.15-1.59a2,2,0,0,1,2-.15Z"/></g><g class="cls-2"><path class="cls-35" d="M173.25,377.64a.77.77,0,0,1,0,1.38l-2.14,1.59a2.05,2.05,0,0,1-2.07.14L162.75,377a.77.77,0,0,1,0-1.38l2.15-1.59a2,2,0,0,1,2.06-.14Z"/></g><g class="cls-2"><path class="cls-47" d="M183.94,384a.76.76,0,0,1,0,1.37L181.8,387a2,2,0,0,1-2.05.15l-6.31-3.77c-.58-.34-.56-.95,0-1.37l2.15-1.59a2,2,0,0,1,2-.15Z"/></g><path class="cls-32" d="M194.75,378.49l-6.28-3.78a.75.75,0,0,1-.42-.56l-.3-2.25a.73.73,0,0,0,.42.55l6.31,3.78a2,2,0,0,0,2.05-.15l2.12-1.59a1,1,0,0,0,.44-.75l.3,2.2a1,1,0,0,1-.43.81l-2.16,1.59A2,2,0,0,1,194.75,378.49Z"/><path class="cls-48" d="M195.06,391.05l.3,2.17a1,1,0,0,1-.44.82l-2.12,1.58a2.05,2.05,0,0,1-2.08.16L184.44,392a.71.71,0,0,1-.42-.56l-.31-2.26a.77.77,0,0,0,.42.56l6.32,3.78a2,2,0,0,0,2-.16l2.13-1.58A.92.92,0,0,0,195.06,391.05Z"/><path class="cls-32" d="M195.53,367l6.29,3.75a2,2,0,0,0,2-.15L206,369a1,1,0,0,0,.44-.72l.27,2.2a.78.78,0,0,1-.41.78l-2.16,1.59a2,2,0,0,1-2,.15l-6.32-3.75a.84.84,0,0,1-.41-.59l-.28-2.26A.8.8,0,0,0,195.53,367Z"/><path class="cls-32" d="M202.42,385.58l.28,2.2a.81.81,0,0,1-.41.79l-2.16,1.61a2,2,0,0,1-2,.13l-6.29-3.75a.86.86,0,0,1-.45-.59l-.27-2.26a.8.8,0,0,0,.42.59l6.28,3.75a2.05,2.05,0,0,0,2.08-.16l2.13-1.58A.9.9,0,0,0,202.42,385.58Z"/><path class="cls-32" d="M209.76,380.05l.3,2.29a.84.84,0,0,1-.41.79l-2.15,1.58a2,2,0,0,1-2.05.16l-6.31-3.78a.77.77,0,0,1-.42-.56l-.3-2.26a.78.78,0,0,0,.44.56l6.29,3.78a2,2,0,0,0,2-.16l2.16-1.58A.86.86,0,0,0,209.76,380.05Z"/><path class="cls-32" d="M191.29,379.93a.87.87,0,0,0,.44-.69l.3,2.17a.91.91,0,0,1-.44.78l-2.13,1.59a2,2,0,0,1-2,.15l-6.32-3.75a.76.76,0,0,1-.41-.58l-.31-2.27a.88.88,0,0,0,.42.59l6.32,3.75a2,2,0,0,0,2-.15Z"/><path class="cls-46" d="M216.71,374a.76.76,0,0,1,0,1.37L214.57,377a2,2,0,0,1-2,.15l-6.31-3.77c-.58-.34-.56-.95,0-1.37l2.15-1.59a2,2,0,0,1,2-.14Z"/><path class="cls-32" d="M217.43,376.87a1,1,0,0,1-.41.82l-2.16,1.58a2,2,0,0,1-2,.16l-6.32-3.78a.86.86,0,0,1-.42-.56l-.3-2.29a.87.87,0,0,0,.42.58l6.32,3.76a2,2,0,0,0,2-.13l2.16-1.61a.81.81,0,0,0,.41-.79Z"/><path class="cls-37" d="M173.56,381.29l-2.13,1.58a2,2,0,0,1-2.07.13L163,379.24a.87.87,0,0,1-.42-.58l-.3-2.26a.91.91,0,0,0,.42.59l6.31,3.75a2,2,0,0,0,2.08-.13l2.16-1.58a.94.94,0,0,0,.4-.73l.28,2.17A.88.88,0,0,1,173.56,381.29Z"/><path class="cls-49" d="M184.22,387.66l-2.12,1.59a2,2,0,0,1-2,.15l-6.31-3.78a.82.82,0,0,1-.42-.55l-.3-2.26a.78.78,0,0,0,.42.55l6.31,3.78a2,2,0,0,0,2.05-.15L184,385.4a.91.91,0,0,0,.41-.72l.3,2.17A.88.88,0,0,1,184.22,387.66Z"/><path class="cls-32" d="M184.69,362.31l-.27-2.29a.66.66,0,0,0,.42.58l6.31,3.79a2,2,0,0,0,2-.13l2.16-1.61a.84.84,0,0,0,.41-.7l.3,2.17a.85.85,0,0,1-.41.79l-2.15,1.61a2,2,0,0,1-2.05.12l-6.31-3.75A.8.8,0,0,1,184.69,362.31Z"/><path class="cls-32" d="M170,373.19l-.3-2.26a.77.77,0,0,0,.41.58l6.32,3.79a2,2,0,0,0,2.07-.16l2.13-1.58a.91.91,0,0,0,.44-.73l.27,2.2a.79.79,0,0,1-.41.79l-2.12,1.61a2.12,2.12,0,0,1-2.08.13l-6.31-3.79A.71.71,0,0,1,170,373.19Z"/><path class="cls-32" d="M177.35,367.75l-.3-2.26a.91.91,0,0,0,.42.59l6.32,3.74a2,2,0,0,0,2.07-.12l2.13-1.58a.85.85,0,0,0,.4-.79l.31,2.26a.9.9,0,0,1-.41.79L186.13,372a2,2,0,0,1-2,.16l-6.32-3.79A.78.78,0,0,1,177.35,367.75Z"/><path class="cls-50" d="M194.63,390.4a.76.76,0,0,1,0,1.37l-2.14,1.59a2,2,0,0,1-2.05.15l-6.31-3.77c-.58-.34-.56-.95,0-1.37l2.15-1.59a2,2,0,0,1,2-.14Z"/><path class="cls-23" d="M204,353.28c.31.17.31.49,0,.72l-1.09.87a1,1,0,0,1-1.07.12l-3.38-1.85c-.31-.17-.31-.49,0-.72l1.09-.88a1.06,1.06,0,0,1,1.07-.11Z"/><path class="cls-32" d="M204.47,354.75a.47.47,0,0,1-.2.43l-1.1.88a1.06,1.06,0,0,1-1.07.12l-3.38-1.86a.43.43,0,0,1-.23-.29l-.2-1.19a.44.44,0,0,0,.23.3L201.9,355a1.08,1.08,0,0,0,1.07-.1l1.1-.89a.43.43,0,0,0,.2-.42Z"/><path class="cls-23" d="M212.56,357.87c.31.17.31.49,0,.72l-1.09.88a1.06,1.06,0,0,1-1.07.11L207,357.73a.4.4,0,0,1,0-.71l1.1-.88a1,1,0,0,1,1.07-.12Z"/><path class="cls-32" d="M213,359.34a.48.48,0,0,1-.2.44l-1.1.87a1,1,0,0,1-1.07.12l-3.38-1.86a.39.39,0,0,1-.23-.28l-.21-1.19a.43.43,0,0,0,.23.29l3.39,1.85a1.06,1.06,0,0,0,1.07-.11l1.1-.89a.41.41,0,0,0,.19-.42Z"/><path class="cls-23" d="M221.07,362.47a.4.4,0,0,1,0,.72l-1.09.87a1,1,0,0,1-1.07.12l-3.38-1.85c-.31-.17-.31-.49,0-.72l1.09-.87a1,1,0,0,1,1.07-.12Z"/><path class="cls-32" d="M221.5,363.94a.49.49,0,0,1-.19.43l-1.1.88a1,1,0,0,1-1.07.12l-3.39-1.86a.44.44,0,0,1-.23-.28l-.2-1.2a.47.47,0,0,0,.23.3l3.39,1.84a1.07,1.07,0,0,0,1.06-.1l1.1-.89a.41.41,0,0,0,.2-.42Z"/><path class="cls-23" d="M229.59,367.07c.31.17.31.48,0,.71l-1.09.88a1,1,0,0,1-1.07.12l-3.38-1.86c-.31-.17-.32-.48,0-.71l1.09-.88a1,1,0,0,1,1.07-.12Z"/><path class="cls-32" d="M230,368.53a.48.48,0,0,1-.2.44l-1.09.87a1,1,0,0,1-1.07.12l-3.39-1.85a.45.45,0,0,1-.23-.29l-.2-1.19a.47.47,0,0,0,.23.3l3.38,1.84a1.06,1.06,0,0,0,1.07-.11l1.1-.88a.41.41,0,0,0,.2-.42Z"/><polygon class="cls-51" points="179.33 410.56 179.32 413.52 146.65 394.66 146.66 391.7 179.33 410.56"/><g class="cls-2"><path class="cls-23" d="M262.12,347.93l-27.83-16.17c.05-.22,4.92-22.48,18.51-30.33l27.82,16.17C267,325.45,262.17,347.71,262.12,347.93Z"/></g><rect class="cls-52" x="143.49" y="171.16" width="4.3" height="3.95" transform="translate(-64.23 88.62) rotate(-27.99)"/><rect class="cls-52" x="205.52" y="287.86" width="4.3" height="3.95" transform="translate(-111.75 131.4) rotate(-27.99)"/><path class="cls-52" d="M216,221.64c.21-6.08-3.82-13.64-9-16.88l-53.56-33.47c-5.19-3.25-9.57-.95-9.78,5.13l-2.2,62.73c-.21,6.08,3.82,13.63,9,16.88L204,289.5c5.19,3.25,9.57.95,9.78-5.13Z"/><path class="cls-53" d="M213,223.24c.22-6.08-3.82-13.64-9-16.88l-53.56-33.47c-5.19-3.25-9.57-.95-9.78,5.13l-2.2,62.73c-.21,6.08,3.82,13.63,9,16.88L201,291.1c5.19,3.25,9.57.95,9.79-5.13Z"/><polygon class="cls-54" points="154.04 206.86 151.39 205.2 150.59 227.89 153.25 229.55 154.04 206.86"/><polygon class="cls-54" points="158.35 209.56 155.7 207.9 154.91 230.59 157.56 232.25 158.35 209.56"/><polygon class="cls-54" points="169.88 216.76 168.39 215.83 167.6 238.52 169.09 239.45 169.88 216.76"/><polygon class="cls-54" points="165.32 213.91 162.67 212.25 161.87 234.94 164.53 236.6 165.32 213.91"/><polygon class="cls-54" points="185.23 226.35 182.57 224.69 181.78 247.38 184.43 249.04 185.23 226.35"/><polygon class="cls-54" points="175.61 220.34 172.95 218.68 172.16 241.37 174.81 243.03 175.61 220.34"/><polygon class="cls-54" points="161.57 211.56 160.53 210.92 159.74 233.61 160.78 234.25 161.57 211.56"/><polygon class="cls-54" points="178.16 221.93 177.12 221.28 176.32 243.97 177.36 244.62 178.16 221.93"/><polygon class="cls-54" points="171.85 217.99 170.82 217.34 170.02 240.03 171.06 240.68 171.85 217.99"/><polygon class="cls-54" points="189.54 229.05 186.88 227.39 186.09 250.08 188.75 251.74 189.54 229.05"/><polygon class="cls-54" points="193.85 231.74 191.2 230.08 190.41 252.77 193.06 254.43 193.85 231.74"/><polygon class="cls-54" points="200.82 236.1 198.16 234.44 197.37 257.13 200.03 258.79 200.82 236.1"/><polygon class="cls-54" points="197.07 233.75 196.03 233.1 195.23 255.79 196.27 256.44 197.07 233.75"/><polygon class="cls-54" points="180.81 223.59 179.77 222.94 178.98 245.63 180.01 246.28 180.81 223.59"/><polygon class="cls-55" points="200.45 246.65 151.02 215.76 150.96 217.34 200.39 248.23 200.45 246.65"/><polygon class="cls-56" points="200.43 247.12 151 216.23 150.98 216.86 200.41 247.76 200.43 247.12"/><polygon class="cls-57" points="156.45 270.5 128.69 229.18 150.96 217.34 199.43 247.66 156.45 270.5"/><path class="cls-58" d="M169.88,267.24l2-7.2a8.39,8.39,0,0,0-.19-4.42,9.93,9.93,0,0,0-3.5-4.76L137.47,228c-5.14-4.43-6.57-1.87-6.57-1.87l-2.16,1.54c-2.38,2.26-.88,5.44-.88,5.44l34.24,26,.12.09.49,10.28C164.18,271.47,169.88,267.24,169.88,267.24Z"/><path class="cls-59" d="M169.88,267.24l2-7.2a8.39,8.39,0,0,0-.19-4.42l-9.54,3.47.12.09.49,10.28C164.18,271.47,169.88,267.24,169.88,267.24Z"/><path class="cls-60" d="M164.43,269.34l1.86-7.74a7.33,7.33,0,0,0,0-4.17,3.87,3.87,0,0,0-1.59-2.16l-32.9-24.09c-4.25-3.51-6.51.48-6.51.48l-5.19,5.94a4.83,4.83,0,0,0-1.37,4.91L140.11,261l6,4.57,0,.41.2,5.24c1.57,3,7.36,1.86,7.36,1.86Z"/><path class="cls-61" d="M164.43,269.34l1.86-7.74a7.33,7.33,0,0,0,0-4.17l-17.25,6.17L146.13,266l.2,5.24c1.57,3,7.36,1.86,7.36,1.86Z"/><path class="cls-58" d="M126.7,290.79l.53,2.11,6-3.61s3.72-2.37,4.57-6l3.38-9.36S129.77,275.24,126.7,290.79Z"/><path class="cls-62" d="M114,362.38l2.11,2.86s18.56.48,14.54-41.15c0,0-2.93-22.71-2.72-30.19,0,0,1.39-16.84,19.8-21.86a9.15,9.15,0,0,0,1.81-5L141,263.87l-16.61,5.06s-12.18,9.65-12.62,10.68S104.17,354.69,114,362.38Z"/><path class="cls-63" d="M120.28,240.75s-11.23,6.42-14.15,22.17c0,0-14.38,68,1.24,94.68,0,0,9.95,18,15.37-1.25,0,0,3.57-12.46.38-59.57,0,0-1.51-20,15.47-25.7l11-4S151.84,257.65,120.28,240.75Z"/><path class="cls-62" d="M124,263.34c2.3-2,2.75-5.3,1-7.26s-5-1.9-7.33.14-2.75,5.3-1,7.27S121.72,265.38,124,263.34Z"/><path class="cls-64" d="M122.9,262.08a3.11,3.11,0,1,0-4.73.1A3.36,3.36,0,0,0,122.9,262.08Z"/></g></g></svg>