<svg xmlns="http://www.w3.org/2000/svg" xmlns:xlink="http://www.w3.org/1999/xlink" viewBox="0 0 638.72 419"><defs><style>.cls-1{fill:none;}.cls-2{isolation:isolate;}.cls-3{fill:#bb884f;}.cls-4{fill:#e0b477;}.cls-5{fill:#efcd90;}.cls-6,.cls-8{opacity:0.6;}.cls-10,.cls-12,.cls-18,.cls-22,.cls-23,.cls-26,.cls-28,.cls-30,.cls-6,.cls-8{mix-blend-mode:multiply;}.cls-7{fill:#f7ecea;}.cls-8,.cls-9{fill:#c2ab9d;}.cls-10,.cls-12{opacity:0.5;}.cls-11,.cls-12{fill:#e4cdbf;}.cls-13{fill:#c5975b;}.cls-14{fill:#daaf6a;}.cls-15{fill:#efd996;}.cls-16{fill:#5c4123;}.cls-17{fill:#c1cdeb;}.cls-18,.cls-24{fill:#ccd8f5;}.cls-18,.cls-21,.cls-22{opacity:0.3;}.cls-19{fill:#171716;}.cls-20{fill:#1d68ca;}.cls-21{fill:#090909;}.cls-22,.cls-23{fill:#1a1c1f;}.cls-23,.cls-26{opacity:0.4;}.cls-25{fill:#e0b29d;}.cls-27,.cls-28,.cls-30{fill:#e9c2b0;}.cls-28{opacity:0.1;}.cls-29{fill:#2b0d04;}.cls-30{opacity:0.2;}.cls-31{fill:#bd825a;}.cls-32{fill:#f7f7f7;}.cls-33{fill:#292b34;}.cls-34{clip-path:url(#clip-path);}.cls-35{fill:#17191f;}.cls-36{fill:#131419;}.cls-37{clip-path:url(#clip-path-2);}.cls-38{fill:#1d2027;}.cls-39{fill:#1e2129;}.cls-40{fill:#23262f;}.cls-41{fill:#0b0b0b;}</style><clipPath id="clip-path"><path class="cls-1" d="M345.77,157.54v-.34a.32.32,0,0,1-.19.26v.34A.31.31,0,0,0,345.77,157.54Z"/></clipPath><clipPath id="clip-path-2"><path class="cls-1" d="M343.38,157.87v.34a.31.31,0,0,0,.18.25,1,1,0,0,0,.89,0v-.34a1,1,0,0,1-.89,0A.31.31,0,0,1,343.38,157.87Z"/></clipPath></defs><title>Inventory</title><g class="cls-2"><g id="Layer_1" data-name="Layer 1"><g class="cls-2"><polygon class="cls-3" points="259.09 346.69 238.8 335 228.5 329.07 209.21 317.96 208.71 222.33 228.12 233.51 229.4 234.25 258.59 251.06 259.09 346.69"/><polygon class="cls-4" points="331.61 304.44 300.47 322.58 290.16 328.59 259.09 346.69 258.59 251.06 289.78 232.89 300.09 226.88 331.11 208.81 331.61 304.44"/><polygon class="cls-5" points="331.11 208.81 300.09 226.88 289.78 232.89 258.59 251.06 208.71 222.33 239.73 204.26 250.04 198.25 281.22 180.08 331.11 208.81"/></g><g class="cls-6"><polygon class="cls-7" points="301.89 191.97 312.21 197.91 239.7 240.16 229.37 234.22 301.89 191.97"/></g><polygon class="cls-8" points="239.68 240.16 240.05 335.71 229.75 329.78 229.37 234.22 230.66 234.96 239.68 240.16"/><polygon class="cls-7" points="300.63 191.26 310.95 197.2 238.44 239.45 228.12 233.51 300.63 191.26"/><polygon class="cls-9" points="238.42 239.45 238.8 335 228.5 329.07 228.12 233.51 229.4 234.25 238.42 239.45"/><g class="cls-2"><polygon class="cls-4" points="356.68 323.36 370.88 315.03 378.08 310.81 391.57 302.9 391.39 235.7 377.82 243.66 376.92 244.19 356.5 256.16 356.68 323.36"/><polygon class="cls-3" points="305.49 294.07 327.48 306.65 334.75 310.81 356.68 323.36 356.5 256.16 334.49 243.56 327.21 239.4 305.31 226.88 305.49 294.07"/><polygon class="cls-5" points="305.31 226.88 327.21 239.4 334.49 243.56 356.5 256.16 391.39 235.7 369.5 223.17 362.22 219 340.2 206.41 305.31 226.88"/></g><g class="cls-6"><polygon class="cls-7" points="325.75 214.88 318.53 219.12 369.72 248.4 376.94 244.17 325.75 214.88"/></g><polygon class="cls-8" points="369.73 248.4 370 315.54 377.2 311.31 376.94 244.16 376.04 244.69 369.73 248.4"/><polygon class="cls-7" points="326.63 214.38 319.41 218.61 370.6 247.89 377.82 243.66 326.63 214.38"/><polygon class="cls-9" points="370.61 247.89 370.88 315.03 378.08 310.81 377.82 243.66 376.92 244.19 370.61 247.89"/><g class="cls-2"><polygon class="cls-4" points="310.62 175.57 310.58 212.75 274.35 233.89 274.4 196.71 310.62 175.57"/><polygon class="cls-3" points="274.4 196.71 274.35 233.89 237.26 212.54 237.31 175.36 274.4 196.71"/><polygon class="cls-5" points="310.62 175.57 274.4 196.71 237.31 175.36 273.53 154.22 310.62 175.57"/></g><polygon class="cls-7" points="259.44 162.44 251.94 166.82 289.03 188.17 296.53 183.8 259.44 162.44"/><polygon class="cls-9" points="289.05 188.17 296.53 183.8 296.54 191.37 289.06 195.71 289.05 188.17"/><g class="cls-2"><polygon class="cls-3" points="398.14 363.43 379.9 352.93 370.64 347.6 353.3 337.61 353.04 298.49 370.49 308.54 371.64 309.2 397.88 324.31 398.14 363.43"/><polygon class="cls-4" points="463.33 325.45 435.34 341.76 426.07 347.16 398.14 363.43 397.88 324.31 425.91 307.98 435.18 302.58 463.07 286.33 463.33 325.45"/><polygon class="cls-5" points="463.07 286.33 435.18 302.58 425.91 307.98 397.88 324.31 353.04 298.49 380.92 282.24 390.19 276.84 418.23 260.51 463.07 286.33"/></g><g class="cls-10"><polygon class="cls-11" points="433.95 303.34 424.68 308.74 379.69 283 388.96 277.6 433.95 303.34"/></g><polygon class="cls-12" points="433.95 303.34 434.11 342.52 424.83 347.92 424.68 308.74 433.95 303.34"/><polygon class="cls-9" points="435.17 302.59 435.32 341.78 426.05 347.18 425.89 307.99 435.17 302.59"/><polygon class="cls-7" points="435.18 302.58 425.91 307.98 380.92 282.24 390.19 276.84 435.18 302.58"/><g class="cls-6"><polygon class="cls-7" points="436.8 271.2 446.08 276.54 380.89 314.52 371.61 309.18 436.8 271.2"/></g><polygon class="cls-8" points="380.87 314.52 381.03 353.57 371.77 348.23 371.61 309.18 372.77 309.84 380.87 314.52"/><polygon class="cls-7" points="435.67 270.56 444.95 275.9 379.76 313.88 370.48 308.54 435.67 270.56"/><polygon class="cls-9" points="379.75 313.88 379.9 352.93 370.64 347.6 370.49 308.54 371.64 309.2 379.75 313.88"/><g class="cls-2"><polygon class="cls-4" points="444.65 256.45 444.61 289.88 412.05 308.88 412.09 275.46 444.65 256.45"/><polygon class="cls-3" points="412.09 275.46 412.05 308.88 378.71 289.69 378.75 256.26 412.09 275.46"/><polygon class="cls-5" points="444.65 256.45 412.09 275.46 378.75 256.26 411.31 237.26 444.65 256.45"/></g><polygon class="cls-7" points="398.64 244.65 391.9 248.59 425.24 267.78 431.98 263.85 398.64 244.65"/><polygon class="cls-9" points="425.26 267.78 431.98 263.85 431.99 270.66 425.27 274.56 425.26 267.78"/><g class="cls-2"><polygon class="cls-13" points="387.89 311.08 387.96 366.01 325.27 402.77 325.21 347.84 387.89 311.08"/><polygon class="cls-14" points="325.21 347.84 325.27 402.77 250.88 359.88 250.82 304.94 325.21 347.84"/><polygon class="cls-15" points="387.89 311.08 325.21 347.84 250.82 304.94 313.5 268.18 387.89 311.08"/></g><polygon class="cls-7" points="289.11 282.49 276.14 290.09 350.53 332.99 363.5 325.39 289.11 282.49"/><polygon class="cls-9" points="350.56 332.99 363.5 325.39 363.56 338.51 350.61 346.05 350.56 332.99"/><polygon class="cls-16" points="381.41 362.87 381.42 364.15 371.63 369.86 371.62 368.57 381.41 362.87"/><polygon class="cls-16" points="379.52 363.23 378.42 363.87 378.39 356.96 377.3 357.6 378.93 353.77 380.59 355.67 379.5 356.31 379.52 363.23"/><polygon class="cls-16" points="374.61 366.09 373.51 366.73 373.48 359.82 372.38 360.46 374.02 356.63 375.68 358.54 374.58 359.18 374.61 366.09"/><path class="cls-16" d="M368.35,370.68l0-9.63a7,7,0,0,1,3.35-5.33l9.61-5.6c1.86-1.08,3.37-.45,3.38,1.41l0,9.63a7,7,0,0,1-3.35,5.33l-9.62,5.6C369.87,373.17,368.36,372.54,368.35,370.68Zm3.31-14.29a5.6,5.6,0,0,0-2.67,4.26l0,9.64c0,1.48,1.21,2,2.69,1.13l9.62-5.61a5.57,5.57,0,0,0,2.67-4.25l0-9.64c0-1.48-1.21-2-2.69-1.13Z"/><path class="cls-16" d="M351.39,375.15a.12.12,0,0,0,.05-.08,5.29,5.29,0,0,1,2-1.62c1.18-.69,2-.93,2-.72,0,0,0,0,.05,0a.12.12,0,0,0,.05-.08c0-.2.68-.8,1.68-1.42l0,5.32,0,.63c.12.65.7.74,1.41.33a2.92,2.92,0,0,0,1.41-2.2c0-.19-.14-.26-.31-.16a.67.67,0,0,0-.32.53,1.58,1.58,0,0,1-.78,1.14c-.85.5-.77-.54-.77-.54l0-5.44c1-.54,1.68-.73,1.68-.53,0,0,0,0,.05,0a.13.13,0,0,0,.06-.09c0-.21.81-.92,2-1.61s2-.94,2-.72c0,0,0,0,.06,0a.11.11,0,0,0,.05-.08c-.1-2.39-2.68-3.32-5.8-1.73h0c0-.17-.21-.18-.46,0a.86.86,0,0,0-.46.57h0c-3.12,2-5.67,6-5.76,8.46C351.33,375.16,351.35,375.17,351.39,375.15Z"/><path class="cls-16" d="M349.42,381.71l0-9.64a7,7,0,0,1,3.34-5.33l9.62-5.6c1.85-1.08,3.37-.44,3.37,1.41l0,9.64a7,7,0,0,1-3.35,5.33l-9.61,5.6C350.94,384.2,349.43,383.57,349.42,381.71Zm3.32-14.29a5.64,5.64,0,0,0-2.68,4.26l0,9.64c0,1.48,1.21,2,2.7,1.12l9.61-5.6a5.61,5.61,0,0,0,2.68-4.26l0-9.63c0-1.49-1.22-2-2.7-1.13Z"/><path class="cls-16" d="M336.1,382.27c0,1.5,1.06,2.15,2.35,1.52v4.75l-1.65,1v.61l3.72-2.16v-.62l-1.66,1,0-4.75a5.72,5.72,0,0,0,2.33-4.24l0-3.51-5.08,3Z"/><path class="cls-16" d="M330.5,392.74l0-9.64a7,7,0,0,1,3.35-5.33l9.61-5.6c1.85-1.08,3.37-.45,3.38,1.41l0,9.64a7,7,0,0,1-3.34,5.33l-9.62,5.6C332,395.23,330.5,394.6,330.5,392.74Zm3.31-14.29a5.61,5.61,0,0,0-2.68,4.26l0,9.63c0,1.49,1.22,2,2.7,1.13l9.61-5.6a5.61,5.61,0,0,0,2.68-4.26l0-9.63c0-1.49-1.22-2-2.7-1.13Z"/><path class="cls-17" d="M331.37,111.6c1.53-.61,7.23.81,9.21,5.36,4.89,11.22,6,15.2,9.81,22.23l25.37,8.63h-2.45l0,7.64-21.48-2.62c0,.5,0,1,0,1.38-5.65.15-11.2-4.14-14.44-8.43a39.19,39.19,0,0,1-4.84-9.3c-2.82-8.65-5.07-17.1-5.47-19.26C326.33,113.28,325.74,113.84,331.37,111.6Z"/><path class="cls-18" d="M340.21,119.8a17.94,17.94,0,0,0-3.33-6.89c-2.2-1.31-4.6-1.67-5.51-1.31-5.63,2.24-5,1.68-4.28,5.64.4,2.16,2.65,10.61,5.47,19.26a39.19,39.19,0,0,0,4.84,9.3,25.65,25.65,0,0,0,3.31,3.59C343.83,139.94,342.41,129.71,340.21,119.8Z"/><path class="cls-18" d="M375.76,147.82l-25.37-8.63c-3.84-7-4.92-11-9.81-22.23-1.87-4.29-7-5.79-8.91-5.44,11,5.8,12.45,20.84,14.6,32.13a5.64,5.64,0,0,1,5.35-.64c6.85,3.39,13.9,7.17,21.7,6.55v-1.73Z"/><path d="M300.19,302a4.12,4.12,0,0,0-.06,2.39c.23,2-.66,3.82-1.06,5.72a21.4,21.4,0,0,0-.75,6,13.7,13.7,0,0,0,3.45,8.16,8.68,8.68,0,0,0,3.71,2.53,5.21,5.21,0,0,0,4.38-.43,5.8,5.8,0,0,0,2.32-3.61,15.84,15.84,0,0,0,.26-3.83c0-.18,0-.37,0-.55-.07-2.65-.44-5.46-.05-8.07.26-1.92,1-3.76,1.14-5.69a4.56,4.56,0,0,0-.31-2.29,3,3,0,0,0-.32-.54,8,8,0,0,0-.85-1,13.71,13.71,0,0,0-2.11-1.92c-.3-.22-3.92-2-3.88-2.12a5.89,5.89,0,0,1-3.25,3.67,12.22,12.22,0,0,0-1.92.83A2,2,0,0,0,300.19,302Z"/><path class="cls-19" d="M300.2,300.44a4.21,4.21,0,0,0-.05,2.39c.23,2-.67,3.82-1.07,5.72a21.34,21.34,0,0,0-.74,6,13.67,13.67,0,0,0,3.45,8.16,8.59,8.59,0,0,0,3.7,2.53,5.23,5.23,0,0,0,4.39-.43,5.84,5.84,0,0,0,2.32-3.61,15.38,15.38,0,0,0,.25-3.83c0-.18,0-.37,0-.55-.06-2.65-.43-5.46-.05-8.07.26-1.92,1-3.76,1.14-5.69a4.56,4.56,0,0,0-.31-2.29,2.9,2.9,0,0,0-.31-.54,8.12,8.12,0,0,0-.86-1,13.64,13.64,0,0,0-2.1-1.92c-.3-.22-3.92-2-3.89-2.12a5.85,5.85,0,0,1-3.24,3.67,12.75,12.75,0,0,0-1.93.83A2,2,0,0,0,300.2,300.44Z"/><path d="M335.24,289.6s-8.51-3.73-9.31,7.48c-.21,2.92,3.45,4.06,5.09,4.22a4.22,4.22,0,0,1,2.79.79,13.16,13.16,0,0,1,2.07,2.51c3.92,4.51,11.66,4.5,14,2.52,3.35-2.84-2-7.09-7.24-11.09A54,54,0,0,1,335.24,289.6Z"/><path class="cls-19" d="M335.26,287.94s-8.51-3.73-9.32,7.49c-.21,2.91,3.45,4.05,5.1,4.21a4.24,4.24,0,0,1,2.79.8,12.89,12.89,0,0,1,2.07,2.5c3.92,4.51,11.65,4.5,14,2.52,3.34-2.84-2-7.08-7.25-11.09A54.14,54.14,0,0,1,335.26,287.94Z"/><path class="cls-20" d="M330.41,194.73c-.55,1.38-1.44,3.6-2.47,6.2-.13.33-.26.67-.4,1-.39,1-.81,2.05-1.23,3.12l-1,2.63c-.45,1.16-.9,2.32-1.32,3.45-2,5.33-3.72,10-3.75,10.93-.18,4.65-.35,14.18-.55,18.56v0c0,.45-.05.84-.07,1.17-.14,2.47-1.26,13.66-1.61,16.5-2.15,17.49-2.45,36.13-3.23,50l-.37.15c-.28.09-.61.18-1,.28l-1.13.24a68.62,68.62,0,0,1-9.47.88c-1.06,0-2.05,0-2.92,0l-.67,0a16.06,16.06,0,0,1-1.74-.16c0-.06.07-1.36.08-3.19a75.81,75.81,0,0,0-.51-11.13,19.4,19.4,0,0,1-.48-2.36h0a70.55,70.55,0,0,1-1-8c-.58-9-.15-23.29,2.42-33.62.1-.4.2-.79.31-1.18-.07-.8-.14-1.66-.21-2.56-.95-11.88-3-47.56-2.19-57l2.27,3.06.26.53h.54l4.78.11v0l4,0,8.3.18,0-.1Z"/><path class="cls-21" d="M302.89,253.62c-1.62-.68-3.25-1.38-4.82-2.19.1-.4.2-.79.31-1.18-.07-.8-.14-1.66-.21-2.56a24.23,24.23,0,0,1,7.8.63c-.85.49-5.18,1.76-6,1A12,12,0,0,1,302.89,253.62Z"/><path class="cls-21" d="M318.89,209.68c-.67,2.25-.63,14.16-.94,16.48-.77,5.63-.75,11.33-1.16,17-.89,12.31-3.82,24.44-4,36.77-.07,5,.3,10.16-1,15s-4.61,9.61-9.51,10.78c-1.57.37-3.21.37-4.76.8,0,1.83-.06,3.13-.08,3.19a16.06,16.06,0,0,0,1.74.16l.67,0c.87,0,1.86,0,2.92,0a68.62,68.62,0,0,0,9.47-.88l1.13-.24,1-.28.37-.15c.78-13.91,1.08-32.55,3.23-50,.35-2.84,1.47-14,1.61-16.5,0-.33,0-.72.07-1.17v0c.2-4.38.37-13.91.55-18.56a10.27,10.27,0,0,1,.5-1.94c-.11-.26-.91-10.15-.94-10.45Z"/><path class="cls-20" d="M342.63,209.85c0-.72-.07-1.43-.11-2.13-.21-3.95-.41-7.48-.6-10.42l-22.18.08c0,1.4.05,3,.08,4.7,0,.31,0,.63,0,1,0,1.6.06,3.32.09,5.14.05,3,.12,6.31.2,9.76s.17,7,.29,10.63c0,.56,0,1.12,0,1.68h0c.15,4.46.34,9,.56,13.43,1,19.14.37,50.29,3.73,52.39,3,1.88,14.11.6,16.76-.91.46-.26.72-2.53.85-6,.38-10.41-.43-31.58-.69-41.67C341.46,239.28,343,216.86,342.63,209.85Z"/><path class="cls-22" d="M338.48,291.11c-1.38.88-2.83,1.84-4.47,1.81a5.82,5.82,0,0,1-4.06-2.2c-2.92-3.29-3.55-8-3.73-12.4a90.93,90.93,0,0,1,.21-10.95c.21-2.64.69-5.56,2.77-7.2a1.89,1.89,0,0,0,.66-.69c.31-.75-.56-1.41-1.2-1.91-1.83-1.4-2.57-3.79-3-6.06-.65-3.43-.83-6.92-1.14-10.4-.11-1.24-.72-7.93-1.74-14.29-.35-.68-2.51-16.09-2.83-16.8-.61-1.34.52,12.06-.12,10.72.28,4.18.62,9.18.63,9.51h0c.15,4.46.34,9,.56,13.43,1,19.14.37,50.29,3.73,52.39,3,1.88,14.11.6,16.76-.91.46-.26.72-2.53.85-6A18.6,18.6,0,0,0,338.48,291.11Z"/><path class="cls-23" d="M317.76,209.79a7.15,7.15,0,0,0-3.55.29,13.73,13.73,0,0,0,4.19.26,5.68,5.68,0,0,0,1.85-.44,12.29,12.29,0,0,0,2.13-1.53,10,10,0,0,1,5.16-2,19.58,19.58,0,0,0-5.18,3.24l6.5.13a2.23,2.23,0,0,1,1.81.62c-2.7,1.2-7.1,1.3-9.66,1.53-1.13.11-1.79-2.81-2.7-3.49a20,20,0,0,0-6.62-2.48C311.57,207,316.12,209,317.76,209.79Z"/><path class="cls-24" d="M342,198.72s-45.74,7.68-46.11,2.47c-.07-1.06-.12-2.08-.16-3.07l0-.82c-.24-7.76.46-13.79,1.06-20.94.18-2.18.35-4.44.49-6.9q.09-1.64.15-3.39a57.32,57.32,0,0,0-1.51-15.81c-.31-1.32-.64-2.58-1-3.82a3.57,3.57,0,0,0-.1-.35c-.32-1.18-.64-2.33-.95-3.48l-.07-.25c-.13-.49-.26-1-.38-1.46-.08-.31-.16-.63-.23-1-.36-1.52-.68-3.07-.91-4.73l-.09-.6a51.13,51.13,0,0,1-.65-7.69,12.26,12.26,0,0,1,1.52-6.13c.38-.65,1.59-1.3,3.2-2,.67-.31,1.58-.73,2.62-1.19,1.7-.77,3.72-1.68,5.51-2.43l.32-.14,1.27-.52c.77-.31,1.45-.56,2-.71l.17-.06c.57-.16,6.33-1.8,7.55-2,.77-.12,1.51-.27,2.25-.42,1.32-.27,2.6-.57,3.88-.74l.64-.07h0l.62,0h.13a11.81,11.81,0,0,1,1.19,0h.13c.22,0,.42,0,.63.06h0c.64,0,1.81.15,3.17.36h0c2.43.4,5.44,1.21,7,2.91,2.17,2.39,3.1,6.77,3.5,11h0c.15,1.53.23,3,.27,4.44.07,2.43,0,4.51.07,5.71a2.62,2.62,0,0,0,0,.29c0,.38,0,.78,0,1.21,0,2-.1,4.65-.24,7.63s-.32,6.64-.37,10.37c-.07,4.64-.54,9.59-.05,14.45l.09.82c.15,1.13.43,3.15.79,5.61C340.67,183.86,342,198,342,198.72Z"/><path class="cls-20" d="M335.64,143.42c-.73,3.24-5.45.37-7.73-.66.61-20.4-3.67-29-6.12-32.17l.64-.07h0l.62,0h.13a11.81,11.81,0,0,1,1.19,0h.13c.22,0,.42,0,.63.06h0c.64,0,1.81.15,3.17.36C333.48,120.38,336.2,141,335.64,143.42Z"/><path class="cls-20" d="M342,198.72s-45.75,7.68-46.11,2.47c-.07-1.06-.12-2.08-.16-3.07l0-.82c-.24-7.76.46-13.79,1.06-20.94.13-1.58.26-3.21.37-4.92l.79-.11a20.24,20.24,0,0,0,3.42-.51c2.67-1,4.51-3.93,5.12-6.41q.36-1.5.6-3c1.42-8.91-.1-17.9,3.19-26.23.61-1.86,2.67-2.69,4.52-3.11,6.17-1.46,14.8-4.38,18.32,1.58,3.73,6.36,1.91,14.19,3.79,21.59a9.25,9.25,0,0,0,1.59,3.15c0,.46,0,.91-.05,1.37a65.48,65.48,0,0,0,.12,9.18l.09.82c0,.25.07.55.12.88.15,1.17.39,2.82.67,4.73C340.67,183.87,342,198,342,198.72Z"/><path class="cls-23" d="M338.76,170.64h0l-20.51,6.08c-5,1.48-10.71,2.9-15.21.25a14.81,14.81,0,0,1-5.07-5.65,20.24,20.24,0,0,0,3.42-.51c2.67-1,4.51-3.93,5.12-6.41q.36-1.5.6-3a23.91,23.91,0,0,0,6.3,2.28c3.59.66,7.28,0,10.84-.79,4.71-1,9.46-2.33,14.22-3.14a65.48,65.48,0,0,0,.12,9.18l.09.82C338.67,170,338.71,170.31,338.76,170.64Z"/><path class="cls-25" d="M313.89,116.9c-2.16-.49-4.53-1.45-4.7-2.8-.24-1.87-.47-6.38-.47-6.38l13.08-.63s-.08,5-.28,6.64C321.29,115.68,317.13,117.64,313.89,116.9Z"/><g class="cls-26"><path class="cls-25" d="M321.59,113c.15-2,.21-5.89.21-5.89l-13.08.63s0,.78.11,1.82C312.45,112.7,317,113.48,321.59,113Z"/></g><path class="cls-27" d="M324,109.64a8.43,8.43,0,0,1-6.13,2,16.43,16.43,0,0,1-8.58-2.8c-2.26-1.56-6.71-8.43-7.68-11.31-.16-.5-.29-1-.4-1.42-1.85-8,5.31-10.65,10.49-15.47,5.49-5.11,13-4.55,14.67,5S328.72,105.09,324,109.64Z"/><path class="cls-28" d="M326.33,85.61c-1.62-9.51-9.18-10.07-14.67-5-5.18,4.82-12.34,7.45-10.49,15.47.11.45.24.92.4,1.42a16.61,16.61,0,0,0,1.06,2.32c2-1.54,3.79-3.64,5.67-5.08.71-.42,3.39.87,3.63-1,.56-2.63.51-1.8,1.57-2.62,3.14-2.81,5.37,1.34,9.73-3.75,4.54,6.73,6.35,20.34-3.85,22.9a16.91,16.91,0,0,1-7.07.17,16.24,16.24,0,0,0,5.52,1.17,8.43,8.43,0,0,0,6.13-2C328.72,105.09,328,95.12,326.33,85.61Z"/><path class="cls-29" d="M326.27,85.3c-.51,0-.56-4-6,1.79-3.22,3.39-8-1.29-9.15.64-1,1.71-.24,2.47.42,5.21.31,1.31-3,4.55-3.69,4.4-1.22-.25,1.07,1.17.62,2.12-1.21,2.5-.27,7.71.27,9a18.25,18.25,0,0,1-5.12-4.37c-.22-.27-.43-.54-.64-.82a14.74,14.74,0,0,1-2.44-2.69,30.14,30.14,0,0,1-3.89-6.93c-4.34-12,5.07-14.56,5.07-14.56s6.23-10.39,16.86-6.06C327.47,76.64,327.17,85.22,326.27,85.3Z"/><path class="cls-27" d="M311.39,101.54c-1.08,1-3.27.42-4.9-1.32s-2.09-4-1-5,3.27-.42,4.9,1.32S312.46,100.54,311.39,101.54Z"/><path class="cls-30" d="M309.33,99.7c-.55.41-1.54,0-2.22-.87s-.76-2-.21-2.37,1.54,0,2.21.87S309.88,99.29,309.33,99.7Z"/><path class="cls-20" d="M313.69,144.91c-.42,3.29-3.49,7.2-5.85,6.39-1.26-19.15-6-29.21-9-33.71,1.7-.77,3.72-1.68,5.51-2.43C310.36,123.4,314,142.35,313.69,144.91Z"/><path class="cls-31" d="M335.81,166.82c-2.24-2.63-1.84-8.06-1.07-9.8a43.25,43.25,0,0,1,6.6-1.69c4-.71,8.69-.93,11.17.82,5.28,3.73,4,6.12,2.05,8.15C351.62,167.35,339.51,163.57,335.81,166.82Z"/><path class="cls-32" d="M341.78,166l-31.43,9.75a7.72,7.72,0,0,1-2.13.16,4.56,4.56,0,0,1-2.83-.69c-3.32-2-6-6.83-7.07-8.93-4.75-8.95-7.79-35.15-8-39.18s-.16-7.14,5.71-8.63a4,4,0,0,1,2.4.34h0a9.73,9.73,0,0,1,4.82,5.14,107.09,107.09,0,0,1,8.65,30.45c.21,1.66.29,4.72,4.18,4.05,9.74-1.68,22.59-4.91,22.59-4.91l.89,3.51Z"/><path class="cls-33" d="M341,158.91l33.48-20a1.18,1.18,0,0,1,1.18-.13l1.68.95a1.13,1.13,0,0,0-1.18.13l-1.74,1a.35.35,0,0,1,.13.05h0l1,.56.68.38a.71.71,0,0,1,.31.64l.36,20.57a2.2,2.2,0,0,1-1,1.74l-.79-.45h0l.79.45L343.78,184a.69.69,0,0,1-.71.07l-1.65-.92,0,2a1.16,1.16,0,0,0,.51,1.06l-.84-.47-.84-.47a1.17,1.17,0,0,1-.51-1.07l-.4-22.46A3.67,3.67,0,0,1,341,158.91Z"/><g class="cls-2"><g class="cls-2"><g class="cls-34"><g class="cls-2"><path class="cls-35" d="M345.58,157.46v.34a.31.31,0,0,0,.19-.26v-.34a.32.32,0,0,1-.19.26Z"/></g></g></g><polygon class="cls-36" points="344.45 158.12 344.45 158.46 345.58 157.8 345.58 157.46 344.45 158.12"/><g class="cls-2"><g class="cls-37"><g class="cls-2"><path class="cls-35" d="M343.38,157.87v.34a.21.21,0,0,0,.07.16V158a.23.23,0,0,1-.07-.17Z"/><path class="cls-38" d="M343.45,158v.33a.31.31,0,0,0,.11.09.81.81,0,0,0,.31.1v-.34a.75.75,0,0,1-.31-.09.53.53,0,0,1-.11-.09Z"/><path class="cls-35" d="M343.87,158.22v.34a1,1,0,0,0,.58-.1v-.34a1,1,0,0,1-.58.1Z"/></g></g></g><path class="cls-39" d="M343.56,157.61a.28.28,0,0,0,0,.52,1,1,0,0,0,.89,0l1.13-.66c.25-.14.25-.37,0-.51a1,1,0,0,0-.88,0Z"/></g><path class="cls-40" d="M342.68,159.85l33.48-20c.91-.55,1.67-.13,1.69.92l.4,22.47a3.69,3.69,0,0,1-1.62,2.9l-33.48,20c-.91.54-1.67.12-1.69-.93l-.4-22.47A3.67,3.67,0,0,1,342.68,159.85Z"/><path class="cls-41" d="M343.73,163.38a3.25,3.25,0,0,1,1.46-2.55c.81-.48,1.47-.1,1.48.84a3.25,3.25,0,0,1-1.46,2.55C344.39,164.7,343.73,164.32,343.73,163.38Z"/><polygon class="cls-41" points="340.79 168.53 339.88 168 339.86 165.08 340.77 165.6 340.79 168.53"/><polygon class="cls-41" points="340.8 172.45 339.89 171.93 339.88 169 340.79 169.52 340.8 172.45"/><path class="cls-41" d="M346.9,155.83a1,1,0,0,1,.92,0c.26.14.26.38,0,.53a1,1,0,0,1-.92,0C346.64,156.22,346.64,156,346.9,155.83Z"/><path class="cls-41" d="M349.05,154.53a1,1,0,0,1,.93,0c.25.14.25.38,0,.53a1,1,0,0,1-.92,0A.28.28,0,0,1,349.05,154.53Z"/><polygon class="cls-41" points="351.15 153.29 351.97 153.76 353.77 152.72 352.94 152.25 351.15 153.29"/><path class="cls-31" d="M373.22,153.2c.36-.31.71-.59.92-.82-.47,0-1-.1-1.21-.54a.85.85,0,0,1,.28-.9,2.33,2.33,0,0,1,.88-.43c1.38-.46,3-1.3,4.36-1.75,1.48.35,2.47,4.07,2.61,4.94.2,1.21.24,3.13-.73,4.06-.5.11-1,.19-1.61.31-.43.07-.83.13-1.21.16-.22-.1-.41-.44-.44-.46a1.3,1.3,0,0,1,0-.55.41.41,0,0,0-.37-.52c-.65-.11-2,0-1.89-1.2,0-.16-.14-.29-.29-.31C373.28,155.1,373.18,154.13,373.22,153.2Z"/></g></g></svg>