<svg xmlns="http://www.w3.org/2000/svg" viewBox="0 0 638.72 419"><defs><style>.cls-1{isolation:isolate;}.cls-2{fill:#f3baa0;}.cls-3{fill:#eff3fc;}.cls-4{fill:#171716;}.cls-5{fill:#114b98;}.cls-6{fill:#2b394b;}.cls-22,.cls-6{opacity:0.3;}.cls-10,.cls-12,.cls-19,.cls-21,.cls-22,.cls-6{mix-blend-mode:multiply;}.cls-7{fill:#1d68ca;}.cls-8{fill:#ccd8f5;}.cls-9{fill:#e0b29d;}.cls-10,.cls-19{opacity:0.4;}.cls-11,.cls-12{fill:#e9c2b0;}.cls-12,.cls-21{opacity:0.2;}.cls-13{fill:#664133;}.cls-14{fill:#f4aa35;}.cls-15{fill:#c5975b;}.cls-16,.cls-21{fill:#ab7d4b;}.cls-17{fill:#e3c282;}.cls-18{fill:#e4cdbf;}.cls-19,.cls-20{fill:#c2ab9d;}.cls-23{fill:#daaf6a;}.cls-24{fill:#efd996;}.cls-25{fill:#f7ecea;}.cls-26{fill:#5c4123;}.cls-27{fill:#1955a5;}</style></defs><title>Inventory</title><g class="cls-1"><g id="Layer_1" data-name="Layer 1"><path class="cls-2" d="M301.38,101.18a5.87,5.87,0,0,0-6.68,5l-2.86,52.27c-.35,3.09-.29,6.54,1.12,8.36,3.12,4,5,3,6.46,1.38,2.08-2.18.53-10.06,1-14.25l6-46A5.93,5.93,0,0,0,301.38,101.18Z"/><path class="cls-3" d="M302.09,84c.29-.61.6-1.24.9-1.86,2.12-4.18,17.88-5.38,19.9-9.59.88-1.84-2.15-8.24-15.85-8.13a7.09,7.09,0,0,0-.91.12,12.42,12.42,0,0,0-6.19,3.36c-1.72,1.65-20,27.38-22,30.21,2.54,3.37,9.44,5.29,13.56,7.69,1.25-2.26,2.48-4.54,3.65-6.84C297.66,94.06,299.72,89,302.09,84Z"/><path d="M342.52,253.84a4.59,4.59,0,0,1-.5,2.56c-.71,2.05-.19,4.22-.2,6.34a23.28,23.28,0,0,1-.61,6.56,14.93,14.93,0,0,1-5.57,7.88A9.53,9.53,0,0,1,331.1,279a5.74,5.74,0,0,1-4.57-1.48,6.43,6.43,0,0,1-1.63-4.4,17.64,17.64,0,0,1,.62-4.14c.05-.19.09-.39.14-.58.69-2.8,1.74-5.71,1.94-8.58.17-2.11-.16-4.24.11-6.33a5.11,5.11,0,0,1,.86-2.37,3.63,3.63,0,0,1,.47-.49,7.46,7.46,0,0,1,1.14-.87,14.12,14.12,0,0,1,2.69-1.55c.37-.16,4.64-1.22,4.63-1.35a6.38,6.38,0,0,0,2.61,4.65,14.81,14.81,0,0,1,1.85,1.34A2.25,2.25,0,0,1,342.52,253.84Z"/><path class="cls-4" d="M326.92,258.2a18.74,18.74,0,0,1-.37,2.54c-.42,2-1.08,4.07-1.57,6.05-.05.19-.09.39-.14.58a17.14,17.14,0,0,0-.62,4.14,6.31,6.31,0,0,0,1.63,4.39,5.71,5.71,0,0,0,4.57,1.48,9.53,9.53,0,0,0,4.54-1.84A14.45,14.45,0,0,0,341,264.71c.1-1.2.09-2.4.1-3.6,0-1.63-.29-3.29-.12-4.9a6.7,6.7,0,0,1,.31-1.45,4.49,4.49,0,0,0,.5-2.55,2,2,0,0,0-.56-1,13.25,13.25,0,0,0-1.85-1.34,6.42,6.42,0,0,1-2.6-4.66c0,.15-4.26,1.19-4.63,1.35a14.68,14.68,0,0,0-2.69,1.55,8.9,8.9,0,0,0-1.15.87l-.12.12a3.07,3.07,0,0,0-.34.38,5.07,5.07,0,0,0-.86,2.37C326.75,254,327.09,256.1,326.92,258.2Z"/><path d="M309.39,239.59s9.83-4.19,10.63,8.72c.2,3.36-4,4.62-5.91,4.8a4.78,4.78,0,0,0-3.22.88,15.18,15.18,0,0,0-2.41,2.85c-4.56,5.15-13.46,5.05-16.12,2.74-3.82-3.3,2.39-8.12,8.46-12.68A62.1,62.1,0,0,0,309.39,239.59Z"/><path class="cls-4" d="M309.39,237.69s9.83-4.2,10.63,8.71c.2,3.36-4,4.62-5.91,4.8a4.78,4.78,0,0,0-3.22.88,15.18,15.18,0,0,0-2.41,2.85c-4.56,5.15-13.46,5.05-16.12,2.74-3.82-3.3,2.39-8.12,8.46-12.67A63,63,0,0,0,309.39,237.69Z"/><path class="cls-5" d="M301,169.31c.07,3.13.15,6.23.26,9.17.22,6.59.51,12.41.61,16.25,0,.86,0,1.61,0,2.26,0,4-.68,33.14-.46,46.7.22,1.73,12.67,5.1,21.15.09,0-1.25-.11-8.87-.17-18.25-.08-14.22,0-32.48.71-38.74.13-1.12.26-2.27.36-3.4,0-.2,0-.4.05-.6.76-9.18.38-18.43-2.68-27l-19.19-16.52C301.07,145.91,300.88,161.53,301,169.31Z"/><path class="cls-6" d="M301.67,139.23l19.19,16.52c3.06,8.61,3.44,17.86,2.68,27,0,.2,0,.4-.05.6-1.26.81-2.52,1.63-3.79,2.42a71.07,71.07,0,0,1-6.75,3.8c-2,1-4.13,1.83-6.2,2.74-.95,12.6-.92,25.09-.74,37.73,0,3.71.44,7.85,3.05,10.46,3.44,3.22,8.78,3.48,13.52,2.65,0,.26,0,.46,0,.59-8.48,5-20.93,1.64-21.15-.09-.22-13.56.46-42.74.46-46.7,0-.65,0-1.4,0-2.26-.1-3.84-.39-9.66-.61-16.25-.11-2.94-.19-6-.26-9.17C300.88,161.53,301.07,145.91,301.67,139.23Z"/><path class="cls-7" d="M301.66,139.2v0a66.42,66.42,0,0,0,5.7,14.41c5.92,11.19,11.15,12.77,11.17,14.09s.51,8.5,1.16,18.08c.78,11.36,1.81,26.29,2.72,39.72.95,14.1,1.77,26.54,2,31.48,1.66,3.42,16.16,2.53,20.27.1-.05-.17,1.44-44.17-1.24-54.37,1.24-12.61,2.6-33,3.55-45.62V157c0-.26,0-.7,0-1.27a54.58,54.58,0,0,0-.11-8.94l-18.51,1Z"/><path class="cls-6" d="M322.67,146l5.75,1.85,18.51-1a54.58,54.58,0,0,1,.11,8.94l-1.61,2.07a16.28,16.28,0,0,0-3,5.08c-.46,1.51-.47,3.13-.87,4.67-1.19,4.69-5.57,7.74-9.63,10.37q-3.76,2.46-7.55,4.9c-.08,9.86-.26,19.71.4,29.61.66,10.89.88,21.78,2.62,32.89.65,3.7,2.83,7.62,6.31,9.37,1.75,1.08,4.14.87,6.32.65a44.33,44.33,0,0,0,4.76-1c0,1.73-.07,2.74-.06,2.77-4.11,2.43-18.61,3.32-20.27-.1-.23-4.94-1.05-17.38-2-31.48-.91-13.43-1.94-28.36-2.72-39.72-.65-9.58-1.11-16.62-1.16-18.08s-5.25-2.9-11.17-14.09a66.42,66.42,0,0,1-5.7-14.41v0Z"/><path class="cls-8" d="M299.9,88.12c.06,2.15.41,5.14.83,8.67.36,3,.76,6.5,1.07,10.16a111.83,111.83,0,0,1,.37,15c-.11,2.23-.41,16-.5,17.23-.24,3.29,42.26,14.9,45.39,10.82.65-.84-2.57-20.92-4-34.54-1.48-14.05,2.11-20.63,2.91-30.17,0-.16,0-.32,0-.48.39-5.47.45-9.26-.75-12.22-.27-.68.34-.94-.07-1.53S343,69.83,341,69h0a45.77,45.77,0,0,0-6.45-2.71,80,80,0,0,0-20.2-3.62h-.19a10.9,10.9,0,0,0-1.14.07l-.55.07a18.56,18.56,0,0,0-2.73.47,32.59,32.59,0,0,0-3.28,1l-.09,0a9.6,9.6,0,0,0-4.11,2.48C298.22,71.86,299.82,84.73,299.9,88.12Z"/><path class="cls-7" d="M334.42,126.78c-1-10,4.3-25.81-5.73-30-6.88-2.87-29.63-5.73-29.63.13,0,3.08,2.7,41.06,2.61,42.32-.24,3.29,42.26,14.9,45.39,10.82.35-.44,1.08-6.28.09-13.71C341.5,135.88,335,134.15,334.42,126.78Z"/><path class="cls-7" d="M303.5,98.87c1.43,3.44,3-1.08,5.29-2.65-1-3.65-2.86-25.22,4.19-33.51l-.55.07a18.56,18.56,0,0,0-2.73.47,32.59,32.59,0,0,0-3.28,1C301.67,74.37,302.35,96.13,303.5,98.87Z"/><path class="cls-9" d="M325.16,70.38c2.53-.59,5.24-2.15,5.66-3.69.55-2,.52-7.57.52-7.57H316.17s-.2,5.7,0,7.58C316.49,69,321.36,71.27,325.16,70.38Z"/><g class="cls-10"><path class="cls-9" d="M316.2,66.7c-.23-1.88,0-7.58,0-7.58h15.17s0,3.36-.23,5.8a20.72,20.72,0,0,1-11.9,4.74C317.56,68.91,316.34,67.81,316.2,66.7Z"/></g><path class="cls-11" d="M314.84,66.53a9.38,9.38,0,0,0,7.09,1,18.3,18.3,0,0,0,8.85-4.72c2.15-2.14,5.7-10.5,6.2-13.84.08-.58.14-1.12.17-1.64.48-9.12-7.86-10.61-14.45-14.88-7-4.53-15.14-2.47-15.08,8.24S308.76,62.48,314.84,66.53Z"/><path class="cls-12" d="M322.7,32.47c1.71,1.11,3.53,2,5.29,2.94.64,5.87,2.25,12.2-1.72,16.74-3.27,3.92-10,.22-14.16,1.74-2.83,1.09.22,6.75,2.4,9.58,1.74,2.4,5.22,3.71,7.84,2.62a87.25,87.25,0,0,1,9.35-4.42,8.52,8.52,0,0,1-.92,1.16,18.3,18.3,0,0,1-8.85,4.72,9.38,9.38,0,0,1-7.09-1c-6.08-4.05-7.16-15.1-7.22-25.82S315.72,27.94,322.7,32.47Z"/><path class="cls-13" d="M307.62,40.37c.57,0-.15-4.47,6.94.79,4.16,3.09,8.48-2.95,10.12-1.06,1.44,1.68.73,2.65.54,5.77-.09,1.5,4.16,4.4,4.89,4.11,1.28-.51-.95,1.48-.28,2.43,1.81,2.5,1.78,8.37,1.43,9.87A20.64,20.64,0,0,0,336,56.51c.18-.34.36-.68.53-1a15.5,15.5,0,0,0,2.15-3.4,32.83,32.83,0,0,0,2.92-8.33c2.43-14-8.35-14.94-8.35-14.94s-8.82-10.17-19.59-3.37C307.92,29.07,306.63,40.45,307.62,40.37Z"/><path class="cls-11" d="M328.63,54.39c1.19,1.11,3.62.45,5.43-1.49s2.3-4.41,1.11-5.53-3.63-.44-5.43,1.5S327.44,53.28,328.63,54.39Z"/><path class="cls-12" d="M330.91,52.34c.61.45,1.71,0,2.45-1s.85-2.17.23-2.63-1.71,0-2.45,1S330.29,51.88,330.91,52.34Z"/><path class="cls-7" d="M319.58,97.39c.06,3.37,3.56,3.85,6,3.29,4.95-28.37,14.63-32.08,14.63-32.08a35.86,35.86,0,0,0-5.73-2.34C326.59,71.73,319.52,94.48,319.58,97.39Z"/><path class="cls-14" d="M320.28,97.27a2.32,2.32,0,1,0,2.32-2.22A2.28,2.28,0,0,0,320.28,97.27Z"/><g class="cls-1"><polygon class="cls-15" points="233.03 133.87 233.15 175.81 251.7 186.59 261.6 192.35 281.12 203.69 281 161.75 251.82 144.78 251.7 144.71 233.03 133.87"/><polygon class="cls-16" points="281 161.75 281.12 203.69 308.07 188.01 317.97 182.24 337.8 170.71 337.68 128.76 281 161.75"/><polygon class="cls-17" points="233.03 133.87 281 161.74 337.68 128.76 289.71 100.88 233.03 133.87"/></g><g class="cls-10"><polygon class="cls-18" points="309.36 112.34 319.29 118.11 262.62 151.1 252.69 145.33 309.36 112.34"/></g><polygon class="cls-19" points="252.69 145.33 252.69 187.2 262.6 192.96 262.6 151.09 252.81 145.4 252.69 145.33"/><polygon class="cls-18" points="308.37 111.73 318.3 117.5 261.62 150.48 251.7 144.71 308.37 111.73"/><polygon class="cls-20" points="251.7 144.71 251.7 186.59 261.6 192.35 261.6 150.48 251.82 144.78 251.7 144.71"/><polygon class="cls-19" points="306.46 148.52 306.46 189 316.37 183.23 316.37 142.75 316.25 142.82 306.46 148.52"/><polygon class="cls-20" points="308.07 147.53 308.07 188.01 317.97 182.24 317.97 141.76 317.86 141.84 308.07 147.53"/><path class="cls-21" d="M339.32,157.29a56.5,56.5,0,0,1-7.54,8.66c-3.94,3.7-8.67,6.93-14,7.53a.67.67,0,0,1-.52-.09.6.6,0,0,1-.15-.42,6.55,6.55,0,0,1,1.29-3.85,44.85,44.85,0,0,1,8.39-10c4.52-4,9.83-7.09,14.09-11.38Z"/><g class="cls-22"><polygon class="cls-18" points="323.28 137.32 286.25 158.83 242.51 133.38 279.54 111.86 323.28 137.32"/></g><g class="cls-1"><polygon class="cls-15" points="328.3 105.54 328.2 137.91 291.18 159.43 291.27 127.06 328.3 105.54"/><polygon class="cls-23" points="291.27 127.06 291.18 159.43 247.43 133.97 247.52 101.6 291.27 127.06"/><polygon class="cls-24" points="328.3 105.54 291.27 127.06 247.52 101.6 284.55 80.08 328.3 105.54"/></g><polygon class="cls-25" points="270.14 88.45 262.48 92.91 306.23 118.36 313.89 113.91 270.14 88.45"/><polygon class="cls-20" points="306.24 118.36 313.89 113.91 313.89 121.64 306.24 126.06 306.24 118.36"/><polygon class="cls-26" points="324.36 136.04 324.36 136.8 318.57 140.14 318.57 139.38 324.36 136.04"/><polygon class="cls-26" points="323.24 136.25 322.59 136.63 322.59 132.55 321.94 132.93 322.91 130.68 323.89 131.8 323.24 132.18 323.24 136.25"/><polygon class="cls-26" points="320.34 137.93 319.69 138.3 319.69 134.23 319.04 134.6 320.01 132.35 320.99 133.48 320.34 133.85 320.34 137.93"/><path class="cls-26" d="M316.64,140.62v-5.68a4.11,4.11,0,0,1,2-3.13l5.68-3.28c1.1-.63,2-.26,2,.84v5.68a4.12,4.12,0,0,1-2,3.13l-5.68,3.28C317.53,142.09,316.64,141.71,316.64,140.62Zm2-8.41a3.28,3.28,0,0,0-1.58,2.5v5.68c0,.87.71,1.17,1.58.67l5.68-3.28a3.3,3.3,0,0,0,1.59-2.5V129.6c0-.88-.71-1.18-1.59-.67Z"/><path class="cls-26" d="M306.63,143.21a.05.05,0,0,0,0-.05,3.17,3.17,0,0,1,1.19-.94c.7-.41,1.18-.55,1.18-.43s0,0,0,0a.13.13,0,0,0,0-.05c0-.12.4-.47,1-.83v3.5c.07.39.41.44.83.2a1.74,1.74,0,0,0,.84-1.29c0-.12-.09-.16-.19-.1a.42.42,0,0,0-.19.31.94.94,0,0,1-.46.68c-.5.29-.45-.33-.45-.33v-3.2c.59-.32,1-.42,1-.31s0,0,0,0a.05.05,0,0,0,0-.05,3.17,3.17,0,0,1,1.19-.94c.7-.41,1.18-.55,1.18-.43s0,0,0,0,0,0,0,0c-.06-1.41-1.57-2-3.42-1h0c0-.1-.12-.1-.27,0a.52.52,0,0,0-.27.34h0c-1.84,1.19-3.36,3.5-3.41,5C306.6,143.22,306.61,143.22,306.63,143.21Z"/><path class="cls-26" d="M305.46,147.07v-5.68a4.13,4.13,0,0,1,2-3.13l5.68-3.28c1.1-.63,2-.25,2,.84v5.68a4.1,4.1,0,0,1-2,3.13l-5.68,3.28C306.35,148.55,305.46,148.17,305.46,147.07Zm2-8.41a3.31,3.31,0,0,0-1.58,2.5v5.68c0,.88.71,1.18,1.58.67l5.68-3.27a3.3,3.3,0,0,0,1.59-2.51v-5.68c0-.87-.71-1.17-1.59-.67Z"/><path class="cls-26" d="M297.6,147.37c0,.89.62,1.27,1.38.9v2.81l-1,.56V152l2.19-1.26v-.37l-1,.57v-2.81a3.35,3.35,0,0,0,1.38-2.49v-2.07l-3,1.73Z"/><path class="cls-26" d="M294.28,153.53v-5.68a4.11,4.11,0,0,1,2-3.13l5.68-3.28c1.1-.63,2-.26,2,.84V148a4.12,4.12,0,0,1-2,3.13l-5.68,3.28C295.17,155,294.28,154.62,294.28,153.53Zm2-8.41a3.28,3.28,0,0,0-1.58,2.5v5.68c0,.87.71,1.17,1.58.67l5.68-3.28a3.3,3.3,0,0,0,1.59-2.5v-5.68c0-.88-.71-1.18-1.59-.67Z"/><path class="cls-2" d="M309.93,164.37c-.89-1.34,5-4.65,6.11-5.32s1.95-1.14,2.89-1.74c-2.2.78-5,1.67-6.17-.91a.74.74,0,0,1-.09-.64c.51-.78,3.22-1,4-1.17,2.74-.64,5.23-2.14,7.95-2.73.43-.08,2.93-.24,3.54-.23a8.53,8.53,0,0,0,2.75-1.25,26,26,0,0,0,5.06-5.84c2.82,1.92,5.58,3.91,8.2,6.07l-5,6.15-2.13,2.65c-1.17,1.07-2.37,2-3.26,2.7-1.36.94-2.42,1.72-3.74,2.77a28.35,28.35,0,0,1-4.09,2.7c-3,1.48-4.7,2.34-7.65,3.87a2.33,2.33,0,0,1-1.56.38c-.45-.08-.51-.3-.29-.67a0,0,0,0,1,.06,0c.65-1.32,4.1-3.89,5.11-5.24a49.8,49.8,0,0,1-6.93,4.5c-.62.3-1.89.79-2.22-.25-.31-.82.61-1.64,1.14-2,1.08-.89,2.16-1.72,3.23-2.55a29.54,29.54,0,0,1-5.52,3.22,1,1,0,0,1-1.18-.27c-.9-1.3,2.4-3.63,3.28-4.19,1.86-1.21,3.77-2.35,5.69-3.6a58,58,0,0,1-7.13,3.59C311.45,164.54,310.38,165,309.93,164.37Z"/><path class="cls-3" d="M329.72,149.46c2.35,2.52,7.91,7.34,9.92,10.12L360,131.16a35.18,35.18,0,0,0,3.83-7l0-.05s0,0,0,0,0,0,0-.06a10.67,10.67,0,0,0,.48-2.09,6.07,6.07,0,0,0-.91-4.16s0-.06,0-.11A8.91,8.91,0,0,0,361.9,116a5.32,5.32,0,0,0-3.74-1.19c-3.69.21-7.82-6.33-7.82-5.5a19.89,19.89,0,0,1-1.41,4.3l-.05.11c-.2.51-.42,1.06-.66,1.63-.14.32-.27.65-.42,1l-.34.79C343,127.54,334.3,145,329.72,149.46Z"/><path class="cls-3" d="M334.94,80.19a39.23,39.23,0,0,0,1.21,7.8,110.63,110.63,0,0,0,10.45,24.65l.71,1.21c.48.8.8,1.3.91,1.46l0,0a5.41,5.41,0,0,0,.68.81,12.31,12.31,0,0,0,1.39,1.21c4.52,3.46,13.39,6.91,13.54,6.79h0a.28.28,0,0,1,0-.05s0,0,0,0,0,0,0-.06a17.78,17.78,0,0,0,.48-2.09,16.8,16.8,0,0,0,.22-2.3,14.77,14.77,0,0,0-.11-2.3c-.06-.45-.14-.94-.23-1.45h0C362,103.59,349.67,78,347.56,74.09c-1.52-2.82-3-4-5.56-4.3a5.35,5.35,0,0,0-3.89,1C335.29,73,334.79,76.89,334.94,80.19Z"/><path class="cls-8" d="M347.8,116.3l-.34.79a2.44,2.44,0,0,0,.67.17,20,20,0,0,0,2.18.1,22.19,22.19,0,0,0,5-.57,8.41,8.41,0,0,0,3.36-1.44,9.4,9.4,0,0,0-3-.72,60.81,60.81,0,0,0-6.78-.95,8.32,8.32,0,0,0-1.12.07,2.11,2.11,0,0,0-.45.1c.48.8.8,1.3.91,1.46C348.08,115.63,348,116,347.8,116.3Z"/><path class="cls-27" d="M317.68,47.58A24.9,24.9,0,0,1,307.1,44.2c-.39-1.47-1.53-2.25-1.53-3.84,0-9.81,8.86-18.51,18.67-18.51A17.76,17.76,0,0,1,342,39.61a18.49,18.49,0,0,1-.13,2.59c-7-.43-9.39,4.27-13.6,5.41C324.53,48.63,321.78,47.89,317.68,47.58Z"/><path class="cls-7" d="M321.91,52.38a17.65,17.65,0,0,1-4.92-.19,34.88,34.88,0,0,1-9.21-3.06c-2.13-1-4.39-1.91-6.43-3.08a2,2,0,0,1-.49-3.1,19.37,19.37,0,0,1,4.81-3.83c1.62-.79,19.24,3.37,22.59,8.49.15.24-2,2.48-4.61,4.36A9.37,9.37,0,0,1,321.91,52.38Z"/></g></g></svg>