<svg id="Layer_1" data-name="Layer 1" xmlns="http://www.w3.org/2000/svg" viewBox="0 0 638.72 419"><defs><style>.cls-1{isolation:isolate;}.cls-2{fill:#d62822;}.cls-3{fill:#ff6363;}.cls-4{fill:#919191;}.cls-5{fill:#bfbfbf;}.cls-6{fill:#bc8430;}.cls-7{fill:#8e6424;}.cls-8{fill:#8f6424;}.cls-9{fill:#ffbf00;}.cls-10{fill:#727273;}.cls-11{fill:#717173;}.cls-12{fill:#c7c7c9;}.cls-13{fill:#fdfdfd;}.cls-14{fill:#e3e3e3;}.cls-15{fill:#124a5e;}.cls-16{fill:#18617c;}.cls-17{fill:#8d5700;}.cls-18{fill:#d62222;}.cls-19{fill:#ff5542;}.cls-20{fill:#731f00;}.cls-21{fill:#bb884f;}.cls-22{fill:#e0b477;}.cls-23{fill:#5c4123;}.cls-24{fill:#efcd90;}.cls-25{fill:#f7ecea;}.cls-26{fill:#c2ab9d;}</style></defs><title>Inventory</title><g class="cls-1"><path class="cls-2" d="M530.05,205.34,309.39,333.57c-10.1,5.87-26.69,5.87-36.84,0L106.47,237.69c-5.12-2.95-7.67-6.85-7.66-10.75l0,15c0,3.89,2.54,7.79,7.65,10.74l166.09,95.89c10.15,5.86,26.74,5.86,36.83,0L530,220.3c5-2.91,7.52-6.75,7.53-10.59l0-15C537.57,198.59,535.06,202.42,530.05,205.34Z"/><path class="cls-3" d="M529.93,184c10.16,5.86,10.21,15.47.12,21.34L309.39,333.57c-10.1,5.87-26.69,5.87-36.84,0L106.47,237.69c-10.16-5.87-10.22-15.48-.12-21.34L327,88.11c10.09-5.86,26.68-5.86,36.84,0Z"/></g><g class="cls-1"><polygon class="cls-4" points="404.94 121.31 404.9 135.83 399.07 139.22 399.11 124.7 404.94 121.31"/><g class="cls-1"><g class="cls-1"><path class="cls-5" d="M399.11,124.7l0,14.52a2.7,2.7,0,0,0-1.58,2.22l0-14.52a2.72,2.72,0,0,1,1.58-2.22Z"/></g></g><polygon class="cls-4" points="314.86 119.08 314.82 133.6 301.18 141.52 301.22 127 314.86 119.08"/><g class="cls-1"><g class="cls-1"><path class="cls-6" d="M455,128.35l0,14.52a3.36,3.36,0,0,0-2-2.75,10.4,10.4,0,0,0-9.41,0,3.3,3.3,0,0,0-1.94,2.72l0-14.51a3.32,3.32,0,0,1,1.94-2.73,10.4,10.4,0,0,1,9.41,0,3.34,3.34,0,0,1,2,2.75Z"/></g></g><g class="cls-1"><g class="cls-1"><path class="cls-6" d="M399.13,129.17l0,14.52a2.74,2.74,0,0,1-1.6-2.25l0-14.52a2.74,2.74,0,0,0,1.6,2.25Z"/></g></g><polygon class="cls-4" points="287.78 134.81 287.74 149.33 274.14 157.23 274.18 142.71 287.78 134.81"/><path class="cls-7" d="M466.94,149.61a4.06,4.06,0,0,0,.51-1.86l0-14.51c0,1.63-1,3.21-3.06,4.4l-6,3.48,0,14.51,2.23-1.29,0,13.64,5.68-3.31a2.72,2.72,0,0,0,1.61-2.24l0-14.52A2.42,2.42,0,0,1,466.94,149.61Z"/><polygon class="cls-7" points="460.63 153.46 460.59 167.98 454.75 171.37 454.79 156.85 460.63 153.46"/><polygon class="cls-8" points="447.08 156.85 447.04 171.37 399.09 143.69 399.13 129.17 447.08 156.85"/><g class="cls-1"><g class="cls-1"><path class="cls-6" d="M454.79,156.85l0,14.52a8.52,8.52,0,0,1-7.71,0l0-14.52a8.52,8.52,0,0,0,7.71,0Z"/></g></g><path class="cls-9" d="M466.33,145.67c2.12,1.22,2.13,3.24,0,4.48l-5.69,3.31-5.84,3.39a8.52,8.52,0,0,1-7.71,0l-47.95-27.68c-2.12-1.23-2.13-3.24,0-4.47l5.83-3.39,5.69-3.31a8.6,8.6,0,0,1,7.75,0l7.88,4.55,6-3.48c4.33-2.51,11.77-2.36,16.51.38l14.94,8.62c4.77,2.76,5.06,7.07.73,9.59l-6,3.47Zm-22.72-14.6a10.42,10.42,0,0,0,9.45,0c2.6-1.51,2.59-4,0-5.47a10.4,10.4,0,0,0-9.41,0c-2.6,1.51-2.58,4,0,5.45Z"/><polygon class="cls-4" points="260.7 150.55 260.66 165.07 247.07 172.97 247.11 158.45 260.7 150.55"/><polygon class="cls-4" points="232.23 167.09 232.19 181.61 218.59 189.51 218.63 175 232.23 167.09"/><polygon class="cls-4" points="205.19 182.81 205.15 197.33 191.52 205.25 191.56 190.73 205.19 182.81"/><polygon class="cls-4" points="464.78 205.63 464.74 220.15 314.82 133.6 314.86 119.08 464.78 205.63"/><polygon class="cls-10" points="451.14 213.56 451.1 228.07 301.18 141.52 301.22 127 451.14 213.56"/><polygon class="cls-11" points="464.78 205.63 464.74 220.15 451.1 228.07 451.14 213.56 464.78 205.63"/><polygon class="cls-4" points="437.7 221.37 437.66 235.89 287.74 149.33 287.78 134.81 437.7 221.37"/><polygon class="cls-12" points="437.7 221.37 424.1 229.27 274.18 142.71 287.78 134.81 437.7 221.37"/><polygon class="cls-11" points="437.7 221.37 437.66 235.89 424.06 243.79 424.1 229.27 437.7 221.37"/><polygon class="cls-10" points="424.1 229.27 424.06 243.79 274.14 157.23 274.18 142.71 424.1 229.27"/><polygon class="cls-4" points="410.62 237.1 410.58 251.62 260.66 165.07 260.7 150.55 410.62 237.1"/><polygon class="cls-11" points="410.62 237.1 410.58 251.62 396.99 259.52 397.03 245.01 410.62 237.1"/><polygon class="cls-10" points="397.03 245.01 396.99 259.52 247.07 172.97 247.11 158.45 397.03 245.01"/><polygon class="cls-4" points="382.15 253.65 382.11 268.17 232.19 181.61 232.23 167.09 382.15 253.65"/><polygon class="cls-11" points="382.15 253.65 382.11 268.17 368.51 276.07 368.56 261.55 382.15 253.65"/><polygon class="cls-10" points="368.56 261.55 368.51 276.07 218.59 189.51 218.64 175 368.56 261.55"/><polygon class="cls-4" points="355.11 269.36 355.07 283.88 205.15 197.33 205.19 182.81 355.11 269.36"/><polygon class="cls-10" points="341.48 277.29 341.44 291.81 191.52 205.25 191.56 190.73 341.48 277.29"/><polygon class="cls-11" points="355.11 269.36 355.07 283.88 341.44 291.81 341.48 277.29 355.11 269.36"/><path class="cls-13" d="M460.63,153.46l58,33.51L338.31,291.77l-47.53-27.44-47.23,27.45L119.33,220.06,346.91,87.8l58,33.51-5.83,3.39c-2.11,1.23-2.1,3.24,0,4.47l47.95,27.68a8.52,8.52,0,0,0,7.71,0ZM341.48,277.29l13.63-7.93L205.19,182.81l-13.63,7.92,149.92,86.56Zm109.66-63.73,13.64-7.93L314.86,119.08,301.22,127l149.92,86.56Zm-27,15.71,13.6-7.9L287.78,134.81l-13.6,7.9L424.1,229.27ZM397,245l13.59-7.9L260.7,150.55l-13.59,7.9L397,245Zm-28.47,16.54,13.59-7.9L232.23,167.09,218.64,175l149.92,86.55Z"/><polygon class="cls-12" points="464.78 205.63 451.14 213.56 301.22 127 314.86 119.08 464.78 205.63"/><polygon class="cls-12" points="410.62 237.1 397.03 245.01 247.11 158.45 260.7 150.55 410.62 237.1"/><polygon class="cls-12" points="382.15 253.65 368.56 261.55 218.64 175 232.23 167.09 382.15 253.65"/><polygon class="cls-12" points="355.11 269.36 341.48 277.29 191.56 190.73 205.19 182.81 355.11 269.36"/><polygon class="cls-4" points="338.31 291.77 338.27 306.3 290.73 278.85 290.78 264.33 338.31 291.77"/><polygon class="cls-4" points="290.78 264.33 290.73 278.85 243.51 306.3 243.55 291.78 290.78 264.33"/><polygon class="cls-14" points="338.31 291.77 243.55 291.78 290.78 264.33 338.31 291.77"/><polygon class="cls-4" points="518.66 186.97 338.31 291.77 243.55 291.78 243.51 306.25 243.55 291.78 119.33 220.06 119.29 234.58 243.51 306.3 243.51 306.3 338.27 306.29 338.27 306.29 518.62 201.48 518.66 186.97"/></g><polygon class="cls-15" points="469.13 288.27 469.16 299.6 475.38 288.62 475.35 277.29 469.13 288.27"/><polygon class="cls-16" points="456.4 280.84 469.13 288.27 475.35 277.29 456.4 280.84"/><polygon class="cls-9" points="456.36 280.85 424.13 299.45 436.9 306.87 469.13 288.27 456.36 280.85"/><polygon class="cls-17" points="436.9 306.87 436.94 318.2 469.16 299.6 469.13 288.27 436.9 306.87"/><polygon class="cls-16" points="421.15 299.15 437.41 308.61 436.9 306.87 424.13 299.45 421.15 299.15"/><polygon class="cls-18" points="378.46 342.64 378.5 353.97 437.44 319.93 437.41 308.61 378.46 342.64"/><polygon class="cls-19" points="437.41 308.61 421.15 299.15 362.2 333.19 378.46 342.64 437.41 308.61"/><path class="cls-16" d="M358,335.61l16.26,9.45,3.38,2,.34.19a4.22,4.22,0,0,0,3.85,0l3.59-2.07,17.41-10.05,1.92-1.11.24-.15a9.43,9.43,0,0,1,3.73-.86,9.52,9.52,0,0,0,3.33-.65,1.29,1.29,0,0,0,.69-.94c.37-2.06-5.2-2.34-8.87-1.16a24.8,24.8,0,0,0-4.31,1.94l-.89.52-17.4,10-1.34.77-1.47-.85-16.26-9.45Z"/><path class="cls-15" d="M377.64,347l.34.19a3,3,0,0,0,.85.33c.11,0,.21,0,.32.05a4.64,4.64,0,0,0,.64.07l.38,0a3.81,3.81,0,0,0,.59-.07,2.24,2.24,0,0,0,.37-.1,3.08,3.08,0,0,0,.7-.27l3.59-2.07,17.41-10.05,1.92-1.11.24-.15a4.68,4.68,0,0,1,.55-.27.53.53,0,0,0,.12,0,7.5,7.5,0,0,1,1.32-.34l.34-.06c.46-.07.94-.12,1.4-.16l1.4-.15.29,0a6.61,6.61,0,0,0,1.18-.28,2.76,2.76,0,0,0,.46-.19,1.29,1.29,0,0,0,.69-.94,1.36,1.36,0,0,0,0-.2l0,11.34a1.54,1.54,0,0,1,0,.19,1.31,1.31,0,0,1-.69.94,2.53,2.53,0,0,1-.33.16l-.13,0a6.11,6.11,0,0,1-1.17.27l-.31,0c-.44.06-.9.1-1.39.14s-1,.11-1.44.18l-.28,0a7.73,7.73,0,0,0-1.34.35,5.06,5.06,0,0,0-.67.3l-.24.15-1.92,1.11-17.41,10.05-3.59,2.07a2.35,2.35,0,0,1-.39.19,2.33,2.33,0,0,1-.31.08,2.24,2.24,0,0,1-.37.1,3.83,3.83,0,0,1-.58.07l-.39,0c-.22,0-.43,0-.64-.07l-.31-.05a3.14,3.14,0,0,1-.86-.33l-.33-.2-3.39-2,0-11.33Z"/><polygon class="cls-20" points="349.83 340.33 349.87 351.65 351.62 352.67 351.58 341.34 349.83 340.33"/><polygon class="cls-20" points="364.35 348.76 364.38 360.09 366.13 361.11 366.1 349.77 364.35 348.76"/><polygon class="cls-18" points="366.1 349.77 366.13 361.11 374.3 356.39 374.26 345.06 366.1 349.77"/><polygon class="cls-19" points="358 335.61 349.83 340.33 351.58 341.34 364.35 348.76 366.1 349.77 374.26 345.06 358 335.61"/><polygon class="cls-16" points="348.27 343.25 348.31 354.58 361.07 362 361.04 350.67 348.27 343.25"/><polygon class="cls-15" points="361.04 350.67 361.07 362 364.38 360.09 364.35 348.76 361.04 350.67"/><polygon class="cls-16" points="348.27 343.25 361.04 350.67 364.35 348.76 351.58 341.34 348.27 343.25"/><g class="cls-1"><polygon class="cls-21" points="408.05 102.59 406.48 203.64 327.13 248.31 328.7 147.27 408.05 102.59"/><polygon class="cls-22" points="328.7 147.27 327.13 248.31 247.33 200.72 248.91 99.67 328.7 147.27"/><polygon class="cls-23" points="255.29 198.05 255.29 199.76 268.3 207.27 268.3 205.56 255.29 198.05"/><polygon class="cls-23" points="257.8 198.51 259.26 199.36 259.26 190.2 260.72 191.04 258.53 185.98 256.34 188.51 257.8 189.35 257.8 198.51"/><polygon class="cls-23" points="264.32 202.29 265.79 203.13 265.79 193.97 267.25 194.81 265.06 189.75 262.87 192.28 264.32 193.12 264.32 202.29"/><path class="cls-23" d="M268.18,210.23l-12.77-7.37c-2.47-1.42-4.47-4.59-4.47-7.05V183c0-2.47,2-3.31,4.47-1.89l12.77,7.37c2.46,1.42,4.47,4.59,4.47,7v12.77C272.65,210.81,270.64,211.65,268.18,210.23Zm-12.77-28.18c-2-1.14-3.57-.46-3.57,1.51v12.77a7.41,7.41,0,0,0,3.57,5.63l12.77,7.37c2,1.14,3.57.46,3.57-1.51V195.05a7.41,7.41,0,0,0-3.57-5.63Z"/><path class="cls-23" d="M295.16,214.18a.19.19,0,0,1-.08-.11c0-.28-1.09-1.22-2.66-2.13s-2.67-1.23-2.67-.95c0,0,0,0-.07,0a.14.14,0,0,1-.07-.1c0-.26-.9-1-2.23-1.87v7.05l0,.83c-.15.86-.92,1-1.86.45a3.88,3.88,0,0,1-1.89-2.91c0-.26.19-.35.42-.21a.88.88,0,0,1,.43.7,2.09,2.09,0,0,0,1,1.51c1.12.65,1-.73,1-.73v-7.2c-1.33-.72-2.23-1-2.23-.71,0,0,0,.05-.07,0a.14.14,0,0,1-.07-.11c0-.28-1.09-1.22-2.67-2.12s-2.66-1.24-2.66-1c0,0,0,.05-.08,0a.16.16,0,0,1-.07-.11c.13-3.17,3.54-4.42,7.68-2.32h0c0-.23.27-.24.61,0a1.15,1.15,0,0,1,.61.75h0c4.14,2.69,7.56,7.88,7.68,11.19C295.23,214.19,295.2,214.2,295.16,214.18Z"/><path class="cls-23" d="M293.33,224.75l-12.78-7.37c-2.46-1.43-4.46-4.59-4.46-7V197.56c0-2.47,2-3.31,4.46-1.89L293.33,203c2.46,1.42,4.46,4.58,4.46,7.05v12.77C297.79,225.33,295.79,226.17,293.33,224.75Zm-12.78-28.18c-2-1.14-3.56-.46-3.56,1.5v12.78a7.44,7.44,0,0,0,3.56,5.63l12.78,7.37c2,1.14,3.57.46,3.57-1.51V209.57a7.41,7.41,0,0,0-3.57-5.63Z"/><path class="cls-23" d="M315.47,223.54c-.06,2-1.4,2.85-3.11,2v6.3l2.19,1.27V234l-4.93-2.85v-.82l2.19,1.27v-6.31a7.6,7.6,0,0,1-3.1-5.6V215l6.76,3.9Z"/><path class="cls-23" d="M318.47,239.27,305.7,231.9c-2.46-1.43-4.46-4.59-4.46-7.05V212.07c0-2.46,2-3.31,4.46-1.88l12.77,7.37c2.47,1.42,4.47,4.58,4.47,7.05v12.77C322.94,239.84,320.94,240.69,318.47,239.27ZM305.7,211.08c-2-1.13-3.57-.46-3.57,1.51v12.78A7.43,7.43,0,0,0,305.7,231l12.77,7.37c2,1.14,3.57.46,3.57-1.51V224.09a7.4,7.4,0,0,0-3.57-5.63Z"/><polygon class="cls-24" points="408.05 102.59 328.7 147.27 248.91 99.67 328.25 55 408.05 102.59"/></g><polygon class="cls-25" points="297.38 72.38 280.96 81.63 360.76 129.22 377.18 119.97 297.38 72.38"/><polygon class="cls-26" points="360.79 129.22 377.18 119.97 376.95 136.41 360.57 145.58 360.79 129.22"/></svg>