<svg id="Layer_1" data-name="Layer 1" xmlns="http://www.w3.org/2000/svg" viewBox="0 0 638.72 419"><defs><style>.cls-1{isolation:isolate;}.cls-2{fill:#012231;}.cls-3{fill:#012b3f;}.cls-4{fill:#024160;}.cls-5{fill:#024362;}.cls-6{fill:#035b85;}.cls-7{fill:#01293c;}.cls-8{fill:#854727;}.cls-9{fill:#6f3c21;}.cls-10{fill:#a35730;}.cls-11{fill:#b76236;}.cls-12{fill:#bb884f;}.cls-13{fill:#e0b477;}.cls-14{fill:#5c4123;}.cls-15{fill:#efcd90;}.cls-16{fill:#f7ecea;}.cls-17{fill:#c2ab9d;}.cls-18{fill:#858585;}.cls-19{fill:#b8b8b8;}.cls-20{fill:#e0e0e0;}.cls-21{fill:#916a3d;}</style></defs><title>Inventory</title><g class="cls-1"><polygon class="cls-2" points="415.34 49.98 416.8 49.13 400.99 58.15 399.53 59 415.34 49.98"/><polygon class="cls-3" points="417.55 53.8 419 52.95 416.8 49.13 415.34 49.98 417.55 53.8"/><polygon class="cls-4" points="415.34 49.98 399.53 59 401.73 62.81 417.55 53.8 415.34 49.98"/><polygon class="cls-3" points="435.48 79.75 436.94 78.91 421.22 51.69 419.76 52.53 435.48 79.75"/><polygon class="cls-3" points="419.76 52.53 421.22 51.69 419.02 47.87 417.56 48.72 419.76 52.53"/><polygon class="cls-3" points="417.56 48.72 419.02 47.87 403.3 20.64 401.84 21.49 417.56 48.72"/><polygon class="cls-4" points="401.84 21.49 399.63 22.76 415.34 49.98 417.55 53.8 433.26 81.02 435.48 79.75 419.76 52.53 417.56 48.72 401.84 21.49"/><polygon class="cls-2" points="401.84 21.49 403.3 20.64 401.09 21.92 399.63 22.76 401.84 21.49"/><polygon class="cls-4" points="433.38 39.7 417.56 48.72 419.76 52.53 435.58 43.52 433.38 39.7"/><polygon class="cls-3" points="435.58 43.52 437.04 42.67 434.83 38.85 433.38 39.7 435.58 43.52"/><polygon class="cls-2" points="433.38 39.7 434.83 38.85 419.02 47.87 417.56 48.72 433.38 39.7"/></g><g class="cls-1"><polygon class="cls-2" points="415.34 120.89 416.8 120.05 400.99 129.07 399.53 129.91 415.34 120.89"/><polygon class="cls-3" points="417.55 124.71 419 123.87 416.8 120.05 415.34 120.89 417.55 124.71"/><polygon class="cls-4" points="415.34 120.89 399.53 129.91 401.73 133.73 417.55 124.71 415.34 120.89"/><polygon class="cls-3" points="435.48 150.67 436.94 149.82 421.22 122.6 419.76 123.45 435.48 150.67"/><polygon class="cls-3" points="419.76 123.45 421.22 122.6 419.02 118.79 417.56 119.63 419.76 123.45"/><polygon class="cls-3" points="417.56 119.63 419.02 118.79 403.3 91.56 401.84 92.41 417.56 119.63"/><polygon class="cls-4" points="401.84 92.41 399.63 93.68 415.34 120.89 417.55 124.71 433.26 151.93 435.48 150.67 419.76 123.45 417.56 119.63 401.84 92.41"/><polygon class="cls-2" points="401.84 92.41 403.3 91.56 401.09 92.83 399.63 93.68 401.84 92.41"/><polygon class="cls-4" points="433.38 110.61 417.56 119.63 419.76 123.45 435.58 114.43 433.38 110.61"/><polygon class="cls-3" points="435.58 114.43 437.04 113.59 434.83 109.77 433.38 110.61 435.58 114.43"/><polygon class="cls-2" points="433.38 110.61 434.83 109.77 419.02 118.79 417.56 119.63 433.38 110.61"/></g><g class="cls-1"><polygon class="cls-2" points="415.34 191.81 416.8 190.96 400.99 199.98 399.53 200.83 415.34 191.81"/><polygon class="cls-3" points="417.55 195.63 419 194.78 416.8 190.96 415.34 191.81 417.55 195.63"/><polygon class="cls-4" points="415.34 191.81 399.53 200.83 401.73 204.64 417.55 195.63 415.34 191.81"/><polygon class="cls-3" points="435.48 221.58 436.94 220.74 421.22 193.52 419.76 194.36 435.48 221.58"/><polygon class="cls-3" points="419.76 194.36 421.22 193.52 419.02 189.7 417.56 190.54 419.76 194.36"/><polygon class="cls-3" points="417.56 190.54 419.02 189.7 403.3 162.47 401.84 163.32 417.56 190.54"/><polygon class="cls-4" points="401.84 163.32 399.63 164.59 415.34 191.81 417.55 195.63 433.26 222.85 435.48 221.58 419.76 194.36 417.56 190.54 401.84 163.32"/><polygon class="cls-2" points="401.84 163.32 403.3 162.47 401.09 163.75 399.63 164.59 401.84 163.32"/><polygon class="cls-4" points="433.38 181.53 417.56 190.54 419.76 194.36 435.58 185.35 433.38 181.53"/><polygon class="cls-3" points="435.58 185.35 437.04 184.5 434.83 180.68 433.38 181.53 435.58 185.35"/><polygon class="cls-2" points="433.38 181.53 434.83 180.68 419.02 189.7 417.56 190.54 433.38 181.53"/></g><g class="cls-1"><polygon class="cls-2" points="415.34 262.72 416.8 261.88 400.99 270.9 399.53 271.74 415.34 262.72"/><polygon class="cls-3" points="417.55 266.54 419 265.69 416.8 261.88 415.34 262.72 417.55 266.54"/><polygon class="cls-4" points="415.34 262.72 399.53 271.74 401.73 275.56 417.55 266.54 415.34 262.72"/><polygon class="cls-3" points="435.48 292.5 436.94 291.65 421.22 264.43 419.76 265.28 435.48 292.5"/><polygon class="cls-3" points="419.76 265.28 421.22 264.43 419.02 260.61 417.56 261.46 419.76 265.28"/><polygon class="cls-3" points="417.56 261.46 419.02 260.61 403.3 233.39 401.84 234.23 417.56 261.46"/><polygon class="cls-4" points="401.84 234.23 399.63 235.51 415.34 262.72 417.55 266.54 433.26 293.76 435.48 292.5 419.76 265.28 417.56 261.46 401.84 234.23"/><polygon class="cls-2" points="401.84 234.23 403.3 233.39 401.09 234.66 399.63 235.51 401.84 234.23"/><polygon class="cls-4" points="433.38 252.44 417.56 261.46 419.76 265.28 435.58 256.26 433.38 252.44"/><polygon class="cls-3" points="435.58 256.26 437.04 255.42 434.83 251.59 433.38 252.44 435.58 256.26"/><polygon class="cls-2" points="433.38 252.44 434.83 251.59 419.02 260.61 417.56 261.46 433.38 252.44"/></g><g class="cls-1"><polygon class="cls-5" points="398.86 275.51 402.79 273.22 402.98 16.2 399.05 18.48 398.86 275.51"/><polygon class="cls-6" points="399.05 18.48 402.98 16.2 399.17 14 395.24 16.28 399.05 18.48"/><polygon class="cls-7" points="395.24 16.28 395.05 273.31 398.86 275.51 399.05 18.48 395.24 16.28"/></g><g class="cls-1"><polygon class="cls-5" points="437.2 297.09 441.13 294.81 441.32 37.78 437.39 40.06 437.2 297.09"/><polygon class="cls-6" points="437.39 40.06 441.32 37.78 437.51 35.58 433.59 37.87 437.39 40.06"/><polygon class="cls-7" points="433.59 37.87 433.39 294.89 437.2 297.09 437.39 40.06 433.59 37.87"/></g><g class="cls-1"><polygon class="cls-8" points="382.49 314.59 382.49 316.87 388.72 320.48 388.71 318.2 382.49 314.59"/><polygon class="cls-9" points="388.71 318.2 388.72 320.48 430.67 296.26 430.66 293.98 388.71 318.2"/><polygon class="cls-10" points="382.49 314.59 388.71 318.2 430.66 293.98 424.44 290.37 382.49 314.59"/></g><g class="cls-1"><polygon class="cls-8" points="366.68 305.86 366.69 308.14 372.91 311.76 372.9 309.48 366.68 305.86"/><polygon class="cls-9" points="372.9 309.48 372.91 311.76 414.86 287.54 414.85 285.26 372.9 309.48"/><polygon class="cls-10" points="366.68 305.86 372.9 309.48 414.85 285.26 408.63 281.64 366.68 305.86"/></g><g class="cls-1"><polygon class="cls-8" points="353.19 297.51 353.2 299.8 359.42 303.41 359.42 301.13 353.19 297.51"/><polygon class="cls-9" points="359.42 301.13 359.42 303.41 401.37 279.19 401.37 276.91 359.42 301.13"/><polygon class="cls-10" points="353.19 297.51 359.42 301.13 401.37 276.91 395.14 273.3 353.19 297.51"/></g><g class="cls-1"><polygon class="cls-8" points="427.53 299.32 427.53 301.6 421.3 305.22 421.31 302.94 427.53 299.32"/><polygon class="cls-9" points="421.31 302.94 421.3 305.22 379.35 281 379.36 278.72 421.31 302.94"/><polygon class="cls-11" points="427.53 299.32 421.31 302.94 379.36 278.72 385.58 275.1 427.53 299.32"/></g><g class="cls-1"><polygon class="cls-8" points="410.31 309.63 410.31 311.9 404.08 315.52 404.09 313.24 410.31 309.63"/><polygon class="cls-9" points="404.09 313.24 404.08 315.52 362.13 291.3 362.14 289.02 404.09 313.24"/><polygon class="cls-11" points="410.31 309.63 404.09 313.24 362.14 289.02 368.37 285.4 410.31 309.63"/></g><g class="cls-1"><polygon class="cls-8" points="340.53 338.83 340.54 341.11 346.76 344.73 346.75 342.44 340.53 338.83"/><polygon class="cls-9" points="346.75 342.44 346.76 344.73 388.71 320.51 388.7 318.23 346.75 342.44"/><polygon class="cls-10" points="340.53 338.83 346.75 342.44 388.7 318.23 382.48 314.61 340.53 338.83"/></g><g class="cls-1"><polygon class="cls-8" points="324.72 330.1 324.73 332.38 330.95 336 330.95 333.72 324.72 330.1"/><polygon class="cls-9" points="330.95 333.72 330.95 336 372.9 311.78 372.9 309.5 330.95 333.72"/><polygon class="cls-10" points="324.72 330.1 330.95 333.72 372.9 309.5 366.67 305.88 324.72 330.1"/></g><g class="cls-1"><polygon class="cls-8" points="311.24 321.76 311.24 324.04 317.47 327.65 317.46 325.37 311.24 321.76"/><polygon class="cls-9" points="317.46 325.37 317.47 327.65 359.42 303.43 359.41 301.15 317.46 325.37"/><polygon class="cls-10" points="311.24 321.76 317.46 325.37 359.41 301.15 353.19 297.54 311.24 321.76"/></g><g class="cls-1"><polygon class="cls-8" points="385.58 323.56 385.57 325.85 379.35 329.46 379.35 327.18 385.58 323.56"/><polygon class="cls-9" points="379.35 327.18 379.35 329.46 337.39 305.24 337.4 302.96 379.35 327.18"/><polygon class="cls-11" points="385.58 323.56 379.35 327.18 337.4 302.96 343.63 299.34 385.58 323.56"/></g><g class="cls-1"><polygon class="cls-8" points="368.36 333.87 368.35 336.15 362.13 339.76 362.13 337.48 368.36 333.87"/><polygon class="cls-9" points="362.13 337.48 362.13 339.76 320.18 315.54 320.18 313.26 362.13 337.48"/><polygon class="cls-11" points="368.36 333.87 362.13 337.48 320.18 313.26 326.41 309.65 368.36 333.87"/></g><g class="cls-1"><polygon class="cls-12" points="345.73 283.3 345.8 308.06 374.12 324.52 374.05 299.76 345.73 283.3"/><polygon class="cls-13" points="374.05 299.76 374.12 324.52 415.48 300.64 415.4 275.88 374.05 299.76"/><polygon class="cls-14" points="412.34 298.13 412.34 298.72 407.92 301.27 407.92 300.69 412.34 298.13"/><polygon class="cls-14" points="411.49 298.29 410.99 298.58 410.99 295.47 410.49 295.75 411.24 294.03 411.98 294.89 411.49 295.18 411.49 298.29"/><polygon class="cls-14" points="409.27 299.58 408.77 299.86 408.77 296.75 408.27 297.04 409.02 295.31 409.76 296.17 409.27 296.46 409.27 299.58"/><path class="cls-14" d="M406.44,301.64v-4.35A3.14,3.14,0,0,1,408,294.9l4.35-2.51c.84-.48,1.52-.2,1.52.64v4.34a3.15,3.15,0,0,1-1.52,2.4L408,302.28C407.12,302.76,406.44,302.47,406.44,301.64ZM408,295.2a2.56,2.56,0,0,0-1.21,1.92v4.34c0,.67.55.9,1.21.51l4.35-2.51a2.5,2.5,0,0,0,1.21-1.91v-4.34c0-.67-.54-.9-1.21-.52Z"/><path class="cls-14" d="M398.78,303.62a.05.05,0,0,0,0,0,2.46,2.46,0,0,1,.9-.72c.54-.31.91-.42.91-.33s0,0,0,0a0,0,0,0,0,0,0c0-.09.3-.36.76-.64v2.68c.05.29.31.34.63.15a1.3,1.3,0,0,0,.64-1c0-.09-.06-.12-.14-.08a.32.32,0,0,0-.15.24.7.7,0,0,1-.35.51c-.38.23-.35-.24-.35-.24V301.7c.46-.25.76-.33.76-.24s0,0,0,0l0,0a2.44,2.44,0,0,1,.91-.72c.53-.31.9-.42.9-.33s0,0,0,0,0,0,0,0c0-1.08-1.2-1.51-2.61-.79h0c0-.08-.09-.09-.2,0a.38.38,0,0,0-.21.26h0a5.84,5.84,0,0,0-2.61,3.8S398.77,303.63,398.78,303.62Z"/><path class="cls-14" d="M397.89,306.57v-4.34a3.18,3.18,0,0,1,1.51-2.4l4.35-2.5c.84-.49,1.52-.2,1.52.64v4.34a3.16,3.16,0,0,1-1.52,2.4l-4.35,2.5C398.57,307.7,397.89,307.41,397.89,306.57Zm1.51-6.43a2.5,2.5,0,0,0-1.21,1.91v4.35c0,.66.54.89,1.21.51l4.35-2.51a2.51,2.51,0,0,0,1.21-1.91v-4.35c0-.67-.54-.9-1.21-.51Z"/><path class="cls-14" d="M391.88,306.8c0,.68.47,1,1.05.69v2.14l-.74.43v.28l1.68-1v-.28l-.75.44v-2.15a2.56,2.56,0,0,0,1.05-1.9v-1.59l-2.29,1.33Z"/><path class="cls-14" d="M389.33,311.51v-4.34a3.17,3.17,0,0,1,1.52-2.4l4.35-2.51c.83-.48,1.52-.19,1.52.64v4.35a3.17,3.17,0,0,1-1.52,2.39l-4.35,2.51C390,312.63,389.33,312.35,389.33,311.51Zm1.52-6.44a2.53,2.53,0,0,0-1.21,1.92v4.34c0,.67.54.9,1.21.52l4.35-2.51a2.53,2.53,0,0,0,1.21-1.92v-4.34c0-.67-.54-.9-1.21-.51Z"/><polygon class="cls-15" points="345.73 283.3 374.05 299.76 415.4 275.88 387.09 259.42 345.73 283.3"/></g><polygon class="cls-16" points="398.11 265.83 403.96 269.23 362.61 293.11 356.75 289.7 398.11 265.83"/><polygon class="cls-17" points="362.6 293.11 356.75 289.7 356.75 295.62 362.6 298.99 362.6 293.11"/><g class="cls-1"><polygon class="cls-12" points="279.34 328.27 279.77 356.08 301.61 368.38 301.18 340.57 279.34 328.27"/><polygon class="cls-13" points="301.18 340.57 301.61 368.38 323.57 355.28 323.14 327.47 301.18 340.57"/><polygon class="cls-14" points="321.38 354.54 321.38 355.01 317.8 357.08 317.8 356.61 321.38 354.54"/><polygon class="cls-14" points="320.69 354.67 320.29 354.9 320.29 352.38 319.88 352.62 320.49 351.22 321.09 351.92 320.69 352.15 320.69 354.67"/><polygon class="cls-14" points="318.89 355.71 318.49 355.94 318.49 353.42 318.09 353.65 318.69 352.26 319.3 352.96 318.89 353.19 318.89 355.71"/><path class="cls-14" d="M316.6,357.38v-3.52a2.54,2.54,0,0,1,1.23-1.94l3.52-2c.68-.39,1.23-.16,1.23.52v3.52a2.56,2.56,0,0,1-1.23,1.94l-3.52,2C317.15,358.29,316.6,358.05,316.6,357.38Zm1.23-5.21a2,2,0,0,0-1,1.55v3.51c0,.54.44.73,1,.42l3.52-2a2,2,0,0,0,1-1.55v-3.52c0-.54-.44-.72-1-.41Z"/><path class="cls-14" d="M310.41,359s0,0,0,0,.3-.33.73-.58.74-.34.74-.27,0,0,0,0,0,0,0,0,.24-.29.61-.51v2.17c0,.23.25.27.51.12a1.08,1.08,0,0,0,.52-.8c0-.07,0-.1-.12-.06a.25.25,0,0,0-.11.19.57.57,0,0,1-.29.42c-.31.18-.28-.2-.28-.2v-2c.37-.2.61-.27.61-.2s0,0,0,0,0,0,0,0,.3-.33.74-.58.73-.34.73-.27,0,0,0,0,0,0,0,0c0-.87-1-1.22-2.11-.64h0c0-.06-.08-.06-.17,0s-.17.14-.17.21h0a4.72,4.72,0,0,0-2.11,3.08Z"/><path class="cls-14" d="M309.68,361.37v-3.51a2.54,2.54,0,0,1,1.23-1.94l3.52-2c.68-.39,1.23-.16,1.23.52v3.51a2.54,2.54,0,0,1-1.23,1.94l-3.52,2C310.23,362.28,309.68,362.05,309.68,361.37Zm1.23-5.21a2.06,2.06,0,0,0-1,1.55v3.52c0,.54.44.73,1,.41l3.52-2a2,2,0,0,0,1-1.54v-3.52c0-.54-.44-.73-1-.41Z"/><path class="cls-14" d="M304.82,361.56c0,.55.38.78.86.55v1.74l-.61.35v.22l1.36-.78v-.23l-.61.35V362a2.13,2.13,0,0,0,.86-1.54V359.2l-1.86,1.08Z"/><path class="cls-14" d="M302.76,365.37v-3.52a2.54,2.54,0,0,1,1.23-1.94l3.52-2c.67-.39,1.23-.15,1.23.52v3.52a2.57,2.57,0,0,1-1.23,1.94l-3.52,2C303.31,366.28,302.76,366.05,302.76,365.37Zm1.23-5.21a2,2,0,0,0-1,1.55v3.51c0,.55.44.73,1,.42l3.52-2a2,2,0,0,0,1-1.55v-3.51c0-.55-.44-.73-1-.42Z"/><polygon class="cls-15" points="279.34 328.27 301.18 340.57 323.14 327.47 301.3 315.18 279.34 328.27"/></g><polygon class="cls-16" points="309.8 319.96 314.31 322.5 292.36 335.6 287.84 333.06 309.8 319.96"/><polygon class="cls-17" points="292.35 335.6 287.84 333.06 287.9 337.58 292.41 340.1 292.35 335.6"/><g class="cls-1"><polygon class="cls-18" points="192.35 185.37 192.37 190.9 234.29 215.26 234.27 209.73 192.35 185.37"/><polygon class="cls-19" points="234.27 209.73 234.29 215.26 437.1 98.17 437.08 92.64 234.27 209.73"/><polygon class="cls-20" points="192.35 185.37 234.27 209.73 437.08 92.64 395.16 68.27 192.35 185.37"/></g><g class="cls-1"><polygon class="cls-18" points="192.35 265.11 192.37 270.64 234.29 295 234.27 289.47 192.35 265.11"/><polygon class="cls-19" points="234.27 289.47 234.29 295 437.1 177.91 437.08 172.38 234.27 289.47"/><polygon class="cls-20" points="192.35 265.11 234.27 289.47 437.08 172.38 395.16 148.02 192.35 265.11"/></g><g class="cls-1"><polygon class="cls-18" points="192.35 335.44 192.37 340.97 234.29 365.33 234.27 359.8 192.35 335.44"/><polygon class="cls-19" points="234.27 359.8 234.29 365.33 437.1 248.24 437.08 242.71 234.27 359.8"/><polygon class="cls-20" points="192.35 335.44 234.27 359.8 437.08 242.71 395.16 218.35 192.35 335.44"/></g><g class="cls-1"><polygon class="cls-13" points="398.87 112.14 424.13 97.46 424.21 68.88 398.95 83.56 398.87 112.14"/><polygon class="cls-15" points="398.95 83.56 424.21 68.88 399.33 54.52 374.07 69.2 398.95 83.56"/><polygon class="cls-21" points="374.07 69.2 373.99 97.78 398.87 112.14 398.95 83.56 374.07 69.2"/></g><g class="cls-1"><polygon class="cls-13" points="365.51 130.93 390.77 116.24 390.86 87.66 365.59 102.34 365.51 130.93"/><polygon class="cls-15" points="365.59 102.34 390.86 87.66 365.98 73.3 340.72 87.98 365.59 102.34"/><polygon class="cls-21" points="340.72 87.98 340.63 116.56 365.51 130.93 365.59 102.34 340.72 87.98"/></g><g class="cls-1"><polygon class="cls-13" points="354.22 43.83 354.73 76.75 380.58 91.3 380.06 58.38 354.22 43.83"/><polygon class="cls-12" points="380.06 58.38 380.58 91.3 406.57 75.8 406.06 42.88 380.06 58.38"/><polygon class="cls-15" points="354.22 43.83 380.06 58.38 406.06 42.88 380.21 28.32 354.22 43.83"/></g><polygon class="cls-16" points="390.27 33.99 395.62 37 369.62 52.5 364.27 49.49 390.27 33.99"/><polygon class="cls-17" points="369.61 52.5 364.27 49.49 364.35 54.85 369.68 57.83 369.61 52.5"/><g class="cls-1"><polygon class="cls-13" points="420.61 156.57 420.54 180.14 393.58 195.8 393.65 172.23 420.61 156.57"/><polygon class="cls-12" points="393.65 172.23 393.58 195.8 354.21 173.07 354.28 149.5 393.65 172.23"/><polygon class="cls-15" points="420.61 156.57 393.65 172.23 354.28 149.5 381.24 133.84 420.61 156.57"/></g><polygon class="cls-16" points="370.75 139.93 365.17 143.18 404.54 165.9 410.12 162.66 370.75 139.93"/><polygon class="cls-17" points="404.55 165.9 410.12 162.66 410.12 168.29 404.55 171.51 404.55 165.9"/><polygon class="cls-14" points="417.74 178.77 417.74 179.33 413.52 181.76 413.52 181.21 417.74 178.77"/><polygon class="cls-14" points="416.92 178.92 416.45 179.2 416.45 176.23 415.98 176.51 416.69 174.87 417.4 175.69 416.92 175.96 416.92 178.92"/><polygon class="cls-14" points="414.81 180.15 414.34 180.42 414.34 177.45 413.87 177.73 414.57 176.09 415.28 176.91 414.81 177.18 414.81 180.15"/><path class="cls-14" d="M412.12,182.11V178a3,3,0,0,1,1.44-2.28l4.14-2.39c.8-.46,1.44-.18,1.44.61v4.14a3,3,0,0,1-1.44,2.28l-4.14,2.39C412.77,183.18,412.12,182.9,412.12,182.11Zm1.44-6.13a2.42,2.42,0,0,0-1.15,1.82v4.14c0,.63.52.85,1.15.49L417.7,180a2.42,2.42,0,0,0,1.15-1.82v-4.14c0-.63-.52-.85-1.15-.49Z"/><path class="cls-14" d="M404.83,184l0,0a2.21,2.21,0,0,1,.86-.69c.51-.29.86-.4.86-.31s0,0,0,0,0,0,0,0,.29-.34.72-.61v2.55c.05.28.3.32.6.15a1.26,1.26,0,0,0,.61-.94c0-.09-.06-.12-.14-.07a.29.29,0,0,0-.13.22.66.66,0,0,1-.34.49c-.36.21-.33-.23-.33-.23v-2.33c.43-.24.72-.31.72-.23h0l0,0a2.31,2.31,0,0,1,.86-.69c.51-.29.87-.4.87-.31s0,0,0,0,0,0,0,0c0-1-1.14-1.43-2.48-.75h0c0-.08-.09-.08-.2,0a.37.37,0,0,0-.2.24h0a5.58,5.58,0,0,0-2.48,3.63Z"/><path class="cls-14" d="M404,186.8v-4.13a3,3,0,0,1,1.44-2.28l4.14-2.39c.8-.46,1.44-.18,1.44.61v4.14a3,3,0,0,1-1.44,2.28l-4.14,2.39C404.63,187.88,404,187.6,404,186.8Zm1.44-6.12a2.42,2.42,0,0,0-1.15,1.82v4.14c0,.63.52.85,1.15.49l4.14-2.39a2.42,2.42,0,0,0,1.15-1.82v-4.14c0-.64-.52-.85-1.15-.49Z"/><path class="cls-14" d="M398.26,187c0,.65.45.93,1,.66v2l-.71.41v.26l1.6-.92v-.26l-.71.41v-2a2.44,2.44,0,0,0,1-1.82v-1.51l-2.18,1.27Z"/><path class="cls-14" d="M395.84,191.5v-4.13a3,3,0,0,1,1.44-2.28l4.14-2.39c.8-.46,1.44-.18,1.44.61v4.14a3,3,0,0,1-1.44,2.28l-4.14,2.39C396.49,192.58,395.84,192.3,395.84,191.5Zm1.44-6.12a2.42,2.42,0,0,0-1.15,1.82v4.14c0,.63.52.85,1.15.48l4.14-2.38a2.4,2.4,0,0,0,1.15-1.82v-4.14c0-.64-.51-.85-1.15-.49Z"/><g class="cls-1"><polygon class="cls-13" points="383.47 178.79 383.4 202.36 356.45 218.03 356.51 194.46 383.47 178.79"/><polygon class="cls-12" points="356.51 194.46 356.45 218.03 317.08 195.3 317.15 171.73 356.51 194.46"/><polygon class="cls-15" points="383.47 178.79 356.51 194.46 317.15 171.73 344.11 156.06 383.47 178.79"/></g><polygon class="cls-16" points="333.62 162.16 328.04 165.4 367.4 188.13 372.98 184.88 333.62 162.16"/><polygon class="cls-17" points="367.42 188.13 372.98 184.88 372.98 190.51 367.42 193.73 367.42 188.13"/><polygon class="cls-14" points="380.6 201 380.6 201.55 376.39 203.98 376.39 203.43 380.6 201"/><polygon class="cls-14" points="379.79 201.15 379.32 201.42 379.32 198.46 378.85 198.73 379.55 197.09 380.26 197.91 379.79 198.18 379.79 201.15"/><polygon class="cls-14" points="377.68 202.37 377.2 202.64 377.2 199.68 376.73 199.95 377.44 198.31 378.15 199.13 377.68 199.4 377.68 202.37"/><path class="cls-14" d="M375,204.33v-4.14a3,3,0,0,1,1.45-2.28l4.13-2.38c.8-.46,1.45-.19,1.45.61v4.13a3,3,0,0,1-1.45,2.28l-4.13,2.39C375.63,205.4,375,205.13,375,204.33Zm1.45-6.13a2.4,2.4,0,0,0-1.15,1.83v4.13c0,.64.51.86,1.15.49l4.13-2.39a2.39,2.39,0,0,0,1.16-1.82V196.3c0-.63-.52-.85-1.16-.48Z"/><path class="cls-14" d="M367.7,206.22l0,0a2.39,2.39,0,0,1,.87-.69c.5-.29.86-.4.86-.31s0,0,0,0,0,0,0,0,.3-.34.72-.61v2.29l0,.27c0,.27.29.31.6.14a1.28,1.28,0,0,0,.61-.94c0-.09-.06-.11-.14-.07a.29.29,0,0,0-.13.23.67.67,0,0,1-.34.48c-.37.21-.33-.23-.33-.23v-2.33c.43-.23.72-.31.72-.23s0,0,0,0,0,0,0,0a2.23,2.23,0,0,1,.86-.68c.51-.3.86-.4.86-.31s0,0,0,0,0,0,0,0c0-1-1.14-1.43-2.48-.75h0c0-.07-.09-.08-.2,0s-.2.17-.2.25h0a5.59,5.59,0,0,0-2.48,3.62Z"/><path class="cls-14" d="M366.85,209v-4.14a3,3,0,0,1,1.44-2.28l4.14-2.38c.79-.46,1.44-.19,1.44.61V205a3,3,0,0,1-1.44,2.28l-4.14,2.39C367.49,210.1,366.85,209.82,366.85,209Zm1.44-6.13a2.4,2.4,0,0,0-1.15,1.83v4.13c0,.64.51.86,1.15.49l4.14-2.39a2.41,2.41,0,0,0,1.15-1.82V201c0-.63-.52-.85-1.15-.48Z"/><path class="cls-14" d="M361.13,209.25c0,.64.45.92,1,.65v2l-.71.41v.27l1.6-.93v-.26l-.71.41v-2a2.47,2.47,0,0,0,1-1.82v-1.5l-2.18,1.26Z"/><path class="cls-14" d="M358.71,213.73v-4.14a3,3,0,0,1,1.44-2.28l4.14-2.39c.79-.46,1.44-.18,1.44.62v4.13a3,3,0,0,1-1.44,2.28l-4.14,2.39C359.35,214.8,358.71,214.52,358.71,213.73Zm1.44-6.13a2.4,2.4,0,0,0-1.15,1.82v4.14c0,.64.51.86,1.15.49l4.14-2.39a2.42,2.42,0,0,0,1.15-1.82V205.7c0-.63-.52-.85-1.15-.48Z"/><g class="cls-1"><polygon class="cls-12" points="287.52 192.18 287.87 214 305 223.65 304.66 201.83 287.52 192.18"/><polygon class="cls-13" points="304.66 201.83 305 223.65 322.23 213.37 321.89 191.55 304.66 201.83"/><polygon class="cls-15" points="287.52 192.18 304.66 201.83 321.89 191.55 304.76 181.9 287.52 192.18"/></g><polygon class="cls-16" points="311.43 185.65 314.97 187.65 297.74 197.93 294.19 195.93 311.43 185.65"/><polygon class="cls-17" points="297.73 197.93 294.19 195.93 294.24 199.48 297.78 201.46 297.73 197.93"/><g class="cls-1"><polygon class="cls-12" points="311.39 205.42 311.73 227.25 328.87 236.89 328.53 215.07 311.39 205.42"/><polygon class="cls-13" points="328.53 215.07 328.87 236.89 346.1 226.62 345.76 204.79 328.53 215.07"/><polygon class="cls-15" points="311.39 205.42 328.53 215.07 345.76 204.79 328.63 195.15 311.39 205.42"/></g><polygon class="cls-16" points="335.3 198.9 338.84 200.9 321.61 211.17 318.06 209.18 335.3 198.9"/><polygon class="cls-17" points="321.6 211.17 318.06 209.18 318.11 212.73 321.65 214.71 321.6 211.17"/><g class="cls-1"><polygon class="cls-12" points="260.85 207.02 261.19 228.85 278.32 238.49 277.99 216.67 260.85 207.02"/><polygon class="cls-13" points="277.99 216.67 278.32 238.49 295.56 228.22 295.22 206.39 277.99 216.67"/><polygon class="cls-15" points="260.85 207.02 277.99 216.67 295.22 206.39 278.08 196.75 260.85 207.02"/></g><polygon class="cls-16" points="284.75 200.5 288.3 202.5 271.06 212.77 267.52 210.78 284.75 200.5"/><polygon class="cls-17" points="271.06 212.77 267.52 210.78 267.56 214.33 271.1 216.31 271.06 212.77"/><g class="cls-1"><polygon class="cls-12" points="282.75 219.08 283.09 240.91 300.23 250.55 299.89 228.73 282.75 219.08"/><polygon class="cls-13" points="299.89 228.73 300.23 250.55 317.46 240.28 317.12 218.45 299.89 228.73"/><polygon class="cls-15" points="282.75 219.08 299.89 228.73 317.12 218.45 299.98 208.8 282.75 219.08"/></g><polygon class="cls-16" points="306.65 212.56 310.2 214.56 292.96 224.83 289.42 222.84 306.65 212.56"/><polygon class="cls-17" points="292.96 224.83 289.42 222.84 289.47 226.39 293 228.37 292.96 224.83"/><g class="cls-1"><polygon class="cls-13" points="265.64 246.38 265.57 269.95 238.62 285.62 238.68 262.04 265.64 246.38"/><polygon class="cls-12" points="238.68 262.04 238.62 285.62 199.25 262.89 199.32 239.31 238.68 262.04"/><polygon class="cls-15" points="265.64 246.38 238.68 262.04 199.32 239.31 226.27 223.65 265.64 246.38"/></g><polygon class="cls-16" points="215.78 229.75 210.21 232.99 249.57 255.72 255.15 252.47 215.78 229.75"/><polygon class="cls-17" points="249.58 255.71 255.15 252.47 255.15 258.1 249.58 261.32 249.58 255.71"/><polygon class="cls-14" points="262.77 268.59 262.77 269.14 258.56 271.57 258.56 271.02 262.77 268.59"/><polygon class="cls-14" points="261.96 268.74 261.49 269.01 261.49 266.05 261.01 266.32 261.72 264.68 262.43 265.5 261.96 265.77 261.96 268.74"/><polygon class="cls-14" points="259.85 269.96 259.37 270.23 259.37 267.26 258.9 267.54 259.61 265.9 260.32 266.72 259.85 266.99 259.85 269.96"/><path class="cls-14" d="M257.15,271.92v-4.14a3,3,0,0,1,1.45-2.28l4.13-2.39c.8-.46,1.45-.18,1.45.62v4.13a3,3,0,0,1-1.45,2.28l-4.13,2.39C257.8,273,257.15,272.71,257.15,271.92Zm1.45-6.13a2.41,2.41,0,0,0-1.16,1.82v4.14c0,.64.52.86,1.16.49l4.13-2.39a2.39,2.39,0,0,0,1.16-1.82v-4.14c0-.63-.52-.85-1.16-.48Z"/><path class="cls-14" d="M249.87,273.81a.08.08,0,0,0,0,0,2.31,2.31,0,0,1,.86-.69c.51-.29.87-.4.87-.31s0,0,0,0,0,0,0,0,.29-.34.72-.61v2.55c.05.28.3.32.61.15a1.28,1.28,0,0,0,.61-.94c0-.09-.06-.12-.14-.07a.27.27,0,0,0-.14.23.65.65,0,0,1-.33.48c-.37.21-.33-.23-.33-.23V272c.43-.23.72-.31.72-.23s0,0,0,0,0,0,0,0a2.31,2.31,0,0,1,.86-.69c.51-.29.86-.39.86-.3h0s0,0,0,0c0-1-1.15-1.43-2.49-.75h0c0-.07-.08-.08-.19,0s-.2.17-.2.25h0a5.61,5.61,0,0,0-2.49,3.62Z"/><path class="cls-14" d="M249,276.62v-4.14a3,3,0,0,1,1.45-2.28l4.13-2.39c.8-.46,1.45-.18,1.45.62v4.13a3,3,0,0,1-1.45,2.28l-4.13,2.39C249.66,277.69,249,277.41,249,276.62Zm1.45-6.13a2.41,2.41,0,0,0-1.16,1.82v4.14c0,.64.52.85,1.16.49l4.13-2.39a2.41,2.41,0,0,0,1.16-1.82v-4.14c0-.63-.52-.85-1.16-.48Z"/><path class="cls-14" d="M243.29,276.84c0,.64.46.92,1,.65v2l-.71.41v.27l1.6-.93V279l-.71.41v-2a2.47,2.47,0,0,0,1-1.82v-1.5l-2.19,1.26Z"/><path class="cls-14" d="M240.87,281.32v-4.14a3,3,0,0,1,1.45-2.28l4.13-2.39c.8-.46,1.45-.18,1.45.62v4.13a3,3,0,0,1-1.45,2.28l-4.13,2.39C241.52,282.39,240.87,282.11,240.87,281.32Zm1.45-6.13a2.41,2.41,0,0,0-1.16,1.82v4.14c0,.64.52.85,1.16.49l4.13-2.39a2.41,2.41,0,0,0,1.16-1.82v-4.14c0-.63-.52-.85-1.16-.49Z"/><g class="cls-1"><polygon class="cls-12" points="359.95 226.16 360.02 250.93 388.34 267.38 388.27 242.62 359.95 226.16"/><polygon class="cls-13" points="388.27 242.62 388.34 267.38 429.7 243.51 429.63 218.75 388.27 242.62"/><polygon class="cls-14" points="426.56 241 426.56 241.58 422.14 244.13 422.14 243.56 426.56 241"/><polygon class="cls-14" points="425.71 241.16 425.21 241.45 425.21 238.33 424.71 238.62 425.46 236.9 426.2 237.76 425.71 238.04 425.71 241.16"/><polygon class="cls-14" points="423.49 242.44 422.99 242.73 422.99 239.61 422.49 239.9 423.24 238.18 423.98 239.04 423.49 239.33 423.49 242.44"/><path class="cls-14" d="M420.66,244.5v-4.34a3.15,3.15,0,0,1,1.52-2.4l4.34-2.51c.84-.48,1.52-.19,1.52.65v4.34a3.13,3.13,0,0,1-1.52,2.39l-4.34,2.51C421.34,245.63,420.66,245.34,420.66,244.5Zm1.52-6.43A2.51,2.51,0,0,0,421,240v4.34c0,.67.55.9,1.22.52l4.34-2.51a2.53,2.53,0,0,0,1.21-1.91v-4.35c0-.67-.54-.9-1.21-.51Z"/><path class="cls-14" d="M413,246.48a0,0,0,0,0,0,0c0-.1.37-.42.91-.73s.9-.42.9-.32,0,0,0,0a.08.08,0,0,0,0,0,2.15,2.15,0,0,1,.76-.63v2.68c0,.29.31.33.63.15a1.32,1.32,0,0,0,.64-1c0-.09-.06-.12-.14-.07a.29.29,0,0,0-.14.24.71.71,0,0,1-.36.51c-.38.22-.34-.25-.34-.25v-2.45c.45-.24.75-.32.75-.24s0,0,0,0,0,0,0,0,.37-.42.91-.73.91-.42.91-.32,0,0,0,0l0,0c-.05-1.08-1.21-1.5-2.61-.79h0c0-.08-.1-.08-.21,0a.35.35,0,0,0-.21.25h0a5.88,5.88,0,0,0-2.61,3.81S413,246.49,413,246.48Z"/><path class="cls-14" d="M412.11,249.44v-4.35a3.15,3.15,0,0,1,1.52-2.39l4.34-2.51c.84-.48,1.52-.2,1.52.64v4.35a3.15,3.15,0,0,1-1.52,2.39l-4.34,2.51C412.79,250.56,412.11,250.27,412.11,249.44Zm1.52-6.44a2.54,2.54,0,0,0-1.22,1.92v4.34c0,.67.55.9,1.22.51l4.34-2.5a2.53,2.53,0,0,0,1.21-1.92V241c0-.67-.54-.9-1.21-.51Z"/><path class="cls-14" d="M406.1,249.67c0,.67.47,1,1.06.68v2.15l-.75.43v.28l1.68-1V252l-.75.43v-2.14a2.6,2.6,0,0,0,1.06-1.91v-1.58l-2.3,1.32Z"/><path class="cls-14" d="M403.56,254.37V250a3.16,3.16,0,0,1,1.52-2.4l4.34-2.5c.84-.49,1.52-.2,1.52.64v4.34a3.15,3.15,0,0,1-1.52,2.4L405.08,255C404.24,255.5,403.56,255.21,403.56,254.37Zm1.52-6.43a2.52,2.52,0,0,0-1.22,1.91v4.35c0,.67.55.9,1.22.51l4.34-2.51a2.5,2.5,0,0,0,1.21-1.91V246c0-.67-.54-.9-1.21-.52Z"/><polygon class="cls-15" points="359.95 226.16 388.27 242.62 429.63 218.75 401.31 202.29 359.95 226.16"/></g><polygon class="cls-16" points="412.33 208.69 418.19 212.1 376.83 235.97 370.97 232.57 412.33 208.69"/><polygon class="cls-17" points="376.82 235.97 370.97 232.57 370.97 238.48 376.82 241.86 376.82 235.97"/><g class="cls-1"><polygon class="cls-12" points="311.88 253.43 311.95 278.19 340.27 294.65 340.2 269.89 311.88 253.43"/><polygon class="cls-13" points="340.2 269.89 340.27 294.65 381.63 270.77 381.56 246.01 340.2 269.89"/><polygon class="cls-14" points="378.49 268.27 378.49 268.85 374.06 271.4 374.06 270.82 378.49 268.27"/><polygon class="cls-14" points="377.63 268.43 377.14 268.72 377.14 265.6 376.64 265.89 377.39 264.17 378.13 265.03 377.63 265.31 377.63 268.43"/><polygon class="cls-14" points="375.42 269.71 374.92 270 374.92 266.88 374.42 267.17 375.17 265.45 375.91 266.31 375.42 266.6 375.42 269.71"/><path class="cls-14" d="M372.59,271.77v-4.34a3.16,3.16,0,0,1,1.51-2.4l4.35-2.51c.84-.48,1.52-.19,1.52.64v4.35a3.13,3.13,0,0,1-1.52,2.39l-4.35,2.51C373.27,272.9,372.59,272.61,372.59,271.77Zm1.51-6.43a2.52,2.52,0,0,0-1.21,1.91v4.34c0,.67.55.9,1.21.52l4.35-2.51a2.53,2.53,0,0,0,1.21-1.92v-4.34c0-.67-.54-.9-1.21-.51Z"/><path class="cls-14" d="M364.93,273.75l0,0c0-.1.37-.42.9-.73s.91-.42.91-.32,0,0,0,0a.05.05,0,0,0,0,0c0-.09.3-.36.76-.63v2.68c.05.29.31.33.63.15a1.34,1.34,0,0,0,.64-1c0-.09-.06-.12-.14-.07a.3.3,0,0,0-.15.23.72.72,0,0,1-.35.52c-.38.22-.35-.25-.35-.25v-2.45c.46-.24.76-.32.76-.24s0,0,0,0l0,0c0-.1.37-.42.91-.73s.9-.42.9-.32h0l0,0c0-1.08-1.2-1.5-2.61-.79h0c0-.08-.09-.08-.2,0a.38.38,0,0,0-.21.26h0a5.86,5.86,0,0,0-2.61,3.8S364.92,273.76,364.93,273.75Z"/><path class="cls-14" d="M364,276.71v-4.35a3.16,3.16,0,0,1,1.51-2.39l4.35-2.51c.83-.48,1.52-.2,1.52.64v4.34a3.17,3.17,0,0,1-1.52,2.4l-4.35,2.51C364.72,277.83,364,277.54,364,276.71Zm1.51-6.44a2.53,2.53,0,0,0-1.21,1.92v4.34c0,.67.54.9,1.21.51l4.35-2.5a2.53,2.53,0,0,0,1.21-1.92v-4.34c0-.67-.54-.9-1.21-.52Z"/><path class="cls-14" d="M358,276.94c0,.67.47,1,1.05.68v2.15l-.74.43v.28l1.67-1v-.28l-.74.43v-2.14a2.56,2.56,0,0,0,1.05-1.91V274L358,275.35Z"/><path class="cls-14" d="M355.48,281.64V277.3a3.19,3.19,0,0,1,1.52-2.4l4.35-2.5c.83-.49,1.52-.2,1.52.64v4.34a3.19,3.19,0,0,1-1.52,2.4l-4.35,2.5C356.17,282.77,355.48,282.48,355.48,281.64Zm1.52-6.43a2.5,2.5,0,0,0-1.21,1.91v4.35c0,.67.54.9,1.21.51l4.35-2.51a2.5,2.5,0,0,0,1.21-1.91v-4.35c0-.66-.54-.89-1.21-.51Z"/><polygon class="cls-15" points="311.88 253.43 340.2 269.89 381.56 246.01 353.24 229.56 311.88 253.43"/></g><polygon class="cls-16" points="364.25 235.96 370.11 239.37 328.76 263.24 322.9 259.84 364.25 235.96"/><polygon class="cls-17" points="328.75 263.24 322.9 259.84 322.9 265.75 328.75 269.13 328.75 263.24"/><g class="cls-1"><polygon class="cls-12" points="264.94 281.24 265.01 306 293.32 322.45 293.25 297.69 264.94 281.24"/><polygon class="cls-13" points="293.25 297.69 293.32 322.45 334.68 298.58 334.61 273.82 293.25 297.69"/><polygon class="cls-14" points="331.54 296.07 331.54 296.65 327.12 299.21 327.12 298.63 331.54 296.07"/><polygon class="cls-14" points="330.69 296.23 330.19 296.52 330.19 293.4 329.69 293.69 330.44 291.97 331.19 292.83 330.69 293.12 330.69 296.23"/><polygon class="cls-14" points="328.47 297.51 327.97 297.8 327.97 294.69 327.48 294.97 328.22 293.25 328.96 294.11 328.47 294.4 328.47 297.51"/><path class="cls-14" d="M325.64,299.57v-4.34a3.16,3.16,0,0,1,1.52-2.4l4.34-2.5c.84-.49,1.52-.2,1.52.64v4.34a3.16,3.16,0,0,1-1.52,2.4l-4.34,2.51C326.32,300.7,325.64,300.41,325.64,299.57Zm1.52-6.43a2.52,2.52,0,0,0-1.22,1.91v4.35c0,.67.55.9,1.22.51l4.34-2.51a2.51,2.51,0,0,0,1.22-1.91v-4.35c0-.66-.55-.89-1.22-.51Z"/><path class="cls-14" d="M318,301.56a.05.05,0,0,0,0,0c0-.1.37-.41.91-.72s.9-.42.9-.33,0,0,0,0l0,0c0-.09.31-.36.76-.64v2.68c.05.29.31.34.63.15a1.29,1.29,0,0,0,.64-1c0-.08-.06-.11-.14-.07a.3.3,0,0,0-.14.24.69.69,0,0,1-.36.51c-.38.22-.34-.24-.34-.24v-2.45c.45-.25.76-.33.76-.24s0,0,0,0l0,0c0-.1.38-.41.91-.72s.91-.42.91-.33,0,0,0,0,0,0,0,0c-.05-1.07-1.2-1.5-2.61-.79h0c0-.07-.1-.08-.21,0a.37.37,0,0,0-.21.25h0a5.88,5.88,0,0,0-2.61,3.81S318,301.57,318,301.56Z"/><path class="cls-14" d="M317.09,304.51v-4.34a3.15,3.15,0,0,1,1.52-2.4l4.34-2.51c.84-.48,1.52-.19,1.52.65v4.34a3.13,3.13,0,0,1-1.52,2.39l-4.34,2.51C317.77,305.64,317.09,305.35,317.09,304.51Zm1.52-6.43a2.51,2.51,0,0,0-1.22,1.91v4.34c0,.67.55.9,1.22.52l4.34-2.51a2.53,2.53,0,0,0,1.21-1.92v-4.34c0-.67-.54-.9-1.21-.51Z"/><path class="cls-14" d="M311.08,304.74c0,.68.48,1,1.06.69v2.14l-.75.43v.28l1.68-1V307l-.75.43v-2.14a2.6,2.6,0,0,0,1.06-1.91v-1.58l-2.3,1.33Z"/><path class="cls-14" d="M308.54,309.45V305.1a3.15,3.15,0,0,1,1.52-2.39l4.34-2.51c.84-.48,1.52-.2,1.52.64v4.35a3.15,3.15,0,0,1-1.52,2.39l-4.34,2.51C309.22,310.57,308.54,310.28,308.54,309.45Zm1.52-6.44a2.54,2.54,0,0,0-1.22,1.92v4.34c0,.67.55.9,1.22.51l4.34-2.5a2.53,2.53,0,0,0,1.21-1.92V301c0-.67-.54-.9-1.21-.51Z"/><polygon class="cls-15" points="264.94 281.24 293.25 297.69 334.61 273.82 306.29 257.36 264.94 281.24"/></g><polygon class="cls-16" points="317.31 263.76 323.17 267.17 281.81 291.05 275.95 287.64 317.31 263.76"/><polygon class="cls-17" points="281.8 291.05 275.95 287.64 275.95 293.56 281.8 296.93 281.8 291.05"/><g class="cls-1"><polygon class="cls-12" points="239.61 298.84 240.04 326.65 261.88 338.94 261.44 311.13 239.61 298.84"/><polygon class="cls-13" points="261.44 311.13 261.88 338.94 283.84 325.84 283.4 298.04 261.44 311.13"/><polygon class="cls-14" points="281.65 325.11 281.65 325.58 278.07 327.64 278.07 327.18 281.65 325.11"/><polygon class="cls-14" points="280.96 325.24 280.55 325.47 280.55 322.95 280.15 323.18 280.76 321.79 281.36 322.48 280.96 322.71 280.96 325.24"/><polygon class="cls-14" points="279.16 326.27 278.76 326.51 278.76 323.99 278.36 324.22 278.96 322.82 279.56 323.52 279.16 323.75 279.16 326.27"/><path class="cls-14" d="M276.87,327.94v-3.51a2.54,2.54,0,0,1,1.23-1.94l3.51-2c.68-.39,1.23-.16,1.23.52v3.51a2.54,2.54,0,0,1-1.23,1.94l-3.51,2C277.42,328.85,276.87,328.62,276.87,327.94Zm1.23-5.21a2.06,2.06,0,0,0-1,1.55v3.52c0,.54.44.73,1,.41l3.51-2a2,2,0,0,0,1-1.55v-3.51c0-.54-.44-.73-1-.42Z"/><path class="cls-14" d="M270.68,329.55l0,0a1.9,1.9,0,0,1,.73-.59c.43-.25.73-.34.73-.26h0s0,0,0,0,.25-.29.62-.52v2.17c.05.24.26.27.52.12a1.07,1.07,0,0,0,.52-.8c0-.07-.06-.09-.12-.05a.25.25,0,0,0-.12.19.59.59,0,0,1-.28.41c-.31.18-.28-.2-.28-.2v-2c.37-.2.61-.26.61-.19h0s0,0,0,0a1.9,1.9,0,0,1,.73-.59c.44-.25.74-.34.74-.26h0l0,0c0-.88-1-1.22-2.12-.64h0c0-.07-.07-.07-.16,0a.32.32,0,0,0-.17.21h0a4.74,4.74,0,0,0-2.11,3.08Z"/><path class="cls-14" d="M270,331.94v-3.52a2.54,2.54,0,0,1,1.23-1.94l3.51-2c.68-.39,1.23-.16,1.23.52v3.52a2.56,2.56,0,0,1-1.23,1.94l-3.51,2C270.5,332.85,270,332.61,270,331.94Zm1.23-5.21a2,2,0,0,0-1,1.55v3.51c0,.55.44.73,1,.42l3.51-2a2,2,0,0,0,1-1.55v-3.52c0-.54-.44-.72-1-.41Z"/><path class="cls-14" d="M265.09,332.12c0,.55.38.79.85.56v1.73l-.6.35V335l1.36-.79V334l-.61.35v-1.74a2.11,2.11,0,0,0,.86-1.54v-1.28l-1.86,1.07Z"/><path class="cls-14" d="M263,335.93v-3.51a2.54,2.54,0,0,1,1.23-1.94l3.51-2c.68-.39,1.23-.16,1.23.52v3.51a2.54,2.54,0,0,1-1.23,1.94l-3.51,2C263.58,336.84,263,336.61,263,335.93Zm1.23-5.21a2.06,2.06,0,0,0-1,1.55v3.52c0,.54.44.73,1,.41l3.51-2a2,2,0,0,0,1-1.54v-3.52c0-.54-.44-.73-1-.42Z"/><polygon class="cls-15" points="239.61 298.84 261.44 311.13 283.4 298.04 261.57 285.74 239.61 298.84"/></g><polygon class="cls-16" points="270.06 290.52 274.58 293.07 252.62 306.17 248.1 303.62 270.06 290.52"/><polygon class="cls-17" points="252.61 306.17 248.1 303.62 248.17 308.15 252.68 310.67 252.61 306.17"/><g class="cls-1"><polygon class="cls-12" points="212.39 314.75 212.82 342.56 234.66 354.86 234.23 327.05 212.39 314.75"/><polygon class="cls-13" points="234.23 327.05 234.66 354.86 256.62 341.76 256.19 313.95 234.23 327.05"/><polygon class="cls-14" points="254.43 341.02 254.43 341.5 250.85 343.56 250.85 343.09 254.43 341.02"/><polygon class="cls-14" points="253.74 341.15 253.34 341.39 253.34 338.87 252.94 339.1 253.54 337.7 254.14 338.4 253.74 338.63 253.74 341.15"/><polygon class="cls-14" points="251.94 342.19 251.54 342.42 251.54 339.9 251.14 340.13 251.74 338.74 252.34 339.44 251.94 339.67 251.94 342.19"/><path class="cls-14" d="M249.65,343.86v-3.52a2.54,2.54,0,0,1,1.23-1.94l3.52-2c.68-.39,1.23-.15,1.23.52v3.52a2.54,2.54,0,0,1-1.23,1.94l-3.52,2C250.2,344.77,249.65,344.54,249.65,343.86Zm1.23-5.21a2,2,0,0,0-1,1.55v3.51c0,.55.44.73,1,.42l3.52-2a2,2,0,0,0,1-1.55V337c0-.55-.44-.73-1-.42Z"/><path class="cls-14" d="M243.46,345.46s0,0,0,0a2,2,0,0,1,.73-.58c.43-.25.74-.34.74-.26s0,0,0,0,0,0,0,0,.25-.29.62-.51v2.17c0,.23.25.27.51.12a1.07,1.07,0,0,0,.52-.8c0-.07,0-.1-.12-.06a.25.25,0,0,0-.11.19.57.57,0,0,1-.29.42c-.31.18-.28-.2-.28-.2v-2c.37-.2.61-.27.61-.2s0,0,0,0,0,0,0,0a2,2,0,0,1,.74-.58c.43-.25.73-.34.73-.26h0s0,0,0,0c0-.87-1-1.21-2.11-.64h0c0-.06-.08-.06-.17,0s-.17.14-.17.21h0a4.72,4.72,0,0,0-2.11,3.08S243.45,345.47,243.46,345.46Z"/><path class="cls-14" d="M242.73,347.85v-3.51A2.54,2.54,0,0,1,244,342.4l3.52-2c.67-.39,1.23-.16,1.23.52v3.51a2.57,2.57,0,0,1-1.23,1.94l-3.52,2C243.28,348.76,242.73,348.53,242.73,347.85Zm1.23-5.2a2,2,0,0,0-1,1.55v3.51c0,.54.44.73,1,.42l3.52-2a2.06,2.06,0,0,0,1-1.55V341c0-.54-.44-.73-1-.41Z"/><path class="cls-14" d="M237.87,348c0,.55.38.78.85.55v1.74l-.6.35v.22l1.36-.78v-.23l-.61.35v-1.73a2.13,2.13,0,0,0,.86-1.54v-1.29l-1.86,1.08Z"/><path class="cls-14" d="M235.81,351.85v-3.52a2.58,2.58,0,0,1,1.23-1.94l3.52-2c.67-.39,1.23-.15,1.23.52v3.52a2.57,2.57,0,0,1-1.23,1.94l-3.52,2C236.36,352.76,235.81,352.53,235.81,351.85Zm1.23-5.21a2,2,0,0,0-1,1.55v3.52c0,.54.44.72,1,.41l3.52-2a2,2,0,0,0,1-1.55V345c0-.54-.44-.73-1-.42Z"/><polygon class="cls-15" points="212.39 314.75 234.23 327.05 256.19 313.95 234.35 301.66 212.39 314.75"/></g><polygon class="cls-16" points="242.85 306.44 247.37 308.99 225.41 322.08 220.89 319.54 242.85 306.44"/><polygon class="cls-17" points="225.4 322.08 220.89 319.54 220.95 324.06 225.46 326.58 225.4 322.08"/><g class="cls-1"><polygon class="cls-12" points="318.01 118.09 318.35 139.92 335.49 149.56 335.15 127.74 318.01 118.09"/><polygon class="cls-13" points="335.15 127.74 335.49 149.56 352.72 139.29 352.38 117.46 335.15 127.74"/><polygon class="cls-15" points="318.01 118.09 335.15 127.74 352.38 117.46 335.25 107.81 318.01 118.09"/></g><polygon class="cls-16" points="341.92 111.57 345.46 113.56 328.23 123.84 324.68 121.85 341.92 111.57"/><polygon class="cls-17" points="328.22 123.84 324.68 121.85 324.73 125.4 328.27 127.38 328.22 123.84"/><g class="cls-1"><polygon class="cls-12" points="269.44 120.88 269.78 142.7 286.91 152.35 286.57 130.53 269.44 120.88"/><polygon class="cls-13" points="286.57 130.53 286.91 152.35 304.15 142.07 303.81 120.25 286.57 130.53"/><polygon class="cls-15" points="269.44 120.88 286.57 130.53 303.81 120.25 286.67 110.6 269.44 120.88"/></g><polygon class="cls-16" points="293.34 114.36 296.88 116.35 279.65 126.63 276.11 124.63 293.34 114.36"/><polygon class="cls-17" points="279.64 126.63 276.11 124.63 276.15 128.18 279.69 130.16 279.64 126.63"/><g class="cls-1"><polygon class="cls-12" points="212.97 158.61 213.04 183.37 241.35 199.83 241.28 175.07 212.97 158.61"/><polygon class="cls-13" points="241.28 175.07 241.35 199.83 282.71 175.95 282.64 151.19 241.28 175.07"/><polygon class="cls-14" points="279.57 173.44 279.57 174.03 275.15 176.58 275.15 176 279.57 173.44"/><polygon class="cls-14" points="278.72 173.6 278.22 173.89 278.22 170.78 277.72 171.06 278.47 169.34 279.21 170.2 278.72 170.49 278.72 173.6"/><polygon class="cls-14" points="276.5 174.88 276 175.17 276 172.06 275.5 172.34 276.25 170.62 277 171.48 276.5 171.77 276.5 174.88"/><path class="cls-14" d="M273.67,176.94V172.6a3.13,3.13,0,0,1,1.52-2.39l4.34-2.51c.84-.49,1.52-.2,1.52.64v4.34a3.15,3.15,0,0,1-1.52,2.4l-4.34,2.51C274.35,178.07,273.67,177.78,273.67,176.94Zm1.52-6.43a2.54,2.54,0,0,0-1.22,1.92v4.34c0,.67.55.9,1.22.51l4.34-2.51a2.51,2.51,0,0,0,1.22-1.91v-4.34c0-.67-.55-.9-1.22-.52Z"/><path class="cls-14" d="M266,178.93a.08.08,0,0,0,0,0,2.44,2.44,0,0,1,.91-.72c.53-.31.9-.42.9-.33s0,0,0,0,0,0,0,0,.31-.36.76-.64v2.68c.05.29.31.34.63.15a1.28,1.28,0,0,0,.64-1c0-.08-.06-.11-.14-.07a.3.3,0,0,0-.14.24.69.69,0,0,1-.36.51c-.38.22-.34-.24-.34-.24V177c.45-.25.76-.33.76-.24h0a.08.08,0,0,0,0,0,2.54,2.54,0,0,1,.91-.72c.54-.31.91-.42.91-.33s0,0,0,0,0,0,0,0c0-1.08-1.2-1.51-2.61-.8h0c0-.07-.1-.08-.21,0s-.21.18-.21.25h0a5.88,5.88,0,0,0-2.61,3.81S266,178.94,266,178.93Z"/><path class="cls-14" d="M265.12,181.88v-4.34a3.16,3.16,0,0,1,1.52-2.4l4.34-2.51c.84-.48,1.52-.19,1.52.65v4.34A3.16,3.16,0,0,1,271,180l-4.34,2.5C265.8,183,265.12,182.72,265.12,181.88Zm1.52-6.43a2.51,2.51,0,0,0-1.22,1.91v4.34c0,.67.55.9,1.22.52l4.34-2.51a2.53,2.53,0,0,0,1.21-1.91v-4.35c0-.67-.54-.9-1.21-.51Z"/><path class="cls-14" d="M259.11,182.11c0,.68.48,1,1.06.69v2.14l-.75.43v.28l1.68-1v-.28l-.75.43v-2.14a2.6,2.6,0,0,0,1.06-1.9V179.2l-2.3,1.33Z"/><path class="cls-14" d="M256.57,186.82v-4.34a3.15,3.15,0,0,1,1.52-2.4l4.34-2.51c.84-.48,1.52-.19,1.52.64v4.35a3.15,3.15,0,0,1-1.52,2.39l-4.34,2.51C257.25,187.94,256.57,187.66,256.57,186.82Zm1.52-6.44a2.54,2.54,0,0,0-1.22,1.92v4.34c0,.67.55.9,1.22.51l4.34-2.5a2.53,2.53,0,0,0,1.21-1.92v-4.34c0-.67-.54-.9-1.21-.51Z"/><polygon class="cls-15" points="212.97 158.61 241.28 175.07 282.64 151.19 254.32 134.73 212.97 158.61"/></g><polygon class="cls-16" points="265.34 141.14 271.2 144.54 229.84 168.42 223.99 165.01 265.34 141.14"/><polygon class="cls-17" points="229.83 168.42 223.99 165.01 223.99 170.93 229.83 174.3 229.83 168.42"/><g class="cls-1"><polygon class="cls-12" points="291.34 132.94 291.68 154.76 308.81 164.41 308.47 142.59 291.34 132.94"/><polygon class="cls-13" points="308.47 142.59 308.81 164.41 326.05 154.13 325.71 132.31 308.47 142.59"/><polygon class="cls-15" points="291.34 132.94 308.47 142.59 325.71 132.31 308.57 122.66 291.34 132.94"/></g><polygon class="cls-16" points="315.24 126.41 318.79 128.41 301.55 138.69 298 136.69 315.24 126.41"/><polygon class="cls-17" points="301.54 138.69 298 136.69 298.05 140.24 301.59 142.22 301.54 138.69"/><g class="cls-1"><polygon class="cls-2" points="208.53 170.26 209.98 169.41 194.17 178.43 192.72 179.28 208.53 170.26"/><polygon class="cls-3" points="210.73 174.07 212.19 173.23 209.98 169.41 208.53 170.26 210.73 174.07"/><polygon class="cls-4" points="208.53 170.26 192.72 179.28 194.91 183.09 210.73 174.07 208.53 170.26"/><polygon class="cls-3" points="228.66 200.03 230.12 199.19 214.4 171.97 212.95 172.81 228.66 200.03"/><polygon class="cls-3" points="212.95 172.81 214.4 171.97 212.2 168.15 210.74 169 212.95 172.81"/><polygon class="cls-3" points="210.74 169 212.2 168.15 196.48 140.92 195.03 141.77 210.74 169"/><polygon class="cls-4" points="195.03 141.77 192.82 143.04 208.53 170.26 210.73 174.07 226.44 201.3 228.66 200.03 212.95 172.81 210.74 169 195.03 141.77"/><polygon class="cls-2" points="195.03 141.77 196.48 140.92 194.27 142.2 192.82 143.04 195.03 141.77"/><polygon class="cls-4" points="226.56 159.97 210.74 169 212.95 172.81 228.77 163.8 226.56 159.97"/><polygon class="cls-3" points="228.77 163.8 230.22 162.95 228.01 159.13 226.56 159.97 228.77 163.8"/><polygon class="cls-2" points="226.56 159.97 228.01 159.13 212.2 168.15 210.74 169 226.56 159.97"/></g><g class="cls-1"><polygon class="cls-2" points="208.53 241.17 209.98 240.33 194.17 249.35 192.72 250.19 208.53 241.17"/><polygon class="cls-3" points="210.73 244.99 212.19 244.14 209.98 240.33 208.53 241.17 210.73 244.99"/><polygon class="cls-4" points="208.53 241.17 192.72 250.19 194.91 254.01 210.73 244.99 208.53 241.17"/><polygon class="cls-3" points="228.66 270.95 230.12 270.1 214.4 242.88 212.95 243.73 228.66 270.95"/><polygon class="cls-3" points="212.95 243.73 214.4 242.88 212.2 239.06 210.74 239.91 212.95 243.73"/><polygon class="cls-3" points="210.74 239.91 212.2 239.06 196.48 211.84 195.03 212.68 210.74 239.91"/><polygon class="cls-4" points="195.03 212.68 192.82 213.96 208.53 241.17 210.73 244.99 226.44 272.21 228.66 270.95 212.95 243.73 210.74 239.91 195.03 212.68"/><polygon class="cls-2" points="195.03 212.68 196.48 211.84 194.27 213.11 192.82 213.96 195.03 212.68"/><polygon class="cls-4" points="226.56 230.89 210.74 239.91 212.95 243.73 228.77 234.71 226.56 230.89"/><polygon class="cls-3" points="228.77 234.71 230.22 233.87 228.01 230.04 226.56 230.89 228.77 234.71"/><polygon class="cls-2" points="226.56 230.89 228.01 230.04 212.2 239.06 210.74 239.91 226.56 230.89"/></g><g class="cls-1"><polygon class="cls-2" points="208.53 312.09 209.98 311.24 194.17 320.26 192.72 321.11 208.53 312.09"/><polygon class="cls-3" points="210.73 315.9 212.19 315.06 209.98 311.24 208.53 312.09 210.73 315.9"/><polygon class="cls-4" points="208.53 312.09 192.72 321.11 194.91 324.92 210.73 315.9 208.53 312.09"/><polygon class="cls-3" points="228.66 341.86 230.12 341.01 214.4 313.8 212.95 314.64 228.66 341.86"/><polygon class="cls-3" points="212.95 314.64 214.4 313.8 212.2 309.98 210.74 310.82 212.95 314.64"/><polygon class="cls-3" points="210.74 310.82 212.2 309.98 196.48 282.75 195.03 283.6 210.74 310.82"/><polygon class="cls-4" points="195.03 283.6 192.82 284.87 208.53 312.09 210.73 315.9 226.44 343.13 228.66 341.86 212.95 314.64 210.74 310.82 195.03 283.6"/><polygon class="cls-2" points="195.03 283.6 196.48 282.75 194.27 284.03 192.82 284.87 195.03 283.6"/><polygon class="cls-4" points="226.56 301.8 210.74 310.82 212.95 314.64 228.77 305.63 226.56 301.8"/><polygon class="cls-3" points="228.77 305.63 230.22 304.78 228.01 300.96 226.56 301.8 228.77 305.63"/><polygon class="cls-2" points="226.56 301.8 228.01 300.96 212.2 309.98 210.74 310.82 226.56 301.8"/></g><g class="cls-1"><polygon class="cls-2" points="208.53 380.04 209.98 379.19 194.17 388.21 192.72 389.06 208.53 380.04"/><polygon class="cls-3" points="210.73 383.86 212.19 383.01 209.98 379.19 208.53 380.04 210.73 383.86"/><polygon class="cls-4" points="208.53 380.04 192.72 389.06 194.91 392.87 210.73 383.86 208.53 380.04"/><polygon class="cls-3" points="228.66 409.81 230.12 408.97 214.4 381.75 212.95 382.59 228.66 409.81"/><polygon class="cls-3" points="212.95 382.59 214.4 381.75 212.2 377.93 210.74 378.78 212.95 382.59"/><polygon class="cls-3" points="210.74 378.78 212.2 377.93 196.48 350.7 195.03 351.55 210.74 378.78"/><polygon class="cls-4" points="195.03 351.55 192.82 352.82 208.53 380.04 210.73 383.86 226.44 411.08 228.66 409.81 212.95 382.59 210.74 378.78 195.03 351.55"/><polygon class="cls-2" points="195.03 351.55 196.48 350.7 194.27 351.98 192.82 352.82 195.03 351.55"/><polygon class="cls-4" points="226.56 369.76 210.74 378.78 212.95 382.59 228.77 373.58 226.56 369.76"/><polygon class="cls-3" points="228.77 373.58 230.22 372.73 228.01 368.91 226.56 369.76 228.77 373.58"/><polygon class="cls-2" points="226.56 369.76 228.01 368.91 212.2 377.93 210.74 378.78 226.56 369.76"/></g><g class="cls-1"><polygon class="cls-5" points="192.04 394.47 195.97 392.19 196.16 135.16 192.23 137.44 192.04 394.47"/><polygon class="cls-6" points="192.23 137.44 196.16 135.16 192.35 132.96 188.43 135.25 192.23 137.44"/><polygon class="cls-7" points="188.43 135.25 188.23 392.27 192.04 394.47 192.23 137.44 188.43 135.25"/></g><g class="cls-1"><polygon class="cls-5" points="230.38 416.05 234.31 413.77 234.5 156.75 230.58 159.03 230.38 416.05"/><polygon class="cls-6" points="230.58 159.03 234.5 156.75 230.7 154.55 226.77 156.83 230.58 159.03"/><polygon class="cls-7" points="226.77 156.83 226.58 413.86 230.38 416.05 230.58 159.03 226.77 156.83"/></g></svg>