<svg xmlns="http://www.w3.org/2000/svg" viewBox="0 0 638.72 419"><defs><style>.cls-1{isolation:isolate;}.cls-2{fill:#afbbd8;}.cls-3{fill:#9eaac8;}.cls-4{fill:#ccd8f5;}.cls-5{fill:#bd4417;}.cls-6{fill:#acbad9;}.cls-7{fill:#1c2024;}.cls-8{fill:#1d2a36;}.cls-9{fill:#ccc;}.cls-10{fill:#a6a6a6;}.cls-11{fill:#414141;}.cls-12{fill:gray;}.cls-13{fill:#1a1c1f;}.cls-14{fill:#eff3fc;}.cls-15{fill:#c0c2c1;}.cls-16{fill:#a3360e;}.cls-17{fill:#c5975b;}.cls-18{fill:#daaf6a;}.cls-19{fill:#efd996;}.cls-20{fill:#f7ecea;}.cls-21,.cls-30{fill:#c2ab9d;}.cls-22{fill:#5c4123;}.cls-23{fill:#bb884f;}.cls-24{fill:#e0b477;}.cls-25{fill:#efcd90;}.cls-26,.cls-28{opacity:0.5;}.cls-26,.cls-28,.cls-29,.cls-30,.cls-34{mix-blend-mode:multiply;}.cls-27,.cls-28{fill:#e4cdbf;}.cls-29,.cls-30{opacity:0.6;}.cls-31,.cls-32{fill:#ff8c00;}.cls-32,.cls-34{opacity:0.1;}.cls-32{mix-blend-mode:screen;}.cls-33,.cls-34{fill:#de6000;}.cls-35{fill:#8f9cbb;}.cls-36{fill:#d63a3b;}.cls-37{fill:#b32b2b;}.cls-38{fill:#872220;}.cls-39{fill:#2d3c4e;}.cls-40{fill:#29313b;}.cls-41{fill:#c55907;}.cls-42{fill:#10171e;}.cls-43{fill:#ffc64a;}.cls-44{fill:#ffa200;}.cls-45{fill:#27272e;}.cls-46{fill:#1a1a1f;}.cls-47{fill:#42424d;}</style></defs><title>Inventory</title><g class="cls-1"><g id="Layer_1" data-name="Layer 1"><polygon class="cls-2" points="231.21 345.9 111.2 275.87 111.2 255.94 231.21 325.91 231.21 345.9"/><polygon class="cls-3" points="231.21 325.91 243.31 318.75 243.31 338.74 231.21 345.9 231.21 325.91"/><polygon class="cls-4" points="120.94 255.93 231.21 320.1 238.44 315.82 243.31 318.75 231.21 325.91 116.07 258.86 120.94 255.93"/><polygon class="cls-2" points="231.21 345.9 111.2 275.87 111.2 255.94 231.21 325.91 231.21 345.9"/><polygon class="cls-3" points="231.21 325.91 243.31 318.75 243.31 338.74 231.21 345.9 231.21 325.91"/><polygon class="cls-4" points="120.94 255.93 231.21 320.1 238.44 315.82 243.31 318.75 231.21 325.91 116.07 258.86 120.94 255.93"/><polygon class="cls-5" points="297.89 263.28 278.19 251.63 278.19 284.18 297.89 295.83 297.89 263.28"/><polygon class="cls-6" points="495.61 149.87 475.9 138.22 475.9 170.76 495.61 182.41 495.61 149.87"/><g class="cls-1"><path class="cls-7" d="M475.17,165.47c-3.3-1.92-7.75-1.87-12.69.53q-.8.39-1.62.87c-7.18,4.14-13.47,12.1-17,20.66a37.06,37.06,0,0,0-3,14.07c0,6.34,2.26,10.8,5.87,12.9l13.62,7.92c-3.61-2.1-5.85-6.56-5.87-12.9a37.23,37.23,0,0,1,3.05-14.07c3.54-8.56,9.82-16.52,17-20.66.54-.32,1.08-.6,1.62-.86,4.94-2.41,9.39-2.46,12.69-.55Z"/><path class="cls-8" d="M474.49,174.79c11.11-6.42,20.14-1.27,20.18,11.5S485.73,214.6,474.62,221s-20.15,1.26-20.19-11.5S463.38,181.2,474.49,174.79Z"/></g><path class="cls-9" d="M488.44,189.87c0,8.84-6.17,19.54-13.83,24-4.4,2.52-8.32,2.48-10.89.28-1.92-1.64-3-4.44-3-8.23-.05-8.78,6.17-19.53,13.83-23.93,3.18-1.82,6.08-2.29,8.42-1.54C486.29,181.37,488.39,184.73,488.44,189.87Z"/><path class="cls-10" d="M486,188.66c0,8.78-6.17,19.53-13.84,24-3.17,1.83-6.12,2.29-8.45,1.5-1.92-1.64-3-4.44-3-8.23-.05-8.78,6.17-19.53,13.83-23.93,3.18-1.82,6.08-2.29,8.42-1.54C484.84,182.07,486,184.87,486,188.66Z"/><path class="cls-9" d="M474.52,184.25a4.09,4.09,0,0,1-1.86,3.22c-1,.6-1.86.12-1.86-1.07a4.11,4.11,0,0,1,1.86-3.22C473.69,182.59,474.52,183.07,474.52,184.25Z"/><path class="cls-9" d="M469.28,187.63c.51.73.21,2.22-.68,3.33s-2,1.41-2.54.68-.21-2.22.68-3.33S468.77,186.9,469.28,187.63Z"/><path class="cls-9" d="M464.89,193.49c.89.08,1.2,1.21.69,2.54s-1.66,2.33-2.55,2.25-1.19-1.21-.68-2.54S464,193.41,464.89,193.49Z"/><path class="cls-9" d="M462.54,200.26c1-.59,1.86-.11,1.86,1.08a4.11,4.11,0,0,1-1.86,3.22c-1,.59-1.86.11-1.86-1.08A4.12,4.12,0,0,1,462.54,200.26Z"/><path class="cls-9" d="M462.85,206.14c.89-1.11,2-1.41,2.53-.68s.21,2.21-.68,3.32-2,1.42-2.53.68S462,207.25,462.85,206.14Z"/><path class="cls-9" d="M465.73,209.54c.51-1.33,1.65-2.34,2.54-2.26s1.19,1.22.68,2.54-1.66,2.34-2.54,2.26S465.21,210.86,465.73,209.54Z"/><path class="cls-9" d="M470.41,209.55a4.1,4.1,0,0,1,1.87-3.22c1-.6,1.86-.12,1.86,1.07a4.14,4.14,0,0,1-1.86,3.22C471.25,211.22,470.41,210.73,470.41,209.55Z"/><path class="cls-9" d="M475.65,206.17c-.51-.73-.2-2.22.69-3.32s2-1.42,2.53-.68.22,2.22-.67,3.32S476.17,206.9,475.65,206.17Z"/><path class="cls-9" d="M480,200.31c-.88-.08-1.19-1.21-.67-2.53s1.65-2.34,2.54-2.26,1.19,1.22.68,2.54S480.92,200.39,480,200.31Z"/><path class="cls-9" d="M482.39,193.54c-1,.59-1.86.11-1.86-1.07a4.12,4.12,0,0,1,1.86-3.22c1-.6,1.86-.12,1.86,1.07A4.11,4.11,0,0,1,482.39,193.54Z"/><path class="cls-9" d="M482.1,187.66c-.9,1.11-2,1.42-2.55.69s-.2-2.22.69-3.33,2-1.41,2.53-.68S483,186.56,482.1,187.66Z"/><path class="cls-9" d="M479.21,184.27c-.51,1.32-1.65,2.33-2.54,2.25s-1.2-1.22-.68-2.54,1.65-2.33,2.54-2.25S479.72,182.94,479.21,184.27Z"/><g class="cls-1"><path class="cls-11" d="M475.79,189a3.84,3.84,0,0,0-3.66.16c-.16.07-.31.16-.47.25a12.57,12.57,0,0,0-4.92,6,10.81,10.81,0,0,0-.88,4.06c0,1.84.65,3.13,1.7,3.73l2,1.15c-1-.61-1.69-1.9-1.7-3.73a10.86,10.86,0,0,1,.88-4.07,12.57,12.57,0,0,1,4.92-6c.15-.09.31-.17.47-.25a3.83,3.83,0,0,1,3.66-.15Z"/><path class="cls-12" d="M473.63,190.58c3.21-1.85,5.82-.36,5.83,3.33a12.77,12.77,0,0,1-5.79,10c-3.22,1.86-5.83.37-5.84-3.32A12.78,12.78,0,0,1,473.63,190.58Z"/></g><path class="cls-13" d="M474.49,174.79c-11.11,6.41-20.09,22-20.06,34.73s9.08,17.91,20.19,11.5,20.08-22,20.05-34.73S485.6,168.37,474.49,174.79Zm-2.32,37.84c-3.17,1.83-6.12,2.29-8.45,1.5-1.92-1.64-3-4.44-3-8.23-.05-8.78,6.17-19.53,13.83-23.93,3.18-1.82,6.08-2.29,8.42-1.54,1.91,1.64,3,4.44,3.08,8.23C486,197.44,479.84,208.19,472.17,212.63Z"/><g class="cls-1"><path class="cls-7" d="M276.83,277.17c-3.3-1.92-7.75-1.86-12.69.54-.53.26-1.07.55-1.62.86-7.18,4.15-13.47,12.11-17,20.67a37,37,0,0,0-3,14.06c0,6.35,2.26,10.81,5.87,12.91L262,334.12c-3.61-2.1-5.85-6.56-5.87-12.9a37.27,37.27,0,0,1,3.05-14.07c3.54-8.55,9.82-16.52,17-20.66.54-.31,1.08-.6,1.62-.86,4.94-2.4,9.39-2.46,12.69-.54Z"/><path class="cls-8" d="M276.15,286.49c11.11-6.41,20.14-1.26,20.18,11.5s-8.94,28.32-20.05,34.73-20.15,1.27-20.19-11.5S265,292.9,276.15,286.49Z"/></g><path class="cls-9" d="M290.1,301.58c0,8.83-6.17,19.53-13.83,24-4.4,2.52-8.32,2.47-10.89.27-1.92-1.63-3-4.43-3-8.22,0-8.79,6.17-19.54,13.83-23.93,3.18-1.82,6.08-2.29,8.42-1.54C288,293.07,290.05,296.44,290.1,301.58Z"/><path class="cls-10" d="M287.67,300.36c0,8.79-6.17,19.54-13.83,24-3.18,1.82-6.12,2.29-8.46,1.49-1.92-1.63-3-4.43-3-8.22,0-8.79,6.17-19.54,13.83-23.93,3.18-1.82,6.08-2.29,8.42-1.54C286.5,293.77,287.63,296.58,287.67,300.36Z"/><path class="cls-9" d="M276.18,296a4.08,4.08,0,0,1-1.85,3.22c-1,.59-1.87.11-1.87-1.07a4.07,4.07,0,0,1,1.87-3.22C275.35,294.29,276.18,294.77,276.18,296Z"/><path class="cls-9" d="M270.94,299.34c.51.73.21,2.22-.68,3.32s-2,1.41-2.53.68-.21-2.21.67-3.32S270.43,298.6,270.94,299.34Z"/><path class="cls-9" d="M266.56,305.2c.89.07,1.19,1.21.68,2.53s-1.66,2.34-2.55,2.26-1.19-1.22-.68-2.54S265.67,305.12,266.56,305.2Z"/><path class="cls-9" d="M264.2,312c1-.59,1.86-.12,1.86,1.07a4.09,4.09,0,0,1-1.86,3.22c-1,.6-1.86.12-1.86-1.07A4.12,4.12,0,0,1,264.2,312Z"/><path class="cls-9" d="M264.51,317.84c.89-1.1,2-1.41,2.54-.68s.2,2.22-.68,3.33-2,1.41-2.54.68S263.62,319,264.51,317.84Z"/><path class="cls-9" d="M267.39,321.24c.51-1.32,1.65-2.33,2.54-2.25s1.19,1.21.68,2.54-1.66,2.33-2.54,2.25S266.87,322.56,267.39,321.24Z"/><path class="cls-9" d="M272.08,321.26a4.12,4.12,0,0,1,1.86-3.23c1-.59,1.86-.11,1.86,1.08a4.13,4.13,0,0,1-1.86,3.22C272.91,322.92,272.08,322.44,272.08,321.26Z"/><path class="cls-9" d="M277.31,317.88c-.51-.73-.2-2.22.69-3.33s2-1.41,2.54-.68.21,2.22-.68,3.33S277.83,318.61,277.31,317.88Z"/><path class="cls-9" d="M281.7,312c-.89-.08-1.2-1.21-.68-2.54s1.65-2.33,2.54-2.25,1.19,1.21.68,2.54S282.59,312.1,281.7,312Z"/><path class="cls-9" d="M284.05,305.25c-1,.59-1.86.11-1.86-1.08a4.15,4.15,0,0,1,1.86-3.22c1-.59,1.86-.11,1.86,1.08A4.12,4.12,0,0,1,284.05,305.25Z"/><path class="cls-9" d="M283.76,299.37c-.9,1.11-2,1.42-2.55.68s-.2-2.22.69-3.32,2-1.41,2.53-.68S284.64,298.27,283.76,299.37Z"/><path class="cls-9" d="M280.88,296c-.52,1.33-1.66,2.34-2.55,2.26s-1.2-1.22-.68-2.54,1.65-2.34,2.54-2.26S281.39,294.65,280.88,296Z"/><g class="cls-1"><path class="cls-11" d="M277.46,300.74a3.85,3.85,0,0,0-3.67.15l-.47.25a12.6,12.6,0,0,0-4.92,6,10.77,10.77,0,0,0-.88,4.06,4.1,4.1,0,0,0,1.7,3.73l2,1.14c-1.05-.6-1.69-1.89-1.7-3.72a10.82,10.82,0,0,1,.88-4.07,12.57,12.57,0,0,1,4.92-6c.16-.09.31-.18.47-.25a3.86,3.86,0,0,1,3.67-.16Z"/><path class="cls-12" d="M275.29,302.29c3.21-1.86,5.82-.37,5.83,3.32a12.78,12.78,0,0,1-5.79,10c-3.21,1.85-5.83.36-5.84-3.32A12.76,12.76,0,0,1,275.29,302.29Z"/></g><path class="cls-13" d="M276.15,286.49c-11.11,6.41-20.09,22-20.06,34.73s9.08,17.92,20.19,11.5,20.08-22,20.05-34.73S287.26,280.08,276.15,286.49Zm-2.31,37.85c-3.18,1.82-6.12,2.29-8.46,1.49-1.92-1.63-3-4.43-3-8.22,0-8.79,6.17-19.54,13.83-23.93,3.18-1.82,6.08-2.29,8.42-1.54,1.91,1.63,3,4.44,3.08,8.22C287.67,309.15,281.5,319.9,273.84,324.34Z"/><polygon class="cls-2" points="128.17 254.96 123.3 252.03 111.2 259.19 116.07 262.11 128.17 254.96"/><polygon class="cls-4" points="128.17 251.72 123.3 248.79 111.2 255.94 116.07 258.87 128.17 251.72"/><path class="cls-14" d="M416.54,106.72l65.48-44c0-3.58-99.58-57.56-99.58-57.56-1.81-2-6.2-2-9.77,0L326.54,31.86l-9.25,5.34-3.46,2a14,14,0,0,0-6.45,9.35l108.11,62.29A9.93,9.93,0,0,0,416.54,106.72Z"/><path class="cls-6" d="M307.38,48.55a7.07,7.07,0,0,0-.06.91v126.8l99.56,57.38L410,117a14.36,14.36,0,0,0,5.46-6.12Z"/><path class="cls-15" d="M185.79,303.44l.87.95v.16c-.53-.41-1.08-.8-1.64-1.16v-.73Z"/><path class="cls-5" d="M185,301.75V163.68h1.64V303.41C186.13,302.84,185.58,302.29,185,301.75Z"/><polygon class="cls-16" points="110.2 129.01 110.2 252.88 218.3 190.47 110.2 129.01"/><polygon class="cls-5" points="110.2 252.88 110.2 252.96 224.78 318.33 224.78 194.15 218.3 190.47 110.2 252.88"/><g class="cls-1"><polygon class="cls-17" points="229.41 215.63 229.29 259.23 179.42 288.21 179.55 244.61 229.41 215.63"/><polygon class="cls-18" points="179.55 244.61 179.42 288.21 120.51 253.93 120.63 210.33 179.55 244.61"/><polygon class="cls-19" points="229.41 215.63 179.55 244.61 120.63 210.33 170.5 181.35 229.41 215.63"/></g><polygon class="cls-20" points="151.1 192.62 140.78 198.62 199.69 232.9 210.01 226.91 151.1 192.62"/><polygon class="cls-21" points="199.71 232.9 210.01 226.91 210.01 237.32 199.71 243.27 199.71 232.9"/><polygon class="cls-22" points="224.11 256.71 224.11 257.73 216.32 262.23 216.32 261.21 224.11 256.71"/><polygon class="cls-22" points="222.61 256.99 221.73 257.5 221.73 252.01 220.85 252.52 222.17 249.49 223.48 251 222.61 251.51 222.61 256.99"/><polygon class="cls-22" points="218.7 259.25 217.82 259.75 217.82 254.27 216.95 254.77 218.26 251.74 219.57 253.26 218.7 253.76 218.7 259.25"/><path class="cls-22" d="M213.71,262.87v-7.64a5.54,5.54,0,0,1,2.68-4.22l7.65-4.42c1.47-.85,2.67-.34,2.67,1.13v7.65a5.55,5.55,0,0,1-2.67,4.22L216.39,264C214.91,264.86,213.71,264.35,213.71,262.87Zm2.68-11.32a4.43,4.43,0,0,0-2.14,3.37v7.64c0,1.18,1,1.59,2.14.91l7.65-4.42a4.45,4.45,0,0,0,2.13-3.37V248c0-1.17-1-1.58-2.13-.9Z"/><path class="cls-22" d="M200.24,266.37a.13.13,0,0,0,0-.07,4.11,4.11,0,0,1,1.6-1.27c.94-.55,1.59-.74,1.59-.57s0,0,.05,0a.08.08,0,0,0,0-.06c0-.15.53-.63,1.33-1.12v4.22l0,.5c.09.52.55.59,1.11.27a2.31,2.31,0,0,0,1.14-1.74c0-.16-.12-.21-.26-.13a.54.54,0,0,0-.25.42,1.21,1.21,0,0,1-.63.9c-.67.39-.6-.43-.6-.43V263c.8-.43,1.33-.58,1.33-.43s0,0,.05,0a.08.08,0,0,0,0-.06,4.2,4.2,0,0,1,1.59-1.28c.95-.54,1.6-.74,1.6-.57,0,0,0,0,.05,0a.13.13,0,0,0,0-.07c-.08-1.89-2.12-2.64-4.6-1.39h0c0-.13-.16-.14-.36,0a.69.69,0,0,0-.37.45h0c-2.48,1.61-4.52,4.72-4.6,6.7C200.19,266.37,200.21,266.38,200.24,266.37Z"/><path class="cls-22" d="M198.66,271.57v-7.65a5.57,5.57,0,0,1,2.67-4.22l7.65-4.42c1.47-.85,2.67-.34,2.67,1.14v7.64a5.55,5.55,0,0,1-2.67,4.22l-7.65,4.42C199.86,273.55,198.66,273,198.66,271.57Zm2.67-11.33a4.42,4.42,0,0,0-2.13,3.37v7.65c0,1.18,1,1.58,2.13.9l7.65-4.41a4.47,4.47,0,0,0,2.14-3.38v-7.64c0-1.18-1-1.59-2.14-.91Z"/><path class="cls-22" d="M188.08,272c0,1.19.83,1.71,1.86,1.21V277l-1.32.76v.49l3-1.71V276l-1.32.76V273a4.53,4.53,0,0,0,1.86-3.35v-2.79l-4,2.33Z"/><path class="cls-22" d="M183.6,280.26v-7.65a5.59,5.59,0,0,1,2.67-4.22l7.65-4.41c1.48-.85,2.68-.35,2.68,1.13v7.65a5.57,5.57,0,0,1-2.68,4.22l-7.65,4.41C184.8,282.24,183.6,281.74,183.6,280.26Zm2.67-11.33a4.45,4.45,0,0,0-2.13,3.37V280c0,1.18,1,1.58,2.13.9l7.65-4.41a4.43,4.43,0,0,0,2.14-3.37v-7.65c0-1.18-1-1.58-2.14-.9Z"/><g class="cls-1"><polygon class="cls-23" points="163.51 243.01 147.94 233.96 140.04 229.37 125.25 220.78 125.15 187.31 140.04 195.97 141.03 196.54 163.42 209.55 163.51 243.01"/><polygon class="cls-24" points="219.4 210.75 195.4 224.6 187.45 229.19 163.51 243.01 163.42 209.55 187.45 195.68 195.4 191.09 219.3 177.29 219.4 210.75"/><polygon class="cls-25" points="219.3 177.29 195.4 191.09 187.45 195.68 163.42 209.55 125.15 187.31 149.06 173.51 157 168.92 181.04 155.05 219.3 177.29"/></g><g class="cls-26"><polygon class="cls-27" points="194.34 191.74 186.39 196.32 148 174.16 155.94 169.57 194.34 191.74"/></g><polygon class="cls-28" points="194.34 191.74 194.34 225.25 186.39 229.84 186.39 196.32 194.34 191.74"/><polygon class="cls-20" points="195.4 191.09 187.45 195.68 149.06 173.51 157 168.92 195.4 191.09"/><g class="cls-29"><polygon class="cls-20" points="196.89 164.25 204.81 168.85 148.92 201.12 141 196.52 196.89 164.25"/></g><polygon class="cls-30" points="148.91 201.12 148.91 234.51 141 229.92 141 196.52 141.99 197.09 148.91 201.12"/><polygon class="cls-20" points="195.92 163.7 203.84 168.31 147.96 200.57 140.04 195.97 195.92 163.7"/><polygon class="cls-21" points="147.94 200.57 147.94 233.96 140.04 229.37 140.04 195.97 141.03 196.54 147.94 200.57"/><g class="cls-1"><polygon class="cls-24" points="203.65 151.67 203.51 180.26 175.59 196.4 175.74 167.81 203.65 151.67"/><polygon class="cls-23" points="175.74 167.81 175.59 196.4 147.14 179.87 147.28 151.28 175.74 167.81"/><polygon class="cls-25" points="203.65 151.67 175.74 167.81 147.28 151.28 175.2 135.14 203.65 151.67"/></g><polygon class="cls-20" points="164.34 141.42 158.56 144.76 187.01 161.29 192.79 157.95 164.34 141.42"/><polygon class="cls-21" points="187.03 161.29 192.79 157.95 192.78 163.78 187.01 167.09 187.03 161.29"/><polygon class="cls-31" points="233.32 189.18 101.66 114.32 268.38 17.39 400.53 92.96 233.32 189.18"/><polygon class="cls-32" points="233.32 189.18 268.38 17.39 400.53 92.96 233.32 189.18"/><path class="cls-33" d="M400.51,92.71V236.59l-99.67,57.54-2.95,1.7c-.32-9.31-5.38-15.27-13.07-15.27a20.13,20.13,0,0,0-10,3c-11.54,6.67-20.9,22.89-20.87,36.15,0,.49,0,1,0,1.44l-20.71,11.9V189.18Z"/><path class="cls-34" d="M400.51,92.71V236.59l-99.67,57.54-2.95,1.7c-.32-9.31-5.38-15.27-13.07-15.27a20.13,20.13,0,0,0-10,3c-11.54,6.67-20.9,22.89-20.87,36.15,0,.49,0,1,0,1.44l-20.71,11.9v-2Z"/><path class="cls-4" d="M512.82,97.51,482,62.58c-1.8-2-6.19-2-9.77,0L426.1,89.24l-9.24,5.34-3.46,2c-3.6,2.07-6.52,6.69-6.52,10.26v126.8l6.52-3.76,2.66-1.54,8.05-4.65,9.37-5.41,18.29-10.56c0-.59-.07-1.19-.07-1.81,0-13.27,9.33-29.49,20.87-36.15a20,20,0,0,1,10-3c7.79,0,12.88,6.13,13.08,15.66l8.39-4.84,5.6-3.24c3.57-2.06,6.5-6.66,6.5-10.24V107.74C516.1,104.16,514.63,99.57,512.82,97.51Z"/><path class="cls-6" d="M458,83.78v87c-8.07,8.73-13.78,17.47-14.7,28.65L415.43,215.5V108.35Z"/><polygon class="cls-35" points="454.33 149.01 454.33 154.86 446.15 159.9 446.15 154.05 454.32 149.01 454.33 149.01"/><polygon class="cls-14" points="453.44 154.26 453.44 149.54 454.32 149.01 454.33 149.01 454.33 154.86 446.15 159.9 446.15 158.77 453.44 154.26"/><polygon class="cls-4" points="453.44 149.54 453.44 154.26 454.33 154.86 454.32 149.01 453.44 149.54"/><polygon class="cls-36" points="113.59 267.86 123.76 273.84 125.79 272.61 115.61 266.62 113.59 267.86"/><polygon class="cls-37" points="113.58 267.86 113.58 275.97 123.76 281.95 123.76 273.84 113.59 267.86 113.58 267.86"/><polygon class="cls-38" points="123.76 273.84 123.76 281.95 125.79 280.72 125.79 272.61 123.76 273.84"/><polygon class="cls-36" points="215.55 327.15 225.72 333.13 227.75 331.9 217.57 325.91 215.55 327.15"/><polygon class="cls-37" points="215.54 327.15 215.54 335.26 225.72 341.25 225.72 333.13 215.55 327.15 215.54 327.15"/><polygon class="cls-38" points="225.72 333.13 225.72 341.25 227.75 340.01 227.75 331.9 225.72 333.13"/><polygon class="cls-39" points="444.07 91.91 415.43 149.01 415.43 130.45 430.93 99.53 444.07 91.91"/><polygon class="cls-40" points="430.93 99.53 415.43 130.45 415.43 108.53 430.93 99.53"/><polygon class="cls-40" points="457.98 141.23 457.98 119.34 442.5 150.21 457.98 141.23"/><polygon class="cls-40" points="457.98 83.84 457.98 100.91 429.46 157.77 415.43 165.91 415.43 149.01 444.07 91.91 457.98 83.84"/><polygon class="cls-39" points="457.98 119.34 457.98 100.91 429.46 157.77 442.5 150.21 457.98 119.34"/><polygon class="cls-40" points="461.49 82.22 461.49 93.91 469.76 77.43 461.49 82.22"/><polygon class="cls-40" points="478.58 78.27 461.49 112.34 461.49 139.61 471.93 133.55 491.35 94.82 478.58 78.27"/><polygon class="cls-39" points="475.4 74.15 469.76 77.43 461.49 93.91 461.49 112.34 478.58 78.27 475.4 74.15"/><polygon class="cls-39" points="491.35 94.82 471.93 133.55 485.55 125.65 497.2 102.41 491.35 94.82"/><polygon class="cls-40" points="497.2 102.41 485.55 125.65 505.99 113.79 497.2 102.41"/><path class="cls-41" d="M101.65,114.32v143.6l131.67,75.13V189.18Zm123.13,204L110.2,253V129l108.1,61.46,6.48,3.68Z"/><polygon class="cls-31" points="224.78 230.97 110.2 165.6 110.2 129.01 218.3 190.47 224.78 194.15 224.78 230.97"/><polygon class="cls-33" points="224.78 230.97 110.2 165.6 110.2 158.38 224.78 223.52 224.78 230.97"/><polygon class="cls-33" points="224.78 217.65 110.2 152.27 110.2 145.05 224.78 210.19 224.78 217.65"/><polygon class="cls-33" points="224.78 205.87 110.2 140.49 110.2 133.27 224.78 198.41 224.78 205.87"/><path class="cls-42" d="M192.12,319.36a2.26,2.26,0,0,0,1,1.77l18.25,10.55c.57.32,1,.06,1-.59v-7.31a2.27,2.27,0,0,0-1-1.78l-18.25-10.54c-.57-.32-1-.06-1,.59Z"/><path class="cls-42" d="M127.63,283.19a2.25,2.25,0,0,0,1,1.77l18.26,10.55c.57.32,1,.06,1-.59v-7.31a2.25,2.25,0,0,0-1-1.77l-18.26-10.55c-.57-.32-1-.06-1,.59Z"/><polygon class="cls-43" points="511.71 163.55 503.21 168.55 501.52 167.52 510.02 162.52 511.71 163.55"/><polygon class="cls-44" points="511.72 163.55 511.72 170.33 503.21 175.33 503.21 168.55 511.71 163.55 511.72 163.55"/><polygon class="cls-33" points="503.21 168.55 503.21 175.33 501.52 174.3 501.52 167.52 503.21 168.55"/><polygon class="cls-43" points="419.76 217.01 411.26 222 409.57 220.97 418.07 215.97 419.76 217.01"/><polygon class="cls-44" points="419.77 217.01 419.77 223.78 411.26 228.78 411.26 222 419.76 217.01 419.77 217.01"/><polygon class="cls-33" points="411.26 222 411.26 228.78 409.57 227.75 409.57 220.97 411.26 222"/><polygon class="cls-45" points="393.29 15.6 393.29 17 387.1 20.6 387.1 19.2 393.29 15.6"/><polygon class="cls-46" points="373.74 11.5 373.74 12.93 387.1 20.6 387.1 19.2 373.74 11.5"/><polygon class="cls-47" points="387.1 19.2 393.29 15.6 379.73 7.89 373.74 11.5 387.1 19.2"/><polygon class="cls-44" points="391.31 12.31 391.31 15.49 386.82 18.1 386.82 14.91 391.31 12.31"/><polygon class="cls-33" points="375.74 8.52 375.74 11.73 386.82 18.1 386.82 14.91 375.74 8.52"/><polygon class="cls-43" points="386.82 14.91 391.31 12.31 380.07 5.91 375.74 8.52 386.82 14.91"/><polygon class="cls-45" points="427.05 35.08 427.05 36.48 420.85 40.08 420.85 38.68 427.05 35.08"/><polygon class="cls-46" points="407.5 30.98 407.5 32.41 420.85 40.08 420.85 38.68 407.5 30.98"/><polygon class="cls-47" points="420.85 38.68 427.05 35.08 413.48 27.37 407.5 30.98 420.85 38.68"/><polygon class="cls-44" points="425.06 31.79 425.06 34.97 420.57 37.58 420.57 34.39 425.06 31.79"/><polygon class="cls-33" points="409.5 28 409.5 31.21 420.57 37.58 420.57 34.39 409.5 28"/><polygon class="cls-43" points="420.57 34.39 425.06 31.79 413.82 25.39 409.5 28 420.57 34.39"/><polygon class="cls-45" points="460.8 54.56 460.8 55.96 454.61 59.56 454.61 58.16 460.8 54.56"/><polygon class="cls-46" points="441.25 50.45 441.25 51.89 454.61 59.56 454.61 58.16 441.25 50.45"/><polygon class="cls-47" points="454.61 58.16 460.8 54.56 447.24 46.85 441.25 50.45 454.61 58.16"/><polygon class="cls-44" points="458.82 51.27 458.82 54.45 454.32 57.05 454.32 53.87 458.82 51.27"/><polygon class="cls-33" points="443.25 47.48 443.25 50.69 454.32 57.05 454.32 53.87 443.25 47.48"/><polygon class="cls-43" points="454.32 53.87 458.82 51.27 447.58 44.87 443.25 47.48 454.32 53.87"/><g class="cls-1"><polygon class="cls-17" points="387.62 316.35 387.45 375.91 319.33 415.49 319.5 355.93 387.62 316.35"/><polygon class="cls-18" points="319.5 355.93 319.33 415.49 238.86 368.66 239.03 309.1 319.5 355.93"/><polygon class="cls-19" points="387.62 316.35 361.11 331.75 347.02 339.94 319.5 355.93 310.81 350.87 258.57 320.48 239.03 309.1 266.55 293.11 280.64 284.92 307.14 269.52 326.91 281.02 379.15 311.42 387.62 316.35"/></g><polygon class="cls-20" points="280.64 284.92 266.54 293.11 347.02 339.94 361.11 331.75 280.64 284.92"/><polygon class="cls-21" points="347.05 339.94 361.11 331.75 361.11 345.98 347.05 354.1 347.05 339.94"/><polygon class="cls-22" points="380.37 372.46 380.37 373.86 369.73 380 369.73 378.61 380.37 372.46"/><polygon class="cls-22" points="378.32 372.84 377.12 373.54 377.12 366.04 375.92 366.73 377.72 362.59 379.51 364.66 378.32 365.35 378.32 372.84"/><polygon class="cls-22" points="372.98 375.93 371.78 376.62 371.78 369.13 370.58 369.81 372.38 365.68 374.17 367.75 372.98 368.43 372.98 375.93"/><path class="cls-22" d="M380.27,358.64l-10.45,6a7.61,7.61,0,0,0-3.65,5.76v10.45c0,2,1.64,2.71,3.65,1.55l10.45-6a7.58,7.58,0,0,0,3.65-5.76V360.18C383.92,358.17,382.28,357.48,380.27,358.64Zm2.92,12.41a6.07,6.07,0,0,1-2.92,4.61l-10.45,6c-1.61.93-2.92.38-2.92-1.23V370a6.09,6.09,0,0,1,2.92-4.61l10.45-6c1.61-.94,2.92-.38,2.92,1.23Z"/><path class="cls-22" d="M347.76,385.65a.13.13,0,0,0,.06-.09,5.77,5.77,0,0,1,2.18-1.74c1.29-.74,2.18-1,2.18-.78,0,0,0,0,.06,0a.13.13,0,0,0,.06-.09c0-.21.73-.86,1.82-1.53v5.77l0,.68c.13.7.76.8,1.53.36a3.16,3.16,0,0,0,1.54-2.38c0-.21-.15-.28-.34-.17a.71.71,0,0,0-.35.57,1.72,1.72,0,0,1-.85,1.24c-.92.53-.83-.59-.83-.59V381c1.09-.58,1.82-.78,1.82-.57,0,0,0,0,.06,0a.13.13,0,0,0,.06-.09,5.67,5.67,0,0,1,2.18-1.74c1.29-.74,2.18-1,2.18-.78,0,0,0,0,.06,0a.13.13,0,0,0,.06-.09c-.1-2.59-2.89-3.61-6.28-1.9h0c0-.18-.23-.19-.5,0a.93.93,0,0,0-.5.61h0c-3.39,2.2-6.18,6.44-6.28,9.15C347.7,385.66,347.72,385.67,347.76,385.65Z"/><path class="cls-22" d="M359.7,370.52l-10.44,6a7.6,7.6,0,0,0-3.66,5.77v10.45c0,2,1.64,2.7,3.66,1.54l10.44-6a7.58,7.58,0,0,0,3.66-5.77V372.06C363.36,370,361.72,369.35,359.7,370.52Zm2.92,12.41a6,6,0,0,1-2.92,4.6l-10.44,6c-1.61.92-2.92.37-2.92-1.24V381.89a6.07,6.07,0,0,1,2.92-4.61l10.44-6c1.61-.93,2.92-.38,2.92,1.23Z"/><path class="cls-22" d="M331.15,393.31c0,1.63,1.14,2.33,2.54,1.65v5.16l-1.79,1v.67l4-2.33v-.67l-1.79,1V394.7a6.2,6.2,0,0,0,2.53-4.58v-3.81l-5.52,3.19Z"/><path class="cls-22" d="M339.14,382.39l-10.45,6a7.58,7.58,0,0,0-3.66,5.76v10.45c0,2,1.64,2.71,3.66,1.54l10.45-6a7.59,7.59,0,0,0,3.65-5.76V383.93C342.79,381.92,341.15,381.23,339.14,382.39Zm2.92,12.41a6.07,6.07,0,0,1-2.92,4.61l-10.45,6c-1.61.93-2.92.38-2.92-1.23V393.76a6,6,0,0,1,2.92-4.6l10.45-6c1.61-.93,2.92-.37,2.92,1.24Z"/><g class="cls-29"><polygon class="cls-21" points="379.15 311.42 354.37 325.73 352.56 326.77 343.51 331.99 338.42 334.93 310.81 350.87 310.68 350.94 258.41 320.57 258.57 320.48 286.18 304.54 291.07 301.71 300.32 296.37 301.92 295.44 326.91 281.02 379.15 311.42"/></g><g class="cls-1"><polygon class="cls-23" points="297.6 353.75 276.33 341.39 265.54 335.12 245.33 323.38 245.2 277.67 265.54 289.49 266.89 290.27 297.47 308.05 297.6 353.75"/><polygon class="cls-24" points="373.93 309.68 341.15 328.61 330.3 334.87 297.6 353.75 297.47 308.05 330.3 289.09 341.15 282.83 373.81 263.98 373.93 309.68"/><polygon class="cls-25" points="373.81 263.98 341.15 282.83 330.3 289.09 297.47 308.05 245.2 277.67 277.86 258.82 288.71 252.55 321.53 233.6 373.81 263.98"/></g><g class="cls-26"><polygon class="cls-27" points="339.71 283.71 328.85 289.97 276.41 259.7 287.26 253.43 339.71 283.71"/></g><polygon class="cls-28" points="339.71 283.71 339.71 329.49 328.85 335.75 328.85 289.97 339.71 283.71"/><polygon class="cls-21" points="341.13 282.84 341.13 328.62 330.27 334.88 330.27 289.11 341.13 282.84"/><polygon class="cls-20" points="341.15 282.83 330.3 289.09 277.86 258.82 288.71 252.55 341.15 282.83"/><g class="cls-29"><polygon class="cls-20" points="343.19 246.17 354 252.46 277.67 296.53 266.85 290.24 343.19 246.17"/></g><polygon class="cls-30" points="277.65 296.52 277.65 342.14 266.85 335.87 266.85 290.24 268.2 291.03 277.65 296.52"/><polygon class="cls-20" points="341.87 245.42 352.69 251.7 276.35 295.78 265.54 289.49 341.87 245.42"/><polygon class="cls-21" points="276.33 295.77 276.33 341.39 265.54 335.12 265.54 289.49 266.89 290.27 276.33 295.77"/></g></g></svg>