<svg xmlns="http://www.w3.org/2000/svg" xmlns:xlink="http://www.w3.org/1999/xlink" viewBox="0 0 638.72 419"><defs><style>.cls-1{fill:#2b3336;}.cls-2{fill:#872220;}.cls-3{isolation:isolate;}.cls-4{fill:#deb09d;}.cls-5{fill:#ccd8f5;}.cls-6{fill:#212428;}.cls-7{fill:#114b98;}.cls-8{opacity:0.2;}.cls-25,.cls-37,.cls-41,.cls-43,.cls-44,.cls-45,.cls-8{mix-blend-mode:multiply;}.cls-9{fill:#1d68ca;}.cls-10{clip-path:url(#clip-path);}.cls-11{clip-path:url(#clip-path-2);}.cls-12{fill:#353f43;}.cls-13{fill:#7d8086;}.cls-14{clip-path:url(#clip-path-3);}.cls-15{clip-path:url(#clip-path-4);}.cls-16{clip-path:url(#clip-path-5);}.cls-17{clip-path:url(#clip-path-6);}.cls-18{clip-path:url(#clip-path-7);}.cls-19{clip-path:url(#clip-path-8);}.cls-20{clip-path:url(#clip-path-9);}.cls-21{clip-path:url(#clip-path-10);}.cls-22{fill:#d63a3b;}.cls-23{fill:#b32b2b;}.cls-24,.cls-25{fill:#e0b29d;}.cls-25{opacity:0.3;}.cls-26{fill:#e9c2b0;}.cls-27{fill:#664133;}.cls-28{fill:#f4aa35;}.cls-29{fill:#1955a5;}.cls-30{fill:#eff3fc;}.cls-31{fill:#c5975b;}.cls-32{fill:#daaf6a;}.cls-33{fill:#efd996;}.cls-34{fill:#f7ecea;}.cls-35,.cls-44{fill:#c2ab9d;}.cls-36{fill:#5c4123;}.cls-37,.cls-44{opacity:0.6;}.cls-38{fill:#bb884f;}.cls-39{fill:#e0b477;}.cls-40{fill:#efcd90;}.cls-41,.cls-43{opacity:0.5;}.cls-42,.cls-43{fill:#e4cdbf;}</style><clipPath id="clip-path"><path class="cls-1" d="M314.68,247.61l-4.22,2.49a3.77,3.77,0,0,1,3.79.37l4.2-2.5A3.76,3.76,0,0,0,314.68,247.61Z"/></clipPath><clipPath id="clip-path-2"><path class="cls-1" d="M318,262.92l4.2-2.5a3.68,3.68,0,0,0,1.56-3.35,11.59,11.59,0,0,0-5.3-9.1l-4.2,2.5a11.56,11.56,0,0,1,5.29,9.08A3.69,3.69,0,0,1,318,262.92Z"/></clipPath><clipPath id="clip-path-3"><path class="cls-1" d="M370.66,278.88l-4.21,2.48a3.78,3.78,0,0,1,3.78.37l4.2-2.5A3.73,3.73,0,0,0,370.66,278.88Z"/></clipPath><clipPath id="clip-path-4"><path class="cls-1" d="M374,294.19l4.2-2.51a3.64,3.64,0,0,0,1.56-3.34,11.61,11.61,0,0,0-5.3-9.11l-4.2,2.5a11.58,11.58,0,0,1,5.29,9.09A3.71,3.71,0,0,1,374,294.19Z"/></clipPath><clipPath id="clip-path-5"><path class="cls-1" d="M343.39,228.93l-4.21,2.48a3.78,3.78,0,0,1,3.78.37l4.21-2.5A3.75,3.75,0,0,0,343.39,228.93Z"/></clipPath><clipPath id="clip-path-6"><path class="cls-1" d="M346.7,244.24l4.21-2.51a3.64,3.64,0,0,0,1.55-3.35,11.6,11.6,0,0,0-5.29-9.1l-4.21,2.5a11.57,11.57,0,0,1,5.3,9.09A3.72,3.72,0,0,1,346.7,244.24Z"/></clipPath><clipPath id="clip-path-7"><path class="cls-1" d="M414.9,258.13l-4.22,2.49a3.77,3.77,0,0,1,3.79.37l4.2-2.5A3.76,3.76,0,0,0,414.9,258.13Z"/></clipPath><clipPath id="clip-path-8"><path class="cls-1" d="M418.21,273.44l4.2-2.5a3.66,3.66,0,0,0,1.55-3.35,11.56,11.56,0,0,0-5.29-9.1l-4.2,2.5a11.56,11.56,0,0,1,5.29,9.08A3.72,3.72,0,0,1,418.21,273.44Z"/></clipPath><clipPath id="clip-path-9"><path class="cls-2" d="M309.41,247v-4c0,2.22,1.45,4.45,4.37,6.14v4C310.86,251.46,309.4,249.24,309.41,247Z"/></clipPath><clipPath id="clip-path-10"><path class="cls-2" d="M427.14,259.73v4c0,2.19-1.44,4.38-4.31,6.05v-4C425.7,264.11,427.13,261.92,427.14,259.73Z"/></clipPath></defs><title>Inventory</title><g class="cls-3"><g id="Layer_1" data-name="Layer 1"><path class="cls-4" d="M340.49,118.15c.08-2.65,3.09-5.54,4.42-6.13a31.56,31.56,0,0,1,4.63,2.43c2.66,1.67,5.43,3.93,5.94,6.2,1.09,4.83-.87,5.54-3,5.69C349.22,126.56,344.27,118.2,340.49,118.15Z"/><path class="cls-5" d="M318.26,97.61,346.82,111l-4,9.09-30.44-12-.22-.11c-3.12-1.83-5.51-3.86-3.74-7S315.06,95.82,318.26,97.61Z"/><path class="cls-5" d="M306.61,101.83a6.28,6.28,0,0,0,7.13,5.26h0A6.28,6.28,0,0,0,319,99.93l-5.51-29.54a6.25,6.25,0,0,0-7.12-5.26h0a6.26,6.26,0,0,0-5.23,7.15Z"/><path class="cls-6" d="M295.42,230.89s-8.7-2-7.81,9.62c0,.49,6.09,3.16,6.09,3.16a4.86,4.86,0,0,1,3,.19,12.26,12.26,0,0,1,2.63,2.08c5,3.72,13.46,3.33,15.39.82,2.76-3.6-4.24-8-10.4-11A55.64,55.64,0,0,1,295.42,230.89Z"/><path class="cls-6" d="M274.18,201.5s-7.09-5.68-11.39,5.36c-.19.47,4.17,5.58,4.17,5.58a4.93,4.93,0,0,1,2.66,1.5,13.59,13.59,0,0,1,1.5,3.08c2.89,5.59,10.83,9,13.71,7.55,4.12-2.08-.32-9.25-4.68-14.66A56.65,56.65,0,0,1,274.18,201.5Z"/><path class="cls-7" d="M272.28,209.16c2.7,1.87,9.3,3.07,11.88,1.33,0,0,16.26-21.55,19.33-31.69,3.9-12.89,6.54-48.63,6.54-48.63s-19.2-15.59-22.36-10.26c-7.18,12.07,1.87,47.48-.81,50.26-4.46,4.63-19.74,30.62-19.74,30.62C266.83,203,269.37,207.15,272.28,209.16Z"/><g class="cls-8"><path class="cls-7" d="M287.18,177.09c-.36-2-.77-3.9-1.26-5.83-1.54,1.92-3.77,5.2-6.15,8.9a17.47,17.47,0,0,1,1.61,4.81,67.26,67.26,0,0,1,.7,7.38c.23,3.16.69,6.32,1.09,9.47.35,2.84.74,5.68,1.11,8.51.54-.72,2.91-3.91,5.83-8.12A174,174,0,0,0,287.18,177.09Z"/></g><path class="cls-9" d="M294.72,239.26c-3.51-.2-4.65-1.1-7.35-2.54,0,0-4-42.82-3.73-52,.22-8.69-18.21-40.23-10.9-54,2.88-5.42,28.16.11,28.16.11l-6.22,12.24L302,178.25l3,57.45C301.86,237.83,298.51,239.48,294.72,239.26Z"/><rect class="cls-2" x="312.12" y="191.83" width="44.15" height="4.67" transform="translate(-52.31 193.14) rotate(-30)"/><polygon class="cls-2" points="316.24 182.58 313.9 178.53 364.4 150.81 364.4 156.65 316.24 182.58"/><g class="cls-3"><path class="cls-1" d="M314.68,247.61l-4.22,2.49a3.77,3.77,0,0,1,3.79.37l4.2-2.5A3.76,3.76,0,0,0,314.68,247.61Z"/><g class="cls-10"><g class="cls-3"><path class="cls-1" d="M314.25,250.47l4.2-2.5a5.93,5.93,0,0,0-1.63-.63l-4.19,2.48a5.78,5.78,0,0,1,1.62.65Z"/><path class="cls-1" d="M312.63,249.82l4.19-2.48a3,3,0,0,0-2.05.21l-4.21,2.5a3,3,0,0,1,2.07-.23Z"/><path class="cls-1" d="M310.56,250.05l4.21-2.5-.09.06-4.22,2.49s.07,0,.1,0Z"/></g></g><path class="cls-1" d="M318,262.92l4.2-2.5a3.68,3.68,0,0,0,1.56-3.35,11.59,11.59,0,0,0-5.3-9.1l-4.2,2.5a11.56,11.56,0,0,1,5.29,9.08A3.69,3.69,0,0,1,318,262.92Z"/><g class="cls-11"><g class="cls-3"><path class="cls-1" d="M318,262.92l4.2-2.5a3.68,3.68,0,0,0,1.56-3.35,10.09,10.09,0,0,0-.94-4l-4.21,2.51a10,10,0,0,1,.94,4,3.69,3.69,0,0,1-1.55,3.37Z"/><path class="cls-1" d="M318.6,255.58l4.21-2.51a12.87,12.87,0,0,0-1.79-2.85l-4.2,2.47a12.56,12.56,0,0,1,1.78,2.89Z"/><path class="cls-1" d="M316.82,252.69l4.2-2.47a9.51,9.51,0,0,0-2.57-2.25l-4.2,2.5a9.9,9.9,0,0,1,2.57,2.22Z"/></g></g><path class="cls-12" d="M314.25,250.47c-2.94-1.68-5.31-.36-5.33,3a11.53,11.53,0,0,0,5.29,9.06c2.93,1.7,5.31.34,5.33-3A11.56,11.56,0,0,0,314.25,250.47Z"/><path class="cls-13" d="M318,253l-2.26,5.27c-.66,1.55-2.33.59-3-1.73l-2.25-7.88c-.67-2.32.16-4.26,1.5-3.5l4.51,2.61C317.82,248.58,318.66,251.49,318,253Z"/></g><g class="cls-3"><path class="cls-1" d="M370.66,278.88l-4.21,2.48a3.78,3.78,0,0,1,3.78.37l4.2-2.5A3.73,3.73,0,0,0,370.66,278.88Z"/><g class="cls-14"><g class="cls-3"><path class="cls-1" d="M370.23,281.73l4.2-2.5a6,6,0,0,0-1.62-.62l-4.2,2.47a6.45,6.45,0,0,1,1.62.65Z"/><path class="cls-1" d="M368.61,281.08l4.2-2.47a3.07,3.07,0,0,0-2.06.2l-4.21,2.5a3.1,3.1,0,0,1,2.07-.23Z"/><path class="cls-1" d="M366.54,281.31l4.21-2.5-.09.07-4.21,2.48s.06-.05.09-.05Z"/></g></g><path class="cls-1" d="M374,294.19l4.2-2.51a3.64,3.64,0,0,0,1.56-3.34,11.61,11.61,0,0,0-5.3-9.11l-4.2,2.5a11.58,11.58,0,0,1,5.29,9.09A3.71,3.71,0,0,1,374,294.19Z"/><g class="cls-15"><g class="cls-3"><path class="cls-1" d="M374,294.19l4.2-2.51a3.64,3.64,0,0,0,1.56-3.34,10,10,0,0,0-.94-4l-4.21,2.52a9.8,9.8,0,0,1,.94,4,3.71,3.71,0,0,1-1.55,3.37Z"/><path class="cls-1" d="M374.58,286.85l4.21-2.52a13.1,13.1,0,0,0-1.79-2.85L372.8,284a12.84,12.84,0,0,1,1.78,2.9Z"/><path class="cls-1" d="M372.8,284l4.2-2.47a9.53,9.53,0,0,0-2.57-2.25l-4.2,2.5A9.9,9.9,0,0,1,372.8,284Z"/></g></g><path class="cls-12" d="M370.23,281.73c-2.94-1.67-5.31-.35-5.32,3a11.55,11.55,0,0,0,5.28,9.07c2.93,1.69,5.32.34,5.33-3A11.58,11.58,0,0,0,370.23,281.73Z"/><path class="cls-13" d="M374,284.31l-2.26,5.26c-.66,1.56-2.33.6-3-1.73L366.46,280c-.67-2.33.16-4.27,1.5-3.5l4.51,2.61C373.81,279.85,374.64,282.75,374,284.31Z"/></g><g class="cls-3"><path class="cls-1" d="M343.39,228.93l-4.21,2.48a3.78,3.78,0,0,1,3.78.37l4.21-2.5A3.75,3.75,0,0,0,343.39,228.93Z"/><g class="cls-16"><g class="cls-3"><path class="cls-1" d="M343,231.78l4.21-2.5a6.55,6.55,0,0,0-1.63-.63l-4.2,2.48a6.1,6.1,0,0,1,1.62.65Z"/><path class="cls-1" d="M341.34,231.13l4.2-2.48a3.1,3.1,0,0,0-2.05.21l-4.21,2.5a3,3,0,0,1,2.06-.23Z"/><path class="cls-1" d="M339.28,231.36l4.21-2.5-.1.07-4.21,2.48a.24.24,0,0,1,.1,0Z"/></g></g><path class="cls-1" d="M346.7,244.24l4.21-2.51a3.64,3.64,0,0,0,1.55-3.35,11.6,11.6,0,0,0-5.29-9.1l-4.21,2.5a11.57,11.57,0,0,1,5.3,9.09A3.72,3.72,0,0,1,346.7,244.24Z"/><g class="cls-17"><g class="cls-3"><path class="cls-1" d="M346.7,244.24l4.21-2.51a3.64,3.64,0,0,0,1.55-3.35,10.11,10.11,0,0,0-.93-4l-4.21,2.52a10,10,0,0,1,.94,4,3.72,3.72,0,0,1-1.56,3.37Z"/><path class="cls-1" d="M347.32,236.9l4.21-2.52a13.1,13.1,0,0,0-1.79-2.85l-4.2,2.47a13.21,13.21,0,0,1,1.78,2.9Z"/><path class="cls-1" d="M345.54,234l4.2-2.47a9.84,9.84,0,0,0-2.57-2.25l-4.21,2.5a9.93,9.93,0,0,1,2.58,2.22Z"/></g></g><path class="cls-12" d="M343,231.78c-2.93-1.67-5.31-.35-5.32,3a11.57,11.57,0,0,0,5.28,9.07c2.93,1.69,5.32.34,5.34-3A11.57,11.57,0,0,0,343,231.78Z"/></g><g class="cls-3"><path class="cls-1" d="M414.9,258.13l-4.22,2.49a3.77,3.77,0,0,1,3.79.37l4.2-2.5A3.76,3.76,0,0,0,414.9,258.13Z"/><g class="cls-18"><g class="cls-3"><path class="cls-1" d="M414.47,261l4.2-2.5a5.93,5.93,0,0,0-1.63-.63l-4.19,2.48a6,6,0,0,1,1.62.65Z"/><path class="cls-1" d="M412.85,260.34l4.19-2.48a3.1,3.1,0,0,0-2.05.21l-4.21,2.5a3,3,0,0,1,2.07-.23Z"/><path class="cls-1" d="M410.78,260.57l4.21-2.5-.09.06-4.22,2.49a.24.24,0,0,1,.1-.05Z"/></g></g><path class="cls-1" d="M418.21,273.44l4.2-2.5a3.66,3.66,0,0,0,1.55-3.35,11.56,11.56,0,0,0-5.29-9.1l-4.2,2.5a11.56,11.56,0,0,1,5.29,9.08A3.72,3.72,0,0,1,418.21,273.44Z"/><g class="cls-19"><g class="cls-3"><path class="cls-1" d="M418.21,273.44l4.2-2.5a3.66,3.66,0,0,0,1.55-3.35,10.07,10.07,0,0,0-.93-4l-4.21,2.51a10,10,0,0,1,.94,4,3.72,3.72,0,0,1-1.55,3.37Z"/><path class="cls-1" d="M418.82,266.1l4.21-2.51a12.87,12.87,0,0,0-1.79-2.85l-4.2,2.47a12.56,12.56,0,0,1,1.78,2.89Z"/><path class="cls-1" d="M417,263.21l4.2-2.47a9.51,9.51,0,0,0-2.57-2.25l-4.2,2.5a9.9,9.9,0,0,1,2.57,2.22Z"/></g></g><path class="cls-12" d="M414.47,261c-2.94-1.68-5.32-.36-5.33,3a11.55,11.55,0,0,0,5.28,9.06c2.94,1.7,5.32.34,5.34-3A11.56,11.56,0,0,0,414.47,261Z"/></g><g class="cls-3"><g class="cls-3"><path class="cls-2" d="M309.41,247v-4c0,2.22,1.45,4.45,4.37,6.14v4C310.86,251.46,309.4,249.24,309.41,247Z"/><g class="cls-20"><path class="cls-2" d="M313.79,249.11v4c-2.92-1.69-4.38-3.91-4.37-6.14v-4c0,2.22,1.45,4.45,4.37,6.14Z"/></g></g><path class="cls-2" d="M427.14,259.73v4c0,2.19-1.44,4.38-4.31,6.05v-4C425.7,264.11,427.13,261.92,427.14,259.73Z"/><g class="cls-21"><g class="cls-3"><path class="cls-2" d="M427.14,259.73v4a5.49,5.49,0,0,1-.43,2v-4a5.3,5.3,0,0,0,.43-2Z"/><path class="cls-2" d="M426.71,261.77v4a8.85,8.85,0,0,1-3.88,4v-4a8.85,8.85,0,0,0,3.88-4Z"/></g></g><polygon class="cls-2" points="422.83 265.78 422.82 269.82 393.35 286.94 393.36 282.9 422.83 265.78"/><polygon class="cls-2" points="372.33 282.9 372.32 286.94 313.78 253.15 313.79 249.11 372.33 282.9"/><g class="cls-3"><g class="cls-3"><path class="cls-2" d="M393.36,282.9v4a21.46,21.46,0,0,1-10.77,2.52v-4a21.46,21.46,0,0,0,10.77-2.51Z"/><path class="cls-2" d="M382.59,285.41v4a21.34,21.34,0,0,1-10.26-2.52v-4a21.37,21.37,0,0,0,10.26,2.51Z"/></g></g><path class="cls-22" d="M422.77,253.59c5.8,3.35,5.83,8.83.06,12.19L393.36,282.9c-5.76,3.35-15.23,3.35-21,0l-58.54-33.79c-5.8-3.35-5.83-8.84-.07-12.19l29.47-17.12c5.77-3.36,15.24-3.36,21,0Z"/></g><path class="cls-23" d="M314.33,248.07a2.59,2.59,0,0,0,2.59-2.59V159c0-7.85-5.31-17.18-12.1-21.25l-8-4.79a2.59,2.59,0,0,0-2.67,4.45l8,4.79c5.28,3.17,9.58,10.7,9.58,16.8v86.48A2.59,2.59,0,0,0,314.33,248.07Z"/><path class="cls-23" d="M364.72,230.76a2.59,2.59,0,0,0,2.59-2.59V141.69c0-7.84-5.32-17.18-12.11-21.24l-8-4.79a2.59,2.59,0,0,0-2.66,4.44l8,4.79c5.29,3.17,9.59,10.71,9.59,16.8v86.48A2.59,2.59,0,0,0,364.72,230.76Z"/><path class="cls-5" d="M312,85.29c-.05,1.86-.35,4.43-.71,7.46-.31,2.63-.66,5.6-.92,8.74a95.82,95.82,0,0,0-.32,13c.09,1.91.35,13.74.43,14.82.2,2.83-36.36,12.82-39.06,9.31-.56-.72,2.22-18,3.45-29.71,1.28-12.09-1.81-17.75-2.5-26l0-.41c-.34-4.71-.39-8,.64-10.51.23-.59-.29-.81.06-1.32s1.92-1.11,3.63-1.84h0a39.21,39.21,0,0,1,5.55-2.33,68.41,68.41,0,0,1,17.39-3.12h.16c.33,0,.65,0,1,.06.16,0,.32,0,.47.06a17.49,17.49,0,0,1,2.35.4c.93.25,1.91.53,2.83.87l.07,0A8.15,8.15,0,0,1,310,66.93C313.4,71.31,312,82.38,312,85.29Z"/><path class="cls-9" d="M282.25,118.56c.83-8.63-3.7-22.21,4.93-25.81,5.92-2.47,25.5-4.94,25.49.11,0,2.65-2.32,35.33-2.24,36.41.2,2.83-36.36,12.82-39.06,9.31-.3-.38-.92-5.41-.07-11.79C276.16,126.39,281.73,124.9,282.25,118.56Z"/><path class="cls-7" d="M305.59,101.41a2.12,2.12,0,0,1,1.73.45c.3.35,1.39,6.43,1,10.4-1,11.1-20.31,9.85-20.53-.94,0-2-.46-4.55.15-6.52C289,101.52,302.77,101.53,305.59,101.41Z"/><path class="cls-9" d="M309.57,94.55c-1.23,3-3.27-.94-5.26-2.29.88-3.13,2.45-21.7-3.61-28.83.16,0,.32,0,.47.06a17.49,17.49,0,0,1,2.35.4c.93.25,1.91.53,2.83.87C310.43,73.46,310.56,92.19,309.57,94.55Z"/><path class="cls-24" d="M290.22,70c-2.17-.5-4.51-1.85-4.87-3.18a37.94,37.94,0,0,1-.45-6.5H298s.18,4.9,0,6.52C297.68,68.83,293.49,70.79,290.22,70Z"/><path class="cls-25" d="M288.22,66.8A10.17,10.17,0,0,0,293.07,69a15.12,15.12,0,0,0,2.85.13,3.56,3.56,0,0,0,2-2.25c.2-1.62,0-6.52,0-6.52H284.9s0,1.95.11,3.82C286.11,65,287.14,65.94,288.22,66.8Z"/><path class="cls-26" d="M299.1,66.72a8,8,0,0,1-6.1.87,15.75,15.75,0,0,1-7.61-4.05c-1.86-1.85-4.91-9-5.34-11.92-.07-.49-.12-.95-.14-1.4-.42-7.85,6.75-9.14,12.43-12.81,6-3.9,13-2.12,13,7.1S304.33,63.23,299.1,66.72Z"/><g class="cls-8"><path class="cls-26" d="M292.34,37.41c-3.06,2-6.56,3.27-9.06,5.26a25.73,25.73,0,0,0,2,6.1,44.22,44.22,0,0,0,2.07,3.91,9.94,9.94,0,0,0,2.05,2.71c2.2,1.84,5.72,1.13,8.28.62,1.49-.31,3-1,4.48-1.08,3.15,0,0,5-.66,6.12a9.88,9.88,0,0,1-11.81,4c-1.62-.56-3.16-1.3-4.72-2a3.47,3.47,0,0,0,.39.44A15.75,15.75,0,0,0,293,67.59a8,8,0,0,0,6.1-.87c5.23-3.49,6.16-13,6.21-22.21S298.34,33.51,292.34,37.41Z"/></g><path class="cls-27" d="M305.31,44.21c-.49,0,.13-3.85-6,.68-3.58,2.66-7.3-2.54-8.71-.91-1.24,1.44-.63,2.28-.47,5,.08,1.29-3.57,3.79-4.2,3.54-1.1-.44.82,1.27.24,2.09-1.56,2.15-1.53,7.2-1.23,8.49a17.44,17.44,0,0,1-4.1-5c-.16-.29-.31-.58-.46-.87a13.38,13.38,0,0,1-1.85-2.93A28.67,28.67,0,0,1,276,47.12c-2.08-12,7.19-12.85,7.19-12.85s7.59-8.75,16.86-2.91C305.05,34.49,306.16,44.28,305.31,44.21Z"/><path class="cls-26" d="M287.23,56.27c-1,1-3.12.39-4.67-1.28s-2-3.8-.95-4.75,3.12-.38,4.67,1.28S288.26,55.32,287.23,56.27Z"/><g class="cls-8"><path class="cls-26" d="M285.27,54.51c-.53.39-1.47,0-2.11-.84s-.72-1.87-.2-2.27,1.48,0,2.11.84S285.8,54.11,285.27,54.51Z"/></g><path class="cls-9" d="M295,93.27c-.06,2.9-3.06,3.32-5.19,2.84C285.57,71.7,277.24,68.5,277.24,68.5a30.7,30.7,0,0,1,4.93-2C289,71.19,295.07,90.77,295,93.27Z"/><path class="cls-28" d="M294.42,93a2,2,0,1,1-2-1.9A2,2,0,0,1,294.42,93Z"/><ellipse class="cls-28" cx="307.39" cy="91.53" rx="2" ry="1.91"/><path class="cls-29" d="M296.65,50.41a21.27,21.27,0,0,0,9.1-2.91c.34-1.26,1.33-1.93,1.33-3.3,0-8.44-7.63-15.92-16.07-15.92a15.27,15.27,0,0,0-15.27,15.27,14.88,14.88,0,0,0,.11,2.23c6-.37,8.08,3.68,11.7,4.66C290.76,51.32,293.13,50.68,296.65,50.41Z"/><path class="cls-9" d="M293,54.55a15.39,15.39,0,0,0,4.23-.17,30.35,30.35,0,0,0,7.92-2.63c1.83-.86,3.78-1.64,5.53-2.65a1.74,1.74,0,0,0,.43-2.67A16.73,16.73,0,0,0,307,43.14c-1.4-.68-16.55,2.9-19.44,7.3-.13.21,1.73,2.13,4,3.75A8.73,8.73,0,0,0,293,54.55Z"/><path class="cls-4" d="M300.35,131.05C297.72,132.2,296,136.4,296,138a34.23,34.23,0,0,0,4.31,3.68c2.75,2,6.15,3.88,8.64,3.49,5.31-.85,5.23-3.11,4.51-5.33C312.35,136.46,301.93,134.84,300.35,131.05Z"/><path class="cls-30" d="M304.8,133.34l-32.88-22.72a.29.29,0,0,0-.12-.07,6.2,6.2,0,0,0-6.24,10.71L298.43,143Z"/><path class="cls-30" d="M262.33,114.35c-.5,8.59,7.85,9.45,12.32,1.24l4.79-37.34a7.24,7.24,0,0,0-6.35-8h0c-3.95-.44-7.53,4.28-8,8.26Z"/><g class="cls-3"><polygon class="cls-31" points="414.79 218.93 414.69 256.17 372.09 280.92 372.19 243.68 414.79 218.93"/><polygon class="cls-32" points="372.19 243.68 372.09 280.92 321.77 251.64 321.87 214.4 372.19 243.68"/><polygon class="cls-33" points="414.79 218.93 398.22 228.56 389.4 233.68 372.19 243.68 366.76 240.51 334.09 221.51 321.87 214.4 339.08 204.4 347.89 199.27 364.47 189.64 376.83 196.84 409.49 215.84 414.79 218.93"/></g><polygon class="cls-34" points="347.89 199.27 339.08 204.4 389.4 233.68 398.22 228.56 347.89 199.27"/><polygon class="cls-35" points="389.42 233.68 398.22 228.56 398.22 237.45 389.42 242.53 389.42 233.68"/><polygon class="cls-36" points="410.26 254.02 410.26 254.89 403.6 258.73 403.6 257.86 410.26 254.02"/><polygon class="cls-36" points="408.98 254.25 408.23 254.69 408.23 250 407.48 250.43 408.6 247.84 409.72 249.14 408.98 249.57 408.98 254.25"/><polygon class="cls-36" points="405.64 256.18 404.89 256.61 404.89 251.93 404.14 252.36 405.26 249.77 406.38 251.07 405.64 251.5 405.64 256.18"/><path class="cls-36" d="M410.2,245.37l-6.54,3.77a4.75,4.75,0,0,0-2.28,3.61v6.53c0,1.26,1,1.69,2.28,1l6.54-3.78a4.72,4.72,0,0,0,2.28-3.6v-6.53C412.48,245.08,411.46,244.65,410.2,245.37Zm1.82,7.77A3.83,3.83,0,0,1,410.2,256l-6.54,3.77c-1,.58-1.82.23-1.82-.77v-6.54a3.81,3.81,0,0,1,1.82-2.88l6.54-3.77c1-.58,1.82-.23,1.82.77Z"/><path class="cls-36" d="M389.87,262.26a.05.05,0,0,0,0-.05c0-.15.56-.63,1.37-1.09s1.36-.63,1.36-.49,0,0,0,0a.08.08,0,0,0,0-.06c0-.13.45-.53,1.13-.95v3.6l0,.43c.08.44.47.5.95.23a2,2,0,0,0,1-1.49c0-.13-.1-.18-.22-.11a.46.46,0,0,0-.21.36,1.09,1.09,0,0,1-.54.77c-.57.33-.52-.37-.52-.37v-3.68c.69-.37,1.14-.49,1.14-.36s0,0,0,0a.08.08,0,0,0,0-.06,3.52,3.52,0,0,1,1.36-1.08c.81-.47,1.36-.63,1.36-.49s0,0,0,0a.09.09,0,0,0,0-.05c-.07-1.62-1.81-2.26-3.93-1.19h0c0-.12-.14-.12-.31,0a.59.59,0,0,0-.31.39h0c-2.12,1.37-3.87,4-3.93,5.72C389.83,262.27,389.84,262.28,389.87,262.26Z"/><path class="cls-36" d="M397.34,252.8l-6.54,3.77a4.74,4.74,0,0,0-2.28,3.6v6.54c0,1.25,1,1.69,2.28,1l6.54-3.77a4.74,4.74,0,0,0,2.28-3.6v-6.54C399.62,252.5,398.6,252.07,397.34,252.8Zm1.82,7.76a3.8,3.8,0,0,1-1.82,2.88l-6.54,3.77c-1,.58-1.82.24-1.82-.77v-6.53A3.8,3.8,0,0,1,390.8,257l6.54-3.77c1-.58,1.82-.24,1.82.77Z"/><path class="cls-36" d="M379.48,267.05c0,1,.72,1.46,1.59,1v3.23L380,272v.42l2.52-1.46v-.42l-1.12.65v-3.23a3.89,3.89,0,0,0,1.59-2.86v-2.38l-3.46,2Z"/><path class="cls-36" d="M384.47,260.22,377.94,264a4.75,4.75,0,0,0-2.28,3.61v6.53c0,1.26,1,1.69,2.28,1l6.53-3.77a4.77,4.77,0,0,0,2.29-3.61v-6.53C386.76,259.93,385.73,259.5,384.47,260.22ZM386.3,268a3.81,3.81,0,0,1-1.83,2.88l-6.53,3.77c-1,.58-1.82.23-1.82-.77v-6.54a3.81,3.81,0,0,1,1.82-2.88l6.53-3.77c1-.58,1.83-.23,1.83.77Z"/><g class="cls-37"><polygon class="cls-35" points="409.49 215.84 394 224.79 392.87 225.44 387.21 228.71 384.02 230.55 366.76 240.51 366.68 240.56 334 221.56 334.09 221.51 351.36 211.54 354.42 209.78 360.2 206.43 361.2 205.85 376.83 196.84 409.49 215.84"/></g><g class="cls-3"><polygon class="cls-38" points="358.5 242.31 345.2 234.59 338.45 230.66 325.81 223.32 325.73 194.74 338.45 202.13 339.29 202.62 358.42 213.74 358.5 242.31"/><polygon class="cls-39" points="406.24 214.75 385.74 226.59 378.95 230.51 358.5 242.31 358.42 213.74 378.95 201.88 385.74 197.96 406.15 186.18 406.24 214.75"/><polygon class="cls-40" points="406.15 186.18 385.74 197.96 378.95 201.88 358.42 213.74 325.73 194.74 346.15 182.95 352.94 179.03 373.47 167.18 406.15 186.18"/></g><g class="cls-41"><polygon class="cls-42" points="384.83 198.51 378.04 202.43 345.25 183.5 352.04 179.58 384.83 198.51"/></g><polygon class="cls-43" points="384.83 198.51 384.83 227.14 378.04 231.06 378.04 202.43 384.83 198.51"/><polygon class="cls-35" points="385.72 197.97 385.72 226.6 378.93 230.52 378.93 201.89 385.72 197.97"/><polygon class="cls-34" points="385.74 197.96 378.95 201.88 346.15 182.95 352.94 179.03 385.74 197.96"/><g class="cls-37"><polygon class="cls-34" points="387.01 175.04 393.77 178.97 346.04 206.53 339.27 202.6 387.01 175.04"/></g><polygon class="cls-44" points="346.02 206.53 346.02 235.06 339.27 231.13 339.27 202.6 340.12 203.09 346.02 206.53"/><polygon class="cls-34" points="386.18 174.57 392.95 178.5 345.21 206.06 338.45 202.13 386.18 174.57"/><polygon class="cls-35" points="345.2 206.06 345.2 234.59 338.45 230.66 338.45 202.13 339.29 202.62 345.2 206.06"/><g class="cls-45"><polygon class="cls-42" points="395.97 188.5 370.3 203.35 344.13 188.15 369.81 173.3 395.97 188.5"/></g><g class="cls-3"><polygon class="cls-39" points="392.79 164.29 392.66 188.71 368.81 202.5 368.94 178.08 392.79 164.29"/><polygon class="cls-38" points="368.94 178.08 368.81 202.5 344.51 188.38 344.64 163.96 368.94 178.08"/><polygon class="cls-40" points="392.89 164.46 369.04 178.25 344.74 164.13 368.59 150.34 392.89 164.46"/></g><polygon class="cls-34" points="359.2 155.54 354.27 158.39 378.57 172.51 383.51 169.66 359.2 155.54"/><polygon class="cls-35" points="378.58 172.51 383.51 169.66 383.5 174.63 378.57 177.46 378.58 172.51"/></g></g></svg>