<svg xmlns="http://www.w3.org/2000/svg" xmlns:xlink="http://www.w3.org/1999/xlink" viewBox="0 0 1100.1 930.1"><defs><style>.cls-1{isolation:isolate;}.cls-2{fill:#777cba;mix-blend-mode:multiply;}.cls-3{fill:url(#linear-gradient);}.cls-4{fill:#dcbc0b;}.cls-5{fill:url(#linear-gradient-2);}.cls-6{fill:#0bbad9;}.cls-7{fill:url(#linear-gradient-3);}.cls-8{fill:#dc1483;}.cls-9{fill:url(#linear-gradient-4);}.cls-10{fill:url(#linear-gradient-5);}.cls-11{fill:url(#linear-gradient-6);}.cls-12{fill:url(#linear-gradient-7);}.cls-13{fill:url(#linear-gradient-8);}.cls-14{fill:url(#linear-gradient-9);}.cls-15{fill:url(#linear-gradient-10);}.cls-16{fill:url(#linear-gradient-11);}.cls-17{fill:url(#linear-gradient-12);}.cls-18{fill:url(#linear-gradient-13);}.cls-19{fill:url(#linear-gradient-14);}.cls-20{fill:url(#linear-gradient-15);}.cls-21{fill:url(#linear-gradient-16);}.cls-22{fill:url(#linear-gradient-17);}.cls-23{fill:url(#linear-gradient-18);}.cls-24{fill:url(#linear-gradient-19);}.cls-25{fill:url(#linear-gradient-20);}.cls-26{fill:url(#linear-gradient-21);}.cls-27{fill:url(#linear-gradient-22);}.cls-28{fill:url(#linear-gradient-23);}.cls-29{fill:url(#linear-gradient-24);}.cls-30{fill:url(#linear-gradient-25);}.cls-31{fill:url(#linear-gradient-26);}.cls-32{fill:url(#linear-gradient-27);}.cls-33{fill:url(#linear-gradient-28);}.cls-34{fill:url(#linear-gradient-29);}.cls-35{fill:url(#linear-gradient-30);}.cls-36{fill:url(#linear-gradient-31);}.cls-37{fill:url(#linear-gradient-32);}.cls-38{fill:url(#linear-gradient-33);}.cls-39{fill:url(#linear-gradient-34);}.cls-40{fill:url(#linear-gradient-35);}.cls-41{fill:url(#linear-gradient-36);}.cls-42{fill:url(#linear-gradient-37);}.cls-43{fill:url(#linear-gradient-38);}.cls-44{fill:url(#linear-gradient-39);}.cls-45{fill:url(#linear-gradient-40);}.cls-46{fill:url(#linear-gradient-41);}.cls-47{fill:url(#linear-gradient-42);}.cls-48{fill:url(#linear-gradient-43);}.cls-49{fill:url(#linear-gradient-44);}.cls-50{fill:url(#linear-gradient-45);}.cls-51{fill:url(#linear-gradient-46);}.cls-52{fill:url(#linear-gradient-47);}</style><linearGradient id="linear-gradient" x1="282.26" y1="352.62" x2="307.83" y2="400.25" gradientUnits="userSpaceOnUse"><stop offset="0" stop-color="#ff820d"/><stop offset="1" stop-color="#ffdb0d"/></linearGradient><linearGradient id="linear-gradient-2" x1="356.5" y1="274.34" x2="449.5" y2="272.83" gradientUnits="userSpaceOnUse"><stop offset="0" stop-color="#0e0dff"/><stop offset="1" stop-color="#0dfffb"/></linearGradient><linearGradient id="linear-gradient-3" x1="525.85" y1="271.05" x2="507.3" y2="197.1" gradientUnits="userSpaceOnUse"><stop offset="0" stop-color="#ff0dc7"/><stop offset="1" stop-color="#ff340d"/></linearGradient><linearGradient id="linear-gradient-4" x1="899.41" y1="431.35" x2="988.82" y2="475.44" gradientUnits="userSpaceOnUse"><stop offset="0" stop-color="#00a61c"/><stop offset="1" stop-color="#9af763"/></linearGradient><linearGradient id="linear-gradient-5" x1="899.69" y1="430.79" x2="989.1" y2="474.87" xlink:href="#linear-gradient-4"/><linearGradient id="linear-gradient-6" x1="899.13" y1="431.92" x2="988.54" y2="476.01" xlink:href="#linear-gradient-4"/><linearGradient id="linear-gradient-7" x1="898.55" y1="433.11" x2="987.96" y2="477.19" xlink:href="#linear-gradient-4"/><linearGradient id="linear-gradient-8" x1="898.85" y1="432.49" x2="988.26" y2="476.57" xlink:href="#linear-gradient-4"/><linearGradient id="linear-gradient-9" x1="644.01" y1="588.98" x2="733.44" y2="521.92" xlink:href="#linear-gradient-2"/><linearGradient id="linear-gradient-10" x1="663.52" y1="614.99" x2="752.94" y2="547.92" xlink:href="#linear-gradient-2"/><linearGradient id="linear-gradient-11" x1="683.89" y1="642.16" x2="773.33" y2="575.09" xlink:href="#linear-gradient-2"/><linearGradient id="linear-gradient-12" x1="688.93" y1="648.86" x2="778.34" y2="581.8" xlink:href="#linear-gradient-2"/><linearGradient id="linear-gradient-13" x1="658.26" y1="607.97" x2="747.68" y2="540.91" xlink:href="#linear-gradient-2"/><linearGradient id="linear-gradient-14" x1="639.68" y1="583.22" x2="729.14" y2="516.12" xlink:href="#linear-gradient-2"/><linearGradient id="linear-gradient-15" x1="647.82" y1="594.05" x2="737.23" y2="526.98" xlink:href="#linear-gradient-2"/><linearGradient id="linear-gradient-16" x1="663.63" y1="615.14" x2="753.06" y2="548.07" xlink:href="#linear-gradient-2"/><linearGradient id="linear-gradient-17" x1="783.44" y1="543.51" x2="874.73" y2="472.1" gradientUnits="userSpaceOnUse"><stop offset="0" stop-color="#ff0d0d"/><stop offset="1" stop-color="#ff8b17"/></linearGradient><linearGradient id="linear-gradient-18" x1="506.54" y1="666.69" x2="623.93" y2="666.69" xlink:href="#linear-gradient"/><linearGradient id="linear-gradient-19" x1="87.26" y1="112.25" x2="96.99" y2="112.25" gradientUnits="userSpaceOnUse"><stop offset="0" stop-color="#fff"/><stop offset="0.32" stop-color="aqua"/><stop offset="0.55" stop-color="#14c2ff"/><stop offset="1" stop-color="#0dd1ff"/></linearGradient><linearGradient id="linear-gradient-20" x1="103.91" y1="290.79" x2="698.85" y2="290.79" xlink:href="#linear-gradient-19"/><linearGradient id="linear-gradient-21" x1="705.76" y1="469.34" x2="715.5" y2="469.34" xlink:href="#linear-gradient-19"/><linearGradient id="linear-gradient-22" x1="240.42" y1="623.84" x2="250.15" y2="623.84" xlink:href="#linear-gradient-19"/><linearGradient id="linear-gradient-23" x1="256.4" y1="689.02" x2="459.93" y2="689.02" xlink:href="#linear-gradient-19"/><linearGradient id="linear-gradient-24" x1="466.18" y1="754.19" x2="475.92" y2="754.19" xlink:href="#linear-gradient-19"/><linearGradient id="linear-gradient-25" x1="391.56" y1="822.06" x2="401.29" y2="822.06" xlink:href="#linear-gradient-19"/><linearGradient id="linear-gradient-26" x1="408.74" y1="874.23" x2="564.82" y2="874.23" xlink:href="#linear-gradient-19"/><linearGradient id="linear-gradient-27" x1="572.26" y1="926.39" x2="582" y2="926.39" xlink:href="#linear-gradient-19"/><linearGradient id="linear-gradient-28" x1="471.86" y1="427.32" x2="481.6" y2="427.32" xlink:href="#linear-gradient-19"/><linearGradient id="linear-gradient-29" x1="488.51" y1="605.87" x2="1083.45" y2="605.87" xlink:href="#linear-gradient-19"/><linearGradient id="linear-gradient-30" x1="1090.36" y1="784.43" x2="1100.1" y2="784.43" xlink:href="#linear-gradient-19"/><linearGradient id="linear-gradient-31" x1="5816.58" y1="9540.36" x2="5826.31" y2="9540.36" gradientTransform="translate(6054.72 -9734.42) rotate(59.81)" xlink:href="#linear-gradient-19"/><linearGradient id="linear-gradient-32" x1="5675.48" y1="9586.07" x2="5809.06" y2="9586.07" gradientTransform="translate(6054.72 -9734.42) rotate(59.81)" xlink:href="#linear-gradient-19"/><linearGradient id="linear-gradient-33" x1="5658.22" y1="9631.78" x2="5667.96" y2="9631.78" gradientTransform="translate(6054.72 -9734.42) rotate(59.81)" xlink:href="#linear-gradient-19"/><linearGradient id="linear-gradient-34" x1="323.85" y1="566.86" x2="333.59" y2="566.86" xlink:href="#linear-gradient-19"/><linearGradient id="linear-gradient-35" x1="16.48" y1="660.35" x2="317.11" y2="660.35" xlink:href="#linear-gradient-19"/><linearGradient id="linear-gradient-36" x1="0" y1="753.84" x2="9.74" y2="753.84" xlink:href="#linear-gradient-19"/><linearGradient id="linear-gradient-37" x1="1061.85" y1="222.86" x2="1071.59" y2="222.86" xlink:href="#linear-gradient-19"/><linearGradient id="linear-gradient-38" x1="754.48" y1="316.35" x2="1055.11" y2="316.35" xlink:href="#linear-gradient-19"/><linearGradient id="linear-gradient-39" x1="738" y1="409.84" x2="747.74" y2="409.84" xlink:href="#linear-gradient-19"/><linearGradient id="linear-gradient-40" x1="471.21" y1="765.38" x2="480.94" y2="765.38" xlink:href="#linear-gradient-19"/><linearGradient id="linear-gradient-41" x1="449.95" y1="776.17" x2="464.82" y2="776.17" xlink:href="#linear-gradient-19"/><linearGradient id="linear-gradient-42" x1="428.7" y1="788.44" x2="443.56" y2="788.44" xlink:href="#linear-gradient-19"/><linearGradient id="linear-gradient-43" x1="407.45" y1="800.71" x2="422.31" y2="800.71" xlink:href="#linear-gradient-19"/><linearGradient id="linear-gradient-44" x1="386.2" y1="812.98" x2="401.06" y2="812.98" xlink:href="#linear-gradient-19"/><linearGradient id="linear-gradient-45" x1="727.94" y1="99.72" x2="737.68" y2="99.72" xlink:href="#linear-gradient-19"/><linearGradient id="linear-gradient-46" x1="420.57" y1="193.21" x2="721.2" y2="193.21" xlink:href="#linear-gradient-19"/><linearGradient id="linear-gradient-47" x1="404.09" y1="286.7" x2="413.83" y2="286.7" xlink:href="#linear-gradient-19"/></defs><title>line of invent-01</title><g class="cls-1"><g id="Layer_1" data-name="Layer 1"><path class="cls-2" d="M322.16,344.52c-25.84-14.91-67.59-14.92-93.26,0s-25.53,39.11.3,54,67.6,14.92,93.27,0S348,359.44,322.16,344.52ZM314,393.66c-21,12.22-55.21,12.22-76.39,0s-21.26-32-.24-44.24,55.22-12.22,76.38,0S335,381.44,314,393.66Z"/><path class="cls-3" d="M322.19,344.5c-25.79-14.88-67.64-14.89-93.26,0-2.33,1.36-2.31,3.54,0,4.89a9.24,9.24,0,0,0,8.44,0c21-12.19,55.26-12.2,76.39,0s21.23,32.05.24,44.25c-2.33,1.35-2.31,3.54,0,4.89a9.35,9.35,0,0,0,8.45,0C348.13,383.63,348,359.4,322.19,344.5Z"/><path class="cls-4" d="M276.62,380.18c3,1.74,2.89,4.42-.43,6.35a13.66,13.66,0,0,1-4.77,1.67L270.36,387a12.58,12.58,0,0,0,4.12-1.41c1.95-1.13,2.35-2.84.29-4s-4.76-1.19-7.82.58a18.59,18.59,0,0,0-1.95,1.33l-6.41-4.84,7.32-4.26,1.76,1-5.84,3.39,3.37,2.63a8.18,8.18,0,0,1,1.15-.78,11.64,11.64,0,0,1,4.13-1.44A9.52,9.52,0,0,1,276.62,380.18Z"/><g class="cls-1"><path class="cls-4" d="M291,365.46c-1.81-1-1.84-2.2-.66-2.88a4.74,4.74,0,0,1,4.73.35c1.9,1.09,1.85,2.21.71,2.87A4.94,4.94,0,0,1,291,365.46Zm3.18-1.95c-1.09-.63-2.32-1-3.16-.49s-.26,1.2.87,1.86l0,0a3.49,3.49,0,0,0,3.14.46c.8-.46.3-1.16-.89-1.85"/><path class="cls-4" d="M285.57,364.16c1.9,1.09,1.85,2.21.7,2.88a5,5,0,0,1-4.8-.35c-1.79-1-1.82-2.19-.64-2.88A4.79,4.79,0,0,1,285.57,364.16Zm-3.08,2a3.39,3.39,0,0,0,3.07.44c.8-.47.3-1.17-.89-1.85s-2.32-1-3.16-.49-.25,1.19.88,1.85l.1.05"/><polygon class="cls-4" points="286.68 360.41 290.73 368.82 289.96 369.26 285.92 360.86 286.68 360.41"/><path class="cls-4" d="M286.56,371.09c5.24,3,6.2,5.81,2.82,7.78-3,1.74-7.84,1.29-13-1.63s-5.8-5.91-2.69-7.71S281.65,368.25,286.56,371.09Zm-8.07,5c4,2.31,7.5,2.91,9.38,1.82,2.12-1.23.65-3.26-3.28-5.53s-7.24-3.06-9.39-1.82c-1.81,1.06-.9,3.11,3.29,5.53"/></g><path class="cls-2" d="M440,276.06c-25.83-14.91-67.59-14.92-93.27,0s-25.52,39.11.31,54,67.6,14.93,93.27,0S465.81,291,440,276.06Zm-8.16,49.14c-21,12.22-55.22,12.22-76.39,0s-21.26-32-.25-44.25,55.22-12.22,76.38,0S452.83,313,431.81,325.2Z"/><path class="cls-5" d="M440,276c-25.79-14.89-67.63-14.89-93.26,0-2.33,1.35-2.32,3.54,0,4.89a9.3,9.3,0,0,0,8.44,0c21-12.2,55.25-12.2,76.37,0a9.32,9.32,0,0,0,8.45,0C442.35,279.58,442.34,277.39,440,276Z"/><path class="cls-6" d="M400.77,293.52c1.89,1.1,1.85,2.21.69,2.88a4.94,4.94,0,0,1-4.79-.35c-1.79-1-1.83-2.19-.65-2.87A4.78,4.78,0,0,1,400.77,293.52Zm-3.06,2a3.31,3.31,0,0,0,3.05.43c.79-.46.29-1.16-.89-1.85s-2.33-1-3.16-.49-.25,1.19.88,1.84l.12.07"/><path class="cls-6" d="M406.22,294.82c-1.81-1-1.84-2.19-.66-2.88a4.77,4.77,0,0,1,4.73.35c1.9,1.09,1.85,2.21.71,2.88A5,5,0,0,1,406.22,294.82Zm3.18-1.94c-1.09-.63-2.32-1-3.15-.49s-.27,1.19.86,1.85l.07,0a3.41,3.41,0,0,0,3.11.44c.8-.46.3-1.16-.89-1.84"/><polygon class="cls-6" points="401.88 289.77 405.92 298.18 405.15 298.63 401.11 290.22 401.88 289.77"/><path class="cls-6" d="M403.9,302.53c3,1.74,2.88,4.41-.44,6.35a14.11,14.11,0,0,1-4.76,1.67l-1.07-1.22a12.79,12.79,0,0,0,4.13-1.41c1.95-1.14,2.34-2.85.28-4s-4.75-1.19-7.82.59a17.16,17.16,0,0,0-2,1.33l-6.4-4.85,7.32-4.25,1.75,1-5.83,3.39,3.36,2.63a10.28,10.28,0,0,1,1.16-.78,11.51,11.51,0,0,1,4.12-1.43A9.49,9.49,0,0,1,403.9,302.53Z"/><path class="cls-6" d="M397.15,312.24l-9.77,5.68-1.28-.74,0-1.86c.16-4.43-.06-6.61-2.36-8a5.88,5.88,0,0,0-6,0,3.67,3.67,0,0,0-1.94,2.65l-2.13-.47a5,5,0,0,1,2.77-3.42,9.37,9.37,0,0,1,9.16-.14c2.84,1.64,3.09,4.16,3,7.84l-.09,1.37.05,0,6.87-4Z"/><path class="cls-2" d="M557.17,208C531.34,193,489.58,193,463.91,208s-25.53,39.1.3,54,67.6,14.92,93.28,0S583,222.87,557.17,208ZM549,257.08c-21,12.22-55.21,12.22-76.38,0s-21.27-32-.24-44.24,55.22-12.22,76.37,0S570,244.87,549,257.08Z"/><path class="cls-7" d="M557.21,207.93c-25.79-14.89-67.64-14.9-93.27,0-2.32,1.35-2.31,3.54,0,4.89a9.32,9.32,0,0,0,8.45,0c21-12.19,55.25-12.2,76.38,0s21.23,32.06.24,44.26-55.24,12.19-76.38,0a9.25,9.25,0,0,0-8.43,0c-2.32,1.35-2.32,3.54,0,4.88,25.79,14.89,67.64,14.9,93.27,0S583,222.82,557.21,207.93Z"/><path class="cls-8" d="M521.54,231.22c3,1.74,2.88,4.42-.43,6.35a13.66,13.66,0,0,1-4.77,1.67L515.28,238a12.58,12.58,0,0,0,4.12-1.41c2-1.13,2.35-2.84.29-4s-4.76-1.18-7.82.59a19.73,19.73,0,0,0-1.95,1.33l-6.4-4.84,7.32-4.26,1.75,1-5.84,3.4,3.37,2.62a9,9,0,0,1,1.15-.77,11.64,11.64,0,0,1,4.13-1.44A9.53,9.53,0,0,1,521.54,231.22Z"/><polygon class="cls-8" points="500.93 232.74 508.3 244.71 506.15 245.96 499.17 234.23 499.13 234.21 491.64 238.55 489.91 237.56 499.56 231.95 500.93 232.74"/><g class="cls-1"><path class="cls-8" d="M523.86,223.51c-1.81-1-1.84-2.19-.66-2.88a4.79,4.79,0,0,1,4.74.36c1.89,1.09,1.84,2.2.7,2.87A5,5,0,0,1,523.86,223.51Zm3.18-1.94c-1.08-.63-2.31-1-3.15-.49s-.27,1.2.86,1.86l0,0a3.49,3.49,0,0,0,3.14.46c.8-.46.3-1.16-.9-1.85"/><path class="cls-8" d="M518.42,222.22c1.89,1.09,1.84,2.2.69,2.87a5,5,0,0,1-4.8-.35c-1.79-1-1.82-2.18-.64-2.87A4.78,4.78,0,0,1,518.42,222.22Zm-3.09,2a3.41,3.41,0,0,0,3.08.44c.8-.47.3-1.17-.89-1.85s-2.32-1-3.16-.49-.26,1.19.87,1.84l.1.06"/><polygon class="cls-8" points="519.52 218.47 523.57 226.87 522.8 227.32 518.76 218.91 519.52 218.47"/></g><path class="cls-9" d="M959.5,435.21c1.75,0,3.13-.81,3.13-1.83a1.54,1.54,0,0,0-.9-1.28,4.44,4.44,0,0,0-2.22-.52c-15.13,0-28.77,3.53-38.62,9.3s-16,13.64-15.88,22.38a1.52,1.52,0,0,0,.9,1.28,4.39,4.39,0,0,0,2.22.52c1.75,0,3.14-.81,3.13-1.83,0-7.75,5.34-14.71,14.07-19.79S946.11,435.2,959.5,435.21Z"/><path class="cls-10" d="M959.48,425.54c1.71,0,3.14-.81,3.1-1.8a1.57,1.57,0,0,0-.94-1.29,4.45,4.45,0,0,0-2.23-.53c-19.67,0-37.49,4.61-50.39,12.11s-20.76,17.81-20.7,29.2a1.56,1.56,0,0,0,.92,1.29,4.43,4.43,0,0,0,2.23.54c1.71,0,3.11-.79,3.1-1.8-.06-10.43,7.14-19.84,18.89-26.67S941.48,425.54,959.48,425.54Z"/><path class="cls-11" d="M962.68,443.07a1.58,1.58,0,0,0-.92-1.29,4.55,4.55,0,0,0-2.24-.53c-10.43,0-19.94,2.47-26.81,6.46s-11.05,9.48-11,15.52a1.62,1.62,0,0,0,.93,1.3,4.66,4.66,0,0,0,2.24.53c1.67,0,3.06-.81,3.09-1.8,0-5.08,3.49-9.67,9.21-13s13.67-5.4,22.43-5.4C961.3,444.85,962.69,444,962.68,443.07Z"/><path class="cls-12" d="M963.54,461a8.5,8.5,0,0,0-7.76,0c-2.11,1.22-2.14,3.23,0,4.48a8.64,8.64,0,0,0,7.77,0C965.71,464.27,965.7,462.24,963.54,461Z"/><path class="cls-13" d="M962.73,452.71a1.55,1.55,0,0,0-.92-1.28,4.25,4.25,0,0,0-2.19-.52,30.49,30.49,0,0,0-15.07,3.63c-3.82,2.21-6.19,5.3-6.16,8.72a1.48,1.48,0,0,0,.88,1.27,4.51,4.51,0,0,0,2.23.53c1.75,0,3.14-.81,3.1-1.8,0-2.42,1.68-4.59,4.38-6.16a21.75,21.75,0,0,1,10.66-2.59C961.35,454.54,962.75,453.73,962.73,452.71Z"/><path class="cls-14" d="M647.9,592.72a1.59,1.59,0,0,0-.93-1.29,4.54,4.54,0,0,0-2.23-.53H633.35c-1.76,0-3.15.81-3.13,1.82a1.5,1.5,0,0,0,.9,1.29,4.41,4.41,0,0,0,2.21.51l11.43,0C646.47,594.52,647.86,593.72,647.9,592.72Z"/><path class="cls-15" d="M717.06,610.63l4.17-2.43a5,5,0,0,0,2.64-3.9A5,5,0,0,0,723,601a16.85,16.85,0,0,1-.85-1.59c-1.13-2.28-2.87-6-3.26-6.77-.06-4.85-3.23-9.72-9.64-13.42-12.86-7.42-33.69-7.41-46.48,0s-12.71,19.47.16,26.89c6.4,3.7,14.79,5.55,23.16,5.57.89.14,3.68.56,6.58,1,1.79.25,3.63.58,5.15.81s2.67.48,2.71.51a24.85,24.85,0,0,0,5.66.51,15.34,15.34,0,0,0,6.76-1.58Zm-8.57-.17a6.09,6.09,0,0,1-2.66.49,16,16,0,0,1-2.87-.19c-.84-.21-1.88-.39-3.46-.66-3.86-.64-9.79-1.56-11.61-1.84a5.32,5.32,0,0,0-1.36-.18c-7,.08-13.9-1.4-19.22-4.47s-7.8-6.94-7.86-10.89,2.58-7.88,7.74-10.88,12-4.5,18.77-4.53,13.6,1.5,18.83,4.53,7.88,7.08,7.83,11.09a1.18,1.18,0,0,0,.16.58c.2.42,1,2.12,1.85,3.94.52,1,1,2.1,1.5,3a17.13,17.13,0,0,0,1.12,2,2.7,2.7,0,0,1,.33,1.66,1.81,1.81,0,0,1-.79,1.52l-4.17,2.43Z"/><path class="cls-16" d="M731.34,608.11a4.94,4.94,0,0,0-4.46,0l-13.73,8c-1.2.7-1.19,1.85.05,2.56a4.88,4.88,0,0,0,4.42,0l13.74-8A1.36,1.36,0,0,0,731.34,608.11Z"/><path class="cls-17" d="M737.23,613.8a4.88,4.88,0,0,0-4.39,0L723,619.52a1.36,1.36,0,0,0,0,2.55,5,5,0,0,0,4.43,0l9.84-5.73C738.52,615.65,738.47,614.52,737.23,613.8Z"/><path class="cls-18" d="M659.14,608.36a4.85,4.85,0,0,0-4.42,0L646.65,613c-1.19.7-1.18,1.85.06,2.57a4.91,4.91,0,0,0,4.42,0l8.06-4.69C660.42,610.21,660.37,609.08,659.14,608.36Z"/><path class="cls-19" d="M646.46,572.4l8.08,4.66a4.91,4.91,0,0,0,4.42,0,1.36,1.36,0,0,0,0-2.58l-8.08-4.66a4.87,4.87,0,0,0-4.46,0C645.23,570.53,645.23,571.69,646.46,572.4Z"/><path class="cls-20" d="M683.73,570.07a4.54,4.54,0,0,0,2.23.53c1.72,0,3.11-.83,3.14-1.82l-.12-6.6a1.52,1.52,0,0,0-.9-1.28,4.41,4.41,0,0,0-2.21-.52c-1.72,0-3.15.8-3.1,1.8l0,6.6A1.59,1.59,0,0,0,683.73,570.07Z"/><path class="cls-21" d="M713,577.08a4.9,4.9,0,0,0,4.47,0l8-4.65c1.22-.72,1.22-1.87,0-2.59a4.87,4.87,0,0,0-4.46,0l-8,4.66A1.36,1.36,0,0,0,713,577.08Z"/><path class="cls-22" d="M827.45,502.65a3.82,3.82,0,0,0-1.31-.45,4.88,4.88,0,0,0-3.11.46l-10,5.8-15.49-18.23a2.06,2.06,0,0,0-.59-.49,4.58,4.58,0,0,0-1.72-.53,4.88,4.88,0,0,0-2.71.51l-33.5,19.47c-1.07.62-1.19,1.61-.34,2.33l31.92,25.79a3.07,3.07,0,0,0,.35.24,4.34,4.34,0,0,0,1.93.52,4.44,4.44,0,0,0,2.47-.51l14.05-8.16,30,20.22A4.93,4.93,0,0,0,843,550c1.32-.35,2-1.17,1.67-2l-16.42-44.39A1.74,1.74,0,0,0,827.45,502.65Zm-15.64,22.82a4.21,4.21,0,0,0-2.12-.52,4.3,4.3,0,0,0-2.31.5l-13.81,8-28.19-22.82,28.53-16.58,15.43,18.25a2.73,2.73,0,0,0,.61.47,4.24,4.24,0,0,0,1.74.52,4.81,4.81,0,0,0,2.71-.51l9-5.21L836,541.76Z"/><path class="cls-23" d="M620,656.46,582.7,634.91a15.18,15.18,0,0,0-2.87-1.25,4.55,4.55,0,0,0-.59-.18c-5-1.44-11.13-1-15.26,1.43l-53.59,31.15c-5.17,3-5.13,7.85.06,10.85l37.31,21.54c5.2,3,13.56,3,18.72,0l53.6-31.14C625.24,664.3,625.21,659.47,620,656.46Zm-105.2,12.16,53.6-31.14a10.53,10.53,0,0,1,6.14-1.14l-8.69,30.72-53,5.12C512.52,670.93,513.17,669.59,514.82,668.62Zm100.83-3.87-53.6,31.14a10.89,10.89,0,0,1-9.88,0l-35.35-20.41,52.3-5.08c1.31-.12,2.34-.72,2.54-1.48l8.63-30.29L615.61,659C618.37,660.62,618.38,663.15,615.65,664.75Z"/><path class="cls-24" d="M94.88,116a2.13,2.13,0,0,1-1.06-.28l-5.5-3.18a2.12,2.12,0,0,1,2.11-3.67l5.5,3.18a2.12,2.12,0,0,1-1.05,4Z"/><path class="cls-25" d="M696.74,463.44a2,2,0,0,1-1.06-.29l-11.15-6.43a2.11,2.11,0,1,1,2.12-3.66l11.14,6.43a2.12,2.12,0,0,1-1,3.95Zm-22.3-12.87a2.07,2.07,0,0,1-1.06-.29l-11.14-6.43a2.11,2.11,0,1,1,2.12-3.66l11.14,6.43a2.12,2.12,0,0,1-1.06,3.95ZM652.15,437.7a2.16,2.16,0,0,1-1.06-.28L640,431a2.11,2.11,0,0,1,2.12-3.66l11.14,6.43a2.12,2.12,0,0,1-1.06,3.95Zm-22.29-12.87a2.16,2.16,0,0,1-1.06-.28l-11.14-6.44a2.12,2.12,0,0,1,2.12-3.67l11.14,6.44a2.12,2.12,0,0,1-1.06,3.95ZM607.57,412a2.16,2.16,0,0,1-1.06-.28l-11.14-6.44a2.12,2.12,0,0,1,2.11-3.67L608.63,408a2.12,2.12,0,0,1-1.06,3.95Zm-22.29-12.87a2.16,2.16,0,0,1-1.06-.28l-11.14-6.44a2.12,2.12,0,0,1,2.11-3.67l11.15,6.44a2.12,2.12,0,0,1-1.06,3.95ZM563,386.22a2.16,2.16,0,0,1-1.06-.28l-11.15-6.44a2.12,2.12,0,0,1,2.12-3.67l11.15,6.44a2.12,2.12,0,0,1-1.06,4ZM540.7,373.35a2.13,2.13,0,0,1-1.06-.28l-11.15-6.44a2.12,2.12,0,0,1,2.12-3.67l11.15,6.44a2.12,2.12,0,0,1-1.06,4Zm-22.29-12.87a2.13,2.13,0,0,1-1.06-.28l-11.15-6.44a2.12,2.12,0,0,1,2.12-3.67l11.15,6.44a2.12,2.12,0,0,1-1.06,4Zm-22.3-12.87a2,2,0,0,1-1.05-.29l-11.15-6.43a2.12,2.12,0,0,1,2.12-3.67l11.14,6.44a2.12,2.12,0,0,1-1.06,3.95Zm-22.29-12.87a2.09,2.09,0,0,1-1.05-.28L461.62,328a2.12,2.12,0,0,1,2.12-3.67l11.14,6.44a2.12,2.12,0,0,1-1.06,3.95Zm-22.28-12.87a2.13,2.13,0,0,1-1.06-.28l-11.15-6.44a2.12,2.12,0,0,1,2.12-3.67l11.14,6.44a2.12,2.12,0,0,1-1,3.95ZM429.24,309a2.16,2.16,0,0,1-1.06-.28L417,302.28a2.12,2.12,0,0,1-.78-2.89,2.15,2.15,0,0,1,2.9-.78l11.14,6.44a2.12,2.12,0,0,1-1.06,3.95ZM407,296.13a2.16,2.16,0,0,1-1.06-.28l-11.14-6.44a2.12,2.12,0,0,1,2.12-3.67L408,292.18a2.12,2.12,0,0,1-1.06,3.95Zm-22.29-12.87a2.16,2.16,0,0,1-1.06-.28l-11.14-6.44a2.1,2.1,0,0,1-.78-2.89,2.13,2.13,0,0,1,2.89-.78l11.15,6.44a2.12,2.12,0,0,1-1.06,3.95Zm-22.29-12.87a2.16,2.16,0,0,1-1.06-.28l-11.14-6.44a2.12,2.12,0,1,1,2.11-3.67l11.15,6.44a2.12,2.12,0,0,1-1.06,3.95Zm-22.29-12.87a2.07,2.07,0,0,1-1.06-.29l-11.14-6.43a2.12,2.12,0,0,1,2.11-3.67l11.15,6.44a2.12,2.12,0,0,1-1.06,3.95Zm-22.29-12.87a2.13,2.13,0,0,1-1.06-.28l-11.15-6.44a2.12,2.12,0,0,1,2.12-3.67l11.14,6.44a2.12,2.12,0,0,1-1,4ZM295.5,231.78a2.13,2.13,0,0,1-1.06-.28l-11.15-6.44a2.12,2.12,0,0,1,2.12-3.67l11.15,6.44a2.12,2.12,0,0,1-1.06,3.95Zm-22.29-12.87a2.13,2.13,0,0,1-1.06-.28L261,212.19a2.12,2.12,0,0,1,2.12-3.67L274.27,215a2.12,2.12,0,0,1-1.06,3.95ZM250.91,206a2.16,2.16,0,0,1-1.06-.28l-11.14-6.44a2.12,2.12,0,0,1,2.12-3.67L252,202.09a2.12,2.12,0,0,1-1.06,3.95Zm-22.29-12.87a2,2,0,0,1-1.05-.29l-11.15-6.43a2.12,2.12,0,0,1,2.12-3.67l11.14,6.44a2.12,2.12,0,0,1-1.06,3.95ZM206.33,180.3a2.09,2.09,0,0,1-1.05-.28l-11.15-6.44a2.12,2.12,0,0,1,2.11-3.67l11.15,6.44a2.12,2.12,0,0,1-1.06,4ZM184,167.43a2.07,2.07,0,0,1-1.06-.29l-11.14-6.43A2.12,2.12,0,1,1,174,157l11.14,6.44a2.12,2.12,0,0,1-1.06,4Zm-22.29-12.87a2.16,2.16,0,0,1-1.06-.28l-11.14-6.44a2.12,2.12,0,0,1,2.12-3.67l11.14,6.44a2.12,2.12,0,0,1-1.06,3.95Zm-22.29-12.87a2.16,2.16,0,0,1-1.06-.28L127.25,135a2.12,2.12,0,0,1,2.12-3.67l11.15,6.44a2.12,2.12,0,0,1-1.06,3.95Zm-22.29-12.87a2.16,2.16,0,0,1-1.06-.28L105,122.1a2.12,2.12,0,0,1,2.11-3.67l11.15,6.44a2.12,2.12,0,0,1-1.06,3.95Z"/><path class="cls-26" d="M713.38,473.05a2.07,2.07,0,0,1-1.06-.29l-5.5-3.17a2.12,2.12,0,0,1,2.11-3.67l5.51,3.18a2.12,2.12,0,0,1-1.06,3.95Z"/><path class="cls-27" d="M248,627.55a2,2,0,0,1-1.05-.29l-5.5-3.17a2.12,2.12,0,0,1,2.11-3.67l5.5,3.18a2.12,2.12,0,0,1-1.06,3.95Z"/><path class="cls-28" d="M457.81,748.67a2.07,2.07,0,0,1-1.06-.29l-10.49-6.06a2.11,2.11,0,1,1,2.12-3.66l10.49,6.06a2.12,2.12,0,0,1-1.06,3.95Zm-21-12.11a2.07,2.07,0,0,1-1.06-.29l-10.49-6.06a2.11,2.11,0,1,1,2.12-3.66l10.49,6.06a2.12,2.12,0,0,1-1.06,3.95Zm-21-12.12a2.16,2.16,0,0,1-1.06-.28l-10.48-6.06a2.11,2.11,0,1,1,2.12-3.66l10.48,6a2.11,2.11,0,0,1-1.06,4Zm-21-12.11a2.13,2.13,0,0,1-1.06-.28L383.33,706a2.12,2.12,0,0,1,2.12-3.67l10.48,6.06a2.12,2.12,0,0,1-1.05,4Zm-21-12.11a2,2,0,0,1-1.06-.29l-10.49-6a2.11,2.11,0,1,1,2.12-3.66l10.49,6a2.12,2.12,0,0,1-1.06,4Zm-21-12.11a2.07,2.07,0,0,1-1.06-.29l-10.49-6.05a2.12,2.12,0,0,1,2.12-3.67L354,684.16a2.12,2.12,0,0,1-1.06,4Zm-21-12.12a2.09,2.09,0,0,1-1.05-.28l-10.5-6.06a2.11,2.11,0,1,1,2.12-3.66L333,672a2.11,2.11,0,0,1-1.06,4Zm-21-12.11a2.13,2.13,0,0,1-1.06-.28l-10.49-6.06a2.11,2.11,0,1,1,2.12-3.66l10.48,6a2.12,2.12,0,0,1-1,4Zm-21-12.11a2,2,0,0,1-1.06-.29l-10.49-6.05a2.11,2.11,0,1,1,2.12-3.66l10.49,6.05a2.12,2.12,0,0,1-1.06,3.95Zm-21-12.11a2,2,0,0,1-1.06-.29l-10.49-6a2.12,2.12,0,0,1,2.12-3.67l10.49,6.06a2.12,2.12,0,0,1-1.06,3.95Z"/><path class="cls-29" d="M473.8,757.9a2.07,2.07,0,0,1-1.06-.29l-5.5-3.17a2.12,2.12,0,0,1,2.12-3.67l5.5,3.18a2.12,2.12,0,0,1-1.06,3.95Z"/><path class="cls-30" d="M399.18,825.76a2.13,2.13,0,0,1-1.06-.28l-5.5-3.18a2.11,2.11,0,1,1,2.11-3.66l5.5,3.17a2.12,2.12,0,0,1-1.05,4Z"/><path class="cls-31" d="M562.7,920.18a2.16,2.16,0,0,1-1.06-.28L550,913.15a2.11,2.11,0,1,1,2.11-3.66l11.68,6.74a2.12,2.12,0,0,1-1.06,3.95Zm-23.36-13.49a2.16,2.16,0,0,1-1.06-.28l-11.67-6.75a2.11,2.11,0,1,1,2.11-3.66l11.68,6.74a2.12,2.12,0,0,1-1.06,4ZM516,893.21a2.07,2.07,0,0,1-1.06-.29l-11.68-6.74a2.12,2.12,0,0,1,2.12-3.67L517,889.26a2.12,2.12,0,0,1-1.06,4Zm-23.36-13.49a2.07,2.07,0,0,1-1.06-.29l-11.68-6.74A2.12,2.12,0,0,1,482,869l11.68,6.75a2.12,2.12,0,0,1-1.06,4Zm-23.36-13.49a2.07,2.07,0,0,1-1.06-.29l-11.68-6.74a2.12,2.12,0,0,1,2.12-3.67l11.68,6.75a2.12,2.12,0,0,1-1.06,4ZM445.9,852.74a2.16,2.16,0,0,1-1.06-.28l-11.68-6.75a2.11,2.11,0,0,1,2.12-3.66L447,848.79a2.12,2.12,0,0,1-1.06,4Zm-23.36-13.49a2.16,2.16,0,0,1-1.06-.28l-11.68-6.75a2.11,2.11,0,1,1,2.12-3.66l11.68,6.74a2.12,2.12,0,0,1-1.06,4Z"/><path class="cls-32" d="M579.89,930.1a2,2,0,0,1-1.06-.29l-5.51-3.17a2.12,2.12,0,0,1,2.12-3.67l5.5,3.18a2.12,2.12,0,0,1-1.05,4Z"/><path class="cls-33" d="M479.48,431a2.07,2.07,0,0,1-1.06-.29l-5.5-3.17A2.12,2.12,0,0,1,475,423.9l5.51,3.18a2.12,2.12,0,0,1-1.06,3.95Z"/><path class="cls-34" d="M1081.33,778.52a2,2,0,0,1-1-.29l-11.15-6.43a2.11,2.11,0,1,1,2.11-3.66l11.15,6.43a2.12,2.12,0,0,1-1.06,3.95ZM1059,765.65a2.16,2.16,0,0,1-1.06-.28l-11.14-6.44a2.11,2.11,0,1,1,2.12-3.66l11.14,6.43a2.12,2.12,0,0,1-1.06,3.95Zm-22.29-12.87a2.16,2.16,0,0,1-1.06-.28l-11.14-6.44a2.12,2.12,0,0,1,2.12-3.67l11.14,6.44a2.12,2.12,0,0,1-1.06,3.95Zm-22.29-12.87a2,2,0,0,1-1.06-.29l-11.14-6.43a2.12,2.12,0,1,1,2.11-3.67l11.15,6.44a2.12,2.12,0,0,1-1.06,3.95ZM992.17,727a2.07,2.07,0,0,1-1.06-.29L980,720.32a2.11,2.11,0,1,1,2.11-3.66l11.15,6.43a2.12,2.12,0,0,1-1.06,3.95Zm-22.29-12.87a2.07,2.07,0,0,1-1.06-.29l-11.14-6.43a2.11,2.11,0,1,1,2.11-3.66l11.15,6.43a2.12,2.12,0,0,1-1.06,3.95ZM947.59,701.3a2.13,2.13,0,0,1-1.06-.28l-11.15-6.44a2.11,2.11,0,1,1,2.12-3.66l11.14,6.43a2.12,2.12,0,0,1-1,3.95ZM925.3,688.43a2,2,0,0,1-1.06-.29l-11.15-6.43a2.12,2.12,0,0,1,2.12-3.67l11.15,6.44a2.12,2.12,0,0,1-1.06,3.95ZM903,675.56a2,2,0,0,1-1.06-.29l-11.15-6.43a2.12,2.12,0,0,1,2.12-3.67l11.15,6.44a2.12,2.12,0,0,1-1.06,3.95Zm-22.3-12.87a2.07,2.07,0,0,1-1.06-.29L868.51,656a2.11,2.11,0,1,1,2.12-3.66l11.14,6.43a2.12,2.12,0,0,1-1.06,4Zm-22.29-12.87a2,2,0,0,1-1-.29l-11.15-6.43a2.11,2.11,0,1,1,2.12-3.66l11.14,6.43a2.12,2.12,0,0,1-1.06,4ZM836.13,637a2.09,2.09,0,0,1-1-.28l-11.15-6.44a2.12,2.12,0,1,1,2.11-3.67L837.19,633a2.12,2.12,0,0,1-1.06,4Zm-22.29-12.87a2.07,2.07,0,0,1-1.06-.29l-11.14-6.43a2.12,2.12,0,1,1,2.12-3.67l11.14,6.44a2.12,2.12,0,0,1-1.06,4Zm-22.29-12.87a2.07,2.07,0,0,1-1.06-.29l-11.14-6.43a2.12,2.12,0,0,1,2.12-3.67l11.14,6.44a2.12,2.12,0,0,1-1.06,4Zm-22.29-12.87a2,2,0,0,1-1.06-.29l-11.15-6.43a2.11,2.11,0,1,1,2.12-3.66l11.15,6.43a2.12,2.12,0,0,1-1.06,4ZM747,585.47a2.16,2.16,0,0,1-1.06-.28l-11.14-6.44a2.12,2.12,0,1,1,2.11-3.67L748,581.52a2.12,2.12,0,0,1-1.06,4ZM724.68,572.6a2.07,2.07,0,0,1-1.06-.29l-11.14-6.43a2.12,2.12,0,1,1,2.11-3.67l11.15,6.44a2.12,2.12,0,0,1-1.06,4Zm-22.29-12.87a2,2,0,0,1-1.06-.29L690.18,553a2.12,2.12,0,0,1,2.12-3.67l11.14,6.44a2.12,2.12,0,0,1-1.05,4ZM680.1,546.86a2,2,0,0,1-1.06-.29l-11.15-6.43a2.12,2.12,0,0,1,2.12-3.67l11.14,6.44a2.12,2.12,0,0,1-1,4ZM657.81,534a2,2,0,0,1-1.06-.29l-11.15-6.43a2.11,2.11,0,1,1,2.12-3.66L658.87,530a2.12,2.12,0,0,1-1.06,4Zm-22.3-12.87a2.07,2.07,0,0,1-1.06-.29l-11.14-6.43a2.12,2.12,0,0,1,2.12-3.67l11.14,6.44a2.12,2.12,0,0,1-1.06,4Zm-22.29-12.87a2,2,0,0,1-1.05-.29L601,501.53a2.12,2.12,0,0,1,2.12-3.67l11.14,6.44a2.12,2.12,0,0,1-1.06,3.95Zm-22.29-12.87a2,2,0,0,1-1-.29l-11.15-6.43a2.12,2.12,0,1,1,2.11-3.67L592,491.43a2.12,2.12,0,0,1-1.06,3.95Zm-22.29-12.87a2.07,2.07,0,0,1-1.06-.29l-11.14-6.43a2.12,2.12,0,0,1,2.11-3.67l11.15,6.44a2.12,2.12,0,0,1-1.06,3.95Zm-22.29-12.87a2.07,2.07,0,0,1-1.06-.29l-11.14-6.43a2.12,2.12,0,1,1,2.12-3.67l11.14,6.44a2.12,2.12,0,0,1-1.06,3.95Zm-22.29-12.87a2.07,2.07,0,0,1-1.06-.29l-11.15-6.43a2.12,2.12,0,0,1,2.12-3.67l11.15,6.44a2.12,2.12,0,0,1-1.06,3.95ZM501.77,443.9a2,2,0,0,1-1.06-.29l-11.14-6.43a2.12,2.12,0,0,1,2.11-3.67L502.83,440a2.12,2.12,0,0,1-1.06,3.95Z"/><path class="cls-35" d="M1098,788.13a2.07,2.07,0,0,1-1.06-.29l-5.5-3.17a2.11,2.11,0,0,1,2.12-3.66l5.5,3.17a2.12,2.12,0,0,1-1.06,4Z"/><path class="cls-36" d="M730.56,94.09a2.09,2.09,0,0,1,0-2.11,2.12,2.12,0,0,1,2.89-.79L739,94.35a2.11,2.11,0,1,1-2.1,3.67l-5.51-3.15A2.16,2.16,0,0,1,730.56,94.09Z"/><path class="cls-37" d="M589.2,13.09a2.12,2.12,0,0,1,2.88-2.9l11.78,6.75a2.11,2.11,0,1,1-2.1,3.67L590,13.86A2.06,2.06,0,0,1,589.2,13.09Zm23.56,13.5a2.12,2.12,0,0,1,2.89-2.9l11.78,6.75a2.12,2.12,0,0,1-2.11,3.67l-11.78-6.74A2.24,2.24,0,0,1,612.76,26.59Zm23.56,13.5a2.12,2.12,0,0,1,2.88-2.9L651,43.94a2.11,2.11,0,1,1-2.1,3.67L637.1,40.86A2.06,2.06,0,0,1,636.32,40.09Zm23.56,13.5a2.12,2.12,0,0,1,2.89-2.9l11.77,6.75a2.12,2.12,0,0,1-2.1,3.68l-11.78-6.75A2.16,2.16,0,0,1,659.88,53.59Zm23.56,13.5a2.12,2.12,0,0,1,2.88-2.9l11.78,6.75a2.11,2.11,0,1,1-2.1,3.67l-11.78-6.75A2.06,2.06,0,0,1,683.44,67.09ZM707,80.59a2.12,2.12,0,0,1,2.89-2.9l11.77,6.75a2.12,2.12,0,0,1-2.1,3.68l-11.78-6.75A2.16,2.16,0,0,1,707,80.59Z"/><path class="cls-38" d="M571.91,3.18a2.09,2.09,0,0,1,0-2.11,2.12,2.12,0,0,1,2.89-.79l5.51,3.16a2.12,2.12,0,0,1-2.1,3.68L572.69,4A2.16,2.16,0,0,1,571.91,3.18Z"/><path class="cls-39" d="M326,570.57a2.12,2.12,0,0,1-1.06-4l5.5-3.18a2.11,2.11,0,0,1,2.12,3.66l-5.5,3.18A2.17,2.17,0,0,1,326,570.57Z"/><path class="cls-40" d="M18.6,748a2.12,2.12,0,0,1-1.06-3.95l11-6.34a2.12,2.12,0,1,1,2.11,3.67l-11,6.34A2.16,2.16,0,0,1,18.6,748Zm22-12.68a2.11,2.11,0,0,1-1.06-4l11-6.33a2.11,2.11,0,0,1,2.12,3.66l-11,6.34A2.09,2.09,0,0,1,40.56,735.35Zm21.95-12.67a2.12,2.12,0,0,1-1.06-3.95l11-6.34a2.11,2.11,0,1,1,2.11,3.66l-11,6.34A2.07,2.07,0,0,1,62.51,722.68ZM84.46,710a2.11,2.11,0,0,1-1-3.94l11-6.34a2.11,2.11,0,0,1,2.12,3.66l-11,6.34A2.13,2.13,0,0,1,84.46,710Zm22-12.67a2.12,2.12,0,0,1-1.06-4l11-6.34a2.11,2.11,0,0,1,2.12,3.66l-11,6.34A2.17,2.17,0,0,1,106.42,697.33Zm22-12.68a2.12,2.12,0,0,1-1.06-3.95l11-6.34a2.12,2.12,0,0,1,2.12,3.67l-11,6.34A2.13,2.13,0,0,1,128.37,684.65Zm22-12.67a2.12,2.12,0,0,1-1.06-4l11-6.34a2.11,2.11,0,0,1,2.12,3.66l-11,6.34A2.07,2.07,0,0,1,150.33,672Zm21.95-12.68a2.12,2.12,0,0,1-1.06-3.95l11-6.34a2.12,2.12,0,0,1,2.12,3.67l-11,6.33A2,2,0,0,1,172.28,659.3Zm22-12.68a2.12,2.12,0,0,1-1.06-4l11-6.33a2.11,2.11,0,1,1,2.11,3.66l-11,6.34A2.16,2.16,0,0,1,194.24,646.62Zm22-12.67a2.12,2.12,0,0,1-1.06-4l11-6.34a2.11,2.11,0,0,1,2.12,3.66l-11,6.34A2,2,0,0,1,216.2,634Zm22-12.68a2.12,2.12,0,0,1-1.06-3.95l11-6.34a2.12,2.12,0,0,1,2.12,3.67l-11,6.34A2.16,2.16,0,0,1,238.15,621.27Zm22-12.68a2.11,2.11,0,0,1-1.05-4l11-6.33a2.11,2.11,0,1,1,2.12,3.66l-11,6.34A2.13,2.13,0,0,1,260.1,608.59Zm22-12.67A2.12,2.12,0,0,1,281,592l11-6.34a2.11,2.11,0,1,1,2.12,3.66l-11,6.34A2.07,2.07,0,0,1,282.06,595.92ZM304,583.24a2.13,2.13,0,0,1-1.83-1,2.11,2.11,0,0,1,.77-2.89l11-6.34a2.11,2.11,0,1,1,2.12,3.66l-11,6.34A2.13,2.13,0,0,1,304,583.24Z"/><path class="cls-41" d="M2.12,757.55a2.12,2.12,0,0,1-1.06-3.95l5.5-3.18a2.12,2.12,0,0,1,2.12,3.67l-5.5,3.17A2.07,2.07,0,0,1,2.12,757.55Z"/><path class="cls-42" d="M1064,226.57a2.12,2.12,0,0,1-1.06-3.95l5.5-3.18a2.11,2.11,0,1,1,2.12,3.66l-5.5,3.18A2.17,2.17,0,0,1,1064,226.57Z"/><path class="cls-43" d="M756.6,404a2.12,2.12,0,0,1-1.06-3.95l11-6.34a2.12,2.12,0,0,1,2.11,3.67l-11,6.34A2.16,2.16,0,0,1,756.6,404Zm22-12.68a2.11,2.11,0,0,1-1.06-4l11-6.33a2.11,2.11,0,0,1,2.12,3.66l-11,6.34A2.09,2.09,0,0,1,778.56,391.35Zm22-12.67a2.12,2.12,0,0,1-1.06-3.95l11-6.34a2.11,2.11,0,1,1,2.11,3.66l-11,6.34A2.07,2.07,0,0,1,800.51,378.68Zm22-12.68a2.11,2.11,0,0,1-1.05-3.94l11-6.34a2.11,2.11,0,0,1,2.12,3.66l-11,6.34A2.13,2.13,0,0,1,822.46,366Zm22-12.67a2.12,2.12,0,0,1-1.06-3.95l11-6.34a2.11,2.11,0,0,1,2.12,3.66l-11,6.34A2.17,2.17,0,0,1,844.42,353.33Zm22-12.68a2.12,2.12,0,0,1-1.06-3.95l11-6.34a2.12,2.12,0,0,1,2.12,3.67l-11,6.34A2.13,2.13,0,0,1,866.37,340.65Zm22-12.67a2.12,2.12,0,0,1-1.06-4l11-6.34a2.11,2.11,0,0,1,2.12,3.66l-11,6.34A2.07,2.07,0,0,1,888.33,328Zm21.95-12.68a2.12,2.12,0,0,1-1.06-3.95l11-6.34a2.12,2.12,0,0,1,2.12,3.67l-11,6.33A2,2,0,0,1,910.28,315.3Zm22-12.68a2.12,2.12,0,0,1-1.06-3.95l11-6.33a2.11,2.11,0,1,1,2.11,3.66l-11,6.34A2.16,2.16,0,0,1,932.24,302.62Zm22-12.67a2.12,2.12,0,0,1-1.06-3.95l11-6.34a2.11,2.11,0,0,1,2.12,3.66l-11,6.34A2,2,0,0,1,954.2,290Zm21.95-12.68a2.12,2.12,0,0,1-1.06-3.95l11-6.34a2.12,2.12,0,0,1,2.12,3.67l-11,6.34A2.16,2.16,0,0,1,976.15,277.27Zm22-12.68a2.11,2.11,0,0,1-1.05-3.95l11-6.33a2.11,2.11,0,1,1,2.12,3.66l-11,6.34A2.13,2.13,0,0,1,998.1,264.59Zm22-12.67A2.12,2.12,0,0,1,1019,248l11-6.34a2.11,2.11,0,1,1,2.12,3.66l-11,6.34A2.07,2.07,0,0,1,1020.06,251.92Zm22-12.68a2.13,2.13,0,0,1-1.83-1.05,2.11,2.11,0,0,1,.77-2.89l11-6.34a2.11,2.11,0,1,1,2.12,3.66l-11,6.34A2.13,2.13,0,0,1,1042,239.24Z"/><path class="cls-44" d="M740.12,413.55a2.12,2.12,0,0,1-1.06-3.95l5.5-3.18a2.12,2.12,0,0,1,2.12,3.67l-5.5,3.17A2.07,2.07,0,0,1,740.12,413.55Z"/><path class="cls-45" d="M473.33,769.09a2.14,2.14,0,0,1-1.84-1.06,2.11,2.11,0,0,1,.78-2.89l5.5-3.18a2.11,2.11,0,1,1,2.11,3.66l-5.5,3.18A2.1,2.1,0,0,1,473.33,769.09Z"/><path class="cls-46" d="M464.53,772a2.11,2.11,0,0,0-2.89-.77L451,777.41a2.12,2.12,0,0,0,1.06,4,2.17,2.17,0,0,0,1.06-.29l10.63-6.14A2.11,2.11,0,0,0,464.53,772Z"/><path class="cls-47" d="M440.39,783.54l-10.63,6.13a2.12,2.12,0,0,0,1.06,4,2.16,2.16,0,0,0,1.06-.28l10.63-6.14a2.11,2.11,0,0,0-2.12-3.66Z"/><path class="cls-48" d="M419.14,795.81l-10.63,6.13a2.12,2.12,0,0,0,1.06,3.95,2.16,2.16,0,0,0,1.06-.28l10.62-6.14a2.11,2.11,0,1,0-2.11-3.66Z"/><path class="cls-49" d="M397.89,808.08l-10.63,6.13a2.12,2.12,0,0,0,1.06,3.95,2.09,2.09,0,0,0,1.05-.28L400,811.75a2.12,2.12,0,1,0-2.11-3.67Z"/><path class="cls-50" d="M730.06,103.42a2.12,2.12,0,0,1-1.06-4l5.51-3.17a2.11,2.11,0,1,1,2.11,3.66l-5.5,3.18A2.13,2.13,0,0,1,730.06,103.42Z"/><path class="cls-51" d="M422.69,280.89a2.12,2.12,0,0,1-1.06-3.95l11-6.34a2.12,2.12,0,0,1,2.12,3.67l-11,6.33A2.07,2.07,0,0,1,422.69,280.89Zm22-12.68a2.12,2.12,0,0,1-1.06-3.95l11-6.33a2.11,2.11,0,1,1,2.11,3.66l-11,6.34A2.16,2.16,0,0,1,444.65,268.21Zm22-12.67a2.12,2.12,0,0,1-1.05-3.95l11-6.34a2.11,2.11,0,1,1,2.12,3.66l-11,6.34A2,2,0,0,1,466.6,255.54Zm22-12.68a2.12,2.12,0,0,1-1.06-4l11-6.34a2.12,2.12,0,0,1,2.11,3.67l-11,6.34A2.16,2.16,0,0,1,488.56,242.86Zm21.95-12.68a2.12,2.12,0,0,1-1.06-4l11-6.33a2.11,2.11,0,1,1,2.12,3.66l-11,6.34A2.13,2.13,0,0,1,510.51,230.18Zm22-12.67a2.12,2.12,0,0,1-1.06-3.95l11-6.34a2.11,2.11,0,0,1,2.12,3.66l-11,6.34A2.07,2.07,0,0,1,532.47,217.51Zm21.95-12.68a2.12,2.12,0,0,1-1.06-4l11-6.34a2.12,2.12,0,0,1,2.12,3.67l-11,6.34A2.13,2.13,0,0,1,554.42,204.83Zm22-12.68a2.11,2.11,0,0,1-1.06-4l11-6.33a2.11,2.11,0,1,1,2.11,3.66l-11,6.34A2.16,2.16,0,0,1,576.38,192.15Zm22-12.67a2.12,2.12,0,0,1-1.06-3.95l11-6.34a2.12,2.12,0,0,1,2.12,3.67l-11,6.33A2,2,0,0,1,598.34,179.48Zm21.95-12.68a2.11,2.11,0,0,1-1.06-3.94l11-6.34a2.11,2.11,0,1,1,2.11,3.66l-11,6.34A2.16,2.16,0,0,1,620.29,166.8Zm22-12.67a2.12,2.12,0,0,1-1-3.95l11-6.34a2.12,2.12,0,1,1,2.12,3.67l-11,6.33A2,2,0,0,1,642.24,154.13Zm22-12.68a2.12,2.12,0,0,1-1.06-3.95l11-6.33a2.11,2.11,0,0,1,2.12,3.66l-11,6.34A2.16,2.16,0,0,1,664.2,141.45Zm21.95-12.67a2.12,2.12,0,0,1-1.06-4l11-6.34a2.11,2.11,0,0,1,2.12,3.66l-11,6.34A2.14,2.14,0,0,1,686.15,128.78Zm22-12.68a2.12,2.12,0,0,1-1.06-3.95l11-6.34a2.12,2.12,0,0,1,2.12,3.67l-11,6.34A2.16,2.16,0,0,1,708.11,116.1Z"/><path class="cls-52" d="M406.21,290.41a2.12,2.12,0,0,1-1.06-4l5.51-3.18a2.11,2.11,0,1,1,2.11,3.66l-5.5,3.18A2.14,2.14,0,0,1,406.21,290.41Z"/></g></g></svg>