<svg xmlns="http://www.w3.org/2000/svg" viewBox="0 0 160.84 174.1"><defs><style>.cls-1{isolation:isolate;}.cls-2{mix-blend-mode:color-burn;}.cls-3,.cls-6{fill:#221e20;}.cls-4{fill:#8246db;}.cls-5{fill:#f0f1f1;}.cls-236,.cls-5,.cls-6{mix-blend-mode:overlay;}.cls-7{fill:#fff;}.cls-8{fill:#fefefe;}.cls-9{fill:#fdfdfd;}.cls-10{fill:#fcfcfc;}.cls-11{fill:#fbfbfb;}.cls-12{fill:#fafafa;}.cls-13{fill:#f9f9f9;}.cls-14{fill:#f8f8f8;}.cls-15{fill:#f7f7f7;}.cls-16{fill:#f6f6f6;}.cls-17{fill:#f5f5f5;}.cls-18{fill:#f4f4f4;}.cls-19{fill:#f3f3f3;}.cls-20{fill:#f2f2f2;}.cls-21{fill:#f1f1f1;}.cls-22{fill:#f0f0f0;}.cls-23{fill:#efefef;}.cls-24{fill:#eee;}.cls-25{fill:#ededed;}.cls-26{fill:#ececec;}.cls-27{fill:#ebebeb;}.cls-28{fill:#eaeaea;}.cls-29{fill:#e9e9e9;}.cls-30{fill:#e8e8e8;}.cls-31{fill:#e7e7e7;}.cls-32{fill:#e6e6e6;}.cls-33{fill:#e5e5e5;}.cls-34{fill:#e4e4e4;}.cls-35{fill:#e3e3e3;}.cls-36{fill:#e2e2e2;}.cls-37{fill:#e1e1e1;}.cls-38{fill:#e0e0e0;}.cls-39{fill:#dfdfdf;}.cls-40{fill:#dedede;}.cls-41{fill:#ddd;}.cls-42{fill:#dcdcdc;}.cls-43{fill:#dbdbdb;}.cls-44{fill:#dadada;}.cls-45{fill:#d9d9d9;}.cls-46{fill:#d8d8d8;}.cls-47{fill:#d7d7d7;}.cls-48{fill:#d6d6d6;}.cls-49{fill:#d5d5d5;}.cls-50{fill:#d4d4d4;}.cls-51{fill:#d3d3d3;}.cls-52{fill:#d2d2d2;}.cls-53{fill:#d1d1d1;}.cls-54{fill:#d0d0d0;}.cls-55{fill:#cfcfcf;}.cls-56{fill:#cecece;}.cls-57{fill:#cdcdcd;}.cls-58{fill:#ccc;}.cls-59{fill:#cbcbcb;}.cls-60{fill:#cacaca;}.cls-61{fill:#c9c9c9;}.cls-62{fill:#c8c8c8;}.cls-63{fill:#c7c7c7;}.cls-64{fill:#c6c7c6;}.cls-65{fill:#c5c6c5;}.cls-66{fill:#c4c5c4;}.cls-67{fill:#c3c4c3;}.cls-68{fill:#c2c3c2;}.cls-69{fill:#c1c2c1;}.cls-70{fill:#c0c1c0;}.cls-71{fill:#bfc0bf;}.cls-72{fill:#bebfbe;}.cls-73{fill:#bdbebd;}.cls-74{fill:#bcbdbc;}.cls-75{fill:#bbbcbb;}.cls-76{fill:#babbba;}.cls-77{fill:#b9bab9;}.cls-78{fill:#b8b9b8;}.cls-79{fill:#b7b8b7;}.cls-80{fill:#b6b7b6;}.cls-81{fill:#b5b6b5;}.cls-82{fill:#b4b5b4;}.cls-83{fill:#b3b4b3;}.cls-84{fill:#b2b3b2;}.cls-85{fill:#b1b2b1;}.cls-86{fill:#b0b1b0;}.cls-87{fill:#afb0af;}.cls-88{fill:#aeafae;}.cls-89{fill:#adaead;}.cls-90{fill:#acadac;}.cls-91{fill:#abacab;}.cls-92{fill:#aaabaa;}.cls-93{fill:#a9aaa9;}.cls-94{fill:#a8a9a8;}.cls-95{fill:#a7a8a7;}.cls-96{fill:#a6a7a6;}.cls-97{fill:#a5a6a5;}.cls-98{fill:#a4a5a4;}.cls-99{fill:#a3a4a3;}.cls-100{fill:#a2a3a2;}.cls-101{fill:#a1a2a1;}.cls-102{fill:#a0a1a0;}.cls-103{fill:#9fa09f;}.cls-104{fill:#9e9f9e;}.cls-105{fill:#9d9e9d;}.cls-106{fill:#9c9d9c;}.cls-107{fill:#9b9c9b;}.cls-108{fill:#9a9b9a;}.cls-109{fill:#999a99;}.cls-110{fill:#989998;}.cls-111{fill:#979897;}.cls-112{fill:#969796;}.cls-113{fill:#959695;}.cls-114{fill:#949594;}.cls-115{fill:#939493;}.cls-116{fill:#929392;}.cls-117{fill:#919291;}.cls-118{fill:#909190;}.cls-119{fill:#8f908f;}.cls-120{fill:#8e8f8e;}.cls-121{fill:#8e8e8d;}.cls-122{fill:#8d8d8c;}.cls-123{fill:#8c8c8b;}.cls-124{fill:#8b8b8a;}.cls-125{fill:#8a8a89;}.cls-126{fill:#898988;}.cls-127{fill:#888887;}.cls-128{fill:#878786;}.cls-129{fill:#868685;}.cls-130{fill:#858584;}.cls-131{fill:#848483;}.cls-132{fill:#838382;}.cls-133{fill:#828281;}.cls-134{fill:#818180;}.cls-135{fill:#80807f;}.cls-136{fill:#7f7f7e;}.cls-137{fill:#7e7e7d;}.cls-138{fill:#7d7d7c;}.cls-139{fill:#7c7c7b;}.cls-140{fill:#7b7b7a;}.cls-141{fill:#7a7a79;}.cls-142{fill:#797978;}.cls-143{fill:#787877;}.cls-144{fill:#777776;}.cls-145{fill:#767675;}.cls-146{fill:#757574;}.cls-147{fill:#747473;}.cls-148{fill:#737372;}.cls-149{fill:#727271;}.cls-150{fill:#717170;}.cls-151{fill:#70706f;}.cls-152{fill:#6f6f6e;}.cls-153{fill:#6e6e6d;}.cls-154{fill:#6d6d6c;}.cls-155{fill:#6c6c6b;}.cls-156{fill:#6b6b6a;}.cls-157{fill:#6a6a69;}.cls-158{fill:#696968;}.cls-159{fill:#686867;}.cls-160{fill:#676766;}.cls-161{fill:#666665;}.cls-162{fill:#656564;}.cls-163{fill:#646463;}.cls-164{fill:#636362;}.cls-165{fill:#626261;}.cls-166{fill:#616160;}.cls-167{fill:#60605f;}.cls-168{fill:#5f5f5e;}.cls-169{fill:#5e5e5d;}.cls-170{fill:#5d5d5c;}.cls-171{fill:#5c5c5b;}.cls-172{fill:#5b5b5a;}.cls-173{fill:#5a5a59;}.cls-174{fill:#595958;}.cls-175{fill:#585857;}.cls-176{fill:#575756;}.cls-177{fill:#565655;}.cls-178{fill:#555654;}.cls-179{fill:#545553;}.cls-180{fill:#535452;}.cls-181{fill:#525351;}.cls-182{fill:#515250;}.cls-183{fill:#50514f;}.cls-184{fill:#4f504e;}.cls-185{fill:#4e4f4d;}.cls-186{fill:#4d4e4c;}.cls-187{fill:#4c4d4b;}.cls-188{fill:#4b4c4a;}.cls-189{fill:#4a4b49;}.cls-190{fill:#494a48;}.cls-191{fill:#484947;}.cls-192{fill:#474846;}.cls-193{fill:#464745;}.cls-194{fill:#454644;}.cls-195{fill:#444543;}.cls-196{fill:#434442;}.cls-197{fill:#424341;}.cls-198{fill:#414240;}.cls-199{fill:#40413f;}.cls-200{fill:#3f403e;}.cls-201{fill:#3e3f3d;}.cls-202{fill:#3d3e3c;}.cls-203{fill:#3c3d3b;}.cls-204{fill:#3b3c3a;}.cls-205{fill:#3a3b39;}.cls-206{fill:#393a38;}.cls-207{fill:#383937;}.cls-208{fill:#373836;}.cls-209{fill:#363735;}.cls-210{fill:#353634;}.cls-211{fill:#343533;}.cls-212{fill:#333432;}.cls-213{fill:#323331;}.cls-214{fill:#313230;}.cls-215{fill:#30312f;}.cls-216{fill:#2f302e;}.cls-217{fill:#2e2f2d;}.cls-218{fill:#2d2e2c;}.cls-219{fill:#2c2d2b;}.cls-220{fill:#2b2c2a;}.cls-221{fill:#2a2b29;}.cls-222{fill:#292a28;}.cls-223{fill:#282927;}.cls-224{fill:#272826;}.cls-225{fill:#262725;}.cls-226{fill:#252624;}.cls-227{fill:#242523;}.cls-228{fill:#232422;}.cls-229{fill:#222321;}.cls-230{fill:#212220;}.cls-231{fill:#20211f;}.cls-232{fill:#1f201e;}.cls-233{fill:#1e1f1d;}.cls-234{fill:#1d1e1c;}.cls-235{fill:#f1f2f2;}.cls-237{fill:#4d4d4d;}</style></defs><title>Staff Management</title><g class="cls-1"><g id="Layer_1" data-name="Layer 1"><g class="cls-2"><circle class="cls-3" cx="81.93" cy="81.43" r="71.14" transform="translate(-16.14 142.45) rotate(-76.72)"/></g><path class="cls-4" d="M160.84,80.42A80.42,80.42,0,1,1,80.42,0,80.43,80.43,0,0,1,160.84,80.42Z"/><path class="cls-5" d="M81.37,1a80.16,80.16,0,0,1,56.38,23.08A80.41,80.41,0,1,0,24,137.8,80.41,80.41,0,0,1,81.37,1Z"/><path class="cls-6" d="M136.71,23A80.41,80.41,0,0,1,23,136.71,80.41,80.41,0,1,0,136.71,23Z"/><g class="cls-2"><circle class="cls-7" cx="81.93" cy="112.14" r="61.96"/><circle class="cls-8" cx="81.93" cy="112" r="61.95"/><circle class="cls-9" cx="81.92" cy="111.85" r="61.93" transform="translate(-30.05 193.61) rotate(-89.92)"/><circle class="cls-10" cx="81.92" cy="111.71" r="61.91" transform="translate(-29.97 193.39) rotate(-89.87)"/><circle class="cls-11" cx="81.92" cy="111.57" r="61.9" transform="translate(-29.89 193.17) rotate(-89.83)"/><circle class="cls-12" cx="81.92" cy="111.43" r="61.88" transform="translate(-29.81 192.94) rotate(-89.79)"/><circle class="cls-13" cx="81.92" cy="111.29" r="61.86" transform="translate(-29.72 192.72) rotate(-89.75)"/><circle class="cls-14" cx="81.91" cy="111.14" r="61.84" transform="matrix(0.01, -1, 1, 0.01, -29.64, 192.5)"/><circle class="cls-15" cx="81.91" cy="111" r="61.83" transform="translate(-29.56 192.28) rotate(-89.67)"/><circle class="cls-16" cx="81.91" cy="110.86" r="61.81" transform="matrix(0.01, -1, 1, 0.01, -29.47, 192.06)"/><circle class="cls-17" cx="81.91" cy="110.72" r="61.79" transform="matrix(0.01, -1, 1, 0.01, -29.39, 191.84)"/><circle class="cls-18" cx="81.91" cy="110.58" r="61.77" transform="translate(-29.31 191.62) rotate(-89.55)"/><circle class="cls-19" cx="81.91" cy="110.44" r="61.76" transform="translate(-29.22 191.4) rotate(-89.51)"/><circle class="cls-20" cx="81.9" cy="110.29" r="61.74" transform="translate(-29.14 191.18) rotate(-89.47)"/><circle class="cls-21" cx="81.9" cy="110.15" r="61.72" transform="translate(-29.05 190.96) rotate(-89.43)"/><circle class="cls-22" cx="81.9" cy="110.01" r="61.71" transform="translate(-28.97 190.74) rotate(-89.4)"/><circle class="cls-23" cx="81.9" cy="109.87" r="61.69" transform="translate(-28.88 190.53) rotate(-89.36)"/><circle class="cls-24" cx="81.9" cy="109.73" r="61.67" transform="translate(-28.8 190.31) rotate(-89.32)"/><circle class="cls-25" cx="81.89" cy="109.58" r="61.65" transform="translate(-28.71 190.1) rotate(-89.28)"/><circle class="cls-26" cx="81.89" cy="109.44" r="61.64" transform="translate(-28.62 189.88) rotate(-89.24)"/><circle class="cls-27" cx="81.89" cy="109.3" r="61.62" transform="translate(-28.53 189.67) rotate(-89.21)"/><circle class="cls-28" cx="81.89" cy="109.16" r="61.6" transform="translate(-28.45 189.45) rotate(-89.17)"/><circle class="cls-29" cx="81.89" cy="109.02" r="61.59" transform="translate(-28.36 189.24) rotate(-89.13)"/><path class="cls-30" d="M143.45,108.87A61.57,61.57,0,1,1,81.88,47.31,61.56,61.56,0,0,1,143.45,108.87Z"/><path class="cls-31" d="M143.43,108.73A61.55,61.55,0,1,1,81.88,47.18,61.54,61.54,0,0,1,143.43,108.73Z"/><path class="cls-32" d="M143.42,108.59A61.54,61.54,0,1,1,81.88,47.06,61.54,61.54,0,0,1,143.42,108.59Z"/><path class="cls-33" d="M143.4,108.45A61.52,61.52,0,1,1,81.88,46.93,61.53,61.53,0,0,1,143.4,108.45Z"/><path class="cls-34" d="M143.38,108.31a61.5,61.5,0,1,1-61.5-61.5A61.51,61.51,0,0,1,143.38,108.31Z"/><path class="cls-35" d="M143.36,108.17A61.49,61.49,0,1,1,81.88,46.68,61.49,61.49,0,0,1,143.36,108.17Z"/><path class="cls-36" d="M143.34,108A61.47,61.47,0,1,1,81.87,46.56,61.47,61.47,0,0,1,143.34,108Z"/><path class="cls-37" d="M143.32,107.88A61.45,61.45,0,1,1,81.87,46.43,61.45,61.45,0,0,1,143.32,107.88Z"/><path class="cls-38" d="M143.3,107.74A61.43,61.43,0,1,1,81.87,46.31,61.43,61.43,0,0,1,143.3,107.74Z"/><path class="cls-39" d="M143.28,107.6A61.41,61.41,0,1,1,81.87,46.18,61.4,61.4,0,0,1,143.28,107.6Z"/><path class="cls-40" d="M143.26,107.46a61.4,61.4,0,1,1-61.39-61.4A61.39,61.39,0,0,1,143.26,107.46Z"/><path class="cls-41" d="M143.24,107.31A61.38,61.38,0,1,1,81.86,45.93,61.38,61.38,0,0,1,143.24,107.31Z"/><path class="cls-42" d="M143.23,107.17A61.37,61.37,0,1,1,81.86,45.81,61.37,61.37,0,0,1,143.23,107.17Z"/><path class="cls-43" d="M143.21,107A61.35,61.35,0,1,1,81.86,45.69,61.35,61.35,0,0,1,143.21,107Z"/><path class="cls-44" d="M143.19,106.89A61.33,61.33,0,1,1,81.86,45.56,61.33,61.33,0,0,1,143.19,106.89Z"/><path class="cls-45" d="M143.17,106.75A61.31,61.31,0,1,1,81.86,45.44,61.31,61.31,0,0,1,143.17,106.75Z"/><path class="cls-46" d="M143.15,106.6A61.3,61.3,0,1,1,81.86,45.31,61.29,61.29,0,0,1,143.15,106.6Z"/><path class="cls-47" d="M143.13,106.46A61.28,61.28,0,1,1,81.85,45.19,61.28,61.28,0,0,1,143.13,106.46Z"/><path class="cls-48" d="M143.11,106.32A61.26,61.26,0,1,1,81.85,45.06,61.26,61.26,0,0,1,143.11,106.32Z"/><path class="cls-49" d="M143.09,106.18A61.24,61.24,0,1,1,81.85,44.94,61.24,61.24,0,0,1,143.09,106.18Z"/><path class="cls-50" d="M143.07,106A61.23,61.23,0,1,1,81.85,44.81,61.22,61.22,0,0,1,143.07,106Z"/><path class="cls-51" d="M143.05,105.9a61.21,61.21,0,1,1-61.2-61.21A61.2,61.2,0,0,1,143.05,105.9Z"/><path class="cls-52" d="M143,105.75A61.19,61.19,0,1,1,81.84,44.56,61.18,61.18,0,0,1,143,105.75Z"/><path class="cls-53" d="M143,105.61A61.18,61.18,0,1,1,81.84,44.44,61.17,61.17,0,0,1,143,105.61Z"/><path class="cls-54" d="M143,105.47A61.16,61.16,0,1,1,81.84,44.31,61.16,61.16,0,0,1,143,105.47Z"/><path class="cls-55" d="M143,105.33A61.14,61.14,0,1,1,81.84,44.19,61.14,61.14,0,0,1,143,105.33Z"/><path class="cls-56" d="M143,105.19A61.12,61.12,0,1,1,81.84,44.06,61.13,61.13,0,0,1,143,105.19Z"/><path class="cls-57" d="M142.94,105a61.11,61.11,0,1,1-61.1-61.1A61.11,61.11,0,0,1,142.94,105Z"/><path class="cls-58" d="M142.92,104.9A61.09,61.09,0,1,1,81.83,43.82,61.09,61.09,0,0,1,142.92,104.9Z"/><path class="cls-59" d="M142.9,104.76A61.07,61.07,0,1,1,81.83,43.69,61.07,61.07,0,0,1,142.9,104.76Z"/><path class="cls-60" d="M142.88,104.62a61.05,61.05,0,1,1-61-61A61,61,0,0,1,142.88,104.62Z"/><path class="cls-61" d="M142.86,104.48a61,61,0,1,1-61-61A61,61,0,0,1,142.86,104.48Z"/><path class="cls-62" d="M142.84,104.33a61,61,0,1,1-61-61A61,61,0,0,1,142.84,104.33Z"/><path class="cls-63" d="M142.83,104.19a61,61,0,1,1-61-61A61,61,0,0,1,142.83,104.19Z"/><path class="cls-64" d="M142.81,104.05a61,61,0,1,1-61-61A61,61,0,0,1,142.81,104.05Z"/><path class="cls-65" d="M142.79,103.91a61,61,0,1,1-61-61A61,61,0,0,1,142.79,103.91Z"/><path class="cls-66" d="M142.77,103.77a61,61,0,1,1-61-60.95A61,61,0,0,1,142.77,103.77Z"/><path class="cls-67" d="M142.75,103.63A60.93,60.93,0,1,1,81.82,42.69,60.93,60.93,0,0,1,142.75,103.63Z"/><path class="cls-68" d="M142.73,103.48A60.92,60.92,0,1,1,81.82,42.57,60.91,60.91,0,0,1,142.73,103.48Z"/><path class="cls-69" d="M142.71,103.34a60.9,60.9,0,1,1-60.9-60.9A60.9,60.9,0,0,1,142.71,103.34Z"/><path class="cls-70" d="M142.69,103.2A60.88,60.88,0,1,1,81.81,42.32,60.88,60.88,0,0,1,142.69,103.2Z"/><path class="cls-71" d="M142.67,103.06A60.86,60.86,0,1,1,81.81,42.19,60.86,60.86,0,0,1,142.67,103.06Z"/><path class="cls-72" d="M142.65,102.92A60.85,60.85,0,1,1,81.81,42.07,60.84,60.84,0,0,1,142.65,102.92Z"/><path class="cls-73" d="M142.64,102.77A60.83,60.83,0,1,1,81.81,42,60.83,60.83,0,0,1,142.64,102.77Z"/><path class="cls-74" d="M142.62,102.63A60.82,60.82,0,1,1,81.8,41.82,60.81,60.81,0,0,1,142.62,102.63Z"/><path class="cls-75" d="M142.6,102.49A60.8,60.8,0,1,1,81.8,41.7,60.8,60.8,0,0,1,142.6,102.49Z"/><path class="cls-76" d="M142.58,102.35A60.78,60.78,0,1,1,81.8,41.57,60.78,60.78,0,0,1,142.58,102.35Z"/><path class="cls-77" d="M142.56,102.21A60.76,60.76,0,1,1,81.8,41.45,60.76,60.76,0,0,1,142.56,102.21Z"/><path class="cls-78" d="M142.54,102.07A60.75,60.75,0,1,1,81.8,41.32,60.74,60.74,0,0,1,142.54,102.07Z"/><path class="cls-79" d="M142.52,101.92A60.73,60.73,0,1,1,81.8,41.2,60.73,60.73,0,0,1,142.52,101.92Z"/><path class="cls-80" d="M142.5,101.78A60.71,60.71,0,1,1,81.79,41.07,60.71,60.71,0,0,1,142.5,101.78Z"/><path class="cls-81" d="M142.48,101.64A60.69,60.69,0,1,1,81.79,41,60.69,60.69,0,0,1,142.48,101.64Z"/><path class="cls-82" d="M142.46,101.5A60.67,60.67,0,1,1,81.79,40.82,60.67,60.67,0,0,1,142.46,101.5Z"/><path class="cls-83" d="M142.45,101.36A60.66,60.66,0,1,1,81.79,40.7,60.65,60.65,0,0,1,142.45,101.36Z"/><path class="cls-84" d="M142.43,101.21A60.64,60.64,0,1,1,81.79,40.57,60.64,60.64,0,0,1,142.43,101.21Z"/><path class="cls-85" d="M142.41,101.07A60.63,60.63,0,1,1,81.78,40.45,60.63,60.63,0,0,1,142.41,101.07Z"/><path class="cls-86" d="M142.39,100.93A60.61,60.61,0,1,1,81.78,40.32,60.62,60.62,0,0,1,142.39,100.93Z"/><path class="cls-87" d="M142.37,100.79A60.59,60.59,0,1,1,81.78,40.2,60.59,60.59,0,0,1,142.37,100.79Z"/><path class="cls-88" d="M142.35,100.65A60.57,60.57,0,1,1,81.78,40.08,60.57,60.57,0,0,1,142.35,100.65Z"/><path class="cls-89" d="M142.33,100.5A60.56,60.56,0,1,1,81.78,40,60.55,60.55,0,0,1,142.33,100.5Z"/><path class="cls-90" d="M142.31,100.36A60.54,60.54,0,1,1,81.77,39.83,60.53,60.53,0,0,1,142.31,100.36Z"/><path class="cls-91" d="M142.29,100.22A60.52,60.52,0,1,1,81.77,39.7,60.52,60.52,0,0,1,142.29,100.22Z"/><path class="cls-92" d="M142.27,100.08a60.5,60.5,0,1,1-60.5-60.5A60.5,60.5,0,0,1,142.27,100.08Z"/><path class="cls-93" d="M142.26,99.94A60.49,60.49,0,1,1,81.77,39.45,60.48,60.48,0,0,1,142.26,99.94Z"/><path class="cls-94" d="M142.24,99.8A60.47,60.47,0,1,1,81.77,39.33,60.47,60.47,0,0,1,142.24,99.8Z"/><path class="cls-95" d="M142.22,99.65A60.45,60.45,0,1,1,81.77,39.2,60.45,60.45,0,0,1,142.22,99.65Z"/><path class="cls-96" d="M142.2,99.51A60.44,60.44,0,1,1,81.76,39.08,60.44,60.44,0,0,1,142.2,99.51Z"/><path class="cls-97" d="M142.18,99.37A60.42,60.42,0,1,1,81.76,39,60.42,60.42,0,0,1,142.18,99.37Z"/><path class="cls-98" d="M142.16,99.23a60.4,60.4,0,1,1-60.4-60.4A60.4,60.4,0,0,1,142.16,99.23Z"/><path class="cls-99" d="M142.14,99.09A60.38,60.38,0,1,1,81.76,38.7,60.38,60.38,0,0,1,142.14,99.09Z"/><path class="cls-100" d="M142.12,98.94A60.37,60.37,0,1,1,81.76,38.58,60.36,60.36,0,0,1,142.12,98.94Z"/><path class="cls-101" d="M142.1,98.8A60.35,60.35,0,1,1,81.75,38.45,60.35,60.35,0,0,1,142.1,98.8Z"/><path class="cls-102" d="M142.08,98.66A60.33,60.33,0,1,1,81.75,38.33,60.33,60.33,0,0,1,142.08,98.66Z"/><path class="cls-103" d="M142.06,98.52A60.31,60.31,0,1,1,81.75,38.21,60.31,60.31,0,0,1,142.06,98.52Z"/><path class="cls-104" d="M142.05,98.38a60.3,60.3,0,1,1-60.3-60.3A60.3,60.3,0,0,1,142.05,98.38Z"/><path class="cls-105" d="M142,98.23A60.28,60.28,0,1,1,81.75,38,60.28,60.28,0,0,1,142,98.23Z"/><path class="cls-106" d="M142,98.09A60.27,60.27,0,1,1,81.75,37.83,60.26,60.26,0,0,1,142,98.09Z"/><path class="cls-107" d="M142,98A60.25,60.25,0,1,1,81.74,37.71,60.25,60.25,0,0,1,142,98Z"/><path class="cls-108" d="M142,97.81A60.23,60.23,0,1,1,81.74,37.58,60.23,60.23,0,0,1,142,97.81Z"/><path class="cls-109" d="M142,97.67A60.21,60.21,0,1,1,81.74,37.46,60.21,60.21,0,0,1,142,97.67Z"/><path class="cls-110" d="M141.93,97.53a60.19,60.19,0,1,1-60.19-60.2A60.19,60.19,0,0,1,141.93,97.53Z"/><path class="cls-111" d="M141.91,97.38A60.18,60.18,0,1,1,81.74,37.21,60.17,60.17,0,0,1,141.91,97.38Z"/><path class="cls-112" d="M141.89,97.24A60.16,60.16,0,1,1,81.73,37.08,60.15,60.15,0,0,1,141.89,97.24Z"/><path class="cls-113" d="M141.87,97.1A60.14,60.14,0,1,1,81.73,37,60.13,60.13,0,0,1,141.87,97.1Z"/><path class="cls-114" d="M141.86,97A60.13,60.13,0,1,1,81.73,36.83,60.13,60.13,0,0,1,141.86,97Z"/><path class="cls-115" d="M141.84,96.82A60.11,60.11,0,1,1,81.73,36.71,60.11,60.11,0,0,1,141.84,96.82Z"/><path class="cls-116" d="M141.82,96.67A60.09,60.09,0,1,1,81.73,36.58,60.09,60.09,0,0,1,141.82,96.67Z"/><path class="cls-117" d="M141.8,96.53A60.08,60.08,0,1,1,81.73,36.46,60.08,60.08,0,0,1,141.8,96.53Z"/><path class="cls-118" d="M141.78,96.39a60.06,60.06,0,1,1-60.06-60A60.06,60.06,0,0,1,141.78,96.39Z"/><path class="cls-119" d="M141.76,96.25a60,60,0,1,1-60-60A60,60,0,0,1,141.76,96.25Z"/><path class="cls-120" d="M141.74,96.11a60,60,0,1,1-60-60A60,60,0,0,1,141.74,96.11Z"/><path class="cls-121" d="M141.72,96a60,60,0,1,1-60-60A60,60,0,0,1,141.72,96Z"/><path class="cls-122" d="M141.7,95.82a60,60,0,1,1-60-60A60,60,0,0,1,141.7,95.82Z"/><path class="cls-123" d="M141.68,95.68a60,60,0,1,1-60-60A60,60,0,0,1,141.68,95.68Z"/><path class="cls-124" d="M141.67,95.54a60,60,0,1,1-60-59.95A60,60,0,0,1,141.67,95.54Z"/><path class="cls-125" d="M141.65,95.4A59.94,59.94,0,1,1,81.71,35.46,59.94,59.94,0,0,1,141.65,95.4Z"/><path class="cls-126" d="M141.63,95.26A59.92,59.92,0,1,1,81.71,35.34,59.92,59.92,0,0,1,141.63,95.26Z"/><path class="cls-127" d="M141.61,95.11a59.9,59.9,0,1,1-59.9-59.9A59.9,59.9,0,0,1,141.61,95.11Z"/><path class="cls-128" d="M141.59,95A59.89,59.89,0,1,1,81.71,35.09,59.89,59.89,0,0,1,141.59,95Z"/><path class="cls-129" d="M141.57,94.83A59.87,59.87,0,1,1,81.7,35,59.87,59.87,0,0,1,141.57,94.83Z"/><path class="cls-130" d="M141.55,94.69A59.85,59.85,0,1,1,81.7,34.84,59.85,59.85,0,0,1,141.55,94.69Z"/><path class="cls-131" d="M141.53,94.55A59.83,59.83,0,1,1,81.7,34.71,59.83,59.83,0,0,1,141.53,94.55Z"/><path class="cls-132" d="M141.51,94.4A59.82,59.82,0,1,1,81.7,34.59,59.81,59.81,0,0,1,141.51,94.4Z"/><path class="cls-133" d="M141.49,94.26A59.8,59.8,0,1,1,81.7,34.47,59.79,59.79,0,0,1,141.49,94.26Z"/><path class="cls-134" d="M141.48,94.12A59.78,59.78,0,1,1,81.69,34.34,59.78,59.78,0,0,1,141.48,94.12Z"/><path class="cls-135" d="M141.46,94A59.77,59.77,0,1,1,81.69,34.22,59.76,59.76,0,0,1,141.46,94Z"/><path class="cls-136" d="M141.44,93.84A59.75,59.75,0,1,1,81.69,34.09,59.75,59.75,0,0,1,141.44,93.84Z"/><path class="cls-137" d="M141.42,93.69A59.73,59.73,0,1,1,81.69,34,59.73,59.73,0,0,1,141.42,93.69Z"/><path class="cls-138" d="M141.4,93.55A59.71,59.71,0,1,1,81.69,33.84,59.71,59.71,0,0,1,141.4,93.55Z"/><path class="cls-139" d="M141.38,93.41A59.7,59.7,0,1,1,81.69,33.72,59.7,59.7,0,0,1,141.38,93.41Z"/><path class="cls-140" d="M141.36,93.27A59.68,59.68,0,1,1,81.68,33.59,59.68,59.68,0,0,1,141.36,93.27Z"/><path class="cls-141" d="M141.34,93.13A59.66,59.66,0,1,1,81.68,33.47,59.66,59.66,0,0,1,141.34,93.13Z"/><path class="cls-142" d="M141.32,93A59.64,59.64,0,1,1,81.68,33.34,59.64,59.64,0,0,1,141.32,93Z"/><path class="cls-143" d="M141.3,92.84A59.63,59.63,0,1,1,81.68,33.22,59.62,59.62,0,0,1,141.3,92.84Z"/><path class="cls-144" d="M141.28,92.7a59.61,59.61,0,1,1-59.6-59.61A59.6,59.6,0,0,1,141.28,92.7Z"/><path class="cls-145" d="M141.27,92.56A59.6,59.6,0,1,1,81.67,33,59.59,59.59,0,0,1,141.27,92.56Z"/><path class="cls-146" d="M141.25,92.42A59.58,59.58,0,1,1,81.67,32.84,59.58,59.58,0,0,1,141.25,92.42Z"/><path class="cls-147" d="M141.23,92.28A59.56,59.56,0,1,1,81.67,32.72,59.56,59.56,0,0,1,141.23,92.28Z"/><path class="cls-148" d="M141.21,92.13A59.54,59.54,0,1,1,81.67,32.6,59.54,59.54,0,0,1,141.21,92.13Z"/><path class="cls-149" d="M141.19,92A59.52,59.52,0,1,1,81.67,32.47,59.52,59.52,0,0,1,141.19,92Z"/><path class="cls-150" d="M141.17,91.85a59.51,59.51,0,1,1-59.5-59.5A59.51,59.51,0,0,1,141.17,91.85Z"/><path class="cls-151" d="M141.15,91.71A59.49,59.49,0,1,1,81.66,32.22,59.49,59.49,0,0,1,141.15,91.71Z"/><path class="cls-152" d="M141.13,91.57A59.47,59.47,0,1,1,81.66,32.1,59.47,59.47,0,0,1,141.13,91.57Z"/><path class="cls-153" d="M141.11,91.43A59.45,59.45,0,1,1,81.66,32,59.45,59.45,0,0,1,141.11,91.43Z"/><path class="cls-154" d="M141.09,91.28A59.44,59.44,0,1,1,81.66,31.85,59.44,59.44,0,0,1,141.09,91.28Z"/><path class="cls-155" d="M141.08,91.14A59.42,59.42,0,1,1,81.66,31.72,59.42,59.42,0,0,1,141.08,91.14Z"/><path class="cls-156" d="M141.06,91A59.41,59.41,0,1,1,81.65,31.6,59.4,59.4,0,0,1,141.06,91Z"/><path class="cls-157" d="M141,90.86A59.39,59.39,0,1,1,81.65,31.47,59.38,59.38,0,0,1,141,90.86Z"/><path class="cls-158" d="M141,90.72A59.37,59.37,0,1,1,81.65,31.35,59.37,59.37,0,0,1,141,90.72Z"/><path class="cls-159" d="M141,90.57A59.35,59.35,0,1,1,81.65,31.22,59.35,59.35,0,0,1,141,90.57Z"/><path class="cls-160" d="M141,90.43A59.34,59.34,0,1,1,81.65,31.1,59.33,59.33,0,0,1,141,90.43Z"/><path class="cls-161" d="M141,90.29A59.32,59.32,0,1,1,81.65,31,59.32,59.32,0,0,1,141,90.29Z"/><path class="cls-162" d="M140.94,90.15a59.3,59.3,0,1,1-59.3-59.3A59.3,59.3,0,0,1,140.94,90.15Z"/><path class="cls-163" d="M140.92,90A59.28,59.28,0,1,1,81.64,30.72,59.28,59.28,0,0,1,140.92,90Z"/><path class="cls-164" d="M140.9,89.86A59.26,59.26,0,1,1,81.64,30.6,59.26,59.26,0,0,1,140.9,89.86Z"/><path class="cls-165" d="M140.89,89.72A59.25,59.25,0,1,1,81.64,30.48,59.25,59.25,0,0,1,140.89,89.72Z"/><path class="cls-166" d="M140.87,89.58A59.23,59.23,0,1,1,81.64,30.35,59.23,59.23,0,0,1,140.87,89.58Z"/><path class="cls-167" d="M140.85,89.44A59.22,59.22,0,1,1,81.63,30.23,59.21,59.21,0,0,1,140.85,89.44Z"/><path class="cls-168" d="M140.83,89.3a59.2,59.2,0,1,1-59.2-59.2A59.19,59.19,0,0,1,140.83,89.3Z"/><path class="cls-169" d="M140.81,89.16A59.18,59.18,0,1,1,81.63,30,59.18,59.18,0,0,1,140.81,89.16Z"/><path class="cls-170" d="M140.79,89A59.16,59.16,0,1,1,81.63,29.85,59.17,59.17,0,0,1,140.79,89Z"/><path class="cls-171" d="M140.77,88.87A59.15,59.15,0,1,1,81.63,29.73,59.14,59.14,0,0,1,140.77,88.87Z"/><path class="cls-172" d="M140.75,88.73A59.13,59.13,0,1,1,81.62,29.6,59.13,59.13,0,0,1,140.75,88.73Z"/><path class="cls-173" d="M140.73,88.59A59.11,59.11,0,1,1,81.62,29.48,59.11,59.11,0,0,1,140.73,88.59Z"/><path class="cls-174" d="M140.71,88.45a59.09,59.09,0,1,1-59.09-59.1A59.09,59.09,0,0,1,140.71,88.45Z"/><path class="cls-175" d="M140.7,88.3A59.08,59.08,0,1,1,81.62,29.23,59.08,59.08,0,0,1,140.7,88.3Z"/><path class="cls-176" d="M140.68,88.16A59.06,59.06,0,1,1,81.62,29.1,59.06,59.06,0,0,1,140.68,88.16Z"/><path class="cls-177" d="M140.66,88a59,59,0,1,1-59-59A59,59,0,0,1,140.66,88Z"/><path class="cls-178" d="M140.64,87.88a59,59,0,1,1-59-59A59,59,0,0,1,140.64,87.88Z"/><path class="cls-179" d="M140.62,87.74a59,59,0,1,1-59-59A59,59,0,0,1,140.62,87.74Z"/><path class="cls-180" d="M140.6,87.59a59,59,0,1,1-59-59A59,59,0,0,1,140.6,87.59Z"/><path class="cls-181" d="M140.58,87.45a59,59,0,1,1-59-59A59,59,0,0,1,140.58,87.45Z"/><path class="cls-182" d="M140.56,87.31A59,59,0,1,1,81.61,28.36,59,59,0,0,1,140.56,87.31Z"/><path class="cls-183" d="M140.54,87.17A58.94,58.94,0,1,1,81.6,28.23,58.94,58.94,0,0,1,140.54,87.17Z"/><path class="cls-184" d="M140.52,87A58.92,58.92,0,1,1,81.6,28.11,58.92,58.92,0,0,1,140.52,87Z"/><path class="cls-185" d="M140.5,86.89A58.9,58.9,0,1,1,81.6,28,58.9,58.9,0,0,1,140.5,86.89Z"/><path class="cls-186" d="M140.49,86.74A58.89,58.89,0,1,1,81.6,27.86,58.89,58.89,0,0,1,140.49,86.74Z"/><path class="cls-187" d="M140.47,86.6A58.87,58.87,0,1,1,81.6,27.73,58.87,58.87,0,0,1,140.47,86.6Z"/><path class="cls-188" d="M140.45,86.46A58.86,58.86,0,1,1,81.6,27.61,58.85,58.85,0,0,1,140.45,86.46Z"/><path class="cls-189" d="M140.43,86.32A58.84,58.84,0,1,1,81.59,27.48,58.83,58.83,0,0,1,140.43,86.32Z"/><path class="cls-190" d="M140.41,86.18A58.82,58.82,0,1,1,81.59,27.36,58.81,58.81,0,0,1,140.41,86.18Z"/><path class="cls-191" d="M140.39,86a58.8,58.8,0,1,1-58.8-58.8A58.8,58.8,0,0,1,140.39,86Z"/><path class="cls-192" d="M140.37,85.89A58.78,58.78,0,1,1,81.59,27.11,58.79,58.79,0,0,1,140.37,85.89Z"/><path class="cls-193" d="M140.35,85.75A58.77,58.77,0,1,1,81.59,27,58.77,58.77,0,0,1,140.35,85.75Z"/><path class="cls-194" d="M140.33,85.61A58.75,58.75,0,1,1,81.58,26.86,58.75,58.75,0,0,1,140.33,85.61Z"/><path class="cls-195" d="M140.31,85.47A58.73,58.73,0,1,1,81.58,26.74,58.73,58.73,0,0,1,140.31,85.47Z"/><path class="cls-196" d="M140.3,85.32A58.72,58.72,0,1,1,81.58,26.61,58.72,58.72,0,0,1,140.3,85.32Z"/><path class="cls-197" d="M140.28,85.18a58.7,58.7,0,1,1-58.7-58.69A58.7,58.7,0,0,1,140.28,85.18Z"/><path class="cls-198" d="M140.26,85A58.68,58.68,0,1,1,81.58,26.36,58.68,58.68,0,0,1,140.26,85Z"/><path class="cls-199" d="M140.24,84.9A58.67,58.67,0,1,1,81.58,26.24,58.66,58.66,0,0,1,140.24,84.9Z"/><path class="cls-200" d="M140.22,84.76A58.65,58.65,0,1,1,81.57,26.11,58.64,58.64,0,0,1,140.22,84.76Z"/><path class="cls-201" d="M140.2,84.62A58.63,58.63,0,1,1,81.57,26,58.62,58.62,0,0,1,140.2,84.62Z"/><path class="cls-202" d="M140.18,84.47A58.61,58.61,0,1,1,81.57,25.86,58.62,58.62,0,0,1,140.18,84.47Z"/><path class="cls-203" d="M140.16,84.33A58.59,58.59,0,1,1,81.57,25.74,58.6,58.6,0,0,1,140.16,84.33Z"/><path class="cls-204" d="M140.14,84.19A58.58,58.58,0,1,1,81.57,25.61,58.58,58.58,0,0,1,140.14,84.19Z"/><path class="cls-205" d="M140.12,84.05A58.56,58.56,0,1,1,81.56,25.49,58.56,58.56,0,0,1,140.12,84.05Z"/><path class="cls-206" d="M140.11,83.91A58.55,58.55,0,1,1,81.56,25.36,58.54,58.54,0,0,1,140.11,83.91Z"/><path class="cls-207" d="M140.09,83.76A58.53,58.53,0,1,1,81.56,25.24,58.53,58.53,0,0,1,140.09,83.76Z"/><path class="cls-208" d="M140.07,83.62A58.51,58.51,0,1,1,81.56,25.11,58.51,58.51,0,0,1,140.07,83.62Z"/><path class="cls-209" d="M140.05,83.48A58.49,58.49,0,1,1,81.56,25,58.49,58.49,0,0,1,140.05,83.48Z"/><path class="cls-210" d="M140,83.34A58.48,58.48,0,1,1,81.56,24.87,58.47,58.47,0,0,1,140,83.34Z"/><path class="cls-211" d="M140,83.2A58.46,58.46,0,1,1,81.55,24.74,58.45,58.45,0,0,1,140,83.2Z"/><path class="cls-212" d="M140,83.06A58.44,58.44,0,1,1,81.55,24.62,58.43,58.43,0,0,1,140,83.06Z"/><path class="cls-213" d="M140,82.91A58.42,58.42,0,1,1,81.55,24.49,58.42,58.42,0,0,1,140,82.91Z"/><path class="cls-214" d="M140,82.77a58.41,58.41,0,1,1-58.4-58.4A58.41,58.41,0,0,1,140,82.77Z"/><path class="cls-215" d="M139.93,82.63A58.39,58.39,0,1,1,81.55,24.24,58.39,58.39,0,0,1,139.93,82.63Z"/><path class="cls-216" d="M139.92,82.49A58.37,58.37,0,1,1,81.54,24.12,58.37,58.37,0,0,1,139.92,82.49Z"/><path class="cls-217" d="M139.9,82.35A58.36,58.36,0,1,1,81.54,24,58.36,58.36,0,0,1,139.9,82.35Z"/><path class="cls-218" d="M139.88,82.2A58.34,58.34,0,1,1,81.54,23.87,58.34,58.34,0,0,1,139.88,82.2Z"/><path class="cls-219" d="M139.86,82.06A58.32,58.32,0,1,1,81.54,23.74,58.32,58.32,0,0,1,139.86,82.06Z"/><path class="cls-220" d="M139.84,81.92a58.3,58.3,0,1,1-58.3-58.3A58.3,58.3,0,0,1,139.84,81.92Z"/><path class="cls-221" d="M139.82,81.78A58.29,58.29,0,1,1,81.54,23.49,58.28,58.28,0,0,1,139.82,81.78Z"/><path class="cls-222" d="M139.8,81.64A58.27,58.27,0,1,1,81.53,23.37,58.26,58.26,0,0,1,139.8,81.64Z"/><path class="cls-223" d="M139.78,81.49A58.25,58.25,0,1,1,81.53,23.24,58.25,58.25,0,0,1,139.78,81.49Z"/><path class="cls-224" d="M139.76,81.35A58.23,58.23,0,1,1,81.53,23.12,58.24,58.24,0,0,1,139.76,81.35Z"/><path class="cls-225" d="M139.74,81.21A58.22,58.22,0,1,1,81.53,23,58.22,58.22,0,0,1,139.74,81.21Z"/><path class="cls-226" d="M139.73,81.07a58.2,58.2,0,1,1-58.2-58.2A58.2,58.2,0,0,1,139.73,81.07Z"/><path class="cls-227" d="M139.71,80.93A58.19,58.19,0,1,1,81.52,22.75,58.18,58.18,0,0,1,139.71,80.93Z"/><path class="cls-228" d="M139.69,80.79A58.17,58.17,0,1,1,81.52,22.62,58.16,58.16,0,0,1,139.69,80.79Z"/><path class="cls-229" d="M139.67,80.64A58.15,58.15,0,1,1,81.52,22.5,58.15,58.15,0,0,1,139.67,80.64Z"/><path class="cls-230" d="M139.65,80.5A58.13,58.13,0,1,1,81.52,22.37,58.13,58.13,0,0,1,139.65,80.5Z"/><path class="cls-231" d="M139.63,80.36A58.11,58.11,0,1,1,81.52,22.25,58.11,58.11,0,0,1,139.63,80.36Z"/><path class="cls-232" d="M139.61,80.22a58.1,58.1,0,1,1-58.09-58.1A58.09,58.09,0,0,1,139.61,80.22Z"/><path class="cls-233" d="M139.59,80.08A58.08,58.08,0,1,1,81.51,22,58.07,58.07,0,0,1,139.59,80.08Z"/><path class="cls-234" d="M139.57,79.93A58.06,58.06,0,1,1,81.51,21.87,58.06,58.06,0,0,1,139.57,79.93Z"/></g><circle class="cls-235" cx="80.42" cy="80.42" r="60.35"/><g class="cls-236"><path class="cls-235" d="M80.42,21.26A59.16,59.16,0,1,1,21.26,80.42,59.22,59.22,0,0,1,80.42,21.26m0-1.19a60.35,60.35,0,1,0,60.34,60.35A60.35,60.35,0,0,0,80.42,20.07Z"/></g><path class="cls-237" d="M91.36,98.62H71.86v-1.1c0-7.33-3.55-15-6.57-20.12l-.07-.12c-.31-.53-.89-1.47-1.08-1.78l0,0L64,75.32a16.92,16.92,0,0,1-1.9-7.76c0-10,8.74-18,19.48-18s19.48,8.08,19.48,18a16.68,16.68,0,0,1-1.9,7.77l-.12.21c-.2.31-.7,1.13-1,1.66l0,.14-.08.08c-3,5.15-6.57,12.78-6.57,20.11ZM74,96.42H89.19c.32-7.48,3.85-15,6.85-20.14l0-.14.08-.09c.58-1,.89-1.48,1.07-1.74h0a14.61,14.61,0,0,0,1.65-6.76c0-8.72-7.75-15.82-17.28-15.82s-17.28,7.1-17.28,15.82A14.47,14.47,0,0,0,66,74.31h0c.32.48.87,1.4,1.07,1.73l.07.13C70.14,81.31,73.71,88.9,74,96.42ZM93.55,67.89a2.12,2.12,0,0,1-2.11-2.12c0-5.07-7.09-6.88-7.4-7a2.1,2.1,0,0,1-1.56-2.53A2.07,2.07,0,0,1,83.41,55,2.09,2.09,0,0,1,85,54.7c.43.1,10.66,2.57,10.66,11.07A2.12,2.12,0,0,1,93.55,67.89Zm-9-11.22Z"/><path class="cls-237" d="M92.35,109.19H70.87a3.62,3.62,0,0,1-3.61-3.62v-2.65a3.62,3.62,0,0,1,3.61-3.62H92.35A3.62,3.62,0,0,1,96,102.92v2.65A3.63,3.63,0,0,1,92.35,109.19ZM70.87,101.5a1.43,1.43,0,0,0-1.42,1.42v2.65A1.43,1.43,0,0,0,70.87,107H92.35a1.43,1.43,0,0,0,1.42-1.42v-2.65a1.43,1.43,0,0,0-1.42-1.42Z"/><path class="cls-237" d="M89.83,114.31H73.4V109.2H89.83Zm-14.23-2.2h12v-.71h-12Z"/></g></g></svg>