<svg id="Layer_1" data-name="Layer 1" xmlns="http://www.w3.org/2000/svg" viewBox="0 0 815 706.12"><defs><style>.cls-1{fill:#c6e3f1;}.cls-1,.cls-10,.cls-11,.cls-15,.cls-16,.cls-17,.cls-18,.cls-2,.cls-20,.cls-22,.cls-23,.cls-24,.cls-25,.cls-26,.cls-28,.cls-29,.cls-3,.cls-30,.cls-4,.cls-5,.cls-6,.cls-7,.cls-8,.cls-9{fill-rule:evenodd;}.cls-19,.cls-2{fill:#fff;}.cls-3{fill:#000618;}.cls-4{fill:#01020e;}.cls-5{fill:#ef8871;}.cls-6{fill:#f4ad85;}.cls-7{fill:#d84f50;}.cls-8{fill:#c23e3e;}.cls-9{fill:#b23539;}.cls-10{fill:#ea745d;}.cls-11{fill:#0f1630;}.cls-12{fill:#be865e;}.cls-13{fill:#915e40;}.cls-14{fill:#d49d80;}.cls-15{fill:#d5eaf5;}.cls-16{fill:#ecf6fc;}.cls-17,.cls-21{fill:#a6cae4;}.cls-18{fill:#dc5645;}.cls-20{fill:#f09a9b;}.cls-22{fill:#63a9ba;}.cls-23{fill:#80b9c9;}.cls-24{fill:#b8b8c1;}.cls-25{fill:#3a7f80;}.cls-26{fill:#51a5a5;}.cls-27,.cls-28{fill:#2f365c;}.cls-29{fill:#121c39;}.cls-30{fill:#a62a34;}.cls-31{fill:#de7272;}</style></defs><title>Staff Management</title><path class="cls-1" d="M745.3,491.62A61.6,61.6,0,0,0,683.88,553h0c0,61.64-50.42,112.07-112.06,112.07H147.19C67.13,665.11,1.62,599.6,1.62,519.53h0C1.62,439.46,67.13,374,147.19,374h0a29.3,29.3,0,0,0,29.22-29.21h0a29.31,29.31,0,0,0-29.22-29.22H71a71.23,71.23,0,0,1-71-71H0a71.24,71.24,0,0,1,70.89-71h69.29a61.6,61.6,0,0,0,61.42-61.42h0C201.6,50.43,252,0,313.67,0H669.13C749.2,0,814.71,65.51,814.71,145.58h0c0,80.06-65.51,145.58-145.58,145.58h0a29.3,29.3,0,0,0-29.22,29.21h0a29.31,29.31,0,0,0,29.22,29.22H745.3C838.23,349.59,838.23,491.62,745.3,491.62Z"/><path class="cls-2" d="M304.67,117A2,2,0,0,0,302,114c-1,.92-2,1.85-3,2.8a2,2,0,1,0,2.8,3c1-.92,2-1.83,3-2.72ZM489.37,584.2a2,2,0,1,0,.09,4.08l1.7,0,2.13-.06h.3a2,2,0,0,0,1-3.78,2,2,0,0,0-1.15-.29l-2.34.06-1.7,0Zm16.12-.89a2.06,2.06,0,0,0-1.76,1.57,2,2,0,0,0,2.21,2.49l1.86-.19,2.24-.26a2,2,0,0,0,.92-3.69,2.07,2.07,0,0,0-1.45-.36l-2.16.25-1.86.19Zm16-2.33a2.06,2.06,0,0,0-1.47,1.19,2,2,0,0,0,2.28,2.81l1.21-.23,1.89-.4.94-.21a2,2,0,0,0,.3-3.89,2,2,0,0,0-1.2-.09l-.89.2-1.85.38-1.21.24Zm15.63-3.88a2,2,0,0,0,.33,4,2.11,2.11,0,0,0,.9-.07l1.65-.52,1.76-.57.53-.18a2,2,0,0,0-1.33-3.85l-.48.16-1.71.55-1.65.52Zm15.11-5.54a2,2,0,0,0-1.21,1.79,2,2,0,0,0,2.86,1.94l1.38-.6,1.62-.74.77-.36a2,2,0,0,0-.65-3.87,2.09,2.09,0,0,0-1.1.18l-.72.34-1.58.71-1.37.61Zm14.37-7.23a2,2,0,0,0,1.2,3.79,1.93,1.93,0,0,0,.87-.27l.6-.35,1.48-.88,1.46-.89A2,2,0,0,0,571,562a2,2,0,0,0-.92.3l-1.42.86-1.43.86-.61.35ZM580,555.45a2,2,0,0,0,1.8,3.58,2.07,2.07,0,0,0,.68-.34l.89-.68,1.33-1,1-.84a2,2,0,1,0-2.56-3.17l-1,.81-1.28,1-.89.68ZM592.16,545a2,2,0,1,0,2.87,2.9l.82-.8,1.16-1.16.94-1a2,2,0,0,0-2.94-2.83l-.9.92L593,544.19l-.82.81ZM603,533.12a2,2,0,1,0,3.2,2.54l.59-.74,1-1.28,1-1.23a2,2,0,0,0-1.65-3.27,2,2,0,0,0-1.61.81l-.91,1.19-1,1.24-.59.74Zm9.32-13.1a2,2,0,0,0,2.1,3.08,2,2,0,0,0,1.37-.93l.33-.52.85-1.39,1-1.64a2,2,0,0,0-.2-2.32,2,2,0,0,0-3.34.29l-.93,1.56-.82,1.35-.33.52ZM620,505.91a2,2,0,0,0,.32,2.23,2,2,0,0,0,3.37-.49l.79-1.69.66-1.48.27-.6a2,2,0,0,0-3.17-2.39,2.09,2.09,0,0,0-.58.77l-.25.56-.64,1.44-.77,1.65ZM626.1,491a2,2,0,0,0,3.88,1.29l.48-1.42.5-1.54.31-1a2,2,0,0,0-3.91-1.2l-.29.91-.49,1.5L626.1,491Zm4.41-15.49a2,2,0,0,0,4,.88l.27-1.19.34-1.6.26-1.24a2,2,0,0,0-3.57-1.71,1.94,1.94,0,0,0-.44.91l-.24,1.21-.34,1.55-.27,1.19Zm2.76-15.87a2,2,0,1,0,4.05.46l.13-1,.17-1.64.15-1.44a2,2,0,1,0-4.07-.38l-.14,1.41-.17,1.58-.12,1Zm1.11-16.08a2,2,0,0,0,3.93.8,2.09,2.09,0,0,0,.15-.75l0-.95v-3.17a2,2,0,0,0-4.08,0v4Zm-.51-16.11a2,2,0,0,0,3.67,1,2,2,0,0,0,.39-1.38l-.08-1-.15-1.66-.16-1.46a2,2,0,0,0-.5-1.14,2,2,0,0,0-3.55,1.58l.14,1.42.15,1.62.09,1Zm-2.11-16a2,2,0,1,0,4-.77l-.21-1.13-.32-1.64-.26-1.27a2,2,0,1,0-4,.84l.25,1.23.32,1.6.21,1.14Zm-3.68-15.7a2,2,0,1,0,3.92-1.16l-.41-1.39-.49-1.62-.29-.93a2,2,0,1,0-3.89,1.23l.28.9.48,1.58.4,1.39Zm-5.21-15.26a2,2,0,0,0,3.79-1.52l-.73-1.79-.65-1.57-.2-.47a2,2,0,0,0-3.75,1.63l.19.43.64,1.54.71,1.75Zm-6.7-14.66a2,2,0,0,0,3.85-1,2,2,0,0,0-.24-.92l-.39-.75-.81-1.53-.74-1.36a2,2,0,0,0-3.83,1,2.07,2.07,0,0,0,.26.94l.72,1.33.79,1.48.39.75ZM608.05,352a2,2,0,0,0,3.39-2.27l-.93-1.42-1-1.45-.38-.56a2,2,0,0,0-3.35,2.35l.36.51,1,1.42.94,1.42Zm-9.49-13a2,2,0,0,0,3.59-1.64,2.11,2.11,0,0,0-.43-.95l-.68-.83-1.14-1.38-.82-1a2,2,0,0,0-3.1,2.65l.79.93,1.11,1.34.68.84Zm-10.75-12a2,2,0,0,0,3.43-1.92,2,2,0,0,0-.54-1l-.53-.54-1.3-1.29-1.1-1.07a2,2,0,0,0-3.4,1.94,2.08,2.08,0,0,0,.57,1l1.08,1,1.26,1.25.53.54ZM575.93,316a2,2,0,0,0,3.33-1.76,2,2,0,0,0-.74-1.39l-.62-.52-1.45-1.18-1.13-.9a2,2,0,0,0-2.06-.27,2,2,0,0,0-.47,3.48l1.1.87,1.42,1.15.62.52Zm-12.88-9.69a2,2,0,1,0,2.26-3.39l-1.09-.74-1.61-1.06-.74-.48a2,2,0,0,0-2.93,2.61,2,2,0,0,0,.74.84l.7.45,1.57,1,1.1.74Zm-13.77-8.44a2,2,0,1,0,2-3.57l-.38-.21-1.75-.95-1.51-.8a2,2,0,1,0-1.88,3.62l1.47.78,1.71.92.37.21Zm-14.47-7.16a2,2,0,1,0,1.65-3.74l-1.94-.84-1.85-.78a2,2,0,0,0-2.55,2.91,2,2,0,0,0,1,.85l1.81.77,1.9.83Zm-15-5.9a2,2,0,0,0,2.41-3,2,2,0,0,0-1.08-.87l-.3-.1-3.61-1.21a2,2,0,0,0-2.45,2.85,2,2,0,0,0,1.19,1c1.19.39,2.36.79,3.54,1.19l.3.1ZM504.3,280a2,2,0,0,0,1.12-3.93L501.47,275a2,2,0,0,0-1.08,3.94c1.31.36,2.61.72,3.91,1.1Zm-15.71-4.11a2,2,0,0,0,1.84-3.51,1.9,1.9,0,0,0-.89-.46c-1.28-.24-2.71-.64-4-.94a2,2,0,0,0-2.11,3.18,2,2,0,0,0,1.21.8c1.27.29,2.69.7,3.95.93Zm-15.87-3.47a2,2,0,0,0,1.92-3.36,2,2,0,0,0-1.13-.64l-4-.79a2,2,0,0,0-1.71,3.56,2,2,0,0,0,1,.45l4,.78Zm-16-2.9a2,2,0,0,0,.66-4l-4-.65a2,2,0,0,0-1.4,3.75,2.12,2.12,0,0,0,.76.28l4,.65Zm-16.09-2.41a2,2,0,0,0,1.9-3.25,2,2,0,0,0-1.36-.8l-4.05-.54a2,2,0,1,0-.52,4.05c1.34.18,2.69.35,4,.54Zm-16.16-2a2,2,0,0,0,.45-4.06l-4.07-.43a2,2,0,0,0-1.53,3.59,2,2,0,0,0,1.11.47l4,.43Zm-16.2-1.59a2,2,0,0,0,1.47-3.62,2,2,0,0,0-1.11-.45l-4.08-.35a2,2,0,0,0-.34,4.07l4.06.35ZM392,262.08a2,2,0,0,0,1.35-3.73,2,2,0,0,0-.9-.32l-4-.46a2.07,2.07,0,0,0-1.92.86,2,2,0,0,0,1.43,3.2q2,.24,4.08.45ZM375.67,260a2,2,0,0,0,.65-4c-1.33-.21-2.68-.41-4-.65a2,2,0,0,0-1.78.55,2,2,0,0,0,1.08,3.47c1.34.24,2.7.45,4.05.66Zm-16.16-3a2,2,0,0,0,2-3.3,2,2,0,0,0-1.12-.69c-1.32-.29-2.64-.59-3.95-.9a2,2,0,0,0-2.22,3,2,2,0,0,0,1.28.92c1.33.32,2.67.62,4,.92Zm-16-4.09a2,2,0,1,0,1.17-3.91c-1.29-.38-2.58-.78-3.86-1.19a2,2,0,0,0-2.26,3.17,2,2,0,0,0,1,.72c1.31.42,2.63.82,3.95,1.21Zm-15.61-5.38a2,2,0,0,0,1.52-3.79c-1.25-.5-2.49-1-3.72-1.54a2,2,0,0,0-2.32,3.25,2.19,2.19,0,0,0,.7.5c1.27.54,2.54,1.07,3.82,1.58Zm-15-7a2,2,0,0,0,1.94-3.59c-1.17-.64-2.34-1.29-3.49-2a2,2,0,0,0-1.8-.14,2,2,0,0,0-.28,3.65q1.8,1,3.63,2Zm-14-8.91a2,2,0,0,0,3.16-2.29,2,2,0,0,0-.7-1c-1.07-.8-2.11-1.63-3.15-2.47a2,2,0,1,0-2.59,3.16c1.08.87,2.17,1.73,3.28,2.57ZM286.51,220.4a2,2,0,1,0,3-2.73c-.9-1-1.76-2-2.6-3a2,2,0,1,0-3.16,2.58c.88,1.08,1.79,2.14,2.73,3.17Zm-9.82-13.59a2,2,0,1,0,3.58-2c-.64-1.16-1.24-2.32-1.81-3.52a2,2,0,1,0-3.69,1.74c.6,1.27,1.24,2.51,1.92,3.74Zm-6.19-15.63a2,2,0,1,0,4-1c-.32-1.28-.6-2.56-.83-3.86a2,2,0,0,0-4-.2,2.15,2.15,0,0,0,0,.91c.25,1.38.55,2.76.89,4.12Zm-1.89-16.71a2,2,0,0,0,3.83,1.05,2,2,0,0,0,.25-1c0-1.32.1-2.63.21-3.94a2,2,0,0,0-3.78-1.23,2,2,0,0,0-.28.86c-.13,1.39-.2,2.81-.23,4.21Zm2.69-16.62a2,2,0,0,0,3.9,1.21c.37-1.19.81-2.6,1.29-3.73a2,2,0,1,0-3.82-1.46c-.5,1.29-1,2.65-1.37,4Zm6.78-15.32a2.08,2.08,0,0,0,.16,2.29,2.05,2.05,0,0,0,3.38-.24c.66-1.15,1.35-2.29,2.07-3.41a2.06,2.06,0,0,0-.15-2.41,2,2,0,0,0-3.29.21c-.75,1.17-1.47,2.36-2.17,3.56Zm9.51-13.65a2,2,0,0,0,1.72,3.33,2.09,2.09,0,0,0,1.44-.75c.84-1,1.71-2.05,2.59-3.06a2,2,0,0,0-2.23-3.26,1.94,1.94,0,0,0-.84.57C289.36,126.74,288.46,127.81,287.59,128.88Z"/><path class="cls-3" d="M323.84,286.23a1.3,1.3,0,0,1,2.19,1.39c-.15.23-51.42,79.89-10.92,126.33a1.29,1.29,0,1,1-1.94,1.7C271.38,367.74,323.69,286.47,323.84,286.23Z"/><path class="cls-3" d="M473.35,275.13a1.29,1.29,0,1,1,2.19-1.37c.08.13,29.37,45.58-1.52,80.51a1.29,1.29,0,0,1-1.82.11,1.28,1.28,0,0,1-.11-1.82C501.67,319.1,473.43,275.26,473.35,275.13Z"/><path class="cls-3" d="M332.13,232.44l-21.6,23.74a86.63,86.63,0,0,1,9.31,42.3c-1,24-81.93,157,67.54,156.33S453.69,377,453.69,377,503,361,478.1,289.65,332.13,232.44,332.13,232.44Z"/><path class="cls-4" d="M455.07,378.35c-.87-.87-1.38-1.34-1.38-1.34a32.66,32.66,0,0,0,4.48-2,135.28,135.28,0,0,0,12.77-16.87c20.39-31.69-1.31-75.26-1.31-75.26l-11.54-3.44s-23-8.23-29.14-10.29-77.48,2.4-97.7,40.46,2.3,93.22,2.3,93.22,84.09-2.72,88.89-3.06C426,399.52,439.83,394.14,455.07,378.35Z"/><path class="cls-5" d="M495.27,399.1c24,10.49,27.13,32.44,30.25,56.88,2.77,21.67,3.63,54.36-2.07,104S427,494.49,427,494.49Z"/><path class="cls-6" d="M354.05,398.45l-23.31-11.92s-24.63,6.13-37.23,22-50.76,151.2-52.2,167.76,9.78,79.65,30.3,79.65S302.34,518,302.34,518l16.76-51.7Z"/><path class="cls-5" d="M354.05,398.45l-23.31-11.92a91.67,91.67,0,0,0-17,6.54c3,1.46,5.38,5.19,5.11,13.45-.72,21.6-33.67,104-40.87,127.08s-13,36.73-13,36.73l-15-31.47c-1.36,5.08-2.59,9.85-3.68,14.19,5.61,30.24,12.59,71.71,13.54,95.41,3.48,4.61,7.4,7.45,11.75,7.45,20.52,0,30.73-137.93,30.73-137.93l16.76-51.7Z"/><path class="cls-7" d="M415.83,368.71s61.95,22.08,79.44,30.39c0,0-3.35,3.5-7.11,22.49s0,46.8-4,74.16c-2.87,19.77-16.25,119.79-23.46,173.77L308.06,657.2c-.05-2.41-.15-5.3-.29-8.57,12.55,9.76,24.56,10.19,17.12-18.33-13-49.68-10.44-136.08-6.12-162s10.76-53.21,4.64-79.49C327.52,385.11,415.83,368.71,415.83,368.71Z"/><path class="cls-8" d="M456.52,383.6c15.49,5.81,31.23,11.93,38.75,15.5,0,0-3.35,3.5-7.11,22.49s0,46.8-4,74.16c-.58,4-1.57,11.14-2.86,20.51-34.49,5.38-136.39,17-160.85,14.88a42.92,42.92,0,0,1-5.22-.78c0-27,1.57-50.52,3.49-62.06.11-.67.23-1.33.34-2,8.63,25.48,117.3,39.72,117.3,39.72s18-39.86,13.33-54.62-26.28-14.35-26.28-14.35l.54-13.19s21.61-29.25,26.8-38.15C451.45,384.59,453.47,383.91,456.52,383.6Z"/><path class="cls-9" d="M465.3,386.92l1.27.48c-2.75,11.1-6.43,24.13-11.58,31.8-4.64,6.91-10.06,13.29-17.94,17.85s-18.14,7.29-32.5,6.93a48.09,48.09,0,0,1-30.36-11.48C364.06,424,357.78,412.17,355,402.31c-3.95-13.81-7.68-18.4-8.95-19.65l1.51-.33c1.77,2.07,5.24,7.36,8.75,19.6,2.77,9.66,8.9,21.21,18.8,29.53a46.71,46.71,0,0,0,29.52,11.16c14.08.36,24.13-2.3,31.79-6.74s12.95-10.67,17.49-17.44c5.06-7.53,8.71-20.49,11.44-31.52Zm25.44,10.14,1.13.5c-3,5.28-7.18,16.36-11,39.55-4.62,27.8.68,40.34,4.73,45.62,0,.63-.09,1.27-.14,1.9-4.35-4.94-10.92-17.7-5.93-47.74,3.8-22.79,8.08-34.17,11.25-39.83ZM317.74,476c.09-.87.19-1.71.29-2.52,3.48-6.85,16.73-37,9.18-86.19l1.31-.39c8.69,56.27-9.68,88-10.11,88.74a.7.7,0,0,1-.15.19A.68.68,0,0,1,317.74,476Z"/><path class="cls-5" d="M411,302.45h.47a24.47,24.47,0,0,1,24.73,24.16l.31,49.6c9,3.28,19.75,7.27,29.83,11.12-15.85,34.23-34.55,56.85-64.43,50.37C361,428.82,362.47,394.45,350,381.78c11.65-2.52,25.31-5.26,37.16-7.58l-.3-47A24.58,24.58,0,0,1,411,302.45Z"/><path class="cls-10" d="M434.72,318.36a24,24,0,0,1,1.51,8.25l.31,49.6c9,3.28,19.75,7.27,29.83,11.12-11.66,25.17-24.86,44.07-42.91,49.72,28.71-19.36,19.88-43.27,13.76-45.79s-54.71-16.15-54.71-16.15l4.65-.91-.3-47a24.65,24.65,0,0,1,8.79-19C408.59,308.06,421.49,312.08,434.72,318.36Z"/><path class="cls-10" d="M466.34,255.47c.47,0,1,0,1.42.05h0a19.11,19.11,0,1,1-15.31,5.91c.27,5.66,2.08,12.46,9.31,12.2l-1.66-10.89C459.44,258.34,463.29,255.76,466.34,255.47Z"/><path class="cls-10" d="M329.78,277c-.46.12-.91.26-1.36.42h0a19.12,19.12,0,1,0,16.32,1.71c1.22,5.53,1.26,12.57-5.79,14.21l-1.25-10.95C337.19,278,332.8,276.49,329.78,277Z"/><path class="cls-6" d="M388.8,171.57h0a65.64,65.64,0,0,1,73.5,56.23l7.85,59a65.64,65.64,0,0,1-56.23,73.5h0a65.63,65.63,0,0,1-73.49-56.23l-7.85-59A65.62,65.62,0,0,1,388.8,171.57Z"/><path class="cls-5" d="M388.8,171.57h0a65.66,65.66,0,0,1,72.54,50.79,27.48,27.48,0,0,1-3,9.61l-30.23-1.77s-19.9,38-60.77,47.29c-11,2.48-14.44,13.55-12.19,24.07,5.46,25.63,27.46,62.34,81.62,51.19a64.74,64.74,0,0,1-22.86,7.54h0a65.63,65.63,0,0,1-73.49-56.23l-7.85-59A65.62,65.62,0,0,1,388.8,171.57Z"/><path class="cls-10" d="M376.94,301.59a8.6,8.6,0,1,1-7.21,9.8A8.59,8.59,0,0,1,376.94,301.59Z"/><path class="cls-10" d="M447.47,290.43a8.6,8.6,0,1,1-7.21,9.8A8.61,8.61,0,0,1,447.47,290.43Z"/><path class="cls-4" d="M366.87,267.37a2.46,2.46,0,0,0-.61,4.88,25.22,25.22,0,0,0,7.05-.2,19.72,19.72,0,0,0,12.3-6.76,2.46,2.46,0,0,0-3.79-3.13C378.23,266.51,372.27,267.94,366.87,267.37Z"/><path class="cls-3" d="M475.36,412.48s2.5-.36,3.06,1.6-7.72,12.49-8.26,12.85-17-1.71-17-1.71-.87-.81-.68-1.44a3,3,0,0,1,.79-1.17Z"/><path class="cls-4" d="M448.81,248.31c-5.37-1-11.38-.1-15.34,4a2.46,2.46,0,0,1-3.53-3.43,19.75,19.75,0,0,1,12.82-5.74,24.76,24.76,0,0,1,7,.37,2.46,2.46,0,0,1-1,4.82Z"/><path class="cls-3" d="M348.81,274.61s.58,4.33,1.11,8.36-7.19,14.8-10.27,15.21l-2-14.7s-2.21-6.56-10.53-5.45c-29.43-26-32.27-73-8.23-100.78s82.36-37.12,93-35.07,23.5,18,23.5,18,7.65-8.9,16.23-5.94,42.29,50.15,44,62.85-19.54,41.13-19.54,41.13c-8.32,1.1-8.73,8-8.73,8l1.22,9.13c-3.09.41-5.37-3.49-5.9-7.52s-1.12-8.36-1.12-8.36c-27.15-8-41.87-41.12-41.87-41.12S391.45,275.17,348.81,274.61Z"/><path class="cls-11" d="M302.78,222.86a71.78,71.78,0,0,1,8.4-34.37c26.62,20.62,69.62,34.43,105.43-44.68a38.86,38.86,0,0,1,6.79,4.4C409.52,188.44,374.09,258.69,302.78,222.86Z"/><path class="cls-4" d="M348.81,274.61s.58,4.33,1.11,8.36-7.19,14.8-10.27,15.21l-2-14.7s-2.21-6.56-10.53-5.45a72.31,72.31,0,0,1-22.32-37.74s50.43,35,112.46-30.1c0,0,28.38,44.27,69.9,31.08a191.34,191.34,0,0,1-11.06,16.93c-8.32,1.1-8.73,8-8.73,8l1.22,9.13c-3.09.41-5.37-3.49-5.9-7.52s-1.12-8.36-1.12-8.36c-27.15-8-41.87-41.12-41.87-41.12S391.45,275.17,348.81,274.61Z"/><path class="cls-5" d="M473.83,362.09l4.24,1.16s2.49-22.16,2.47-24.31-1.12-5.23-2.76-8.85-7.64-17.3-8-17.74-4.2,2.94-2.45,8.93,4.71,14.11,4.69,15.84-4,17.09-4,17.09Z"/><path class="cls-6" d="M478.08,362.29a9.43,9.43,0,0,0-4.94-8.23c-4.26-2.58-14.31-10.54-16.46-11.47s-4.59-.51-7.14,1.11-10.59,7.15-12.28,8.91-5.91,12.61-6.43,13.74,3.73,2.17,7.11-.39c0,0-1.77,3.56-2.34,4.76s-1.35,10.38-1.42,12.24,5.07.93,6.81-3.35c0,0-.28,3.08-.28,4s2.94.59,2.94.59,3.39,18.39,4.15,20.69,29.95,107.26,29.95,107.26L520,509.64s-46.07-103-46.37-104.54C471,392.14,478.14,373.18,478.08,362.29Z"/><path class="cls-5" d="M443.65,384.24l.18,1h0l.06.36v.24h0v.05l0,.11V386h0l0,.17v.06c.91,4.84,3.17,16.83,3.78,18.66s16.76,59.86,25.09,89.81A121.74,121.74,0,0,0,489,486.8s-32.67-76.05-33.44-79.05,1-5.37.41-6.18-3.15-2-3.78-4.14-2.16-9.81-1.17-12.87c.76-2.36,3.24-2.07,4.33-1.82a29.4,29.4,0,0,0,3.21.81c1.64.21,1.51-.79,1.51-.79.36-3.38,3.65-8.21,3.65-8.21-1.79-1-4.56-5.58-4.56-5.58-1.83-.79-3.27-1.81-4.7-.8s-5.4,5.14-5.41,5.5a55.27,55.27,0,0,1-1.1,7.12C447.29,383.5,443.65,384.24,443.65,384.24Z"/><path class="cls-3" d="M254.75,674.31H560.89c4.71,0,8.55-4.14,8.55-9.2h0c0-5.06-3.84-9.2-8.55-9.2H254.75c-4.7,0-8.55,4.14-8.55,9.2h0C246.2,670.17,250.05,674.31,254.75,674.31Z"/><path class="cls-3" d="M566.45,479.19H249.2a7.22,7.22,0,0,0-7.29,8.58l24.25,161a10.37,10.37,0,0,0,9.87,8.58H539.62a10.38,10.38,0,0,0,9.87-8.58l24.24-161A7.22,7.22,0,0,0,566.45,479.19Z"/><path class="cls-11" d="M559.39,486.8H256.25a6.9,6.9,0,0,0-7,8.2l23.17,153.88a9.9,9.9,0,0,0,9.43,8.19H533.75a9.91,9.91,0,0,0,9.44-8.19L566.36,495A6.91,6.91,0,0,0,559.39,486.8Z"/><path class="cls-3" d="M266.52,609.41l5.94,39.47a9.9,9.9,0,0,0,9.43,8.19H533.75a9.91,9.91,0,0,0,9.44-8.19L566.36,495a6.9,6.9,0,0,0-4.49-7.79C527.17,547.07,441.91,645.11,266.52,609.41Z"/><path class="cls-3" d="M407.82,616.17c18.58,0,33.72-12.65,33.72-28.15s-15.14-28.14-33.72-28.14S374.11,572.52,374.11,588,389.25,616.17,407.82,616.17Z"/><path class="cls-2" d="M407.82,566.64c9.43,0,17.67,4.25,22.12,10.59L390.74,604c-5.24-3.91-8.54-9.6-8.54-15.94,0-11.81,11.47-21.38,25.62-21.38Zm20.82,33.85L416.86,594,397.23,607.5a29.78,29.78,0,0,0,10.59,1.91C416.4,609.41,424,605.89,428.64,600.49Z"/><path class="cls-4" d="M441.93,266h0a5.48,5.48,0,0,0-4.54,6.26l1.12,7a5.49,5.49,0,0,0,6.27,4.54h0a5.49,5.49,0,0,0,4.54-6.26l-1.12-7A5.48,5.48,0,0,0,441.93,266Z"/><path class="cls-4" d="M376.4,276h0a5.49,5.49,0,0,0-4.54,6.27l1.12,7a5.48,5.48,0,0,0,6.26,4.54h0a5.48,5.48,0,0,0,4.54-6.26l-1.12-7A5.49,5.49,0,0,0,376.4,276Z"/><path class="cls-5" d="M413.12,323.72a2,2,0,0,1-.39-2.75,1.9,1.9,0,0,1,2.71-.16s6.56,5.72,18.21-5a2,2,0,0,1,2.75,3C422.33,331.71,413.14,323.74,413.12,323.72Z"/><path class="cls-11" d="M476.92,412.85a1.23,1.23,0,0,1,1,1.19c.14,1.08-6.39,9.56-24.66,10.2,0,0-.44-.14-.5-.42s.22-.59.22-.59l-.1-.34s-.65.47-.65,1,2.7,11.85,3.24,14.69,6.09,2.18,10.78,1,15.89-5.06,18.83-11.12a5.88,5.88,0,0,0-.09-2.84c-.45-1.3-6.12-11.81-6.41-12.44a1.77,1.77,0,0,0-1.83-.82Z"/><path class="cls-3" d="M461.91,423.24a51.63,51.63,0,0,1-8.67,1s-.44-.14-.5-.42.22-.59.22-.59l-.1-.34s-.65.47-.65,1,2.7,11.85,3.24,14.69,6.09,2.18,10.78,1c.67-.16,1.47-.38,2.36-.65l-6.68-15.76Z"/><path class="cls-3" d="M154.66,683h505.7a11.59,11.59,0,0,1,11.55,11.55h0a11.59,11.59,0,0,1-11.55,11.55H154.66a11.58,11.58,0,0,1-11.55-11.55h0A11.59,11.59,0,0,1,154.66,683Z"/><rect class="cls-12" x="115.34" y="665.11" width="584.33" height="29.47" rx="14.73"/><rect class="cls-13" x="466.39" y="665.11" width="30.65" height="29.47"/><rect class="cls-13" x="512.97" y="665.11" width="15.92" height="29.47"/><rect class="cls-13" x="545.61" y="665.11" width="7.96" height="29.47"/><rect class="cls-13" x="580.84" y="665.11" width="34.29" height="29.47"/><rect class="cls-13" x="640.98" y="665.11" width="17.14" height="29.47"/><rect class="cls-14" x="122.51" y="669.89" width="287.19" height="17.52" rx="8.76"/><polygon class="cls-15" points="310.07 68.12 316.38 104.41 398.18 38.61 312.76 59.62 310.07 68.12"/><path class="cls-16" d="M316.38,104.41,347.93,79a51.36,51.36,0,0,1,1.47-6.43l-26.51,7.12Z"/><polygon class="cls-2" points="398.18 38.61 287.55 59.07 310.07 68.12 398.18 38.61"/><polygon class="cls-2" points="398.18 38.61 348.47 104.66 322.89 79.72 398.18 38.61"/><path class="cls-17" d="M114.3,378.51a144.85,144.85,0,0,1,33.52-3.93h0A29.3,29.3,0,0,0,177,345.37h0a29.38,29.38,0,0,0-.29-4.12H223a12.71,12.71,0,0,1,12.67,12.67v89.41a1.41,1.41,0,0,1-2.41,1l-21.6-21.6H127a12.71,12.71,0,0,1-12.68-12.68Z"/><path class="cls-18" d="M122.16,336.43h96A12.71,12.71,0,0,1,230.8,349.1v89.41a1.41,1.41,0,0,1-2.41,1l-21.6-21.6H122.16a12.71,12.71,0,0,1-12.68-12.67V349.1A12.71,12.71,0,0,1,122.16,336.43Z"/><path class="cls-2" d="M183.47,359.28l15.87.07a14.34,14.34,0,0,1,10.36,4.49A15.39,15.39,0,0,1,214,374.51v.06a1.21,1.21,0,0,1,0,.19,15.21,15.21,0,0,1-4.31,10.4,14.44,14.44,0,0,1-10.35,4.43h-.23l-15.71-.06-28,14a3.78,3.78,0,0,1-1.93.42,3.83,3.83,0,0,1-1.88-.63,3.93,3.93,0,0,1-1.33-1.45,4,4,0,0,1-.46-1.89l.19-51.43a4,4,0,0,1,.47-1.9,3.93,3.93,0,0,1,1.34-1.44,3.81,3.81,0,0,1,3.82-.19l.15.08,27.75,14.17Zm15.87,4.05L183,363.26a2.09,2.09,0,0,1-.91-.21l-28.16-14.38-.18,51.23,28.2-14.13a2.07,2.07,0,0,1,1-.24l16.18.07h.22a10.45,10.45,0,0,0,7.49-3.21,11.25,11.25,0,0,0,3.19-7.66v-.21a11.43,11.43,0,0,0-3.14-7.91A10.41,10.41,0,0,0,199.34,363.33Z"/><path class="cls-2" d="M202.87,387.05V405a6.4,6.4,0,0,1-6.39,6.39h0a6.41,6.41,0,0,1-6.39-6.39V387.55l9.16,0A12.11,12.11,0,0,0,202.87,387.05Z"/><rect class="cls-19" x="185.95" y="361.29" width="3" height="26.26"/><rect class="cls-19" x="195.56" y="361.29" width="3" height="26.26"/><path class="cls-2" d="M144,365.8a2,2,0,0,1-.67,3.94L128,367.07a2,2,0,0,1,.68-3.94L144,365.8Zm-1.2,24.76a2,2,0,0,1,1.73,3.59L134.41,399a2,2,0,0,1-1.73-3.6l10.1-4.87Zm1.73-36.14a2,2,0,0,1-1.73,3.59l-11.55-5.57a2,2,0,1,1,1.73-3.59l11.55,5.57Zm-1.2,24.41a2,2,0,0,1,.67,3.94l-15.33,2.67a2,2,0,0,1-.68-3.94Z"/><path class="cls-17" d="M656.77,108H556.92a13.23,13.23,0,0,0-13.19,13.19v93a1.48,1.48,0,0,0,2.52,1l22.47-22.47h88A13.23,13.23,0,0,0,670,179.54v-58.4A13.22,13.22,0,0,0,656.77,108Z"/><path class="cls-18" d="M651,108H551.19A13.23,13.23,0,0,0,538,121.14v93a1.48,1.48,0,0,0,2.52,1L563,192.73h88a13.23,13.23,0,0,0,13.18-13.19v-58.4A13.22,13.22,0,0,0,651,108Z"/><path class="cls-20" d="M576.18,148.53a9.5,9.5,0,1,0-9.5-9.5A9.52,9.52,0,0,0,576.18,148.53Z"/><path class="cls-20" d="M576.18,151.54h0A13.51,13.51,0,0,1,589.65,165v13.14a1.51,1.51,0,0,1-1.51,1.51H564.22a1.52,1.52,0,0,1-1.51-1.51V165A13.51,13.51,0,0,1,576.18,151.54Z"/><path class="cls-20" d="M626,148.53a9.5,9.5,0,1,0-9.5-9.5A9.52,9.52,0,0,0,626,148.53Z"/><path class="cls-20" d="M626,151.54h0A13.51,13.51,0,0,1,639.51,165v13.14a1.51,1.51,0,0,1-1.5,1.51H614.08a1.52,1.52,0,0,1-1.51-1.51V165A13.51,13.51,0,0,1,626,151.54Z"/><path class="cls-2" d="M601.11,142.21a11.43,11.43,0,1,0-11.42-11.43A11.45,11.45,0,0,0,601.11,142.21Z"/><path class="cls-2" d="M601.11,145.83h0A16.25,16.25,0,0,1,617.32,162v15.8a1.83,1.83,0,0,1-1.82,1.82H586.72a1.82,1.82,0,0,1-1.81-1.82V162A16.25,16.25,0,0,1,601.11,145.83Z"/><path class="cls-2" d="M740,386.71a33.92,33.92,0,1,1-24,9.94,33.83,33.83,0,0,1,24-9.94Zm30.25,35.74H756.4a66.42,66.42,0,0,1-1.16,11,41.29,41.29,0,0,1,10.16,3.72,30.17,30.17,0,0,0,4.84-14.71Zm-17.46,0h-11v9.32a68.28,68.28,0,0,1,9.9,1,63.34,63.34,0,0,0,1.08-10.27Zm-14.6,0h-11a63.32,63.32,0,0,0,1.07,10.27,68.55,68.55,0,0,1,9.9-1v-9.32Zm-14.59,0H709.74a30.17,30.17,0,0,0,4.84,14.71,41.44,41.44,0,0,1,10.16-3.72,67.5,67.5,0,0,1-1.15-11Zm-13.85-3.62h13.85a66.32,66.32,0,0,1,.86-9.34,40.29,40.29,0,0,1-10.66-4.09,30.16,30.16,0,0,0-4,13.43Zm18.25-8.6a63.48,63.48,0,0,0-.78,8.6h11v-7.6a67,67,0,0,1-10.19-1Zm24,0a67.12,67.12,0,0,1-10.2,1v7.6h11a66.87,66.87,0,0,0-.78-8.6Zm4.4,8.6h13.84a30.16,30.16,0,0,0-4-13.43,39.8,39.8,0,0,1-10.65,4.09,69.44,69.44,0,0,1,.86,9.34Zm-14.6-28.17v17a66,66,0,0,0,9.51-.94,41.41,41.41,0,0,0-2.63-8c-1.28-2.83-3.66-6.85-6.88-8Zm0,44.73v15.22c3.22-1.17,5.6-5.19,6.88-8a39,39,0,0,0,2.22-6.34,64.43,64.43,0,0,0-9.1-.86Zm-3.62,15.22V435.39a64.71,64.71,0,0,0-9.1.86,39,39,0,0,0,2.22,6.34c1.29,2.83,3.66,6.85,6.88,8Zm0-43v-17c-3.22,1.17-5.59,5.19-6.88,8a41.38,41.38,0,0,0-2.62,8,65.74,65.74,0,0,0,9.5.94Zm-22.38-5.24a36.67,36.67,0,0,0,9.34,3.55,45.27,45.27,0,0,1,2.87-8.75,27.14,27.14,0,0,1,3.35-5.6,30.2,30.2,0,0,0-12.79,7.63,29.8,29.8,0,0,0-2.77,3.17Zm39.05,3.55a36.74,36.74,0,0,0,9.33-3.55,29.7,29.7,0,0,0-2.76-3.17,30.29,30.29,0,0,0-12.8-7.63,26.71,26.71,0,0,1,3.35,5.6,45.3,45.3,0,0,1,2.88,8.75Zm8.37,34.17a38.07,38.07,0,0,0-8.77-3.13,43.49,43.49,0,0,1-2.48,7.12,26.45,26.45,0,0,1-3.35,5.6,30.37,30.37,0,0,0,12.8-7.62c.63-.63,1.23-1.29,1.8-2ZM725.53,437a38.23,38.23,0,0,0-8.77,3.13c.57.68,1.17,1.34,1.81,2a30.28,30.28,0,0,0,12.79,7.62,26.88,26.88,0,0,1-3.35-5.6A44.45,44.45,0,0,1,725.53,437Z"/><path class="cls-2" d="M74.71,231.55a12.41,12.41,0,0,1,4.87-5.08,7.49,7.49,0,0,0,3.69-4.94,32,32,0,0,0,.75-8.29,1.9,1.9,0,0,1,1.9-1.9h3.25a3.24,3.24,0,0,1,1,.16,7,7,0,0,1,3.53,3.28,12.46,12.46,0,0,1,1.54,6,14,14,0,0,1-.64,4.11c-.29.93-1.09,3.62-.72,4.55a1.46,1.46,0,0,0,.56.07h8.15a10.79,10.79,0,0,1,2.77.35,6.55,6.55,0,0,1,3.28,2,6.28,6.28,0,0,1,1.48,4.28,11.16,11.16,0,0,1-.29,2.45c1.18,3,1.41,6.8-1,9.28.15,2.51-.47,5.24-2.59,6.76a8,8,0,0,1-7.84,5.83h-15c-2.56,0-5.11-1.36-7.19-2.93a4.32,4.32,0,0,1-1.11,1.91l-.07.06a4.23,4.23,0,0,1-2.9,1.15h-6.8a4.23,4.23,0,0,1-4.23-4.23V234.94a4.27,4.27,0,0,1,1.27-3l.07,0a4.15,4.15,0,0,1,2.89-1.16h6.8a4.25,4.25,0,0,1,2.53.84Zm1.7,21.09c1.71,1.73,4.59,4,7,4h15a4.39,4.39,0,0,0,4.36-3.62,1.86,1.86,0,0,1,1-1.32c1.38-.69,1.42-3,1.22-4.22a1.88,1.88,0,0,1,.73-1.92c1.8-1.33,1.19-4.22.42-5.93a1.91,1.91,0,0,1-.16-1.39,8.29,8.29,0,0,0,.32-2.11,2.68,2.68,0,0,0-.53-1.78,2.78,2.78,0,0,0-1.41-.78,6.75,6.75,0,0,0-1.79-.21H94.42a3.92,3.92,0,0,1-4-2.39c-.85-2.06-.06-5.15.57-7.17a9.72,9.72,0,0,0,.47-3,8.51,8.51,0,0,0-1-4.16,4.31,4.31,0,0,0-1.31-1.51H87.81a29.65,29.65,0,0,1-.89,7.41,11.19,11.19,0,0,1-5.54,7.27c-2.81,1.51-4.49,5.19-5,8.25v14.57Zm-4.23-18.13h-6.8a.37.37,0,0,0-.25.08l0,0a.43.43,0,0,0-.13.3V256.4a.44.44,0,0,0,.13.31.42.42,0,0,0,.3.12h6.8a.35.35,0,0,0,.26-.08l0,0a.44.44,0,0,0,.13-.31V234.94a.42.42,0,0,0-.13-.3A.43.43,0,0,0,72.18,234.51Z"/><rect class="cls-19" x="613.25" y="74.54" width="10.8" height="10.8" rx="2.52"/><rect class="cls-21" x="633.23" y="74.54" width="10.8" height="10.8" rx="2.52"/><rect class="cls-19" x="653.21" y="74.54" width="10.8" height="10.8" rx="2.52"/><rect class="cls-21" x="673.19" y="74.54" width="10.8" height="10.8" rx="2.52"/><rect class="cls-19" x="693.17" y="74.54" width="10.8" height="10.8" rx="2.52"/><rect class="cls-19" x="713.15" y="74.54" width="10.8" height="10.8" rx="2.52"/><rect class="cls-19" x="733.12" y="74.54" width="10.8" height="10.8" rx="2.52"/><rect class="cls-19" x="673.91" y="52.76" width="10.8" height="10.8" rx="2.52"/><rect class="cls-21" x="693.89" y="52.76" width="10.8" height="10.8" rx="2.52"/><rect class="cls-19" x="713.87" y="52.76" width="10.8" height="10.8" rx="2.52"/><rect class="cls-19" x="693.17" y="97.94" width="10.8" height="10.8" rx="2.52"/><rect class="cls-21" x="713.15" y="97.94" width="10.8" height="10.8" rx="2.52"/><path class="cls-2" d="M210.85,250.11h0a14.85,14.85,0,0,1,20.94,0l1.42,1.42,1.43-1.42a14.84,14.84,0,0,1,20.93,0h0a14.85,14.85,0,0,1,0,20.94l-1.42,1.42-20.94,20.94-20.93-20.94-1.43-1.42A14.87,14.87,0,0,1,210.85,250.11Z"/><path class="cls-22" d="M182.59,496.06c-15.35-15.64-26.78,4.22-25.18,24.16,1.51,18.9,17.8,83.76,14.78,111h6.24C193.69,596.28,202.25,516.07,182.59,496.06Z"/><path class="cls-23" d="M176.14,631.27c14.85-55.15-3.95-131.38-4-131.64a.88.88,0,1,0-1.71.41c.06.26,18.89,76.58,3.92,131.23Z"/><path class="cls-2" d="M144.71,530.52c-16.19-8.58-20.27,10.13-14,25.61,5.23,12.82,28.33,50.76,37.06,75.14H176C176.74,597.58,163.81,540.63,144.71,530.52Z"/><path class="cls-24" d="M173,631.27c-5.35-45.56-35.65-95.09-35.76-95.27a.74.74,0,0,0-1.26.77c.11.18,30.21,49.38,35.56,94.5Z"/><path class="cls-25" d="M213.1,552.14c15.69-6.85,18.17,10.87,11.21,24.85-4.72,9.46-21.71,33.67-33.15,54.28H178.1C182.56,600.1,196.89,559.22,213.1,552.14Z"/><path class="cls-26" d="M182.76,631.27c11.14-37.76,36.78-73.35,36.89-73.49a.69.69,0,0,1,1.12.8c-.11.14-25.48,35.35-36.59,72.69Z"/><rect class="cls-27" x="147.82" y="616.56" width="60.12" height="19.29" rx="2.95"/><polygon class="cls-28" points="160.07 627.45 195.69 627.45 205 635.84 197.4 665.11 177.88 665.11 158.37 665.11 150.77 635.84 160.07 627.45"/><polygon class="cls-29" points="205 635.84 203.43 641.86 152.33 641.86 150.77 635.84 205 635.84"/><circle class="cls-21" cx="462.95" cy="74.72" r="5.04"/><circle class="cls-21" cx="545.03" cy="363.45" r="5.04"/><circle class="cls-21" cx="647.27" cy="573.7" r="5.04"/><circle class="cls-21" cx="59.73" cy="533.37" r="5.04"/><path class="cls-17" d="M664.55,233.12a5,5,0,1,0-5-5A5,5,0,0,0,664.55,233.12Z"/><circle class="cls-21" cx="210.94" cy="194.96" r="5.04"/><circle class="cls-19" cx="198.7" cy="484.41" r="5.04"/><circle class="cls-19" cx="680.39" cy="459.21" r="5.04"/><path class="cls-2" d="M579.59,251.12a5,5,0,1,0-5-5A5.05,5.05,0,0,0,579.59,251.12Z"/><circle class="cls-19" cx="538.55" cy="59.6" r="5.04"/><circle class="cls-19" cx="741.59" cy="186.32" r="5.04"/><path class="cls-30" d="M661.16,616.6a16.49,16.49,0,1,1-11.65,4.83,16.44,16.44,0,0,1,11.65-4.83Zm7.1,9.38a10,10,0,1,0,2.94,7.1A10,10,0,0,0,668.26,626Z"/><path class="cls-7" d="M634.92,665.35h0a25.92,25.92,0,0,0,25.85-25.85V612.57a2.3,2.3,0,0,0-2.29-2.29H611.37a2.3,2.3,0,0,0-2.29,2.29V639.5A25.92,25.92,0,0,0,634.92,665.35Z"/><path class="cls-30" d="M651.92,636.27a25.65,25.65,0,0,1-1.25,7.92,24.84,24.84,0,0,1-1.72,4.07,26,26,0,0,1-13,11.88,25.67,25.67,0,0,1-14.11,1.63,25.69,25.69,0,0,0,28.59-1.63,25.77,25.77,0,0,0,10.34-20.64V612.57a2.3,2.3,0,0,0-2.29-2.29h-6.56v26Z"/><path class="cls-7" d="M612.52,665.35h44.8a3.46,3.46,0,0,0,3.45-3.45h0a3.45,3.45,0,0,0-3.45-3.44h-44.8a3.45,3.45,0,0,0-3.44,3.44h0A3.45,3.45,0,0,0,612.52,665.35Z"/><rect class="cls-31" x="613" y="615.19" width="8.71" height="24.3" rx="4.35"/><path class="cls-2" d="M612.85,578.42h19.7a2.73,2.73,0,0,0,2.72-2.72h0a2.72,2.72,0,0,0-2.72-2.72h-26.5a7.12,7.12,0,0,1-7.1-7.09h0a7.13,7.13,0,0,1,7.1-7.1H675a7.12,7.12,0,0,1,7.09,7.1h0A7.11,7.11,0,0,1,675,573h-24a2.73,2.73,0,0,0-2.72,2.72h0a2.74,2.74,0,0,0,2.72,2.72h9.25a5.49,5.49,0,0,1,5.48,5.47h0a5.49,5.49,0,0,1-5.48,5.47h-15.3A10.92,10.92,0,0,0,634,600.25v5a2.58,2.58,0,0,1-2.57,2.57h0a2.58,2.58,0,0,1-2.57-2.57v-9.49a6.41,6.41,0,0,0-6.39-6.39h-9.62a5.49,5.49,0,0,1-5.48-5.47h0A5.49,5.49,0,0,1,612.85,578.42Z"/></svg>