<svg xmlns="http://www.w3.org/2000/svg" viewBox="0 0 160.84 174.1"><defs><style>.cls-1{isolation:isolate;}.cls-2{mix-blend-mode:color-burn;}.cls-3,.cls-6{fill:#221e20;}.cls-4{fill:#db4648;}.cls-5{fill:#f0f1f1;}.cls-236,.cls-5,.cls-6{mix-blend-mode:overlay;}.cls-7{fill:#fff;}.cls-8{fill:#fefefe;}.cls-9{fill:#fdfdfd;}.cls-10{fill:#fcfcfc;}.cls-11{fill:#fbfbfb;}.cls-12{fill:#fafafa;}.cls-13{fill:#f9f9f9;}.cls-14{fill:#f8f8f8;}.cls-15{fill:#f7f7f7;}.cls-16{fill:#f6f6f6;}.cls-17{fill:#f5f5f5;}.cls-18{fill:#f4f4f4;}.cls-19{fill:#f3f3f3;}.cls-20{fill:#f2f2f2;}.cls-21{fill:#f1f1f1;}.cls-22{fill:#f0f0f0;}.cls-23{fill:#efefef;}.cls-24{fill:#eee;}.cls-25{fill:#ededed;}.cls-26{fill:#ececec;}.cls-27{fill:#ebebeb;}.cls-28{fill:#eaeaea;}.cls-29{fill:#e9e9e9;}.cls-30{fill:#e8e8e8;}.cls-31{fill:#e7e7e7;}.cls-32{fill:#e6e6e6;}.cls-33{fill:#e5e5e5;}.cls-34{fill:#e4e4e4;}.cls-35{fill:#e3e3e3;}.cls-36{fill:#e2e2e2;}.cls-37{fill:#e1e1e1;}.cls-38{fill:#e0e0e0;}.cls-39{fill:#dfdfdf;}.cls-40{fill:#dedede;}.cls-41{fill:#ddd;}.cls-42{fill:#dcdcdc;}.cls-43{fill:#dbdbdb;}.cls-44{fill:#dadada;}.cls-45{fill:#d9d9d9;}.cls-46{fill:#d8d8d8;}.cls-47{fill:#d7d7d7;}.cls-48{fill:#d6d6d6;}.cls-49{fill:#d5d5d5;}.cls-50{fill:#d4d4d4;}.cls-51{fill:#d3d3d3;}.cls-52{fill:#d2d2d2;}.cls-53{fill:#d1d1d1;}.cls-54{fill:#d0d0d0;}.cls-55{fill:#cfcfcf;}.cls-56{fill:#cecece;}.cls-57{fill:#cdcdcd;}.cls-58{fill:#ccc;}.cls-59{fill:#cbcbcb;}.cls-60{fill:#cacaca;}.cls-61{fill:#c9c9c9;}.cls-62{fill:#c8c8c8;}.cls-63{fill:#c7c7c7;}.cls-64{fill:#c6c7c6;}.cls-65{fill:#c5c6c5;}.cls-66{fill:#c4c5c4;}.cls-67{fill:#c3c4c3;}.cls-68{fill:#c2c3c2;}.cls-69{fill:#c1c2c1;}.cls-70{fill:#c0c1c0;}.cls-71{fill:#bfc0bf;}.cls-72{fill:#bebfbe;}.cls-73{fill:#bdbebd;}.cls-74{fill:#bcbdbc;}.cls-75{fill:#bbbcbb;}.cls-76{fill:#babbba;}.cls-77{fill:#b9bab9;}.cls-78{fill:#b8b9b8;}.cls-79{fill:#b7b8b7;}.cls-80{fill:#b6b7b6;}.cls-81{fill:#b5b6b5;}.cls-82{fill:#b4b5b4;}.cls-83{fill:#b3b4b3;}.cls-84{fill:#b2b3b2;}.cls-85{fill:#b1b2b1;}.cls-86{fill:#b0b1b0;}.cls-87{fill:#afb0af;}.cls-88{fill:#aeafae;}.cls-89{fill:#adaead;}.cls-90{fill:#acadac;}.cls-91{fill:#abacab;}.cls-92{fill:#aaabaa;}.cls-93{fill:#a9aaa9;}.cls-94{fill:#a8a9a8;}.cls-95{fill:#a7a8a7;}.cls-96{fill:#a6a7a6;}.cls-97{fill:#a5a6a5;}.cls-98{fill:#a4a5a4;}.cls-99{fill:#a3a4a3;}.cls-100{fill:#a2a3a2;}.cls-101{fill:#a1a2a1;}.cls-102{fill:#a0a1a0;}.cls-103{fill:#9fa09f;}.cls-104{fill:#9e9f9e;}.cls-105{fill:#9d9e9d;}.cls-106{fill:#9c9d9c;}.cls-107{fill:#9b9c9b;}.cls-108{fill:#9a9b9a;}.cls-109{fill:#999a99;}.cls-110{fill:#989998;}.cls-111{fill:#979897;}.cls-112{fill:#969796;}.cls-113{fill:#959695;}.cls-114{fill:#949594;}.cls-115{fill:#939493;}.cls-116{fill:#929392;}.cls-117{fill:#919291;}.cls-118{fill:#909190;}.cls-119{fill:#8f908f;}.cls-120{fill:#8e8f8e;}.cls-121{fill:#8e8e8d;}.cls-122{fill:#8d8d8c;}.cls-123{fill:#8c8c8b;}.cls-124{fill:#8b8b8a;}.cls-125{fill:#8a8a89;}.cls-126{fill:#898988;}.cls-127{fill:#888887;}.cls-128{fill:#878786;}.cls-129{fill:#868685;}.cls-130{fill:#858584;}.cls-131{fill:#848483;}.cls-132{fill:#838382;}.cls-133{fill:#828281;}.cls-134{fill:#818180;}.cls-135{fill:#80807f;}.cls-136{fill:#7f7f7e;}.cls-137{fill:#7e7e7d;}.cls-138{fill:#7d7d7c;}.cls-139{fill:#7c7c7b;}.cls-140{fill:#7b7b7a;}.cls-141{fill:#7a7a79;}.cls-142{fill:#797978;}.cls-143{fill:#787877;}.cls-144{fill:#777776;}.cls-145{fill:#767675;}.cls-146{fill:#757574;}.cls-147{fill:#747473;}.cls-148{fill:#737372;}.cls-149{fill:#727271;}.cls-150{fill:#717170;}.cls-151{fill:#70706f;}.cls-152{fill:#6f6f6e;}.cls-153{fill:#6e6e6d;}.cls-154{fill:#6d6d6c;}.cls-155{fill:#6c6c6b;}.cls-156{fill:#6b6b6a;}.cls-157{fill:#6a6a69;}.cls-158{fill:#696968;}.cls-159{fill:#686867;}.cls-160{fill:#676766;}.cls-161{fill:#666665;}.cls-162{fill:#656564;}.cls-163{fill:#646463;}.cls-164{fill:#636362;}.cls-165{fill:#626261;}.cls-166{fill:#616160;}.cls-167{fill:#60605f;}.cls-168{fill:#5f5f5e;}.cls-169{fill:#5e5e5d;}.cls-170{fill:#5d5d5c;}.cls-171{fill:#5c5c5b;}.cls-172{fill:#5b5b5a;}.cls-173{fill:#5a5a59;}.cls-174{fill:#595958;}.cls-175{fill:#585857;}.cls-176{fill:#575756;}.cls-177{fill:#565655;}.cls-178{fill:#555654;}.cls-179{fill:#545553;}.cls-180{fill:#535452;}.cls-181{fill:#525351;}.cls-182{fill:#515250;}.cls-183{fill:#50514f;}.cls-184{fill:#4f504e;}.cls-185{fill:#4e4f4d;}.cls-186{fill:#4d4e4c;}.cls-187{fill:#4c4d4b;}.cls-188{fill:#4b4c4a;}.cls-189{fill:#4a4b49;}.cls-190{fill:#494a48;}.cls-191{fill:#484947;}.cls-192{fill:#474846;}.cls-193{fill:#464745;}.cls-194{fill:#454644;}.cls-195{fill:#444543;}.cls-196{fill:#434442;}.cls-197{fill:#424341;}.cls-198{fill:#414240;}.cls-199{fill:#40413f;}.cls-200{fill:#3f403e;}.cls-201{fill:#3e3f3d;}.cls-202{fill:#3d3e3c;}.cls-203{fill:#3c3d3b;}.cls-204{fill:#3b3c3a;}.cls-205{fill:#3a3b39;}.cls-206{fill:#393a38;}.cls-207{fill:#383937;}.cls-208{fill:#373836;}.cls-209{fill:#363735;}.cls-210{fill:#353634;}.cls-211{fill:#343533;}.cls-212{fill:#333432;}.cls-213{fill:#323331;}.cls-214{fill:#313230;}.cls-215{fill:#30312f;}.cls-216{fill:#2f302e;}.cls-217{fill:#2e2f2d;}.cls-218{fill:#2d2e2c;}.cls-219{fill:#2c2d2b;}.cls-220{fill:#2b2c2a;}.cls-221{fill:#2a2b29;}.cls-222{fill:#292a28;}.cls-223{fill:#282927;}.cls-224{fill:#272826;}.cls-225{fill:#262725;}.cls-226{fill:#252624;}.cls-227{fill:#242523;}.cls-228{fill:#232422;}.cls-229{fill:#222321;}.cls-230{fill:#212220;}.cls-231{fill:#20211f;}.cls-232{fill:#1f201e;}.cls-233{fill:#1e1f1d;}.cls-234{fill:#1d1e1c;}.cls-235{fill:#f1f2f2;}.cls-237{fill:#4d4d4d;}</style></defs><title>Staff Management</title><g class="cls-1"><g id="Layer_1" data-name="Layer 1"><g class="cls-2"><circle class="cls-3" cx="81.93" cy="81.43" r="71.14" transform="translate(-16.14 142.45) rotate(-76.72)"/></g><circle class="cls-4" cx="80.42" cy="80.42" r="80.42" transform="translate(-16.32 140.21) rotate(-76.72)"/><path class="cls-5" d="M81.37,1a80.16,80.16,0,0,1,56.38,23.08A80.41,80.41,0,1,0,24,137.8,80.41,80.41,0,0,1,81.37,1Z"/><path class="cls-6" d="M136.71,23A80.41,80.41,0,0,1,23,136.71,80.41,80.41,0,1,0,136.71,23Z"/><g class="cls-2"><circle class="cls-7" cx="81.93" cy="112.14" r="61.96"/><circle class="cls-8" cx="81.93" cy="112" r="61.95"/><circle class="cls-9" cx="81.92" cy="111.85" r="61.93" transform="translate(-30.05 193.62) rotate(-89.92)"/><circle class="cls-10" cx="81.92" cy="111.71" r="61.91" transform="translate(-29.97 193.39) rotate(-89.88)"/><circle class="cls-11" cx="81.92" cy="111.57" r="61.9" transform="translate(-29.89 193.17) rotate(-89.83)"/><circle class="cls-12" cx="81.92" cy="111.43" r="61.88" transform="translate(-29.8 192.95) rotate(-89.79)"/><circle class="cls-13" cx="81.92" cy="111.29" r="61.86" transform="translate(-29.72 192.72) rotate(-89.75)"/><circle class="cls-14" cx="81.92" cy="111.14" r="61.84" transform="translate(-29.64 192.5) rotate(-89.71)"/><circle class="cls-15" cx="81.91" cy="111" r="61.83" transform="translate(-29.55 192.28) rotate(-89.67)"/><circle class="cls-16" cx="81.91" cy="110.86" r="61.81" transform="translate(-29.47 192.07) rotate(-89.64)"/><circle class="cls-17" cx="81.91" cy="110.72" r="61.79" transform="translate(-29.38 191.85) rotate(-89.6)"/><circle class="cls-18" cx="81.91" cy="110.58" r="61.77" transform="translate(-29.3 191.63) rotate(-89.56)"/><circle class="cls-19" cx="81.91" cy="110.44" r="61.76" transform="translate(-29.21 191.41) rotate(-89.52)"/><circle class="cls-20" cx="81.9" cy="110.29" r="61.74" transform="matrix(0.01, -1, 1, 0.01, -29.12, 191.2)"/><circle class="cls-21" cx="81.9" cy="110.15" r="61.72" transform="translate(-29.04 190.98) rotate(-89.45)"/><circle class="cls-22" cx="81.9" cy="110.01" r="61.71" transform="translate(-28.95 190.77) rotate(-89.41)"/><circle class="cls-23" cx="81.9" cy="109.87" r="61.69" transform="translate(-28.86 190.56) rotate(-89.37)"/><circle class="cls-24" cx="81.9" cy="109.73" r="61.67" transform="translate(-28.77 190.34) rotate(-89.33)"/><circle class="cls-25" cx="81.9" cy="109.58" r="61.65" transform="translate(-28.68 190.13) rotate(-89.3)"/><circle class="cls-26" cx="81.89" cy="109.44" r="61.64" transform="translate(-28.59 189.92) rotate(-89.26)"/><circle class="cls-27" cx="81.89" cy="109.3" r="61.62" transform="translate(-28.5 189.71) rotate(-89.23)"/><circle class="cls-28" cx="81.89" cy="109.16" r="61.6" transform="translate(-28.41 189.5) rotate(-89.19)"/><circle class="cls-29" cx="81.89" cy="109.02" r="61.59" transform="translate(-28.32 189.29) rotate(-89.16)"/><circle class="cls-30" cx="81.89" cy="108.87" r="61.57" transform="translate(-28.23 189.08) rotate(-89.12)"/><circle class="cls-31" cx="81.88" cy="108.73" r="61.55" transform="matrix(0.02, -1, 1, 0.02, -28.14, 188.87)"/><circle class="cls-32" cx="81.88" cy="108.59" r="61.53" transform="matrix(0.02, -1, 1, 0.02, -28.05, 188.67)"/><circle class="cls-33" cx="81.88" cy="108.45" r="61.52" transform="translate(-27.95 188.46) rotate(-89.02)"/><circle class="cls-34" cx="81.88" cy="108.31" r="61.5" transform="translate(-27.86 188.25) rotate(-88.99)"/><circle class="cls-35" cx="81.88" cy="108.17" r="61.48" transform="translate(-27.77 188.05) rotate(-88.95)"/><circle class="cls-36" cx="81.87" cy="108.02" r="61.47" transform="translate(-27.67 187.85) rotate(-88.92)"/><circle class="cls-37" cx="81.87" cy="107.88" r="61.45" transform="translate(-27.58 187.64) rotate(-88.89)"/><circle class="cls-38" cx="81.87" cy="107.74" r="61.43" transform="matrix(0.02, -1, 1, 0.02, -27.49, 187.44)"/><circle class="cls-39" cx="81.87" cy="107.6" r="61.41" transform="translate(-27.39 187.24) rotate(-88.82)"/><circle class="cls-40" cx="81.87" cy="107.46" r="61.4" transform="translate(-27.29 187.03) rotate(-88.79)"/><circle class="cls-41" cx="81.87" cy="107.31" r="61.38" transform="translate(-27.2 186.83) rotate(-88.76)"/><circle class="cls-42" cx="81.86" cy="107.17" r="61.36" transform="translate(-27.1 186.63) rotate(-88.73)"/><circle class="cls-43" cx="81.86" cy="107.03" r="61.35" transform="translate(-27.01 186.43) rotate(-88.69)"/><circle class="cls-44" cx="81.86" cy="106.89" r="61.33" transform="translate(-26.91 186.23) rotate(-88.66)"/><circle class="cls-45" cx="81.86" cy="106.75" r="61.31" transform="translate(-26.81 186.03) rotate(-88.63)"/><circle class="cls-46" cx="81.86" cy="106.6" r="61.29" transform="translate(-26.71 185.83) rotate(-88.6)"/><circle class="cls-47" cx="81.85" cy="106.46" r="61.28" transform="translate(-26.62 185.64) rotate(-88.57)"/><circle class="cls-48" cx="81.85" cy="106.32" r="61.26" transform="translate(-26.52 185.44) rotate(-88.54)"/><circle class="cls-49" cx="81.85" cy="106.18" r="61.24" transform="matrix(0.03, -1, 1, 0.03, -26.42, 185.24)"/><circle class="cls-50" cx="81.85" cy="106.04" r="61.22" transform="translate(-26.32 185.05) rotate(-88.48)"/><circle class="cls-51" cx="81.85" cy="105.9" r="61.21" transform="translate(-26.22 184.85) rotate(-88.45)"/><circle class="cls-52" cx="81.85" cy="105.75" r="61.19" transform="translate(-26.12 184.66) rotate(-88.42)"/><circle class="cls-53" cx="81.84" cy="105.61" r="61.17" transform="translate(-26.02 184.46) rotate(-88.39)"/><circle class="cls-54" cx="81.84" cy="105.47" r="61.16" transform="translate(-25.92 184.27) rotate(-88.36)"/><circle class="cls-55" cx="81.84" cy="105.33" r="61.14" transform="translate(-25.82 184.07) rotate(-88.34)"/><circle class="cls-56" cx="81.84" cy="105.19" r="61.12" transform="translate(-25.72 183.88) rotate(-88.31)"/><circle class="cls-57" cx="81.84" cy="105.04" r="61.1" transform="translate(-25.62 183.69) rotate(-88.28)"/><circle class="cls-58" cx="81.83" cy="104.9" r="61.09" transform="translate(-25.52 183.5) rotate(-88.25)"/><circle class="cls-59" cx="81.83" cy="104.76" r="61.07" transform="translate(-25.42 183.3) rotate(-88.22)"/><circle class="cls-60" cx="81.83" cy="104.62" r="61.05" transform="translate(-25.31 183.11) rotate(-88.19)"/><circle class="cls-61" cx="81.83" cy="104.48" r="61.04" transform="translate(-25.21 182.92) rotate(-88.17)"/><circle class="cls-62" cx="81.83" cy="104.33" r="61.02" transform="translate(-25.11 182.73) rotate(-88.14)"/><circle class="cls-63" cx="81.83" cy="104.19" r="61" transform="translate(-25.01 182.54) rotate(-88.11)"/><circle class="cls-64" cx="81.82" cy="104.05" r="60.98" transform="translate(-24.9 182.35) rotate(-88.09)"/><circle class="cls-65" cx="81.82" cy="103.91" r="60.97" transform="matrix(0.03, -1, 1, 0.03, -24.8, 182.17)"/><circle class="cls-66" cx="81.82" cy="103.77" r="60.95" transform="translate(-24.69 181.98) rotate(-88.03)"/><circle class="cls-67" cx="81.82" cy="103.63" r="60.93" transform="translate(-24.59 181.79) rotate(-88.01)"/><circle class="cls-68" cx="81.82" cy="103.48" r="60.92" transform="translate(-24.49 181.6) rotate(-87.98)"/><circle class="cls-69" cx="81.81" cy="103.34" r="60.9" transform="matrix(0.04, -1, 1, 0.04, -24.38, 181.42)"/><circle class="cls-70" cx="81.81" cy="103.2" r="60.88" transform="translate(-24.28 181.23) rotate(-87.93)"/><circle class="cls-71" cx="81.81" cy="103.06" r="60.86" transform="translate(-24.17 181.04) rotate(-87.9)"/><circle class="cls-72" cx="81.81" cy="102.92" r="60.85" transform="translate(-24.07 180.86) rotate(-87.88)"/><circle class="cls-73" cx="81.81" cy="102.77" r="60.83" transform="translate(-23.96 180.67) rotate(-87.85)"/><circle class="cls-74" cx="81.81" cy="102.63" r="60.81" transform="translate(-23.85 180.49) rotate(-87.83)"/><circle class="cls-75" cx="81.8" cy="102.49" r="60.79" transform="translate(-23.75 180.31) rotate(-87.8)"/><circle class="cls-76" cx="81.8" cy="102.35" r="60.78" transform="matrix(0.04, -1, 1, 0.04, -23.64, 180.12)"/><circle class="cls-77" cx="81.8" cy="102.21" r="60.76" transform="translate(-23.53 179.94) rotate(-87.75)"/><circle class="cls-78" cx="81.8" cy="102.07" r="60.74" transform="translate(-23.43 179.76) rotate(-87.73)"/><circle class="cls-79" cx="81.8" cy="101.92" r="60.73" transform="translate(-23.32 179.57) rotate(-87.71)"/><circle class="cls-80" cx="81.79" cy="101.78" r="60.71" transform="translate(-23.21 179.39) rotate(-87.68)"/><circle class="cls-81" cx="81.79" cy="101.64" r="60.69" transform="translate(-23.1 179.21) rotate(-87.66)"/><circle class="cls-82" cx="81.79" cy="101.5" r="60.67" transform="matrix(0.04, -1, 1, 0.04, -23, 179.03)"/><circle class="cls-83" cx="81.79" cy="101.36" r="60.66" transform="translate(-22.89 178.85) rotate(-87.61)"/><circle class="cls-84" cx="81.79" cy="101.21" r="60.64" transform="translate(-22.78 178.67) rotate(-87.59)"/><circle class="cls-85" cx="81.79" cy="101.07" r="60.62" transform="translate(-22.67 178.49) rotate(-87.56)"/><circle class="cls-86" cx="81.78" cy="100.93" r="60.61" transform="translate(-22.56 178.31) rotate(-87.54)"/><circle class="cls-87" cx="81.78" cy="100.79" r="60.59" transform="translate(-22.45 178.13) rotate(-87.52)"/><circle class="cls-88" cx="81.78" cy="100.65" r="60.57" transform="translate(-22.34 177.95) rotate(-87.5)"/><circle class="cls-89" cx="81.78" cy="100.5" r="60.55" transform="translate(-22.24 177.77) rotate(-87.47)"/><circle class="cls-90" cx="81.78" cy="100.36" r="60.54" transform="matrix(0.04, -1, 1, 0.04, -22.13, 177.59)"/><circle class="cls-91" cx="81.77" cy="100.22" r="60.52" transform="translate(-22.02 177.41) rotate(-87.43)"/><circle class="cls-92" cx="81.77" cy="100.08" r="60.5" transform="translate(-21.91 177.24) rotate(-87.41)"/><circle class="cls-93" cx="81.77" cy="99.94" r="60.49" transform="translate(-21.8 177.06) rotate(-87.38)"/><circle class="cls-94" cx="81.77" cy="99.8" r="60.47" transform="translate(-21.68 176.88) rotate(-87.36)"/><circle class="cls-95" cx="81.77" cy="99.65" r="60.45" transform="translate(-21.57 176.71) rotate(-87.34)"/><circle class="cls-96" cx="81.77" cy="99.51" r="60.43" transform="translate(-21.46 176.53) rotate(-87.32)"/><circle class="cls-97" cx="81.76" cy="99.37" r="60.42" transform="translate(-21.35 176.36) rotate(-87.3)"/><circle class="cls-98" cx="81.76" cy="99.23" r="60.4" transform="translate(-21.24 176.18) rotate(-87.28)"/><circle class="cls-99" cx="81.76" cy="99.09" r="60.38" transform="translate(-21.13 176.01) rotate(-87.25)"/><circle class="cls-100" cx="81.76" cy="98.94" r="60.37" transform="translate(-21.02 175.83) rotate(-87.23)"/><circle class="cls-101" cx="81.76" cy="98.8" r="60.35" transform="translate(-20.91 175.66) rotate(-87.21)"/><circle class="cls-102" cx="81.75" cy="98.66" r="60.33" transform="translate(-20.79 175.48) rotate(-87.19)"/><circle class="cls-103" cx="81.75" cy="98.52" r="60.31" transform="translate(-20.68 175.31) rotate(-87.17)"/><circle class="cls-104" cx="81.75" cy="98.38" r="60.3" transform="translate(-20.57 175.14) rotate(-87.15)"/><circle class="cls-105" cx="81.75" cy="98.23" r="60.28" transform="translate(-20.46 174.96) rotate(-87.13)"/><circle class="cls-106" cx="81.75" cy="98.09" r="60.26" transform="translate(-20.34 174.79) rotate(-87.11)"/><circle class="cls-107" cx="81.74" cy="97.95" r="60.24" transform="translate(-20.23 174.62) rotate(-87.09)"/><circle class="cls-108" cx="81.74" cy="97.81" r="60.23" transform="translate(-20.12 174.45) rotate(-87.07)"/><circle class="cls-109" cx="81.74" cy="97.67" r="60.21" transform="translate(-20 174.27) rotate(-87.05)"/><circle class="cls-110" cx="81.74" cy="97.53" r="60.19" transform="translate(-19.89 174.1) rotate(-87.03)"/><circle class="cls-111" cx="81.74" cy="97.38" r="60.18" transform="translate(-19.78 173.93) rotate(-87.01)"/><circle class="cls-112" cx="81.74" cy="97.24" r="60.16" transform="translate(-19.66 173.76) rotate(-86.99)"/><circle class="cls-113" cx="81.73" cy="97.1" r="60.14" transform="translate(-19.55 173.59) rotate(-86.97)"/><circle class="cls-114" cx="81.73" cy="96.96" r="60.12" transform="translate(-19.43 173.42) rotate(-86.95)"/><circle class="cls-115" cx="81.73" cy="96.82" r="60.11" transform="translate(-19.32 173.25) rotate(-86.93)"/><circle class="cls-116" cx="81.73" cy="96.67" r="60.09" transform="translate(-19.21 173.08) rotate(-86.91)"/><circle class="cls-117" cx="81.73" cy="96.53" r="60.07" transform="translate(-19.09 172.91) rotate(-86.9)"/><circle class="cls-118" cx="81.72" cy="96.39" r="60.06" transform="translate(-18.98 172.74) rotate(-86.88)"/><circle class="cls-119" cx="81.72" cy="96.25" r="60.04" transform="translate(-18.86 172.57) rotate(-86.86)"/><circle class="cls-120" cx="81.72" cy="96.11" r="60.02" transform="translate(-18.75 172.4) rotate(-86.84)"/><circle class="cls-121" cx="81.72" cy="95.96" r="60" transform="translate(-18.63 172.24) rotate(-86.82)"/><circle class="cls-122" cx="81.72" cy="95.82" r="59.99" transform="matrix(0.06, -1, 1, 0.06, -18.51, 172.07)"/><circle class="cls-123" cx="81.72" cy="95.68" r="59.97" transform="translate(-18.4 171.9) rotate(-86.78)"/><circle class="cls-124" cx="81.71" cy="95.54" r="59.95" transform="translate(-18.28 171.73) rotate(-86.77)"/><circle class="cls-125" cx="81.71" cy="95.4" r="59.94" transform="translate(-18.17 171.57) rotate(-86.75)"/><circle class="cls-126" cx="81.71" cy="95.26" r="59.92" transform="translate(-18.05 171.4) rotate(-86.73)"/><circle class="cls-127" cx="81.71" cy="95.11" r="59.9" transform="translate(-17.93 171.23) rotate(-86.71)"/><circle class="cls-128" cx="81.71" cy="94.97" r="59.88" transform="translate(-17.82 171.07) rotate(-86.69)"/><circle class="cls-129" cx="81.7" cy="94.83" r="59.87" transform="translate(-17.7 170.9) rotate(-86.68)"/><circle class="cls-130" cx="81.7" cy="94.69" r="59.85" transform="translate(-17.59 170.73) rotate(-86.66)"/><circle class="cls-131" cx="81.7" cy="94.55" r="59.83" transform="translate(-17.47 170.57) rotate(-86.64)"/><circle class="cls-132" cx="81.7" cy="94.4" r="59.81" transform="translate(-17.35 170.4) rotate(-86.62)"/><circle class="cls-133" cx="81.7" cy="94.26" r="59.8" transform="translate(-17.23 170.24) rotate(-86.61)"/><circle class="cls-134" cx="81.7" cy="94.12" r="59.78" transform="translate(-17.12 170.07) rotate(-86.59)"/><circle class="cls-135" cx="81.69" cy="93.98" r="59.76" transform="translate(-17 169.91) rotate(-86.57)"/><circle class="cls-136" cx="81.69" cy="93.84" r="59.75" transform="translate(-16.88 169.75) rotate(-86.56)"/><circle class="cls-137" cx="81.69" cy="93.7" r="59.73" transform="translate(-16.76 169.58) rotate(-86.54)"/><circle class="cls-138" cx="81.69" cy="93.55" r="59.71" transform="translate(-16.65 169.42) rotate(-86.52)"/><circle class="cls-139" cx="81.69" cy="93.41" r="59.69" transform="translate(-16.53 169.25) rotate(-86.51)"/><circle class="cls-140" cx="81.68" cy="93.27" r="59.68" transform="translate(-16.41 169.09) rotate(-86.49)"/><circle class="cls-141" cx="81.68" cy="93.13" r="59.66" transform="translate(-16.29 168.93) rotate(-86.47)"/><circle class="cls-142" cx="81.68" cy="92.99" r="59.64" transform="translate(-16.17 168.76) rotate(-86.46)"/><circle class="cls-143" cx="81.68" cy="92.84" r="59.63" transform="translate(-16.06 168.6) rotate(-86.44)"/><circle class="cls-144" cx="81.68" cy="92.7" r="59.61" transform="translate(-15.94 168.44) rotate(-86.42)"/><circle class="cls-145" cx="81.68" cy="92.56" r="59.59" transform="matrix(0.06, -1, 1, 0.06, -15.82, 168.28)"/><circle class="cls-146" cx="81.67" cy="92.42" r="59.57" transform="translate(-15.7 168.12) rotate(-86.39)"/><circle class="cls-147" cx="81.67" cy="92.28" r="59.56" transform="translate(-15.58 167.95) rotate(-86.38)"/><circle class="cls-148" cx="81.67" cy="92.13" r="59.54" transform="translate(-15.46 167.79) rotate(-86.36)"/><circle class="cls-149" cx="81.67" cy="91.99" r="59.52" transform="translate(-15.34 167.63) rotate(-86.35)"/><circle class="cls-150" cx="81.67" cy="91.85" r="59.51" transform="translate(-15.22 167.47) rotate(-86.33)"/><circle class="cls-151" cx="81.66" cy="91.71" r="59.49" transform="translate(-15.1 167.31) rotate(-86.31)"/><circle class="cls-152" cx="81.66" cy="91.57" r="59.47" transform="translate(-14.99 167.15) rotate(-86.3)"/><circle class="cls-153" cx="81.66" cy="91.43" r="59.45" transform="translate(-14.87 166.99) rotate(-86.28)"/><circle class="cls-154" cx="81.66" cy="91.28" r="59.44" transform="translate(-14.75 166.83) rotate(-86.27)"/><circle class="cls-155" cx="81.66" cy="91.14" r="59.42" transform="translate(-14.63 166.67) rotate(-86.25)"/><circle class="cls-156" cx="81.66" cy="91" r="59.4" transform="matrix(0.07, -1, 1, 0.07, -14.51, 166.51)"/><circle class="cls-157" cx="81.65" cy="90.86" r="59.39" transform="translate(-14.39 166.35) rotate(-86.22)"/><circle class="cls-158" cx="81.65" cy="90.72" r="59.37" transform="translate(-14.27 166.19) rotate(-86.21)"/><circle class="cls-159" cx="81.65" cy="90.57" r="59.35" transform="translate(-14.15 166.03) rotate(-86.19)"/><circle class="cls-160" cx="81.65" cy="90.43" r="59.33" transform="translate(-14.03 165.87) rotate(-86.18)"/><circle class="cls-161" cx="81.65" cy="90.29" r="59.32" transform="translate(-13.91 165.71) rotate(-86.16)"/><circle class="cls-162" cx="81.64" cy="90.15" r="59.3" transform="translate(-13.78 165.55) rotate(-86.15)"/><circle class="cls-163" cx="81.64" cy="90.01" r="59.28" transform="translate(-13.66 165.4) rotate(-86.13)"/><circle class="cls-164" cx="81.64" cy="89.86" r="59.26" transform="translate(-13.54 165.24) rotate(-86.12)"/><circle class="cls-165" cx="81.64" cy="89.72" r="59.25" transform="translate(-13.42 165.08) rotate(-86.11)"/><circle class="cls-166" cx="81.64" cy="89.58" r="59.23" transform="translate(-13.3 164.92) rotate(-86.09)"/><circle class="cls-167" cx="81.64" cy="89.44" r="59.21" transform="translate(-13.18 164.76) rotate(-86.08)"/><circle class="cls-168" cx="81.63" cy="89.3" r="59.2" transform="translate(-13.06 164.61) rotate(-86.06)"/><circle class="cls-169" cx="81.63" cy="89.16" r="59.18" transform="translate(-12.94 164.45) rotate(-86.05)"/><circle class="cls-170" cx="81.63" cy="89.01" r="59.16" transform="translate(-12.82 164.29) rotate(-86.03)"/><circle class="cls-171" cx="81.63" cy="88.87" r="59.14" transform="translate(-12.69 164.14) rotate(-86.02)"/><circle class="cls-172" cx="81.63" cy="88.73" r="59.13" transform="translate(-12.57 163.98) rotate(-86.01)"/><circle class="cls-173" cx="81.62" cy="88.59" r="59.11" transform="matrix(0.07, -1, 1, 0.07, -12.45, 163.82)"/><circle class="cls-174" cx="81.62" cy="88.45" r="59.09" transform="translate(-12.33 163.67) rotate(-85.98)"/><circle class="cls-175" cx="81.62" cy="88.3" r="59.08" transform="translate(-12.21 163.51) rotate(-85.97)"/><circle class="cls-176" cx="81.62" cy="88.16" r="59.06" transform="translate(-12.09 163.35) rotate(-85.95)"/><circle class="cls-177" cx="81.62" cy="88.02" r="59.04" transform="translate(-11.96 163.2) rotate(-85.94)"/><circle class="cls-178" cx="81.61" cy="87.88" r="59.02" transform="matrix(0.07, -1, 1, 0.07, -11.84, 163.04)"/><circle class="cls-179" cx="81.61" cy="87.74" r="59.01" transform="translate(-11.72 162.89) rotate(-85.91)"/><circle class="cls-180" cx="81.61" cy="87.59" r="58.99" transform="matrix(0.07, -1, 1, 0.07, -11.6, 162.73)"/><circle class="cls-181" cx="81.61" cy="87.45" r="58.97" transform="translate(-11.47 162.58) rotate(-85.89)"/><circle class="cls-182" cx="81.61" cy="87.31" r="58.96" transform="translate(-11.35 162.42) rotate(-85.87)"/><circle class="cls-183" cx="81.61" cy="87.17" r="58.94" transform="translate(-11.23 162.27) rotate(-85.86)"/><circle class="cls-184" cx="81.6" cy="87.03" r="58.92" transform="translate(-11.11 162.11) rotate(-85.85)"/><circle class="cls-185" cx="81.6" cy="86.89" r="58.9" transform="translate(-10.98 161.96) rotate(-85.83)"/><circle class="cls-186" cx="81.6" cy="86.74" r="58.89" transform="translate(-10.86 161.8) rotate(-85.82)"/><circle class="cls-187" cx="81.6" cy="86.6" r="58.87" transform="translate(-10.74 161.65) rotate(-85.81)"/><circle class="cls-188" cx="81.6" cy="86.46" r="58.85" transform="translate(-10.61 161.5) rotate(-85.79)"/><circle class="cls-189" cx="81.59" cy="86.32" r="58.83" transform="matrix(0.07, -1, 1, 0.07, -10.49, 161.34)"/><circle class="cls-190" cx="81.59" cy="86.18" r="58.82" transform="translate(-10.37 161.19) rotate(-85.77)"/><circle class="cls-191" cx="81.59" cy="86.03" r="58.8" transform="translate(-10.25 161.04) rotate(-85.76)"/><circle class="cls-192" cx="81.59" cy="85.89" r="58.78" transform="translate(-10.12 160.88) rotate(-85.74)"/><circle class="cls-193" cx="81.59" cy="85.75" r="58.77" transform="translate(-10 160.73) rotate(-85.73)"/><circle class="cls-194" cx="81.59" cy="85.61" r="58.75" transform="matrix(0.07, -1, 1, 0.07, -9.87, 160.58)"/><circle class="cls-195" cx="81.58" cy="85.47" r="58.73" transform="translate(-9.75 160.42) rotate(-85.71)"/><circle class="cls-196" cx="81.58" cy="85.33" r="58.71" transform="translate(-9.63 160.27) rotate(-85.69)"/><circle class="cls-197" cx="81.58" cy="85.18" r="58.7" transform="translate(-9.5 160.12) rotate(-85.68)"/><circle class="cls-198" cx="81.58" cy="85.04" r="58.68" transform="translate(-9.38 159.97) rotate(-85.67)"/><circle class="cls-199" cx="81.58" cy="84.9" r="58.66" transform="translate(-9.26 159.81) rotate(-85.66)"/><circle class="cls-200" cx="81.57" cy="84.76" r="58.65" transform="translate(-9.13 159.66) rotate(-85.65)"/><circle class="cls-201" cx="81.57" cy="84.62" r="58.63" transform="translate(-9.01 159.51) rotate(-85.63)"/><circle class="cls-202" cx="81.57" cy="84.47" r="58.61" transform="translate(-8.88 159.36) rotate(-85.62)"/><circle class="cls-203" cx="81.57" cy="84.33" r="58.59" transform="translate(-8.76 159.21) rotate(-85.61)"/><circle class="cls-204" cx="81.57" cy="84.19" r="58.58" transform="translate(-8.63 159.06) rotate(-85.6)"/><circle class="cls-205" cx="81.57" cy="84.05" r="58.56" transform="translate(-8.51 158.9) rotate(-85.59)"/><circle class="cls-206" cx="81.56" cy="83.91" r="58.54" transform="translate(-8.39 158.75) rotate(-85.57)"/><circle class="cls-207" cx="81.56" cy="83.76" r="58.53" transform="translate(-8.26 158.6) rotate(-85.56)"/><circle class="cls-208" cx="81.56" cy="83.62" r="58.51" transform="translate(-8.14 158.45) rotate(-85.55)"/><circle class="cls-209" cx="81.56" cy="83.48" r="58.49" transform="translate(-8.01 158.3) rotate(-85.54)"/><path class="cls-210" d="M140,83.34A58.48,58.48,0,1,1,81.56,24.87,58.47,58.47,0,0,1,140,83.34Z"/><path class="cls-211" d="M140,83.2A58.46,58.46,0,1,1,81.55,24.74,58.45,58.45,0,0,1,140,83.2Z"/><path class="cls-212" d="M140,83.06A58.44,58.44,0,1,1,81.55,24.62,58.43,58.43,0,0,1,140,83.06Z"/><path class="cls-213" d="M140,82.91A58.42,58.42,0,1,1,81.55,24.49,58.42,58.42,0,0,1,140,82.91Z"/><path class="cls-214" d="M140,82.77a58.4,58.4,0,1,1-58.4-58.4A58.41,58.41,0,0,1,140,82.77Z"/><path class="cls-215" d="M139.93,82.63A58.39,58.39,0,1,1,81.55,24.24,58.39,58.39,0,0,1,139.93,82.63Z"/><path class="cls-216" d="M139.92,82.49A58.37,58.37,0,1,1,81.55,24.12,58.37,58.37,0,0,1,139.92,82.49Z"/><path class="cls-217" d="M139.9,82.35A58.36,58.36,0,1,1,81.54,24,58.36,58.36,0,0,1,139.9,82.35Z"/><path class="cls-218" d="M139.88,82.2A58.34,58.34,0,1,1,81.54,23.87,58.34,58.34,0,0,1,139.88,82.2Z"/><path class="cls-219" d="M139.86,82.06A58.32,58.32,0,1,1,81.54,23.74,58.32,58.32,0,0,1,139.86,82.06Z"/><path class="cls-220" d="M139.84,81.92a58.3,58.3,0,1,1-58.3-58.3A58.3,58.3,0,0,1,139.84,81.92Z"/><path class="cls-221" d="M139.82,81.78A58.29,58.29,0,1,1,81.54,23.49,58.28,58.28,0,0,1,139.82,81.78Z"/><path class="cls-222" d="M139.8,81.64A58.27,58.27,0,1,1,81.53,23.37,58.26,58.26,0,0,1,139.8,81.64Z"/><path class="cls-223" d="M139.78,81.49A58.25,58.25,0,1,1,81.53,23.24,58.25,58.25,0,0,1,139.78,81.49Z"/><path class="cls-224" d="M139.76,81.35A58.23,58.23,0,1,1,81.53,23.12,58.24,58.24,0,0,1,139.76,81.35Z"/><path class="cls-225" d="M139.74,81.21A58.22,58.22,0,1,1,81.53,23,58.22,58.22,0,0,1,139.74,81.21Z"/><path class="cls-226" d="M139.73,81.07a58.2,58.2,0,1,1-58.2-58.2A58.2,58.2,0,0,1,139.73,81.07Z"/><path class="cls-227" d="M139.71,80.93A58.19,58.19,0,1,1,81.53,22.75,58.18,58.18,0,0,1,139.71,80.93Z"/><path class="cls-228" d="M139.69,80.79A58.17,58.17,0,1,1,81.52,22.62,58.16,58.16,0,0,1,139.69,80.79Z"/><path class="cls-229" d="M139.67,80.64A58.15,58.15,0,1,1,81.52,22.5,58.15,58.15,0,0,1,139.67,80.64Z"/><path class="cls-230" d="M139.65,80.5A58.13,58.13,0,1,1,81.52,22.37,58.13,58.13,0,0,1,139.65,80.5Z"/><path class="cls-231" d="M139.63,80.36A58.11,58.11,0,1,1,81.52,22.25,58.11,58.11,0,0,1,139.63,80.36Z"/><path class="cls-232" d="M139.61,80.22a58.1,58.1,0,1,1-58.09-58.1A58.09,58.09,0,0,1,139.61,80.22Z"/><path class="cls-233" d="M139.59,80.08A58.08,58.08,0,1,1,81.51,22,58.07,58.07,0,0,1,139.59,80.08Z"/><path class="cls-234" d="M139.57,79.93A58.06,58.06,0,1,1,81.51,21.87,58.06,58.06,0,0,1,139.57,79.93Z"/></g><circle class="cls-235" cx="80.42" cy="80.42" r="60.35"/><g class="cls-236"><path class="cls-235" d="M80.42,21.26A59.16,59.16,0,1,1,21.26,80.42,59.22,59.22,0,0,1,80.42,21.26m0-1.19a60.35,60.35,0,1,0,60.34,60.35A60.35,60.35,0,0,0,80.42,20.07Z"/></g><path class="cls-237" d="M62.53,105H50.73a3.46,3.46,0,0,1-3.46-3.45V97.36a3.46,3.46,0,0,1,3.46-3.45h11.8A3.46,3.46,0,0,1,66,97.36v4.22A3.46,3.46,0,0,1,62.53,105Zm-11.8-8.92a1.25,1.25,0,0,0-1.26,1.25v4.22a1.25,1.25,0,0,0,1.26,1.25h11.8a1.25,1.25,0,0,0,1.25-1.25V97.36a1.25,1.25,0,0,0-1.25-1.25Z"/><path class="cls-237" d="M83,105H71.18a3.46,3.46,0,0,1-3.46-3.45V88.44A3.46,3.46,0,0,1,71.18,85H83a3.46,3.46,0,0,1,3.45,3.46v13.14A3.46,3.46,0,0,1,83,105ZM71.18,87.18a1.27,1.27,0,0,0-1.26,1.26v13.14a1.26,1.26,0,0,0,1.26,1.25H83a1.26,1.26,0,0,0,1.26-1.25V88.44A1.27,1.27,0,0,0,83,87.18Z"/><path class="cls-237" d="M103.43,105H91.63a3.46,3.46,0,0,1-3.45-3.45V79.51a3.46,3.46,0,0,1,3.45-3.45h11.8a3.46,3.46,0,0,1,3.46,3.45v22.07A3.46,3.46,0,0,1,103.43,105ZM91.63,78.26a1.25,1.25,0,0,0-1.25,1.25v22.07a1.25,1.25,0,0,0,1.25,1.25h11.8a1.26,1.26,0,0,0,1.26-1.25V79.51a1.26,1.26,0,0,0-1.26-1.25Z"/><path class="cls-237" d="M56.63,85.09a1.1,1.1,0,0,1-.78-1.88L71.32,67.74a1.13,1.13,0,0,1,1.55,0l5.95,6L92.89,59.63a1.1,1.1,0,0,1,1.55,1.55L79.6,76A1.1,1.1,0,0,1,78,76l-6-5.94L57.4,84.77A1.09,1.09,0,0,1,56.63,85.09Z"/><path class="cls-237" d="M99.18,66.37a2.67,2.67,0,0,1-1.89-.79l-9.05-9a2.68,2.68,0,0,1-.7-2.61,2.65,2.65,0,0,1,1.9-1.9l12.37-3.31a2.64,2.64,0,0,1,2.6.69,2.68,2.68,0,0,1,.7,2.61L101.8,64.37a2.71,2.71,0,0,1-1.91,1.91A2.88,2.88,0,0,1,99.18,66.37Zm3.33-15.56-.13,0L90,54.14a.5.5,0,0,0-.35.35.47.47,0,0,0,.13.48l9,9a.47.47,0,0,0,.48.13.48.48,0,0,0,.35-.35L103,51.44a.48.48,0,0,0-.12-.48A.5.5,0,0,0,102.51,50.81Z"/></g></g></svg>