<svg id="Layer_1" data-name="Layer 1" xmlns="http://www.w3.org/2000/svg" viewBox="0 0 400 126"><defs><style>.cls-1{opacity:0.68;}.cls-2,.cls-6{fill:#fff;}.cls-3{fill:#f2f2f2;}.cls-4{fill:#ccc;}.cls-5{opacity:0.47;}.cls-6{fill-rule:evenodd;}</style></defs><title>ecommerce</title><g class="cls-1"><path class="cls-2" d="M67,24.19l36.62,21.14a5,5,0,0,1,2.5,4.33V84.83a5,5,0,0,1-2.5,4.33L67,110.3a5,5,0,0,1-5,0L25.38,89.16a5,5,0,0,1-2.5-4.33V49.66a5,5,0,0,1,2.5-4.33L62,24.19A5,5,0,0,1,67,24.19Z"/><path class="cls-3" d="M64.67,35.52,96.46,54.2l-30,17.43a5,5,0,0,1-5.12-.06L32.88,54.2Z"/><path class="cls-4" d="M64.67,35.52V62.2L55,67.73,32.88,54.2Z"/></g><g class="cls-5"><path id="foco-outlines" class="cls-6" d="M124,76.9a22.24,22.24,0,0,0,4.89,2.61A16.51,16.51,0,0,0,135,80.63a13,13,0,0,0,4.16-.57,7.37,7.37,0,0,0,2.65-1.5,5.54,5.54,0,0,0,1.44-2.09,7.25,7.25,0,0,0-.09-5.26,5.94,5.94,0,0,0-1.6-2.1,9.38,9.38,0,0,0-2.66-1.52,34.68,34.68,0,0,0-3.65-1.21c-1.58-.42-3.09-.9-4.54-1.44a16.44,16.44,0,0,1-3.87-2,9.26,9.26,0,0,1-2.72-3,8.68,8.68,0,0,1-1-4.42A9.39,9.39,0,0,1,127,47.64a13.25,13.25,0,0,1,4.32-2,20.36,20.36,0,0,1,5.44-.69,25.56,25.56,0,0,1,5.09.55,16.6,16.6,0,0,1,4.64,1.58,8.73,8.73,0,0,1,1.72,1.23,2,2,0,0,1,.71,1.53,2.51,2.51,0,0,1-.61,1.49,12.26,12.26,0,0,1-1.5,1.61c-.35-.27-.81-.61-1.41-1a11,11,0,0,0-2.18-1.18,18.41,18.41,0,0,0-2.91-.95,14.73,14.73,0,0,0-3.55-.4,12.52,12.52,0,0,0-3.75.48,7.31,7.31,0,0,0-2.43,1.27A4.54,4.54,0,0,0,129.27,53a5.83,5.83,0,0,0-.42,2.15,4.63,4.63,0,0,0,.64,2.47,5.89,5.89,0,0,0,1.86,1.82,15.52,15.52,0,0,0,2.94,1.4c1.15.42,2.48.85,4,1.27a33,33,0,0,1,4.26,1.52,14.29,14.29,0,0,1,3.55,2.21,10.33,10.33,0,0,1,2.46,3.14,9.36,9.36,0,0,1,.93,4.34,11.37,11.37,0,0,1-1.06,5,10.13,10.13,0,0,1-3,3.68,13.15,13.15,0,0,1-4.58,2.24A21.48,21.48,0,0,1,135,85a29.54,29.54,0,0,1-6.56-.69,14.34,14.34,0,0,1-4.77-1.84c-1.07-.65-1.6-1.36-1.6-2.13a3.4,3.4,0,0,1,.57-1.6A11.6,11.6,0,0,1,124,76.9Zm61.86,7.24-4.29-10.35H164.28l-4.16,10.35h-5.63L170,46a8.74,8.74,0,0,1,1.34-.34,9.14,9.14,0,0,1,1.8-.17,5,5,0,0,1,2.2.48,3.4,3.4,0,0,1,1.57,1.87l14.79,36.27ZM172.92,51.38l-7.23,18.33h14.4Zm26.16-5.75a2.22,2.22,0,0,0,.51-.06,4.36,4.36,0,0,0,.51,0,5.15,5.15,0,0,1,.58,0,5.61,5.61,0,0,1,1.24.14,3.84,3.84,0,0,1,1.28.52,3,3,0,0,1,1,1.09,3.68,3.68,0,0,1,.41,1.87V79.77h14.85a4.1,4.1,0,0,1,2.95.89,2.94,2.94,0,0,1,.89,2.16,3.89,3.89,0,0,1,0,.51,3.29,3.29,0,0,0,0,.41v.4H199.08ZM236.3,61.84h14.53v4.42H236.3V79.83h16.26a4.28,4.28,0,0,1,3,.89,3,3,0,0,1,.92,2.21,2.9,2.9,0,0,1,0,.43,2.64,2.64,0,0,0,0,.38v.4H230.73V45.69h24.71a1.87,1.87,0,0,1,.12.6v.6a3.11,3.11,0,0,1-.83,2.22,4.15,4.15,0,0,1-3.07.89H236.3ZM292.6,73.1a10.67,10.67,0,0,1-1.22,5.35,8.88,8.88,0,0,1-3.46,3.39,16.19,16.19,0,0,1-5.44,1.78,44,44,0,0,1-7.1.52H264.31V45.8c1.75-.15,3.41-.28,5-.37s3.39-.14,5.44-.14a37.54,37.54,0,0,1,7.46.63,14.24,14.24,0,0,1,4.89,1.84,7.1,7.1,0,0,1,2.69,3,9.83,9.83,0,0,1,.83,4.11,9.05,9.05,0,0,1-.64,3.54A9.69,9.69,0,0,1,288.4,61a8.83,8.83,0,0,1-2,1.79,12.3,12.3,0,0,1-2,1,17.28,17.28,0,0,1,2.47.78,9.46,9.46,0,0,1,2.69,1.58,9,9,0,0,1,2.14,2.7A8.75,8.75,0,0,1,292.6,73.1ZM273.91,80c1.92,0,3.67-.08,5.25-.23a14.14,14.14,0,0,0,4.09-1,6,6,0,0,0,2.69-2.1,6.3,6.3,0,0,0,1-3.67,5.65,5.65,0,0,0-.9-3.31,6.34,6.34,0,0,0-2.43-2.07,11.15,11.15,0,0,0-3.49-1.06,28,28,0,0,0-4.06-.29h-6.14V80ZM285,55.06a4.86,4.86,0,0,0-.8-2.91,5.15,5.15,0,0,0-2.2-1.72,12.15,12.15,0,0,0-3.36-.83,35.22,35.22,0,0,0-4.26-.23c-1,0-1.92,0-2.69.05a16.5,16.5,0,0,0-1.85.18V62.24H276a10.73,10.73,0,0,0,6.52-1.87A6.16,6.16,0,0,0,285,55.06Zm52.4,9.65a28.36,28.36,0,0,1-1.06,7.82,17.81,17.81,0,0,1-3.3,6.44,15.89,15.89,0,0,1-5.79,4.39A20.3,20.3,0,0,1,318.75,85a19.42,19.42,0,0,1-8.42-1.67,15.53,15.53,0,0,1-5.66-4.45,18,18,0,0,1-3.17-6.47,29.26,29.26,0,0,1-1-7.64,25.83,25.83,0,0,1,1.09-7.56A17.47,17.47,0,0,1,305,50.89a16.32,16.32,0,0,1,5.85-4.34,20.5,20.5,0,0,1,8.48-1.61,19.91,19.91,0,0,1,8.23,1.55,15.53,15.53,0,0,1,5.63,4.23A17,17,0,0,1,336.41,57,28.25,28.25,0,0,1,337.44,64.71Zm-5.83.06a25.67,25.67,0,0,0-.64-5.86,14,14,0,0,0-2.08-4.86,10,10,0,0,0-3.84-3.3,12.84,12.84,0,0,0-5.85-1.21,13.52,13.52,0,0,0-6.08,1.21,10.34,10.34,0,0,0-3.94,3.3A13.4,13.4,0,0,0,307,58.91a25.67,25.67,0,0,0-.64,5.86,26.86,26.86,0,0,0,.64,6,15,15,0,0,0,2.11,5.06,10.61,10.61,0,0,0,3.87,3.5,14.46,14.46,0,0,0,11.94,0,10.55,10.55,0,0,0,3.9-3.5A15,15,0,0,0,331,70.72,26.86,26.86,0,0,0,331.61,64.77Zm24.68,4L346.24,84.14h-6.08l13-19.37L341.25,46.21a13.79,13.79,0,0,1,1.73-.49,7,7,0,0,1,1.6-.2A4.72,4.72,0,0,1,348.8,48l7.81,12.71L365,48.1a5,5,0,0,1,2.24-2.1,6.33,6.33,0,0,1,2.17-.43,6.47,6.47,0,0,1,1.6.18,5.37,5.37,0,0,1,1.28.46l-12.48,18.5,13.12,19.43a9.73,9.73,0,0,1-1.53.43,8.69,8.69,0,0,1-1.48.14,4.85,4.85,0,0,1-2.75-.69,7.9,7.9,0,0,1-2-2.07Z"/></g></svg>