<svg id="Layer_1" data-name="Layer 1" xmlns="http://www.w3.org/2000/svg" viewBox="0 0 243 81"><defs><style>.cls-1{fill:#0f70e1;}.cls-2{fill:#e6dddd;}.cls-3{fill:#fff;}.cls-4{fill:#5d5d5d;fill-rule:evenodd;}</style></defs><title>Member</title><path class="cls-1" d="M35.64,14l23.3,13.45a3.17,3.17,0,0,1,1.59,2.76V52.57a3.17,3.17,0,0,1-1.59,2.76L35.64,68.78a3.17,3.17,0,0,1-3.18,0L9.16,55.33a3.2,3.2,0,0,1-1.59-2.76V30.2a3.2,3.2,0,0,1,1.59-2.76L32.46,14A3.17,3.17,0,0,1,35.64,14Z"/><path class="cls-2" d="M34.16,21.2,54.39,33.08,35.27,44.17a3.18,3.18,0,0,1-3.25,0L13.93,33.08Z"/><path class="cls-3" d="M34.16,21.2v17L28,41.69l-14.1-8.61Z"/><path id="foco-outlines" class="cls-4" d="M77.06,50.08a13.76,13.76,0,0,0,3.12,1.85,9.51,9.51,0,0,0,3.88.79,7.51,7.51,0,0,0,2.65-.4,4.75,4.75,0,0,0,1.69-1.06,4,4,0,0,0,.92-1.49A5.78,5.78,0,0,0,89.26,46a4.22,4.22,0,0,0-1-1.48,6,6,0,0,0-1.69-1.08,24,24,0,0,0-2.32-.86,27.26,27.26,0,0,1-2.89-1,10.12,10.12,0,0,1-2.47-1.43,6.41,6.41,0,0,1-1.73-2.12,6.81,6.81,0,0,1-.65-3.13,7.42,7.42,0,0,1,.67-3.24A6.63,6.63,0,0,1,79,29.35a8.35,8.35,0,0,1,2.75-1.43,12,12,0,0,1,3.46-.48,14.69,14.69,0,0,1,3.24.38,9.92,9.92,0,0,1,3,1.12,5.58,5.58,0,0,1,1.1.88,1.51,1.51,0,0,1,.45,1.08A1.93,1.93,0,0,1,92.55,32a7.36,7.36,0,0,1-1,1.14c-.22-.19-.52-.44-.9-.74a7.4,7.4,0,0,0-1.38-.83,11.16,11.16,0,0,0-1.86-.67,8.47,8.47,0,0,0-2.26-.29,7.08,7.08,0,0,0-2.38.35,4.61,4.61,0,0,0-1.55.89,3.27,3.27,0,0,0-.85,1.31,4.47,4.47,0,0,0-.27,1.52,3.54,3.54,0,0,0,.41,1.75,4,4,0,0,0,1.18,1.29,9.15,9.15,0,0,0,1.88,1q1.09.45,2.52.9a19.62,19.62,0,0,1,2.71,1.08,8.86,8.86,0,0,1,2.26,1.57,7.25,7.25,0,0,1,1.57,2.22,7.34,7.34,0,0,1,.59,3.07,8.86,8.86,0,0,1-.68,3.58A7,7,0,0,1,90.7,53.7a7.89,7.89,0,0,1-2.91,1.59,12.54,12.54,0,0,1-3.73.53,17.27,17.27,0,0,1-4.17-.49,8.75,8.75,0,0,1-3-1.3,1.92,1.92,0,0,1-1-1.51,2.62,2.62,0,0,1,.36-1.14A8.13,8.13,0,0,1,77.06,50.08Zm39.36,5.13-2.73-7.33h-11l-2.65,7.33H96.47l9.85-27a5.09,5.09,0,0,1,.86-.24,4.92,4.92,0,0,1,1.14-.13,2.88,2.88,0,0,1,1.4.35,2.35,2.35,0,0,1,1,1.32l9.41,25.7ZM108.2,32l-4.61,13h9.17Zm16.63-4.08a1.24,1.24,0,0,0,.33,0,1.83,1.83,0,0,0,.33,0l.36,0a4,4,0,0,1,.8.1,2.46,2.46,0,0,1,.81.37,2,2,0,0,1,.65.78,2.79,2.79,0,0,1,.27,1.32v21.7h9.44a2.44,2.44,0,0,1,1.88.63,2.2,2.2,0,0,1,.57,1.53c0,.14,0,.26,0,.37a1.47,1.47,0,0,0,0,.28v.29h-15.4Zm23.69,11.49h9.24v3.13h-9.24v9.61h10.34a2.53,2.53,0,0,1,1.93.63,2.2,2.2,0,0,1,.6,1.57,1.55,1.55,0,0,1,0,.31,2.46,2.46,0,0,0,0,.26v.29H145V28h15.71a1.18,1.18,0,0,1,.08.42v.43a2.33,2.33,0,0,1-.53,1.57,2.45,2.45,0,0,1-2,.63h-9.77Zm35.82,8a8.22,8.22,0,0,1-.78,3.79,6.05,6.05,0,0,1-2.2,2.4,9.51,9.51,0,0,1-3.46,1.26,26,26,0,0,1-4.52.37h-7V28.05c1.11-.11,2.17-.2,3.17-.27s2.16-.1,3.46-.1a21.32,21.32,0,0,1,4.75.45,8.52,8.52,0,0,1,3.11,1.3,4.86,4.86,0,0,1,1.71,2.14,7.4,7.4,0,0,1,.53,2.91,7.05,7.05,0,0,1-.4,2.5,7.78,7.78,0,0,1-1,1.86,6.34,6.34,0,0,1-1.28,1.26,7,7,0,0,1-1.27.73,10.73,10.73,0,0,1,1.57.55,5.94,5.94,0,0,1,1.71,1.12,6.3,6.3,0,0,1,1.37,1.92A6.78,6.78,0,0,1,184.34,47.39Zm-11.89,4.88a30.71,30.71,0,0,0,3.33-.16,8.3,8.3,0,0,0,2.61-.67A3.88,3.88,0,0,0,180.1,50a4.83,4.83,0,0,0,.61-2.6,4.36,4.36,0,0,0-.57-2.34,4.21,4.21,0,0,0-1.55-1.47,6.49,6.49,0,0,0-2.21-.75,15.52,15.52,0,0,0-2.59-.21h-3.91v9.69Zm7.08-17.67a3.73,3.73,0,0,0-.51-2.05,3.42,3.42,0,0,0-1.4-1.23,7.32,7.32,0,0,0-2.14-.59,22.59,22.59,0,0,0-2.71-.16c-.65,0-1.22,0-1.71,0a11.83,11.83,0,0,0-1.18.12v9h3.87a6.37,6.37,0,0,0,4.15-1.32A4.57,4.57,0,0,0,179.53,34.6Zm33.33,6.84a22,22,0,0,1-.67,5.54,13.08,13.08,0,0,1-2.09,4.56,10.4,10.4,0,0,1-3.69,3.12A11.84,11.84,0,0,1,201,55.82a11.33,11.33,0,0,1-5.35-1.18,10.11,10.11,0,0,1-3.6-3.16,13.24,13.24,0,0,1-2-4.58,23,23,0,0,1-.63-5.42,20.38,20.38,0,0,1,.69-5.35,12.87,12.87,0,0,1,2.16-4.48A10.57,10.57,0,0,1,196,28.58a11.81,11.81,0,0,1,5.39-1.14,11.38,11.38,0,0,1,5.23,1.1,10,10,0,0,1,3.59,3A12.61,12.61,0,0,1,212.21,36,21.82,21.82,0,0,1,212.86,41.44Zm-3.7,0a20.42,20.42,0,0,0-.41-4.15,10.63,10.63,0,0,0-1.32-3.44A6.68,6.68,0,0,0,205,31.55a7.54,7.54,0,0,0-3.73-.86,7.91,7.91,0,0,0-3.87.86,6.93,6.93,0,0,0-2.5,2.34,10,10,0,0,0-1.37,3.44,20.44,20.44,0,0,0-.4,4.15,21.43,21.43,0,0,0,.4,4.22,11.1,11.1,0,0,0,1.35,3.58,7,7,0,0,0,2.46,2.49,8.37,8.37,0,0,0,7.59,0,7,7,0,0,0,2.49-2.49,11.32,11.32,0,0,0,1.34-3.58A21.42,21.42,0,0,0,209.16,41.48Zm15.7,2.85-6.39,10.88H214.6l8.27-13.73-7.58-13.15a10,10,0,0,1,1.1-.34,4.06,4.06,0,0,1,1-.15,3,3,0,0,1,2.69,1.79l5,9,5.33-9a3.36,3.36,0,0,1,1.42-1.49,3.74,3.74,0,0,1,1.39-.31,3.56,3.56,0,0,1,1,.13,3.7,3.7,0,0,1,.81.32L227.1,41.44l8.35,13.77a6.11,6.11,0,0,1-1,.3,4.4,4.4,0,0,1-.93.1,2.91,2.91,0,0,1-1.76-.48,5.59,5.59,0,0,1-1.26-1.47Z"/></svg>