<svg id="Layer_1" data-name="Layer 1" xmlns="http://www.w3.org/2000/svg" viewBox="0 0 1313 816"><defs><style>.cls-1{fill:#9eb1d9;}.cls-1,.cls-10,.cls-11,.cls-12,.cls-14,.cls-15,.cls-16,.cls-17,.cls-19,.cls-2,.cls-21,.cls-23,.cls-24,.cls-25,.cls-26,.cls-27,.cls-28,.cls-29,.cls-3,.cls-30,.cls-31,.cls-32,.cls-33,.cls-34,.cls-36,.cls-37,.cls-39,.cls-4,.cls-40,.cls-42,.cls-43,.cls-44,.cls-45,.cls-47,.cls-48,.cls-5,.cls-50,.cls-6,.cls-7,.cls-8,.cls-9{fill-rule:evenodd;}.cls-18,.cls-2{fill:#fff;}.cls-3{fill:#9ddbf4;}.cls-4{fill:#cfeffe;opacity:0.4;}.cls-5{fill:#b0eeff;}.cls-6{fill:#bfcce8;}.cls-49,.cls-7{fill:#01020e;}.cls-8{fill:#e2e1e7;}.cls-9{fill:#0076bd;}.cls-10,.cls-13{fill:#0e1632;}.cls-11{fill:#e8685b;}.cls-12{fill:#3a405c;}.cls-14{fill:#f4ad85;}.cls-15{fill:#ed9072;}.cls-16{fill:#010518;}.cls-17{fill:#1c95d4;}.cls-19{fill:#e74d91;}.cls-20{fill:#e0dee1;}.cls-21{fill:#acadbb;}.cls-22{fill:#e6e4eb;}.cls-23,.cls-38{fill:#383d5d;}.cls-24{fill:#b1c0e2;}.cls-25{fill:#e68392;}.cls-26{fill:#c2e4ea;}.cls-27{fill:#f2f0f0;}.cls-28{fill:#f498a4;}.cls-29{fill:#e8f4f6;}.cls-30{fill:#faf3ef;}.cls-31{fill:#f3b1b8;}.cls-32{fill:#e1708c;}.cls-33{fill:#f6c0c2;}.cls-34{fill:#ee92a7;}.cls-35{fill:#003f6a;}.cls-36{fill:#04263b;}.cls-37{fill:#004a82;}.cls-39{fill:#b92f6d;}.cls-40{fill:#c9c4d1;}.cls-41,.cls-42{fill:#f4f4f7;}.cls-43{fill:#b0dde5;}.cls-44{fill:#303353;}.cls-45,.cls-46{fill:#03061e;}.cls-47{fill:#232647;}.cls-48{fill:#4c4f6c;}.cls-50{fill:#eb7894;}</style></defs><title>Contactus</title><path class="cls-1" d="M940.65,577.39h62a5.83,5.83,0,0,1,3.71,1.34,1.89,1.89,0,0,1,.73.56,1.94,1.94,0,0,1,.25.47,5.79,5.79,0,0,1,1.17,3.49v36.43a5.83,5.83,0,0,1-1.72,4.13h0a5.85,5.85,0,0,1-4.14,1.72h-62a5.87,5.87,0,0,1-5.86-5.86V583.25a5.82,5.82,0,0,1,1.17-3.5,1.72,1.72,0,0,1,.25-.46,1.86,1.86,0,0,1,.72-.56A5.86,5.86,0,0,1,940.65,577.39Z"/><path class="cls-2" d="M938.45,574.72h62a5.81,5.81,0,0,1,3.72,1.35,1.81,1.81,0,0,1,.72.55,2,2,0,0,1,.26.47,5.83,5.83,0,0,1,1.16,3.49V617a5.85,5.85,0,0,1-1.72,4.14h0a5.85,5.85,0,0,1-4.14,1.72h-62A5.86,5.86,0,0,1,932.6,617V580.58a5.84,5.84,0,0,1,1.16-3.5,2.3,2.3,0,0,1,.25-.46,1.77,1.77,0,0,1,.73-.55,5.8,5.8,0,0,1,3.71-1.35Zm62.79,44.45L976.68,600.4l-6.13,4.68h0l-.15.1h0l0,0h0l0,0h0l0,0h0l0,0h0l0,0h-.08l-.21.07h0l-.21,0h-.47l-.21,0h0l-.2-.07h-.08l0,0h0l0,0h0l0,0h0l0,0h0l0,0h0l-.15-.1h0l-6.12-4.68-24.57,18.77a2.36,2.36,0,0,0,.8.14h62a2.36,2.36,0,0,0,.8-.14Zm-22.37-20.44L1002.74,617V580.49l-23.87,18.24ZM936.15,617,960,598.73l-23.87-18.24V617Zm33.3-15.5,30.34-23.18H939.11Z"/><path class="cls-3" d="M1047.58,269.59a2,2,0,1,0-4,0v4.69h-4.69a2,2,0,1,0,0,4h4.69V283a2,2,0,0,0,4,0v-4.69h4.69a2,2,0,0,0,0-4h-4.69Z"/><path class="cls-4" d="M409.44,752.37h792a51.75,51.75,0,0,0,51.59-51.6h0a51.74,51.74,0,0,0-51.59-51.59h-21.46c-92,0-167.34-75.3-167.34-167.34S937.3,314.5,845.26,314.5H707.59a19.75,19.75,0,0,1-19.69-19.7h0a19.75,19.75,0,0,1,19.69-19.69h87.64a27.53,27.53,0,0,0,27.45-27.45h0a27.54,27.54,0,0,0-27.45-27.46h-110a55.61,55.61,0,0,1-55.44-55.44,55.61,55.61,0,0,0-55.45-55.45H275.5a56.61,56.61,0,0,0-56.44,56.44h0A56.61,56.61,0,0,0,275.5,222.2h84.72a32.1,32.1,0,0,1,31.87,32h0a32.11,32.11,0,0,1-31.87,32h.13a63.46,63.46,0,0,0-63.28,63.28,63.46,63.46,0,0,1-63.28,63.28C140.41,412.78,64,489.19,64,582.57h0c0,93.39,76.41,169.8,169.79,169.8ZM133.4,222.2A56.61,56.61,0,0,1,77,165.75h0a56.61,56.61,0,0,1,56.45-56.44h0a56.61,56.61,0,0,1,56.44,56.44h0A56.61,56.61,0,0,1,133.4,222.2Z"/><path class="cls-5" d="M1001.28,421.5q-2.94-7.5-6.54-14.64H843.92c-1.3,0-1.79,1.06-1.1,2.35l5.3,9.93a4.62,4.62,0,0,0,3.61,2.36Z"/><path class="cls-5" d="M1007.55,441.1q-1.89-7.46-4.43-14.64H843.92c-1.3,0-1.79,1.06-1.1,2.36l5.3,9.93a4.61,4.61,0,0,0,3.61,2.35Z"/><path class="cls-5" d="M1011.26,460.71c-.63-4.95-1.49-9.83-2.55-14.64H843.92c-1.3,0-1.79,1.06-1.1,2.35l5.3,9.94a4.64,4.64,0,0,0,3.61,2.35Z"/><path class="cls-5" d="M1012.58,480.32q-.06-7.41-.77-14.64H843.92c-1.3,0-1.79,1.06-1.1,2.35l5.3,9.93a4.62,4.62,0,0,0,3.61,2.36Z"/><path class="cls-5" d="M1013.59,499.92q-.78-7.23-.94-14.64H843.92c-1.3,0-1.79,1.06-1.1,2.36l5.3,9.93a4.64,4.64,0,0,0,3.61,2.35Z"/><path class="cls-5" d="M871,412.22a1.48,1.48,0,1,0-3,0V540.31a1.48,1.48,0,0,0,3,0Z"/><path class="cls-5" d="M863.57,574.55a5.93,5.93,0,1,0,11.86,0V540.31a5.93,5.93,0,0,0-11.86,0Z"/><path class="cls-5" d="M573.8,133.22H382.91c-1.34,0-1.85,1.09-1.13,2.43L387.27,146A4.82,4.82,0,0,0,391,148.4H581.9c1.34,0,1.85-1.1,1.14-2.44l-5.5-10.31A4.81,4.81,0,0,0,573.8,133.22Z"/><path class="cls-5" d="M573.8,153.55H382.91c-1.34,0-1.85,1.1-1.13,2.44l5.49,10.3a4.81,4.81,0,0,0,3.74,2.45H581.9c1.34,0,1.85-1.1,1.14-2.45l-5.5-10.3A4.82,4.82,0,0,0,573.8,153.55Z"/><path class="cls-5" d="M411,138.77a1.54,1.54,0,1,0-3.08,0V271.63a1.54,1.54,0,0,0,3.08,0Z"/><path class="cls-5" d="M403.3,307.15a6.15,6.15,0,0,0,12.3,0V271.63a6.15,6.15,0,0,0-12.3,0Z"/><path class="cls-5" d="M248.6,411a62.36,62.36,0,0,1-14.81,1.77A168.35,168.35,0,0,0,170.65,425h85.69a4.42,4.42,0,0,0,3.45-2.25l5.08-9.51c.66-1.24.19-2.26-1.05-2.26Z"/><path class="cls-5" d="M160,429.79a170.51,170.51,0,0,0-23.7,14H256.34a4.42,4.42,0,0,0,3.45-2.25l5.08-9.52c.66-1.24.19-2.25-1.05-2.25Z"/><path class="cls-5" d="M129.84,448.57a170.52,170.52,0,0,0-15.89,14H256.34a4.43,4.43,0,0,0,3.45-2.26l5.08-9.51c.66-1.24.19-2.25-1.05-2.25Z"/><path class="cls-5" d="M109.38,467.34a172.24,172.24,0,0,0-11.69,14H256.34a4.42,4.42,0,0,0,3.45-2.25l5.08-9.51c.66-1.24.19-2.26-1.05-2.26Z"/><path class="cls-5" d="M94.27,486.12q-4.71,6.78-8.76,14H256.34a4.41,4.41,0,0,0,3.45-2.26l5.08-9.51c.66-1.24.19-2.25-1.05-2.25Z"/><path class="cls-5" d="M237.9,418c0-1.83.63-3.31,1.42-3.31s1.41,1.48,1.41,3.31V703.24c0,1.83-.63,3.31-1.41,3.31s-1.42-1.48-1.42-3.31Z"/><path class="cls-5" d="M245,739.34a5.68,5.68,0,1,1-11.35,0V706.55a5.68,5.68,0,1,1,11.35,0Z"/><path class="cls-5" d="M87.57,504.9H263.82c1.24,0,1.71,1,1.05,2.25l-5.08,9.51a4.42,4.42,0,0,1-3.45,2.25H80.09c-1.24,0-1.71-1-1-2.25l5.07-9.51A4.45,4.45,0,0,1,87.57,504.9Z"/><path class="cls-5" d="M87.57,523.67H263.82c1.24,0,1.71,1,1.05,2.25l-5.08,9.52a4.42,4.42,0,0,1-3.45,2.25H80.09c-1.24,0-1.71-1-1-2.25l5.07-9.52A4.48,4.48,0,0,1,87.57,523.67Z"/><path class="cls-5" d="M87.57,542.45H263.82c1.24,0,1.71,1,1.05,2.25l-5.08,9.51a4.43,4.43,0,0,1-3.45,2.26H80.09c-1.24,0-1.71-1-1-2.26l5.07-9.51A4.45,4.45,0,0,1,87.57,542.45Z"/><path class="cls-5" d="M87.57,561.22H263.82c1.24,0,1.71,1,1.05,2.26L259.79,573a4.42,4.42,0,0,1-3.45,2.25H80.09c-1.24,0-1.71-1-1-2.25l5.07-9.51A4.47,4.47,0,0,1,87.57,561.22Z"/><path class="cls-5" d="M87.57,580H263.82c1.24,0,1.71,1,1.05,2.25l-5.08,9.52a4.42,4.42,0,0,1-3.45,2.25H80.09c-1.24,0-1.71-1-1-2.25l5.07-9.52A4.45,4.45,0,0,1,87.57,580Z"/><path class="cls-5" d="M87.57,598.78H263.82c1.24,0,1.71,1,1.05,2.25l-5.08,9.51a4.43,4.43,0,0,1-3.45,2.26H80.09c-1.24,0-1.71-1-1-2.26L84.11,601A4.45,4.45,0,0,1,87.57,598.78Z"/><path class="cls-5" d="M87.57,617.55H263.82c1.24,0,1.71,1,1.05,2.26l-5.08,9.51a4.42,4.42,0,0,1-3.45,2.25H80.09c-1.24,0-1.71-1-1-2.25l5.07-9.51A4.47,4.47,0,0,1,87.57,617.55Z"/><path class="cls-5" d="M87.57,636.33H263.82c1.24,0,1.71,1,1.05,2.25l-5.08,9.52a4.42,4.42,0,0,1-3.45,2.25H80.09c-1.24,0-1.71-1-1-2.25l5.07-9.52A4.45,4.45,0,0,1,87.57,636.33Z"/><path class="cls-6" d="M297.46,200.2a20,20,0,0,1-8.58,10.12,26.36,26.36,0,0,1-6.31,2.9,1.86,1.86,0,0,1-2.31-1.28,1.82,1.82,0,0,1-.07-.7,24.57,24.57,0,0,0-.06-5.75,21.22,21.22,0,0,0-.65-3.15,36.05,36.05,0,1,1,18-2.14Z"/><path class="cls-7" d="M472.12,469.86c14,7.52,21.7,16.42,31.22,29.3,21.18,28.68,29.46,50.65,53.58,76.53,8.89,9.54,73.27,25.4,78.33,15.54,1-1.92,5.25-11.2,8.88-8.28,1.7,1.37,7.6,7.36,11.37,9.28s8.35.92,9.24,6.5c-9.94,37-74.77,64.2-127.3,25.35-37.26-27.56-65-69.93-69.8-76.08-17.24-22.31-6-44.67-13.71-60.54l0-.06-.51-1.07-.17-.36-.32-.69v0l-.3-.64-.17-.38-.11-.26h0c-3.26-7.41-3.45-10.35-3.45-10.35l7.25,8.05Z"/><path class="cls-8" d="M324.11,499.37l24.42-30.87,5.4-4.64,54.25-20.4,25.1,3.91h0s25,12.19,27.16,12.08a2.87,2.87,0,0,0,1.05-.4l14.81,42.59s9,61.71,10.26,65.91,2.36,63.39-2.3,71.89-.71,21.67-18.68,27.2-56.39,16.23-82.19-11S352.22,613.19,345.77,604,324.11,499.37,324.11,499.37Z"/><path class="cls-9" d="M426.62,482.23l1.5,2.61s21.5,65,20.61,117.16-27.17,7.57-26.72,3.12,5.1-89.31.54-119.94C422.55,485.18,422.9,481.05,426.62,482.23Z"/><path class="cls-7" d="M438.52,450.3s20.85,49.78,13,106.8-24.45,100.68-24.45,100.68l-4,50h72.07c.49-20.17,1.23-37.16,2.26-48.64C503.06,595.87,520.53,461.34,438.52,450.3Z"/><path class="cls-10" d="M438.52,450.3s20.85,49.78,13,106.8a521.26,521.26,0,0,1-10.82,55.48h0l1.88,8.8C458.07,585,482,493,481.44,492.75s-14.76-1.4-14.76-1.4c3.38-3.3,7.56-5,6.68-6.61-.79-1.45-20.83-27.2-24.82-32.33A68,68,0,0,0,438.52,450.3Z"/><path class="cls-7" d="M448.34,707.76c-.72-13.18-1.38-22.7-1.76-27-8.06-92.41-4-154.27-66.11-227.32-14.52,2.79-40.68,16.43-40.68,16.43-11.51,6-22.48,15.66-24.39,29-2.71,18.89,17.85,84.34,30.5,125.35,5.44,17.66,6.12,47.93,4.34,83.58Z"/><path class="cls-11" d="M388.23,392.25l.64,14.81v35c0,2.22-2.08,5.44-5.74,8.23,5.46,5.93,18.93,19.7,27.38,21,10.8,1.67,23.28-3.12,26.39-5.79,2.18-1.87,2.39-11.54,3.67-16.95-1-.28.14,0-.88-.32a16.06,16.06,0,0,1-6.75-3.88c-5.07-5.53-4.84-30.19.23-36.64S388.23,392.25,388.23,392.25Z"/><path class="cls-8" d="M428.72,464.46l-6.11-3.3s-.52,6.75-1.24,7-1.69-4.24-4.33-5.86-9.71,8-9.71,8,2.63,7.51,6.41,8.07,15.19,1.82,15.34-1.59S428.72,464.46,428.72,464.46Z"/><path class="cls-9" d="M420.87,472.6a23.89,23.89,0,0,1-9.92-3.29,6.1,6.1,0,0,0-7.85.73l4.35,4.93.33,2.08s6.48-1.14,10.59,1.85S420.87,472.6,420.87,472.6Z"/><path class="cls-2" d="M385.88,443.17S393.56,457,414,460.55c2.79.58,8.06,5.69,4.34,5s-12,15.26-13.14,21.27S379.52,461.55,378,451.75C378,451.75,382,444.29,385.88,443.17Z"/><path class="cls-9" d="M429.4,473s-2.33-1.84-4.23-1.84-5.34,0-6.79,1.28a13.33,13.33,0,0,0-3.29,5.18c-.12.95,5.68,6.68,7.46,7.58s3.68-.56,5.57-.34S430.57,475,429.4,473Z"/><path class="cls-2" d="M432,442.89s1.63,12.19-8,16.55c0,0-2.64,1.34-.49,3.75s5.36,11.93,6.32,16.21,12.9-17.39,12.06-30.7C441.82,448.7,435.21,443.76,432,442.89Z"/><path class="cls-7" d="M339.79,469.86c-14,7.52-21.69,16.42-31.21,29.3-21.18,28.68-29.46,50.65-53.58,76.53-8.89,9.54-52.68-65.43-57.75-75.29-1-1.92-5.25-11.2-8.88-8.28-1.69,1.36-7.6,7.35-11.36,9.27s-8.36.93-9.24,6.5c9.93,37,54.17,155,106.7,116.19,37.26-27.56,65-69.93,69.8-76.08,17.25-22.31,6-44.67,13.72-60.54l0-.06.5-1.07.17-.36.33-.69v0l.29-.64.17-.38.12-.26h0c3.27-7.41,3.45-10.35,3.45-10.35l-7.24,8.05Z"/><path class="cls-9" d="M474.9,369.63a2.81,2.81,0,0,0,5.62,0V293.54a37.51,37.51,0,0,0-13.48-29c-7.32-6-18.26-10.44-34.26-10.87-18.62-.5-38.7.92-54.22,7.36-16.13,6.68-27.38,18.61-27.38,39v64.69a2.81,2.81,0,1,0,5.61,0V300c0-17.64,9.83-28,23.91-33.83,14.69-6.08,34-7.42,51.95-6.94,14.58.4,24.38,4.27,30.84,9.6a31.91,31.91,0,0,1,11.41,24.72Z"/><path class="cls-12" d="M493.1,378h-2.25a5.65,5.65,0,0,0-5.64,5.64h0a5.65,5.65,0,0,0,5.64,5.64h2.25a5.65,5.65,0,0,0,5.64-5.64h0A5.65,5.65,0,0,0,493.1,378Z"/><path class="cls-9" d="M469.56,406.11A22.53,22.53,0,0,0,492,383.65h0a22.53,22.53,0,0,0-22.46-22.46Z"/><rect class="cls-13" x="465.55" y="356.29" width="8.01" height="54.71" rx="4"/><path class="cls-14" d="M420.76,284.35h0a54.45,54.45,0,0,0-56.47,52l-2,49.29a54.43,54.43,0,0,0,52,56.46h0a54.43,54.43,0,0,0,56.46-52l2-49.29A54.45,54.45,0,0,0,420.76,284.35Z"/><path class="cls-15" d="M413.1,284.58a54.48,54.48,0,0,0-48.81,51.78l-2,49.29a54.43,54.43,0,0,0,52,56.46h0a54.17,54.17,0,0,0,6.12-.09c-38.16-.42-39.57-44.26-39.57-62.76s22-39.64,31.56-40.08S438.5,351,438.5,351s19.12-24.29,18.83-22.53C453.14,324.27,431.33,299.6,413.1,284.58Z"/><path class="cls-10" d="M360.17,302.35s-25.47,7.58-3.91,59.91c5.3.22,6.8,4.29,6.66,7.68l-.28,6.75c8.3-3.31,7.26-12.13,6.2-16.41,0,0,30.56-6.25,36-39.65,0,0,.23-2.42,3.26-.47,2.6,1.67,28.36,35.4,52.2,44.61,21.77,8.41,43.44-19.24,39.32-43.09C485.81,241.83,362.44,247,360.17,302.35Z"/><path class="cls-16" d="M360.17,302.35s-25.47,7.58-3.91,59.91c5.3.22,6.8,4.29,6.66,7.68l-.28,6.75c8.3-3.31,7.26-12.13,6.2-16.41,0,0,30.56-6.25,36-39.65,0,0,.23-2.42,3.26-.47,2.6,1.67,28.36,35.4,52.2,44.61,20.19,7.8,40.29-15.41,39.82-37.85-.08,1.31-2.25,31.84-32.9,21.52-31.33-10.54-53.52-37.83-67.69-32.55s-46.76,7.72-36.05-27A34.46,34.46,0,0,0,360.17,302.35Z"/><path class="cls-9" d="M351.18,300.24v64.44a2.81,2.81,0,1,0,5.61,0V300.24Z"/><path class="cls-12" d="M339,378h2.26a5.66,5.66,0,0,1,5.64,5.64h0a5.66,5.66,0,0,1-5.64,5.64H339a5.66,5.66,0,0,1-5.64-5.64h0A5.66,5.66,0,0,1,339,378Z"/><path class="cls-9" d="M362.57,406.11a22.53,22.53,0,0,1-22.46-22.46h0a22.53,22.53,0,0,1,22.46-22.46Z"/><path class="cls-10" d="M362.57,356.29h0a4,4,0,0,1,4,4V407a4,4,0,0,1-4,4h0a4,4,0,0,1-4-4V360.3A4,4,0,0,1,362.57,356.29Z"/><path class="cls-10" d="M443.92,646.74c-5.44-74.39-9.3-129.6-63.45-193.31a84.94,84.94,0,0,0-13,3.91c1.39,6.75,6,29.46,6.4,33.57a2,2,0,0,0,1.36,1c1,.26,15.09-2.09,15.09-2.09s-16.85,11.09-17.62,11.78,70.54,145.62,70.54,145.62Z"/><path class="cls-14" d="M197.53,488.09c1.38-7.22,8.19-23.28,9.83-25,2.16-2.25-9.25-9.12-13.3,1.72,0,0-5.34,7.2-7.42,6s-6.12-29-6.46-32.5-5.09-3.74-6.17-2.76-.08,5.44.2,11.85.53,10.39,0,11c-1.53,1.79-9.2-21.8-11.93-23.33-1.72-1-7.15,1.36-6.86,4.61s8.78,22.48,9.09,25.29-1.35,1.27-2.6-.26-12.71-20.66-14.28-21.62-6.58,1.94-5.42,5.23,12,22.49,11.94,24.1-1.2,1.43-4.76-1.1-10.61-7.73-12.64-7.23c-1.32-.06-3,4,.1,7.21s10.7,11.54,11.67,12.91c5.09,7.24,7.68,15.19,12.43,20.29a16.8,16.8,0,0,0,6.48,4.18C182.86,514.5,194.7,503,197.53,488.09Z"/><path class="cls-15" d="M159.86,503.3c.34.43.7.84,1.07,1.24a16.46,16.46,0,0,0,5.86,3.94l.62.24c10.15,3.8,18.74.14,24.24-7.05a32.24,32.24,0,0,0,5.88-13.58c0-.17.07-.35.11-.53C190.89,502.37,175.25,508.11,159.86,503.3Z"/><path class="cls-17" d="M193.13,281.39h97.71a13,13,0,0,1,12.91,12.9v91a1.44,1.44,0,0,1-2.46,1l-22-22H193.13a12.94,12.94,0,0,1-12.91-12.9V294.29A13,13,0,0,1,193.13,281.39Z"/><path class="cls-2" d="M213.19,330a7.11,7.11,0,1,0-7.1-7.11A7.13,7.13,0,0,0,213.19,330Z"/><path class="cls-2" d="M242,330a7.11,7.11,0,1,0-7.1-7.11A7.13,7.13,0,0,0,242,330Z"/><path class="cls-2" d="M270.78,330a7.11,7.11,0,1,0-7.11-7.11A7.12,7.12,0,0,0,270.78,330Z"/><path class="cls-2" d="M294.36,197a20,20,0,0,1-8.58,10.12,26.22,26.22,0,0,1-6.32,2.9,1.86,1.86,0,0,1-2.31-1.27,1.89,1.89,0,0,1-.06-.71,25.13,25.13,0,0,0-.06-5.75,21.12,21.12,0,0,0-.66-3.14,36.1,36.1,0,1,1,18-2.15ZM281,205.43c4.54-2,8.67-5.55,10.11-10.44a1.86,1.86,0,0,1,1.15-1.23A32.37,32.37,0,1,0,278,195.52a1.85,1.85,0,0,1,1.57,1.23,23.91,23.91,0,0,1,1.2,5A28,28,0,0,1,281,205.43Z"/><path class="cls-2" d="M294.84,144.47a12.56,12.56,0,0,0-5-5.57c-1,.87-3.72,3.66-5.44,9.57,1.49,1,5.59,4.13,3.67,7.45l-8,13.83c-1.95,3.24-6.65,1.28-8.25.5-4.27,4.45-5.33,8.2-5.57,9.49a12.44,12.44,0,0,0,7.33,1.54,7.88,7.88,0,0,0,5.83-3.27l15.52-26.88A7.94,7.94,0,0,0,294.84,144.47Z"/><path class="cls-9" d="M963.69,290.81H866a13,13,0,0,0-12.91,12.9v91a1.44,1.44,0,0,0,2.46,1l22-22h86.17a12.93,12.93,0,0,0,12.9-12.9V303.71A12.94,12.94,0,0,0,963.69,290.81Z"/><path class="cls-2" d="M943.62,339.4a7.11,7.11,0,1,0-7.1-7.11A7.13,7.13,0,0,0,943.62,339.4Z"/><path class="cls-2" d="M914.83,339.4a7.11,7.11,0,1,0-7.1-7.11A7.13,7.13,0,0,0,914.83,339.4Z"/><path class="cls-2" d="M886,339.4a7.11,7.11,0,1,0-7.11-7.11A7.13,7.13,0,0,0,886,339.4Z"/><path class="cls-2" d="M557.61,251.11a33.79,33.79,0,1,0-33.79-33.79A33.86,33.86,0,0,0,557.61,251.11Z"/><circle class="cls-18" cx="557.61" cy="298.71" r="33.79" transform="translate(-47.9 481.78) rotate(-45)"/><path class="cls-1" d="M559.3,288.4c1.92-7.12,5.52-9.89,5.89-10.16a.71.71,0,0,1,.79-.05,12.86,12.86,0,0,1,5.49,5.93,8.56,8.56,0,0,1,0,7.23l-14,24.26a8.57,8.57,0,0,1-6.31,3.64,12.78,12.78,0,0,1-7.85-1.78.7.7,0,0,1-.38-.67s.37-4.71,5.84-10.21a.68.68,0,0,1,.86-.13s4.63,2.67,6,.28l7.19-12.45c1.34-2.32-2.86-4.87-3.23-5.09A.7.7,0,0,1,559.3,288.4Z"/><path class="cls-17" d="M619.38,197.61a1.33,1.33,0,0,1,0-2.66h42.67a1.33,1.33,0,1,1,0,2.66Z"/><path class="cls-17" d="M619.77,205.88a1.33,1.33,0,1,1,0-2.66h16.42a1.33,1.33,0,1,1,0,2.66Z"/><path class="cls-17" d="M619.38,214.74a1.33,1.33,0,0,1,0-2.66h17.07a1.33,1.33,0,0,1,0,2.66Z"/><path class="cls-17" d="M619.38,222.53a1.33,1.33,0,0,1,0-2.66h34.13a1.33,1.33,0,1,1,0,2.66Z"/><path class="cls-17" d="M618.42,230.81c-.2,0-.37-.6-.37-1.34s.17-1.33.37-1.33h15.29c.21,0,.37.6.37,1.33s-.16,1.34-.37,1.34Z"/><path class="cls-17" d="M619.38,239.69a1.33,1.33,0,0,1,0-2.66H674.2a1.33,1.33,0,1,1,0,2.66Z"/><path class="cls-17" d="M619.38,279a1.33,1.33,0,0,1,0-2.66h42.67a1.33,1.33,0,0,1,0,2.66Z"/><path class="cls-17" d="M619.77,287.27a1.33,1.33,0,1,1,0-2.66h16.42a1.33,1.33,0,0,1,0,2.66Z"/><path class="cls-17" d="M619.38,296.13a1.33,1.33,0,0,1,0-2.66h17.07a1.33,1.33,0,0,1,0,2.66Z"/><path class="cls-17" d="M619.38,303.92a1.33,1.33,0,1,1,0-2.66h34.13a1.33,1.33,0,1,1,0,2.66Z"/><path class="cls-17" d="M619.38,312.2a1.34,1.34,0,0,1,0-2.67H674.2a1.34,1.34,0,0,1,0,2.67Z"/><path class="cls-17" d="M618.32,321.08c-.15,0-.27-.59-.27-1.33s.12-1.33.27-1.33h10.85c.14,0,.26.6.26,1.33s-.12,1.33-.26,1.33Z"/><path class="cls-1" d="M544.6,243.36l-2.92-2.85a6.88,6.88,0,0,0-.89.69A30.37,30.37,0,0,0,544.6,243.36Z"/><path class="cls-1" d="M544.6,243.36l-2.92-2.85a6.88,6.88,0,0,0-.89.69A29.67,29.67,0,0,0,544.6,243.36Z"/><path class="cls-1" d="M570.54,243.36l2.93-2.85a7.42,7.42,0,0,1,.88.69A29.67,29.67,0,0,1,570.54,243.36Z"/><path class="cls-1" d="M570.54,243.36l2.93-2.85a6.21,6.21,0,0,1,.88.69A29.67,29.67,0,0,1,570.54,243.36Z"/><path class="cls-19" d="M567.73,238.2l.23.07h0a31,31,0,0,1,5.5,2.24,4.68,4.68,0,0,1,.84.72,30.3,30.3,0,0,1-33.47,0,4.35,4.35,0,0,1,.84-.72,31,31,0,0,1,5.5-2.24h0l.24-.07,0,0a27.94,27.94,0,0,1,4.16-.51l5.9.85h.14l5.91-.85a27.94,27.94,0,0,1,4.16.51Z"/><path class="cls-11" d="M562.41,224.71l-.14,3.32v7.83a2.81,2.81,0,0,0,1.29,1.85c-4.27,4.63-7.7,4.63-12,0a2.81,2.81,0,0,0,1.29-1.85V228l-.14-3.32s2.38.43,4.84,1C560,225.14,562.41,224.71,562.41,224.71Z"/><path class="cls-10" d="M542.18,206a7.35,7.35,0,0,0-.72,2.86c0,1.37,2.91,1.94,3.9,1.94s27.7,1,27.7,1a1,1,0,0,0,.83-.95c0-.8-4.58-10.79-4.58-10.79Z"/><path class="cls-11" d="M543,214.51a4.25,4.25,0,1,1-4.25,4.25A4.25,4.25,0,0,1,543,214.51Z"/><path class="cls-11" d="M572.22,214.51a4.25,4.25,0,1,1-4.25,4.25A4.25,4.25,0,0,1,572.22,214.51Z"/><path class="cls-14" d="M557.67,192h0a14.61,14.61,0,0,1,14.57,14.57v13.23a14.61,14.61,0,0,1-14.57,14.57h0a14.61,14.61,0,0,1-14.56-14.57V206.53A14.61,14.61,0,0,1,557.67,192Z"/><path class="cls-10" d="M570.57,206.31v4.57c0,1.79.33,2.32,1.22,3,0,0-.55,1.74.45,2.14a1.64,1.64,0,0,1,.78-1.35V203.56a6.14,6.14,0,0,1-2.56,1.73A4.69,4.69,0,0,1,570.57,206.31Z"/><path class="cls-10" d="M544.88,205.54v3.3c0,1.29-.23,1.67-.88,2.15,0,0-.16,1.1-.88,1.39l-.65-8.65a7.23,7.23,0,0,0,2.49,1.08A3.4,3.4,0,0,0,544.88,205.54Z"/><path class="cls-10" d="M573.89,210.86a12.09,12.09,0,0,0-3.33-2.72h0l-.07,0-.4-.22a8.61,8.61,0,0,1-3.44-3.39c-1.21.84-6.19.71-8.06.63l-.64,0h-.08c-8.32-.33-16.38,1.69-16.42,3.8-7.21-15.16,10.82-29.76,26.86-13.19C576.8,196.1,576.05,204.8,573.89,210.86Z"/><rect class="cls-20" x="933.61" y="725.75" width="149.18" height="13.68"/><path class="cls-2" d="M952,726.94a3,3,0,1,0,0-5.91H846.6a11.51,11.51,0,0,0-8.15,3.39h0a11.56,11.56,0,0,0,8.16,19.71H952a3,3,0,1,0,0-5.91h-4.82a19.31,19.31,0,0,1-2.33-2c-1.35-1.42-2.33-3-2.17-4.67a7.2,7.2,0,0,1,2.79-4.61Z"/><path class="cls-21" d="M1082.78,726.94a3,3,0,1,0,0-5.91H950.62a11.52,11.52,0,0,0-8.16,3.39h0a11.56,11.56,0,0,0,8.17,19.71h132.16a3,3,0,1,0,0-5.91H950.62a5.67,5.67,0,0,1-5.65-5.64,5.63,5.63,0,0,1,5.65-5.65Z"/><rect class="cls-22" x="851.23" y="699.59" width="125.07" height="16.6"/><path class="cls-5" d="M954,701a3.59,3.59,0,1,1,0-7.17h97.11A14,14,0,0,1,1061,698v0a14,14,0,0,1-9.91,23.91H954a3.59,3.59,0,1,1,0-7.17h5.85a22.51,22.51,0,0,0,2.82-2.45c1.65-1.71,2.83-3.67,2.64-5.65a8.7,8.7,0,0,0-3.38-5.6Z"/><path class="cls-9" d="M851.23,701a3.59,3.59,0,1,1,0-7.17H955.67a14,14,0,0,1,9.89,4.11v0a14,14,0,0,1-9.9,23.91H851.23a3.59,3.59,0,1,1,0-7.17H955.67a6.85,6.85,0,0,0,0-13.7Z"/><rect class="cls-22" x="944.23" y="671.03" width="81.16" height="16.98"/><path class="cls-10" d="M967.05,672.51a3.67,3.67,0,0,0,0-7.34H907.21a14.32,14.32,0,0,0-10.12,4.21h0a14.36,14.36,0,0,0,10.14,24.48h59.84a3.67,3.67,0,0,0,0-7.34h-6a23.54,23.54,0,0,1-2.88-2.51c-1.69-1.75-2.9-3.76-2.7-5.79a8.9,8.9,0,0,1,3.46-5.72Z"/><path class="cls-23" d="M1025.39,672.51a3.67,3.67,0,1,0,0-7.34h-60a14.35,14.35,0,0,0-10.13,4.21h0a14.36,14.36,0,0,0,10.14,24.48h60a3.67,3.67,0,1,0,0-7.34h-60a7,7,0,0,1-7-7,7,7,0,0,1,7-7Z"/><path class="cls-5" d="M684.69,84.29h62a5.8,5.8,0,0,1,3.71,1.35,1.63,1.63,0,0,1,.72.56,1.75,1.75,0,0,1,.26.46,5.83,5.83,0,0,1,1.16,3.49v36.44a5.85,5.85,0,0,1-1.72,4.13h0a5.83,5.83,0,0,1-4.13,1.72h-62a5.86,5.86,0,0,1-5.85-5.85V90.15a5.84,5.84,0,0,1,1.16-3.5,2,2,0,0,1,.25-.45,1.71,1.71,0,0,1,.73-.56,5.8,5.8,0,0,1,3.71-1.35Zm62.8,44.45L722.92,110l-6.13,4.68h0a.71.71,0,0,1-.14.1h0l0,0h0l0,0h0l0,0h0l0,0h0l0,0h0l0,0h0l-.21.07h0l-.21,0h-.47l-.21,0h0l-.2-.07h0l0,0h0l0,0h0l0,0h0l0,0h0l0,0h0l0,0h0l-.15-.1h0L708.46,110l-24.57,18.77a2.37,2.37,0,0,0,.8.15h62a2.46,2.46,0,0,0,.8-.15ZM725.11,108.3,749,126.53V90.06L725.11,108.3Zm-42.72,18.23,23.87-18.23L682.4,90.06v36.47Zm33.3-15.5L746,87.85H685.35Z"/><path class="cls-24" d="M122.91,272a36.43,36.43,0,0,1,5.61-12.14,20,20,0,0,1,3.87-4.1,2.45,2.45,0,0,1,1.36-.53h0a2.45,2.45,0,0,1,1.41.33,24.11,24.11,0,0,1,5.42,4.32,18.74,18.74,0,0,1,3.54,5.39,16.2,16.2,0,0,1,1.33,6.35,12.21,12.21,0,0,1-1.37,5.92h0l-21.38,37.05a12.18,12.18,0,0,1-4.45,4.2A16.08,16.08,0,0,1,112,320.8a18.65,18.65,0,0,1-6.4-.36,23.89,23.89,0,0,1-6.38-2.5,2.44,2.44,0,0,1-1-1h0a2.4,2.4,0,0,1-.3-1.38h0a22.11,22.11,0,0,1,3.06-8.39,38.84,38.84,0,0,1,6.25-8.07,2.47,2.47,0,0,1,1.39-.72,2.39,2.39,0,0,1,1.6.29c.11.06,5.89,3.37,7.34.94l11-19c.61-1.05-.24-2.35-1.28-3.43a16.49,16.49,0,0,0-3.16-2.46,2.46,2.46,0,0,1-1-1.15,2.4,2.4,0,0,1-.13-1.61Zm7.85-10.5a33.29,33.29,0,0,0-5.1,11,19.69,19.69,0,0,1,3.57,2.82c1.79,1.84,3.13,4.26,1.69,6.75l-11,19c-2.6,4.37-9.59.88-10.9.18a36.17,36.17,0,0,0-5.66,7.35,20.52,20.52,0,0,0-2.68,7,21.06,21.06,0,0,0,5.52,2.14,16,16,0,0,0,5.48.32,13.6,13.6,0,0,0,5.15-1.69,9.4,9.4,0,0,0,3.43-3.2l21.39-37h0a9.44,9.44,0,0,0,1-4.56,13.57,13.57,0,0,0-1.11-5.27,16.08,16.08,0,0,0-3-4.59,21.09,21.09,0,0,0-4.62-3.7A18.06,18.06,0,0,0,130.76,261.45Z"/><path class="cls-3" d="M528.12,428.4a2,2,0,1,0-4,0v4.68h-4.69a2,2,0,1,0,0,4h4.69v4.7a2,2,0,0,0,4,0v-4.7h4.69a2,2,0,0,0,0-4h-4.69Z"/><path class="cls-3" d="M306.78,457.76a2,2,0,1,0-4,0v4.69H298.1a2,2,0,0,0,0,4h4.69v4.69a2,2,0,0,0,4,0v-4.69h4.69a2,2,0,0,0,0-4h-4.69Z"/><path class="cls-3" d="M530.37,64.77a2,2,0,1,0-4,0v4.69H521.7a2,2,0,1,0,0,4h4.69v4.69a2,2,0,1,0,4,0V73.45h4.7a2,2,0,0,0,0-4h-4.7Z"/><path class="cls-3" d="M221,249.26a2,2,0,0,0-4,0V254h-4.69a2,2,0,1,0,0,4H217v4.69a2,2,0,1,0,4,0v-4.69h4.69a2,2,0,0,0,0-4H221Z"/><path class="cls-3" d="M189.34,52.77a2,2,0,0,0-4,0v4.69h-4.69a2,2,0,1,0,0,4h4.69v4.69a2,2,0,0,0,4,0V61.45H194a2,2,0,0,0,0-4h-4.69Z"/><path class="cls-3" d="M83.19,436.72a2,2,0,0,0-4,0v4.69H74.51a2,2,0,1,0,0,4H79.2v4.69a2,2,0,1,0,4,0V445.4h4.69a2,2,0,0,0,0-4H83.19Z"/><path class="cls-2" d="M580,356a2,2,0,0,0-4,0v4.69h-4.69a2,2,0,0,0,0,4H576v4.69a2,2,0,1,0,4,0v-4.69h4.69a2,2,0,1,0,0-4H580Z"/><path class="cls-2" d="M435.43,209.23a2,2,0,1,0-4,0v4.69h-4.69a2,2,0,1,0,0,4h4.69v4.69a2,2,0,0,0,4,0v-4.69h4.69a2,2,0,0,0,0-4h-4.69Z"/><path class="cls-2" d="M697.42,240.85a2,2,0,1,0-4,0v4.69h-4.69a2,2,0,1,0,0,4h4.69v4.69a2,2,0,0,0,4,0v-4.69h4.69a2,2,0,0,0,0-4h-4.69Z"/><path class="cls-2" d="M826.15,647.38a2,2,0,0,0-4,0v4.69h-4.69a2,2,0,0,0,0,4h4.69v4.69a2,2,0,1,0,4,0v-4.69h4.69a2,2,0,1,0,0-4h-4.69Z"/><path class="cls-7" d="M807.25,397.53l2.73,17.6-7.59,28.35C791,485.89,807.07,535,771.77,569.33c-36.33,35.36-101.08-77.44-101.08-77.44s-6.13-43.57,8-77.47,20.5-54,23.64-53.15S807.25,397.53,807.25,397.53Z"/><path class="cls-16" d="M805.47,432l-3.08,11.51C791,485.89,807.07,535,771.77,569.33a27,27,0,0,1-3.1,2.6c-58.56,7.51-59.7-58.88-30.92-53.76,31.6,5.63,39-21.84,40.6-37.53A287.1,287.1,0,0,1,784,447.83L777.57,422S789.76,426.16,805.47,432Z"/><path class="cls-25" d="M625.87,447s7.31-3.32,8.3-11.62,18.21-6.07,19.07-3.75,3.07,5.3,3.07,9.62,2.34,5.39,2.34,5.39c-10.88,8.37-13.23,1.76-24.81,13.2C630.08,463.52,627.31,452.06,625.87,447Z"/><path class="cls-2" d="M696.2,515.24l-10.14-11.62s-51.9,23.91-80.67,17.27,29.32-57,33.2-62.41-4.87-7.2-7.52-10.62-3.74-8-6.29-7.16-62.76,53.41-60.55,95S671.46,571.1,681.05,564.5,696.2,515.24,696.2,515.24Z"/><path class="cls-26" d="M696.2,515.24s-5.56,42.66-15.15,49.26-114.61,12.83-116.82-28.78c11.22,21.66,48.74,23.21,71.18,10.44,12.21-6.94,19.37-20.87,23.37-32.13a269.53,269.53,0,0,0,27.28-10.41l10.14,11.62Zm-57.61-56.76c3.88-5.41-4.87-7.2-7.52-10.62s-3.74-8-6.29-7.16c-.56.2-4,3-9,7.68,3.06,3.47,6,8.53,5,14.61-1.94,11.8-27,37.31-23.19,51h0C595.16,498.12,635.38,462.94,638.59,458.48Z"/><path class="cls-27" d="M623.48,438.86a55.58,55.58,0,0,0-5.29,4.49c-1.16,1.36,2.9,7.93,6.87,13.45s7.83,8.12,8.89,8.31,3.68-2.8,3.68-2.8Z"/><path class="cls-10" d="M665,363.82c-1.86,1-51.71,54.5-54.72,57.52s-2.06,5.33,2.67,12.06,14.49,20.34,16.89,24.45c1.86,3.19,5.76,6.37,8.62,6.13.82-.06,6.59.26,7.17-.44,2.6-3.16,47-55.11,47.79-56.46s2.6-5.16-2.51-11.68c-4.88-6.22-7-10-19.31-27.84-.65-.94,3-4,1.81-4.42C671,362.32,666.48,363,665,363.82Z"/><path class="cls-7" d="M671.44,363.5c-1.86,1-51.71,54.5-54.71,57.52s-2.06,5.33,2.67,12.06,14.49,20.33,16.89,24.44,8.15,8.18,10.75,5,52.06-54.45,52.83-55.8,2.6-5.15-2.51-11.67c-4.88-6.22-7-10.05-19.31-27.85C676.6,365.13,674.23,362,671.44,363.5Z"/><path class="cls-7" d="M647.55,462c5.84-6.47,51.58-53.92,52.32-55.22s2.6-5.15-2.51-11.67c-4.88-6.22-7-10.05-19.31-27.85a17.5,17.5,0,0,0-2.11-2.61c-9.32,9.26-50.17,53.09-52.89,55.81-3,3-2,5.33,2.68,12.06s14.48,20.34,16.88,24.45A15.22,15.22,0,0,0,647.55,462Z"/><path class="cls-10" d="M635.4,436.8a3.11,3.11,0,0,0-4.86-.28,4.51,4.51,0,0,0-.8,5.62,3.1,3.1,0,0,0,4.85.28A4.5,4.5,0,0,0,635.4,436.8Z"/><path class="cls-10" d="M689.19,395.13c-.14-.14-5.5-8-5.73-8.37s-.15-.47.21-.84,1.13-1.13,1.32-1.37.63-.38.83-.06,5.53,8.05,5.59,8.17a.68.68,0,0,1-.2.83c-.38.33-.55.56-1.51,1.55C689.59,395.16,689.4,395.33,689.19,395.13Z"/><path class="cls-10" d="M682.05,384.73c-.14-.14-1.35-2-1.58-2.32s-.15-.47.22-.85,1.13-1.12,1.31-1.36.64-.38.84-.06,1.37,2,1.43,2.12a.66.66,0,0,1-.2.83c-.38.33-.55.56-1.51,1.55C682.45,384.76,682.26,384.93,682.05,384.73Z"/><path class="cls-12" d="M668.73,375.29c-1.43.77-37.41,39.36-39.74,41.69s-1.59,4.12,2.07,9.32,11.19,15.71,13,18.89,6.31,6.32,8.31,3.88,37.7-39.31,38.29-40.36,2-4-1.94-9c-3.77-4.8-5.38-7.76-14.92-21.51C672.72,376.55,670.89,374.14,668.73,375.29Z"/><path class="cls-2" d="M632.14,422.58a1.22,1.22,0,0,1,.11-1.27.72.72,0,0,1,.46-.24.48.48,0,0,1,.42.19c.22.26.3.77.06,1.61l0,.14a1.7,1.7,0,0,1-1,.37.14.14,0,0,0-.14.14.14.14,0,0,0,.14.14,1.73,1.73,0,0,0,.93-.26c-.22,1.07,0,1.55.42,1.66a1.27,1.27,0,0,0,1-.3,2.25,2.25,0,0,0,.76-.95.87.87,0,0,0-.55-1.25,1.18,1.18,0,0,0-1.21.18,1.85,1.85,0,0,0-.16-1.65.77.77,0,0,0-.66-.3,1,1,0,0,0-.65.33,1.5,1.5,0,0,0-.16,1.55.13.13,0,0,0,.18.08.13.13,0,0,0,.08-.17Zm12.6,17.69a2.08,2.08,0,0,1-.2-2.18,1.51,1.51,0,0,1,.37-.42,1,1,0,0,1,.43-.17.71.71,0,0,1,.7.42l.32.63c.55,1.09,1.27,2.53,2.4,3.11l0,1.06c0,.13-.22.29-.5.39a1.29,1.29,0,0,1-.4.07,1.1,1.1,0,0,1-.4-.08c-.32-.15-.57-.53-.57-1.28,0-.23,0-.44,0-.65s0-.4,0-.62a.14.14,0,1,0-.28,0c0,.22,0,.42,0,.63s0,.41,0,.64c0,.89.33,1.34.74,1.53a1.3,1.3,0,0,0,.51.11,1.58,1.58,0,0,0,.49-.09c.39-.13.69-.41.69-.66l0-.92a2.21,2.21,0,0,0,1.1.11h0a.3.3,0,0,0,.11,0,2.37,2.37,0,0,0,.69-1,3.27,3.27,0,0,0,.29-1.68h0a1.67,1.67,0,0,0-.23-.68,2,2,0,0,0-.58-.64,1,1,0,0,0-.39-.17.43.43,0,0,0-.39.11.46.46,0,0,0-.14.24h0c-.15.47-.27.81-.36,1.08a6.34,6.34,0,0,0-.34,1.16h0a6,6,0,0,0,0,1,7,7,0,0,1-2.14-2.91c-.12-.24-.24-.46-.33-.63a.94.94,0,0,0-1-.57h0a1.14,1.14,0,0,0-.56.23,1.57,1.57,0,0,0-.45.5,2.35,2.35,0,0,0,.2,2.47.14.14,0,0,0,.19.05.15.15,0,0,0,0-.2Zm4.29,1.21a7.09,7.09,0,0,1,0-1.12h0a5.7,5.7,0,0,1,.32-1.11c.1-.28.22-.64.37-1.08h0a.27.27,0,0,1,.07-.12.17.17,0,0,1,.16,0,.58.58,0,0,1,.27.12,1.61,1.61,0,0,1,.5.54,1.77,1.77,0,0,1,.19.59h0a2.89,2.89,0,0,1-.27,1.52,2.1,2.1,0,0,1-.57.85h0a1.91,1.91,0,0,1-1.07-.14Zm0-1.12a.13.13,0,0,1-.15.11l.15-.11Zm-9-10.79,0,0-.4.34-.13-.15a.13.13,0,0,0-.18-.06.15.15,0,0,0-.07.19l.18.21c-.15.14-.31.29-.46.45-.45.47-.82,1-.62,1.23l.38.46a7.9,7.9,0,0,1,1.4,2,.14.14,0,0,0,.28,0c.22-.31.73-1.12,1.15-1.78a1.87,1.87,0,0,0,.27.22l.07,0h0a.16.16,0,0,0,.1,0,3.22,3.22,0,0,0,.51-1.26l.06-.19v0h0a17.85,17.85,0,0,0,.37-1.75l-.28,0a14.43,14.43,0,0,1-.33,1.61c-.21,0-.24,0-.32.19l-.06.1-.44.69-.32-.36c-.48-.51-1-1.15-1.38-1.54l.4-.34,0,0a.14.14,0,0,0,0-.19.13.13,0,0,0-.2,0Zm-.45.76c.35.41.9,1.05,1.37,1.55l.38.41c-.4.64-.84,1.42-1,1.71a10.6,10.6,0,0,0-1.39-1.92l-.37-.45c-.08-.11.24-.49.6-.87.14-.15.3-.3.44-.43Zm2.63,1.09a8.7,8.7,0,0,1-.33,1l-.2-.19.47-.74.06-.09Zm-3.43-2.17,4.15-.63h0c-.12-.26-1.45,0-2.61.15a11.18,11.18,0,0,1-1.53.21.14.14,0,0,0-.14.14.14.14,0,0,0,.14.14Zm1.58-.21a13.81,13.81,0,0,1-1.58.21l1.58-.21Zm2.31-.31-2.31.31a14.49,14.49,0,0,1,2.31-.31Zm0,0h0Zm0,.72,0-.72a1.89,1.89,0,0,1,0,.72Zm-9.19-6.34c.34-.26.65-.49,1.13-.3a.62.62,0,0,1,.4.89,2,2,0,0,1-.67.83,1,1,0,0,1-.78.25c-.3-.08-.44-.53-.16-1.62Z"/><path class="cls-7" d="M788.61,758.11c-1.85-28-20.49-49.48-25.16-56S759,692,759,692a8,8,0,0,0-6,.11c-15.23-13.72-91.73-14.19-92.5-11.14-3.25,13.05-12.24,40.62-15,74.92C693.19,756.85,740.9,757.75,788.61,758.11Z"/><path class="cls-10" d="M811.25,538.74C793.4,513,785,510.85,771.52,506.8l-69.93-6.72c-21.72,1.39-31.17,13.79-39.2,28.87-16.75,31.5-35.79,51.71-9.61,87,.53.73,4.08,57.5,3.84,63.28-1.41,32.9,105.17,23.74,105.68,8.12C764.82,609.1,801.84,610.14,811.25,538.74Z"/><path class="cls-7" d="M794.06,518.1c-7.86-7-14.24-8.81-22.54-11.3l-32-3.08c-8.42,9.08-13.35,18.37-7.05,21.4,15.78,7.58,27.93,24.14,18.65,50.44s-25.15,35.21-36,35.21-44.1-1.94-58-5.81c-13.56-3.76-16.9-18.13-17.07-18.88.72,9,4.47,18.69,12.78,29.89,4.22,6.17,26,10.27,52.65,10.27s35.2,22.44,33.27,53.52a41.18,41.18,0,0,1-6.43,20.06c16.84-2.37,29.85-7,30-12.45,2.49-77.16,38.5-77.25,48.54-145.65C805.24,533.78,799.39,525.67,794.06,518.1Z"/><path class="cls-28" d="M745.84,449l-.57,13.34v31.49c0,4.15,6.59,11.67,18.66,12.23,5.79.27-4.69,5-17.85,12.51-27.9,16-53.71,27.55-53.87-7.33,0-5.09,1.7-9.2,5-10.73,4.38-2,3.87.25,8.33-4.61s4.36-27.2-.21-33S745.84,449,745.84,449Z"/><path class="cls-2" d="M713.59,757.16q22.78.39,45.57.66l34.78-15.75S737,694.8,787.71,604.48c8.59-20.27,34.06-40.42,25.77-60.83-8.93-22-25.21-35.64-55.46-39.89,0,0-48.31,24-60.34,83.65S709,742.07,709,742.07Z"/><path class="cls-26" d="M758.49,721.76c-1.41,14.16-5.64,26.49-14.66,35.87l15.33.19,34.78-15.75S737,694.8,787.71,604.48c4.12-9.73,12.13-19.43,18.43-29.15-8.2-15.18-13.58-25-13.58-25l-7.31-6.73s-10.35,7.12-14,33-38.72,38.22-76.44,33.29c-.33,4.83-.5,9.75-.55,14.74l15.17,1.79C758.94,628,762.35,683.12,758.49,721.76Z"/><path class="cls-29" d="M758,503.76s-48.31,24-60.34,83.65C688.08,635,701,705,706.58,731.47,691,628.09,727.43,588.17,726.39,586.34s-13.6-8.37-11.25-10.21,26.94-7.32,28-10.72,1.7-24.72,7.06-41.2c5.31-16.3,15-19.12,15.18-19.18Q761.85,504.3,758,503.76Z"/><path class="cls-2" d="M797.14,531.27s3.49-7.47,12.7,5.45,51.26,137.56,50.43,152.51S809.59,737.7,793,748.9c0,0-1.86,1.14-2.9-1.55s-6.13-9.24-10-11.53c-4.73-2.81,10.32-11.17,13-12.75,11.56-6.72,30.54-25.52,34.54-39.76,5.19-18.47-41.14-71.61-46.12-84.06S769.94,550.68,797.14,531.27Z"/><path class="cls-26" d="M859.61,692.11c-10.23,17.1-36.39,29.69-47,30.07-4.49.16-9-1.63-12.67-3.76a63.33,63.33,0,0,1-6.77,4.65c-2.72,1.58-17.77,9.94-13,12.75,3.84,2.29,8.93,8.83,10,11.53s2.9,1.55,2.9,1.55c15.62-10.53,60.59-40.79,66.63-56.79ZM785.89,556.8a96.55,96.55,0,0,1-.64-13.22c-12.89,19.72-7.74,45.53-3.68,55.67,4.57,11.43,44,57.17,46.4,78.87C827.16,648.47,789.7,590,785.89,556.8Z"/><path class="cls-30" d="M779.41,732.14s-.66-.83,1.32-3.08,6.71-5,10.38-7,12,1.35,16.44,6.87,3.58,8.22,2.81,9.38-6.29,4.93-6.29,4.93Z"/><path class="cls-31" d="M799.64,758.19A17.16,17.16,0,0,0,786,730.51h-8.72a17.25,17.25,0,0,0-17.2,17.2,17,17,0,0,0,3.37,10.16Q781.57,758.08,799.64,758.19Z"/><path class="cls-2" d="M652.85,660.2c.79,38.19-7.58,81.87-7.58,81.87s1.77,9.07,5.78,13.9l10.82.22c10.41-10.89,22.1-62.55,16.3-131.57-6.07-72.2,10.65-107.11,14.43-117.37,1.06-2.89,6.84-7.66,9.95-8.52-10.39,1-18.68,3.76-24.42,8.27s-21,25.33-30.44,41.7c-10.19,17.65-12,26.56-9.23,47.41C640.56,612.07,652.07,622,652.85,660.2Z"/><path class="cls-26" d="M647.58,624.19c-3.25-10.57-7.08-17.46-8.68-25.46,5.5,4,16.46,8.38,38.25,9.6l-.85,16S656.17,620.77,647.58,624.19Z"/><path class="cls-29" d="M692.6,507.25c-3.78,10.26-20.5,45.17-14.43,117.37a406.34,406.34,0,0,1,.25,67.77c.78-28.79-7.48-62.79-11.09-76.16-4.45-16.48-11.51-41.07-9.81-41.86s12,.66,11.38-.78-3.79-3.27-8-5.91-3.41-5.86-3.41-5.86c7.84-43.65,35.88-61.63,35.92-61.65a67.1,67.1,0,0,1,9.11-1.44C699.44,499.59,693.66,504.36,692.6,507.25Z"/><path class="cls-32" d="M792.53,416.33a16.31,16.31,0,1,1-20,11.49A16.3,16.3,0,0,1,792.53,416.33Z"/><path class="cls-33" d="M755.88,331h0A52.9,52.9,0,0,1,793,395.67l-12.51,46.27a52.9,52.9,0,0,1-64.67,37.16h0a52.89,52.89,0,0,1-37.16-64.67l12.51-46.27A52.9,52.9,0,0,1,755.88,331Z"/><path class="cls-34" d="M784.71,350.9A52.74,52.74,0,0,1,793,395.67l-12.51,46.27a52.9,52.9,0,0,1-62.89,37.6c52,8.52,57.89-57.65,57.89-57.65-9.67-2.8-6.6-17.63-13.66-34.11s-25.38-18.31-25.38-18.31C747.33,355.55,766,350.82,784.71,350.9Z"/><path class="cls-7" d="M699.38,386.92l13.47,3.64a2.68,2.68,0,0,1,1.89,3.29h0a2.69,2.69,0,0,1-3.29,1.89L698,392.1a2.7,2.7,0,0,1-1.89-3.29h0A2.69,2.69,0,0,1,699.38,386.92Z"/><path class="cls-7" d="M784.4,427.65s-5.72-7-2.78-13.91,6.86-3.13,6.86-3.13l-.76,4.74Z"/><path class="cls-7" d="M751,400.87l13.47,3.64a2.68,2.68,0,0,1,1.89,3.29h0a2.69,2.69,0,0,1-3.29,1.89l-13.47-3.64a2.7,2.7,0,0,1-1.89-3.29h0A2.69,2.69,0,0,1,751,400.87Z"/><path class="cls-32" d="M694.71,418.62a7.3,7.3,0,1,1-9,5.14A7.3,7.3,0,0,1,694.71,418.62Z"/><path class="cls-32" d="M752.53,434.25c9.27,2.51,5.46,16.6-3.81,14.09a7.3,7.3,0,0,1,3.81-14.09Z"/><path class="cls-7" d="M744.43,422.36a1.86,1.86,0,1,1-3.59-1,9,9,0,0,1,17.29,4.67,1.86,1.86,0,0,1-3.59-1,5.25,5.25,0,0,0-7.66-5.92A5.3,5.3,0,0,0,744.43,422.36Z"/><path class="cls-7" d="M697.58,409.7a1.86,1.86,0,0,1-3.59-1,9,9,0,1,1,17.29,4.67,1.85,1.85,0,1,1-3.58-1,5.24,5.24,0,1,0-10.12-2.73Z"/><path class="cls-25" d="M712.66,439.73a2.24,2.24,0,0,0-4.25-1.44,10.81,10.81,0,0,0,20.48,6.93,2.24,2.24,0,0,0-4.25-1.43,6.32,6.32,0,1,1-12-4.06Z"/><path class="cls-10" d="M679.51,388.33s49.41,16,78.81-21.18c18.25,16.48,9.3,49.65,26.74,48.93a16.63,16.63,0,0,1,2.54-.31h0A16.31,16.31,0,0,1,804,436.33l.22.07,11.49-42.54a66.66,66.66,0,0,0-46.82-81.51h0a66.65,66.65,0,0,0-81.51,46.83Z"/><path class="cls-12" d="M816.94,388.48c.18-.93.33-1.87.46-2.8-12.94-4-53.84-20.84-59.07-75.28a66,66,0,0,0-23.83,1.93C743.65,338.4,766.15,380.91,816.94,388.48Z"/><path class="cls-16" d="M767.23,380.5c6.62,16.55,4.39,36.13,17.83,35.58a16.47,16.47,0,0,1,2.54-.31h0A16.31,16.31,0,0,1,804,436.33l.22.07,9.66-35.78c-21.79,17.2-46.67-20.12-46.67-20.12Z"/><path class="cls-10" d="M679.51,388.33c-10.43,38.94-38.8,98.52-12.73,128.89,16.84,19.61,30.16-8.71,21-29.88-8-18.32-17.58-53.25,2.78-101C704.84,352.76,687.33,359.16,679.51,388.33Z"/><path class="cls-7" d="M1265,761.36H169.11a8.8,8.8,0,0,1-8.78-8.78h0a8.81,8.81,0,0,1,8.78-8.79H1265a8.81,8.81,0,0,1,8.78,8.79h0A8.8,8.8,0,0,1,1265,761.36Z"/><path class="cls-7" d="M88.37,761.36h38.9a8.8,8.8,0,0,0,8.78-8.78h0a8.81,8.81,0,0,0-8.78-8.79H88.37a8.81,8.81,0,0,0-8.78,8.79h0A8.8,8.8,0,0,0,88.37,761.36Z"/><path class="cls-7" d="M423.18,752.41q38.16.08,76.32.65c-2.44-41.83-13.56-75.73-17.45-91.29-.85-3.44-87.07-2.91-104.23,12.55a9,9,0,0,0-6.72-.13s.36,4-5,11.46-27.19,32.61-28.48,65.11c0,.62-.06,1.4-.09,2.29Q380.34,752.27,423.18,752.41Z"/><rect class="cls-35" x="337.72" y="661.42" width="16.16" height="19.92"/><path class="cls-36" d="M346.06,665.54a3.65,3.65,0,0,1,3.64,3.64v4.68h4.18v-11H340c-.8,0-1.56,0-2.28.11v2.57Z"/><rect class="cls-35" x="297.32" y="661.42" width="16.16" height="19.92"/><path class="cls-9" d="M287.19,723.33h76.27a2.43,2.43,0,0,0,2.45-2.93l-7.15-43.61a3.6,3.6,0,0,0-3.41-2.93H295.3a3.61,3.61,0,0,0-3.41,2.93l-7.15,43.61A2.43,2.43,0,0,0,287.19,723.33Z"/><path class="cls-10" d="M325.6,720.65h40.59a7.49,7.49,0,0,1,5.05,2.88l5.85,7.75h-103l5.85-7.75a7.49,7.49,0,0,1,5.06-2.88Z"/><path class="cls-37" d="M352.45,678.59l.45,2.75,6.45,39.31h6.59a1.13,1.13,0,0,0,0-.25l-7.15-43.61a3.6,3.6,0,0,0-3.41-2.93H295.3a3.58,3.58,0,0,0-3,1.8H349a3.6,3.6,0,0,1,3.41,2.93Zm-25.19-.35a20.35,20.35,0,1,1-20.34,20.35A20.35,20.35,0,0,1,327.26,678.24Z"/><rect class="cls-38" x="273.58" y="730.06" width="104.03" height="13.84" rx="2.88"/><circle class="cls-18" cx="325.39" cy="697.17" r="20.34"/><path class="cls-19" d="M325.39,707a9.86,9.86,0,1,0-9.85-9.85A9.87,9.87,0,0,0,325.39,707Z"/><path class="cls-39" d="M335.23,696.51c0,.22,0,.44,0,.66a9.86,9.86,0,0,1-.54,3.23h-9.32a1.95,1.95,0,0,1,0-3.89Z"/><path class="cls-39" d="M325.39,692.44a4.73,4.73,0,1,1-4.72,4.73A4.73,4.73,0,0,1,325.39,692.44Z"/><path class="cls-40" d="M325.39,684.2a2.18,2.18,0,1,0-2.18-2.18A2.19,2.19,0,0,0,325.39,684.2Z"/><path class="cls-40" d="M337.65,684.92a2.18,2.18,0,1,1-3.09,0A2.18,2.18,0,0,1,337.65,684.92Z"/><path class="cls-40" d="M337.65,709.42a2.18,2.18,0,1,1,0-3.08A2.19,2.19,0,0,1,337.65,709.42Z"/><path class="cls-40" d="M325.39,714.5a2.19,2.19,0,1,1,2.19-2.18A2.19,2.19,0,0,1,325.39,714.5Z"/><path class="cls-40" d="M313.14,709.42a2.18,2.18,0,1,1,3.09,0A2.18,2.18,0,0,1,313.14,709.42Z"/><path class="cls-40" d="M308.07,697.17a2.18,2.18,0,1,1,2.18,2.18A2.18,2.18,0,0,1,308.07,697.17Z"/><path class="cls-40" d="M313.14,684.92a2.18,2.18,0,1,1,0,3.08A2.17,2.17,0,0,1,313.14,684.92Z"/><path class="cls-10" d="M325.39,699.11a1.94,1.94,0,1,1,0-3.88h15.15a1.94,1.94,0,1,1,0,3.88Z"/><path class="cls-23" d="M351.06,662.86c10.64,0,14.24,6.92,14.24,12.39l1.78,3.08h22.61l1.53-1.68v-7.5c0-2.8.54-19.21-24.77-19.21H284.2c-25.31,0-24.77,16.41-24.77,19.21v7.5l1.53,1.68h22.61l1.78-3.08c0-5.47,3.61-12.39,14.25-12.39h51.46Z"/><path class="cls-2" d="M286.06,675.25H258a2,2,0,0,0-1.78,2.12v10.46A2,2,0,0,0,258,690h28.06a2,2,0,0,0,1.79-2.12V677.37A2,2,0,0,0,286.06,675.25Z"/><path class="cls-36" d="M305.65,665.54a3.65,3.65,0,0,1,3.64,3.64v4.68h4.19v-11H299.6c-.8,0-1.56,0-2.28.11v2.57Z"/><path class="cls-10" d="M373.88,736.65a2.89,2.89,0,0,1-2.88,2.88H273.58V741a2.85,2.85,0,0,0,.36,1.39H377.26a2.85,2.85,0,0,0,.36-1.39v-8.09a2.9,2.9,0,0,0-.53-1.66h0l-.1-.13a2.88,2.88,0,0,0-2.25-1.09h-.86v6.59Z"/><path class="cls-10" d="M325.33,662.86h25.73a20.9,20.9,0,0,1,2.82.18c8.47,1.12,11.42,7.26,11.42,12.21h7.2l-.1-.16c0-6.23-4.1-14.11-16.21-14.11H297.61c-12.12,0-16.22,7.88-16.22,14.11l-.1.16h4.06c0-5.06,3.09-11.36,12-12.28.72-.07,1.48-.11,2.28-.11h25.73Z"/><path class="cls-41" d="M261.2,677.41h17.24a1.1,1.1,0,0,1,1.1,1.1v5.41a1.1,1.1,0,0,1-1.1,1.1H261.2a1.09,1.09,0,0,1-1.09-1.09v-5.42A1.1,1.1,0,0,1,261.2,677.41Z"/><path class="cls-42" d="M284.51,676.7v8.6a2,2,0,0,1-1.78,2.12H256.22v.41A2,2,0,0,0,258,690h28.06a2,2,0,0,0,1.79-2.12V677.37a2,2,0,0,0-1.79-2.12h-1.55Z"/><path class="cls-2" d="M392.65,675.25H364.59a2,2,0,0,0-1.78,2.12v10.46a2,2,0,0,0,1.78,2.12h28.06a2,2,0,0,0,1.79-2.12V677.37A2,2,0,0,0,392.65,675.25Z"/><path class="cls-41" d="M367.79,677.41H385a1.09,1.09,0,0,1,1.09,1.09v5.42A1.1,1.1,0,0,1,385,685H367.79a1.1,1.1,0,0,1-1.1-1.1v-5.42A1.1,1.1,0,0,1,367.79,677.41Z"/><path class="cls-42" d="M391.1,676.7v8.6a2,2,0,0,1-1.78,2.12H362.81v.41a2,2,0,0,0,1.78,2.12h28.06a2,2,0,0,0,1.79-2.12V677.37a2,2,0,0,0-1.79-2.12H391.1Z"/><polygon class="cls-7" points="538.13 744.14 474.6 744.14 474.6 720.58 527.38 720.58 538.13 744.14"/><polygon class="cls-43" points="409.38 744.14 516.63 744.14 527.38 720.58 420.13 720.58 409.38 744.14"/><path class="cls-2" d="M426.46,729.62a2.58,2.58,0,0,0-1.74.74,5.87,5.87,0,0,0-1.45,2c-.82,1.81-.54,2.71.83,2.71a5.45,5.45,0,0,0,1.29-.17c.44-.12.89-.26,1.36-.42l-1,2.15a8.24,8.24,0,0,1-2.89.52q-2.13,0-2.7-1.23c-.38-.83-.22-2,.49-3.57a9.5,9.5,0,0,1,1.72-2.56,7.58,7.58,0,0,1,2.36-1.7,6.46,6.46,0,0,1,2.69-.59,5,5,0,0,1,2.61.66l-1.69,2a5.54,5.54,0,0,0-.85-.41,3.05,3.05,0,0,0-1.05-.16Zm7.78,7.44H437l1.2-9.43h-3.39l-7.36,9.43h2.79l1.28-1.76h3l-.35,1.76Zm.77-3.84h-2l2.11-3,.72-1.08q-.1.35-.27,1.17c-.11.54-.2,1-.26,1.32l-.3,1.55Zm4.08,3.84,4.29-9.39h2.53L442.56,735h3.62l-.94,2Zm8.71,0,4.29-9.39h2.53L451.28,735h3.61l-.94,2Zm18.65-7.44a2.61,2.61,0,0,0-1.75.74,6,6,0,0,0-1.44,2c-.82,1.81-.55,2.71.83,2.71a5.3,5.3,0,0,0,1.28-.17c.44-.12.9-.26,1.37-.42l-1,2.15a8.26,8.26,0,0,1-2.9.52c-1.42,0-2.31-.41-2.69-1.23s-.22-2,.49-3.57a9.06,9.06,0,0,1,1.72-2.56,7.54,7.54,0,0,1,2.35-1.7,6.54,6.54,0,0,1,2.7-.59,4.9,4.9,0,0,1,2.6.66l-1.68,2a5.64,5.64,0,0,0-.86-.41,3,3,0,0,0-1-.16Zm7.6,7.44L475,735h-3l.81-1.77h2.81l.93-2h-2.81l.67-1.47h3l.93-2h-5.58l-4.28,9.39Zm11.64,0h-3.33l-.41-6.62h-.06c-.39,1-.72,1.84-1,2.39L479,737.06h-2.24l4.28-9.39h3.31l.44,6.52h0c.37-.94.69-1.7.95-2.28l1.94-4.24H490l-4.28,9.39Zm7.23,0h-2.54l3.34-7.32h-2.3l.95-2.07h7.12l-.95,2.07h-2.29l-3.33,7.32Zm10.26,0,.94-2.07h-3l.81-1.77h2.82l.93-2h-2.82l.67-1.47h3l.93-2h-5.57l-4.29,9.39Zm6.8-3.42-1.56,3.42h-2.54l4.28-9.39h3.08c2.55,0,3.41.92,2.56,2.77a5.09,5.09,0,0,1-2.74,2.52l.87,4.1h-2.88l-.43-3.42Zm.87-1.91h.47a1.89,1.89,0,0,0,1.87-1.17c.3-.65,0-1-.86-1h-.51Z"/><path class="cls-9" d="M814.77,540.87c-19.07-19.42-33.25,5.24-31.27,30,1.79,22.37,20.25,96.56,18.73,132.82h9.46C829.3,658,838.28,564.8,814.77,540.87Z"/><path class="cls-4" d="M808,703.69c16-68-6.19-158.07-6.27-158.39a1.08,1.08,0,0,0-1.32-.8,1.09,1.09,0,0,0-.81,1.32c.08.31,22.32,90.47,6.17,157.87Z"/><path class="cls-26" d="M767.73,583.66c-20.1-10.65-25.16,12.58-17.33,31.8,6.14,15.06,32.12,58,44.1,88.23h12.16C806.22,661.45,790.52,595.73,767.73,583.66Z"/><path class="cls-4" d="M802.23,703.69c-8.18-55.11-43.6-113-43.74-113.21a.89.89,0,0,0-1.25-.31.91.91,0,0,0-.31,1.25c.13.22,35.29,57.69,43.47,112.27Z"/><path class="cls-5" d="M852.66,610.51c19.48-8.51,22.56,13.5,13.91,30.86-5.47,11-24.25,38-38.29,62.32H810C816.28,665.76,833.4,618.92,852.66,610.51Z"/><path class="cls-3" d="M816.56,703.69c14.52-45,44.1-86,44.23-86.18a.86.86,0,0,1,1.19-.2.87.87,0,0,1,.2,1.2c-.12.17-29.37,40.76-43.85,85.18Z"/><rect class="cls-18" x="781.14" y="693.29" width="63.27" height="20.3" rx="3.1"/><polygon class="cls-2" points="794.03 704.75 831.51 704.75 841.3 713.59 833.31 744.38 812.77 744.38 792.24 744.38 784.24 713.59 794.03 704.75"/><polygon class="cls-26" points="841.3 713.59 839.66 719.91 785.88 719.91 784.24 713.59 841.3 713.59"/><path class="cls-44" d="M759.38,698.67H553.75a22.31,22.31,0,0,1-22.25-22.25V545.75a22.32,22.32,0,0,1,22.25-22.25H759.38a22.32,22.32,0,0,1,22.24,22.25V676.42A22.31,22.31,0,0,1,759.38,698.67Z"/><path class="cls-23" d="M572.58,523.5h186.8a22.32,22.32,0,0,1,22.24,22.25V676.42c0,.16,0,.31,0,.47H594.82a22.32,22.32,0,0,1-22.25-22.25V524C572.57,523.81,572.58,523.66,572.58,523.5Z"/><rect class="cls-13" x="598.19" y="578.97" width="125.01" height="87.55" rx="11.12"/><path class="cls-2" d="M649.14,681.84H664a3.21,3.21,0,0,0,3.2-3.21V673a3.21,3.21,0,0,0-3.2-3.21H649.14a3.22,3.22,0,0,0-3.21,3.21v5.61A3.22,3.22,0,0,0,649.14,681.84Z"/><rect class="cls-38" x="639.06" y="604.21" width="34.99" height="61.95" rx="9.33"/><rect class="cls-13" x="629.5" y="650.77" width="54.11" height="95.8" rx="14.43"/><rect class="cls-38" x="641.98" y="664.2" width="33.29" height="23.25" rx="6.2"/><path class="cls-7" d="M587.47,746.57H725.65a8.09,8.09,0,0,0,8.07-8.07h0a8.09,8.09,0,0,0-8.07-8.06H587.47a8.09,8.09,0,0,0-8.07,8.06h0A8.09,8.09,0,0,0,587.47,746.57Z"/><path class="cls-10" d="M546.17,545.75V676.42a22.3,22.3,0,0,0,22.24,22.25H553.75a22.31,22.31,0,0,1-22.25-22.25V545.75a22.33,22.33,0,0,1,22.25-22.25h14.66A22.31,22.31,0,0,0,546.17,545.75Z"/><path class="cls-45" d="M635.9,665.2v65.24h-6.4V665.2a14.47,14.47,0,0,1,14.43-14.43h6.4A14.47,14.47,0,0,0,635.9,665.2Z"/><path class="cls-46" d="M652.75,610.59H664.5a3.48,3.48,0,0,1,3.48,3.48v6.1a3.49,3.49,0,0,1-3.49,3.49H652.76a3.49,3.49,0,0,1-3.49-3.49v-6.1A3.49,3.49,0,0,1,652.75,610.59Z"/><path class="cls-38" d="M651.07,632.69h15.11a1.81,1.81,0,0,1,1.81,1.81v0a1.81,1.81,0,0,1-1.81,1.81H651.07a1.81,1.81,0,0,1-1.81-1.81v0a1.8,1.8,0,0,1,1.8-1.8Z"/><path class="cls-47" d="M643.54,605.58v32.08a9.36,9.36,0,0,0,9.34,9.34h16.33a9.25,9.25,0,0,0,4.85-1.37v6a14.33,14.33,0,0,0-4.87-.85H643.94a14.39,14.39,0,0,0-4.88.85V613.55A9.37,9.37,0,0,1,643.54,605.58Z"/><path class="cls-7" d="M664.08,632.69a.71.71,0,0,0-.71-.71.7.7,0,0,0-.7.71v50.17c0,18.11-.1,71.9,60.17,71.9a.71.71,0,0,0,0-1.41c-58.86,0-58.79-52.73-58.77-70.49Z"/><path class="cls-7" d="M654.34,632.69a.71.71,0,1,0-1.41,0V751.25a.71.71,0,1,0,1.41,0Z"/><path class="cls-45" d="M651.07,630h.8v2.67a1.77,1.77,0,0,0,3.53,0V630h6.21v2.67a1.77,1.77,0,0,0,3.53,0V630h1a1.82,1.82,0,0,0,1.81-1.81h0a1.81,1.81,0,0,0-1.81-1.81H651.07a1.81,1.81,0,0,0-1.8,1.81h0A1.81,1.81,0,0,0,651.07,630Z"/><path class="cls-48" d="M757,537.21H651.78a9,9,0,0,0-9,9h0a9,9,0,0,0,9,9H757a9,9,0,0,0,9-9h0A9,9,0,0,0,757,537.21Z"/><path class="cls-48" d="M626.17,537.21h0a8.89,8.89,0,0,1,8.86,8.87v.31a8.89,8.89,0,0,1-8.86,8.87h0a8.89,8.89,0,0,1-8.87-8.87v-.31A8.89,8.89,0,0,1,626.17,537.21Z"/><path class="cls-7" d="M391.16,370.05h0a5.34,5.34,0,0,1,5.32,5.34v6.95a5.34,5.34,0,0,1-5.32,5.34h0a5.35,5.35,0,0,1-5.33-5.34v-6.95A5.35,5.35,0,0,1,391.16,370.05Z"/><rect class="cls-49" x="446.69" y="370.05" width="10.66" height="17.62" rx="5.33"/><path class="cls-32" d="M387.68,391.09A7.89,7.89,0,1,1,379.8,399,7.89,7.89,0,0,1,387.68,391.09Z"/><path class="cls-32" d="M455.5,391.09a7.89,7.89,0,1,1-7.88,7.89A7.88,7.88,0,0,1,455.5,391.09Z"/><path class="cls-7" d="M444.5,357.3a2.39,2.39,0,0,1,3.58-3.16s5.18,6.06,13.19,4.94a2.39,2.39,0,1,1,.67,4.74C451.35,365.3,444.53,357.32,444.5,357.3Z"/><path class="cls-7" d="M380,360a2.38,2.38,0,1,0,3.57,3.16s5.17-6.06,13.2-4.94a2.39,2.39,0,0,0,.66-4.74C386.8,352,380,360,380,360Z"/><path class="cls-50" d="M414.9,399.47a2.38,2.38,0,0,0-4.75-.17,11.46,11.46,0,0,0,22.9.83,2.38,2.38,0,1,0-4.75-.17,6.7,6.7,0,1,1-13.4-.49Z"/></svg>