<svg xmlns="http://www.w3.org/2000/svg" viewBox="0 0 233 143"><defs><style>.cls-1{isolation:isolate;}.cls-2{opacity:0.36;}.cls-3{fill:#94bfdf;}.cls-3,.cls-5{fill-rule:evenodd;}.cls-4,.cls-5{fill:#fff;}.cls-6{fill:#322a7f;}.cls-7{fill:#18145b;}.cls-8{fill:#5b5bc1;}.cls-9{fill:#2da1ad;}.cls-10{fill:#5fc8d3;}.cls-11{fill:#91e0ed;}.cls-12{fill:#444;}.cls-13{fill:#232323;}.cls-14{fill:#c1c1c1;mix-blend-mode:overlay;}.cls-15{fill:#fc643a;}.cls-16{fill:#f4502a;}.cls-17{fill:#e8390a;}.cls-18{fill:#b51d04;}.cls-19{fill:#ff8c71;}</style></defs><title>ecommerce</title><g class="cls-1"><g id="Layer_1" data-name="Layer 1"><g class="cls-2"><path class="cls-3" d="M196.82,18.82a24.63,24.63,0,0,1,24.55,24.55h0a24.63,24.63,0,0,1-24.55,24.56h0a4.94,4.94,0,0,0-4.93,4.92h0a5,5,0,0,0,4.93,4.93h12.84a12,12,0,0,1,12,12h0a12,12,0,0,1-12,12,10.39,10.39,0,0,0-10.35,10.36h0A19,19,0,0,1,180.4,131h-111a24.63,24.63,0,0,1-24.55-24.55h0A24.63,24.63,0,0,1,69.44,81.89h2.38A5,5,0,0,0,76.75,77h0A4.94,4.94,0,0,0,71.82,72h-16a12,12,0,0,1-12-12h0a12,12,0,0,1,12-12H68.67A10.39,10.39,0,0,0,79,37.72h0a19,19,0,0,1,18.9-18.9Z"/><rect class="cls-4" x="193.21" y="113.74" width="2.51" height="2.51" rx="0.58"/><rect class="cls-4" x="188.58" y="113.74" width="2.51" height="2.51" rx="0.58"/><path class="cls-4" d="M184.53,113.74h1.34a.58.58,0,0,1,.58.58v1.34a.58.58,0,0,1-.58.58h-1.34a.59.59,0,0,1-.59-.59v-1.34A.58.58,0,0,1,184.53,113.74Z"/><rect class="cls-4" x="179.31" y="113.74" width="2.51" height="2.51" rx="0.58"/><rect class="cls-4" x="174.67" y="113.74" width="2.51" height="2.51" rx="0.58"/><rect class="cls-4" x="188.41" y="108.68" width="2.51" height="2.51" rx="0.58"/><rect class="cls-4" x="183.77" y="108.68" width="2.51" height="2.51" rx="0.58"/><path class="cls-4" d="M179.72,108.68h1.34a.59.59,0,0,1,.59.59v1.34a.58.58,0,0,1-.58.58h-1.34a.58.58,0,0,1-.58-.58v-1.34A.58.58,0,0,1,179.72,108.68Z"/><path class="cls-4" d="M184.53,119.17h1.34a.58.58,0,0,1,.58.58v1.34a.59.59,0,0,1-.59.59h-1.34a.59.59,0,0,1-.59-.59v-1.34A.58.58,0,0,1,184.53,119.17Z"/><path class="cls-4" d="M179.89,119.17h1.34a.58.58,0,0,1,.58.58v1.34a.59.59,0,0,1-.59.59h-1.34a.59.59,0,0,1-.59-.59v-1.34A.58.58,0,0,1,179.89,119.17Z"/><path class="cls-5" d="M172,68.52a.36.36,0,0,1,.36-.36.37.37,0,0,1,.37.36v1.64a.37.37,0,0,1-.37.36.36.36,0,0,1-.36-.36V68.52Zm-2.48,1.33a.36.36,0,0,1,0-.51.36.36,0,0,1,.52,0l1.15,1.15a.37.37,0,0,1,0,.52.36.36,0,0,1-.51,0l-1.16-1.16Zm-.81,2.69a.36.36,0,0,1-.36-.36.37.37,0,0,1,.36-.37h1.63a.37.37,0,0,1,.37.37.36.36,0,0,1-.37.36ZM170,75a.37.37,0,0,1-.52-.52l1.16-1.15a.36.36,0,1,1,.51.51L170,75Zm2.69.81a.37.37,0,0,1-.37.36.36.36,0,0,1-.36-.36V74.2a.36.36,0,0,1,.36-.37.37.37,0,0,1,.37.37v1.63Zm2.47-1.33a.36.36,0,0,1,0,.52.36.36,0,0,1-.51,0l-1.16-1.16a.36.36,0,0,1,0-.51.37.37,0,0,1,.52,0l1.15,1.15Zm.82-2.69a.37.37,0,0,1,.36.37.36.36,0,0,1-.36.36h-1.64a.36.36,0,0,1-.36-.36.37.37,0,0,1,.36-.37Zm-1.33-2.47a.36.36,0,0,1,.51.51L174,71a.37.37,0,0,1-.52-.52Z"/><path class="cls-5" d="M174.51,53.83v.59h.59a.45.45,0,0,1,.44.45h0a.45.45,0,0,1-.44.45h-.59v.59a.45.45,0,0,1-.45.45h0a.45.45,0,0,1-.45-.45v-.59H173a.45.45,0,0,1-.45-.45h0a.46.46,0,0,1,.45-.45h.59v-.59a.45.45,0,0,1,.45-.44h0A.45.45,0,0,1,174.51,53.83Z"/><path class="cls-5" d="M121.28,36.55v.59h.58a.45.45,0,0,1,.45.45h0a.45.45,0,0,1-.45.45h-.58v.59a.45.45,0,0,1-.45.44h0a.45.45,0,0,1-.45-.44V38h-.59a.45.45,0,0,1-.45-.45h0a.45.45,0,0,1,.45-.45h.59v-.59a.45.45,0,0,1,.45-.45h0A.46.46,0,0,1,121.28,36.55Z"/><path class="cls-5" d="M77.19,53.11v.59h.59a.45.45,0,0,1,.45.44h0a.45.45,0,0,1-.45.45h-.59v.59a.45.45,0,0,1-.45.45h0a.45.45,0,0,1-.44-.45v-.59h-.59a.45.45,0,0,1-.45-.45h0a.45.45,0,0,1,.45-.44h.59v-.59a.45.45,0,0,1,.44-.45h0A.45.45,0,0,1,77.19,53.11Z"/><path class="cls-5" d="M84.16,42.5a.36.36,0,1,1,.72,0v1.64a.36.36,0,0,1-.72,0V42.5Zm-2.48,1.33a.36.36,0,0,1,0-.51.35.35,0,0,1,.51,0l1.16,1.15a.37.37,0,0,1,0,.52.36.36,0,0,1-.51,0l-1.16-1.16Zm-.81,2.69a.37.37,0,0,1-.37-.36.38.38,0,0,1,.37-.37H82.5a.37.37,0,0,1,.36.37.36.36,0,0,1-.36.36ZM82.19,49a.36.36,0,0,1-.51,0,.37.37,0,0,1,0-.52l1.16-1.15a.35.35,0,0,1,.51,0,.36.36,0,0,1,0,.51L82.19,49Zm2.69.81a.36.36,0,1,1-.72,0V48.18a.36.36,0,1,1,.72,0v1.63Zm2.48-1.33a.37.37,0,0,1,0,.52.36.36,0,0,1-.51,0l-1.16-1.16a.36.36,0,0,1,0-.51.35.35,0,0,1,.51,0l1.16,1.15Zm.81-2.69a.38.38,0,0,1,.37.37.37.37,0,0,1-.37.36H86.54a.36.36,0,0,1-.36-.36.37.37,0,0,1,.36-.37Zm-1.32-2.47a.35.35,0,0,1,.51,0,.36.36,0,0,1,0,.51L86.2,45a.36.36,0,0,1-.51,0,.37.37,0,0,1,0-.52Z"/><path class="cls-5" d="M113.3,77.91a.36.36,0,0,1,.36-.36.37.37,0,0,1,.37.36v1.63a.38.38,0,0,1-.37.37.37.37,0,0,1-.36-.37V77.91Zm-2.48,1.33a.37.37,0,1,1,.52-.52l1.15,1.16a.35.35,0,0,1,0,.51.36.36,0,0,1-.51,0l-1.16-1.15ZM110,81.93a.37.37,0,0,1-.36-.37.36.36,0,0,1,.36-.36h1.64a.36.36,0,0,1,.36.36.37.37,0,0,1-.36.37Zm1.33,2.47a.36.36,0,0,1-.52,0,.36.36,0,0,1,0-.51L112,82.73a.36.36,0,0,1,.51,0,.36.36,0,0,1,0,.52l-1.15,1.15Zm2.69.82a.37.37,0,0,1-.37.36.36.36,0,0,1-.36-.36V83.58a.36.36,0,0,1,.36-.36.37.37,0,0,1,.37.36v1.64Zm2.48-1.33a.36.36,0,0,1,0,.51.36.36,0,0,1-.52,0l-1.16-1.15a.37.37,0,0,1,.52-.52l1.16,1.16Zm.81-2.69a.36.36,0,0,1,.36.36.37.37,0,0,1-.36.37h-1.64a.37.37,0,0,1-.36-.37.36.36,0,0,1,.36-.36ZM116,78.72a.37.37,0,1,1,.52.52l-1.16,1.15a.37.37,0,0,1-.52,0,.36.36,0,0,1,0-.51Z"/><path class="cls-5" d="M190.37,21.45a.36.36,0,0,1,.72,0v1.63a.36.36,0,1,1-.72,0V21.45Zm-2.48,1.33a.37.37,0,0,1,0-.52.36.36,0,0,1,.51,0l1.16,1.16a.36.36,0,0,1-.51.51l-1.16-1.15Zm-.81,2.69a.38.38,0,0,1-.37-.37.37.37,0,0,1,.37-.36h1.63a.36.36,0,0,1,.36.36.37.37,0,0,1-.36.37Zm1.32,2.47a.36.36,0,1,1-.51-.51l1.16-1.16a.36.36,0,0,1,.51,0,.37.37,0,0,1,0,.52l-1.16,1.15Zm2.69.82a.36.36,0,0,1-.72,0V27.12a.36.36,0,0,1,.72,0v1.64Zm2.48-1.33a.36.36,0,1,1-.51.51l-1.16-1.15a.37.37,0,0,1,0-.52.36.36,0,0,1,.51,0l1.16,1.16Zm.81-2.69a.37.37,0,0,1,.37.36.38.38,0,0,1-.37.37h-1.63a.37.37,0,0,1-.36-.37.36.36,0,0,1,.36-.36Zm-1.32-2.48a.36.36,0,0,1,.51,0,.37.37,0,0,1,0,.52l-1.16,1.15a.36.36,0,0,1-.51-.51Z"/><rect class="cls-4" x="71.58" y="58.26" width="2.51" height="2.51" rx="0.58"/><rect class="cls-4" x="66.94" y="58.26" width="2.51" height="2.51" rx="0.58"/><rect class="cls-4" x="62.3" y="58.26" width="2.51" height="2.51" rx="0.58"/><rect class="cls-4" x="57.67" y="58.26" width="2.51" height="2.51" rx="0.58"/><rect class="cls-4" x="53.03" y="58.26" width="2.51" height="2.51" rx="0.58"/><rect class="cls-4" x="48.39" y="58.26" width="2.51" height="2.51" rx="0.58"/><rect class="cls-4" x="62.14" y="53.21" width="2.51" height="2.51" rx="0.58"/><rect class="cls-4" x="57.5" y="53.21" width="2.51" height="2.51" rx="0.58"/><rect class="cls-4" x="52.86" y="53.21" width="2.51" height="2.51" rx="0.58"/><rect class="cls-4" x="57.67" y="63.69" width="2.51" height="2.51" rx="0.58"/><rect class="cls-4" x="53.03" y="63.69" width="2.51" height="2.51" rx="0.58"/><path class="cls-5" d="M187.71,66.83Zm-1.58-6A3,3,0,1,0,187,63a3,3,0,0,0-.89-2.15Zm-.66-3a5.45,5.45,0,0,1,1.19.5,5.77,5.77,0,0,1,1.05.79.18.18,0,0,0,.22,0l1.41-.82h0a.39.39,0,0,1,.26,0,.34.34,0,0,1,.21.16h0l1,1.72a.37.37,0,0,1,0,.27.35.35,0,0,1-.17.21h0l-1.4.81a.18.18,0,0,0-.09.2h0a3.44,3.44,0,0,1,.12.64,4.87,4.87,0,0,1,0,.66,5.42,5.42,0,0,1-.16,1.3.2.2,0,0,0,.1.21l1.4.81h0a.33.33,0,0,1,.17.21.34.34,0,0,1,0,.26l-1,1.74h0a.35.35,0,0,1-.48.12h0l-1.4-.81a.2.2,0,0,0-.22,0,5.35,5.35,0,0,1-1.05.79,4.93,4.93,0,0,1-1.2.51.19.19,0,0,0-.13.18v1.63a.34.34,0,0,1-.35.35h-2a.34.34,0,0,1-.35-.35V68.3a.18.18,0,0,0-.14-.18,5,5,0,0,1-1.19-.51,5.35,5.35,0,0,1-1.05-.79.2.2,0,0,0-.23,0l-1.4.81a.35.35,0,0,1-.48-.12h0l-1-1.73h0a.3.3,0,0,1,0-.26.29.29,0,0,1,.16-.21l1.41-.82a.19.19,0,0,0,.09-.2h0a5.42,5.42,0,0,1-.16-1.3,4.87,4.87,0,0,1,0-.66,4.52,4.52,0,0,1,.12-.64.2.2,0,0,0-.1-.21l-1.4-.81a.31.31,0,0,1-.16-.21.32.32,0,0,1,0-.27h0l1-1.72h0a.34.34,0,0,1,.21-.16.42.42,0,0,1,.27,0h0l1.41.82a.2.2,0,0,0,.23,0,5.38,5.38,0,0,1,1-.79,5.33,5.33,0,0,1,1.2-.5.19.19,0,0,0,.13-.18V56a.36.36,0,0,1,.1-.25.37.37,0,0,1,.25-.1h2a.37.37,0,0,1,.25.1.36.36,0,0,1,.1.25v1.63A.19.19,0,0,0,185.47,57.8Z"/></g><path class="cls-6" d="M68.64,88.1s-16.06,14.34-27.1,18.61c-10.54,4.09-20.16,3.47-22.61,4.55-4.7,2.08-3.66,7.9-3.66,7.9S12.15,129.34,81.15,126c4.95.3,18.33,1.9,26.19-3.42,5.11-15.77-3.45-28.16-5.45-31s-4.77-3.34-6.34-1.93-1.68,8.07-8.89,8.42-15.11-10-15.11-10Z"/><path class="cls-7" d="M71.55,88.1H68.64A159.21,159.21,0,0,1,48.9,103c3.54,2.43,10.91,5.57,20.27-.88,3.7-2.55,7-4.85,9.73-6.85A38.69,38.69,0,0,1,71.55,88.1Z"/><path class="cls-8" d="M101.93,91.67l0-.06c-2-2.81-4.77-3.34-6.34-1.93s-1.68,8.07-8.89,8.42-15.11-10-15.11-10H69.13c1.85,4.07,8.06,15.09,21,14.34C98,102,101.18,97,101.93,91.67Z"/><path class="cls-7" d="M107.34,122.58a34.16,34.16,0,0,0,1-3.82,82.78,82.78,0,0,0-39.81-7.47c-17.73,1-34.44,8.29-43.75,13.13,1.6.34,3.47.66,5.64.94A103.82,103.82,0,0,1,65.26,118,48.33,48.33,0,0,1,95,126.28C99.36,125.92,103.88,124.92,107.34,122.58Z"/><path class="cls-9" d="M59.18,127.22c-2.49-4-4.12-4.21-9.22-4.08-5.66.13-23.73-2.21-26.91-3.59s-2.55-3.76-3.31-5.94a4.49,4.49,0,0,0-2-2.32c-3.61,2.35-3.12,7.1-3,7.86a2.37,2.37,0,0,0,.54,1.66c1.77,2.4,9.43,6.42,40.83,6.42Z"/><path class="cls-9" d="M107.64,123l.16-.11.06-.18a33.92,33.92,0,0,0,1-4c-2.89.91-13,2.51-20.73,2.63-6.79.11-7.67,3.75-7.74,5.25l.71,0,1.62.11c2,.14,4.68.34,7.63.34C98.06,127,103.7,125.71,107.64,123Z"/><path class="cls-10" d="M65.85,112.14,52.39,99.72a73.84,73.84,0,0,1-8.24,4.92l9.44,8.7A17.74,17.74,0,0,0,65.85,112.14Z"/><path class="cls-10" d="M30.1,108.87l8,7.42a17.73,17.73,0,0,0,12.26-1.21l-9.7-8.94A55.18,55.18,0,0,1,30.1,108.87Z"/><path class="cls-10" d="M63.06,91.72c-2.07,1.68-4.63,3.69-7.39,5.69L69.1,109.79a17.8,17.8,0,0,0,12.26-1.2Z"/><path class="cls-11" d="M63.06,91.72c-2.07,1.68-4.63,3.69-7.39,5.69l6,5.58q4.07-2,8.55-4.63Z"/><path class="cls-11" d="M52.39,99.72a73.84,73.84,0,0,1-8.24,4.92l4.28,4c2.91-1,6.06-2.23,9.47-3.78Z"/><path class="cls-11" d="M40.71,106.14a55.18,55.18,0,0,1-10.61,2.73L33.5,112a61.53,61.53,0,0,0,11.16-2.22Z"/><path class="cls-12" d="M179.18,84.94c-2.06,1.65-21.34,19.26-33.44,22.81s-19.48.72-22.22,1.87c-5.27,2.21-4.1,8.41-4.1,8.41s7.82,12.35,52.59,9.56c11.49-3.43,11.26-4.14,19.78-4.89,1.69,0,1.56,4.31,1.56,4.31s19.38,2.75,28.18-2.92c5.72-16.79-2.88-32.42-5.13-35.41s-5.34-3.56-7.09-2.06-1.88,8.6-10,9-16.91-10.65-16.91-10.65S181.24,83.29,179.18,84.94Z"/><path d="M143.5,125.2l-.85-.17c.15-.8.29-1.63.39-2.45l.87.11C143.8,123.53,143.66,124.37,143.5,125.2Zm.49-3.14-.87-.09c.09-.82.16-1.65.21-2.48l.87.05Q144.13,120.82,144,122.06Zm.24-3.15-.87,0c0-.61,0-1.21,0-1.81v-.67h.87v.68C144.27,117.67,144.25,118.28,144.23,118.91Zm-.86-3.14c0-.86-.07-1.68-.13-2.48l.87-.07c.07.81.11,1.66.14,2.53Zm-.18-3.1c-.08-.87-.18-1.69-.29-2.47l.86-.12c.11.79.22,1.63.3,2.51Z"/><path class="cls-13" d="M144.19,108.16a46.87,46.87,0,0,1-.37,19c1,.12,1.93.22,3,.31a49.22,49.22,0,0,0,.26-20.13c-.44.16-.87.3-1.29.43Z"/><path class="cls-13" d="M188.71,114.87c-4.83-3.37-12.46-4.2-22.66-2.48-2.83-4.44-3.16-9.87-2.57-14.7-1,.75-2,1.49-3.1,2.21-.25,5,.56,10.43,3.81,14.94l.54.75.91-.17c22.23-4,24.51,5.74,24.53,5.84l2.87-.53A9.93,9.93,0,0,0,188.71,114.87Z"/><path class="cls-13" d="M216.4,88.68a8,8,0,0,0-1.22-1.3,22.44,22.44,0,0,1-.8,3.08c-1.83,5.47-5.25,8.58-10.15,9.26-5.72.79-10.23-.25-13.4-3.1a15.83,15.83,0,0,1-4.39-7.48,45.14,45.14,0,0,1-3.73-3.88c.36,3.49,1.66,9.47,6.16,13.52,3,2.73,7,4.11,11.81,4.11a28.89,28.89,0,0,0,3.95-.28c6-.83,10.33-4.71,12.52-11.22.12-.36.21-.72.31-1.08A17.49,17.49,0,0,0,216.4,88.68Z"/><path d="M142.8,109.58l.87-.13c-.06-.38-.12-.75-.19-1.1l-.85.19C142.69,108.87,142.75,109.22,142.8,109.58Z"/><path d="M164,100.36l.87,0c0-.74.09-1.51.18-2.29l-.87-.1C164.08,98.8,164,99.59,164,100.36Z"/><path d="M166.05,108.82a16.28,16.28,0,0,1-.67-2.18l-.85.2a18.47,18.47,0,0,0,.7,2.29Z"/><path d="M164.4,106.26l.86-.17c-.14-.73-.25-1.48-.33-2.26l-.87.08C164.14,104.72,164.25,105.51,164.4,106.26Z"/><path d="M166.41,111.59l.84-.13-.13-.86-.24,0a12.88,12.88,0,0,1-.62-1.3l-.81.34a15.77,15.77,0,0,0,.81,1.65Z"/><path d="M167.82,111.38c.78-.11,1.55-.2,2.3-.29l-.09-.86c-.76.08-1.54.17-2.33.28Z"/><path d="M178.76,110.93l.08-.87c-.76-.07-1.55-.11-2.35-.13l0,.87C177.25,110.82,178,110.87,178.76,110.93Z"/><path d="M164.24,97.42l.87.1.14-1.15-1,.72Z"/><path d="M173.58,110.83c.65,0,1.29,0,1.91,0h.4v-.88h-.4c-.63,0-1.28,0-2,0Z"/><path d="M187,113l.38-.78a18.1,18.1,0,0,0-2.2-.91l-.28.82A21,21,0,0,1,187,113Z"/><path d="M182.35,110.57l-.18.85c.76.16,1.51.36,2.22.58l.26-.84A23.44,23.44,0,0,0,182.35,110.57Z"/><path d="M187.54,113.3a15,15,0,0,1,1.59,1l.33.23.52-.7-.35-.25a16.69,16.69,0,0,0-1.68-1Z"/><path d="M190.45,114.16l-.54.69a12.54,12.54,0,0,1,1.62,1.55l.66-.57A13.79,13.79,0,0,0,190.45,114.16Z"/><path d="M193.87,118.33a12.08,12.08,0,0,0-1.3-2l-.68.54a11.55,11.55,0,0,1,1.2,1.89Z"/><path d="M181.77,110.45c-.75-.14-1.54-.25-2.34-.33l-.09.87c.77.08,1.54.19,2.27.33Z"/><path d="M173,110q-1.14.06-2.34.18l.08.87q1.19-.12,2.31-.18Z"/><path d="M164.89,103.26c0-.55,0-1.1,0-1.67V101l-.87,0c0,.21,0,.43,0,.64,0,.59,0,1.16.06,1.72Z"/><path d="M193.32,119.23a6.88,6.88,0,0,1,.44,1.37l.14.78.86-.15-.14-.79a7.91,7.91,0,0,0-.49-1.55Z"/><path d="M187.91,91.14a16.53,16.53,0,0,0,1.1,2.14l.74-.46a16.13,16.13,0,0,1-.81-1.55l-.47-.36Z"/><path d="M187.69,90.59l.27-.1-.43-.37C187.59,90.27,187.63,90.44,187.69,90.59Z"/><polygon points="191.59 95.74 191.77 95.54 191.88 95.41 191.59 95.74"/><path d="M190.86,95.64l.62-.61a12.22,12.22,0,0,1-1.42-1.74l-.73.49A12.74,12.74,0,0,0,190.86,95.64Z"/><path d="M199.06,98.3a15.65,15.65,0,0,1-2.24-.35l-.2.85a17.35,17.35,0,0,0,2.36.38Z"/><path d="M204.74,98c-.24,0-.48.09-.73.12-.52.08-1,.13-1.53.17l.07.87c.52,0,1-.1,1.58-.17l.78-.13Z"/><path d="M193.69,96.72a10.82,10.82,0,0,1-1.8-1.3l-.12.12-.45.54a11.27,11.27,0,0,0,1.94,1.4Z"/><path d="M196,98.64l.24-.84a12.42,12.42,0,0,1-2.09-.81l-.4.78A13.13,13.13,0,0,0,196,98.64Z"/><path d="M205.5,98.73a11.21,11.21,0,0,0,2.27-.86l-.4-.78a9.7,9.7,0,0,1-2.09.79Z"/><path d="M208.3,97.57a10.47,10.47,0,0,0,1.92-1.48l-.61-.63a9.11,9.11,0,0,1-1.76,1.36Z"/><path d="M202,99.21l-.05-.87a21.75,21.75,0,0,1-2.28,0l0,.87q.54,0,1.11,0C201.1,99.25,201.53,99.24,202,99.21Z"/><path d="M212.86,90l-.08.24.83.29.08-.25a19.92,19.92,0,0,0,.57-2l-.85-.19A18.86,18.86,0,0,1,212.86,90Z"/><path d="M210,95.06l.65.59a12.33,12.33,0,0,0,1.44-1.92l-.74-.46A11.81,11.81,0,0,1,210,95.06Z"/><path d="M214.54,86.85a7.26,7.26,0,0,0-.8-.47l-.2,1.06.85.17Z"/><path d="M212.4,93.21a18.94,18.94,0,0,0,1-2.17l-.81-.32a16.39,16.39,0,0,1-1,2.06Z"/><path d="M223,115.14c-8.09,2.06-20.41,2.06-24.46,2.06h-3.4c-2.46,0-4.46.7-7.22,1.65a90,90,0,0,1-29.55,5.09,108.65,108.65,0,0,1-27.63-3.78,25.3,25.3,0,0,1-10.57-5.32l-.55-.5a9.82,9.82,0,0,0-.16,3.7s7.82,12.35,52.59,9.56c11.49-3.43,11.26-4.14,19.78-4.89,1.69,0,1.56,4.31,1.56,4.31s19.38,2.75,28.18-2.92a36.38,36.38,0,0,0,1.83-9Z"/><path class="cls-13" d="M221.53,124.09a36.08,36.08,0,0,0,1.72-7.82c-9.2,2.34-23.25,2.09-28.15,2.09-5.24,0-8.45,3.5-24.19,5.83s-30.6-.29-40.51-2.92a26.27,26.27,0,0,1-11.05-5.58,10,10,0,0,0,.07,2.34s7.82,12.35,52.59,9.56c11.49-3.43,11.26-4.14,19.78-4.89,1.69,0,1.56,4.31,1.56,4.31S212.73,129.76,221.53,124.09Z"/><path class="cls-14" d="M122.48,114s.92-2.58,5.59-.7a63.77,63.77,0,0,0,18.8,5c8.16.73,10.84,1.12,11.62,1A60.92,60.92,0,0,1,122.48,114Z"/><path class="cls-14" d="M166.93,97.67s12.24-9.91,13.6-11.08c-.1,2.82.58,6,2.72,8.16-5.15,4.76-8.74,7.68-14.47,12.63C166.06,103.3,166.93,97.67,166.93,97.67Z"/><path d="M172.22,96.86a1.62,1.62,0,1,1-2.27-.32A1.62,1.62,0,0,1,172.22,96.86Z"/><path d="M175.66,94.27a1.62,1.62,0,1,1-2.27-.32A1.63,1.63,0,0,1,175.66,94.27Z"/><path d="M179.1,91.67a1.63,1.63,0,1,1-2.28-.32A1.63,1.63,0,0,1,179.1,91.67Z"/><path class="cls-13" d="M174.77,87.18l-1.33,1.13L177,93a.85.85,0,0,0,.69.34.86.86,0,0,0,.53-.17.89.89,0,0,0,.17-1.23Z"/><path class="cls-13" d="M173.51,95.56a.87.87,0,1,0,1.39-1L171.47,90l-1.35,1.11Z"/><path class="cls-13" d="M170.07,98.16a.88.88,0,0,0,.7.34.85.85,0,0,0,.52-.17.88.88,0,0,0,.17-1.23l-3.34-4.43-1.37,1.08Z"/><path class="cls-15" d="M92.16,66.33a4.55,4.55,0,0,1-2-4.35c.47-2.81,4.81-8.7,16-8.14,1.71,3.37,6.24,4.22,11,3.65,8.47-1,14.93-15.54,16.65-20,2.52-6.58,6.27-14.72,12.75-21,5.78-5.63,6.62-4.84,6.62-4.84a19.67,19.67,0,0,1,7.6,19.92c-1,5.59-3.9,13.74-7.65,11.83a32.73,32.73,0,0,0-3.84-1.54l-7,5.41-6.17,7.65L128.66,69l-9.9,3.07Z"/><path class="cls-16" d="M159.5,36.71a39.52,39.52,0,0,0,1.33-5.18,21.8,21.8,0,0,0,.37-3.29c-6.32,1.67-12.65,6.93-18.47,12.59-7,6.86-16.18,31.25-38.27,23.78-4-1.35-9-2.93-13-5.35A6.8,6.8,0,0,0,90.19,62a4.55,4.55,0,0,0,2,4.35l26.6,5.75,9.9-3.07,7.55-14.13,6.17-7.65,7-5.41S158.06,41,159.5,36.71Z"/><path class="cls-17" d="M90.13,63.45s14.42,7,28.94,7.16c6.5-.21,9.25-3.48,10.94-7.36a75.46,75.46,0,0,1,11.54-17.5c4.86-5.19,14.85-12.35,19.39-14.12.29,1.66-.35,5.59-1.13,9.58-.58,2.92-2.55,17.21-2.86,23.81-.36,7.52-.58,16.23-.58,16.23a20.75,20.75,0,0,1-5.87.6c0-5.57.11-35.1-.8-36.1s-2.18-1-5.37,1.89-9.63,9.48-13.14,25c-1.82,7.76-6.15,9.22-8,9.61S96.3,80.35,91.33,75C90.13,71.11,90.13,63.45,90.13,63.45Z"/><path class="cls-18" d="M148.79,44.59c-1.11,0-2.4.55-4.42,2.39-2.37,2.14-10.56,8.76-14.32,25.41-1.22,5.2-5.05,8.24-8.25,8.54-3,.28-24.26-2.3-30.63-6.5,0,.19.1.38.16.55,5,5.37,29.93,7.66,31.82,7.26s6.22-1.85,8-9.61c3.51-15.51,10-22.11,13.14-25s4.46-2.9,5.37-1.89.8,30.53.8,36.1l1.06,0c0-.13,0-.26,0-.39V80.29c0-23-.91-30.84-1.06-33.53C150.43,45.14,149.44,44.59,148.79,44.59Z"/><path class="cls-18" d="M156.42,79.29a29.5,29.5,0,0,1-5.92.6v2a20.75,20.75,0,0,0,5.87-.6S156.38,80.51,156.42,79.29Z"/><path class="cls-19" d="M90.16,65.08c3.68,1.62,16.12,6.83,28.33,7,7.41-.24,10.69-5,12.22-8.53,1.75-4,6.93-12,11.64-17s13.67-11,18.28-13.21l.37-.15a8.15,8.15,0,0,0-.06-1.56c-4.54,1.77-14.53,8.93-19.39,14.12A75.46,75.46,0,0,0,130,63.25c-1.69,3.88-4.44,7.15-10.94,7.36-14.52-.2-28.94-7.16-28.94-7.16s0,.64,0,1.63Z"/><path class="cls-19" d="M95.7,58.35s3.24-2.69,6.28-2.15c1.91,1.58,4.86,2.53,9,3.48C105.7,62,95.7,58.35,95.7,58.35Z"/></g></g></svg>