<svg id="Layer_1" data-name="Layer 1" xmlns="http://www.w3.org/2000/svg" viewBox="0 0 213 143"><defs><style>.cls-1{opacity:0.36;}.cls-2{fill:#94bfdf;}.cls-2,.cls-4{fill-rule:evenodd;}.cls-3,.cls-4,.cls-8{fill:#fff;}.cls-5{fill:#a1e4ef;}.cls-6{fill:#86b4c2;}.cls-7{fill:#ff9d00;}.cls-8{opacity:0.25;}</style></defs><title>ecommerce</title><g class="cls-1"><path class="cls-2" d="M170.82,15.82a24.63,24.63,0,0,1,24.55,24.55h0a24.63,24.63,0,0,1-24.55,24.56h0a4.94,4.94,0,0,0-4.93,4.92h0a5,5,0,0,0,4.93,4.93h12.84a12,12,0,0,1,12,12h0a12,12,0,0,1-12,12,10.39,10.39,0,0,0-10.35,10.36h0A19,19,0,0,1,154.4,128h-111a24.63,24.63,0,0,1-24.55-24.55h0A24.63,24.63,0,0,1,43.44,78.89h2.38A5,5,0,0,0,50.75,74h0A4.94,4.94,0,0,0,45.82,69h-16a12,12,0,0,1-12-12h0a12,12,0,0,1,12-12H42.67A10.39,10.39,0,0,0,53,34.72h0a19,19,0,0,1,18.9-18.9Z"/><rect class="cls-3" x="167.21" y="110.74" width="2.51" height="2.51" rx="0.58"/><rect class="cls-3" x="162.58" y="110.74" width="2.51" height="2.51" rx="0.58"/><path class="cls-3" d="M158.53,110.74h1.34a.58.58,0,0,1,.58.58v1.34a.58.58,0,0,1-.58.58h-1.34a.59.59,0,0,1-.59-.59v-1.34A.58.58,0,0,1,158.53,110.74Z"/><rect class="cls-3" x="153.31" y="110.74" width="2.51" height="2.51" rx="0.58"/><rect class="cls-3" x="148.67" y="110.74" width="2.51" height="2.51" rx="0.58"/><rect class="cls-3" x="162.41" y="105.68" width="2.51" height="2.51" rx="0.58"/><rect class="cls-3" x="157.77" y="105.68" width="2.51" height="2.51" rx="0.58"/><path class="cls-3" d="M153.72,105.68h1.34a.59.59,0,0,1,.59.59v1.34a.58.58,0,0,1-.58.58h-1.34a.58.58,0,0,1-.58-.58v-1.34A.58.58,0,0,1,153.72,105.68Z"/><path class="cls-3" d="M158.53,116.17h1.34a.58.58,0,0,1,.58.58v1.34a.59.59,0,0,1-.59.59h-1.34a.59.59,0,0,1-.59-.59v-1.34A.58.58,0,0,1,158.53,116.17Z"/><path class="cls-3" d="M153.89,116.17h1.34a.58.58,0,0,1,.58.58v1.34a.59.59,0,0,1-.59.59h-1.34a.58.58,0,0,1-.58-.58v-1.34A.58.58,0,0,1,153.89,116.17Z"/><path class="cls-4" d="M146,65.52a.36.36,0,0,1,.36-.36.37.37,0,0,1,.37.36v1.64a.37.37,0,0,1-.37.36.36.36,0,0,1-.36-.36V65.52Zm-2.48,1.33a.36.36,0,0,1,0-.51.36.36,0,0,1,.52,0l1.15,1.15a.37.37,0,0,1,0,.52.36.36,0,0,1-.51,0l-1.16-1.16Zm-.81,2.69a.36.36,0,0,1-.36-.36.37.37,0,0,1,.36-.37h1.63a.37.37,0,0,1,.37.37.36.36,0,0,1-.37.36ZM144,72a.37.37,0,0,1-.52-.52l1.16-1.15a.36.36,0,1,1,.51.51L144,72Zm2.69.81a.37.37,0,0,1-.37.36.36.36,0,0,1-.36-.36V71.2a.36.36,0,0,1,.36-.37.37.37,0,0,1,.37.37v1.63Zm2.47-1.33a.36.36,0,0,1,0,.52.36.36,0,0,1-.51,0l-1.16-1.16a.36.36,0,0,1,0-.51.37.37,0,0,1,.52,0l1.15,1.15Zm.82-2.69a.37.37,0,0,1,.36.37.36.36,0,0,1-.36.36h-1.64a.36.36,0,0,1-.36-.36.37.37,0,0,1,.36-.37Zm-1.33-2.47a.36.36,0,0,1,.51.51L148,68a.37.37,0,0,1-.52-.52Z"/><path class="cls-4" d="M148.51,50.83v.59h.59a.45.45,0,0,1,.44.45h0a.45.45,0,0,1-.44.45h-.59v.59a.45.45,0,0,1-.45.45h0a.45.45,0,0,1-.45-.45v-.59H147a.45.45,0,0,1-.45-.45h0a.46.46,0,0,1,.45-.45h.59v-.59a.45.45,0,0,1,.45-.44h0A.45.45,0,0,1,148.51,50.83Z"/><path class="cls-4" d="M95.28,33.55v.59h.58a.45.45,0,0,1,.45.45h0a.45.45,0,0,1-.45.45h-.58v.59a.45.45,0,0,1-.45.44h0a.45.45,0,0,1-.45-.44V35h-.59a.45.45,0,0,1-.45-.45h0a.45.45,0,0,1,.45-.45h.59v-.59a.45.45,0,0,1,.45-.45h0A.46.46,0,0,1,95.28,33.55Z"/><path class="cls-4" d="M51.19,50.11v.59h.59a.45.45,0,0,1,.45.44h0a.45.45,0,0,1-.45.45h-.59v.59a.45.45,0,0,1-.45.45h0a.45.45,0,0,1-.44-.45v-.59h-.59a.45.45,0,0,1-.45-.45h0a.45.45,0,0,1,.45-.44h.59v-.59a.45.45,0,0,1,.44-.45h0A.45.45,0,0,1,51.19,50.11Z"/><path class="cls-4" d="M58.16,39.5a.36.36,0,0,1,.72,0v1.64a.36.36,0,1,1-.72,0V39.5Zm-2.48,1.33a.36.36,0,0,1,0-.51.35.35,0,0,1,.51,0l1.16,1.15a.37.37,0,0,1,0,.52.36.36,0,0,1-.51,0l-1.16-1.16Zm-.81,2.69a.37.37,0,0,1-.37-.36.38.38,0,0,1,.37-.37H56.5a.37.37,0,0,1,.36.37.36.36,0,0,1-.36.36ZM56.19,46a.36.36,0,0,1-.51,0,.37.37,0,0,1,0-.52l1.16-1.15a.35.35,0,0,1,.51,0,.36.36,0,0,1,0,.51L56.19,46Zm2.69.81a.36.36,0,1,1-.72,0V45.18a.36.36,0,1,1,.72,0v1.63Zm2.48-1.33a.37.37,0,0,1,0,.52.36.36,0,0,1-.51,0l-1.16-1.16a.36.36,0,0,1,0-.51.35.35,0,0,1,.51,0l1.16,1.15Zm.81-2.69a.38.38,0,0,1,.37.37.37.37,0,0,1-.37.36H60.54a.36.36,0,0,1-.36-.36.37.37,0,0,1,.36-.37Zm-1.32-2.47a.35.35,0,0,1,.51,0,.36.36,0,0,1,0,.51L60.2,42a.36.36,0,0,1-.51,0,.37.37,0,0,1,0-.52Z"/><path class="cls-4" d="M87.3,74.91a.36.36,0,0,1,.36-.36.37.37,0,0,1,.37.36v1.63a.38.38,0,0,1-.37.37.37.37,0,0,1-.36-.37V74.91Zm-2.48,1.33a.37.37,0,1,1,.52-.52l1.15,1.16a.35.35,0,0,1,0,.51.36.36,0,0,1-.51,0l-1.16-1.15ZM84,78.93a.37.37,0,0,1-.36-.37A.36.36,0,0,1,84,78.2h1.64a.36.36,0,0,1,.36.36.37.37,0,0,1-.36.37Zm1.33,2.47a.36.36,0,0,1-.52,0,.36.36,0,0,1,0-.51L86,79.73a.36.36,0,0,1,.51,0,.36.36,0,0,1,0,.52L85.34,81.4Zm2.69.82a.37.37,0,0,1-.37.36.36.36,0,0,1-.36-.36V80.58a.36.36,0,0,1,.36-.36.37.37,0,0,1,.37.36v1.64Zm2.48-1.33a.36.36,0,0,1,0,.51.36.36,0,0,1-.52,0l-1.16-1.15a.37.37,0,0,1,.52-.52l1.16,1.16Zm.81-2.69a.36.36,0,0,1,.36.36.37.37,0,0,1-.36.37H89.68a.37.37,0,0,1-.36-.37.36.36,0,0,1,.36-.36ZM90,75.72a.37.37,0,1,1,.52.52l-1.16,1.15a.37.37,0,0,1-.52,0,.36.36,0,0,1,0-.51Z"/><path class="cls-4" d="M164.37,18.45a.36.36,0,0,1,.72,0v1.63a.36.36,0,1,1-.72,0V18.45Zm-2.48,1.33a.37.37,0,0,1,0-.52.36.36,0,0,1,.51,0l1.16,1.16a.36.36,0,0,1-.51.51l-1.16-1.15Zm-.81,2.69a.38.38,0,0,1-.37-.37.37.37,0,0,1,.37-.36h1.63a.36.36,0,0,1,.36.36.37.37,0,0,1-.36.37Zm1.32,2.47a.36.36,0,1,1-.51-.51l1.16-1.16a.36.36,0,0,1,.51,0,.37.37,0,0,1,0,.52l-1.16,1.15Zm2.69.82a.36.36,0,0,1-.72,0V24.12a.36.36,0,0,1,.72,0v1.64Zm2.48-1.33a.36.36,0,1,1-.51.51l-1.16-1.15a.37.37,0,0,1,0-.52.36.36,0,0,1,.51,0l1.16,1.16Zm.81-2.69a.37.37,0,0,1,.37.36.38.38,0,0,1-.37.37h-1.63a.37.37,0,0,1-.36-.37.36.36,0,0,1,.36-.36Zm-1.32-2.48a.36.36,0,0,1,.51,0,.37.37,0,0,1,0,.52l-1.16,1.15a.36.36,0,0,1-.51-.51Z"/><rect class="cls-3" x="45.58" y="55.26" width="2.51" height="2.51" rx="0.58"/><rect class="cls-3" x="40.94" y="55.26" width="2.51" height="2.51" rx="0.58"/><rect class="cls-3" x="36.3" y="55.26" width="2.51" height="2.51" rx="0.58"/><rect class="cls-3" x="31.67" y="55.26" width="2.51" height="2.51" rx="0.58"/><rect class="cls-3" x="27.03" y="55.26" width="2.51" height="2.51" rx="0.58"/><rect class="cls-3" x="22.39" y="55.26" width="2.51" height="2.51" rx="0.58"/><rect class="cls-3" x="36.14" y="50.21" width="2.51" height="2.51" rx="0.58"/><rect class="cls-3" x="31.5" y="50.21" width="2.51" height="2.51" rx="0.58"/><rect class="cls-3" x="26.86" y="50.21" width="2.51" height="2.51" rx="0.58"/><rect class="cls-3" x="31.67" y="60.69" width="2.51" height="2.51" rx="0.58"/><rect class="cls-3" x="27.03" y="60.69" width="2.51" height="2.51" rx="0.58"/><path class="cls-4" d="M161.71,63.83Zm-1.58-6A3,3,0,1,0,161,60a3,3,0,0,0-.89-2.15Zm-.66-3a5.45,5.45,0,0,1,1.19.5,5.77,5.77,0,0,1,1.05.79.18.18,0,0,0,.22,0l1.41-.82h0a.39.39,0,0,1,.26,0,.34.34,0,0,1,.21.16h0l1,1.72a.37.37,0,0,1,0,.27.35.35,0,0,1-.17.21h0l-1.4.81a.18.18,0,0,0-.09.2h0a3.44,3.44,0,0,1,.12.64,4.87,4.87,0,0,1,0,.66,5.42,5.42,0,0,1-.16,1.3.2.2,0,0,0,.1.21l1.4.81h0a.33.33,0,0,1,.17.21.34.34,0,0,1,0,.26l-1,1.74h0a.35.35,0,0,1-.48.12h0l-1.4-.81a.2.2,0,0,0-.22,0,5.35,5.35,0,0,1-1.05.79,4.93,4.93,0,0,1-1.2.51.19.19,0,0,0-.13.18v1.63a.34.34,0,0,1-.35.35h-2a.34.34,0,0,1-.35-.35V65.3a.18.18,0,0,0-.14-.18,5,5,0,0,1-1.19-.51,5.35,5.35,0,0,1-1.05-.79.2.2,0,0,0-.23,0l-1.4.81a.35.35,0,0,1-.48-.12h0l-1-1.73h0a.3.3,0,0,1,0-.26.29.29,0,0,1,.16-.21l1.41-.82a.19.19,0,0,0,.09-.2h0a5.42,5.42,0,0,1-.16-1.3,4.87,4.87,0,0,1,0-.66,4.52,4.52,0,0,1,.12-.64.2.2,0,0,0-.1-.21l-1.4-.81a.31.31,0,0,1-.16-.21.32.32,0,0,1,0-.27h0l1-1.72h0a.34.34,0,0,1,.21-.16.42.42,0,0,1,.27,0h0l1.41.82a.2.2,0,0,0,.23,0,5.38,5.38,0,0,1,1-.79,5.33,5.33,0,0,1,1.2-.5.19.19,0,0,0,.13-.18V53a.36.36,0,0,1,.1-.25.37.37,0,0,1,.25-.1h2a.37.37,0,0,1,.25.1.36.36,0,0,1,.1.25v1.63A.19.19,0,0,0,159.47,54.8Z"/></g><path d="M110.27,133H57a7.53,7.53,0,0,1-7.53-7.54v-103A7.54,7.54,0,0,1,57,14.87h53.3a7.54,7.54,0,0,1,7.53,7.54V125.46A7.54,7.54,0,0,1,110.27,133Z"/><rect class="cls-5" x="56.22" y="22.92" width="54.8" height="91.24"/><polygon class="cls-6" points="57.73 24.43 57.73 114.15 56.22 114.15 56.22 22.92 111.02 22.92 111.02 24.43 57.73 24.43"/><rect class="cls-7" x="74.95" y="120.43" width="17.34" height="7.54"/><polygon class="cls-7" points="105.98 124.2 98.45 127.97 98.45 120.43 105.98 124.2"/><polygon class="cls-7" points="61.24 124.2 68.78 127.97 68.78 120.43 61.24 124.2"/><path class="cls-8" d="M57,14.87a7.54,7.54,0,0,0-7.53,7.54V125.46a7.53,7.53,0,0,0,.08.83L100.27,14.87Z"/><path class="cls-6" d="M174.49,72.24a66.13,66.13,0,0,1-18.07,47.44l-9.37-8.82a53.39,53.39,0,0,0-2.21-75.56l8.84-9.36A66.1,66.1,0,0,1,174.49,72.24Z"/><path class="cls-6" d="M154.53,72.82A46.17,46.17,0,0,1,141.89,106l-6.55-6.2A37.28,37.28,0,0,0,133.8,47L140,40.45A46.25,46.25,0,0,1,154.53,72.82Z"/><path class="cls-6" d="M138.16,73.3A29.92,29.92,0,0,1,130,94.76l-4.68-4.43a23.52,23.52,0,0,0-1-33.28l4.42-4.69A29.91,29.91,0,0,1,138.16,73.3Z"/></svg>