<svg id="Layer_1" data-name="Layer 1" xmlns="http://www.w3.org/2000/svg" viewBox="0 0 233 143"><defs><style>.cls-1{opacity:0.36;}.cls-2{fill:#94bfdf;}.cls-12,.cls-2,.cls-4{fill-rule:evenodd;}.cls-10,.cls-3,.cls-4{fill:#fff;}.cls-5{fill:#00c1c6;}.cls-6{fill:#003960;}.cls-7{fill:#05273a;opacity:0.61;}.cls-8{fill:#9fd7f2;opacity:0.3;}.cls-9{fill:none;stroke:#0d4e60;stroke-linecap:round;stroke-linejoin:round;}.cls-10{opacity:0.35;}.cls-11{fill:#5a3c11;}.cls-12{fill:#ff4478;}.cls-13{fill:#683c11;}.cls-14{fill:#ff491f;}.cls-15{fill:#ed3618;}.cls-16{fill:#ffe14d;}.cls-17{fill:#3c3f4d;}</style></defs><title>ecommerce</title><g class="cls-1"><path class="cls-2" d="M180.82,18.82a24.63,24.63,0,0,1,24.55,24.55h0a24.63,24.63,0,0,1-24.55,24.56h0a4.94,4.94,0,0,0-4.93,4.92h0a5,5,0,0,0,4.93,4.93h12.84a12,12,0,0,1,12,12h0a12,12,0,0,1-12,12,10.39,10.39,0,0,0-10.35,10.36h0A19,19,0,0,1,164.4,131h-111a24.63,24.63,0,0,1-24.55-24.55h0A24.63,24.63,0,0,1,53.44,81.89h2.38A5,5,0,0,0,60.75,77h0A4.94,4.94,0,0,0,55.82,72h-16a12,12,0,0,1-12-12h0a12,12,0,0,1,12-12H52.67A10.39,10.39,0,0,0,63,37.72h0a19,19,0,0,1,18.9-18.9Z"/><rect class="cls-3" x="177.21" y="113.74" width="2.51" height="2.51" rx="0.58"/><rect class="cls-3" x="172.58" y="113.74" width="2.51" height="2.51" rx="0.58"/><path class="cls-3" d="M168.53,113.74h1.34a.58.58,0,0,1,.58.58v1.34a.58.58,0,0,1-.58.58h-1.34a.59.59,0,0,1-.59-.59v-1.34A.58.58,0,0,1,168.53,113.74Z"/><rect class="cls-3" x="163.31" y="113.74" width="2.51" height="2.51" rx="0.58"/><rect class="cls-3" x="158.67" y="113.74" width="2.51" height="2.51" rx="0.58"/><rect class="cls-3" x="172.41" y="108.68" width="2.51" height="2.51" rx="0.58"/><rect class="cls-3" x="167.77" y="108.68" width="2.51" height="2.51" rx="0.58"/><path class="cls-3" d="M163.72,108.68h1.34a.59.59,0,0,1,.59.59v1.34a.58.58,0,0,1-.58.58h-1.34a.58.58,0,0,1-.58-.58v-1.34A.58.58,0,0,1,163.72,108.68Z"/><path class="cls-3" d="M168.53,119.17h1.34a.58.58,0,0,1,.58.58v1.34a.59.59,0,0,1-.59.59h-1.34a.59.59,0,0,1-.59-.59v-1.34A.58.58,0,0,1,168.53,119.17Z"/><path class="cls-3" d="M163.89,119.17h1.34a.58.58,0,0,1,.58.58v1.34a.59.59,0,0,1-.59.59h-1.34a.58.58,0,0,1-.58-.58v-1.34A.58.58,0,0,1,163.89,119.17Z"/><path class="cls-4" d="M156,68.52a.36.36,0,0,1,.36-.36.37.37,0,0,1,.37.36v1.64a.37.37,0,0,1-.37.36.36.36,0,0,1-.36-.36V68.52Zm-2.48,1.33a.36.36,0,0,1,0-.51.36.36,0,0,1,.52,0l1.15,1.15a.37.37,0,0,1,0,.52.36.36,0,0,1-.51,0l-1.16-1.16Zm-.81,2.69a.36.36,0,0,1-.36-.36.37.37,0,0,1,.36-.37h1.63a.37.37,0,0,1,.37.37.36.36,0,0,1-.37.36ZM154,75a.37.37,0,0,1-.52-.52l1.16-1.15a.36.36,0,1,1,.51.51L154,75Zm2.69.81a.37.37,0,0,1-.37.36.36.36,0,0,1-.36-.36V74.2a.36.36,0,0,1,.36-.37.37.37,0,0,1,.37.37v1.63Zm2.47-1.33a.36.36,0,0,1,0,.52.36.36,0,0,1-.51,0l-1.16-1.16a.36.36,0,0,1,0-.51.37.37,0,0,1,.52,0l1.15,1.15Zm.82-2.69a.37.37,0,0,1,.36.37.36.36,0,0,1-.36.36h-1.64a.36.36,0,0,1-.36-.36.37.37,0,0,1,.36-.37Zm-1.33-2.47a.36.36,0,0,1,.51.51L158,71a.37.37,0,0,1-.52-.52Z"/><path class="cls-4" d="M158.51,53.83v.59h.59a.45.45,0,0,1,.44.45h0a.45.45,0,0,1-.44.45h-.59v.59a.45.45,0,0,1-.45.45h0a.45.45,0,0,1-.45-.45v-.59H157a.45.45,0,0,1-.45-.45h0a.46.46,0,0,1,.45-.45h.59v-.59a.45.45,0,0,1,.45-.44h0A.45.45,0,0,1,158.51,53.83Z"/><path class="cls-4" d="M105.28,36.55v.59h.58a.45.45,0,0,1,.45.45h0a.45.45,0,0,1-.45.45h-.58v.59a.45.45,0,0,1-.45.44h0a.45.45,0,0,1-.45-.44V38h-.59a.45.45,0,0,1-.45-.45h0a.45.45,0,0,1,.45-.45h.59v-.59a.45.45,0,0,1,.45-.45h0A.46.46,0,0,1,105.28,36.55Z"/><path class="cls-4" d="M61.19,53.11v.59h.59a.45.45,0,0,1,.45.44h0a.45.45,0,0,1-.45.45h-.59v.59a.45.45,0,0,1-.45.45h0a.45.45,0,0,1-.44-.45v-.59h-.59a.45.45,0,0,1-.45-.45h0a.45.45,0,0,1,.45-.44h.59v-.59a.45.45,0,0,1,.44-.45h0A.45.45,0,0,1,61.19,53.11Z"/><path class="cls-4" d="M68.16,42.5a.36.36,0,1,1,.72,0v1.64a.36.36,0,0,1-.72,0V42.5Zm-2.48,1.33a.36.36,0,0,1,0-.51.35.35,0,0,1,.51,0l1.16,1.15a.37.37,0,0,1,0,.52.36.36,0,0,1-.51,0l-1.16-1.16Zm-.81,2.69a.37.37,0,0,1-.37-.36.38.38,0,0,1,.37-.37H66.5a.37.37,0,0,1,.36.37.36.36,0,0,1-.36.36ZM66.19,49a.36.36,0,0,1-.51,0,.37.37,0,0,1,0-.52l1.16-1.15a.35.35,0,0,1,.51,0,.36.36,0,0,1,0,.51L66.19,49Zm2.69.81a.36.36,0,1,1-.72,0V48.18a.36.36,0,1,1,.72,0v1.63Zm2.48-1.33a.37.37,0,0,1,0,.52.36.36,0,0,1-.51,0l-1.16-1.16a.36.36,0,0,1,0-.51.35.35,0,0,1,.51,0l1.16,1.15Zm.81-2.69a.38.38,0,0,1,.37.37.37.37,0,0,1-.37.36H70.54a.36.36,0,0,1-.36-.36.37.37,0,0,1,.36-.37Zm-1.32-2.47a.35.35,0,0,1,.51,0,.36.36,0,0,1,0,.51L70.2,45a.36.36,0,0,1-.51,0,.37.37,0,0,1,0-.52Z"/><path class="cls-4" d="M97.3,77.91a.36.36,0,0,1,.36-.36.37.37,0,0,1,.37.36v1.63a.38.38,0,0,1-.37.37.37.37,0,0,1-.36-.37V77.91Zm-2.48,1.33a.37.37,0,1,1,.52-.52l1.15,1.16a.35.35,0,0,1,0,.51.36.36,0,0,1-.51,0l-1.16-1.15ZM94,81.93a.37.37,0,0,1-.36-.37A.36.36,0,0,1,94,81.2h1.64a.36.36,0,0,1,.36.36.37.37,0,0,1-.36.37Zm1.33,2.47a.36.36,0,0,1-.52,0,.36.36,0,0,1,0-.51L96,82.73a.36.36,0,0,1,.51,0,.36.36,0,0,1,0,.52L95.34,84.4Zm2.69.82a.37.37,0,0,1-.37.36.36.36,0,0,1-.36-.36V83.58a.36.36,0,0,1,.36-.36.37.37,0,0,1,.37.36v1.64Zm2.48-1.33a.36.36,0,0,1,0,.51.36.36,0,0,1-.52,0l-1.16-1.15a.37.37,0,0,1,.52-.52l1.16,1.16Zm.81-2.69a.36.36,0,0,1,.36.36.37.37,0,0,1-.36.37H99.68a.37.37,0,0,1-.36-.37.36.36,0,0,1,.36-.36ZM100,78.72a.37.37,0,1,1,.52.52l-1.16,1.15a.37.37,0,0,1-.52,0,.36.36,0,0,1,0-.51Z"/><path class="cls-4" d="M174.37,21.45a.36.36,0,0,1,.72,0v1.63a.36.36,0,1,1-.72,0V21.45Zm-2.48,1.33a.37.37,0,0,1,0-.52.36.36,0,0,1,.51,0l1.16,1.16a.36.36,0,0,1-.51.51l-1.16-1.15Zm-.81,2.69a.38.38,0,0,1-.37-.37.37.37,0,0,1,.37-.36h1.63a.36.36,0,0,1,.36.36.37.37,0,0,1-.36.37Zm1.32,2.47a.36.36,0,1,1-.51-.51l1.16-1.16a.36.36,0,0,1,.51,0,.37.37,0,0,1,0,.52l-1.16,1.15Zm2.69.82a.36.36,0,0,1-.72,0V27.12a.36.36,0,0,1,.72,0v1.64Zm2.48-1.33a.36.36,0,1,1-.51.51l-1.16-1.15a.37.37,0,0,1,0-.52.36.36,0,0,1,.51,0l1.16,1.16Zm.81-2.69a.37.37,0,0,1,.37.36.38.38,0,0,1-.37.37h-1.63a.37.37,0,0,1-.36-.37.36.36,0,0,1,.36-.36Zm-1.32-2.48a.36.36,0,0,1,.51,0,.37.37,0,0,1,0,.52l-1.16,1.15a.36.36,0,0,1-.51-.51Z"/><rect class="cls-3" x="55.58" y="58.26" width="2.51" height="2.51" rx="0.58"/><rect class="cls-3" x="50.94" y="58.26" width="2.51" height="2.51" rx="0.58"/><rect class="cls-3" x="46.3" y="58.26" width="2.51" height="2.51" rx="0.58"/><rect class="cls-3" x="41.67" y="58.26" width="2.51" height="2.51" rx="0.58"/><rect class="cls-3" x="37.03" y="58.26" width="2.51" height="2.51" rx="0.58"/><rect class="cls-3" x="32.39" y="58.26" width="2.51" height="2.51" rx="0.58"/><rect class="cls-3" x="46.14" y="53.21" width="2.51" height="2.51" rx="0.58"/><rect class="cls-3" x="41.5" y="53.21" width="2.51" height="2.51" rx="0.58"/><rect class="cls-3" x="36.86" y="53.21" width="2.51" height="2.51" rx="0.58"/><rect class="cls-3" x="41.67" y="63.69" width="2.51" height="2.51" rx="0.58"/><rect class="cls-3" x="37.03" y="63.69" width="2.51" height="2.51" rx="0.58"/><path class="cls-4" d="M171.71,66.83Zm-1.58-6A3,3,0,1,0,171,63a3,3,0,0,0-.89-2.15Zm-.66-3a5.45,5.45,0,0,1,1.19.5,5.77,5.77,0,0,1,1.05.79.18.18,0,0,0,.22,0l1.41-.82h0a.39.39,0,0,1,.26,0,.34.34,0,0,1,.21.16h0l1,1.72a.37.37,0,0,1,0,.27.35.35,0,0,1-.17.21h0l-1.4.81a.18.18,0,0,0-.09.2h0a3.44,3.44,0,0,1,.12.64,4.87,4.87,0,0,1,0,.66,5.42,5.42,0,0,1-.16,1.3.2.2,0,0,0,.1.21l1.4.81h0a.33.33,0,0,1,.17.21.34.34,0,0,1,0,.26l-1,1.74h0a.35.35,0,0,1-.48.12h0l-1.4-.81a.2.2,0,0,0-.22,0,5.35,5.35,0,0,1-1.05.79,4.93,4.93,0,0,1-1.2.51.19.19,0,0,0-.13.18v1.63a.34.34,0,0,1-.35.35h-2a.34.34,0,0,1-.35-.35V68.3a.18.18,0,0,0-.14-.18,5,5,0,0,1-1.19-.51,5.35,5.35,0,0,1-1.05-.79.2.2,0,0,0-.23,0l-1.4.81a.35.35,0,0,1-.48-.12h0l-1-1.73h0a.3.3,0,0,1,0-.26.29.29,0,0,1,.16-.21l1.41-.82a.19.19,0,0,0,.09-.2h0a5.42,5.42,0,0,1-.16-1.3,4.87,4.87,0,0,1,0-.66,4.52,4.52,0,0,1,.12-.64.2.2,0,0,0-.1-.21l-1.4-.81a.31.31,0,0,1-.16-.21.32.32,0,0,1,0-.27h0l1-1.72h0a.34.34,0,0,1,.21-.16.42.42,0,0,1,.27,0h0l1.41.82a.2.2,0,0,0,.23,0,5.38,5.38,0,0,1,1-.79,5.33,5.33,0,0,1,1.2-.5.19.19,0,0,0,.13-.18V56a.36.36,0,0,1,.1-.25.37.37,0,0,1,.25-.1h2a.37.37,0,0,1,.25.1.36.36,0,0,1,.1.25v1.63A.19.19,0,0,0,169.47,57.8Z"/></g><path class="cls-5" d="M143.59,29.39c-.52,1.58.45,3.27.43,4.94-.05,3.24-3.85,5.24-7.09,5s-6.19-1.87-9.35-2.63-7.09-.29-8.71,2.52c-1.39,2.44-.46,5.57-1.29,8.25-.9,2.88-3.62,4.74-5.42,7.15a12.61,12.61,0,0,0,13.58,19.67,28.91,28.91,0,0,1,4-1.2,3.87,3.87,0,0,1,3.77,1.37c.91,1.38.36,3.19,0,4.8a16,16,0,0,0,2.57,12.25c1.59,2.24,3.82,4.18,4.43,6.86a35.54,35.54,0,0,1,.31,4.14,7,7,0,0,0,2.47,4.82,4.49,4.49,0,0,0,5.19.3,7.3,7.3,0,0,0,1.89-2.4c3.32-5.65,6.7-11.47,7.84-17.93.48-2.72.61-5.65,2.22-7.89s4.34-3.31,6.39-5.15c2.74-2.45,4.6-6.43,7.56-8.12a51.21,51.21,0,0,0-9.35-22.75,58.85,58.85,0,0,0-18.64-16.67l-.09.05A5.13,5.13,0,0,0,143.59,29.39Z"/><path class="cls-6" d="M166.9,74.28c-2.05,1.84-4.79,2.91-6.39,5.15s-1.74,5.17-2.22,7.89c-1.14,6.46-4.52,12.28-7.84,17.93a7.3,7.3,0,0,1-1.89,2.4,4.49,4.49,0,0,1-5.19-.3,7,7,0,0,1-2.47-4.82,35.54,35.54,0,0,0-.31-4.14c-.61-2.68-2.84-4.62-4.43-6.86a16,16,0,0,1-2.57-12.25c.33-1.61.88-3.42,0-4.8a3.87,3.87,0,0,0-3.77-1.37,28.91,28.91,0,0,0-4,1.2,12.61,12.61,0,0,1-13.58-19.67c1.8-2.41,4.52-4.27,5.42-7.15.83-2.68-.1-5.81,1.29-8.25,1.62-2.81,5.56-3.28,8.71-2.52s6.11,2.41,9.35,2.63,7-1.78,7.09-5c0-1.67-1-3.36-.43-4.94a5.13,5.13,0,0,1,2.79-2.6l.09-.05a59.06,59.06,0,0,0-31.81-7.68c-1,2.28-2.09,4.61-1.91,7,.09,1,.41,2.13-.06,3.05a2.74,2.74,0,0,1-1.12,1.09,4.43,4.43,0,0,1-6.07-2.29,11.92,11.92,0,0,0-.77-2.32,2.68,2.68,0,0,0-2.46-1.19,3.23,3.23,0,0,0-2.8,4.74c.26.51.53,1,.75,1.55.71,1.66.92,3.83-.4,5.07a4.72,4.72,0,0,1-1.94,1,5.29,5.29,0,0,0-3.53,6.18c.44,1.83,1.21,3.67.85,5.51-.72,3.7-5.25,5-8,7.53-2.38,2.14-3.72,5.47-6.59,6.88s-6.93,1-7.92,4.06a3.81,3.81,0,0,0,.68,3.48c1.86,2.42,4.85,2.89,7.22,4.44a12.9,12.9,0,0,0,2.89,1.77c2.59.83,5.14-1.18,7.25-2.91s5.14-3.32,7.38-1.77c1,.72,1.58,2,2.53,2.78,2.35,2.08,6.15,1,9,2.41s4,5.14,3.4,8.29-2.51,5.88-4.38,8.49L104.18,100a8.24,8.24,0,0,0-1.55,2.92c-.42,1.86.45,3.8.12,5.68-.28,1.63-1.43,3-1.92,4.56-1.15,3.7,1.44,8-.35,11.45-4.39-4.68-9-10-9.25-16.37-.06-1.88.27-3.8-.09-5.65-.61-3.15-3.09-5.54-5-8.11s-3.39-6.13-1.77-8.91A7,7,0,0,0,85.19,84c.49-1.73-1.42-3.22-3.18-3.59s-3.72-.26-5.16-1.34A14.75,14.75,0,0,1,75,77c-2.62-2.95-7.47-3.77-9-7.4-1.83-4.27,2.29-9.34.62-13.68a6.49,6.49,0,0,0-.63-1.23c-.68,1.65-1.29,3.35-1.83,5.08a65.19,65.19,0,0,0-2.5,26.31,53.43,53.43,0,0,0,5.09,19.5c6.89,14.3,20.44,22.2,34.77,25.47,15.87,3.63,32.83,3.14,46.58-7,18.19-13.37,29.64-36,26.43-57.91C171.5,67.85,169.64,71.83,166.9,74.28Z"/><path class="cls-5" d="M65.93,69.59c1.56,3.63,6.41,4.45,9,7.4a14.75,14.75,0,0,0,1.89,2.12c1.44,1.08,3.41,1,5.16,1.34s3.67,1.86,3.18,3.59a7,7,0,0,1-.84,1.51c-1.62,2.78-.16,6.34,1.77,8.91s4.41,5,5,8.11c.36,1.85,0,3.77.09,5.65.21,6.41,4.86,11.69,9.25,16.37,1.79-3.43-.8-7.75.35-11.45.49-1.58,1.64-2.93,1.92-4.56.33-1.88-.54-3.82-.12-5.68a8.24,8.24,0,0,1,1.55-2.92l4.41-6.16c1.87-2.61,3.78-5.33,4.38-8.49s-.52-6.88-3.4-8.29-6.62-.33-9-2.41c-.95-.83-1.5-2.06-2.53-2.78-2.24-1.55-5.27.05-7.38,1.77S86,77.36,83.44,76.53a12.9,12.9,0,0,1-2.89-1.77c-2.37-1.55-5.36-2-7.22-4.44a3.81,3.81,0,0,1-.68-3.48c1-3.05,5.14-2.69,7.92-4.06S84.78,58,87.16,55.9c2.79-2.53,7.32-3.83,8-7.53.36-1.84-.41-3.68-.85-5.51a5.29,5.29,0,0,1,3.53-6.18,4.72,4.72,0,0,0,1.94-1c1.32-1.24,1.11-3.41.4-5.07-.22-.52-.49-1-.75-1.55a3.23,3.23,0,0,1,2.8-4.74,2.68,2.68,0,0,1,2.46,1.19,11.92,11.92,0,0,1,.77,2.32,4.43,4.43,0,0,0,6.07,2.29,2.74,2.74,0,0,0,1.12-1.09c.47-.92.15-2,.06-3.05-.18-2.35.93-4.68,1.91-7a52.4,52.4,0,0,0-25.07,7.65,59.47,59.47,0,0,0-23.67,28,6.49,6.49,0,0,1,.63,1.23C68.22,60.25,64.1,65.32,65.93,69.59Z"/><path class="cls-7" d="M163.06,45A57.13,57.13,0,0,1,63.25,99.38,57.13,57.13,0,1,0,163.06,45Z"/><path class="cls-8" d="M71.5,47.63a58.26,58.26,0,0,1,25-21.11,24.88,24.88,0,0,1,7.07-2.13,11.64,11.64,0,0,1,7.18,1.3,3.43,3.43,0,0,1,1.87,2.3c.21,1.61-1.4,2.81-2.81,3.61-8.72,5-17.75,9.73-24.87,16.81a18.32,18.32,0,0,0-2.79,3.36c-.62,1-1.07,2.14-1.73,3.13A13.24,13.24,0,0,1,76,58.78a10.1,10.1,0,0,1-4,1.51A4.55,4.55,0,0,1,68.17,59C65.54,56.05,69.89,50.07,71.5,47.63Z"/><path class="cls-9" d="M64.54,48.4a56.43,56.43,0,0,1,6.85-9.06"/><path class="cls-9" d="M64.58,45.54a41.05,41.05,0,0,1,3.77-4.94"/><path class="cls-9" d="M65.15,42.78l.7-.71"/><path class="cls-9" d="M163.64,112.29a38.38,38.38,0,0,1-8,7.52"/><path class="cls-9" d="M163.87,114.26a14.36,14.36,0,0,1-5.42,5.57"/><path class="cls-9" d="M163,117.62a10.64,10.64,0,0,1-1.26,1.07"/><path class="cls-9" d="M163.45,42a22.91,22.91,0,0,1,3.26,6.21"/><path class="cls-9" d="M165.56,43.14,166.92,46"/><ellipse class="cls-10" cx="114.5" cy="75.5" rx="39.5" ry="33.5"/><path class="cls-11" d="M109.05,76.2a4.73,4.73,0,0,0,3.54,4.51,5.7,5.7,0,0,0,5.58-1.2,4.58,4.58,0,0,0,1.25-3.31.63.63,0,0,0-1.25,0,3.3,3.3,0,0,1-2.59,3.37,4.67,4.67,0,0,1-4.29-1,3.25,3.25,0,0,1-1-2.39.63.63,0,0,0-1.25,0Z"/><path d="M106.59,72.71a6.18,6.18,0,1,0-6.17-6.17,6.24,6.24,0,0,0,6.17,6.17Z"/><path d="M121.88,72.71a6.18,6.18,0,1,0-6.18-6.17,6.24,6.24,0,0,0,6.18,6.17Z"/><circle class="cls-3" cx="109.03" cy="64.89" r="1.5"/><circle class="cls-3" cx="124.53" cy="64.39" r="1.5"/><path class="cls-12" d="M104,74.35c0,1.82-1.83,3.3-4.08,3.3s-4.07-1.48-4.07-3.3,1.82-3.29,4.07-3.29S104,72.53,104,74.35Z"/><path class="cls-12" d="M132.6,74.35c0,1.82-1.82,3.3-4.07,3.3s-4.08-1.48-4.08-3.3,1.82-3.29,4.08-3.29S132.6,72.53,132.6,74.35Z"/><path class="cls-13" d="M60,81c-11.42,9.25-1.64,26.62,11,28.11a2.47,2.47,0,0,0,2.47-2.46A2.54,2.54,0,0,0,71,104.14c.39,0-.41-.08-.5-.1a8.46,8.46,0,0,1-.9-.23,7.79,7.79,0,0,1-1.19-.42,16.49,16.49,0,0,1-2.84-1.67A15.7,15.7,0,0,1,61,96.23a10.67,10.67,0,0,1-1.18-5.89,9,9,0,0,1,3.67-5.89,2.49,2.49,0,0,0,0-3.49A2.53,2.53,0,0,0,60,81Z"/><path class="cls-13" d="M71,107.3a9.1,9.1,0,0,0,1.16-.21l.93-.26a12.69,12.69,0,0,1,1.69-.43l-.46.06h0a1.29,1.29,0,0,0,.67-.15,1.24,1.24,0,0,0,.55-.35,1.78,1.78,0,0,0,.51-1.23,1.75,1.75,0,0,0-.51-1.22,1.67,1.67,0,0,0-1.22-.51,9.12,9.12,0,0,0-1.16.22l-.93.26a12.31,12.31,0,0,1-1.69.43l.46-.06h0a1.33,1.33,0,0,0-.66.14,1.29,1.29,0,0,0-.56.36,1.73,1.73,0,0,0,0,2.45,1.66,1.66,0,0,0,1.22.5Z"/><path class="cls-13" d="M70,108c.28.1.57.2.84.32l-.41-.18a22.21,22.21,0,0,1,3.71,2.17,1.72,1.72,0,0,0,1.33.17,1.73,1.73,0,0,0,.42-3.16,20.14,20.14,0,0,0-5-2.65,1.74,1.74,0,0,0-2.13,1.21A1.77,1.77,0,0,0,70,108Z"/><path class="cls-13" d="M69,107.22c.15.32.29.65.43,1l-.17-.41c.63,1.5,1.15,3,1.84,4.51a1.73,1.73,0,0,0,1,.79,1.77,1.77,0,0,0,1.33-.17,1.74,1.74,0,0,0,.8-1,2,2,0,0,0-.18-1.33c-.15-.32-.3-.65-.44-1l.18.41c-.63-1.5-1.15-3-1.85-4.51a1.71,1.71,0,0,0-1-.79,1.76,1.76,0,0,0-1.33.17,1.74,1.74,0,0,0-.8,1,1.93,1.93,0,0,0,.18,1.33Z"/><path class="cls-13" d="M68.67,105.89a7.11,7.11,0,0,0-1,5.62,1.75,1.75,0,0,0,2.13,1.21A1.77,1.77,0,0,0,71,110.59a3.69,3.69,0,0,1-.11-.56l.06.46a5,5,0,0,1,0-1.28l-.06.46a5.48,5.48,0,0,1,.39-1.44l-.18.41a7.58,7.58,0,0,1,.55-1,1.76,1.76,0,0,0,.18-1.33,1.83,1.83,0,0,0-.8-1,1.77,1.77,0,0,0-2.37.62Z"/><path class="cls-14" d="M193,131H136.9l5.69-54.79h44.68l.95,9.14Z"/><path class="cls-15" d="M165.69,93.92h31.06l4,37.08h-39Z"/><path class="cls-16" d="M168.8,93.92h31.06l4,37.08h-39Z"/><path class="cls-17" d="M177,82.68a1.11,1.11,0,0,1-1.11-1.11v-11a10.95,10.95,0,1,0-21.9,0v11a1.11,1.11,0,0,1-2.22,0v-11a13.17,13.17,0,1,1,26.34,0v11A1.11,1.11,0,0,1,177,82.68Z"/><path class="cls-17" d="M184.33,116.2a8.32,8.32,0,0,1-8.31-8.31v-7.2a1.11,1.11,0,1,1,2.22,0v7.2a6.09,6.09,0,0,0,12.18,0v-7.2a1.11,1.11,0,1,1,2.22,0v7.2A8.32,8.32,0,0,1,184.33,116.2Z"/><path class="cls-13" d="M171,74.39a9,9,0,0,1,3.66,5.9,12.47,12.47,0,0,1-.12,2.77,11.86,11.86,0,0,1-1.06,3.11A15.7,15.7,0,0,1,169,91.66a16.5,16.5,0,0,1-2.84,1.68,10,10,0,0,1-1.18.42l-.77.2c-.09,0-1,.17-.64.13a2.53,2.53,0,0,0-2.46,2.46A2.49,2.49,0,0,0,163.55,99c12.61-1.5,22.39-18.87,11-28.11a2.54,2.54,0,0,0-3.49,0,2.47,2.47,0,0,0,0,3.48Z"/><path class="cls-13" d="M163.54,93.79h0l.46.07a13.51,13.51,0,0,1-1.69-.44l-.94-.26a8.94,8.94,0,0,0-1.15-.21,1.72,1.72,0,0,0-1.23.5,1.77,1.77,0,0,0-.5,1.23,1.74,1.74,0,0,0,.5,1.22l.35.27a1.79,1.79,0,0,0,.88.24h0l-.46-.06a12,12,0,0,1,1.69.43l.94.27a11.08,11.08,0,0,0,1.15.21,1.78,1.78,0,0,0,1.23-.51,1.74,1.74,0,0,0,.5-1.22,1.77,1.77,0,0,0-.5-1.23l-.35-.27a1.78,1.78,0,0,0-.88-.23Z"/><path class="cls-13" d="M163.61,94.62a19.67,19.67,0,0,0-5,2.66,1.83,1.83,0,0,0-.8,1,1.77,1.77,0,0,0,.18,1.33,1.75,1.75,0,0,0,1,.8,1.71,1.71,0,0,0,1.33-.18,23,23,0,0,1,3.72-2.17l-.42.18a8.64,8.64,0,0,1,.85-.31,1.86,1.86,0,0,0,1-.8,1.72,1.72,0,0,0,.17-1.33,1.74,1.74,0,0,0-2.12-1.21Z"/><path class="cls-13" d="M162.57,95.41c-.7,1.47-1.21,3-1.84,4.51l.17-.41c-.14.33-.28.65-.44,1a1.89,1.89,0,0,0-.17,1.34,1.77,1.77,0,0,0,.79,1,1.75,1.75,0,0,0,2.37-.62c.7-1.47,1.22-3,1.85-4.51l-.18.42c.14-.33.29-.66.44-1a1.87,1.87,0,0,0,.17-1.33,1.79,1.79,0,0,0-.79-1,1.77,1.77,0,0,0-2.37.62Z"/><path class="cls-13" d="M162.85,97.58a5.74,5.74,0,0,1,.55,1l-.17-.41a5.9,5.9,0,0,1,.39,1.44l-.06-.46a5.48,5.48,0,0,1,0,1.28l.06-.46a5,5,0,0,1-.11.56,1.84,1.84,0,0,0,.17,1.34,1.74,1.74,0,0,0,3.17-.42,7.08,7.08,0,0,0-1-5.62,1.8,1.8,0,0,0-1-.79,1.71,1.71,0,0,0-1.33.17,1.75,1.75,0,0,0-.8,1,1.79,1.79,0,0,0,.17,1.34Z"/></svg>