<svg id="Layer_1" data-name="Layer 1" xmlns="http://www.w3.org/2000/svg" xmlns:xlink="http://www.w3.org/1999/xlink" viewBox="0 0 213 143"><defs><style>.cls-1{opacity:0.36;}.cls-2{fill:#94bfdf;}.cls-2,.cls-4{fill-rule:evenodd;}.cls-3,.cls-4{fill:#fff;}.cls-5{fill:#ff491f;}.cls-6{fill:#ed3618;}.cls-7{fill:#ffe14d;}.cls-8{fill:#3c3f4d;}.cls-9{fill:#697c86;}.cls-10{fill:#465a61;}.cls-11{fill:#596c76;}.cls-12{fill:#3b4a51;}.cls-13{fill:#8ecaea;}.cls-14{fill:#04608d;}</style></defs><title>ecommerce</title><image width="2550" height="3300" transform="translate(-737 -36) scale(0.31)" xlink:href="../../../../16-12-19/framephonefianll.png"/><g class="cls-1"><path class="cls-2" d="M170.82,17.82a24.63,24.63,0,0,1,24.55,24.55h0a24.63,24.63,0,0,1-24.55,24.56h0a4.94,4.94,0,0,0-4.93,4.92h0a5,5,0,0,0,4.93,4.93h12.84a12,12,0,0,1,12,12h0a12,12,0,0,1-12,12,10.39,10.39,0,0,0-10.35,10.36h0A19,19,0,0,1,154.4,130h-111a24.63,24.63,0,0,1-24.55-24.55h0A24.63,24.63,0,0,1,43.44,80.89h2.38A5,5,0,0,0,50.75,76h0A4.94,4.94,0,0,0,45.82,71h-16a12,12,0,0,1-12-12h0a12,12,0,0,1,12-12H42.67A10.39,10.39,0,0,0,53,36.72h0a19,19,0,0,1,18.9-18.9Z"/><rect class="cls-3" x="167.21" y="112.74" width="2.51" height="2.51" rx="0.58"/><rect class="cls-3" x="162.58" y="112.74" width="2.51" height="2.51" rx="0.58"/><path class="cls-3" d="M158.53,112.74h1.34a.58.58,0,0,1,.58.58v1.34a.58.58,0,0,1-.58.58h-1.34a.59.59,0,0,1-.59-.59v-1.34A.58.58,0,0,1,158.53,112.74Z"/><rect class="cls-3" x="153.31" y="112.74" width="2.51" height="2.51" rx="0.58"/><rect class="cls-3" x="148.67" y="112.74" width="2.51" height="2.51" rx="0.58"/><rect class="cls-3" x="162.41" y="107.68" width="2.51" height="2.51" rx="0.58"/><rect class="cls-3" x="157.77" y="107.68" width="2.51" height="2.51" rx="0.58"/><path class="cls-3" d="M153.72,107.68h1.34a.59.59,0,0,1,.59.59v1.34a.58.58,0,0,1-.58.58h-1.34a.58.58,0,0,1-.58-.58v-1.34A.58.58,0,0,1,153.72,107.68Z"/><path class="cls-3" d="M158.53,118.17h1.34a.58.58,0,0,1,.58.58v1.34a.59.59,0,0,1-.59.59h-1.34a.59.59,0,0,1-.59-.59v-1.34A.58.58,0,0,1,158.53,118.17Z"/><path class="cls-3" d="M153.89,118.17h1.34a.58.58,0,0,1,.58.58v1.34a.59.59,0,0,1-.59.59h-1.34a.58.58,0,0,1-.58-.58v-1.34A.58.58,0,0,1,153.89,118.17Z"/><path class="cls-4" d="M146,67.52a.36.36,0,0,1,.36-.36.37.37,0,0,1,.37.36v1.64a.37.37,0,0,1-.37.36.36.36,0,0,1-.36-.36V67.52Zm-2.48,1.33a.36.36,0,0,1,0-.51.36.36,0,0,1,.52,0l1.15,1.15a.37.37,0,0,1,0,.52.36.36,0,0,1-.51,0l-1.16-1.16Zm-.81,2.69a.36.36,0,0,1-.36-.36.37.37,0,0,1,.36-.37h1.63a.37.37,0,0,1,.37.37.36.36,0,0,1-.37.36ZM144,74a.37.37,0,0,1-.52-.52l1.16-1.15a.36.36,0,1,1,.51.51L144,74Zm2.69.81a.37.37,0,0,1-.37.36.36.36,0,0,1-.36-.36V73.2a.36.36,0,0,1,.36-.37.37.37,0,0,1,.37.37v1.63Zm2.47-1.33a.36.36,0,0,1,0,.52.36.36,0,0,1-.51,0l-1.16-1.16a.36.36,0,0,1,0-.51.37.37,0,0,1,.52,0l1.15,1.15Zm.82-2.69a.37.37,0,0,1,.36.37.36.36,0,0,1-.36.36h-1.64a.36.36,0,0,1-.36-.36.37.37,0,0,1,.36-.37Zm-1.33-2.47a.36.36,0,0,1,.51.51L148,70a.37.37,0,0,1-.52-.52Z"/><path class="cls-4" d="M148.51,52.83v.59h.59a.45.45,0,0,1,.44.45h0a.45.45,0,0,1-.44.45h-.59v.59a.45.45,0,0,1-.45.45h0a.45.45,0,0,1-.45-.45v-.59H147a.45.45,0,0,1-.45-.45h0a.46.46,0,0,1,.45-.45h.59v-.59a.45.45,0,0,1,.45-.44h0A.45.45,0,0,1,148.51,52.83Z"/><path class="cls-4" d="M95.28,35.55v.59h.58a.45.45,0,0,1,.45.45h0a.45.45,0,0,1-.45.45h-.58v.59a.45.45,0,0,1-.45.44h0a.45.45,0,0,1-.45-.44V37h-.59a.45.45,0,0,1-.45-.45h0a.45.45,0,0,1,.45-.45h.59v-.59a.45.45,0,0,1,.45-.45h0A.46.46,0,0,1,95.28,35.55Z"/><path class="cls-4" d="M51.19,52.11v.59h.59a.45.45,0,0,1,.45.44h0a.45.45,0,0,1-.45.45h-.59v.59a.45.45,0,0,1-.45.45h0a.45.45,0,0,1-.44-.45v-.59h-.59a.45.45,0,0,1-.45-.45h0a.45.45,0,0,1,.45-.44h.59v-.59a.45.45,0,0,1,.44-.45h0A.45.45,0,0,1,51.19,52.11Z"/><path class="cls-4" d="M58.16,41.5a.36.36,0,0,1,.72,0v1.64a.36.36,0,1,1-.72,0V41.5Zm-2.48,1.33a.36.36,0,0,1,0-.51.35.35,0,0,1,.51,0l1.16,1.15a.37.37,0,0,1,0,.52.36.36,0,0,1-.51,0l-1.16-1.16Zm-.81,2.69a.37.37,0,0,1-.37-.36.38.38,0,0,1,.37-.37H56.5a.37.37,0,0,1,.36.37.36.36,0,0,1-.36.36ZM56.19,48a.36.36,0,0,1-.51,0,.37.37,0,0,1,0-.52l1.16-1.15a.35.35,0,0,1,.51,0,.36.36,0,0,1,0,.51L56.19,48Zm2.69.81a.36.36,0,1,1-.72,0V47.18a.36.36,0,1,1,.72,0v1.63Zm2.48-1.33a.37.37,0,0,1,0,.52.36.36,0,0,1-.51,0l-1.16-1.16a.36.36,0,0,1,0-.51.35.35,0,0,1,.51,0l1.16,1.15Zm.81-2.69a.38.38,0,0,1,.37.37.37.37,0,0,1-.37.36H60.54a.36.36,0,0,1-.36-.36.37.37,0,0,1,.36-.37Zm-1.32-2.47a.35.35,0,0,1,.51,0,.36.36,0,0,1,0,.51L60.2,44a.36.36,0,0,1-.51,0,.37.37,0,0,1,0-.52Z"/><path class="cls-4" d="M87.3,76.91a.36.36,0,0,1,.36-.36.37.37,0,0,1,.37.36v1.63a.38.38,0,0,1-.37.37.37.37,0,0,1-.36-.37V76.91Zm-2.48,1.33a.37.37,0,1,1,.52-.52l1.15,1.16a.35.35,0,0,1,0,.51.36.36,0,0,1-.51,0l-1.16-1.15ZM84,80.93a.37.37,0,0,1-.36-.37A.36.36,0,0,1,84,80.2h1.64a.36.36,0,0,1,.36.36.37.37,0,0,1-.36.37Zm1.33,2.47a.36.36,0,0,1-.52,0,.36.36,0,0,1,0-.51L86,81.73a.36.36,0,0,1,.51,0,.36.36,0,0,1,0,.52L85.34,83.4Zm2.69.82a.37.37,0,0,1-.37.36.36.36,0,0,1-.36-.36V82.58a.36.36,0,0,1,.36-.36.37.37,0,0,1,.37.36v1.64Zm2.48-1.33a.36.36,0,0,1,0,.51.36.36,0,0,1-.52,0l-1.16-1.15a.37.37,0,0,1,.52-.52l1.16,1.16Zm.81-2.69a.36.36,0,0,1,.36.36.37.37,0,0,1-.36.37H89.68a.37.37,0,0,1-.36-.37.36.36,0,0,1,.36-.36ZM90,77.72a.37.37,0,1,1,.52.52l-1.16,1.15a.37.37,0,0,1-.52,0,.36.36,0,0,1,0-.51Z"/><path class="cls-4" d="M164.37,20.45a.36.36,0,0,1,.72,0v1.63a.36.36,0,1,1-.72,0V20.45Zm-2.48,1.33a.37.37,0,0,1,0-.52.36.36,0,0,1,.51,0l1.16,1.16a.36.36,0,0,1-.51.51l-1.16-1.15Zm-.81,2.69a.38.38,0,0,1-.37-.37.37.37,0,0,1,.37-.36h1.63a.36.36,0,0,1,.36.36.37.37,0,0,1-.36.37Zm1.32,2.47a.36.36,0,1,1-.51-.51l1.16-1.16a.36.36,0,0,1,.51,0,.37.37,0,0,1,0,.52l-1.16,1.15Zm2.69.82a.36.36,0,0,1-.72,0V26.12a.36.36,0,0,1,.72,0v1.64Zm2.48-1.33a.36.36,0,1,1-.51.51l-1.16-1.15a.37.37,0,0,1,0-.52.36.36,0,0,1,.51,0l1.16,1.16Zm.81-2.69a.37.37,0,0,1,.37.36.38.38,0,0,1-.37.37h-1.63a.37.37,0,0,1-.36-.37.36.36,0,0,1,.36-.36Zm-1.32-2.48a.36.36,0,0,1,.51,0,.37.37,0,0,1,0,.52l-1.16,1.15a.36.36,0,0,1-.51-.51Z"/><rect class="cls-3" x="45.58" y="57.26" width="2.51" height="2.51" rx="0.58"/><rect class="cls-3" x="40.94" y="57.26" width="2.51" height="2.51" rx="0.58"/><rect class="cls-3" x="36.3" y="57.26" width="2.51" height="2.51" rx="0.58"/><rect class="cls-3" x="31.67" y="57.26" width="2.51" height="2.51" rx="0.58"/><rect class="cls-3" x="27.03" y="57.26" width="2.51" height="2.51" rx="0.58"/><rect class="cls-3" x="22.39" y="57.26" width="2.51" height="2.51" rx="0.58"/><rect class="cls-3" x="36.14" y="52.21" width="2.51" height="2.51" rx="0.58"/><rect class="cls-3" x="31.5" y="52.21" width="2.51" height="2.51" rx="0.58"/><rect class="cls-3" x="26.86" y="52.21" width="2.51" height="2.51" rx="0.58"/><rect class="cls-3" x="31.67" y="62.69" width="2.51" height="2.51" rx="0.58"/><rect class="cls-3" x="27.03" y="62.69" width="2.51" height="2.51" rx="0.58"/><path class="cls-4" d="M161.71,65.83Zm-1.58-6A3,3,0,1,0,161,62a3,3,0,0,0-.89-2.15Zm-.66-3a5.45,5.45,0,0,1,1.19.5,5.77,5.77,0,0,1,1.05.79.18.18,0,0,0,.22,0l1.41-.82h0a.39.39,0,0,1,.26,0,.34.34,0,0,1,.21.16h0l1,1.72a.37.37,0,0,1,0,.27.35.35,0,0,1-.17.21h0l-1.4.81a.18.18,0,0,0-.09.2h0a3.44,3.44,0,0,1,.12.64,4.87,4.87,0,0,1,0,.66,5.42,5.42,0,0,1-.16,1.3.2.2,0,0,0,.1.21l1.4.81h0a.33.33,0,0,1,.17.21.34.34,0,0,1,0,.26l-1,1.74h0a.35.35,0,0,1-.48.12h0l-1.4-.81a.2.2,0,0,0-.22,0,5.35,5.35,0,0,1-1.05.79,4.93,4.93,0,0,1-1.2.51.19.19,0,0,0-.13.18v1.63a.34.34,0,0,1-.35.35h-2a.34.34,0,0,1-.35-.35V67.3a.18.18,0,0,0-.14-.18,5,5,0,0,1-1.19-.51,5.35,5.35,0,0,1-1.05-.79.2.2,0,0,0-.23,0l-1.4.81a.35.35,0,0,1-.48-.12h0l-1-1.73h0a.3.3,0,0,1,0-.26.29.29,0,0,1,.16-.21l1.41-.82a.19.19,0,0,0,.09-.2h0a5.42,5.42,0,0,1-.16-1.3,4.87,4.87,0,0,1,0-.66,4.52,4.52,0,0,1,.12-.64.2.2,0,0,0-.1-.21l-1.4-.81a.31.31,0,0,1-.16-.21.32.32,0,0,1,0-.27h0l1-1.72h0a.34.34,0,0,1,.21-.16.42.42,0,0,1,.27,0h0l1.41.82a.2.2,0,0,0,.23,0,5.38,5.38,0,0,1,1-.79,5.33,5.33,0,0,1,1.2-.5.19.19,0,0,0,.13-.18V55a.36.36,0,0,1,.1-.25.37.37,0,0,1,.25-.1h2a.37.37,0,0,1,.25.1.36.36,0,0,1,.1.25v1.63A.19.19,0,0,0,159.47,56.8Z"/></g><path class="cls-5" d="M136.46,86.72h-59l6-57.63h47l1,9.62Z"/><path class="cls-6" d="M107.77,47.73h32.67l4.17,39h-41Z"/><path class="cls-7" d="M111,47.73h32.67l4.16,39h-41Z"/><path class="cls-8" d="M119.65,35.9a1.16,1.16,0,0,1-1.16-1.17V23.11a11.52,11.52,0,0,0-23,0V34.73a1.17,1.17,0,1,1-2.33,0V23.11a13.85,13.85,0,1,1,27.69,0V34.73A1.17,1.17,0,0,1,119.65,35.9Z"/><path class="cls-8" d="M127.38,71.15a8.75,8.75,0,0,1-8.74-8.74V54.84a1.17,1.17,0,1,1,2.33,0v7.57a6.41,6.41,0,1,0,12.81,0V54.84a1.17,1.17,0,0,1,2.34,0v7.57A8.75,8.75,0,0,1,127.38,71.15Z"/><path class="cls-9" d="M123.67,128a9.06,9.06,0,1,1,9.06,9A9.07,9.07,0,0,1,123.67,128Z"/><path class="cls-10" d="M129.71,128a3,3,0,1,1,3,3A3,3,0,0,1,129.71,128Z"/><path class="cls-11" d="M81,128a9.06,9.06,0,1,1,9.06,9A9.07,9.07,0,0,1,81,128Z"/><path class="cls-12" d="M87.06,128a3,3,0,1,1,3,3A3,3,0,0,1,87.06,128Z"/><path class="cls-10" d="M83.56,112.86H141.3a3,3,0,0,0,0-6h-.12l-1.81-5.25a2.78,2.78,0,0,1,1.93-.78,4,4,0,0,1,1.21.12,8.94,8.94,0,0,1,7.84,8.93,9,9,0,0,1-9,9H83.56a3,3,0,1,1,0-6Z"/><path class="cls-10" d="M153.26,52.5h15.68a3,3,0,1,0,0-6H150.83a3,3,0,0,0-2.94,2.37l-2.66,12.07a2.91,2.91,0,0,0,0,.78c3.27-1.44,6.52-2.9,6.71-3.14Z"/><path class="cls-12" d="M83.56,112.86H112v6H83.56a3,3,0,1,1,0-6Z"/><path class="cls-13" d="M69.07,62.4l12.07,42.25a3,3,0,0,0,2.9,2.17h57.14l1.33-5.91,9.41-42.37H72a3,3,0,0,0-2.41,1.21A3.14,3.14,0,0,0,69.07,62.4Z"/><path class="cls-14" d="M69.56,59.75A3,3,0,0,1,72,58.54h40v48.28H84a3,3,0,0,1-2.9-2.17L69.07,62.4A3.14,3.14,0,0,1,69.56,59.75Z"/></svg>