<svg id="Layer_1" data-name="Layer 1" xmlns="http://www.w3.org/2000/svg" viewBox="0 0 213 143"><defs><style>.cls-1{opacity:0.36;}.cls-2{fill:#94bfdf;}.cls-2,.cls-4{fill-rule:evenodd;}.cls-3,.cls-4{fill:#fff;}.cls-5{fill:#ffc473;}.cls-6{fill:#ffdba9;}.cls-7{fill:#00a99d;}.cls-8{fill:#006837;}.cls-9{fill:#fbb03b;}.cls-10{fill:#ffdaa9;}</style></defs><title>ecommerce</title><g class="cls-1"><path class="cls-2" d="M174.82,20.82a24.63,24.63,0,0,1,24.55,24.55h0a24.63,24.63,0,0,1-24.55,24.56h0a4.94,4.94,0,0,0-4.93,4.92h0a5,5,0,0,0,4.93,4.93h12.84a12,12,0,0,1,12,12h0a12,12,0,0,1-12,12,10.39,10.39,0,0,0-10.35,10.36h0A19,19,0,0,1,158.4,133h-111a24.63,24.63,0,0,1-24.55-24.55h0A24.63,24.63,0,0,1,47.44,83.89h2.38A5,5,0,0,0,54.75,79h0A4.94,4.94,0,0,0,49.82,74h-16a12,12,0,0,1-12-12h0a12,12,0,0,1,12-12H46.67A10.39,10.39,0,0,0,57,39.72h0a19,19,0,0,1,18.9-18.9Z"/><rect class="cls-3" x="171.21" y="115.74" width="2.51" height="2.51" rx="0.58"/><rect class="cls-3" x="166.58" y="115.74" width="2.51" height="2.51" rx="0.58"/><path class="cls-3" d="M162.53,115.74h1.34a.58.58,0,0,1,.58.58v1.34a.58.58,0,0,1-.58.58h-1.34a.59.59,0,0,1-.59-.59v-1.34A.58.58,0,0,1,162.53,115.74Z"/><rect class="cls-3" x="157.31" y="115.74" width="2.51" height="2.51" rx="0.58"/><rect class="cls-3" x="152.67" y="115.74" width="2.51" height="2.51" rx="0.58"/><rect class="cls-3" x="166.41" y="110.68" width="2.51" height="2.51" rx="0.58"/><rect class="cls-3" x="161.77" y="110.68" width="2.51" height="2.51" rx="0.58"/><path class="cls-3" d="M157.72,110.68h1.34a.59.59,0,0,1,.59.59v1.34a.58.58,0,0,1-.58.58h-1.34a.58.58,0,0,1-.58-.58v-1.34A.58.58,0,0,1,157.72,110.68Z"/><path class="cls-3" d="M162.53,121.17h1.34a.58.58,0,0,1,.58.58v1.34a.59.59,0,0,1-.59.59h-1.34a.59.59,0,0,1-.59-.59v-1.34A.58.58,0,0,1,162.53,121.17Z"/><path class="cls-3" d="M157.89,121.17h1.34a.58.58,0,0,1,.58.58v1.34a.59.59,0,0,1-.59.59h-1.34a.58.58,0,0,1-.58-.58v-1.34A.58.58,0,0,1,157.89,121.17Z"/><path class="cls-4" d="M150,70.52a.36.36,0,0,1,.36-.36.37.37,0,0,1,.37.36v1.64a.37.37,0,0,1-.37.36.36.36,0,0,1-.36-.36V70.52Zm-2.48,1.33a.36.36,0,0,1,0-.51.36.36,0,0,1,.52,0l1.15,1.15a.37.37,0,0,1,0,.52.36.36,0,0,1-.51,0l-1.16-1.16Zm-.81,2.69a.36.36,0,0,1-.36-.36.37.37,0,0,1,.36-.37h1.63a.37.37,0,0,1,.37.37.36.36,0,0,1-.37.36ZM148,77a.37.37,0,0,1-.52-.52l1.16-1.15a.36.36,0,1,1,.51.51L148,77Zm2.69.81a.37.37,0,0,1-.37.36.36.36,0,0,1-.36-.36V76.2a.36.36,0,0,1,.36-.37.37.37,0,0,1,.37.37v1.63Zm2.47-1.33a.36.36,0,0,1,0,.52.36.36,0,0,1-.51,0l-1.16-1.16a.36.36,0,0,1,0-.51.37.37,0,0,1,.52,0l1.15,1.15Zm.82-2.69a.37.37,0,0,1,.36.37.36.36,0,0,1-.36.36h-1.64a.36.36,0,0,1-.36-.36.37.37,0,0,1,.36-.37Zm-1.33-2.47a.36.36,0,0,1,.51.51L152,73a.37.37,0,0,1-.52-.52Z"/><path class="cls-4" d="M152.51,55.83v.59h.59a.45.45,0,0,1,.44.45h0a.45.45,0,0,1-.44.45h-.59v.59a.45.45,0,0,1-.45.45h0a.45.45,0,0,1-.45-.45v-.59H151a.45.45,0,0,1-.45-.45h0a.46.46,0,0,1,.45-.45h.59v-.59a.45.45,0,0,1,.45-.44h0A.45.45,0,0,1,152.51,55.83Z"/><path class="cls-4" d="M99.28,38.55v.59h.58a.45.45,0,0,1,.45.45h0a.45.45,0,0,1-.45.45h-.58v.59a.45.45,0,0,1-.45.44h0a.45.45,0,0,1-.45-.44V40h-.59a.45.45,0,0,1-.45-.45h0a.45.45,0,0,1,.45-.45h.59v-.59a.45.45,0,0,1,.45-.45h0A.46.46,0,0,1,99.28,38.55Z"/><path class="cls-4" d="M55.19,55.11v.59h.59a.45.45,0,0,1,.45.44h0a.45.45,0,0,1-.45.45h-.59v.59a.45.45,0,0,1-.45.45h0a.45.45,0,0,1-.44-.45v-.59h-.59a.45.45,0,0,1-.45-.45h0a.45.45,0,0,1,.45-.44h.59v-.59a.45.45,0,0,1,.44-.45h0A.45.45,0,0,1,55.19,55.11Z"/><path class="cls-4" d="M62.16,44.5a.36.36,0,0,1,.72,0v1.64a.36.36,0,1,1-.72,0V44.5Zm-2.48,1.33a.36.36,0,0,1,0-.51.35.35,0,0,1,.51,0l1.16,1.15a.37.37,0,0,1,0,.52.36.36,0,0,1-.51,0l-1.16-1.16Zm-.81,2.69a.37.37,0,0,1-.37-.36.38.38,0,0,1,.37-.37H60.5a.37.37,0,0,1,.36.37.36.36,0,0,1-.36.36ZM60.19,51a.36.36,0,0,1-.51,0,.37.37,0,0,1,0-.52l1.16-1.15a.35.35,0,0,1,.51,0,.36.36,0,0,1,0,.51L60.19,51Zm2.69.81a.36.36,0,1,1-.72,0V50.18a.36.36,0,1,1,.72,0v1.63Zm2.48-1.33a.37.37,0,0,1,0,.52.36.36,0,0,1-.51,0l-1.16-1.16a.36.36,0,0,1,0-.51.35.35,0,0,1,.51,0l1.16,1.15Zm.81-2.69a.38.38,0,0,1,.37.37.37.37,0,0,1-.37.36H64.54a.36.36,0,0,1-.36-.36.37.37,0,0,1,.36-.37Zm-1.32-2.47a.35.35,0,0,1,.51,0,.36.36,0,0,1,0,.51L64.2,47a.36.36,0,0,1-.51,0,.37.37,0,0,1,0-.52Z"/><path class="cls-4" d="M91.3,79.91a.36.36,0,0,1,.36-.36.37.37,0,0,1,.37.36v1.63a.38.38,0,0,1-.37.37.37.37,0,0,1-.36-.37V79.91Zm-2.48,1.33a.37.37,0,1,1,.52-.52l1.15,1.16a.35.35,0,0,1,0,.51.36.36,0,0,1-.51,0l-1.16-1.15ZM88,83.93a.37.37,0,0,1-.36-.37A.36.36,0,0,1,88,83.2h1.64a.36.36,0,0,1,.36.36.37.37,0,0,1-.36.37Zm1.33,2.47a.36.36,0,0,1-.52,0,.36.36,0,0,1,0-.51L90,84.73a.36.36,0,0,1,.51,0,.36.36,0,0,1,0,.52L89.34,86.4Zm2.69.82a.37.37,0,0,1-.37.36.36.36,0,0,1-.36-.36V85.58a.36.36,0,0,1,.36-.36.37.37,0,0,1,.37.36v1.64Zm2.48-1.33a.36.36,0,0,1,0,.51.36.36,0,0,1-.52,0l-1.16-1.15a.37.37,0,0,1,.52-.52l1.16,1.16Zm.81-2.69a.36.36,0,0,1,.36.36.37.37,0,0,1-.36.37H93.68a.37.37,0,0,1-.36-.37.36.36,0,0,1,.36-.36ZM94,80.72a.37.37,0,1,1,.52.52l-1.16,1.15a.37.37,0,0,1-.52,0,.36.36,0,0,1,0-.51Z"/><path class="cls-4" d="M168.37,23.45a.36.36,0,0,1,.72,0v1.63a.36.36,0,1,1-.72,0V23.45Zm-2.48,1.33a.37.37,0,0,1,0-.52.36.36,0,0,1,.51,0l1.16,1.16a.36.36,0,0,1-.51.51l-1.16-1.15Zm-.81,2.69a.38.38,0,0,1-.37-.37.37.37,0,0,1,.37-.36h1.63a.36.36,0,0,1,.36.36.37.37,0,0,1-.36.37Zm1.32,2.47a.36.36,0,1,1-.51-.51l1.16-1.16a.36.36,0,0,1,.51,0,.37.37,0,0,1,0,.52l-1.16,1.15Zm2.69.82a.36.36,0,0,1-.72,0V29.12a.36.36,0,0,1,.72,0v1.64Zm2.48-1.33a.36.36,0,1,1-.51.51l-1.16-1.15a.37.37,0,0,1,0-.52.36.36,0,0,1,.51,0l1.16,1.16Zm.81-2.69a.37.37,0,0,1,.37.36.38.38,0,0,1-.37.37h-1.63a.37.37,0,0,1-.36-.37.36.36,0,0,1,.36-.36Zm-1.32-2.48a.36.36,0,0,1,.51,0,.37.37,0,0,1,0,.52l-1.16,1.15a.36.36,0,0,1-.51-.51Z"/><rect class="cls-3" x="49.58" y="60.26" width="2.51" height="2.51" rx="0.58"/><rect class="cls-3" x="44.94" y="60.26" width="2.51" height="2.51" rx="0.58"/><rect class="cls-3" x="40.3" y="60.26" width="2.51" height="2.51" rx="0.58"/><rect class="cls-3" x="35.67" y="60.26" width="2.51" height="2.51" rx="0.58"/><rect class="cls-3" x="31.03" y="60.26" width="2.51" height="2.51" rx="0.58"/><rect class="cls-3" x="26.39" y="60.26" width="2.51" height="2.51" rx="0.58"/><rect class="cls-3" x="40.14" y="55.21" width="2.51" height="2.51" rx="0.58"/><rect class="cls-3" x="35.5" y="55.21" width="2.51" height="2.51" rx="0.58"/><rect class="cls-3" x="30.86" y="55.21" width="2.51" height="2.51" rx="0.58"/><rect class="cls-3" x="35.67" y="65.69" width="2.51" height="2.51" rx="0.58"/><rect class="cls-3" x="31.03" y="65.69" width="2.51" height="2.51" rx="0.58"/><path class="cls-4" d="M165.71,68.83Zm-1.58-6A3,3,0,1,0,165,65a3,3,0,0,0-.89-2.15Zm-.66-3a5.45,5.45,0,0,1,1.19.5,5.77,5.77,0,0,1,1.05.79.18.18,0,0,0,.22,0l1.41-.82h0a.39.39,0,0,1,.26,0,.34.34,0,0,1,.21.16h0l1,1.72a.37.37,0,0,1,0,.27.35.35,0,0,1-.17.21h0l-1.4.81a.18.18,0,0,0-.09.2h0a3.44,3.44,0,0,1,.12.64,4.87,4.87,0,0,1,0,.66,5.42,5.42,0,0,1-.16,1.3.2.2,0,0,0,.1.21l1.4.81h0a.33.33,0,0,1,.17.21.34.34,0,0,1,0,.26l-1,1.74h0a.35.35,0,0,1-.48.12h0l-1.4-.81a.2.2,0,0,0-.22,0,5.35,5.35,0,0,1-1.05.79,4.93,4.93,0,0,1-1.2.51.19.19,0,0,0-.13.18v1.63a.34.34,0,0,1-.35.35h-2a.34.34,0,0,1-.35-.35V70.3a.18.18,0,0,0-.14-.18,5,5,0,0,1-1.19-.51,5.35,5.35,0,0,1-1.05-.79.2.2,0,0,0-.23,0l-1.4.81a.35.35,0,0,1-.48-.12h0l-1-1.73h0a.3.3,0,0,1,0-.26.29.29,0,0,1,.16-.21l1.41-.82a.19.19,0,0,0,.09-.2h0a5.42,5.42,0,0,1-.16-1.3,4.87,4.87,0,0,1,0-.66,4.52,4.52,0,0,1,.12-.64.2.2,0,0,0-.1-.21l-1.4-.81a.31.31,0,0,1-.16-.21.32.32,0,0,1,0-.27h0l1-1.72h0a.34.34,0,0,1,.21-.16.42.42,0,0,1,.27,0h0l1.41.82a.2.2,0,0,0,.23,0,5.38,5.38,0,0,1,1-.79,5.33,5.33,0,0,1,1.2-.5.19.19,0,0,0,.13-.18V58a.36.36,0,0,1,.1-.25.37.37,0,0,1,.25-.1h2a.37.37,0,0,1,.25.1.36.36,0,0,1,.1.25v1.63A.19.19,0,0,0,163.47,59.8Z"/></g><path class="cls-5" d="M164.56,77.84a10.92,10.92,0,0,0-15.29-3L127.18,90,128.59,92H82.86l-5,2.86,5,19.57,3.38-.07v2.45h41.82l33.73-24.07A10.89,10.89,0,0,0,164.56,77.84Z"/><path class="cls-6" d="M122.83,83.18H111.11c-2-1.94-6.42-5-14.8-5-10.68,0-15.27,4.52-16.2,5.58l-7.43,7.6L77.38,96l1.55,6.18h43.9a9.49,9.49,0,0,0,0-19Z"/><rect class="cls-7" x="62.77" y="86.62" width="22.58" height="41.78" transform="translate(-41.35 46.48) rotate(-27.57)"/><polygon class="cls-8" points="83.99 102.17 63.98 112.61 73.73 131.25 93.74 120.8 83.99 102.17"/><path class="cls-9" d="M138.89,18.05A31.72,31.72,0,0,0,116.31,8.7l-2.82,31.93,2.82,31.92a31.93,31.93,0,0,0,22.58-54.5Z"/><path class="cls-10" d="M93.74,18.05a31.93,31.93,0,0,0,22.57,54.5V8.7A31.72,31.72,0,0,0,93.74,18.05Z"/><path d="M118.07,38.3q6.78,1.39,9.21,4.06a10.34,10.34,0,0,1,2.43,7.25,12.24,12.24,0,0,1-3.09,8.32,11.66,11.66,0,0,1-8.55,3.84V66h-2.92V61.82q-11.15-1.23-11.91-12h5.3q.6,6.83,6.61,7.84V42.4q-11.06-2.2-11.06-10.79a10.41,10.41,0,0,1,3-7.78,12.7,12.7,0,0,1,8.07-3.42v-4.2h2.92v4.2q9.74.73,10.68,9.92h-5.32q-.44-5.08-5.36-5.77Zm-2.92-.6V24.51q-5.76,1-5.76,6.69A5.62,5.62,0,0,0,111,35.65,10,10,0,0,0,115.15,37.7Zm2.92,20q6.32-.8,6.31-7.73a6.64,6.64,0,0,0-1.28-4.37c-.86-1-2.53-1.86-5-2.51Z"/></svg>