<svg xmlns="http://www.w3.org/2000/svg" viewBox="0 0 213 143"><defs><style>.cls-1{isolation:isolate;}.cls-2{opacity:0.36;}.cls-3{fill:#94bfdf;}.cls-3,.cls-4{fill-rule:evenodd;}.cls-4{fill:#fff;}.cls-5{fill:#ff491f;}.cls-6{fill:#ed3618;}.cls-7{fill:#ffe14d;}.cls-8{fill:#3c3f4d;}.cls-11,.cls-9{fill:#3097fe;}.cls-10{fill:#0761c2;}.cls-11,.cls-12,.cls-13{mix-blend-mode:multiply;}.cls-12{fill:#b0dcfe;}.cls-13{fill:#7fc7fd;}.cls-14{fill:#f9f9f9;}</style></defs><title>ecommerce</title><g class="cls-1"><g id="Layer_1" data-name="Layer 1"><g class="cls-2"><path class="cls-3" d="M170.81,17a24.64,24.64,0,0,1,24.57,24.57h0a24.64,24.64,0,0,1-24.57,24.57h0a5,5,0,0,0-4.93,4.93h0A5,5,0,0,0,170.81,76h12.82a12,12,0,0,1,11.93,11.93h0a12,12,0,0,1-11.93,11.93,10.35,10.35,0,0,0-10.32,10.32h0A18.88,18.88,0,0,1,154.49,129h-111A24.57,24.57,0,0,1,19,104.5h0A24.57,24.57,0,0,1,43.53,80h2.25a5,5,0,0,0,5-5h0a5,5,0,0,0-5-5H29.84a12,12,0,0,1-12-12h0a12,12,0,0,1,12-12H42.89A10.3,10.3,0,0,0,53.15,35.73h0A18.79,18.79,0,0,1,71.89,17Z"/><path class="cls-4" d="M169.14,114H167.8c-.32.24-.59,0-.8-.34v-1.34a6.19,6.19,0,0,0,.8-1.32h1.34a4.13,4.13,0,0,0,.86,1.32v1.34C169.72,114,169.46,114.24,169.14,114Z"/><path class="cls-4" d="M164.5,114h-1.34c-.32.24-.58,0-1.16-.34v-1.34a2.26,2.26,0,0,0,1.16-1.32h1.34c.32.74.58,1,.5,1.32v1.34C165.08,114,164.82,114.24,164.5,114Z"/><path class="cls-4" d="M159.86,114h-1.33c-.33.24-.59,0-.53-.34v-1.34c-.06-.32.2-.58.53-1.32h1.33a2.33,2.33,0,0,0,1.14,1.32v1.34C160.45,114,160.18,114.24,159.86,114Z"/><path class="cls-4" d="M155.23,114h-1.34c-.32.24-.58,0-.89-.34v-1.34a3.67,3.67,0,0,0,.89-1.32h1.34a7.51,7.51,0,0,0,.77,1.32v1.34C155.81,114,155.55,114.24,155.23,114Z"/><path class="cls-4" d="M150.59,114h-1.34c-.32.24-.58,0-1.25-.34v-1.34a2.13,2.13,0,0,0,1.25-1.32h1.34c.32.74.59,1,.41,1.32v1.34C151.18,114,150.91,114.24,150.59,114Z"/><path class="cls-4" d="M164.33,109H163c-.32.19-.58-.08-1-.4v-1.33a3,3,0,0,0,1-1.27h1.34a13.37,13.37,0,0,1,.67,1.27v1.33C164.92,108.92,164.65,109.19,164.33,109Z"/><path class="cls-4" d="M159.7,109h-1.34c-.32.19-.59-.08-.36-.4v-1.33c-.23-.33,0-.59.36-1.27h1.34a2.18,2.18,0,0,0,1.3,1.27v1.33C160.28,108.92,160,109.19,159.7,109Z"/><path class="cls-4" d="M155.06,109h-1.34c-.32.19-.58-.08-.72-.4v-1.33c.14-.33.4-.59.72-1.27h1.34a3.46,3.46,0,0,0,.94,1.27v1.33C155.64,108.92,155.38,109.19,155.06,109Z"/><path class="cls-4" d="M159.86,120h-1.33c-.33-.33-.59-.59-.53-.91v-1.34c-.06-.32.2-.58.53-.75h1.33c.33.17.59.43,1.14.75v1.34A4.88,4.88,0,0,0,159.86,120Z"/><path class="cls-4" d="M155.23,120h-1.34l-.89-.91v-1.34a3.74,3.74,0,0,1,.89-.75h1.34a2,2,0,0,1,.77.75v1.34A5.11,5.11,0,0,1,155.23,120Z"/><path class="cls-4" d="M146,66.52a.3.3,0,0,1,.31-.36c.2,0,.37.16.69.36v1.64c-.32.2-.49.36-.69.36a.3.3,0,0,1-.31-.36V66.52Zm-2.53,1.33a.36.36,0,0,1,0-.51.36.36,0,0,1,.52,0l1.15,1.15a.37.37,0,0,1,0,.52.36.36,0,0,1-.51,0l-1.16-1.16ZM142.66,71c-.2-.46-.36-.62-.36-.82s.16-.37.36-.18h1.63c.21-.19.37,0,.37.18s-.16.36-.37.82ZM144,73a.37.37,0,0,1-.52-.52l1.16-1.15a.36.36,0,1,1,.51.51L144,73Zm3,.81c-.32.2-.49.36-.69.36a.3.3,0,0,1-.31-.36V72.2a.3.3,0,0,1,.31-.37c.2,0,.37.16.69.37v1.63Zm2.15-1.33a.36.36,0,0,1,0,.52.36.36,0,0,1-.51,0l-1.16-1.16a.36.36,0,0,1,0-.51.37.37,0,0,1,.52,0l1.15,1.15ZM150,70c.2-.19.36,0,.36.18s-.16.36-.36.82h-1.64c-.2-.46-.36-.62-.36-.82s.16-.37.36-.18Zm-1.33-2.66a.36.36,0,0,1,.51.51L148,69a.37.37,0,0,1-.52-.52Z"/><path class="cls-4" d="M149,51.83V52h.1c.24.42.44.63.44.87h0c0,.25-.2.45-.44.13H149v.91c-.49.25-.69.45-.94.45h0c-.25,0-.45-.2-.06-.45V53h-1c-.24.32-.45.12-.45-.13h0c0-.24.21-.45.45-.87h1v-.17c-.39-.24-.19-.44.06-.44h0C148.31,51.39,148.51,51.59,149,51.83Z"/><path class="cls-4" d="M95,34.55V35h.86a.74.74,0,0,1,.45.59h0a.4.4,0,0,1-.45.41H95v.63c.28.24.07.44-.17.44h0c-.25,0-.45-.2-.83-.44V36h-.21a.4.4,0,0,1-.45-.41h0a.74.74,0,0,1,.45-.59H94v-.45c.38-.24.58-.45.83-.45h0C95.07,34.1,95.28,34.31,95,34.55Z"/><path class="cls-4" d="M51,51.11V52h.78c.25-.3.45-.1.45.14h0c0,.25-.2.45-.45.86H51v.18c.19.25,0,.45-.26.45h0c-.24,0-.44-.2-.74-.45V53h-.29c-.25-.41-.45-.61-.45-.86h0c0-.24.2-.44.45-.14H50v-.89c.3-.25.5-.45.74-.45h0C51,50.66,51.19,50.86,51,51.11Z"/><path class="cls-4" d="M58,40.5c.16-.2.32-.36.52-.36a.61.61,0,0,1,.48.36v1.64a.61.61,0,0,1-.48.36c-.2,0-.36-.16-.52-.36V40.5Zm-2.32,1.33a.36.36,0,0,1,0-.51.35.35,0,0,1,.51,0l1.16,1.15a.37.37,0,0,1,0,.52.36.36,0,0,1-.51,0l-1.16-1.16ZM54.87,45c-.2-.48-.37-.64-.37-.84s.17-.37.37-.16H56.5c.2-.21.36,0,.36.16s-.16.36-.36.84Zm1.32,2a.36.36,0,0,1-.51,0,.37.37,0,0,1,0-.52l1.16-1.15a.35.35,0,0,1,.51,0,.36.36,0,0,1,0,.51L56.19,47Zm2.81.81a.61.61,0,0,1-.48.36c-.2,0-.36-.16-.52-.36V46.18c.16-.21.32-.37.52-.37a.61.61,0,0,1,.48.37v1.63Zm2.36-1.33a.37.37,0,0,1,0,.52.36.36,0,0,1-.51,0l-1.16-1.16a.36.36,0,0,1,0-.51.35.35,0,0,1,.51,0l1.16,1.15ZM62.17,44c.2-.21.37,0,.37.16s-.17.36-.37.84H60.54c-.2-.48-.36-.64-.36-.84s.16-.37.36-.16Zm-1.32-2.68a.35.35,0,0,1,.51,0,.36.36,0,0,1,0,.51L60.2,43a.36.36,0,0,1-.51,0,.37.37,0,0,1,0-.52Z"/><path class="cls-4" d="M87,75.91c.3-.2.46-.36.66-.36a.33.33,0,0,1,.34.36v1.63a.33.33,0,0,1-.34.37c-.2,0-.36-.17-.66-.37V75.91Zm-2.18,1.33a.37.37,0,1,1,.52-.52l1.15,1.16a.35.35,0,0,1,0,.51.36.36,0,0,1-.51,0l-1.16-1.15ZM84,80a.5.5,0,0,1-.36-.44c0-.2.16-.36.36-.56h1.64c.2.2.36.36.36.56a.5.5,0,0,1-.36.44Zm1.33,2.4a.36.36,0,0,1-.52,0,.36.36,0,0,1,0-.51L86,80.73a.36.36,0,0,1,.51,0,.36.36,0,0,1,0,.52L85.34,82.4Zm2.66.82a.33.33,0,0,1-.34.36c-.2,0-.36-.16-.66-.36V81.58c.3-.2.46-.36.66-.36a.33.33,0,0,1,.34.36v1.64Zm2.51-1.33a.36.36,0,0,1,0,.51.36.36,0,0,1-.52,0l-1.16-1.15a.37.37,0,0,1,.52-.52l1.16,1.16ZM91.32,79c.2.2.36.36.36.56a.5.5,0,0,1-.36.44H89.68a.5.5,0,0,1-.36-.44c0-.2.16-.36.36-.56ZM90,76.72a.37.37,0,1,1,.52.52l-1.16,1.15a.37.37,0,0,1-.52,0,.36.36,0,0,1,0-.51Z"/><path class="cls-4" d="M164,19.45c.37-.2.53-.36.73-.36s.36.16.27.36v1.63a.26.26,0,0,1-.27.37c-.2,0-.36-.17-.73-.37V19.45Zm-2.11,1.33a.37.37,0,0,1,0-.52.36.36,0,0,1,.51,0l1.16,1.16a.36.36,0,0,1-.51.51l-1.16-1.15ZM161.08,24c-.2-.53-.37-.7-.37-.9s.17-.36.37-.1h1.63c.2-.26.36-.1.36.1s-.16.37-.36.9Zm1.32,1.94a.36.36,0,1,1-.51-.51l1.16-1.16a.36.36,0,0,1,.51,0,.37.37,0,0,1,0,.52l-1.16,1.15Zm2.6.82c.09.2-.07.36-.27.36s-.36-.16-.73-.36V25.12c.37-.2.53-.36.73-.36s.36.16.27.36v1.64Zm2.57-1.33a.36.36,0,1,1-.51.51l-1.16-1.15a.37.37,0,0,1,0-.52.36.36,0,0,1,.51,0l1.16,1.16Zm.81-1.43c.2-1.26.37-1.1.37-.9s-.17.37-.37-.1h-1.63c-.2.47-.36.3-.36.1s.16-.36.36.9Zm-1.32-3.74a.36.36,0,0,1,.51,0,.37.37,0,0,1,0,.52l-1.16,1.15a.36.36,0,0,1-.51-.51Z"/><path class="cls-4" d="M47.5,59H46.16A9.64,9.64,0,0,0,45,58.18V56.85A6.46,6.46,0,0,0,46.16,56H47.5c.32.26.58.53.5.85v1.33C48.08,58.51,47.82,58.77,47.5,59Z"/><path class="cls-4" d="M42.86,59H41.52c-.32-.23-.58-.49-.52-.82V56.85c-.06-.32.2-.59.52-.85h1.34a7.46,7.46,0,0,0,1.14.85v1.33A12.17,12.17,0,0,0,42.86,59Z"/><path class="cls-4" d="M38.23,59H36.89a5.62,5.62,0,0,1-.89-.82V56.85a8.83,8.83,0,0,1,.89-.85h1.34a3.23,3.23,0,0,1,.77.85v1.33A2.61,2.61,0,0,1,38.23,59Z"/><path class="cls-4" d="M33.59,59H32.25A6.69,6.69,0,0,0,31,58.18V56.85A5.07,5.07,0,0,0,32.25,56h1.34c.32.26.58.53.41.85v1.33C34.17,58.51,33.91,58.77,33.59,59Z"/><path class="cls-4" d="M29,59H27.62a1.23,1.23,0,0,1-.62-.82V56.85a1.37,1.37,0,0,1,.62-.85H29c.32.26.59.53,1.05.85v1.33C29.54,58.51,29.27,58.77,29,59Z"/><path class="cls-4" d="M24.32,59H23c-.32-.23-.59-.49-1-.82V56.85c.39-.32.66-.59,1-.85h1.34a1.92,1.92,0,0,1,.68.85v1.33A1.66,1.66,0,0,1,24.32,59Z"/><path class="cls-4" d="M38.06,54H36.72a2.71,2.71,0,0,1-.72-.87V51.79a1.88,1.88,0,0,1,.72-.79h1.34a8.57,8.57,0,0,1,.94.79v1.34C38.64,53.45,38.38,53.71,38.06,54Z"/><path class="cls-4" d="M33.42,54H32.08A7.12,7.12,0,0,0,31,53.13V51.79c.5-.32.76-.58,1.08-.79h1.34c.32.21.59.47.58.79v1.34C34,53.45,33.74,53.71,33.42,54Z"/><path class="cls-4" d="M28.78,54H27.45c-.32-.29-.59-.55-.45-.87V51.79c-.14-.32.13-.58.45-.79h1.33a9.71,9.71,0,0,0,1.22.79v1.34A4.94,4.94,0,0,0,28.78,54Z"/><path class="cls-4" d="M33.59,64H32.25c-.32.2-.58-.06-1.25-.39V62.28A2.19,2.19,0,0,0,32.25,61h1.34c.32.69.58,1,.41,1.28v1.33C34.17,63.94,33.91,64.2,33.59,64Z"/><path class="cls-4" d="M29,64H27.62c-.33.2-.59-.06-.62-.39V62.28c0-.32.29-.59.62-1.28H29A2.71,2.71,0,0,0,30,62.28v1.33C29.54,63.94,29.27,64.2,29,64Z"/><path class="cls-4" d="M161.71,64.83Zm-1.58-6A3,3,0,1,0,161,61a3,3,0,0,0-.89-2.15Zm-.66-3a5.45,5.45,0,0,1,1.19.5,5.77,5.77,0,0,1,1.05.79.18.18,0,0,0,.22,0l1.41-.82h0a.39.39,0,0,1,.26,0,.34.34,0,0,1,.21.16h0l1,1.72a.37.37,0,0,1,0,.27.35.35,0,0,1-.17.21h0l-1.4.81a.18.18,0,0,0-.09.2h0a3.44,3.44,0,0,1,.12.64,4.87,4.87,0,0,1,0,.66,5.42,5.42,0,0,1-.16,1.3.2.2,0,0,0,.1.21l1.4.81h0a.33.33,0,0,1,.17.21.34.34,0,0,1,0,.26l-1,1.74h0a.35.35,0,0,1-.48.12h0l-1.4-.81a.2.2,0,0,0-.22,0,5.35,5.35,0,0,1-1.05.79,4.93,4.93,0,0,1-1.2.51,1.57,1.57,0,0,1-.46.18v1.63c.33.1.29.18.23.25s-.15.1-.25-.18h-2c-.1.28-.18.24-.25.18s-.1-.15-.73-.25V66.3c.63-.09.57-.16.49-.18a5,5,0,0,1-1.19-.51,5.35,5.35,0,0,1-1.05-.79.2.2,0,0,0-.23,0l-1.4.81a.35.35,0,0,1-.48-.12h0l-1-1.73h0a.3.3,0,0,1,0-.26.29.29,0,0,1,.16-.21l1.41-.82a.19.19,0,0,0,.09-.2h0a5.42,5.42,0,0,1-.16-1.3,4.87,4.87,0,0,1,0-.66,4.52,4.52,0,0,1,.12-.64.2.2,0,0,0-.1-.21l-1.4-.81a.31.31,0,0,1-.16-.21.32.32,0,0,1,0-.27h0l1-1.72h0a.34.34,0,0,1,.21-.16.42.42,0,0,1,.27,0h0l1.41.82a.2.2,0,0,0,.23,0,5.38,5.38,0,0,1,1-.79,5.33,5.33,0,0,1,1.2-.5c.08,0,.13-.1-.5-.18V54c.63-.1.67-.19.73-.25s.15-.1.25-.74h2c.1.64.18.68.25.74s.1.15-.23.25v1.63A2.17,2.17,0,0,1,159.47,55.8Z"/></g><path class="cls-5" d="M147.2,127H64.31l8.42-81h66.05l1.41,13.52Z"/><path class="cls-6" d="M106.7,72h46.08l5.87,55H100.83Z"/><path class="cls-7" d="M111.27,72h46.08l5.87,55H105.4Z"/><path class="cls-8" d="M123.5,55.48A1.5,1.5,0,0,1,122,54V38.09c0-8.63-6.62-16.08-15.24-16.49A16,16,0,0,0,90,37.59V54a1.5,1.5,0,0,1-3,0V38c0-10.31,8-19.13,18.3-19.5a19,19,0,0,1,19.7,19V54A1.5,1.5,0,0,1,123.5,55.48Z"/><path class="cls-8" d="M135.1,104.72a12,12,0,0,1-13.1-12V82a1.5,1.5,0,0,1,3,0V92.4a9.14,9.14,0,0,0,6.89,9A9,9,0,0,0,143,92.63V82a1.5,1.5,0,0,1,3,0V92.36A12.28,12.28,0,0,1,135.1,104.72Z"/><path class="cls-9" d="M135.8,82.75l10.7,35.05a5.5,5.5,0,0,0,6.86,3.65l-12.3-40.3Z"/><path class="cls-10" d="M141.06,81.15l12.3,40.3.11,0a5.49,5.49,0,0,0,3.65-6.86l-10.7-35Z"/><path class="cls-10" d="M111.36,48a25.71,25.71,0,1,0,34.78-10.62A25.72,25.72,0,0,0,111.36,48Zm39.19,20.86a18.68,18.68,0,1,1-7.71-25.26A18.58,18.58,0,0,1,150.55,68.81Z"/><path class="cls-11" d="M119.2,64.57c-3-9.86,1.2-19.89,9.41-22.4a18.67,18.67,0,1,0,10.91,35.72C131.31,80.4,122.22,74.44,119.2,64.57Z"/><path class="cls-12" d="M128.61,42.17c8.21-2.51,17.3,3.46,20.31,13.32s-1.19,19.9-9.4,22.4a18.67,18.67,0,0,0-10.91-35.72Z"/><path class="cls-13" d="M148.92,55.49c-3-9.86-12.1-15.83-20.31-13.32s-12.42,12.54-9.41,22.4,12.11,15.83,20.32,13.32S151.94,65.36,148.92,55.49Z"/><path class="cls-9" d="M140.93,48.22l-.87-.38c2.94,2.36,3.79,4.22,5.08,7.82.93,3.7,1.83,7.53.71,11.14,4-6,2.14-15.55-4.92-18.58C140.38,48,141.21,48.34,140.93,48.22Z"/><path class="cls-14" d="M126.77,71.93l.87.39c-2.93-2.37-3.79-4.23-5.07-7.82-.94-3.71-1.83-7.54-.72-11.14-3.95,6-2.13,15.55,4.92,18.57Z"/></g></g></svg>