<svg id="Layer_1" data-name="Layer 1" xmlns="http://www.w3.org/2000/svg" viewBox="0 0 213 143"><defs><style>.cls-1{opacity:0.36;}.cls-2{fill:#94bfdf;}.cls-2,.cls-4{fill-rule:evenodd;}.cls-3,.cls-4{fill:#fff;}.cls-5{fill:#1b3241;}.cls-6{fill:#c0dfeb;}.cls-7{fill:#06638d;}.cls-8{fill:#1b87b3;}.cls-9{fill:#e3a76f;}.cls-10{fill:#e3d000;}.cls-11{fill:#ffea06;}.cls-12{fill:#d2c100;}.cls-13{fill:#f2bb88;}.cls-14{fill:#ff491f;}.cls-15{fill:#ed3618;}.cls-16{fill:#ffe14d;}.cls-17{fill:#3c3f4d;}</style></defs><title>ecommerce</title><g class="cls-1"><path class="cls-2" d="M170.82,18.82a24.63,24.63,0,0,1,24.55,24.55h0a24.63,24.63,0,0,1-24.55,24.56h0a4.94,4.94,0,0,0-4.93,4.92h0a5,5,0,0,0,4.93,4.93h12.84a12,12,0,0,1,12,12h0a12,12,0,0,1-12,12,10.39,10.39,0,0,0-10.35,10.36h0A19,19,0,0,1,154.4,131h-111a24.63,24.63,0,0,1-24.55-24.55h0A24.63,24.63,0,0,1,43.44,81.89h2.38A5,5,0,0,0,50.75,77h0A4.94,4.94,0,0,0,45.82,72h-16a12,12,0,0,1-12-12h0a12,12,0,0,1,12-12H42.67A10.39,10.39,0,0,0,53,37.72h0a19,19,0,0,1,18.9-18.9Z"/><rect class="cls-3" x="167.21" y="113.74" width="2.51" height="2.51" rx="0.58"/><rect class="cls-3" x="162.58" y="113.74" width="2.51" height="2.51" rx="0.58"/><path class="cls-3" d="M158.53,113.74h1.34a.58.58,0,0,1,.58.58v1.34a.58.58,0,0,1-.58.58h-1.34a.58.58,0,0,1-.58-.58v-1.34A.59.59,0,0,1,158.53,113.74Z"/><rect class="cls-3" x="153.31" y="113.74" width="2.51" height="2.51" rx="0.58"/><rect class="cls-3" x="148.67" y="113.74" width="2.51" height="2.51" rx="0.58"/><rect class="cls-3" x="162.41" y="108.68" width="2.51" height="2.51" rx="0.58"/><rect class="cls-3" x="157.77" y="108.68" width="2.51" height="2.51" rx="0.58"/><path class="cls-3" d="M153.72,108.68h1.34a.58.58,0,0,1,.58.58v1.34a.59.59,0,0,1-.59.59h-1.34a.58.58,0,0,1-.58-.58v-1.34A.58.58,0,0,1,153.72,108.68Z"/><path class="cls-3" d="M158.53,119.17h1.34a.58.58,0,0,1,.58.58v1.34a.59.59,0,0,1-.59.59h-1.34a.59.59,0,0,1-.59-.59v-1.34A.58.58,0,0,1,158.53,119.17Z"/><path class="cls-3" d="M153.89,119.17h1.34a.58.58,0,0,1,.58.58v1.34a.59.59,0,0,1-.59.59h-1.34a.58.58,0,0,1-.58-.58v-1.34A.58.58,0,0,1,153.89,119.17Z"/><path class="cls-4" d="M146,68.52a.36.36,0,0,1,.36-.36.37.37,0,0,1,.37.36v1.64a.37.37,0,0,1-.37.36.36.36,0,0,1-.36-.36V68.52Zm-2.48,1.33a.36.36,0,0,1,0-.51.36.36,0,0,1,.52,0l1.15,1.15a.37.37,0,0,1,0,.52.36.36,0,0,1-.51,0l-1.16-1.16Zm-.81,2.69a.36.36,0,0,1-.36-.36.37.37,0,0,1,.36-.37h1.63a.37.37,0,0,1,.37.37.36.36,0,0,1-.37.36ZM144,75a.37.37,0,0,1-.52-.52l1.16-1.15a.36.36,0,1,1,.51.51L144,75Zm2.69.81a.37.37,0,0,1-.37.36.36.36,0,0,1-.36-.36V74.2a.36.36,0,0,1,.36-.37.37.37,0,0,1,.37.37v1.63Zm2.47-1.33a.36.36,0,0,1,0,.52.36.36,0,0,1-.51,0l-1.16-1.16a.36.36,0,0,1,0-.51.37.37,0,0,1,.52,0l1.15,1.15Zm.82-2.69a.37.37,0,0,1,.36.37.36.36,0,0,1-.36.36h-1.64a.36.36,0,0,1-.36-.36.37.37,0,0,1,.36-.37Zm-1.33-2.47a.36.36,0,0,1,.51.51L148,71a.37.37,0,0,1-.52-.52Z"/><path class="cls-4" d="M148.51,53.83v.59h.59a.45.45,0,0,1,.44.45h0a.45.45,0,0,1-.44.45h-.59v.59a.45.45,0,0,1-.45.45h0a.45.45,0,0,1-.45-.45v-.59H147a.45.45,0,0,1-.45-.45h0a.46.46,0,0,1,.45-.45h.59v-.59a.45.45,0,0,1,.45-.44h0A.45.45,0,0,1,148.51,53.83Z"/><path class="cls-4" d="M95.28,36.55v.59h.58a.45.45,0,0,1,.45.45h0a.45.45,0,0,1-.45.45h-.58v.59a.45.45,0,0,1-.45.44h0a.45.45,0,0,1-.45-.44V38h-.59a.45.45,0,0,1-.45-.45h0a.45.45,0,0,1,.45-.45h.59v-.59a.45.45,0,0,1,.45-.45h0A.46.46,0,0,1,95.28,36.55Z"/><path class="cls-4" d="M51.19,53.11v.59h.59a.45.45,0,0,1,.45.44h0a.45.45,0,0,1-.45.45h-.59v.59a.45.45,0,0,1-.45.45h0a.45.45,0,0,1-.44-.45v-.59h-.59a.45.45,0,0,1-.45-.45h0a.45.45,0,0,1,.45-.44h.59v-.59a.45.45,0,0,1,.44-.45h0A.45.45,0,0,1,51.19,53.11Z"/><path class="cls-4" d="M58.16,42.5a.36.36,0,0,1,.72,0v1.64a.36.36,0,1,1-.72,0V42.5Zm-2.48,1.33a.36.36,0,0,1,0-.51.35.35,0,0,1,.51,0l1.16,1.15a.37.37,0,0,1,0,.52.36.36,0,0,1-.51,0l-1.16-1.16Zm-.81,2.69a.37.37,0,0,1-.37-.36.38.38,0,0,1,.37-.37H56.5a.37.37,0,0,1,.36.37.36.36,0,0,1-.36.36ZM56.19,49a.36.36,0,0,1-.51,0,.37.37,0,0,1,0-.52l1.16-1.15a.35.35,0,0,1,.51,0,.36.36,0,0,1,0,.51L56.19,49Zm2.69.81a.36.36,0,1,1-.72,0V48.18a.36.36,0,1,1,.72,0v1.63Zm2.48-1.33a.37.37,0,0,1,0,.52.36.36,0,0,1-.51,0l-1.16-1.16a.36.36,0,0,1,0-.51.35.35,0,0,1,.51,0l1.16,1.15Zm.81-2.69a.38.38,0,0,1,.37.37.37.37,0,0,1-.37.36H60.54a.36.36,0,0,1-.36-.36.37.37,0,0,1,.36-.37Zm-1.32-2.47a.35.35,0,0,1,.51,0,.36.36,0,0,1,0,.51L60.2,45a.36.36,0,0,1-.51,0,.37.37,0,0,1,0-.52Z"/><path class="cls-4" d="M87.3,77.91a.36.36,0,0,1,.36-.36.37.37,0,0,1,.37.36v1.63a.38.38,0,0,1-.37.37.37.37,0,0,1-.36-.37V77.91Zm-2.48,1.33a.37.37,0,1,1,.52-.52l1.15,1.16a.35.35,0,0,1,0,.51.36.36,0,0,1-.51,0l-1.16-1.15ZM84,81.93a.37.37,0,0,1-.36-.37A.36.36,0,0,1,84,81.2h1.64a.36.36,0,0,1,.36.36.37.37,0,0,1-.36.37Zm1.33,2.47a.36.36,0,0,1-.52,0,.36.36,0,0,1,0-.51L86,82.73a.36.36,0,0,1,.51,0,.36.36,0,0,1,0,.52L85.34,84.4Zm2.69.82a.37.37,0,0,1-.37.36.36.36,0,0,1-.36-.36V83.58a.36.36,0,0,1,.36-.36.37.37,0,0,1,.37.36v1.64Zm2.48-1.33a.36.36,0,0,1,0,.51.36.36,0,0,1-.52,0l-1.16-1.15a.37.37,0,0,1,.52-.52l1.16,1.16Zm.81-2.69a.36.36,0,0,1,.36.36.37.37,0,0,1-.36.37H89.68a.37.37,0,0,1-.36-.37.36.36,0,0,1,.36-.36ZM90,78.72a.37.37,0,1,1,.52.52l-1.16,1.15a.37.37,0,0,1-.52,0,.36.36,0,0,1,0-.51Z"/><path class="cls-4" d="M164.37,21.45a.36.36,0,0,1,.72,0v1.63a.36.36,0,1,1-.72,0V21.45Zm-2.48,1.33a.37.37,0,0,1,0-.52.36.36,0,0,1,.51,0l1.16,1.16a.36.36,0,0,1-.51.51l-1.16-1.15Zm-.81,2.69a.38.38,0,0,1-.37-.37.37.37,0,0,1,.37-.36h1.63a.36.36,0,0,1,.36.36.37.37,0,0,1-.36.37Zm1.32,2.47a.36.36,0,1,1-.51-.51l1.16-1.16a.36.36,0,0,1,.51,0,.37.37,0,0,1,0,.52l-1.16,1.15Zm2.69.82a.36.36,0,0,1-.72,0V27.12a.36.36,0,0,1,.72,0v1.64Zm2.48-1.33a.36.36,0,1,1-.51.51l-1.16-1.15a.37.37,0,0,1,0-.52.36.36,0,0,1,.51,0l1.16,1.16Zm.81-2.69a.37.37,0,0,1,.37.36.38.38,0,0,1-.37.37h-1.63a.37.37,0,0,1-.36-.37.36.36,0,0,1,.36-.36Zm-1.32-2.48a.36.36,0,0,1,.51,0,.37.37,0,0,1,0,.52l-1.16,1.15a.36.36,0,0,1-.51-.51Z"/><rect class="cls-3" x="45.58" y="58.26" width="2.51" height="2.51" rx="0.58"/><rect class="cls-3" x="40.94" y="58.26" width="2.51" height="2.51" rx="0.58"/><rect class="cls-3" x="36.3" y="58.26" width="2.51" height="2.51" rx="0.58"/><rect class="cls-3" x="31.67" y="58.26" width="2.51" height="2.51" rx="0.58"/><rect class="cls-3" x="27.03" y="58.26" width="2.51" height="2.51" rx="0.58"/><rect class="cls-3" x="22.39" y="58.26" width="2.51" height="2.51" rx="0.58"/><rect class="cls-3" x="36.14" y="53.21" width="2.51" height="2.51" rx="0.58"/><rect class="cls-3" x="31.5" y="53.21" width="2.51" height="2.51" rx="0.58"/><rect class="cls-3" x="26.86" y="53.21" width="2.51" height="2.51" rx="0.58"/><rect class="cls-3" x="31.67" y="63.69" width="2.51" height="2.51" rx="0.58"/><rect class="cls-3" x="27.03" y="63.69" width="2.51" height="2.51" rx="0.58"/><path class="cls-4" d="M161.71,66.83Zm-1.58-6A3,3,0,1,0,161,63a3,3,0,0,0-.89-2.15Zm-.66-3a5.45,5.45,0,0,1,1.19.5,5.77,5.77,0,0,1,1.05.79.18.18,0,0,0,.22,0l1.41-.82h0a.39.39,0,0,1,.26,0,.34.34,0,0,1,.21.16h0l1,1.72a.37.37,0,0,1,0,.27.35.35,0,0,1-.17.21h0l-1.4.81a.18.18,0,0,0-.09.2h0a3.44,3.44,0,0,1,.12.64,4.87,4.87,0,0,1,0,.66,5.42,5.42,0,0,1-.16,1.3.2.2,0,0,0,.1.21l1.4.81h0a.33.33,0,0,1,.17.21.34.34,0,0,1,0,.26l-1,1.74h0a.35.35,0,0,1-.48.12h0l-1.4-.81a.2.2,0,0,0-.22,0,5.35,5.35,0,0,1-1.05.79,4.93,4.93,0,0,1-1.2.51.19.19,0,0,0-.13.18v1.63a.34.34,0,0,1-.35.35h-2a.34.34,0,0,1-.35-.35V68.3a.18.18,0,0,0-.14-.18,5,5,0,0,1-1.19-.51,5.35,5.35,0,0,1-1.05-.79.2.2,0,0,0-.23,0l-1.4.81a.35.35,0,0,1-.48-.12h0l-1-1.73h0a.3.3,0,0,1,0-.26.29.29,0,0,1,.16-.21l1.41-.82a.19.19,0,0,0,.09-.2h0a5.42,5.42,0,0,1-.16-1.3,4.87,4.87,0,0,1,0-.66,4.52,4.52,0,0,1,.12-.64.2.2,0,0,0-.1-.21l-1.4-.81a.31.31,0,0,1-.16-.21.32.32,0,0,1,0-.27h0l1-1.72h0a.34.34,0,0,1,.21-.16.42.42,0,0,1,.27,0h0l1.41.82a.2.2,0,0,0,.23,0,5.38,5.38,0,0,1,1-.79,5.33,5.33,0,0,1,1.2-.5.19.19,0,0,0,.13-.18V56a.36.36,0,0,1,.1-.25.37.37,0,0,1,.25-.1h2a.37.37,0,0,1,.25.1.36.36,0,0,1,.1.25v1.63A.19.19,0,0,0,159.47,57.8Z"/></g><path class="cls-5" d="M171.13,38.16a24.41,24.41,0,0,1-.27,3.65A25.21,25.21,0,0,1,146,63.29H114.8l-7.93,17.87a4.73,4.73,0,0,1-9.06-1.92v-19A25.06,25.06,0,0,1,92,20.41a25.5,25.5,0,0,1,5.49-4.17A24.94,24.94,0,0,1,109.69,13H146A25.21,25.21,0,0,1,171.13,38.16Z"/><path class="cls-6" d="M171.13,38.16a24.41,24.41,0,0,1-.27,3.65A44.74,44.74,0,0,1,141.55,52.7,44.92,44.92,0,0,1,97.44,16.24,24.94,24.94,0,0,1,109.69,13H146A25.21,25.21,0,0,1,171.13,38.16Z"/><path class="cls-7" d="M118.51,34V53.74a3.07,3.07,0,0,1-3.06,3.06h-5.77a2.59,2.59,0,0,1-2.59-2.58V33.51a2.58,2.58,0,0,1,2.59-2.58h5.77A3.06,3.06,0,0,1,118.51,34Z"/><path class="cls-8" d="M118.51,34v18.3h-3.13a2.59,2.59,0,0,1-2.58-2.59V30.93h2.65A3.06,3.06,0,0,1,118.51,34Z"/><path class="cls-9" d="M148.6,37.82V49a8.77,8.77,0,0,1-8.75,8.74H122.63a4.13,4.13,0,0,1-4.12-4.12V34.67a4.13,4.13,0,0,1,4.12-4.12h3.75a1.22,1.22,0,0,0,.94-.44l8.83-10.66a4.61,4.61,0,0,1,6.16-.92,4.55,4.55,0,0,1,.91,6.62l-2.83,3.43a1.21,1.21,0,0,0,1,2,7.27,7.27,0,0,1,7.26,7.27Z"/><path class="cls-10" d="M177.32,96.91A25.32,25.32,0,1,1,142,62.47a25.32,25.32,0,0,1,35.32,34.44Z"/><path class="cls-11" d="M177.32,96.91A25.32,25.32,0,0,1,139.7,83.82,25.28,25.28,0,0,1,142,62.47a25.32,25.32,0,0,1,35.32,34.44Z"/><circle class="cls-12" cx="150.14" cy="73.18" r="2.42"/><circle class="cls-12" cx="161.22" cy="73.18" r="2.42"/><path class="cls-12" d="M155.68,93A14.53,14.53,0,0,1,141.16,78.5a1.46,1.46,0,0,1,2.92,0,11.6,11.6,0,0,0,23.2,0,1.46,1.46,0,1,1,2.92,0A14.54,14.54,0,0,1,155.68,93Z"/><path class="cls-13" d="M148.6,37.82V49a8.7,8.7,0,0,1-1.76,5.24,26.15,26.15,0,0,1-22.4-23.69h1.94a1.22,1.22,0,0,0,.94-.44l8.83-10.66a4.61,4.61,0,0,1,6.16-.92,4.55,4.55,0,0,1,.91,6.62l-2.83,3.43a1.21,1.21,0,0,0,1,2,7.27,7.27,0,0,1,7.26,7.27Z"/><path class="cls-14" d="M97.25,130.86h-59l6-57.63h47l1,9.62Z"/><path class="cls-15" d="M68.56,91.86h32.67l4.16,39h-41Z"/><path class="cls-16" d="M71.83,91.86H104.5l4.16,39h-41Z"/><path class="cls-17" d="M80.44,80a1.16,1.16,0,0,1-1.17-1.16V67.24a11.51,11.51,0,1,0-23,0V78.87a1.17,1.17,0,0,1-2.34,0V67.24a13.85,13.85,0,0,1,27.7,0V78.87A1.17,1.17,0,0,1,80.44,80Z"/><path class="cls-17" d="M88.17,115.29a8.75,8.75,0,0,1-8.74-8.74V99a1.17,1.17,0,0,1,2.33,0v7.58a6.41,6.41,0,0,0,12.81,0V99a1.17,1.17,0,0,1,2.34,0v7.58A8.76,8.76,0,0,1,88.17,115.29Z"/></svg>