<svg xmlns="http://www.w3.org/2000/svg" xmlns:xlink="http://www.w3.org/1999/xlink" viewBox="0 0 213 143"><defs><style>.cls-1{isolation:isolate;}.cls-2{opacity:0.36;}.cls-3{fill:#94bfdf;}.cls-13,.cls-3,.cls-5{fill-rule:evenodd;}.cls-11,.cls-4,.cls-5{fill:#fff;}.cls-6{fill:#00c1c6;}.cls-7{fill:#003960;}.cls-8{fill:#05273a;opacity:0.61;}.cls-9{fill:#9fd7f2;opacity:0.3;}.cls-10{fill:none;stroke:#0d4e60;stroke-linecap:round;stroke-linejoin:round;}.cls-11{opacity:0.35;}.cls-12{fill:#5a3c11;}.cls-13{fill:#ff4478;}.cls-14,.cls-16{fill:#3097fe;}.cls-15{fill:#0761c2;}.cls-16,.cls-17,.cls-18{mix-blend-mode:multiply;}.cls-17{fill:#b0dcfe;}.cls-18{fill:#7fc7fd;}.cls-19{fill:#f9f9f9;}.cls-20{fill:#683c11;}</style></defs><title>ecommerce</title><g class="cls-1"><g id="Layer_1" data-name="Layer 1"><image width="2550" height="3300" transform="translate(201 25) scale(0.3)" xlink:href="../../../../16-12-19/framephone-02.png"/><g class="cls-2"><path class="cls-3" d="M170.82,17.82a24.63,24.63,0,0,1,24.55,24.55h0a24.63,24.63,0,0,1-24.55,24.56h0a4.94,4.94,0,0,0-4.93,4.92h0a5,5,0,0,0,4.93,4.93h12.84a12,12,0,0,1,12,12h0a12,12,0,0,1-12,12,10.39,10.39,0,0,0-10.35,10.36h0A19,19,0,0,1,154.4,130h-111a24.63,24.63,0,0,1-24.55-24.55h0A24.63,24.63,0,0,1,43.44,80.89h2.38A5,5,0,0,0,50.75,76h0A4.94,4.94,0,0,0,45.82,71h-16a12,12,0,0,1-12-12h0a12,12,0,0,1,12-12H42.67A10.39,10.39,0,0,0,53,36.72h0a19,19,0,0,1,18.9-18.9Z"/><rect class="cls-4" x="167.21" y="112.74" width="2.51" height="2.51" rx="0.58"/><rect class="cls-4" x="162.58" y="112.74" width="2.51" height="2.51" rx="0.58"/><path class="cls-4" d="M158.53,112.74h1.34a.58.58,0,0,1,.58.58v1.34a.58.58,0,0,1-.58.58h-1.34a.59.59,0,0,1-.59-.59v-1.34A.58.58,0,0,1,158.53,112.74Z"/><rect class="cls-4" x="153.31" y="112.74" width="2.51" height="2.51" rx="0.58"/><rect class="cls-4" x="148.67" y="112.74" width="2.51" height="2.51" rx="0.58"/><rect class="cls-4" x="162.41" y="107.68" width="2.51" height="2.51" rx="0.58"/><rect class="cls-4" x="157.77" y="107.68" width="2.51" height="2.51" rx="0.58"/><path class="cls-4" d="M153.72,107.68h1.34a.59.59,0,0,1,.59.59v1.34a.58.58,0,0,1-.58.58h-1.34a.58.58,0,0,1-.58-.58v-1.34A.58.58,0,0,1,153.72,107.68Z"/><path class="cls-4" d="M158.53,118.17h1.34a.58.58,0,0,1,.58.58v1.34a.59.59,0,0,1-.59.59h-1.34a.59.59,0,0,1-.59-.59v-1.34A.58.58,0,0,1,158.53,118.17Z"/><path class="cls-4" d="M153.89,118.17h1.34a.58.58,0,0,1,.58.58v1.34a.59.59,0,0,1-.59.59h-1.34a.58.58,0,0,1-.58-.58v-1.34A.58.58,0,0,1,153.89,118.17Z"/><path class="cls-5" d="M146,67.52a.36.36,0,0,1,.36-.36.37.37,0,0,1,.37.36v1.64a.37.37,0,0,1-.37.36.36.36,0,0,1-.36-.36V67.52Zm-2.48,1.33a.36.36,0,0,1,0-.51.36.36,0,0,1,.52,0l1.15,1.15a.37.37,0,0,1,0,.52.36.36,0,0,1-.51,0l-1.16-1.16Zm-.81,2.69a.36.36,0,0,1-.36-.36.37.37,0,0,1,.36-.37h1.63a.37.37,0,0,1,.37.37.36.36,0,0,1-.37.36ZM144,74a.37.37,0,0,1-.52-.52l1.16-1.15a.36.36,0,1,1,.51.51L144,74Zm2.69.81a.37.37,0,0,1-.37.36.36.36,0,0,1-.36-.36V73.2a.36.36,0,0,1,.36-.37.37.37,0,0,1,.37.37v1.63Zm2.47-1.33a.36.36,0,0,1,0,.52.36.36,0,0,1-.51,0l-1.16-1.16a.36.36,0,0,1,0-.51.37.37,0,0,1,.52,0l1.15,1.15Zm.82-2.69a.37.37,0,0,1,.36.37.36.36,0,0,1-.36.36h-1.64a.36.36,0,0,1-.36-.36.37.37,0,0,1,.36-.37Zm-1.33-2.47a.36.36,0,0,1,.51.51L148,70a.37.37,0,0,1-.52-.52Z"/><path class="cls-5" d="M148.51,52.83v.59h.59a.45.45,0,0,1,.44.45h0a.45.45,0,0,1-.44.45h-.59v.59a.45.45,0,0,1-.45.45h0a.45.45,0,0,1-.45-.45v-.59H147a.45.45,0,0,1-.45-.45h0a.46.46,0,0,1,.45-.45h.59v-.59a.45.45,0,0,1,.45-.44h0A.45.45,0,0,1,148.51,52.83Z"/><path class="cls-5" d="M95.28,35.55v.59h.58a.45.45,0,0,1,.45.45h0a.45.45,0,0,1-.45.45h-.58v.59a.45.45,0,0,1-.45.44h0a.45.45,0,0,1-.45-.44V37h-.59a.45.45,0,0,1-.45-.45h0a.45.45,0,0,1,.45-.45h.59v-.59a.45.45,0,0,1,.45-.45h0A.46.46,0,0,1,95.28,35.55Z"/><path class="cls-5" d="M51.19,52.11v.59h.59a.45.45,0,0,1,.45.44h0a.45.45,0,0,1-.45.45h-.59v.59a.45.45,0,0,1-.45.45h0a.45.45,0,0,1-.44-.45v-.59h-.59a.45.45,0,0,1-.45-.45h0a.45.45,0,0,1,.45-.44h.59v-.59a.45.45,0,0,1,.44-.45h0A.45.45,0,0,1,51.19,52.11Z"/><path class="cls-5" d="M58.16,41.5a.36.36,0,0,1,.72,0v1.64a.36.36,0,1,1-.72,0V41.5Zm-2.48,1.33a.36.36,0,0,1,0-.51.35.35,0,0,1,.51,0l1.16,1.15a.37.37,0,0,1,0,.52.36.36,0,0,1-.51,0l-1.16-1.16Zm-.81,2.69a.37.37,0,0,1-.37-.36.38.38,0,0,1,.37-.37H56.5a.37.37,0,0,1,.36.37.36.36,0,0,1-.36.36ZM56.19,48a.36.36,0,0,1-.51,0,.37.37,0,0,1,0-.52l1.16-1.15a.35.35,0,0,1,.51,0,.36.36,0,0,1,0,.51L56.19,48Zm2.69.81a.36.36,0,1,1-.72,0V47.18a.36.36,0,1,1,.72,0v1.63Zm2.48-1.33a.37.37,0,0,1,0,.52.36.36,0,0,1-.51,0l-1.16-1.16a.36.36,0,0,1,0-.51.35.35,0,0,1,.51,0l1.16,1.15Zm.81-2.69a.38.38,0,0,1,.37.37.37.37,0,0,1-.37.36H60.54a.36.36,0,0,1-.36-.36.37.37,0,0,1,.36-.37Zm-1.32-2.47a.35.35,0,0,1,.51,0,.36.36,0,0,1,0,.51L60.2,44a.36.36,0,0,1-.51,0,.37.37,0,0,1,0-.52Z"/><path class="cls-5" d="M87.3,76.91a.36.36,0,0,1,.36-.36.37.37,0,0,1,.37.36v1.63a.38.38,0,0,1-.37.37.37.37,0,0,1-.36-.37V76.91Zm-2.48,1.33a.37.37,0,1,1,.52-.52l1.15,1.16a.35.35,0,0,1,0,.51.36.36,0,0,1-.51,0l-1.16-1.15ZM84,80.93a.37.37,0,0,1-.36-.37A.36.36,0,0,1,84,80.2h1.64a.36.36,0,0,1,.36.36.37.37,0,0,1-.36.37Zm1.33,2.47a.36.36,0,0,1-.52,0,.36.36,0,0,1,0-.51L86,81.73a.36.36,0,0,1,.51,0,.36.36,0,0,1,0,.52L85.34,83.4Zm2.69.82a.37.37,0,0,1-.37.36.36.36,0,0,1-.36-.36V82.58a.36.36,0,0,1,.36-.36.37.37,0,0,1,.37.36v1.64Zm2.48-1.33a.36.36,0,0,1,0,.51.36.36,0,0,1-.52,0l-1.16-1.15a.37.37,0,0,1,.52-.52l1.16,1.16Zm.81-2.69a.36.36,0,0,1,.36.36.37.37,0,0,1-.36.37H89.68a.37.37,0,0,1-.36-.37.36.36,0,0,1,.36-.36ZM90,77.72a.37.37,0,1,1,.52.52l-1.16,1.15a.37.37,0,0,1-.52,0,.36.36,0,0,1,0-.51Z"/><path class="cls-5" d="M164.37,20.45a.36.36,0,0,1,.72,0v1.63a.36.36,0,1,1-.72,0V20.45Zm-2.48,1.33a.37.37,0,0,1,0-.52.36.36,0,0,1,.51,0l1.16,1.16a.36.36,0,0,1-.51.51l-1.16-1.15Zm-.81,2.69a.38.38,0,0,1-.37-.37.37.37,0,0,1,.37-.36h1.63a.36.36,0,0,1,.36.36.37.37,0,0,1-.36.37Zm1.32,2.47a.36.36,0,1,1-.51-.51l1.16-1.16a.36.36,0,0,1,.51,0,.37.37,0,0,1,0,.52l-1.16,1.15Zm2.69.82a.36.36,0,0,1-.72,0V26.12a.36.36,0,0,1,.72,0v1.64Zm2.48-1.33a.36.36,0,1,1-.51.51l-1.16-1.15a.37.37,0,0,1,0-.52.36.36,0,0,1,.51,0l1.16,1.16Zm.81-2.69a.37.37,0,0,1,.37.36.38.38,0,0,1-.37.37h-1.63a.37.37,0,0,1-.36-.37.36.36,0,0,1,.36-.36Zm-1.32-2.48a.36.36,0,0,1,.51,0,.37.37,0,0,1,0,.52l-1.16,1.15a.36.36,0,0,1-.51-.51Z"/><rect class="cls-4" x="45.58" y="57.26" width="2.51" height="2.51" rx="0.58"/><rect class="cls-4" x="40.94" y="57.26" width="2.51" height="2.51" rx="0.58"/><rect class="cls-4" x="36.3" y="57.26" width="2.51" height="2.51" rx="0.58"/><rect class="cls-4" x="31.67" y="57.26" width="2.51" height="2.51" rx="0.58"/><rect class="cls-4" x="27.03" y="57.26" width="2.51" height="2.51" rx="0.58"/><rect class="cls-4" x="22.39" y="57.26" width="2.51" height="2.51" rx="0.58"/><rect class="cls-4" x="36.14" y="52.21" width="2.51" height="2.51" rx="0.58"/><rect class="cls-4" x="31.5" y="52.21" width="2.51" height="2.51" rx="0.58"/><rect class="cls-4" x="26.86" y="52.21" width="2.51" height="2.51" rx="0.58"/><rect class="cls-4" x="31.67" y="62.69" width="2.51" height="2.51" rx="0.58"/><rect class="cls-4" x="27.03" y="62.69" width="2.51" height="2.51" rx="0.58"/><path class="cls-5" d="M161.71,65.83Zm-1.58-6A3,3,0,1,0,161,62a3,3,0,0,0-.89-2.15Zm-.66-3a5.45,5.45,0,0,1,1.19.5,5.77,5.77,0,0,1,1.05.79.18.18,0,0,0,.22,0l1.41-.82h0a.39.39,0,0,1,.26,0,.34.34,0,0,1,.21.16h0l1,1.72a.37.37,0,0,1,0,.27.35.35,0,0,1-.17.21h0l-1.4.81a.18.18,0,0,0-.09.2h0a3.44,3.44,0,0,1,.12.64,4.87,4.87,0,0,1,0,.66,5.42,5.42,0,0,1-.16,1.3.2.2,0,0,0,.1.21l1.4.81h0a.33.33,0,0,1,.17.21.34.34,0,0,1,0,.26l-1,1.74h0a.35.35,0,0,1-.48.12h0l-1.4-.81a.2.2,0,0,0-.22,0,5.35,5.35,0,0,1-1.05.79,4.93,4.93,0,0,1-1.2.51.19.19,0,0,0-.13.18v1.63a.34.34,0,0,1-.35.35h-2a.34.34,0,0,1-.35-.35V67.3a.18.18,0,0,0-.14-.18,5,5,0,0,1-1.19-.51,5.35,5.35,0,0,1-1.05-.79.2.2,0,0,0-.23,0l-1.4.81a.35.35,0,0,1-.48-.12h0l-1-1.73h0a.3.3,0,0,1,0-.26.29.29,0,0,1,.16-.21l1.41-.82a.19.19,0,0,0,.09-.2h0a5.42,5.42,0,0,1-.16-1.3,4.87,4.87,0,0,1,0-.66,4.52,4.52,0,0,1,.12-.64.2.2,0,0,0-.1-.21l-1.4-.81a.31.31,0,0,1-.16-.21.32.32,0,0,1,0-.27h0l1-1.72h0a.34.34,0,0,1,.21-.16.42.42,0,0,1,.27,0h0l1.41.82a.2.2,0,0,0,.23,0,5.38,5.38,0,0,1,1-.79,5.33,5.33,0,0,1,1.2-.5.19.19,0,0,0,.13-.18V55a.36.36,0,0,1,.1-.25.37.37,0,0,1,.25-.1h2a.37.37,0,0,1,.25.1.36.36,0,0,1,.1.25v1.63A.19.19,0,0,0,159.47,56.8Z"/></g><path class="cls-6" d="M135.59,27.39c-.52,1.58.45,3.27.43,4.94-.05,3.24-3.85,5.24-7.09,5s-6.19-1.87-9.35-2.63-7.09-.29-8.71,2.52c-1.39,2.44-.46,5.57-1.29,8.25-.9,2.88-3.62,4.74-5.42,7.15a12.61,12.61,0,0,0,13.58,19.67,28.91,28.91,0,0,1,4.05-1.2,3.87,3.87,0,0,1,3.77,1.37c.91,1.38.36,3.19,0,4.8a16,16,0,0,0,2.57,12.25c1.59,2.24,3.82,4.18,4.43,6.86a35.54,35.54,0,0,1,.31,4.14,7,7,0,0,0,2.47,4.82,4.49,4.49,0,0,0,5.19.3,7.3,7.3,0,0,0,1.89-2.4c3.32-5.65,6.7-11.47,7.84-17.93.48-2.72.61-5.65,2.22-7.89s4.34-3.31,6.39-5.15c2.74-2.45,4.6-6.43,7.56-8.12a51.21,51.21,0,0,0-9.35-22.75,58.85,58.85,0,0,0-18.64-16.67l-.09.05A5.13,5.13,0,0,0,135.59,27.39Z"/><path class="cls-7" d="M158.9,72.28c-2.05,1.84-4.79,2.91-6.39,5.15s-1.74,5.17-2.22,7.89c-1.14,6.46-4.52,12.28-7.84,17.93a7.3,7.3,0,0,1-1.89,2.4,4.49,4.49,0,0,1-5.19-.3,7,7,0,0,1-2.47-4.82,35.54,35.54,0,0,0-.31-4.14c-.61-2.68-2.84-4.62-4.43-6.86a16,16,0,0,1-2.57-12.25c.33-1.61.88-3.42,0-4.8a3.87,3.87,0,0,0-3.77-1.37,28.91,28.91,0,0,0-4.05,1.2,12.61,12.61,0,0,1-13.58-19.67c1.8-2.41,4.52-4.27,5.42-7.15.83-2.68-.1-5.81,1.29-8.25,1.62-2.81,5.56-3.28,8.71-2.52s6.11,2.41,9.35,2.63,7-1.78,7.09-5c0-1.67-1-3.36-.43-4.94a5.13,5.13,0,0,1,2.79-2.6l.09-.05a59.06,59.06,0,0,0-31.81-7.68c-1,2.28-2.09,4.61-1.91,7,.09,1,.41,2.13-.06,3.05a2.74,2.74,0,0,1-1.12,1.09,4.43,4.43,0,0,1-6.07-2.29,11.92,11.92,0,0,0-.77-2.32,2.68,2.68,0,0,0-2.46-1.19,3.23,3.23,0,0,0-2.8,4.74c.26.51.53,1,.75,1.55.71,1.66.92,3.83-.4,5.07a4.72,4.72,0,0,1-1.94,1,5.29,5.29,0,0,0-3.53,6.18c.44,1.83,1.21,3.67.85,5.51-.72,3.7-5.25,5-8,7.53-2.38,2.14-3.72,5.47-6.59,6.88s-6.93,1-7.92,4.06a3.81,3.81,0,0,0,.68,3.48c1.86,2.42,4.85,2.89,7.22,4.44a12.9,12.9,0,0,0,2.89,1.77c2.59.83,5.14-1.18,7.25-2.91s5.14-3.32,7.38-1.77c1,.72,1.58,2,2.53,2.78,2.35,2.08,6.15,1,9,2.41s4,5.14,3.4,8.29-2.51,5.88-4.38,8.49L96.18,98a8.24,8.24,0,0,0-1.55,2.92c-.42,1.86.45,3.8.12,5.68-.28,1.63-1.43,3-1.92,4.56-1.15,3.7,1.44,8-.35,11.45-4.39-4.68-9-10-9.25-16.37-.06-1.88.27-3.8-.09-5.65-.61-3.15-3.09-5.54-5-8.11s-3.39-6.13-1.77-8.91A7,7,0,0,0,77.19,82c.49-1.73-1.42-3.22-3.18-3.59s-3.72-.26-5.16-1.34A14.75,14.75,0,0,1,67,75c-2.62-2.95-7.47-3.77-9-7.4-1.83-4.27,2.29-9.34.62-13.68a6.49,6.49,0,0,0-.63-1.23c-.68,1.65-1.29,3.35-1.83,5.08a65.19,65.19,0,0,0-2.5,26.31,53.43,53.43,0,0,0,5.09,19.5c6.89,14.3,20.44,22.2,34.77,25.47,15.87,3.63,32.83,3.14,46.58-7,18.19-13.37,29.64-36,26.43-57.91C163.5,65.85,161.64,69.83,158.9,72.28Z"/><path class="cls-6" d="M57.93,67.59c1.56,3.63,6.41,4.45,9,7.4a14.75,14.75,0,0,0,1.89,2.12c1.44,1.08,3.41,1,5.16,1.34s3.67,1.86,3.18,3.59a7,7,0,0,1-.84,1.51c-1.62,2.78-.16,6.34,1.77,8.91s4.41,5,5,8.11c.36,1.85,0,3.77.09,5.65.21,6.41,4.86,11.69,9.25,16.37,1.79-3.43-.8-7.75.35-11.45.49-1.58,1.64-2.93,1.92-4.56.33-1.88-.54-3.82-.12-5.68A8.24,8.24,0,0,1,96.18,98l4.41-6.16c1.87-2.61,3.78-5.33,4.38-8.49s-.52-6.88-3.4-8.29-6.62-.33-9-2.41c-.95-.83-1.5-2.06-2.53-2.78-2.24-1.55-5.27.05-7.38,1.77S78,75.36,75.44,74.53a12.9,12.9,0,0,1-2.89-1.77c-2.37-1.55-5.36-2-7.22-4.44a3.81,3.81,0,0,1-.68-3.48c1-3.05,5.14-2.69,7.92-4.06S76.78,56,79.16,53.9c2.79-2.53,7.32-3.83,8-7.53.36-1.84-.41-3.68-.85-5.51a5.29,5.29,0,0,1,3.53-6.18,4.72,4.72,0,0,0,1.94-1c1.32-1.24,1.11-3.41.4-5.07-.22-.52-.49-1-.75-1.55a3.23,3.23,0,0,1,2.8-4.74,2.68,2.68,0,0,1,2.46,1.19,11.92,11.92,0,0,1,.77,2.32,4.43,4.43,0,0,0,6.07,2.29,2.74,2.74,0,0,0,1.12-1.09c.47-.92.15-2,.06-3.05-.18-2.35.93-4.68,1.91-7a52.4,52.4,0,0,0-25.07,7.65,59.47,59.47,0,0,0-23.67,28,6.49,6.49,0,0,1,.63,1.23C60.22,58.25,56.1,63.32,57.93,67.59Z"/><path class="cls-8" d="M155.06,43A57.13,57.13,0,0,1,55.25,97.38,57.13,57.13,0,1,0,155.06,43Z"/><path class="cls-9" d="M63.5,45.63a58.26,58.26,0,0,1,25-21.11,24.88,24.88,0,0,1,7.07-2.13,11.64,11.64,0,0,1,7.18,1.3,3.43,3.43,0,0,1,1.87,2.3c.21,1.61-1.4,2.81-2.81,3.61-8.72,5-17.75,9.73-24.87,16.81a18.32,18.32,0,0,0-2.79,3.36c-.62,1-1.07,2.14-1.73,3.13A13.24,13.24,0,0,1,68,56.78a10.1,10.1,0,0,1-4,1.51A4.55,4.55,0,0,1,60.17,57C57.54,54.05,61.89,48.07,63.5,45.63Z"/><path class="cls-10" d="M56.54,46.4a56.43,56.43,0,0,1,6.85-9.06"/><path class="cls-10" d="M56.58,43.54a41.05,41.05,0,0,1,3.77-4.94"/><path class="cls-10" d="M57.15,40.78l.7-.71"/><path class="cls-10" d="M155.64,110.29a38.38,38.38,0,0,1-8,7.52"/><path class="cls-10" d="M155.87,112.26a14.36,14.36,0,0,1-5.42,5.57"/><path class="cls-10" d="M155,115.62a10.64,10.64,0,0,1-1.26,1.07"/><path class="cls-10" d="M155.45,40a22.91,22.91,0,0,1,3.26,6.21"/><path class="cls-10" d="M157.56,41.14,158.92,44"/><ellipse class="cls-11" cx="106.5" cy="73.5" rx="39.5" ry="33.5"/><path class="cls-12" d="M101.05,74.2a4.73,4.73,0,0,0,3.54,4.51,5.7,5.7,0,0,0,5.58-1.2,4.58,4.58,0,0,0,1.25-3.31.63.63,0,0,0-1.25,0,3.3,3.3,0,0,1-2.59,3.37,4.67,4.67,0,0,1-4.29-1,3.25,3.25,0,0,1-1-2.39.63.63,0,0,0-1.25,0Z"/><path d="M98.59,70.71a6.18,6.18,0,1,0-6.17-6.17,6.24,6.24,0,0,0,6.17,6.17Z"/><path d="M113.88,70.71a6.18,6.18,0,1,0-6.18-6.17,6.24,6.24,0,0,0,6.18,6.17Z"/><circle class="cls-4" cx="101.03" cy="62.89" r="1.5"/><circle class="cls-4" cx="116.53" cy="62.39" r="1.5"/><path class="cls-13" d="M96,72.35c0,1.82-1.83,3.3-4.08,3.3s-4.07-1.48-4.07-3.3,1.82-3.29,4.07-3.29S96,70.53,96,72.35Z"/><path class="cls-13" d="M124.6,72.35c0,1.82-1.82,3.3-4.07,3.3s-4.08-1.48-4.08-3.3,1.82-3.29,4.08-3.29S124.6,70.53,124.6,72.35Z"/><path class="cls-14" d="M139.41,81.7l8.17,26.76a4.19,4.19,0,0,0,5.24,2.79l-9.4-30.77Z"/><path class="cls-15" d="M143.42,80.48l9.4,30.77.08,0a4.21,4.21,0,0,0,2.79-5.24l-8.18-26.76Z"/><path class="cls-15" d="M120.75,55.13A19.63,19.63,0,1,0,147.3,47,19.63,19.63,0,0,0,120.75,55.13Zm29.92,15.92a14.25,14.25,0,1,1-5.89-19.29A14.18,14.18,0,0,1,150.67,71.05Z"/><path class="cls-16" d="M126.73,67.82c-2.3-7.53.92-15.19,7.18-17.1A14.26,14.26,0,1,0,142.25,78C136,79.91,129,75.35,126.73,67.82Z"/><path class="cls-17" d="M133.91,50.72c6.27-1.92,13.22,2.64,15.52,10.17s-.92,15.19-7.18,17.1a14.26,14.26,0,1,0-8.34-27.27Z"/><path class="cls-18" d="M149.43,60.89c-2.3-7.53-9.25-12.09-15.52-10.17s-9.48,9.57-7.18,17.1S136,79.91,142.25,78,151.73,68.42,149.43,60.89Z"/><path class="cls-14" d="M143.32,55.34l-.66-.3c2.24,1.81,2.9,3.23,3.88,6,.71,2.83,1.39,5.76.54,8.51,3-4.62,1.63-11.87-3.76-14.18C142.91,55.14,143.54,55.43,143.32,55.34Z"/><path class="cls-19" d="M132.51,73.44l.67.29c-2.24-1.8-2.9-3.22-3.88-6-.71-2.82-1.4-5.75-.54-8.5-3,4.62-1.63,11.87,3.75,14.18Z"/><path class="cls-20" d="M162.69,83.66a9,9,0,0,1,3.67,5.89,13.11,13.11,0,0,1-.12,2.77,12.71,12.71,0,0,1-1.06,3.12,15.67,15.67,0,0,1-4.53,5.48,15.89,15.89,0,0,1-2.84,1.68,9.62,9.62,0,0,1-1.19.42c-.25.08-.51.14-.77.2-.09,0-1,.18-.63.13a2.54,2.54,0,0,0-2.47,2.47,2.47,2.47,0,0,0,2.47,2.46c12.6-1.49,22.38-18.86,11-28.11a2.54,2.54,0,0,0-3.49,0,2.49,2.49,0,0,0,0,3.49Z"/><path class="cls-20" d="M155.21,103.05h0l.46.06a12.31,12.31,0,0,1-1.69-.43q-.47-.15-.93-.27a9.1,9.1,0,0,0-1.16-.21,1.69,1.69,0,0,0-1.22.51,1.75,1.75,0,0,0-.51,1.22,1.73,1.73,0,0,0,.51,1.22l.35.27a1.68,1.68,0,0,0,.87.24h0l-.46-.06a11.36,11.36,0,0,1,1.69.44l.93.26a9.1,9.1,0,0,0,1.16.21,1.71,1.71,0,0,0,1.22-.51,1.75,1.75,0,0,0,.51-1.22,1.73,1.73,0,0,0-.51-1.22l-.35-.27a1.68,1.68,0,0,0-.87-.24Z"/><path class="cls-20" d="M155.27,103.88a20.51,20.51,0,0,0-5,2.66,1.85,1.85,0,0,0-.79,1,1.73,1.73,0,0,0,2.54,2,21.55,21.55,0,0,1,3.71-2.17l-.41.17c.27-.11.55-.22.84-.31a1.81,1.81,0,0,0,1-.79,1.8,1.8,0,0,0,.18-1.34,1.77,1.77,0,0,0-2.13-1.21Z"/><path class="cls-20" d="M154.24,104.68c-.7,1.47-1.22,3-1.85,4.51l.18-.42c-.14.33-.29.66-.44,1a1.82,1.82,0,0,0-.18,1.33,1.72,1.72,0,0,0,.8,1,1.75,1.75,0,0,0,2.37-.62c.69-1.46,1.21-3,1.84-4.5l-.17.41c.13-.33.28-.65.43-1a1.84,1.84,0,0,0,.18-1.34,1.73,1.73,0,0,0-3.16-.41Z"/><path class="cls-20" d="M154.52,106.84a7,7,0,0,1,.55,1l-.18-.42a5.7,5.7,0,0,1,.39,1.44l-.06-.46a5,5,0,0,1,0,1.28l.06-.46a3.82,3.82,0,0,1-.11.57,1.81,1.81,0,0,0,.18,1.33,1.79,1.79,0,0,0,1,.8,1.77,1.77,0,0,0,2.13-1.21,7.11,7.11,0,0,0-1-5.62,1.84,1.84,0,0,0-1-.8,1.73,1.73,0,0,0-2.13,1.21,1.72,1.72,0,0,0,.18,1.33Z"/><path class="cls-20" d="M52,79c-11.42,9.25-1.64,26.62,11,28.11a2.47,2.47,0,0,0,2.47-2.46A2.54,2.54,0,0,0,63,102.14c.39,0-.41-.08-.5-.1a8.46,8.46,0,0,1-.9-.23,7.79,7.79,0,0,1-1.19-.42,16.49,16.49,0,0,1-2.84-1.67A15.7,15.7,0,0,1,53,94.23a10.67,10.67,0,0,1-1.18-5.89,9,9,0,0,1,3.67-5.89,2.49,2.49,0,0,0,0-3.49A2.53,2.53,0,0,0,52,79Z"/><path class="cls-20" d="M63,105.3a9.1,9.1,0,0,0,1.16-.21l.93-.26a12.69,12.69,0,0,1,1.69-.43l-.46.06h0a1.29,1.29,0,0,0,.67-.15,1.24,1.24,0,0,0,.55-.35,1.78,1.78,0,0,0,.51-1.23,1.75,1.75,0,0,0-.51-1.22,1.67,1.67,0,0,0-1.22-.51,9.12,9.12,0,0,0-1.16.22l-.93.26a12.31,12.31,0,0,1-1.69.43l.46-.06h0a1.33,1.33,0,0,0-.66.14,1.29,1.29,0,0,0-.56.36,1.73,1.73,0,0,0,0,2.45,1.66,1.66,0,0,0,1.22.5Z"/><path class="cls-20" d="M62,106c.28.1.57.2.84.32l-.41-.18a22.21,22.21,0,0,1,3.71,2.17,1.72,1.72,0,0,0,1.33.17,1.73,1.73,0,0,0,.42-3.16,20.14,20.14,0,0,0-5-2.65,1.74,1.74,0,0,0-2.13,1.21A1.77,1.77,0,0,0,62,106Z"/><path class="cls-20" d="M61,105.22c.15.32.29.65.43,1l-.17-.41c.63,1.5,1.15,3,1.84,4.51a1.73,1.73,0,0,0,1,.79,1.77,1.77,0,0,0,1.33-.17,1.74,1.74,0,0,0,.8-1,2,2,0,0,0-.18-1.33c-.15-.32-.3-.65-.44-1l.18.41c-.63-1.5-1.15-3-1.85-4.51a1.71,1.71,0,0,0-1-.79,1.76,1.76,0,0,0-1.33.17,1.74,1.74,0,0,0-.8,1,1.93,1.93,0,0,0,.18,1.33Z"/><path class="cls-20" d="M60.67,103.89a7.11,7.11,0,0,0-1,5.62,1.75,1.75,0,0,0,2.13,1.21A1.77,1.77,0,0,0,63,108.59a3.69,3.69,0,0,1-.11-.56l.06.46a5,5,0,0,1,0-1.28l-.06.46a5.48,5.48,0,0,1,.39-1.44l-.18.41a7.58,7.58,0,0,1,.55-1,1.76,1.76,0,0,0,.18-1.33,1.83,1.83,0,0,0-.8-1,1.77,1.77,0,0,0-2.37.62Z"/></g></g></svg>