<svg id="Layer_1" data-name="Layer 1" xmlns="http://www.w3.org/2000/svg" viewBox="0 0 233 143"><defs><style>.cls-1{opacity:0.36;}.cls-2{fill:#94bfdf;}.cls-2,.cls-4{fill-rule:evenodd;}.cls-3,.cls-4{fill:#fff;}.cls-5{fill:#ffc473;}.cls-6{fill:#ffdba9;}.cls-7{fill:#60dd4e;}.cls-8{fill:#00c37a;}.cls-9{fill:#fbb03b;}.cls-10{fill:#ffdaa9;}.cls-11{fill:#09607d;}.cls-12{fill:#07485e;}</style></defs><title>ecommerce</title><g class="cls-1"><path class="cls-2" d="M184.82,20.82a24.63,24.63,0,0,1,24.55,24.55h0a24.63,24.63,0,0,1-24.55,24.56h0a4.94,4.94,0,0,0-4.93,4.92h0a5,5,0,0,0,4.93,4.93h12.84a12,12,0,0,1,12,12h0a12,12,0,0,1-12,12,10.39,10.39,0,0,0-10.35,10.36h0A19,19,0,0,1,168.4,133h-111a24.63,24.63,0,0,1-24.55-24.55h0A24.63,24.63,0,0,1,57.44,83.89h2.38A5,5,0,0,0,64.75,79h0A4.94,4.94,0,0,0,59.82,74h-16a12,12,0,0,1-12-12h0a12,12,0,0,1,12-12H56.67A10.39,10.39,0,0,0,67,39.72h0a19,19,0,0,1,18.9-18.9Z"/><rect class="cls-3" x="181.21" y="115.74" width="2.51" height="2.51" rx="0.58"/><rect class="cls-3" x="176.58" y="115.74" width="2.51" height="2.51" rx="0.58"/><path class="cls-3" d="M172.53,115.74h1.34a.58.58,0,0,1,.58.58v1.34a.58.58,0,0,1-.58.58h-1.34a.59.59,0,0,1-.59-.59v-1.34A.58.58,0,0,1,172.53,115.74Z"/><rect class="cls-3" x="167.31" y="115.74" width="2.51" height="2.51" rx="0.58"/><rect class="cls-3" x="162.67" y="115.74" width="2.51" height="2.51" rx="0.58"/><rect class="cls-3" x="176.41" y="110.68" width="2.51" height="2.51" rx="0.58"/><rect class="cls-3" x="171.77" y="110.68" width="2.51" height="2.51" rx="0.58"/><path class="cls-3" d="M167.72,110.68h1.34a.59.59,0,0,1,.59.59v1.34a.58.58,0,0,1-.58.58h-1.34a.58.58,0,0,1-.58-.58v-1.34A.58.58,0,0,1,167.72,110.68Z"/><path class="cls-3" d="M172.53,121.17h1.34a.58.58,0,0,1,.58.58v1.34a.59.59,0,0,1-.59.59h-1.34a.59.59,0,0,1-.59-.59v-1.34A.58.58,0,0,1,172.53,121.17Z"/><path class="cls-3" d="M167.89,121.17h1.34a.58.58,0,0,1,.58.58v1.34a.59.59,0,0,1-.59.59h-1.34a.58.58,0,0,1-.58-.58v-1.34A.58.58,0,0,1,167.89,121.17Z"/><path class="cls-4" d="M160,70.52a.36.36,0,0,1,.36-.36.37.37,0,0,1,.37.36v1.64a.37.37,0,0,1-.37.36.36.36,0,0,1-.36-.36V70.52Zm-2.48,1.33a.36.36,0,0,1,0-.51.36.36,0,0,1,.52,0l1.15,1.15a.37.37,0,0,1,0,.52.36.36,0,0,1-.51,0l-1.16-1.16Zm-.81,2.69a.36.36,0,0,1-.36-.36.37.37,0,0,1,.36-.37h1.63a.37.37,0,0,1,.37.37.36.36,0,0,1-.37.36ZM158,77a.37.37,0,0,1-.52-.52l1.16-1.15a.36.36,0,1,1,.51.51L158,77Zm2.69.81a.37.37,0,0,1-.37.36.36.36,0,0,1-.36-.36V76.2a.36.36,0,0,1,.36-.37.37.37,0,0,1,.37.37v1.63Zm2.47-1.33a.36.36,0,0,1,0,.52.36.36,0,0,1-.51,0l-1.16-1.16a.36.36,0,0,1,0-.51.37.37,0,0,1,.52,0l1.15,1.15Zm.82-2.69a.37.37,0,0,1,.36.37.36.36,0,0,1-.36.36h-1.64a.36.36,0,0,1-.36-.36.37.37,0,0,1,.36-.37Zm-1.33-2.47a.36.36,0,0,1,.51.51L162,73a.37.37,0,0,1-.52-.52Z"/><path class="cls-4" d="M162.51,55.83v.59h.59a.45.45,0,0,1,.44.45h0a.45.45,0,0,1-.44.45h-.59v.59a.45.45,0,0,1-.45.45h0a.45.45,0,0,1-.45-.45v-.59H161a.45.45,0,0,1-.45-.45h0a.46.46,0,0,1,.45-.45h.59v-.59a.45.45,0,0,1,.45-.44h0A.45.45,0,0,1,162.51,55.83Z"/><path class="cls-4" d="M109.28,38.55v.59h.58a.45.45,0,0,1,.45.45h0a.45.45,0,0,1-.45.45h-.58v.59a.45.45,0,0,1-.45.44h0a.45.45,0,0,1-.45-.44V40h-.59a.45.45,0,0,1-.45-.45h0a.45.45,0,0,1,.45-.45h.59v-.59a.45.45,0,0,1,.45-.45h0A.46.46,0,0,1,109.28,38.55Z"/><path class="cls-4" d="M65.19,55.11v.59h.59a.45.45,0,0,1,.45.44h0a.45.45,0,0,1-.45.45h-.59v.59a.45.45,0,0,1-.45.45h0a.45.45,0,0,1-.44-.45v-.59h-.59a.45.45,0,0,1-.45-.45h0a.45.45,0,0,1,.45-.44h.59v-.59a.45.45,0,0,1,.44-.45h0A.45.45,0,0,1,65.19,55.11Z"/><path class="cls-4" d="M72.16,44.5a.36.36,0,1,1,.72,0v1.64a.36.36,0,0,1-.72,0V44.5Zm-2.48,1.33a.36.36,0,0,1,0-.51.35.35,0,0,1,.51,0l1.16,1.15a.37.37,0,0,1,0,.52.36.36,0,0,1-.51,0l-1.16-1.16Zm-.81,2.69a.37.37,0,0,1-.37-.36.38.38,0,0,1,.37-.37H70.5a.37.37,0,0,1,.36.37.36.36,0,0,1-.36.36ZM70.19,51a.36.36,0,0,1-.51,0,.37.37,0,0,1,0-.52l1.16-1.15a.35.35,0,0,1,.51,0,.36.36,0,0,1,0,.51L70.19,51Zm2.69.81a.36.36,0,1,1-.72,0V50.18a.36.36,0,1,1,.72,0v1.63Zm2.48-1.33a.37.37,0,0,1,0,.52.36.36,0,0,1-.51,0l-1.16-1.16a.36.36,0,0,1,0-.51.35.35,0,0,1,.51,0l1.16,1.15Zm.81-2.69a.38.38,0,0,1,.37.37.37.37,0,0,1-.37.36H74.54a.36.36,0,0,1-.36-.36.37.37,0,0,1,.36-.37Zm-1.32-2.47a.35.35,0,0,1,.51,0,.36.36,0,0,1,0,.51L74.2,47a.36.36,0,0,1-.51,0,.37.37,0,0,1,0-.52Z"/><path class="cls-4" d="M101.3,79.91a.36.36,0,0,1,.36-.36.37.37,0,0,1,.37.36v1.63a.38.38,0,0,1-.37.37.37.37,0,0,1-.36-.37V79.91Zm-2.48,1.33a.37.37,0,1,1,.52-.52l1.15,1.16a.35.35,0,0,1,0,.51.36.36,0,0,1-.51,0l-1.16-1.15ZM98,83.93a.37.37,0,0,1-.36-.37A.36.36,0,0,1,98,83.2h1.64a.36.36,0,0,1,.36.36.37.37,0,0,1-.36.37Zm1.33,2.47a.36.36,0,0,1-.52,0,.36.36,0,0,1,0-.51L100,84.73a.36.36,0,0,1,.51,0,.36.36,0,0,1,0,.52L99.34,86.4Zm2.69.82a.37.37,0,0,1-.37.36.36.36,0,0,1-.36-.36V85.58a.36.36,0,0,1,.36-.36.37.37,0,0,1,.37.36v1.64Zm2.48-1.33a.36.36,0,0,1,0,.51.36.36,0,0,1-.52,0l-1.16-1.15a.37.37,0,0,1,.52-.52l1.16,1.16Zm.81-2.69a.36.36,0,0,1,.36.36.37.37,0,0,1-.36.37h-1.64a.37.37,0,0,1-.36-.37.36.36,0,0,1,.36-.36ZM104,80.72a.37.37,0,1,1,.52.52l-1.16,1.15a.37.37,0,0,1-.52,0,.36.36,0,0,1,0-.51Z"/><path class="cls-4" d="M178.37,23.45a.36.36,0,0,1,.72,0v1.63a.36.36,0,1,1-.72,0V23.45Zm-2.48,1.33a.37.37,0,0,1,0-.52.36.36,0,0,1,.51,0l1.16,1.16a.36.36,0,0,1-.51.51l-1.16-1.15Zm-.81,2.69a.38.38,0,0,1-.37-.37.37.37,0,0,1,.37-.36h1.63a.36.36,0,0,1,.36.36.37.37,0,0,1-.36.37Zm1.32,2.47a.36.36,0,1,1-.51-.51l1.16-1.16a.36.36,0,0,1,.51,0,.37.37,0,0,1,0,.52l-1.16,1.15Zm2.69.82a.36.36,0,0,1-.72,0V29.12a.36.36,0,0,1,.72,0v1.64Zm2.48-1.33a.36.36,0,1,1-.51.51l-1.16-1.15a.37.37,0,0,1,0-.52.36.36,0,0,1,.51,0l1.16,1.16Zm.81-2.69a.37.37,0,0,1,.37.36.38.38,0,0,1-.37.37h-1.63a.37.37,0,0,1-.36-.37.36.36,0,0,1,.36-.36Zm-1.32-2.48a.36.36,0,0,1,.51,0,.37.37,0,0,1,0,.52l-1.16,1.15a.36.36,0,0,1-.51-.51Z"/><rect class="cls-3" x="59.58" y="60.26" width="2.51" height="2.51" rx="0.58"/><rect class="cls-3" x="54.94" y="60.26" width="2.51" height="2.51" rx="0.58"/><rect class="cls-3" x="50.3" y="60.26" width="2.51" height="2.51" rx="0.58"/><rect class="cls-3" x="45.67" y="60.26" width="2.51" height="2.51" rx="0.58"/><rect class="cls-3" x="41.03" y="60.26" width="2.51" height="2.51" rx="0.58"/><rect class="cls-3" x="36.39" y="60.26" width="2.51" height="2.51" rx="0.58"/><rect class="cls-3" x="50.14" y="55.21" width="2.51" height="2.51" rx="0.58"/><rect class="cls-3" x="45.5" y="55.21" width="2.51" height="2.51" rx="0.58"/><rect class="cls-3" x="40.86" y="55.21" width="2.51" height="2.51" rx="0.58"/><rect class="cls-3" x="45.67" y="65.69" width="2.51" height="2.51" rx="0.58"/><rect class="cls-3" x="41.03" y="65.69" width="2.51" height="2.51" rx="0.58"/><path class="cls-4" d="M175.71,68.83Zm-1.58-6A3,3,0,1,0,175,65a3,3,0,0,0-.89-2.15Zm-.66-3a5.45,5.45,0,0,1,1.19.5,5.77,5.77,0,0,1,1.05.79.18.18,0,0,0,.22,0l1.41-.82h0a.39.39,0,0,1,.26,0,.34.34,0,0,1,.21.16h0l1,1.72a.37.37,0,0,1,0,.27.35.35,0,0,1-.17.21h0l-1.4.81a.18.18,0,0,0-.09.2h0a3.44,3.44,0,0,1,.12.64,4.87,4.87,0,0,1,0,.66,5.42,5.42,0,0,1-.16,1.3.2.2,0,0,0,.1.21l1.4.81h0a.33.33,0,0,1,.17.21.34.34,0,0,1,0,.26l-1,1.74h0a.35.35,0,0,1-.48.12h0l-1.4-.81a.2.2,0,0,0-.22,0,5.35,5.35,0,0,1-1.05.79,4.93,4.93,0,0,1-1.2.51.19.19,0,0,0-.13.18v1.63a.34.34,0,0,1-.35.35h-2a.34.34,0,0,1-.35-.35V70.3a.18.18,0,0,0-.14-.18,5,5,0,0,1-1.19-.51,5.35,5.35,0,0,1-1.05-.79.2.2,0,0,0-.23,0l-1.4.81a.35.35,0,0,1-.48-.12h0l-1-1.73h0a.3.3,0,0,1,0-.26.29.29,0,0,1,.16-.21l1.41-.82a.19.19,0,0,0,.09-.2h0a5.42,5.42,0,0,1-.16-1.3,4.87,4.87,0,0,1,0-.66,4.52,4.52,0,0,1,.12-.64.2.2,0,0,0-.1-.21l-1.4-.81a.31.31,0,0,1-.16-.21.32.32,0,0,1,0-.27h0l1-1.72h0a.34.34,0,0,1,.21-.16.42.42,0,0,1,.27,0h0l1.41.82a.2.2,0,0,0,.23,0,5.38,5.38,0,0,1,1-.79,5.33,5.33,0,0,1,1.2-.5.19.19,0,0,0,.13-.18V58a.36.36,0,0,1,.1-.25.37.37,0,0,1,.25-.1h2a.37.37,0,0,1,.25.1.36.36,0,0,1,.1.25v1.63A.19.19,0,0,0,173.47,59.8Z"/></g><path class="cls-5" d="M176.17,78.54a10.94,10.94,0,0,0-15.29-3L138.79,90.65l1.42,2.07H94.48l-5,2.86,5,19.58,3.37-.07v2.44h41.82L173.4,93.46A10.87,10.87,0,0,0,176.17,78.54Z"/><path class="cls-6" d="M134.44,83.87H122.72c-2-1.94-6.42-5-14.8-5-10.68,0-15.27,4.52-16.2,5.59L84.3,92.08l4.7,4.6,1.54,6.18h43.9a9.5,9.5,0,0,0,0-19Z"/><rect class="cls-7" x="74.39" y="87.32" width="22.58" height="41.78" transform="translate(-40.35 51.93) rotate(-27.57)"/><polygon class="cls-8" points="95.6 102.86 75.59 113.31 85.34 131.95 105.35 121.5 95.6 102.86"/><path class="cls-9" d="M150.5,18.75A31.72,31.72,0,0,0,127.92,9.4L125.1,41.32l2.82,31.93a31.93,31.93,0,0,0,22.58-54.5Z"/><path class="cls-10" d="M105.35,18.75a31.93,31.93,0,0,0,22.57,54.5V9.4A31.72,31.72,0,0,0,105.35,18.75Z"/><path class="cls-11" d="M125.81,13.64H130V19.3h-4.23Z"/><path class="cls-12" d="M142,24.25l4-4,3,3-4,4Z"/><path class="cls-12" d="M150,39.2h5.66v4.24H150Z"/><path class="cls-12" d="M142,58.4l3-3,4,4-3,3Z"/><path class="cls-11" d="M125.81,63.35H130V69h-4.23Z"/><path class="cls-11" d="M106.85,59.39l4-4,3,3-4,4Z"/><path class="cls-11" d="M100.24,39.2h5.66v4.24h-5.66Z"/><path class="cls-11" d="M106.85,23.25l3-3,4,4-3,3Z"/><path class="cls-12" d="M142.88,43.44H125.81V26.36H130V39.2h12.84Z"/></svg>