<svg id="Layer_1" data-name="Layer 1" xmlns="http://www.w3.org/2000/svg" viewBox="0 0 737.69 88.59"><defs><style>.cls-1{opacity:0.32;}.cls-2{fill:#1a1a1a;}.cls-3{fill:#333;}.cls-4{fill:none;stroke:#4d4d4d;stroke-linecap:round;stroke-linejoin:round;stroke-width:2.32px;}</style></defs><title>NEW-homepage ver4</title><g class="cls-1"><path d="M375.23,37.91c-.1,2.05-.2,2-1.76,2-.68,0-.78-.19-1-2.63-.2-2.24-.78-4.68-1.85-5.85-1.37-1.46-3.81-2.14-13.55-2.14-1.56,0-1.66.19-1.76,2.14-.19,2.44-.39,13.06-.29,23.3,0,9.84.2,19.29.2,21.05,0,5.46.29,6.33,4.87,6.33,1.36,0,1.46.1,1.46,1.66s-.1,1.66-1.46,1.66c-1,0-7.41-.3-9.84-.3s-8.39.3-9.36.3c-1.56,0-1.66-.1-1.66-1.66s.1-1.66,1.66-1.66c4.29,0,4.58-.78,4.58-6.33V31.38c0-2,0-2.14-1.17-2.14-8.67,0-10.33.1-12.47,1.17-1.95,1-2.64,4.77-3.12,7.21-.39,2.05-.59,2.05-1.56,2.05S326,39.57,326,38.3c.1-4.09.39-6.43.68-10.43.1-2.34.29-2.43,2.14-2.34,1.47.1,13.94.3,25.05.2,7.41,0,12.28-.1,19.3-.2,2.53,0,2.53.2,2.53,2.34C375.71,31.77,375.52,33.82,375.23,37.91Z"/><path d="M434,85.38c-.88,0-6.63-.3-9-.3s-8.87.3-9.84.3-1.27-.1-1.27-1.47c0-1.75.19-1.85,1.27-1.85,3.11,0,4.28-.48,4.28-3.8V57.11c0-1.17-.09-1.26-2.53-1.36-9.84-.2-10.43-.29-20.37,0-1.36,0-1.56.19-1.56,1.56V77.19c0,4.29,1.27,4.87,4.87,4.87,1.47,0,1.66.1,1.66,1.66s-.1,1.75-1.17,1.75c-.88,0-8.28-.29-10.52-.29s-7.61.29-8.78.29c-1.46,0-1.65-.29-1.65-1.75s.09-1.66,1.65-1.66c3.42,0,4-1,4-6.24V35.28c0-5.46-.1-6.33-4.87-6.33-1.66,0-1.76-.3-1.76-1.66s.1-1.66,1.76-1.66c.87,0,7,.29,9.35.29s8.58-.29,9.65-.29,1.27.2,1.27,1.66c0,1.27-.2,1.46-1.37,1.46-3.41,0-4.19.29-4.19,5.26V49.22c0,1.85.1,2,2.25,2,7.79.2,10.91.1,20.85,0,1.27,0,1.46-.19,1.46-2.14V34c0-4-.68-5.16-4.09-5.16-1.56,0-1.75-.2-1.75-1.56s.09-1.66,1.17-1.66c.87,0,7.11.29,9.45.29s8.28-.29,9.16-.29c1.66,0,1.76.1,1.76,1.66,0,1.27-.1,1.36-1.76,1.36-3.9,0-4.19.88-4.19,6.63V77c0,4.59.68,5.07,4.78,5.17,1.46,0,1.75.1,1.75,1.56S435.75,85.38,434,85.38Z"/><path d="M493.54,85.38c-1,0-7.31-.3-9.64-.3s-9.85.3-10.82.3c-1.17,0-1.27-.1-1.27-1.47s.1-1.46,1.75-1.65c4.29-.39,4.59-.78,3.61-4.29l-3.51-11.89c-.39-1.37-.58-1.56-1.75-1.56-4.78-.1-13.06.49-18,.68-1.66.1-1.76.2-2.44,2-.58,1.56-2.44,6.82-3.31,10.43-1,4.19-.2,4.58,4.09,4.58,2,0,2.15.1,2.15,1.75,0,1.37-.1,1.47-1.56,1.47-1,0-5.85-.3-8.09-.3s-6.05.3-7,.3c-1.46,0-1.46-.2-1.46-1.37,0-1.46.09-1.66,2-2,2.73-.59,3.42-.59,5.56-4.78,1.75-3.41,6.14-14.72,9.65-23.59,3.7-9.06,8.77-21.93,9.16-23.19.58-1.85.68-2.73.1-5.65-.39-2.05-.3-2.44,3.6-3s4.1-.39,4.49,1.95c.29,1.95,2,7.41,3.8,13.45,2,6.53,10.33,32.65,12.57,39.38,1.56,4.77,2.63,5.16,6.24,5.75,1.46.29,1.65.29,1.65,1.36C495.2,85.18,495.2,85.38,493.54,85.38Zm-28.36-48c-.48-1.76-.78-1.76-1.56,0-1.46,3.41-7.79,18.71-8.57,20.76s-.88,2.34,1.17,2.63a119.33,119.33,0,0,0,13.45-.2c1.95-.29,1.95-.48,1.46-2.24C470.45,56.43,466.06,40.64,465.18,37.33Z"/><path d="M519.08,28.75c-4.68,0-4.87.68-4.87,6.34V75.63c0,5.85.68,6.34,4.58,6.34,1.36,0,1.46.19,1.46,1.65s-.1,1.66-1.46,1.66c-1.17,0-7.41-.29-9.65-.29-2.44,0-8.58.29-9.55.29-1.27,0-1.46-.1-1.46-1.66s.09-1.65,1.16-1.65c4.39,0,4.88-.39,4.88-6.34V35.09c0-5.75-.1-6.34-4.88-6.34-1.75,0-1.75-.19-1.75-1.56,0-1.66.1-1.75,1.75-1.75,1,0,7.12.29,9.46.29s9.26-.29,10.13-.29c1.66,0,1.76.09,1.76,1.75C520.74,28.65,520.74,28.75,519.08,28.75Z"/><path d="M562.35,83.62c-1,1.66-1.17,1.76-1.75,1.76-3.22,0-6.73.29-16,.29-6.72,0-16.17-.29-17.25-.29-1.56,0-1.75-.1-1.75-1.56,0-1.66.1-1.76,1.66-1.76,3.5,0,4.09-1.17,4.09-5.85V54c0-6.82-.1-16-.2-18.9-.19-5.66-.58-6.24-4.67-6.34-1.56-.1-1.66-.19-1.66-1.75,0-1.37.1-1.47,1.66-1.47,1,0,6.33.3,8.67.3s9.75-.3,10.62-.3c1.66,0,1.76.1,1.76,1.47,0,1.65-.1,1.75-1.76,1.75-4.48,0-4.87.88-4.87,6.34v19c0,8.87.1,18.52.1,23.59.1,3.9.29,4.09,6.92,4.09,6.92,0,9-.78,11.4-2.63,1.76-1.37,2.73-3.51,3.8-7.21.29-1.08.29-1.27,1.56-.88s1.17.49,1,1.85A41.4,41.4,0,0,1,562.35,83.62Z"/><path d="M622.1,85.38c-1,0-7.31-.3-9.65-.3s-9.85.3-10.82.3c-1.17,0-1.27-.1-1.27-1.47s.1-1.46,1.76-1.65c4.28-.39,4.58-.78,3.6-4.29-.48-1.66-3-10.23-3.51-11.89-.39-1.37-.58-1.56-1.75-1.56-4.78-.1-13.06.49-18,.68-1.66.1-1.75.2-2.44,2-.58,1.56-2.43,6.82-3.31,10.43-1,4.19-.2,4.58,4.09,4.58,2.05,0,2.15.1,2.15,1.75,0,1.37-.1,1.47-1.56,1.47-1,0-5.85-.3-8.09-.3s-6,.3-7,.3c-1.46,0-1.46-.2-1.46-1.37,0-1.46.1-1.66,2.05-2,2.72-.59,3.41-.59,5.55-4.78,1.76-3.41,6.14-14.72,9.65-23.59,3.7-9.06,8.77-21.93,9.16-23.19.59-1.85.68-2.73.1-5.65-.39-2.05-.29-2.44,3.6-3s4.1-.39,4.49,1.95c.29,1.95,2,7.41,3.8,13.45,2,6.53,10.33,32.65,12.57,39.38,1.56,4.77,2.63,5.16,6.24,5.75,1.46.29,1.66.29,1.66,1.36C623.75,85.18,623.66,85.38,622.1,85.38Zm-28.46-48c-.49-1.76-.78-1.76-1.56,0-1.46,3.41-7.8,18.71-8.58,20.76s-.88,2.34,1.17,2.63a119.33,119.33,0,0,0,13.45-.2c2-.29,2-.48,1.46-2.24S594.61,40.64,593.64,37.33Z"/><path d="M679.21,28.65c-4.09,0-4.39.59-4.39,5.27,0,7.21-.29,36.15-.58,48-.1,4.58-.29,6.62-1.17,6.62-2,0-2.34-.19-3.51-3.41a22.33,22.33,0,0,0-2.73-4.58c-3.12-3.9-28.36-37.23-29.92-39.27-1.17-1.56-1.27-1.56-1.27,2,0,4.19.1,29.24.39,33.24.39,4.87,1.08,5.55,5.07,5.55,1.76,0,1.76.29,1.76,1.76s-.1,1.46-1.27,1.46c-.88,0-4.68-.29-7.12-.29-2.24,0-5.75.29-6.82.29-1.66,0-1.75-.1-1.75-1.76,0-1.26.09-1.36,1.75-1.36,3.8,0,4.78-1.46,4.78-6.43V35.28c0-5.07-2.34-6.53-6.73-6.53-1.65,0-1.85-.1-1.85-1.46,0-1.66.1-1.76,1.85-1.76.88,0,3.41.2,4.78.2,1.75,0,5.94-.2,6.92,0s1.07.29,2.53,2.14S665.47,61.6,669.46,67c2.24,2.92,2.34,2.82,2.34-.78,0-4.19-.39-28.07-.58-32C671,29.53,670.83,29,667,29c-1.76,0-1.95-.09-1.95-1.46,0-1.66.09-1.75,1.36-1.75,1,0,3.51.29,5.85.29s5.94-.49,7-.49c1.46,0,1.65.1,1.65,1.27C681,28.36,680.87,28.65,679.21,28.65Z"/><path d="M710.69,86.45c-5.26,0-10.62-1.37-15.5-1.37-2.24,0-8.38.3-9.35.3-1.37,0-1.47-.1-1.47-1.37,0-1.56.1-1.75,1.47-1.85,4.09-.58,4.58-1.27,4.58-6.53V35.38c0-5.75-.88-6.63-4.1-6.63-2,0-2-.1-2-1.56s.1-1.66,2-1.66c.88,0,5.95.2,8.29.2,2,0,13.93-.58,20.66-.68,12.77-.2,22.42,15.59,22.42,30.8C737.78,72.8,729.79,86.45,710.69,86.45Zm-7.41-57.11c-1.46,0-3,.29-3,1.26,0,4.68,0,17.64-.1,22.81,0,10.43.1,23.88.1,25.24,0,3.61.58,4.19,9.55,4.19,12.38,0,18.23-7.31,18.23-23.58C728,42.4,718.29,29.34,703.28,29.34Z"/><path class="cls-2" d="M56.63,28.85c-4,0-4.39.58-4.39,5.26,0,7.21-.29,36.06-.59,47.86-.09,4.48-.29,6.52-1.17,6.52-1.94,0-2.33-.19-3.5-3.41a23.27,23.27,0,0,0-2.73-4.58C41.13,76.6,16,43.37,14.42,41.42c-1.17-1.56-1.26-1.56-1.26,2,0,4.19.09,29.14.39,33.13.39,4.88,1.07,5.56,5.07,5.56,1.65,0,1.75.29,1.75,1.75s-.1,1.47-1.27,1.47c-.87,0-4.68-.3-7.11-.3-2.24,0-5.75.3-6.82.3-1.66,0-1.66-.1-1.66-1.76,0-1.27.1-1.36,1.66-1.36,3.8,0,4.77-1.46,4.77-6.44V35.48C9.94,30.41,7.6,29,3.31,29c-1.65,0-1.85-.1-1.85-1.47,0-1.65.1-1.75,1.85-1.75.88,0,3.41.19,4.78.19,1.66,0,5.85-.19,6.92,0,.88.2,1.07.3,2.44,2.15s25.43,33.62,29.43,39c2.24,2.93,2.34,2.83,2.34-.78,0-4.19-.39-28-.59-31.87-.19-4.67-.39-5.16-4.19-5.16-1.75,0-1.95-.1-1.95-1.46,0-1.66.1-1.76,1.37-1.76,1,0,3.51.29,5.85.29s5.84-.48,7-.48c1.46,0,1.66.09,1.66,1.26C58.28,28.65,58.28,28.85,56.63,28.85Z"/><path class="cls-2" d="M113.74,85.38c-1,0-7.31-.3-9.65-.3s-9.84.3-10.82.3c-1.17,0-1.27-.1-1.27-1.47s.1-1.46,1.76-1.65c4.29-.39,4.58-.78,3.6-4.19-.48-1.66-3-10.24-3.5-11.89-.39-1.37-.59-1.56-1.76-1.56-4.77-.1-13.06.48-18,.68-1.66.1-1.75.19-2.44,2a98.9,98.9,0,0,0-3.21,10.33c-1,4.19-.2,4.58,4.09,4.58,2,0,2.15.1,2.15,1.75,0,1.37-.1,1.47-1.56,1.47-1,0-5.85-.3-8.09-.3s-6.05.3-7,.3c-1.46,0-1.46-.2-1.46-1.37,0-1.46.1-1.66,2-2,2.73-.59,3.42-.59,5.56-4.78,1.66-3.41,6.14-14.72,9.65-23.49,3.7-9.06,8.67-21.83,9.16-23.19.58-1.86.68-2.73.1-5.66-.39-2-.3-2.43,3.6-3s4.1-.39,4.49,2c.29,1.95,2,7.41,3.8,13.35,2,6.53,10.33,32.55,12.57,39.28,1.56,4.78,2.63,5.17,6.24,5.75,1.46.29,1.65.29,1.65,1.36C115.39,85.28,115.3,85.38,113.74,85.38ZM85.38,37.52c-.49-1.75-.78-1.75-1.56,0-1.47,3.41-7.7,18.72-8.58,20.66-.88,2.15-.88,2.34,1.17,2.64a117.12,117.12,0,0,0,13.35-.2c1.95-.29,1.95-.49,1.46-2.24S86.35,40.84,85.38,37.52Z"/><path class="cls-2" d="M158,38.11c-.09,2-.19,2-1.65,2-.68,0-.78-.2-1-2.63-.19-2.25-.78-4.68-1.85-5.76-1.36-1.46-3.8-2.14-13.45-2.14-1.56,0-1.65.2-1.75,2.14-.2,2.44-.39,13.06-.29,23.2,0,9.75.19,19.2.19,20.95,0,5.46.29,6.34,4.87,6.34,1.37,0,1.47.1,1.47,1.66s-.1,1.65-1.47,1.65c-1,0-7.4-.29-9.74-.29s-8.38.29-9.36.29c-1.56,0-1.66-.09-1.66-1.65s.1-1.66,1.66-1.66c4.29,0,4.58-.78,4.58-6.34V31.67c0-2,0-2.14-1.17-2.14-8.67,0-10.23.1-12.38,1.17-1.94,1-2.63,4.78-3.11,7.21C111.5,40,111.3,40,110.33,40s-1.17-.1-1.17-1.37c.09-4.09.39-6.43.68-10.42.1-2.34.29-2.44,2.14-2.34,1.47.09,13.94.29,25,.19,7.41,0,12.28-.1,19.2-.19,2.44,0,2.53.19,2.44,2.34C158.47,32.06,158.28,34,158,38.11Z"/><path class="cls-3" d="M182.74,29c-4.68,0-4.87.69-4.87,6.34V75.82c0,5.85.68,6.34,4.58,6.34,1.36,0,1.46.19,1.46,1.66s-.1,1.65-1.46,1.65c-1.17,0-7.41-.29-9.65-.29-2.44,0-8.48.29-9.45.29-1.27,0-1.47-.09-1.47-1.65s.1-1.66,1.17-1.66c4.39,0,4.88-.39,4.88-6.34V35.38c0-5.75-.1-6.34-4.78-6.34-1.75,0-1.75-.19-1.75-1.56,0-1.65.09-1.75,1.75-1.75,1,0,7.12.29,9.45.29s9.26-.29,10.14-.29c1.66,0,1.66.1,1.66,1.75C184.4,28.85,184.4,29,182.74,29Z"/><path class="cls-2" d="M217.34,87.13c-17.54,0-28.56-14.52-28.56-32.16,0-15.89,10-30.7,28.95-30.7,18.13,0,27.87,13.93,27.87,31.09S236.05,87.13,217.34,87.13Zm-2.73-59.35c-10.62,0-15.69,10-15.69,24.17s9,31.28,20.47,31.28c11.3,0,16-9.65,16-23.29C235.37,40.84,223.48,27.78,214.61,27.78Z"/><path class="cls-2" d="M302.91,28.85c-4,0-4.39.58-4.39,5.26,0,7.21-.29,36.06-.58,47.86-.1,4.58-.29,6.62-1.17,6.62-1.95,0-2.34-.19-3.51-3.41a22.33,22.33,0,0,0-2.73-4.58c-3.12-3.9-28.26-37.13-29.82-39.08-1.17-1.56-1.27-1.56-1.27,2,0,4.19.1,29.14.39,33.13.39,4.88,1.07,5.56,5.07,5.56,1.66,0,1.75.29,1.75,1.75s-.09,1.46-1.26,1.46c-.88,0-4.68-.29-7.12-.29-2.24,0-5.75.29-6.82.29-1.66,0-1.66-.09-1.66-1.75,0-1.27.1-1.37,1.66-1.37,3.8,0,4.78-1.46,4.78-6.43V35.57c0-5.06-2.34-6.53-6.63-6.53-1.66,0-1.85-.09-1.85-1.46,0-1.66.09-1.75,1.85-1.75.88,0,3.41.19,4.77.19,1.66,0,5.85-.19,6.92,0,.88.2,1.08.29,2.44,2.15s25.44,33.62,29.43,39c2.25,2.92,2.34,2.83,2.34-.78,0-4.19-.39-28-.58-31.87-.2-4.68-.39-5.16-4.19-5.16-1.76,0-2-.1-2-1.47,0-1.65.1-1.75,1.36-1.75,1,0,3.51.29,5.85.29s5.85-.49,7-.49c1.46,0,1.65.1,1.65,1.27C304.57,28.65,304.47,28.85,302.91,28.85Z"/><path class="cls-2" d="M18.23,3.8c-.1.49-.1.59-.2.59s-.19-.1-.29-.78a3.58,3.58,0,0,0-.68-1.95C16.57,1.17,15.3.88,11.6.88c-.68,0-.68.09-.78.78-.1.87-.2,4.58-.2,7.89s.1,6.82.1,7.31c0,1.85.1,2.14,1.95,2.14.49,0,.49,0,.49.2s0,.29-.49.29-2.83-.1-3.7-.1-3.12.1-3.51.1S5,19.49,5,19.3s0-.3.49-.3c1.75,0,1.85-.19,1.85-2.14V1.66c0-.78,0-.78-.49-.78-3.31,0-4.29,0-5.07.39S.68,2.92.49,3.7c-.1.59-.2.69-.3.59S0,4.29,0,3.9C0,2.53.1,2,.19.68.29,0,.29,0,.88,0s5.26.1,9.45.1c2.83,0,4.58,0,7.21-.1.88,0,.88,0,.88.68C18.42,2.05,18.32,2.44,18.23,3.8Z"/><path class="cls-2" d="M40.25,19.59c-.39,0-2.43-.1-3.41-.1s-3.31.1-3.7.1-.39,0-.39-.2,0-.19.39-.19c1.26,0,1.65-.2,1.65-1.36V10.33c0-.39-.09-.49-1-.49-3.7-.09-3.9-.09-7.7,0-.59,0-.68.1-.68.59v7.11c0,1.46.48,1.76,1.95,1.76.48,0,.48,0,.48.19s0,.2-.39.2-3.11-.1-4-.1-2.83.1-3.32.1-.48,0-.48-.2,0-.29.48-.29c1.37,0,1.56-.29,1.56-2.14V2.83C21.73,1,21.64.58,19.78.58c-.48,0-.58,0-.58-.19s.1-.2.58-.2,2.64.1,3.51.1,3.22-.1,3.61-.1.39,0,.39.2-.1.19-.39.19c-1.46,0-1.66.1-1.66,1.86V8c0,.68.1.78.88.78,2.92.1,4.09,0,7.8,0,.48,0,.58-.1.58-.78V2.44c0-1.37-.29-1.76-1.56-1.76-.49,0-.58-.1-.58-.29s0-.2.39-.2,2.63.1,3.51.1,3.11-.1,3.41-.1c.48,0,.58,0,.58.2s-.1.19-.58.19C38.11.58,38,.78,38,2.83V17.45c0,1.55.29,1.75,1.85,1.75.49,0,.59,0,.59.19C40.84,19.59,40.84,19.59,40.25,19.59Z"/><path class="cls-2" d="M56.82,19.1c-.1.2-.29.49-.49.49-1.26,0-2,.1-5.46.1-2.53,0-7.21-.1-7.6-.1s-.58,0-.58-.2,0-.19.58-.19c1.27-.1,1.46-.2,1.56-2.05.1-.58,0-4.48,0-7.7V2.83C44.73.88,44.64.58,43.37.58c-.68,0-.78-.09-.78-.19s.1-.2.88-.2H56.53c.68,0,.78,0,.78.39V3.7c0,.39,0,.39-.1.39s-.2,0-.39-.58a3.17,3.17,0,0,0-1.17-2c-.58-.39-2.24-.68-4.58-.68-2.63,0-2.63.1-2.63,1.07,0,1.66-.1,4.68-.1,6.24,0,.68,0,.78.68.78.39,0,3.71-.1,4.29-.1s.78-.19.78-1c0-.39.1-1,.1-1.27s.1-.2.19-.2.2,0,.2.59v5.36c0,.49,0,.58-.2.58s-.19,0-.19-.38v-2c0-.39,0-.49-1.46-.59a33.75,33.75,0,0,0-3.51-.1c-.78,0-.88.1-.88.59v6.63c0,1.75,0,1.75,2.83,1.75s3.9-.39,4.48-.78a3.79,3.79,0,0,0,1.66-2.24c.09-.2.19-.29.29-.29s.19.09.19.29A13,13,0,0,1,56.82,19.1Z"/><line class="cls-4" x1="316.36" y1="25.63" x2="316.36" y2="84.11"/></g></svg>