<svg xmlns="http://www.w3.org/2000/svg" xmlns:xlink="http://www.w3.org/1999/xlink" viewBox="0 0 357.66 333.5"><defs><style>.cls-1{isolation:isolate;}.cls-2{fill:#606577;}.cls-3{fill:#818592;}.cls-4{fill:#84838a;}.cls-5{fill:#959595;}.cls-6{fill:#e7c8d2;}.cls-11,.cls-12,.cls-13,.cls-14,.cls-15,.cls-16,.cls-17,.cls-18,.cls-19,.cls-20,.cls-21,.cls-22,.cls-23,.cls-24,.cls-34,.cls-37,.cls-40,.cls-43,.cls-44,.cls-64,.cls-7{mix-blend-mode:multiply;}.cls-7{fill:url(#Áåçûìÿííûé_ãðàäèåíò_202);}.cls-8{fill:#ecd5dc;}.cls-9{fill:#e4bacb;}.cls-10{fill:#c196aa;}.cls-11{fill:url(#Áåçûìÿííûé_ãðàäèåíò_202-2);}.cls-12{fill:url(#Áåçûìÿííûé_ãðàäèåíò_202-3);}.cls-13{fill:url(#Áåçûìÿííûé_ãðàäèåíò_202-4);}.cls-14{fill:url(#Áåçûìÿííûé_ãðàäèåíò_202-5);}.cls-15{fill:url(#Áåçûìÿííûé_ãðàäèåíò_202-6);}.cls-16{fill:url(#Áåçûìÿííûé_ãðàäèåíò_202-7);}.cls-17{fill:url(#Áåçûìÿííûé_ãðàäèåíò_202-8);}.cls-18{fill:url(#Áåçûìÿííûé_ãðàäèåíò_202-9);}.cls-19{fill:url(#Áåçûìÿííûé_ãðàäèåíò_202-10);}.cls-20{fill:url(#Áåçûìÿííûé_ãðàäèåíò_202-11);}.cls-21{fill:url(#Áåçûìÿííûé_ãðàäèåíò_202-12);}.cls-22{fill:url(#Áåçûìÿííûé_ãðàäèåíò_202-13);}.cls-23{fill:url(#Áåçûìÿííûé_ãðàäèåíò_202-14);}.cls-24{fill:url(#Áåçûìÿííûé_ãðàäèåíò_202-15);}.cls-25{fill:#ed8475;}.cls-26{fill:#ffb9a0;}.cls-27{fill:#796164;}.cls-28{fill:#dc9c53;}.cls-29{fill:#e3b27a;}.cls-30{fill:#efd7b9;}.cls-31{fill:#528284;}.cls-32{fill:#709b98;}.cls-33{fill:#a8999b;}.cls-34{fill:url(#Áåçûìÿííûé_ãðàäèåíò_65);}.cls-35{fill:#2a5355;mix-blend-mode:screen;}.cls-36{fill:#d1c9c9;}.cls-37{fill:url(#Áåçûìÿííûé_ãðàäèåíò_181);}.cls-38{fill:#e5e1e1;}.cls-39{fill:#c0b5b5;}.cls-40{fill:url(#Áåçûìÿííûé_ãðàäèåíò_181-2);}.cls-41{fill:#d0c6c6;}.cls-42{fill:#eb685b;}.cls-43{fill:url(#Áåçûìÿííûé_ãðàäèåíò_169);}.cls-44{fill:url(#Áåçûìÿííûé_ãðàäèåíò_169-2);}.cls-45{fill:#e6e4de;}.cls-46{fill:#9cb5a3;}.cls-47{fill:#f8f8f7;}.cls-48{fill:#353e44;}.cls-49{fill:#464f54;}.cls-50{fill:#a46f36;}.cls-51{fill:#c08a53;}.cls-52{fill:#b0d2c6;}.cls-53{fill:#a4cbbe;}.cls-54{fill:#dae9e3;}.cls-55{fill:#d2ac83;}.cls-56{fill:#ffa247;}.cls-57{fill:#ffdaa5;}.cls-58,.cls-80{fill:#fff;}.cls-59{fill:#e6e6e9;}.cls-60{fill:#f0f0f3;}.cls-61{fill:#b6b6c9;}.cls-62{fill:#dcdcdf;}.cls-63{fill:#c8c8d6;}.cls-64{fill:url(#Áåçûìÿííûé_ãðàäèåíò_187);}.cls-65{fill:#b57933;}.cls-66{fill:#a3b72a;}.cls-67{fill:#bbd038;}.cls-68{fill:#c2e14b;}.cls-69{fill:#796158;}.cls-70{fill:#e12f27;}.cls-71{fill:#2e2c38;}.cls-72{fill:#3b3944;}.cls-73{fill:#a19880;}.cls-74{fill:#c8c3b4;}.cls-75{fill:#aba38b;}.cls-76{fill:#c5c5b3;}.cls-77{fill:#afb7bc;}.cls-78{fill:#3b4e5b;}.cls-79{opacity:0.89;}.cls-80{font-size:35px;font-family:Mitr-Regular, Mitr;}</style><linearGradient id="Áåçûìÿííûé_ãðàäèåíò_202" x1="246.77" y1="110.49" x2="220" y2="174.59" gradientUnits="userSpaceOnUse"><stop offset="0.16" stop-color="#dacad0"/><stop offset="0.37" stop-color="#ded0d5"/><stop offset="0.64" stop-color="#e9e0e3"/><stop offset="0.95" stop-color="#fbfafa"/><stop offset="1" stop-color="#fff"/></linearGradient><linearGradient id="Áåçûìÿííûé_ãðàäèåíò_202-2" x1="268.49" y1="120.86" x2="241.72" y2="184.96" xlink:href="#Áåçûìÿííûé_ãðàäèåíò_202"/><linearGradient id="Áåçûìÿííûé_ãðàäèåíò_202-3" x1="252.67" y1="131.63" x2="225.9" y2="195.72" xlink:href="#Áåçûìÿííûé_ãðàäèåíò_202"/><linearGradient id="Áåçûìÿííûé_ãðàäèåíò_202-4" x1="317.13" y1="192.4" x2="290.36" y2="256.49" xlink:href="#Áåçûìÿííûé_ãðàäèåíò_202"/><linearGradient id="Áåçûìÿííûé_ãðàäèåíò_202-5" x1="330.19" y1="209.06" x2="308.1" y2="261.93" xlink:href="#Áåçûìÿííûé_ãðàäèåíò_202"/><linearGradient id="Áåçûìÿííûé_ãðàäèåíò_202-6" x1="323.03" y1="213.53" x2="296.26" y2="277.62" xlink:href="#Áåçûìÿííûé_ãðàäèåíò_202"/><linearGradient id="Áåçûìÿííûé_ãðàäèåíò_202-7" x1="68.66" y1="68.81" x2="41.89" y2="132.9" xlink:href="#Áåçûìÿííûé_ãðàäèåíò_202"/><linearGradient id="Áåçûìÿííûé_ãðàäèåíò_202-8" x1="90.38" y1="79.18" x2="63.61" y2="143.27" xlink:href="#Áåçûìÿííûé_ãðàäèåíò_202"/><linearGradient id="Áåçûìÿííûé_ãðàäèåíò_202-9" x1="74.56" y1="89.94" x2="47.79" y2="154.04" xlink:href="#Áåçûìÿííûé_ãðàäèåíò_202"/><linearGradient id="Áåçûìÿííûé_ãðàäèåíò_202-10" x1="314.04" y1="66.77" x2="287.26" y2="130.86" xlink:href="#Áåçûìÿííûé_ãðàäèåíò_202"/><linearGradient id="Áåçûìÿííûé_ãðàäèåíò_202-11" x1="304.12" y1="77.14" x2="277.35" y2="141.23" xlink:href="#Áåçûìÿííûé_ãðàäèåíò_202"/><linearGradient id="Áåçûìÿííûé_ãðàäèåíò_202-12" x1="325" y1="87.9" x2="298.23" y2="152" xlink:href="#Áåçûìÿííûé_ãðàäèåíò_202"/><linearGradient id="Áåçûìÿííûé_ãðàäèåíò_202-13" x1="111.32" y1="194.21" x2="84.55" y2="258.3" xlink:href="#Áåçûìÿííûé_ãðàäèåíò_202"/><linearGradient id="Áåçûìÿííûé_ãðàäèåíò_202-14" x1="101.4" y1="204.58" x2="74.63" y2="268.67" xlink:href="#Áåçûìÿííûé_ãðàäèåíò_202"/><linearGradient id="Áåçûìÿííûé_ãðàäèåíò_202-15" x1="122.29" y1="215.34" x2="95.52" y2="279.44" xlink:href="#Áåçûìÿííûé_ãðàäèåíò_202"/><linearGradient id="Áåçûìÿííûé_ãðàäèåíò_65" x1="327.81" y1="161.79" x2="210.11" y2="252.66" gradientUnits="userSpaceOnUse"><stop offset="0.18" stop-color="#c0a697"/><stop offset="0.98" stop-color="#fff"/></linearGradient><linearGradient id="Áåçûìÿííûé_ãðàäèåíò_181" x1="274.96" y1="264.57" x2="274.96" y2="284.53" gradientUnits="userSpaceOnUse"><stop offset="0.16" stop-color="#bdc6d2"/><stop offset="0.34" stop-color="#c3cbd6"/><stop offset="0.57" stop-color="#d3d9e1"/><stop offset="0.83" stop-color="#edeff3"/><stop offset="0.98" stop-color="#fff"/></linearGradient><linearGradient id="Áåçûìÿííûé_ãðàäèåíò_181-2" x1="274.96" y1="251.49" x2="274.96" y2="271.45" xlink:href="#Áåçûìÿííûé_ãðàäèåíò_181"/><linearGradient id="Áåçûìÿííûé_ãðàäèåíò_169" x1="51.68" y1="217.36" x2="51.68" y2="356.21" gradientUnits="userSpaceOnUse"><stop offset="0.16" stop-color="#b58d9b"/><stop offset="0.29" stop-color="#b993a0"/><stop offset="0.45" stop-color="#c3a3ae"/><stop offset="0.64" stop-color="#d4bdc5"/><stop offset="0.84" stop-color="#ece1e5"/><stop offset="0.98" stop-color="#fff"/></linearGradient><linearGradient id="Áåçûìÿííûé_ãðàäèåíò_169-2" x1="187.81" y1="87.74" x2="158.92" y2="296.44" xlink:href="#Áåçûìÿííûé_ãðàäèåíò_169"/><linearGradient id="Áåçûìÿííûé_ãðàäèåíò_187" x1="56.94" y1="263.74" x2="56.94" y2="277.09" gradientUnits="userSpaceOnUse"><stop offset="0.16" stop-color="#a1a8b5"/><stop offset="0.3" stop-color="#a7adb9"/><stop offset="0.49" stop-color="#b7bcc6"/><stop offset="0.7" stop-color="#d1d4db"/><stop offset="0.92" stop-color="#f5f6f7"/><stop offset="0.98" stop-color="#fff"/></linearGradient></defs><title>NEW-homepage ver4</title><g class="cls-1"><g id="Layer_1" data-name="Layer 1"><path class="cls-2" d="M343.08,304.06H10.84A10.84,10.84,0,0,1,0,293.22H0a10.83,10.83,0,0,1,10.84-10.83H343.08a10.83,10.83,0,0,1,10.83,10.83h0A10.83,10.83,0,0,1,343.08,304.06Z"/><path class="cls-3" d="M314.35,318H44.5a11.82,11.82,0,0,1-11.82-11.82h0A11.82,11.82,0,0,1,44.5,294.33H314.35a11.82,11.82,0,0,1,11.82,11.82h0A11.82,11.82,0,0,1,314.35,318Z"/><path class="cls-4" d="M50.07,333.5H27.33a5,5,0,0,1-5-5h0a5,5,0,0,1,5-5H50.07a5,5,0,0,1,5,5h0A5,5,0,0,1,50.07,333.5Z"/><path class="cls-4" d="M352.69,322.94H336.45a5,5,0,0,1-5-5h0a5,5,0,0,1,5-5h16.24a5,5,0,0,1,5,5h0A5,5,0,0,1,352.69,322.94Z"/><path class="cls-5" d="M260.33,333.5H206.22a5.28,5.28,0,0,1-5.27-5.28h0a5.27,5.27,0,0,1,5.27-5.28h54.11a5.27,5.27,0,0,1,5.28,5.28h0A5.28,5.28,0,0,1,260.33,333.5Z"/><rect class="cls-6" x="34.99" y="96.22" width="291.29" height="190.15" rx="24.34"/><polygon class="cls-7" points="244.92 153.89 215.16 153.89 215.16 143.98 217.02 142.76 246.79 152.66 244.92 153.89"/><rect class="cls-8" x="217.02" y="142.76" width="29.77" height="9.9"/><rect class="cls-9" x="217.02" y="143.52" width="29.22" height="9.14"/><polygon class="cls-10" points="217.35 152.34 217.35 143.52 217.02 142.76 217.02 152.66 246.79 152.66 246.24 152.34 217.35 152.34"/><polygon class="cls-11" points="266.64 164.26 236.87 164.26 236.87 154.35 238.74 153.13 268.5 163.03 266.64 164.26"/><rect class="cls-8" x="238.74" y="153.13" width="29.77" height="9.91"/><rect class="cls-6" x="238.74" y="153.89" width="29.22" height="9.14"/><polygon class="cls-10" points="239.07 162.7 239.07 153.89 238.74 153.13 238.74 163.03 268.5 163.03 267.96 162.7 239.07 162.7"/><polygon class="cls-12" points="250.82 175.02 221.06 175.02 221.06 165.12 222.92 163.89 252.69 173.79 250.82 175.02"/><rect class="cls-8" x="222.92" y="163.89" width="29.77" height="9.9"/><rect class="cls-6" x="222.92" y="164.65" width="29.22" height="9.14"/><polygon class="cls-10" points="223.25 173.47 223.25 164.65 222.92 163.89 222.92 173.79 252.69 173.79 252.14 173.47 223.25 173.47"/><polygon class="cls-13" points="315.28 235.79 285.51 235.79 285.51 225.89 287.38 224.66 317.14 234.57 315.28 235.79"/><rect class="cls-8" x="287.38" y="224.66" width="29.77" height="9.91"/><rect class="cls-9" x="287.38" y="225.42" width="29.22" height="9.14"/><polygon class="cls-10" points="287.7 234.24 287.7 225.42 287.38 224.66 287.38 234.57 317.14 234.57 316.6 234.24 287.7 234.24"/><polygon class="cls-14" points="326.29 246.16 307.23 246.16 307.23 236.26 309.09 235.03 326.29 244.94 326.29 246.16"/><rect class="cls-8" x="309.09" y="235.03" width="17.19" height="9.91"/><rect class="cls-9" x="309.09" y="235.79" width="16.65" height="9.14"/><polygon class="cls-10" points="309.42 244.61 309.42 235.79 309.09 235.03 309.09 244.94 326.29 244.94 325.74 244.61 309.42 244.61"/><polygon class="cls-15" points="321.18 256.93 291.41 256.93 291.41 247.02 293.28 245.79 323.04 255.7 321.18 256.93"/><rect class="cls-8" x="293.28" y="245.79" width="29.77" height="9.91"/><rect class="cls-6" x="293.28" y="246.56" width="29.22" height="9.14"/><polygon class="cls-10" points="293.6 255.37 293.6 246.56 293.28 245.79 293.28 255.7 323.04 255.7 322.5 255.37 293.6 255.37"/><polygon class="cls-16" points="66.81 112.2 37.05 112.2 37.05 102.3 38.91 101.07 68.68 110.98 66.81 112.2"/><rect class="cls-8" x="38.91" y="101.07" width="29.77" height="9.91"/><rect class="cls-9" x="38.91" y="101.84" width="29.22" height="9.14"/><polygon class="cls-10" points="39.24 110.65 39.24 101.83 38.91 101.07 38.91 110.98 68.68 110.98 68.13 110.65 39.24 110.65"/><polygon class="cls-17" points="88.53 122.57 58.76 122.57 58.76 112.67 60.63 111.44 90.39 121.35 88.53 122.57"/><rect class="cls-8" x="60.63" y="111.44" width="29.77" height="9.91"/><rect class="cls-6" x="60.63" y="112.2" width="29.22" height="9.14"/><polygon class="cls-10" points="60.95 121.02 60.95 112.2 60.63 111.44 60.63 121.35 90.39 121.35 89.85 121.02 60.95 121.02"/><polygon class="cls-18" points="72.71 133.34 42.94 133.34 42.94 123.43 44.81 122.21 74.58 132.11 72.71 133.34"/><rect class="cls-8" x="44.81" y="122.21" width="29.77" height="9.91"/><rect class="cls-6" x="44.81" y="122.97" width="29.22" height="9.14"/><polygon class="cls-10" points="45.14 131.78 45.14 122.97 44.81 122.21 44.81 132.11 74.58 132.11 74.03 131.78 45.14 131.78"/><polygon class="cls-19" points="312.19 110.16 282.42 110.16 282.42 100.26 284.29 99.03 314.05 108.94 312.19 110.16"/><rect class="cls-8" x="284.29" y="99.03" width="29.77" height="9.9"/><rect class="cls-9" x="284.29" y="99.8" width="29.22" height="9.14"/><polygon class="cls-10" points="284.61 108.61 284.61 99.8 284.29 99.03 284.29 108.94 314.05 108.94 313.5 108.61 284.61 108.61"/><polygon class="cls-20" points="302.27 120.53 272.5 120.53 272.5 110.63 274.37 109.4 304.13 119.31 302.27 120.53"/><rect class="cls-8" x="274.37" y="109.4" width="29.77" height="9.9"/><rect class="cls-6" x="274.37" y="110.16" width="29.22" height="9.14"/><polygon class="cls-10" points="274.69 118.98 274.69 110.16 274.37 109.4 274.37 119.31 304.13 119.31 303.59 118.98 274.69 118.98"/><polygon class="cls-21" points="323.15 131.3 293.39 131.3 293.39 121.39 295.25 120.17 325.02 130.07 323.15 131.3"/><rect class="cls-8" x="295.25" y="120.17" width="29.77" height="9.91"/><rect class="cls-9" x="295.25" y="120.93" width="29.22" height="9.14"/><polygon class="cls-10" points="295.58 129.74 295.58 120.93 295.25 120.17 295.25 130.07 325.02 130.07 324.47 129.74 295.58 129.74"/><polygon class="cls-22" points="109.47 237.6 79.71 237.6 79.71 227.7 81.57 226.47 111.34 236.38 109.47 237.6"/><rect class="cls-8" x="81.57" y="226.47" width="29.77" height="9.9"/><rect class="cls-9" x="81.57" y="227.24" width="29.22" height="9.14"/><polygon class="cls-10" points="81.9 236.05 81.9 227.24 81.57 226.47 81.57 236.38 111.34 236.38 110.79 236.05 81.9 236.05"/><polygon class="cls-23" points="99.55 247.97 69.79 247.97 69.79 238.07 71.65 236.84 101.42 246.75 99.55 247.97"/><rect class="cls-8" x="71.65" y="236.84" width="29.77" height="9.91"/><rect class="cls-6" x="71.65" y="237.6" width="29.22" height="9.14"/><polygon class="cls-10" points="71.98 246.42 71.98 237.6 71.65 236.84 71.65 246.75 101.42 246.75 100.87 246.42 71.98 246.42"/><polygon class="cls-24" points="120.44 258.74 90.67 258.74 90.67 248.83 92.54 247.61 122.31 257.51 120.44 258.74"/><rect class="cls-8" x="92.54" y="247.61" width="29.77" height="9.9"/><rect class="cls-9" x="92.54" y="248.37" width="29.22" height="9.14"/><polygon class="cls-10" points="92.87 257.18 92.87 248.37 92.54 247.61 92.54 257.51 122.31 257.51 121.76 257.18 92.87 257.18"/><rect class="cls-25" x="34.99" y="260.22" width="291.29" height="26.16"/><rect class="cls-26" x="34.99" y="260.22" width="291.29" height="2.62"/><rect class="cls-27" x="247.26" y="140.22" width="55.39" height="146.16"/><rect class="cls-28" x="250.63" y="144.97" width="48.65" height="115.24"/><rect class="cls-29" x="261.73" y="144.97" width="26.46" height="115.24"/><rect class="cls-30" x="261.73" y="240.79" width="26.46" height="1.62"/><rect class="cls-31" x="261.73" y="151.32" width="26.46" height="89.48"/><rect class="cls-32" x="261.73" y="155.97" width="23.79" height="84.82"/><rect class="cls-33" x="247.26" y="139.28" width="55.39" height="0.94"/><polygon class="cls-34" points="250.63 144.97 250.63 149.19 293.83 149.17 293.83 260.22 299.29 260.22 299.29 144.97 250.63 144.97"/><polygon class="cls-35" points="285.52 165.15 285.52 225.07 276.68 240.79 261.73 240.79 261.73 203.81 285.52 165.15"/><rect class="cls-36" x="247.26" y="273.3" width="55.39" height="13.08"/><rect class="cls-37" x="247.26" y="273.3" width="55.39" height="5.75"/><rect class="cls-38" x="247.26" y="273.3" width="55.39" height="3.4"/><rect class="cls-39" x="247.26" y="260.22" width="55.39" height="13.08"/><rect class="cls-40" x="247.26" y="260.22" width="55.39" height="5.75"/><rect class="cls-41" x="247.26" y="260.22" width="55.39" height="3.4"/><rect class="cls-26" x="245.72" y="262.84" width="1.54" height="23.54"/><rect class="cls-42" x="302.65" y="262.84" width="1.54" height="23.54"/><path class="cls-43" d="M51.24,267.22H63.58v8.2H61.9L59.65,286.5H35v-73l10.06-9.72c8.75,0,23.31,12.6,23.31,21.33L51.24,239.93Z"/><path class="cls-44" d="M275.37,117.6a53,53,0,0,0-33.54,12.33c0,1.56-7.44,16.72-17.83,37.14l-19.08-2.38-7.62,13.05c-2.62,5,.14,37.13-2.46,42.1H92.15V177.77c.87-1.18,1.36,1,1.36-.9,0,5.85,4.75,4.38,10.61,4.38s10.6,1.47,10.6-4.38c0,5.85,4.75,4.38,10.6,4.38s10.61,1.47,10.61-4.38c0,5.85,4.74,4.38,10.6,4.38s10.6,1.47,10.6-4.38c0,5.85,4.75,4.38,10.6,4.38s10.61,1.47,10.61-4.38c0,5.85,4.74,4.38,10.6,4.38s10.6-1.07,10.6-6.93v-8.06H92.15v-5.2L87.67,165v1.27H72.31L71,115.64,51.1,158.2v16.12c0,5.86,4.75,6.93,10.61,6.93s10.6,1.47,10.6-4.38c0,5.85,4.75,4.38,10.6,4.38a17.38,17.38,0,0,0,4.76-.6v41.9H193.43c-17.72,33.95-33.51,63.83-33.51,63.83h70.56c6.33-9.05,78.44-151.29,78.44-156.45A53,53,0,0,0,275.37,117.6Z"/><rect class="cls-45" x="204.92" y="164.69" width="28.93" height="48.95"/><rect class="cls-46" x="204.92" y="164.69" width="0.85" height="48.95"/><rect class="cls-47" x="233.01" y="164.69" width="0.85" height="48.95"/><rect class="cls-46" x="204.92" y="212.69" width="28.93" height="0.95"/><rect class="cls-47" x="204.92" y="164.69" width="28.93" height="0.95"/><rect class="cls-48" x="208.29" y="167.73" width="22.2" height="42.87"/><rect class="cls-49" x="208.29" y="170.36" width="19.92" height="40.24"/><rect class="cls-47" x="208.29" y="209.65" width="22.2" height="0.95"/><rect class="cls-50" x="92.15" y="154.88" width="106.03" height="64.96"/><rect class="cls-51" x="93.03" y="154.88" width="104.26" height="63.82"/><rect class="cls-31" x="95.42" y="161.06" width="99.49" height="55.44"/><rect class="cls-32" x="95.42" y="164.69" width="96.2" height="51.81"/><rect class="cls-31" x="108.14" y="180.56" width="43.5" height="16.74"/><rect class="cls-52" x="109.25" y="178.47" width="43.5" height="0.99"/><rect class="cls-53" x="109.25" y="179.46" width="43.5" height="16.74"/><path class="cls-54" d="M121.57,187.43a4.4,4.4,0,0,1-1.19,3.14,3.76,3.76,0,0,1-2.78,1.25,3.71,3.71,0,0,1-2.55-1,4.68,4.68,0,0,1,0-6.7A3.67,3.67,0,0,1,117.6,183a3.74,3.74,0,0,1,2.78,1.26A4.38,4.38,0,0,1,121.57,187.43Zm-1.41,0a3,3,0,0,0-.78-2.14,2.37,2.37,0,0,0-1.78-.84,2.34,2.34,0,0,0-1.76.85,3.3,3.3,0,0,0,0,4.26,2.27,2.27,0,0,0,3.54,0A3,3,0,0,0,120.16,187.43Z"/><path class="cls-54" d="M125.27,188.74v1.46h1.43a1.1,1.1,0,0,1,.73.2.72.72,0,0,1,0,1,1.1,1.1,0,0,1-.73.2h-3.07a1.1,1.1,0,0,1-.73-.2.67.67,0,0,1-.21-.52.63.63,0,0,1,.22-.5,1.07,1.07,0,0,1,.72-.2h.22v-5.54h-.22a1.1,1.1,0,0,1-.73-.19.7.7,0,0,1-.21-.52.66.66,0,0,1,.21-.51,1.1,1.1,0,0,1,.73-.2h3.26a3.22,3.22,0,0,1,2.28.78,2.6,2.6,0,0,1,.55,3.08,2.62,2.62,0,0,1-.71.82,4.23,4.23,0,0,1-1,.61,3.8,3.8,0,0,1-1.38.2Zm0-1.41h1.31a2.34,2.34,0,0,0,1.47-.42,1.23,1.23,0,0,0,.54-1,1.1,1.1,0,0,0-.44-.87,1.87,1.87,0,0,0-1.25-.38h-1.63Z"/><path class="cls-54" d="M133.12,188.12v2.08h3.61v-.77a1.05,1.05,0,0,1,.2-.72.7.7,0,0,1,1,0,1.05,1.05,0,0,1,.19.72v2.19h-6.66a1.1,1.1,0,0,1-.73-.2.67.67,0,0,1-.21-.52.63.63,0,0,1,.22-.5,1.07,1.07,0,0,1,.72-.2h.22v-5.54h-.22a1.1,1.1,0,0,1-.73-.19.7.7,0,0,1-.21-.52.66.66,0,0,1,.21-.51,1.1,1.1,0,0,1,.73-.2h6.35v2.15a1.05,1.05,0,0,1-.19.72.64.64,0,0,1-.51.22.66.66,0,0,1-.51-.21,1,1,0,0,1-.2-.73v-.74h-3.3v2.05h1.24a1.75,1.75,0,0,1,.1-.72.7.7,0,0,1,.61-.33.66.66,0,0,1,.51.21,1.1,1.1,0,0,1,.2.73v1.63a1.21,1.21,0,0,1-.11.62.69.69,0,0,1-.6.33.69.69,0,0,1-.61-.34,1.75,1.75,0,0,1-.1-.72Z"/><path class="cls-54" d="M141.29,185.92v4.28h.51a1.1,1.1,0,0,1,.73.2.72.72,0,0,1,0,1,1.1,1.1,0,0,1-.73.2h-1.86a1.1,1.1,0,0,1-.73-.2.68.68,0,0,1-.22-.52.67.67,0,0,1,.22-.5,1,1,0,0,1,.66-.2v-5.54h-.22a1.1,1.1,0,0,1-.73-.19.71.71,0,0,1-.22-.52.67.67,0,0,1,.22-.51,1.1,1.1,0,0,1,.73-.2h1.64l3.62,5.67v-4.26h-.52a1.05,1.05,0,0,1-.72-.19.67.67,0,0,1-.22-.52.64.64,0,0,1,.22-.51,1.05,1.05,0,0,1,.72-.2h1.86a1.1,1.1,0,0,1,.73.19.7.7,0,0,1,0,1,.89.89,0,0,1-.65.2v7h-1.4Z"/><polygon class="cls-35" points="164.35 169.34 135.8 216.5 100.08 216.5 128.63 169.34 164.35 169.34"/><polygon class="cls-35" points="194.91 169.34 194.91 176.88 170.59 216.5 152.79 216.5 181.34 169.34 194.91 169.34"/><path class="cls-31" d="M194.91,166.26v13.28a13.87,13.87,0,0,1-7.33,1.72c-5.85,0-10.61,1.47-10.61-4.4,0,2.95-1.19,1.29-3.11,2.57a13.61,13.61,0,0,1-7.49,1.83c-5.86,0-10.6,1.47-10.6-4.4,0,2.95-1.18,1.29-3.1,2.57a13.64,13.64,0,0,1-7.5,1.83c-5.85,0-10.61,1.47-10.61-4.4,0,5.87-4.75,4.4-10.6,4.4s-10.61,1.47-10.61-4.4c0,5.87-4.74,4.4-10.59,4.4a13.7,13.7,0,0,1-7.34-1.74V166.26Z"/><rect class="cls-55" x="95.42" y="215.36" width="99.49" height="1.14"/><path class="cls-56" d="M81.55,175.59h0A10.59,10.59,0,0,1,71,165v-3.93h21.2V165A10.59,10.59,0,0,1,81.55,175.59Z"/><path class="cls-57" d="M102.75,175.59h0A10.6,10.6,0,0,1,92.15,165v-3.93h21.21V165A10.6,10.6,0,0,1,102.75,175.59Z"/><path class="cls-56" d="M124,175.59h0a10.59,10.59,0,0,1-10.6-10.6v-3.93h21.2V165A10.59,10.59,0,0,1,124,175.59Z"/><path class="cls-57" d="M145.17,175.59h0A10.6,10.6,0,0,1,134.56,165v-3.93h21.21V165A10.6,10.6,0,0,1,145.17,175.59Z"/><path class="cls-56" d="M166.37,175.59h0a10.6,10.6,0,0,1-10.6-10.6v-3.93H177V165A10.59,10.59,0,0,1,166.37,175.59Z"/><path class="cls-57" d="M187.58,175.59h0A10.6,10.6,0,0,1,177,165v-3.93h21.21V165A10.6,10.6,0,0,1,187.58,175.59Z"/><path class="cls-56" d="M208.78,175.59h0a10.6,10.6,0,0,1-10.6-10.6v-3.93h21.2V165A10.59,10.59,0,0,1,208.78,175.59Z"/><rect class="cls-57" x="70.95" y="115.64" width="21.21" height="45.42"/><rect class="cls-58" x="92.15" y="115.64" width="21.21" height="45.42"/><rect class="cls-57" x="113.36" y="115.64" width="21.21" height="45.42"/><rect class="cls-58" x="134.56" y="115.64" width="21.21" height="45.42"/><rect class="cls-57" x="155.77" y="115.64" width="21.21" height="45.42"/><rect class="cls-58" x="176.97" y="115.64" width="21.21" height="45.42"/><rect class="cls-57" x="198.18" y="115.64" width="21.21" height="45.42"/><rect class="cls-59" x="45.1" y="265.88" width="23.68" height="4.78"/><rect class="cls-60" x="45.1" y="265.88" width="23.68" height="0.65"/><rect class="cls-61" x="45.1" y="270.01" width="23.68" height="0.65"/><path class="cls-62" d="M67.1,270.66H46.77l2.17,11.6c.46,2.41,2.17,4.12,4.15,4.12h7.69c2,0,3.7-1.71,4.15-4.12Z"/><path class="cls-63" d="M64.93,281.61c-.45,2.41-2.17,4.12-4.15,4.12H53.09c-2,0-3.69-1.71-4.15-4.12l-2-10.95h-.13l2.17,11.6c.46,2.41,2.17,4.12,4.15,4.12h7.69c2,0,3.7-1.71,4.15-4.12l2.17-11.6H67Z"/><polygon class="cls-64" points="47.61 275.12 66.26 275.12 67.1 270.66 46.77 270.66 47.61 275.12"/><rect class="cls-65" x="55.85" y="211.31" width="2.18" height="54.57"/><path class="cls-66" d="M72.74,214.22a15.81,15.81,0,1,1-15.8-15.8A15.8,15.8,0,0,1,72.74,214.22Z"/><path class="cls-67" d="M72.74,212.16c0,7.58-6.5,13.73-14.53,13.73s-14.53-6.15-14.53-13.73,6.51-13.74,14.53-13.74S72.74,204.57,72.74,212.16Z"/><path class="cls-68" d="M68.48,210.72c-1.48,3-6,3.7-10.05,1.67s-6.18-6.08-4.7-9,6-3.7,10-1.67S70,207.77,68.48,210.72Z"/><path class="cls-69" d="M96.05,243.2c-4.38,0-7.81-7.93-7.81-18.06s3.43-18.06,7.81-18.06,7.8,7.93,7.8,18.06S100.42,243.2,96.05,243.2Zm0-34.93c-3.59,0-6.62,7.73-6.62,16.87s3,16.87,6.62,16.87,6.61-7.73,6.61-16.87S99.63,208.27,96.05,208.27Z"/><path class="cls-69" d="M108,247H84.51l-.18-.51c-.38-1.08-9-26.61-.69-38.34,2.7-3.79,6.87-5.71,12.41-5.71s9.74,1.93,12.48,5.73c8.44,11.74,0,37.23-.32,38.31ZM85.6,245.49h21.34c1.15-3.71,7.71-26.19.35-36.42-2.43-3.38-6.22-5.09-11.24-5.09s-8.77,1.7-11.17,5.06C77.6,219.27,84.41,241.8,85.6,245.49Z"/><path class="cls-69" d="M104.36,246.84H88.1l-.11-.45c-.29-1.13-6.89-27.85.7-37.59a9.57,9.57,0,0,1,14.81,0c7.65,9.74,1.25,36.45,1,37.58ZM89,245.65h14.39c.82-3.59,5.92-27.48-.85-36.1a8.39,8.39,0,0,0-12.95,0C82.91,218.15,88.19,242.07,89,245.65Z"/><rect class="cls-69" x="83.41" y="267.72" width="24.08" height="1.93"/><path class="cls-69" d="M77.72,287v-1.19A4.49,4.49,0,0,0,81,284.34c4.11-4.15,4-15.53,4-15.64l-.62-22.44,1.19,0,.62,22.44c0,.5.07,12-4.38,16.5A5.71,5.71,0,0,1,77.72,287Z"/><path class="cls-69" d="M114.59,287a5.71,5.71,0,0,1-4.16-1.8c-4.45-4.49-4.39-16-4.38-16.49l.61-22.45,1.19,0-.62,22.45c0,.1-.06,11.49,4,15.63a4.5,4.5,0,0,0,3.32,1.44Z"/><rect class="cls-69" x="103.9" y="246.25" width="1.17" height="40.13"/><rect class="cls-69" x="87.67" y="246.25" width="1.17" height="40.13"/><rect class="cls-70" x="81.48" y="244.54" width="29.13" height="3.42"/><rect class="cls-69" x="152.38" y="267.72" width="24.08" height="1.93"/><path class="cls-69" d="M146,287v-1.19a4.5,4.5,0,0,0,3.32-1.44c4.1-4.14,4-15.53,4-15.64l-.62-22.44,1.19,0,.62,22.44c0,.5.06,12-4.38,16.5A5.69,5.69,0,0,1,146,287Z"/><path class="cls-69" d="M182.86,287a5.67,5.67,0,0,1-4.17-1.8c-4.45-4.49-4.38-16-4.38-16.49l.62-22.45,1.19,0-.62,22.45c0,.1-.06,11.49,4,15.63a4.5,4.5,0,0,0,3.32,1.44Z"/><rect class="cls-69" x="172.16" y="246.25" width="1.17" height="40.13"/><rect class="cls-69" x="155.94" y="246.25" width="1.17" height="40.13"/><path class="cls-69" d="M175,244.54a141.83,141.83,0,0,1,6.1-28.84c5.05-15.75,10.55-9.81,10.55-9.81s-.74,3-2.08,3-4.91.52-8.18,17.21c-2,10-2.76,15.83-3.1,18.94a3.31,3.31,0,0,1-3.29,3h0Z"/><rect class="cls-70" x="148.96" y="244.54" width="26.01" height="3.42"/><path class="cls-27" d="M308.92,129.93c-18-19.47-48.72-16.58-67.09,0l1.77,1.77c17.4-15.7,46.47-18.44,63.55,0Z"/><polygon class="cls-29" points="151.73 232.16 108.13 232.16 109.12 227.01 150.74 227.01 151.73 232.16"/><rect class="cls-69" x="127.03" y="275.4" width="5.8" height="2.17"/><polygon class="cls-69" points="131.86 232.16 127.99 232.16 128.64 277.4 131.21 277.4 131.86 232.16"/><path class="cls-69" d="M117.29,286.77c-.26,0-2.21-.2-2.76-1.49-.33-.78,0-1.71.82-2.76l.91.76c-.55.66-.77,1.21-.63,1.53.2.5,1.26.74,1.71.77,11.85,0,12-8.72,12-9.09h1.19C130.52,276.59,130.37,286.77,117.29,286.77Z"/><path class="cls-69" d="M142.6,287c-13.12,0-13.27-10.18-13.27-10.28h1.19c0,.37.18,9.09,12,9.09.42,0,1.46-.27,1.67-.76.13-.33-.09-.88-.64-1.53l.91-.77c.88,1,1.15,2,.82,2.76-.55,1.29-2.5,1.47-2.72,1.49Z"/><rect class="cls-45" x="200.95" y="223.37" width="29.53" height="51.11"/><rect class="cls-47" x="200.95" y="223.37" width="29.53" height="0.91"/><rect class="cls-71" x="202.94" y="226.07" width="25.57" height="45.7"/><rect class="cls-72" x="202.94" y="228.7" width="23.27" height="43.08"/><rect class="cls-47" x="202.94" y="270.87" width="25.57" height="0.91"/><rect class="cls-73" x="200.95" y="274.02" width="29.53" height="0.91"/><rect class="cls-74" x="198.13" y="222.55" width="2.82" height="63.82" transform="translate(399.08 508.93) rotate(180)"/><rect class="cls-75" x="198.13" y="222.55" width="0.65" height="63.82" transform="translate(396.91 508.93) rotate(180)"/><rect class="cls-74" x="230.48" y="222.55" width="2.82" height="63.82" transform="translate(463.79 508.93) rotate(180)"/><rect class="cls-75" x="230.48" y="222.55" width="0.65" height="63.82" transform="translate(461.61 508.93) rotate(180)"/><rect class="cls-45" x="198.13" y="222.56" width="2.82" height="0.81" transform="translate(399.09 445.92) rotate(180)"/><rect class="cls-45" x="230.48" y="222.56" width="2.82" height="0.81" transform="translate(463.79 445.92) rotate(180)"/><rect class="cls-47" x="209.21" y="231.5" width="11.76" height="1.86"/><rect class="cls-47" x="204.92" y="238.59" width="17.1" height="1.23"/><rect class="cls-76" x="204.92" y="241.54" width="12.21" height="0.88"/><rect class="cls-47" x="204.92" y="247.4" width="17.1" height="1.23"/><rect class="cls-76" x="204.92" y="250.34" width="12.21" height="0.88"/><rect class="cls-47" x="204.92" y="256.2" width="17.1" height="1.23"/><rect class="cls-76" x="204.92" y="259.15" width="12.21" height="0.88"/><path class="cls-77" d="M259.21,43.33A28.56,28.56,0,0,1,235,30a64,64,0,0,0-108.34,0,28.55,28.55,0,0,1-24.17,13.37H63.17A28.55,28.55,0,0,0,34.62,71.88h0a28.56,28.56,0,0,0,28.55,28.56H298.55a28.56,28.56,0,0,0,28.56-28.56h0a28.56,28.56,0,0,0-28.56-28.55Z"/><path class="cls-78" d="M253,47.39a24.24,24.24,0,0,1-21.15-12.14,58.54,58.54,0,0,0-101.94,0,24.23,24.23,0,0,1-21.15,12.14H63.82a24.5,24.5,0,0,0-24.49,24.5h0A24.5,24.5,0,0,0,63.82,96.38H297.9a24.49,24.49,0,0,0,24.49-24.49h0a24.49,24.49,0,0,0-24.49-24.5Z"/><g class="cls-79"><text class="cls-80" transform="translate(79 84.35)">ร้านค้า สาขา 1</text></g></g></g></svg>