<svg id="Layer_1" data-name="Layer 1" xmlns="http://www.w3.org/2000/svg" viewBox="0 0 343.03 42.1"><defs><style>.cls-1{opacity:0.32;}.cls-2{fill:gray;}</style></defs><title>NEW-homepage ver4</title><g class="cls-1"><path d="M260.43,41.27c-1.25,0-2.5,0-3.74,0-.67,0-.68-.34-.68-.82s0-.86.69-.81a10.28,10.28,0,0,0,3.16-.37,2.1,2.1,0,0,0,1.61-1.59,10.15,10.15,0,0,0,.42-2.86c0-9.4,0-18.81,0-28.21,0-1.33,0-2.81-1.46-3.58a6,6,0,0,0-2.49-.59c-.57,0-.92-.16-.88-.8s.3-.91.94-.84c4,.4,8.07.18,12.1.21q6.63,0,13.25,0c.73,0,.95.19,1.06.93.33,2.22.53,4.43.69,6.66,0,.3,0,.67-.5.71s-1.08-.07-1.22-.75a10,10,0,0,0-.86-2.43A5.15,5.15,0,0,0,278,3.22c-3.26-.34-6.52-.13-9.78-.21-.9,0-1.27.3-1.26,1.23q0,6.78,0,13.55c0,.94.27,1.29,1.26,1.27,2.7-.07,5.4,0,8.1,0a2.28,2.28,0,0,0,2.61-2,12.85,12.85,0,0,0,.42-2.05.93.93,0,0,1,1.15-.94c.72.06.68.56.62,1a55.13,55.13,0,0,0-.17,7c0,1.17.11,2.34.18,3.51,0,.46,0,.87-.61.94a1,1,0,0,1-1.18-.81c-.21-.8-.38-1.62-.59-2.42a2.31,2.31,0,0,0-2.11-1.8c-2.59,0-5.16-.34-7.75-.23-1.78.07-1.92.16-1.92,2V33a18,18,0,0,0,.36,3.27A3.08,3.08,0,0,0,270,38.81a43.87,43.87,0,0,0,10.5.16c2.73-.25,4-1.91,5.36-3.78a17.57,17.57,0,0,0,1.4-2.41c.32-.66.87-.42,1.29-.36s.49.61.38,1c-.78,2.53-1.6,5.06-2.39,7.59-.1.33-.33.29-.55.29-2.9,0-5.81.14-8.69-.05-4.48-.29-8.95-.09-13.42-.12C262.75,41.32,261.58,41,260.43,41.27Z"/><path d="M160.67,41.27c-1.31,0-2.63,0-3.94,0-.72,0-.84-.37-.87-.92s.32-.73.84-.71a6.87,6.87,0,0,0,3.79-.76,2.11,2.11,0,0,0,1-1.48,12.88,12.88,0,0,0,.45-3.15c0-9,0-17.94,0-26.9A11.79,11.79,0,0,0,161.66,5c-.32-1.56-1.59-2.45-3.68-2.53-.74,0-.95-.17-1-.94,0-.95.61-.72,1.08-.69,7.94.42,15.89.11,23.83.2.27,0,.55,0,.81,0,1.38-.13,1.42-.15,1.63,1.34A43.86,43.86,0,0,1,185,8.53c0,.34.13.78-.48.79s-.94,0-1.12-.55a10.07,10.07,0,0,0-1.56-3.59,4.72,4.72,0,0,0-3.14-1.89A81.12,81.12,0,0,0,168,3.05c-.63,0-1,.23-1.07,1.06a117.94,117.94,0,0,0,0,12.89c.08,2.05.23,2,2.33,2s4.39,0,6.58,0c2.48-.07,2.94-.7,3.16-2.57.07-.58.32-1.14.38-1.74a.81.81,0,0,1,1-.72c.52,0,.87.38.75.87a26.51,26.51,0,0,0-.28,4.79,54.19,54.19,0,0,0,.16,5.83c0,.6,0,.91-.56,1s-1-.18-1.12-.84-.38-1.53-.59-2.29c-.36-1.29-1.1-1.84-2.67-1.9-2.32-.09-4.64-.31-7-.2a15.84,15.84,0,0,0-1.67.2.52.52,0,0,0-.44.47,6.42,6.42,0,0,0-.19,1.57c0,2.93-.1,5.87,0,8.79a13,13,0,0,0,.67,4.61,3.11,3.11,0,0,0,2.6,1.9,44.48,44.48,0,0,0,10.19.18c3.2-.29,4.58-2.3,6-4.56A6.16,6.16,0,0,0,187,33c.28-.92,1-.69,1.56-.57s.35.75.24,1.15a57.4,57.4,0,0,1-2.39,7.32c-.17.41-.4.38-.68.38-2.9,0-5.81.14-8.7-.05-4.51-.28-9-.09-13.52-.12C162.58,41.31,161.61,41,160.67,41.27Z"/><path d="M222.9,33c1.31-3,2.55-5.83,3.76-8.66q1.47-3.42,2.89-6.86c1.68-4.06,3.43-8.09,5-12.2.75-2,.33-2.16-1.28-2.52a5.94,5.94,0,0,0-1.76-.32c-.62.05-.73-.39-.73-.83s.17-.81.78-.8c1.23,0,2.45.27,3.7.24,2.52-.07,5,.05,7.55-.23.61-.07.92.07.91.79s-.19.89-.86.84c-2.4-.21-3.81,1.13-4.85,3.1-2.91,5.55-5.43,11.28-8,17-2,4.52-3.88,9.08-5.77,13.65-.71,1.73-1.4,3.49-2,5.28-.17.52-.33.62-.78.6s-.93.08-1.13-.65a44.85,44.85,0,0,0-1.74-5.17c-1-2.4-1.91-4.85-2.86-7.27-1.22-3.1-2.53-6.17-3.72-9.29-.76-2-1.62-3.94-2.44-5.9-1.06-2.53-2.1-5.07-3.16-7.6-.93-2.23-2.41-3.75-5-3.77-.63,0-.68-.39-.68-.87s.27-.83.82-.74a59.46,59.46,0,0,0,6.54.21c2,.08,4-.16,6-.24a.93.93,0,0,1,1.12,1c.06.7-.52.65-1,.71a12.23,12.23,0,0,0-2.12.48c-.83.25-.91.75-.66,1.58,1.44,4.7,3.44,9.18,5.24,13.73,1.85,4.71,3.84,9.36,5.78,14A5.78,5.78,0,0,0,222.9,33Z"/><path class="cls-2" d="M309.42,41.27a3.59,3.59,0,0,1,2.05-.17,15,15,0,0,1,4.07.17Z"/><path class="cls-2" d="M111.08,41.27a13.13,13.13,0,0,1,4.92,0Z"/><path class="cls-2" d="M260.43,41.27a11.54,11.54,0,0,1,3.47-.16A13.44,13.44,0,0,1,260.43,41.27Z"/><path class="cls-2" d="M114.77.82a8.88,8.88,0,0,1-3,.17A11.08,11.08,0,0,1,114.77.82Z"/><path class="cls-2" d="M160.67,41.27a7.81,7.81,0,0,1,2.85-.16A9.4,9.4,0,0,1,160.67,41.27Z"/><path class="cls-2" d="M312.5.83c-.37.34-.81.15-1.23.16C311.65.68,312.09.87,312.5.83Z"/><path d="M10.33,11.59c0,2.36,0,4.72,0,7.08,0,.87.35,1.19,1.21,1.18,2.66,0,5.32,0,8,0A8.79,8.79,0,0,0,22,19.37a1.6,1.6,0,0,0,.94-1.23c.22-.87.45-1.73.62-2.61s.67-.78,1.27-.76c.75,0,.49.59.51,1,.09,1.88-.31,3.75-.2,5.63.1,1.65.15,3.29.2,4.93,0,.32.21.82-.43.81s-1.18.2-1.35-.63a11.93,11.93,0,0,0-.83-2.85,2.43,2.43,0,0,0-2.13-1.39A73,73,0,0,0,12.19,22c-1.68,0-1.86.17-1.86,1.8,0,3.58,0,7.15,0,10.72a15.16,15.16,0,0,0,.25,2.6c.35,1.94,1.36,2.2,3.52,2.5a5.62,5.62,0,0,0,1.42,0c.58-.06.85.26.81.74s-.08.91-.84.92c-3.34,0-6.66-.44-10-.2-1.58.12-3.15.14-4.73.18-.53,0-.81-.1-.78-.72s.08-.94.76-.91a5.72,5.72,0,0,0,1.69-.17c2.2-.54,2.83-1.31,2.83-3.59V6.77c0-3-.8-3.95-3.73-4.31-.62-.07-1,0-1-.89S1.2.8,1.73.83C9.47,1.24,17.22,1,25,1a7.3,7.3,0,0,0,.81,0c1.56-.17,1.6-.17,1.54,1.37-.08,1.95.24,3.88.21,5.83,0,.48.16,1-.65,1.1s-.86-.23-1-.9c-.45-2.28-1.37-4.27-3.85-5a10.74,10.74,0,0,0-2.65-.39c-2.52,0-5.05,0-7.58,0-1.19,0-1.46.27-1.47,1.49C10.32,6.87,10.33,9.23,10.33,11.59Z"/><path d="M143.64,40.67a7.61,7.61,0,0,1-2.86-1,27.36,27.36,0,0,1-6.33-6.42c-2.59-3.41-4.8-7.07-7.08-10.69-.51-.81-.34-1.15.55-1.58,4.44-2.16,7.73-6.28,6.69-11.88a8.89,8.89,0,0,0-3.79-5.87c-2.88-2-6.28-2.32-9.67-2.45-2.12-.07-4.25,0-6.38,0-1,.27-2,0-3,.17-1.71,0-3.41.34-5.12.23a.79.79,0,0,0-1,.77c-.06.53,0,.85.7.91a10.76,10.76,0,0,0,2,.34,1.75,1.75,0,0,1,1.76,1.23,5.28,5.28,0,0,1,.45,2.22c0,5,0,10,0,15.06,0,4.62.08,9.24,0,13.85-.06,2.44-.38,3.3-2.23,3.79a5.53,5.53,0,0,1-2.18.27c-.68-.09-.83.21-.84.86s.19.79.81.77c1.68,0,3.37,0,5,0a26.09,26.09,0,0,1,4.92,0c1.29,0,2.57,0,3.85,0,.64,0,.79-.19.8-.8,0-.8-.44-.83-1-.84-2,0-3.42-.84-3.77-2.26a7.46,7.46,0,0,1-.26-1.87c0-3.85,0-7.69,0-11.53a.81.81,0,0,1,.93-.92h2.73a3.84,3.84,0,0,1,3.37,1.73c1.57,2.33,3,4.73,4.56,7.1a36.56,36.56,0,0,0,5.21,6.74,10.5,10.5,0,0,0,5.59,3,17.56,17.56,0,0,0,5.7.09c.35-.06.45-.2.45-.52S144,40.73,143.64,40.67Zm-19.93-20c-2.49.7-5,.18-7.49.33-.75,0-.65-.63-.65-1.1,0-2.63,0-5.26,0-7.88s0-5.12,0-7.68a1.31,1.31,0,0,1,1.36-1.49c2.32,0,4.64-.28,6.91.7A8.08,8.08,0,0,1,128.4,8.1a11,11,0,0,1-.33,9.17A6.44,6.44,0,0,1,123.71,20.7Z"/><path d="M342.49,40.68a6.9,6.9,0,0,1-3.18-1.2,21,21,0,0,1-3.94-3.76c-3.51-4-6.2-8.67-9.09-13.15-.5-.79-.32-1.14.52-1.53,4.07-1.95,7.33-5.55,6.91-10.65a9,9,0,0,0-4-7.15C327,1.4,323.82,1,320.69.85c-2.72-.16-5.45,0-8.19,0-.39.22-.84,0-1.23.16l-5.73.23a.85.85,0,0,0-1,.81c0,.54.17.8.72.86s1.3.29,2,.34a2.26,2.26,0,0,1,2,1.9,73.82,73.82,0,0,1,.4,8c0,1.21,0,2.42,0,3.63,0,6.29.13,12.58-.21,18.86-.08,1.34,0,2.9-1.63,3.52a6.36,6.36,0,0,1-2.91.52c-.71-.07-.69.44-.72.93s.17.7.7.69c1.51,0,3,0,4.55,0a39.07,39.07,0,0,1,6.12,0c1,0,2.09,0,3.13,0,.6,0,1-.22,1-.73s-.28-1-1-.91A4.86,4.86,0,0,1,316,39c-1.48-.8-1.39-2.37-1.43-3.69-.12-3.7,0-7.41-.05-11.12a1,1,0,0,1,1.06-1.12c.88,0,1.75,0,2.63,0a3.82,3.82,0,0,1,3.2,1.55c1,1.38,1.91,2.86,2.83,4.31a73.36,73.36,0,0,0,4.88,7.24c2,2.39,4.09,4.56,7.33,5.26a21.52,21.52,0,0,0,6.15.23c.31,0,.45-.25.46-.56S342.77,40.71,342.49,40.68ZM323,20.65c-2.59.81-5.25.25-7.88.38-.71,0-.63-.63-.64-1.11V12c0-2.52.05-5,0-7.57,0-1,.52-1.57,1.36-1.59,2.39-.08,4.79-.24,7.09.76a8.51,8.51,0,0,1,5.13,7.47,10.78,10.78,0,0,1-1.23,6.56A6.65,6.65,0,0,1,323,20.65Z"/><path d="M85.24,10.33A18.59,18.59,0,0,0,76.35,2,20.33,20.33,0,0,0,69.26.27,15.41,15.41,0,0,0,65.67.06c-.79.13-1.57.28-2.36.35A17.79,17.79,0,0,0,58,1.84a23.2,23.2,0,0,0-6.15,3.84A21.36,21.36,0,0,0,47,12.73a22.05,22.05,0,0,0-1.65,10.81,19.88,19.88,0,0,0,5.87,12.53c4,4,9,5.65,14.56,6a20.08,20.08,0,0,0,6.52-.75A23.76,23.76,0,0,0,78,38.93c1.44-.82,2.58-2,3.94-2.92a27.7,27.7,0,0,0,4.18-6.44,20.37,20.37,0,0,0,1.69-6.91A22.55,22.55,0,0,0,85.24,10.33Zm-4.67,20a13.6,13.6,0,0,1-6.82,8.33,13.83,13.83,0,0,1-9.09,1.19,14,14,0,0,1-7.28-3.75A15.77,15.77,0,0,1,54.29,32a24,24,0,0,1-2.87-12.37,19.42,19.42,0,0,1,2-10.07,13.45,13.45,0,0,1,9.48-7.19A14.68,14.68,0,0,1,72.51,3.6a13.5,13.5,0,0,1,6,5.88,26.37,26.37,0,0,1,3.09,11A24.93,24.93,0,0,1,80.57,30.32Z"/></g></svg>