<svg xmlns="http://www.w3.org/2000/svg" xmlns:xlink="http://www.w3.org/1999/xlink" viewBox="0 0 394.88 351.15"><defs><style>.cls-1{isolation:isolate;}.cls-2{fill:#767a7f;}.cls-3{fill:#9a9a9a;}.cls-4{fill:#929292;}.cls-5{fill:#9d9d9d;}.cls-6{fill:#98cfb8;}.cls-11,.cls-12,.cls-13,.cls-14,.cls-15,.cls-16,.cls-17,.cls-18,.cls-19,.cls-20,.cls-21,.cls-22,.cls-23,.cls-24,.cls-25,.cls-26,.cls-27,.cls-28,.cls-29,.cls-38,.cls-44,.cls-59,.cls-62,.cls-7{mix-blend-mode:multiply;}.cls-7{fill:url(#Áåçûìÿííûé_ãðàäèåíò_220);}.cls-8{fill:#b6dccb;}.cls-9{fill:#9ed7bf;}.cls-10{fill:#6fad91;}.cls-11{fill:url(#Áåçûìÿííûé_ãðàäèåíò_220-2);}.cls-12{fill:url(#Áåçûìÿííûé_ãðàäèåíò_220-3);}.cls-13{fill:url(#Áåçûìÿííûé_ãðàäèåíò_220-4);}.cls-14{fill:url(#Áåçûìÿííûé_ãðàäèåíò_220-5);}.cls-15{fill:url(#Áåçûìÿííûé_ãðàäèåíò_220-6);}.cls-16{fill:url(#Áåçûìÿííûé_ãðàäèåíò_220-7);}.cls-17{fill:url(#Áåçûìÿííûé_ãðàäèåíò_220-8);}.cls-18{fill:url(#Áåçûìÿííûé_ãðàäèåíò_220-9);}.cls-19{fill:url(#Áåçûìÿííûé_ãðàäèåíò_220-10);}.cls-20{fill:url(#Áåçûìÿííûé_ãðàäèåíò_220-11);}.cls-21{fill:url(#Áåçûìÿííûé_ãðàäèåíò_220-12);}.cls-22{fill:url(#Áåçûìÿííûé_ãðàäèåíò_220-13);}.cls-23{fill:url(#Áåçûìÿííûé_ãðàäèåíò_220-14);}.cls-24{fill:url(#Áåçûìÿííûé_ãðàäèåíò_220-15);}.cls-25{fill:url(#Áåçûìÿííûé_ãðàäèåíò_220-16);}.cls-26{fill:url(#Áåçûìÿííûé_ãðàäèåíò_220-17);}.cls-27{fill:url(#Áåçûìÿííûé_ãðàäèåíò_220-18);}.cls-28{fill:url(#Áåçûìÿííûé_ãðàäèåíò_220-19);}.cls-29{fill:url(#Áåçûìÿííûé_ãðàäèåíò_220-20);}.cls-30{fill:#a8600d;}.cls-31{fill:#b57933;}.cls-32{fill:#ffe1ff;}.cls-33{fill:#fffaff;}.cls-34{fill:#e1c0ff;}.cls-35{fill:#a3b72a;}.cls-36{fill:#bbd038;}.cls-37{fill:#c2e14b;}.cls-38{fill:url(#Áåçûìÿííûé_ãðàäèåíò_220-21);}.cls-39{fill:#beb9bd;}.cls-40{fill:#d5d2d5;}.cls-41{fill:#f7f3ef;}.cls-42{fill:#ecdfd0;}.cls-43{fill:#d6b792;}.cls-44{fill:url(#Áåçûìÿííûé_ãðàäèåíò_220-22);}.cls-45{fill:#477e80;}.cls-46{fill:#c99b6d;}.cls-47{fill:#dabb9a;}.cls-48{fill:#b2692c;}.cls-49{fill:#c08a53;}.cls-50{fill:#bb8041;}.cls-51{fill:#709b98;}.cls-52{fill:url(#Áåçûìÿííûé_ãðàäèåíò_65);}.cls-53{fill:#b87f3c;}.cls-54{fill:#d2ad84;}.cls-55{fill:#9e5119;}.cls-56{fill:#d4d0d2;}.cls-57{fill:#d3cfd1;}.cls-58{fill:#bf8850;}.cls-59{fill:url(#Áåçûìÿííûé_ãðàäèåíò_65-2);}.cls-60{fill:#528284;}.cls-61{fill:#fff2ff;}.cls-62{fill:url(#Áåçûìÿííûé_ãðàäèåíò_65-3);}.cls-63{fill:#b9803f;}.cls-64{fill:#2a5355;mix-blend-mode:screen;}.cls-65{fill:#796158;}.cls-66{fill:#684d43;}.cls-67{fill:#f09b45;}.cls-68{fill:#f5cd8f;}.cls-69{fill:#ee7b1f;}.cls-70{fill:#7d665d;}.cls-71{fill:#9d9499;}.cls-72{fill:#5d4035;}.cls-73{fill:#df7c1b;}.cls-74{fill:#afb7bc;}.cls-75{fill:#3b4e5b;}.cls-76{opacity:0.89;}.cls-77{font-size:35px;fill:#fff;font-family:Mitr-Regular, Mitr;}</style><linearGradient id="Áåçûìÿííûé_ãðàäèåíò_220" x1="107.82" y1="90.27" x2="89.54" y2="134.02" gradientUnits="userSpaceOnUse"><stop offset="0.18" stop-color="#97b1c0"/><stop offset="0.98" stop-color="#fff"/></linearGradient><linearGradient id="Áåçûìÿííûé_ãðàäèåíò_220-2" x1="101.1" y1="97.35" x2="82.83" y2="141.1" xlink:href="#Áåçûìÿííûé_ãðàäèåíò_220"/><linearGradient id="Áåçûìÿííûé_ãðàäèåíò_220-3" x1="112.53" y1="104.7" x2="94.26" y2="148.44" xlink:href="#Áåçûìÿííûé_ãðàäèåíò_220"/><linearGradient id="Áåçûìÿííûé_ãðàäèåíò_220-4" x1="327.64" y1="87.83" x2="309.37" y2="131.58" xlink:href="#Áåçûìÿííûé_ãðàäèåíò_220"/><linearGradient id="Áåçûìÿííûé_ãðàäèåíò_220-5" x1="342.46" y1="94.91" x2="324.19" y2="138.65" xlink:href="#Áåçûìÿííûé_ãðàäèåíò_220"/><linearGradient id="Áåçûìÿííûé_ãðàäèåíò_220-6" x1="331.67" y1="102.25" x2="313.4" y2="146" xlink:href="#Áåçûìÿííûé_ãðàäèåíò_220"/><linearGradient id="Áåçûìÿííûé_ãðàäèåíò_220-7" x1="314.15" y1="124.72" x2="295.88" y2="168.46" xlink:href="#Áåçûìÿííûé_ãðàäèåíò_220"/><linearGradient id="Áåçûìÿííûé_ãðàäèåíò_220-8" x1="307.44" y1="131.79" x2="289.17" y2="175.54" xlink:href="#Áåçûìÿííûé_ãðàäèåíò_220"/><linearGradient id="Áåçûìÿííûé_ãðàäèåíò_220-9" x1="318.87" y1="139.14" x2="300.6" y2="182.89" xlink:href="#Áåçûìÿííûé_ãðàäèåíò_220"/><linearGradient id="Áåçûìÿííûé_ãðàäèåíò_220-10" x1="338.33" y1="212.97" x2="320.06" y2="256.71" xlink:href="#Áåçûìÿííûé_ãðàäèåíò_220"/><linearGradient id="Áåçûìÿííûé_ãðàäèåíò_220-11" x1="331.62" y1="220.05" x2="313.35" y2="263.79" xlink:href="#Áåçûìÿííûé_ãðàäèåíò_220"/><linearGradient id="Áåçûìÿííûé_ãðàäèåíò_220-12" x1="343.05" y1="227.39" x2="324.78" y2="271.14" xlink:href="#Áåçûìÿííûé_ãðàäèåíò_220"/><linearGradient id="Áåçûìÿííûé_ãðàäèåíò_220-13" x1="82.7" y1="138.56" x2="64.43" y2="182.31" xlink:href="#Áåçûìÿííûé_ãðàäèåíò_220"/><linearGradient id="Áåçûìÿííûé_ãðàäèåíò_220-14" x1="97.52" y1="145.64" x2="79.25" y2="189.39" xlink:href="#Áåçûìÿííûé_ãðàäèåíò_220"/><linearGradient id="Áåçûìÿííûé_ãðàäèåíò_220-15" x1="86.72" y1="152.99" x2="68.45" y2="196.73" xlink:href="#Áåçûìÿííûé_ãðàäèåíò_220"/><linearGradient id="Áåçûìÿííûé_ãðàäèåíò_220-16" x1="95.33" y1="219.63" x2="77.06" y2="263.37" xlink:href="#Áåçûìÿííûé_ãðàäèåíò_220"/><linearGradient id="Áåçûìÿííûé_ãðàäèåíò_220-17" x1="110.16" y1="226.7" x2="91.88" y2="270.45" xlink:href="#Áåçûìÿííûé_ãðàäèåíò_220"/><linearGradient id="Áåçûìÿííûé_ãðàäèåíò_220-18" x1="99.36" y1="234.05" x2="81.09" y2="277.8" xlink:href="#Áåçûìÿííûé_ãðàäèåíò_220"/><linearGradient id="Áåçûìÿííûé_ãðàäèåíò_220-19" x1="222.06" y1="194.17" x2="-75.44" y2="491.67" xlink:href="#Áåçûìÿííûé_ãðàäèåíò_220"/><linearGradient id="Áåçûìÿííûé_ãðàäèåíò_220-20" x1="298.93" y1="203.82" x2="298.93" y2="396.36" xlink:href="#Áåçûìÿííûé_ãðàäèåíò_220"/><linearGradient id="Áåçûìÿííûé_ãðàäèåíò_220-21" x1="77.73" y1="203.82" x2="77.73" y2="396.38" xlink:href="#Áåçûìÿííûé_ãðàäèåíò_220"/><linearGradient id="Áåçûìÿííûé_ãðàäèåíò_220-22" x1="177.16" y1="84.26" x2="177.16" y2="182.43" xlink:href="#Áåçûìÿííûé_ãðàäèåíò_220"/><linearGradient id="Áåçûìÿííûé_ãðàäèåíò_65" x1="245.19" y1="213.42" x2="152.74" y2="262.46" gradientUnits="userSpaceOnUse"><stop offset="0.18" stop-color="#c0a697"/><stop offset="0.98" stop-color="#fff"/></linearGradient><linearGradient id="Áåçûìÿííûé_ãðàäèåíò_65-2" x1="292.15" y1="177.3" x2="15.1" y2="324.24" xlink:href="#Áåçûìÿííûé_ãðàäèåíò_65"/><linearGradient id="Áåçûìÿííûé_ãðàäèåíò_65-3" x1="151.76" y1="171.96" x2="151.76" y2="230.43" xlink:href="#Áåçûìÿííûé_ãðàäèåíò_65"/></defs><title>NEW-homepage ver4</title><g class="cls-1"><g id="Layer_1" data-name="Layer 1"><path class="cls-2" d="M378.79,318.66H12a12,12,0,0,1-12-12H0a12,12,0,0,1,12-12H378.79a12,12,0,0,1,12,12h0A12,12,0,0,1,378.79,318.66Z"/><path class="cls-3" d="M347.07,334H49.13A13,13,0,0,1,36.08,321h0a13,13,0,0,1,13.05-13H347.07a13,13,0,0,1,13.05,13h0A13,13,0,0,1,347.07,334Z"/><path class="cls-4" d="M55.28,351.15H30.17a5.48,5.48,0,0,1-5.49-5.48h0a5.49,5.49,0,0,1,5.49-5.49H55.28a5.49,5.49,0,0,1,5.49,5.49h0A5.48,5.48,0,0,1,55.28,351.15Z"/><path class="cls-4" d="M389.39,339.5H371.47A5.49,5.49,0,0,1,366,334h0a5.49,5.49,0,0,1,5.49-5.49h17.92a5.49,5.49,0,0,1,5.49,5.49h0A5.49,5.49,0,0,1,389.39,339.5Z"/><path class="cls-5" d="M287.43,351.15H227.69a5.82,5.82,0,0,1-5.83-5.82h0a5.83,5.83,0,0,1,5.83-5.83h59.74a5.83,5.83,0,0,1,5.82,5.83h0A5.82,5.82,0,0,1,287.43,351.15Z"/><rect class="cls-6" x="58.44" y="101.29" width="291.23" height="198.41" rx="17.78"/><polygon class="cls-7" points="106.55 119.89 86.23 119.89 86.23 113.13 87.51 112.29 107.83 119.05 106.55 119.89"/><rect class="cls-8" x="87.51" y="112.29" width="20.32" height="6.76"/><rect class="cls-9" x="87.51" y="112.81" width="19.94" height="6.24"/><polygon class="cls-10" points="87.73 118.83 87.73 112.81 87.51 112.29 87.51 119.05 107.83 119.05 107.45 118.83 87.73 118.83"/><polygon class="cls-11" points="99.84 126.97 79.52 126.97 79.52 120.21 80.8 119.37 101.11 126.13 99.84 126.97"/><rect class="cls-8" x="80.8" y="119.37" width="20.32" height="6.76"/><rect class="cls-6" x="80.8" y="119.89" width="19.94" height="6.24"/><polygon class="cls-10" points="81.02 125.91 81.02 119.89 80.8 119.37 80.8 126.13 101.11 126.13 100.74 125.91 81.02 125.91"/><polygon class="cls-12" points="111.27 134.31 90.95 134.31 90.95 127.55 92.23 126.72 112.55 133.48 111.27 134.31"/><rect class="cls-8" x="92.23" y="126.72" width="20.32" height="6.76"/><rect class="cls-6" x="92.23" y="127.24" width="19.94" height="6.24"/><polygon class="cls-10" points="92.45 133.25 92.45 127.24 92.23 126.72 92.23 133.48 112.55 133.48 112.17 133.25 92.45 133.25"/><polygon class="cls-13" points="326.38 117.45 306.06 117.45 306.06 110.69 307.34 109.85 327.65 116.61 326.38 117.45"/><rect class="cls-8" x="307.34" y="109.85" width="20.32" height="6.76"/><rect class="cls-9" x="307.34" y="110.37" width="19.94" height="6.24"/><polygon class="cls-10" points="307.56 116.39 307.56 110.37 307.34 109.85 307.34 116.61 327.65 116.61 327.28 116.39 307.56 116.39"/><polygon class="cls-14" points="341.2 124.53 320.88 124.53 320.88 117.77 322.16 116.93 342.47 123.69 341.2 124.53"/><rect class="cls-8" x="322.16" y="116.93" width="20.32" height="6.76"/><rect class="cls-6" x="322.16" y="117.45" width="19.94" height="6.24"/><polygon class="cls-10" points="322.38 123.47 322.38 117.45 322.16 116.93 322.16 123.69 342.47 123.69 342.1 123.47 322.38 123.47"/><polygon class="cls-15" points="330.4 131.87 310.09 131.87 310.09 125.11 311.36 124.27 331.68 131.03 330.4 131.87"/><rect class="cls-8" x="311.36" y="124.27" width="20.32" height="6.76"/><rect class="cls-6" x="311.36" y="124.79" width="19.94" height="6.24"/><polygon class="cls-10" points="311.59 130.81 311.59 124.79 311.36 124.27 311.36 131.03 331.68 131.03 331.31 130.81 311.59 130.81"/><polygon class="cls-16" points="312.89 154.34 292.57 154.34 292.57 147.57 293.85 146.74 314.17 153.5 312.89 154.34"/><rect class="cls-8" x="293.85" y="146.74" width="20.32" height="6.76"/><rect class="cls-6" x="293.85" y="147.26" width="19.94" height="6.24"/><polygon class="cls-10" points="294.07 153.27 294.07 147.26 293.85 146.74 293.85 153.5 314.17 153.5 313.79 153.27 294.07 153.27"/><polygon class="cls-17" points="306.18 161.41 285.86 161.41 285.86 154.65 287.14 153.81 307.45 160.57 306.18 161.41"/><rect class="cls-8" x="287.14" y="153.81" width="20.32" height="6.76"/><rect class="cls-6" x="287.14" y="154.33" width="19.94" height="6.24"/><polygon class="cls-10" points="287.36 160.35 287.36 154.34 287.14 153.81 287.14 160.57 307.45 160.57 307.08 160.35 287.36 160.35"/><polygon class="cls-18" points="317.61 168.76 297.3 168.76 297.3 162 298.57 161.16 318.89 167.92 317.61 168.76"/><rect class="cls-8" x="298.57" y="161.16" width="20.32" height="6.76"/><rect class="cls-9" x="298.57" y="161.68" width="19.94" height="6.24"/><polygon class="cls-10" points="298.79 167.7 298.79 161.68 298.57 161.16 298.57 167.92 318.89 167.92 318.51 167.7 298.79 167.7"/><polygon class="cls-19" points="337.07 242.59 316.75 242.59 316.75 235.83 318.02 234.99 338.34 241.75 337.07 242.59"/><rect class="cls-8" x="318.02" y="234.99" width="20.32" height="6.76"/><rect class="cls-9" x="318.02" y="235.51" width="19.94" height="6.24"/><polygon class="cls-10" points="318.25 241.53 318.25 235.51 318.02 234.99 318.02 241.75 338.34 241.75 337.97 241.53 318.25 241.53"/><polygon class="cls-20" points="330.35 249.66 310.04 249.66 310.04 242.9 311.31 242.07 331.63 248.83 330.35 249.66"/><rect class="cls-8" x="311.31" y="242.07" width="20.32" height="6.76"/><rect class="cls-6" x="311.31" y="242.59" width="19.94" height="6.24"/><polygon class="cls-10" points="311.54 248.6 311.54 242.59 311.31 242.07 311.31 248.83 331.63 248.83 331.25 248.6 311.54 248.6"/><polygon class="cls-21" points="341.79 257.01 321.47 257.01 321.47 250.25 322.75 249.41 343.06 256.17 341.79 257.01"/><rect class="cls-8" x="322.74" y="249.41" width="20.32" height="6.76"/><rect class="cls-6" x="322.74" y="249.93" width="19.94" height="6.24"/><polygon class="cls-10" points="322.97 255.95 322.97 249.93 322.75 249.41 322.75 256.17 343.06 256.17 342.69 255.95 322.97 255.95"/><polygon class="cls-22" points="81.43 168.18 61.12 168.18 61.12 161.42 62.39 160.58 82.71 167.34 81.43 168.18"/><rect class="cls-8" x="62.39" y="160.58" width="20.32" height="6.76"/><rect class="cls-6" x="62.39" y="161.1" width="19.94" height="6.24"/><polygon class="cls-10" points="62.62 167.12 62.62 161.1 62.39 160.58 62.39 167.34 82.71 167.34 82.33 167.12 62.62 167.12"/><polygon class="cls-23" points="96.25 175.26 75.94 175.26 75.94 168.5 77.21 167.66 97.53 174.42 96.25 175.26"/><rect class="cls-8" x="77.21" y="167.66" width="20.32" height="6.76"/><rect class="cls-9" x="77.21" y="168.18" width="19.94" height="6.24"/><polygon class="cls-10" points="77.44 174.2 77.44 168.18 77.21 167.66 77.21 174.42 97.53 174.42 97.16 174.2 77.44 174.2"/><polygon class="cls-24" points="85.46 182.6 65.14 182.6 65.14 175.84 66.42 175.01 86.73 181.77 85.46 182.6"/><rect class="cls-8" x="66.42" y="175.01" width="20.32" height="6.76"/><rect class="cls-6" x="66.42" y="175.53" width="19.94" height="6.24"/><polygon class="cls-10" points="66.64 181.54 66.64 175.53 66.42 175.01 66.42 181.77 86.73 181.77 86.36 181.54 66.64 181.54"/><polygon class="cls-25" points="94.07 249.25 73.75 249.25 73.75 242.49 75.03 241.65 95.35 248.41 94.07 249.25"/><rect class="cls-8" x="75.03" y="241.65" width="20.32" height="6.76"/><rect class="cls-9" x="75.03" y="242.17" width="19.94" height="6.24"/><polygon class="cls-10" points="75.25 248.19 75.25 242.17 75.03 241.65 75.03 248.41 95.35 248.41 94.97 248.19 75.25 248.19"/><polygon class="cls-26" points="108.89 256.32 88.58 256.32 88.58 249.56 89.85 248.73 110.17 255.49 108.89 256.32"/><rect class="cls-8" x="89.85" y="248.73" width="20.32" height="6.76"/><rect class="cls-6" x="89.85" y="249.25" width="19.94" height="6.24"/><polygon class="cls-10" points="90.07 255.26 90.07 249.25 89.85 248.73 89.85 255.49 110.17 255.49 109.79 255.26 90.07 255.26"/><polygon class="cls-27" points="98.1 263.67 77.78 263.67 77.78 256.91 79.06 256.07 99.37 262.83 98.1 263.67"/><rect class="cls-8" x="79.06" y="256.07" width="20.32" height="6.76"/><rect class="cls-6" x="79.06" y="256.59" width="19.94" height="6.24"/><polygon class="cls-10" points="79.28 262.61 79.28 256.59 79.06 256.07 79.06 262.83 99.37 262.83 99 262.61 79.28 262.61"/><path class="cls-28" d="M275.58,178.42a59.88,59.88,0,0,0-40.81-56.78l-8.22-2.77a133.7,133.7,0,0,0-41.58-7l-2.49-3.74C167.25,121,154.39,142.24,141,146.76l.57-19.72C117.16,135.27,92,180.56,92,206.31v9h5.61V299.7H270V187.39h5.61Z"/><path class="cls-29" d="M310.7,231.58l20.66-16.13c0-9.65-14.63-30.42-24.28-30.42l-40.57,36.14c0,9.23,8.95,57.24,8.95,57.24l4.59,21.29H320l2.5-12.24h1.85v-9H310.7Z"/><rect class="cls-30" x="317.5" y="183.39" width="2.78" height="96.39"/><rect class="cls-31" x="317.5" y="224" width="2.78" height="55.78"/><polygon class="cls-32" points="335.46 275.98 302.56 275.98 302.56 286.06 304.61 286.06 307.39 299.69 330.62 299.69 333.4 286.06 335.46 286.06 335.46 275.98"/><rect class="cls-33" x="302.56" y="275.98" width="32.9" height="2.74"/><rect class="cls-34" x="302.56" y="284.67" width="32.9" height="1.37"/><polygon class="cls-34" points="304.61 286.06 307.39 299.69 330.62 299.69 308.43 298.88 305.98 286.04 304.61 286.06"/><circle class="cls-35" cx="318.89" cy="200.49" r="19.48"/><path class="cls-36" d="M338.36,197.94c0,9.35-8,16.93-17.9,16.93s-17.9-7.58-17.9-16.93,8-16.92,17.9-16.92S338.36,188.6,338.36,197.94Z"/><path class="cls-37" d="M333.11,196.18c-1.82,3.64-7.36,4.56-12.38,2s-7.62-7.49-5.8-11.13,7.36-4.56,12.38-2S334.93,192.54,333.11,196.18Z"/><path class="cls-38" d="M76.37,278.42H90v9.05H88.15L85.66,299.7H58.44V197.78L72.75,185C82.41,185,97,205.8,97,215.44L76.37,231.58Z"/><path class="cls-39" d="M287.14,178.42V299.69H114.74V178.42a54.24,54.24,0,0,1,37-51.46l8.24-2.78a127.59,127.59,0,0,1,39.69-6.7h2.48a127.7,127.7,0,0,1,39.78,6.7l8.23,2.78A54.25,54.25,0,0,1,287.14,178.42Z"/><rect class="cls-40" x="284.41" y="187.39" width="2.73" height="112.3"/><rect class="cls-40" x="121.82" y="187.39" width="2.73" height="77.46"/><path class="cls-41" d="M292.75,178.42v9H109.13v-9a59.9,59.9,0,0,1,40.8-56.79l8.24-2.76a133.42,133.42,0,0,1,41.44-7h2.53a133.7,133.7,0,0,1,41.58,7l8.22,2.77A59.88,59.88,0,0,1,292.75,178.42Z"/><path class="cls-42" d="M292.75,178.87v8.52H109.13v-8.52c0-24.48,16.4-46.18,40.8-54l8.24-2.62a139.51,139.51,0,0,1,41.44-6.65h2.53a139.8,139.8,0,0,1,41.58,6.65l8.22,2.64C276.35,132.69,292.75,154.39,292.75,178.87Z"/><path class="cls-43" d="M279.1,189.26l-2,1.55-151.76,7v-8.53c0-24.48,9.38-46.65,29.82-54.47l6.9-2.63c11.22-4.29,27.24-6,39.06-6.17l2.51-.38c11.91.12,21.51,1.68,34.44,5.34l10.36,3.44C268.68,143.32,279.1,153.79,279.1,189.26Z"/><path class="cls-44" d="M182.48,113.13l-5.13.82-14.26,19.52s16.75-5.35,27.9-5.76C192.94,115.07,182.48,113.13,182.48,113.13Z"/><path class="cls-45" d="M277.33,178.42V299.69H124.55V178.42a44.5,44.5,0,0,1,30.3-42.17l8.24-2.78a118.34,118.34,0,0,1,36.66-6.18h2.39a118.17,118.17,0,0,1,36.64,6.18l8.24,2.78A44.51,44.51,0,0,1,277.33,178.42Z"/><rect class="cls-46" x="121.82" y="264.85" width="55.65" height="34.84"/><rect class="cls-47" x="121.82" y="264.85" width="55.65" height="1.64"/><rect class="cls-47" x="126.42" y="291.71" width="46.45" height="1.64"/><rect class="cls-48" x="126.42" y="272.84" width="46.45" height="18.87"/><rect class="cls-49" x="126.42" y="275.43" width="43.6" height="16.28"/><polygon class="cls-48" points="167.75 289.86 129.54 289.86 129.54 277.28 130.54 275.98 168.75 288.56 167.75 289.86"/><rect class="cls-46" x="130.54" y="275.98" width="38.22" height="12.58"/><rect class="cls-50" x="130.54" y="275.98" width="0.96" height="12.58"/><polygon class="cls-47" points="168.75 276.85 131.49 276.85 130.54 275.98 168.75 275.98 168.75 276.85"/><rect class="cls-47" x="167.86" y="276.42" width="0.89" height="12.15"/><polygon class="cls-50" points="168.75 288.56 130.54 288.56 130.54 287.7 167.86 287.7 168.75 288.56"/><rect class="cls-46" x="224.53" y="264.85" width="55.65" height="34.84"/><rect class="cls-47" x="224.53" y="264.85" width="55.65" height="1.64"/><rect class="cls-47" x="229.12" y="291.71" width="46.45" height="1.64"/><rect class="cls-48" x="229.12" y="272.84" width="46.45" height="18.87"/><rect class="cls-49" x="229.12" y="275.43" width="43.6" height="16.28"/><polygon class="cls-48" points="270.46 289.86 232.24 289.86 232.24 277.28 233.24 275.98 271.46 288.56 270.46 289.86"/><rect class="cls-46" x="233.24" y="275.98" width="38.22" height="12.58"/><rect class="cls-50" x="233.24" y="275.98" width="0.96" height="12.58"/><polygon class="cls-47" points="271.46 276.85 234.2 276.85 233.24 275.98 271.46 275.98 271.46 276.85"/><rect class="cls-47" x="270.56" y="276.42" width="0.89" height="12.15"/><polygon class="cls-50" points="271.46 288.56 233.24 288.56 233.24 287.7 270.56 287.7 271.46 288.56"/><rect class="cls-51" x="224.41" y="190.81" width="38.53" height="74.04"/><rect class="cls-52" x="224.53" y="183.15" width="1.43" height="81.7"/><path class="cls-53" d="M277.33,178.42v4.73H124.55v-4.73a44.5,44.5,0,0,1,30.3-42.17l8.24-2.78a118.34,118.34,0,0,1,36.66-6.18h2.39a118.17,118.17,0,0,1,36.64,6.18l8.24,2.78A44.51,44.51,0,0,1,277.33,178.42Z"/><path class="cls-54" d="M178.28,183.15H223.6V129.48a118.35,118.35,0,0,0-21.46-2.19h-2.39a118.36,118.36,0,0,0-21.47,2.19Z"/><path class="cls-49" d="M178.28,183.15h43.47V129.48a109.06,109.06,0,0,0-20.58-2.19h-2.3a109.07,109.07,0,0,0-20.59,2.19Z"/><path class="cls-55" d="M190.09,147.2a2.1,2.1,0,0,0-1.9,1.41,8.93,8.93,0,0,0-.7,3.92q0,5.22,2.73,5.22a5,5,0,0,0,2.5-.76v2.49a5,5,0,0,1-2.82.73,4.41,4.41,0,0,1-3.9-2,10.08,10.08,0,0,1-1.37-5.68A10,10,0,0,1,186,146.8a4.45,4.45,0,0,1,3.9-2.05,5.49,5.49,0,0,1,1.58.23,6.31,6.31,0,0,1,1.62.79l-.93,2.27a8.44,8.44,0,0,0-1-.58A2.58,2.58,0,0,0,190.09,147.2Z"/><path class="cls-55" d="M204.1,145v9.73a6.12,6.12,0,0,1-1.22,4.1,4.38,4.38,0,0,1-3.51,1.41,4.18,4.18,0,0,1-3.41-1.4,6.36,6.36,0,0,1-1.17-4.15V145h2.77v9.89c0,1.92.64,2.87,1.91,2.87a1.52,1.52,0,0,0,1.36-.73,3.66,3.66,0,0,0,.49-2.07V145Z"/><path class="cls-55" d="M214.89,149.6a5.15,5.15,0,0,1-1.21,3.67,4.56,4.56,0,0,1-3.49,1.29h-.7V160h-2.8V145h3.81Q214.9,145,214.89,149.6Zm-5.4,2.53H210a1.92,1.92,0,0,0,1.53-.57,3.55,3.55,0,0,0,0-3.6,1.71,1.71,0,0,0-1.42-.57h-.68Z"/><path class="cls-55" d="M187.19,163a1.14,1.14,0,0,0-1,.76,4.9,4.9,0,0,0-.38,2.12c0,1.89.5,2.83,1.48,2.83a2.63,2.63,0,0,0,1.35-.41v1.35a2.7,2.7,0,0,1-1.52.4,2.42,2.42,0,0,1-2.12-1.1,5.48,5.48,0,0,1-.73-3.08,5.39,5.39,0,0,1,.76-3.09,2.41,2.41,0,0,1,2.11-1.11,2.76,2.76,0,0,1,.86.13,3.43,3.43,0,0,1,.87.42l-.5,1.24a4.66,4.66,0,0,0-.53-.32A1.44,1.44,0,0,0,187.19,163Z"/><path class="cls-55" d="M195.2,165.81a5.37,5.37,0,0,1-.76,3.11,2.71,2.71,0,0,1-4.34,0,6.74,6.74,0,0,1,0-6.22,2.72,2.72,0,0,1,4.35,0A5.4,5.4,0,0,1,195.2,165.81Zm-4.31,0a5.08,5.08,0,0,0,.35,2.12,1.11,1.11,0,0,0,1,.73c.92,0,1.37-.95,1.37-2.85s-.45-2.85-1.36-2.85a1.12,1.12,0,0,0-1,.73A5.08,5.08,0,0,0,190.89,165.81Z"/><path class="cls-55" d="M197.89,169.89h-1.51v-8.14H200v1.31h-2.14v2.26h2v1.31h-2Z"/><path class="cls-55" d="M202.56,169.89h-1.51v-8.14h3.65v1.31h-2.14v2.26h2v1.31h-2Z"/><path class="cls-55" d="M209.39,169.89h-3.67v-8.14h3.67v1.31h-2.16V165h2v1.31h-2v2.26h2.16Z"/><path class="cls-55" d="M214.25,169.89h-3.67v-8.14h3.67v1.31h-2.16V165h2v1.31h-2v2.26h2.16Z"/><path class="cls-56" d="M190.09,146.46a2.1,2.1,0,0,0-1.9,1.41,8.93,8.93,0,0,0-.7,3.92q0,5.24,2.73,5.23a5,5,0,0,0,2.5-.76v2.49a5.09,5.09,0,0,1-2.82.73,4.43,4.43,0,0,1-3.9-2,10.12,10.12,0,0,1-1.37-5.69,10,10,0,0,1,1.41-5.71,4.46,4.46,0,0,1,3.9-2,5.48,5.48,0,0,1,1.58.22,6.65,6.65,0,0,1,1.62.79l-.93,2.28a6.32,6.32,0,0,0-1-.58A2.46,2.46,0,0,0,190.09,146.46Z"/><path class="cls-56" d="M204.1,144.23V154a6.12,6.12,0,0,1-1.22,4.1,4.35,4.35,0,0,1-3.51,1.42,4.18,4.18,0,0,1-3.41-1.41,6.34,6.34,0,0,1-1.17-4.15v-9.69h2.77v9.9c0,1.91.64,2.87,1.91,2.87a1.55,1.55,0,0,0,1.36-.73,3.7,3.7,0,0,0,.49-2.08v-10Z"/><path class="cls-56" d="M214.89,148.86a5.2,5.2,0,0,1-1.21,3.68,4.59,4.59,0,0,1-3.49,1.28h-.7v5.45h-2.8v-15h3.81C213.43,144.23,214.89,145.78,214.89,148.86Zm-5.4,2.53H210a2,2,0,0,0,1.53-.56,3.57,3.57,0,0,0,0-3.61,1.71,1.71,0,0,0-1.42-.57h-.68Z"/><path class="cls-57" d="M187.19,162.22a1.15,1.15,0,0,0-1,.77,4.84,4.84,0,0,0-.38,2.12c0,1.88.5,2.83,1.48,2.83a2.73,2.73,0,0,0,1.35-.41v1.34a2.62,2.62,0,0,1-1.52.4,2.42,2.42,0,0,1-2.12-1.1,5.47,5.47,0,0,1-.73-3.07A5.35,5.35,0,0,1,185,162a2.41,2.41,0,0,1,2.11-1.11,3.08,3.08,0,0,1,.86.12,3.18,3.18,0,0,1,.87.43l-.5,1.23a3.5,3.5,0,0,0-.53-.31A1.32,1.32,0,0,0,187.19,162.22Z"/><path class="cls-57" d="M195.2,165.07a5.35,5.35,0,0,1-.76,3.11,2.47,2.47,0,0,1-2.17,1.09,2.5,2.5,0,0,1-2.17-1.08,5.5,5.5,0,0,1-.76-3.13,5.42,5.42,0,0,1,.76-3.1,2.74,2.74,0,0,1,4.35,0A5.42,5.42,0,0,1,195.2,165.07Zm-4.31,0a5.17,5.17,0,0,0,.35,2.13,1.13,1.13,0,0,0,1,.73c.92,0,1.37-1,1.37-2.86s-.45-2.85-1.36-2.85a1.13,1.13,0,0,0-1,.73A5.08,5.08,0,0,0,190.89,165.07Z"/><path class="cls-57" d="M197.89,169.16h-1.51V161H200v1.31h-2.14v2.26h2v1.31h-2Z"/><path class="cls-57" d="M202.56,169.16h-1.51V161h3.65v1.31h-2.14v2.26h2v1.31h-2Z"/><path class="cls-57" d="M209.39,169.16h-3.67V161h3.67v1.31h-2.16v1.94h2v1.32h-2v2.25h2.16Z"/><path class="cls-57" d="M214.25,169.16h-3.67V161h3.67v1.31h-2.16v1.94h2v1.32h-2v2.25h2.16Z"/><rect class="cls-46" x="124.55" y="175.54" width="152.51" height="7.61"/><rect class="cls-47" x="124.55" y="173.23" width="152.51" height="2.3"/><rect class="cls-58" x="124.55" y="181.49" width="152.51" height="1.65"/><path class="cls-59" d="M247,136.25l-8.24-2.78a117.88,117.88,0,0,0-36.64-6.18h-2.39a118,118,0,0,0-36.66,6.18l-8.24,2.78a44.39,44.39,0,0,0-20.52,14.39,43.66,43.66,0,0,1,6.23-2.65l8.24-2.78a117.71,117.71,0,0,1,23.88-5.35v33.37h5.6V139.34c2.39-.17,4.78-.29,7.17-.31h2.4a118,118,0,0,1,36.64,6.18l8.24,2.78A44.49,44.49,0,0,1,263,190.16V299.7h14.3V178.42A44.51,44.51,0,0,0,247,136.25Z"/><rect class="cls-49" x="177.35" y="183.15" width="47.17" height="116.54"/><path class="cls-60" d="M218.11,259.05H183.77V208.59a17.17,17.17,0,0,1,17.17-17.17h0a17.17,17.17,0,0,1,17.17,17.17Z"/><path class="cls-51" d="M215,210.78v48.27H183.76V210.78a14.85,14.85,0,0,1,14.64-15.05h2.08A14.85,14.85,0,0,1,215,210.78Z"/><rect class="cls-42" x="182.48" y="108.13" width="36.91" height="11.28"/><rect class="cls-30" x="82.69" y="183.39" width="2.78" height="96.39"/><rect class="cls-31" x="82.69" y="224" width="2.78" height="55.78"/><polygon class="cls-32" points="100.65 275.98 67.75 275.98 67.75 286.06 69.81 286.06 72.59 299.69 95.81 299.69 98.59 286.06 100.65 286.06 100.65 275.98"/><rect class="cls-33" x="67.75" y="275.98" width="32.9" height="2.74"/><rect class="cls-34" x="67.75" y="284.67" width="32.9" height="1.37"/><polygon class="cls-34" points="69.81 286.06 72.59 299.69 95.81 299.69 73.63 298.88 71.17 286.04 69.81 286.06"/><circle class="cls-35" cx="84.08" cy="200.49" r="19.48"/><path class="cls-36" d="M103.56,197.94c0,9.35-8,16.93-17.91,16.93s-17.9-7.58-17.9-16.93,8-16.92,17.9-16.92S103.56,188.6,103.56,197.94Z"/><path class="cls-37" d="M98.3,196.18c-1.82,3.64-7.36,4.56-12.38,2s-7.61-7.49-5.8-11.13,7.36-4.56,12.38-2S100.12,192.54,98.3,196.18Z"/><polygon class="cls-61" points="210.05 129.63 191.83 129.63 182.48 108.13 219.39 108.13 210.05 129.63"/><polygon class="cls-42" points="193.45 128.23 184.71 108.13 182.48 108.13 191.83 129.63 210.05 129.63 210.66 128.23 193.45 128.23"/><rect class="cls-51" x="129.03" y="190.81" width="45.46" height="74.04"/><rect class="cls-62" x="128.17" y="183.15" width="47.17" height="4.25"/><rect class="cls-47" x="183.64" y="259.05" width="34.34" height="1.45"/><rect class="cls-47" x="183.64" y="291.71" width="34.34" height="1.64"/><rect class="cls-48" x="183.64" y="263.06" width="34.34" height="28.65"/><rect class="cls-63" x="183.64" y="265.65" width="31.48" height="26.06"/><polygon class="cls-48" points="212.86 289.86 186.75 289.86 186.75 267.5 187.75 266.21 213.86 288.56 212.86 289.86"/><rect class="cls-49" x="187.75" y="266.21" width="26.1" height="22.36"/><rect class="cls-50" x="187.75" y="266.21" width="0.96" height="22.36"/><polygon class="cls-47" points="213.86 267.07 188.71 267.07 187.75 266.21 213.86 266.21 213.86 267.07"/><rect class="cls-47" x="212.96" y="266.64" width="0.89" height="21.93"/><polygon class="cls-50" points="213.86 288.56 187.75 288.56 187.75 287.7 212.96 287.7 213.86 288.56"/><polygon class="cls-64" points="174.49 190.81 174.49 212.57 145.09 264.86 129.03 264.86 129.03 223.28 147.28 190.81 174.49 190.81"/><polygon class="cls-64" points="166.11 264.86 174.49 249.95 174.49 264.86 166.11 264.86"/><path class="cls-64" d="M217.83,210.78v44.86l-1.92,3.41H186.57V225.49l16.72-29.76A14.85,14.85,0,0,1,217.83,210.78Z"/><polygon class="cls-64" points="251.45 190.81 224.41 238.93 224.41 190.81 251.45 190.81"/><polygon class="cls-64" points="262.94 218.59 262.94 264.86 236.94 264.86 262.94 218.59"/><rect class="cls-65" x="236.14" y="292.98" width="13.07" height="2.9"/><polygon class="cls-65" points="244.73 251.06 244.51 257.59 244.43 260.5 243.3 294.7 242.04 294.7 240.91 260.5 240.83 257.59 240.61 251.06 244.73 251.06"/><path class="cls-65" d="M233,300.66v-1.45c7.83,0,8.93-4,9-4.18l1.41.33C243.33,295.58,242.06,300.66,233,300.66Z"/><path class="cls-65" d="M252.35,300.66c-9.06,0-10.33-5.08-10.38-5.3l1.41-.33c0,.17,1.14,4.18,9,4.18Z"/><polygon class="cls-65" points="274.13 270.66 273.74 272.16 272.26 278.03 266.74 299.7 264.33 299.7 267.94 278.03 268.84 272.61 269.16 270.66 274.13 270.66"/><polygon class="cls-66" points="268.84 272.61 273.74 272.16 272.26 278.03 267.94 278.03 268.84 272.61"/><polygon class="cls-65" points="304.31 299.7 301.89 299.7 296.38 278.03 294.52 270.66 299.46 270.66 300.69 278.03 304.31 299.7"/><polygon class="cls-66" points="300.69 278.03 296.38 278.03 294.52 270.66 299.46 270.66 300.69 278.03"/><rect class="cls-67" x="221.99" y="251.06" width="41.37" height="6.53"/><rect class="cls-68" x="221.99" y="251.06" width="41.37" height="1.16"/><rect class="cls-69" x="221.99" y="256.43" width="41.37" height="1.16"/><rect class="cls-67" x="266.51" y="266.55" width="32.9" height="6.29"/><polygon class="cls-67" points="299.41 266.55 305.34 236.91 309.45 233.28 309.45 230.98 303.16 234.73 295.3 266.55 299.41 266.55"/><circle class="cls-70" cx="242.67" cy="295.2" r="2.96"/><rect class="cls-71" x="114.74" y="187.39" width="9.82" height="4.25"/><rect class="cls-71" x="277.32" y="187.39" width="9.82" height="4.25"/><polygon class="cls-72" points="244.51 257.59 244.43 260.5 240.91 260.5 240.83 257.59 244.51 257.59"/><rect class="cls-68" x="266.51" y="266.55" width="28.79" height="1.36"/><rect class="cls-73" x="266.51" y="271.47" width="32.9" height="1.36"/><path class="cls-74" d="M282.4,43.33A28.55,28.55,0,0,1,258.23,30a64,64,0,0,0-108.34,0,28.55,28.55,0,0,1-24.18,13.37H86.37A28.56,28.56,0,0,0,57.81,71.88h0a28.56,28.56,0,0,0,28.56,28.56H321.75A28.56,28.56,0,0,0,350.3,71.88h0a28.55,28.55,0,0,0-28.55-28.55Z"/><path class="cls-75" d="M276.18,47.39A24.23,24.23,0,0,1,255,35.25a58.54,58.54,0,0,0-101.94,0,24.24,24.24,0,0,1-21.15,12.14H87a24.49,24.49,0,0,0-24.49,24.5h0A24.49,24.49,0,0,0,87,96.38H321.1a24.5,24.5,0,0,0,24.49-24.49h0a24.5,24.5,0,0,0-24.49-24.5Z"/><g class="cls-76"><text class="cls-77" transform="translate(96.31 84.68)">ร้านค้า สาขา 2</text></g></g></g></svg>