<svg xmlns="http://www.w3.org/2000/svg" viewBox="0 0 620 263.26"><defs><style>.cls-1{isolation:isolate;}.cls-2{fill:#767a7f;}.cls-3{fill:#9a9a9a;}.cls-4{fill:#929292;}.cls-5{fill:#9d9d9d;}.cls-6{fill:#cbdbdc;}.cls-7{fill:#91a1a2;}.cls-8{fill:#2c535e;}.cls-9{fill:#daebec;}.cls-10{fill:#a1b1b2;}.cls-11{fill:#2c545e;}.cls-12{fill:#213f47;}.cls-13{fill:#dcdcdc;}.cls-14{fill:#bcbcbc;}.cls-15{fill:#b1c1c2;}.cls-16{fill:#e4f5f6;}.cls-17{fill:#4699a3;}.cls-18{fill:#a97c5e;}.cls-19{fill:#c9987d;}.cls-20{fill:#c8c8c8;}.cls-21{fill:#fff;}.cls-22{fill:#333;}.cls-23{fill:gray;}.cls-24{fill:#f7c743;}.cls-25{fill:#666;}.cls-26{fill:#4d4d4d;}.cls-27{fill:#1a1a1a;}.cls-28{fill:#9c9c9c;}.cls-29{fill:#404040;}.cls-30{fill:#959595;}.cls-31{fill:#292929;}.cls-32{fill:#33616e;}.cls-33{fill:#d3b676;}.cls-34{fill:#f8f3e6;}.cls-35{fill:#354546;}.cls-36{fill:#b19963;}.cls-37{mix-blend-mode:multiply;}.cls-38{fill:#807047;}.cls-39{fill:#a28b5b;}.cls-40{opacity:0.89;}.cls-41{font-size:35px;fill:#1d4259;font-family:Mitr-Regular, Mitr;}</style></defs><title>NEW-homepage ver4</title><g class="cls-1"><g id="Layer_1" data-name="Layer 1"><path class="cls-2" d="M594.73,226.85H18.78c-10.37,0-18.78-6-18.78-13.4H0c0-7.4,8.41-13.4,18.78-13.4h576c10.37,0,18.78,6,18.78,13.4h0C613.51,220.85,605.1,226.85,594.73,226.85Z"/><path class="cls-3" d="M544.93,244.05H77.14c-11.32,0-20.49-6.54-20.49-14.62h0c0-8.07,9.17-14.62,20.49-14.62H544.93c11.32,0,20.49,6.55,20.49,14.62h0C565.42,237.51,556.25,244.05,544.93,244.05Z"/><path class="cls-4" d="M86.79,263.26H47.37c-4.76,0-8.61-2.75-8.61-6.15h0c0-3.39,3.85-6.14,8.61-6.14H86.79c4.76,0,8.62,2.75,8.62,6.14h0C95.41,260.51,91.55,263.26,86.79,263.26Z"/><path class="cls-4" d="M611.38,250.2H583.24c-4.76,0-8.62-2.75-8.62-6.15h0c0-3.39,3.86-6.14,8.62-6.14h28.14c4.76,0,8.62,2.75,8.62,6.14h0C620,247.45,616.14,250.2,611.38,250.2Z"/><path class="cls-5" d="M451.28,263.26H357.49c-5.05,0-9.15-2.92-9.15-6.53h0c0-3.6,4.1-6.53,9.15-6.53h93.79c5.06,0,9.16,2.93,9.16,6.53h0C460.44,260.34,456.34,263.26,451.28,263.26Z"/><rect class="cls-6" x="244.82" y="41.4" width="311.08" height="161.75" rx="25.16"/><rect class="cls-7" x="252.17" y="42.59" width="303.73" height="15.89"/><rect class="cls-8" x="265.27" y="41.53" width="303.73" height="12.82" rx="6.41"/><path class="cls-9" d="M327.08,103.4V187a41.46,41.46,0,0,1-41.46,41.46H80.32A41.47,41.47,0,0,1,38.85,187V103.4A41.47,41.47,0,0,1,64.53,65.06L167.18,22.8a41.49,41.49,0,0,1,31.57,0L301.4,65.06A41.47,41.47,0,0,1,327.08,103.4Z"/><path class="cls-10" d="M327.08,79.92h0a6.4,6.4,0,0,1-8.86,5.91L185.42,30.56a6.38,6.38,0,0,0-5,0L47.79,87.76a6.4,6.4,0,0,1-8.94-5.88v-2a6.4,6.4,0,0,1,4-5.92L180.53,17.31a6.42,6.42,0,0,1,4.87,0L323.12,74A6.39,6.39,0,0,1,327.08,79.92Z"/><rect class="cls-11" x="83.18" y="101.83" width="199.58" height="126.66"/><rect class="cls-12" x="375.98" y="93.41" width="134.74" height="109.74"/><rect class="cls-13" x="79.89" y="101.83" width="206.13" height="33.63"/><rect class="cls-14" x="79.89" y="122.27" width="206.13" height="1.83"/><rect class="cls-14" x="79.89" y="112.67" width="206.13" height="1.83"/><rect class="cls-15" x="74.88" y="98.56" width="216.17" height="6.55" rx="3.28"/><rect class="cls-16" x="74.88" y="95.28" width="216.17" height="6.55" rx="3.28"/><rect class="cls-13" x="375.61" y="72.05" width="135.92" height="22.27"/><rect class="cls-14" x="375.61" y="92.49" width="135.92" height="1.83"/><rect class="cls-14" x="375.61" y="82.88" width="135.92" height="1.83"/><rect class="cls-15" x="372.31" y="68.78" width="142.54" height="6.55" rx="3.28"/><rect class="cls-9" x="372.31" y="65.5" width="142.54" height="6.55" rx="3.28"/><rect class="cls-12" x="226.25" y="174.02" width="9.59" height="9.59"/><rect class="cls-12" x="236.09" y="174.02" width="9.59" height="9.59"/><rect class="cls-12" x="245.94" y="174.02" width="9.59" height="9.59"/><rect class="cls-12" x="226.25" y="183.98" width="9.59" height="9.59"/><rect class="cls-12" x="236.09" y="183.98" width="9.59" height="9.59"/><rect class="cls-12" x="245.94" y="183.98" width="9.59" height="9.59"/><rect class="cls-12" x="226.25" y="154.1" width="9.59" height="9.59"/><rect class="cls-12" x="236.09" y="154.1" width="9.59" height="9.59"/><rect class="cls-12" x="245.94" y="154.1" width="9.59" height="9.59"/><rect class="cls-12" x="226.25" y="164.07" width="9.59" height="9.59"/><rect class="cls-12" x="236.09" y="164.07" width="9.59" height="9.59"/><rect class="cls-12" x="245.94" y="164.07" width="9.59" height="9.59"/><rect class="cls-12" x="226.25" y="194.54" width="9.59" height="9.59"/><rect class="cls-12" x="236.09" y="194.54" width="9.59" height="9.59"/><rect class="cls-12" x="245.94" y="194.54" width="9.59" height="9.59"/><rect class="cls-12" x="226.25" y="204.5" width="9.59" height="9.59"/><rect class="cls-12" x="236.09" y="204.5" width="9.59" height="9.59"/><rect class="cls-12" x="245.94" y="204.5" width="9.59" height="9.59"/><rect class="cls-12" x="87.52" y="169.44" width="14.21" height="12.3"/><rect class="cls-12" x="102.1" y="169.44" width="14.21" height="12.3"/><rect class="cls-12" x="116.69" y="169.44" width="14.21" height="12.3"/><rect class="cls-12" x="87.52" y="182.22" width="14.21" height="12.3"/><rect class="cls-12" x="102.1" y="182.22" width="14.21" height="12.3"/><rect class="cls-12" x="116.69" y="182.22" width="14.21" height="12.3"/><rect class="cls-12" x="87.52" y="143.88" width="14.21" height="12.3"/><rect class="cls-12" x="102.1" y="143.88" width="14.21" height="12.3"/><rect class="cls-12" x="116.69" y="143.88" width="14.21" height="12.3"/><rect class="cls-12" x="87.52" y="156.66" width="14.21" height="12.3"/><rect class="cls-12" x="102.1" y="156.66" width="14.21" height="12.3"/><rect class="cls-12" x="116.69" y="156.66" width="14.21" height="12.3"/><rect class="cls-12" x="87.52" y="195.77" width="14.21" height="12.3"/><rect class="cls-12" x="102.1" y="195.77" width="14.21" height="12.3"/><rect class="cls-12" x="116.69" y="195.77" width="14.21" height="12.3"/><rect class="cls-12" x="87.52" y="208.56" width="14.21" height="12.3"/><rect class="cls-12" x="102.1" y="208.56" width="14.21" height="12.3"/><rect class="cls-12" x="116.69" y="208.56" width="14.21" height="12.3"/><rect class="cls-17" x="115.65" y="65.81" width="129.16" height="24.03" rx="12.02"/><rect class="cls-9" x="149.98" y="58.48" width="5.9" height="31.36"/><rect class="cls-9" x="203.04" y="58.48" width="5.9" height="31.36"/><rect class="cls-18" x="25.75" y="241.34" width="4.22" height="10.01"/><rect class="cls-18" x="47.17" y="241.34" width="4.21" height="10.01"/><rect class="cls-18" x="68.59" y="241.34" width="4.21" height="10.01"/><rect class="cls-18" x="90.02" y="241.34" width="4.21" height="10.01"/><rect class="cls-18" x="111.44" y="241.34" width="4.21" height="10.01"/><rect class="cls-19" x="21.98" y="239.49" width="97.45" height="3.7"/><rect class="cls-19" x="21.98" y="249.49" width="97.45" height="3.7"/><rect class="cls-18" x="333.98" y="210.4" width="2.46" height="5.85"/><rect class="cls-18" x="346.49" y="210.4" width="2.46" height="5.85"/><rect class="cls-18" x="359" y="210.4" width="2.46" height="5.85"/><rect class="cls-18" x="371.51" y="210.4" width="2.46" height="5.85"/><rect class="cls-18" x="384.03" y="210.4" width="2.46" height="5.85"/><rect class="cls-19" x="331.77" y="209.32" width="56.92" height="2.16"/><rect class="cls-19" x="331.77" y="215.17" width="56.92" height="2.16"/><path class="cls-20" d="M398.29,125H488.5a2.59,2.59,0,0,1,2.59,2.59v79.12a2.6,2.6,0,0,1-2.6,2.6H398.29a2.59,2.59,0,0,1-2.59-2.59V127.62a2.59,2.59,0,0,1,2.59-2.59Z"/><path class="cls-21" d="M477,129.75h-.06L475,119.28a3.93,3.93,0,0,0-3.93-3.93H415.78a3.93,3.93,0,0,0-3.93,3.93L410,129.75h-.06a3.93,3.93,0,0,0-3.93,3.93v41.9a3.93,3.93,0,0,0,3.93,3.93H477a3.93,3.93,0,0,0,3.93-3.93v-41.9A3.93,3.93,0,0,0,477,129.75Z"/><rect class="cls-22" x="408.74" y="136.96" width="69.4" height="23.9" rx="3.93"/><path class="cls-23" d="M457.11,118.05a1.39,1.39,0,0,1-1.39,1.39H431.17a1.4,1.4,0,0,1-1.4-1.39h0a1.4,1.4,0,0,1,1.4-1.39h24.55a1.39,1.39,0,0,1,1.39,1.39Z"/><path class="cls-24" d="M426.61,133.6a1.55,1.55,0,0,1-1.55,1.55h-6a1.54,1.54,0,0,1-1.55-1.55h0a1.54,1.54,0,0,1,1.55-1.55h6a1.55,1.55,0,0,1,1.55,1.55Z"/><path class="cls-24" d="M448,133.6a1.54,1.54,0,0,1-1.55,1.55h-6a1.54,1.54,0,0,1-1.55-1.55h0a1.54,1.54,0,0,1,1.55-1.55h6A1.54,1.54,0,0,1,448,133.6Z"/><path class="cls-24" d="M469.38,133.6a1.55,1.55,0,0,1-1.56,1.55h-6a1.55,1.55,0,0,1-1.56-1.55h0a1.55,1.55,0,0,1,1.56-1.55h6a1.55,1.55,0,0,1,1.56,1.55Z"/><path class="cls-25" d="M414.44,158.86a3,3,0,0,1-3,3h0a3,3,0,0,1-3-3v-15a3,3,0,0,1,3-3h0a3,3,0,0,1,3,3Z"/><path class="cls-25" d="M477.82,158.86a3,3,0,0,1-3,3h0a3,3,0,0,1-3-3v-15a3,3,0,0,1,3-3h0a3,3,0,0,1,3,3Z"/><path class="cls-26" d="M459.93,172.51a10.66,10.66,0,1,1,10.47-10.66A10.58,10.58,0,0,1,459.93,172.51Zm0-19.35a8.7,8.7,0,1,0,8.51,8.69A8.61,8.61,0,0,0,459.93,153.16Z"/><path class="cls-21" d="M482.75,178.73l-.15,0-.16-.08a4.09,4.09,0,0,0,.14-1V161.5a3.93,3.93,0,0,0-3.93-3.93H408.23a3.93,3.93,0,0,0-3.93,3.93v16.12a3.5,3.5,0,0,0,.09.8,4.21,4.21,0,0,0-.64.31c-3.38.7-6,6.12-6,12.73a22.26,22.26,0,0,0,.18,2.88,15.87,15.87,0,0,0,.31,1.91,3.92,3.92,0,0,0,3.55,2.24h82.93a3.92,3.92,0,0,0,3.56-2.24l.15-.79a2.7,2.7,0,0,0,.06-.41c0-.23.07-.47.1-.71a22.26,22.26,0,0,0,.18-2.88C488.76,184.85,486.13,179.43,482.75,178.73Z"/><path class="cls-27" d="M404,216.82h6.55a3.92,3.92,0,0,1,3.92,3.92v11.13a3.92,3.92,0,0,1-3.92,3.92H404a3.93,3.93,0,0,1-3.93-3.93V220.75a3.93,3.93,0,0,1,3.93-3.93Z"/><rect class="cls-27" x="472.05" y="216.82" width="14.4" height="18.98" rx="3.93"/><path class="cls-26" d="M454.73,193.09a1.63,1.63,0,0,1-1.64,1.64h-19.3a1.63,1.63,0,0,1-1.64-1.64h0a1.63,1.63,0,0,1,1.64-1.63h19.3a1.63,1.63,0,0,1,1.64,1.63Z"/><path class="cls-28" d="M463.15,179.28a3.09,3.09,0,0,1-3.09,3.09H426.82a3.09,3.09,0,0,1-3.09-3.09l-2-11.08a3.09,3.09,0,0,1,3.1-3.09H462a3.09,3.09,0,0,1,3.09,3.09Z"/><path class="cls-20" d="M426.39,193.12a2.27,2.27,0,0,1-2.18,1.61H404.66a2.27,2.27,0,0,1-2.21-1.76,9.19,9.19,0,0,1,9.15-8.19C415.22,184.78,425.41,187.64,426.39,193.12Z"/><path class="cls-20" d="M426.49,194a2.29,2.29,0,0,1-2.28,2.28H404.66a2.28,2.28,0,0,1-2.27-2.28,8.39,8.39,0,0,1,.06-1,9.19,9.19,0,0,1,9.15-8.19c3.62,0,13.81,2.86,14.79,8.34,0,.14.05.28.06.42A3,3,0,0,1,426.49,194Z"/><path class="cls-20" d="M461.41,193.12a2.27,2.27,0,0,0,2.18,1.61h19.56a2.26,2.26,0,0,0,2.2-1.76,9.19,9.19,0,0,0-9.15-8.19C472.59,184.78,462.39,187.64,461.41,193.12Z"/><path class="cls-20" d="M461.32,194a2.28,2.28,0,0,0,2.27,2.28h19.56a2.28,2.28,0,0,0,2.26-2.28,8.39,8.39,0,0,0-.06-1,9.19,9.19,0,0,0-9.15-8.19c-3.61,0-13.81,2.86-14.79,8.34l-.06.42A3,3,0,0,0,461.32,194Z"/><rect class="cls-22" x="396.96" y="198.21" width="92.96" height="25.16" rx="3.93"/><path class="cls-23" d="M488.28,210.45v1.29a3.92,3.92,0,0,1-3.93,3.93H402.53a3.93,3.93,0,0,1-3.93-3.93v-1.29a3.93,3.93,0,0,1,3.93-3.93h81.82A3.92,3.92,0,0,1,488.28,210.45Z"/><rect class="cls-29" x="389.24" y="150.21" width="10.8" height="10.8" rx="3.93"/><path class="cls-29" d="M409.17,169a1,1,0,0,1-.93-.67L405.11,159a1.12,1.12,0,0,1-.05-.31,2.13,2.13,0,0,0-2.13-2.13H396.6a1,1,0,0,1,0-2h6.33a4.1,4.1,0,0,1,4.09,3.93l3.08,9.17a1,1,0,0,1-.62,1.25A1.12,1.12,0,0,1,409.17,169Z"/><rect class="cls-29" x="486.75" y="150.21" width="10.8" height="10.8" rx="3.93"/><path class="cls-29" d="M477.61,169a1.12,1.12,0,0,1-.31-.05,1,1,0,0,1-.62-1.25l3.08-9.17a4.11,4.11,0,0,1,4.1-3.93h6.32a1,1,0,1,1,0,2h-6.32a2.13,2.13,0,0,0-2.14,2.13.84.84,0,0,1-.05.31l-3.12,9.32A1,1,0,0,1,477.61,169Z"/><path class="cls-30" d="M414.49,210.79a2.54,2.54,0,1,1-2.54-2.53A2.54,2.54,0,0,1,414.49,210.79Z"/><path class="cls-25" d="M412,214.31a3.52,3.52,0,1,1,3.52-3.52A3.53,3.53,0,0,1,412,214.31Z"/><path class="cls-30" d="M477.47,210.79a2.54,2.54,0,1,1-2.54-2.53A2.54,2.54,0,0,1,477.47,210.79Z"/><path class="cls-25" d="M474.93,214.31a3.52,3.52,0,1,1,3.52-3.52A3.53,3.53,0,0,1,474.93,214.31Z"/><path class="cls-31" d="M468.6,206.52H418.26a3.89,3.89,0,0,0,0,.49c0,2.1,3.68,3.79,5.76,3.79h11.1a1.84,1.84,0,0,0-.08.53,1.86,1.86,0,0,0,1.86,1.86H450a1.86,1.86,0,0,0,1.86-1.86,1.84,1.84,0,0,0-.09-.53h11.13c2.08,0,5.73-1.69,5.73-3.79A2,2,0,0,0,468.6,206.52Z"/><path class="cls-32" d="M25.09,82.62h0a7.85,7.85,0,0,1,4.1-10.32L179.75,7.37a7.86,7.86,0,0,1,6.13,0L336.7,70.1a7.86,7.86,0,0,1,4.24,10.28h0a7.86,7.86,0,0,1-10.28,4.24L186,24.4a7.9,7.9,0,0,0-6.13,0L35.42,86.73A7.87,7.87,0,0,1,25.09,82.62Z"/><rect class="cls-15" x="465.52" y="30.43" width="6.02" height="10.96"/><rect class="cls-15" x="310.49" y="30.43" width="6.02" height="10.96"/><rect class="cls-15" x="388.01" y="30.43" width="6.02" height="10.96"/><rect class="cls-15" x="543.03" y="30.43" width="6.02" height="10.96"/><rect class="cls-6" x="295.45" y="0.3" width="268.66" height="34.06" rx="17.03"/><rect class="cls-33" x="338.04" y="182.51" width="43.04" height="26.52"/><rect class="cls-34" x="339.94" y="198.86" width="18.48" height="8.32"/><rect class="cls-35" x="340.94" y="199.48" width="1.09" height="7.08"/><rect class="cls-35" x="342.7" y="199.48" width="0.37" height="7.08"/><rect class="cls-35" x="354.68" y="199.48" width="0.37" height="7.08"/><rect class="cls-35" x="344.46" y="199.48" width="1.09" height="7.08"/><rect class="cls-35" x="346.21" y="199.48" width="0.54" height="7.08"/><rect class="cls-35" x="343.53" y="199.48" width="0.54" height="7.08"/><rect class="cls-35" x="347.24" y="199.48" width="1.83" height="7.08"/><rect class="cls-35" x="353.22" y="199.48" width="1.1" height="7.08"/><rect class="cls-35" x="350.72" y="199.48" width="1.09" height="7.08"/><rect class="cls-35" x="349.73" y="199.48" width="0.55" height="7.08"/><rect class="cls-35" x="352.17" y="199.48" width="0.55" height="7.08"/><rect class="cls-35" x="355.31" y="199.48" width="1.8" height="7.08"/><rect class="cls-36" x="359.56" y="182.51" width="1.34" height="26.52"/><rect class="cls-36" x="338.04" y="182.51" width="43.04" height="6.08"/><rect class="cls-36" x="365.6" y="200.75" width="1.14" height="4.59"/><polygon class="cls-36" points="364.46 201.25 366.17 198.28 367.88 201.25 364.46 201.25"/><rect class="cls-36" x="369.38" y="200.75" width="1.14" height="4.59"/><polygon class="cls-36" points="368.24 201.25 369.95 198.28 371.67 201.25 368.24 201.25"/><rect class="cls-36" x="364.46" y="205.84" width="7.21" height="0.72"/><g class="cls-37"><rect class="cls-36" x="345" y="182.51" width="4.73" height="11.67"/></g><g class="cls-37"><rect class="cls-36" x="368.51" y="182.51" width="4.73" height="11.67"/></g><path class="cls-12" d="M219.53,195.58H200.87v24.95h-1.33v-17.4a.73.73,0,0,0-.73-.73h-.72a.65.65,0,0,0-.31.08v-11a1.07,1.07,0,0,0-1.06-1.05h-4a1.06,1.06,0,0,0-1,1.05v15h-.88l-4.68-18.45a2,2,0,0,0-2.07-1.82H168.19a2,2,0,0,0-2.08,2v12.92l-.1,0H149.13a1,1,0,0,0-1,1v1.83a1,1,0,0,0,1,1h1.37a3.49,3.49,0,0,0-.11.86v13.41a3.61,3.61,0,0,0,3.61,3.61h.8c0,.07,0,.13,0,.2a5.31,5.31,0,0,0,10,2.43,1.47,1.47,0,0,0,1,1.23,1.55,1.55,0,0,0,.47.08,1.45,1.45,0,0,0,1.2-.64,3,3,0,0,0,.43,0h13.69a3.56,3.56,0,0,0,1.52-.34,1.44,1.44,0,0,0,1.83.87,1.46,1.46,0,0,0,1-1.38,5.3,5.3,0,1,0,8.94-5.57,1.48,1.48,0,0,0,1.55-.34,1.44,1.44,0,0,0,.14-1.86h.15a1,1,0,0,0,.64-.23v4.38a.71.71,0,0,0,.25.54,1,1,0,0,0,.73.35H216.4a1,1,0,0,0,1-1v0a1,1,0,0,0-.08-.39h6.38V195.58Zm-51.34-7.37H184c.07,0,.1,0,.11,0a.85.85,0,0,0,0,.23l4.59,18.11a2.05,2.05,0,0,0-.41.16l-2.48-5.52a.76.76,0,0,0,.27-.93L186,200a.76.76,0,0,0-1-.38l-3.75,1.68a.77.77,0,0,0-.39,1l.11.23a.77.77,0,0,0,1,.39l3-1.34,2.6,5.8a1.77,1.77,0,0,0-.24.89v4.86a1.77,1.77,0,0,0,.2.82H183a3.05,3.05,0,0,0,.63-1.84v-.76a3,3,0,0,0-2.79-3,2,2,0,0,0-1.37-3.37h-4.4a2,2,0,0,0-.84.19l-2.45-5.32a1.17,1.17,0,0,0-2.13,1l2.51,5.44a1.15,1.15,0,0,0,1,.65s0,0,0,0a1.94,1.94,0,0,0,.57,1.37h-3.28a3.05,3.05,0,0,0-2.35,1.14V188.26A.15.15,0,0,1,168.19,188.21Z"/><rect class="cls-38" x="239.84" y="171.38" width="12.72" height="12.72"/><rect class="cls-38" x="252.89" y="171.38" width="12.72" height="12.72"/><rect class="cls-38" x="265.94" y="171.38" width="12.72" height="12.72"/><rect class="cls-38" x="239.84" y="184.59" width="12.72" height="12.72"/><rect class="cls-38" x="252.89" y="184.59" width="12.72" height="12.72"/><rect class="cls-38" x="265.94" y="184.59" width="12.72" height="12.72"/><rect class="cls-38" x="239.84" y="144.97" width="12.72" height="12.72"/><rect class="cls-38" x="252.89" y="144.97" width="12.72" height="12.72"/><rect class="cls-38" x="265.94" y="144.97" width="12.72" height="12.72"/><rect class="cls-38" x="239.84" y="158.18" width="12.72" height="12.72"/><rect class="cls-38" x="252.89" y="158.18" width="12.72" height="12.72"/><rect class="cls-38" x="265.94" y="158.18" width="12.72" height="12.72"/><rect class="cls-38" x="239.84" y="198.6" width="12.72" height="12.72"/><rect class="cls-38" x="252.89" y="198.6" width="12.72" height="12.72"/><rect class="cls-38" x="265.94" y="198.6" width="12.72" height="12.72"/><rect class="cls-38" x="239.84" y="211.81" width="12.72" height="12.72"/><rect class="cls-38" x="252.89" y="211.81" width="12.72" height="12.72"/><rect class="cls-38" x="265.94" y="211.81" width="12.72" height="12.72"/><rect class="cls-18" x="228.99" y="220.94" width="2.69" height="6.38"/><rect class="cls-18" x="242.64" y="220.94" width="2.68" height="6.38"/><rect class="cls-18" x="256.3" y="220.94" width="2.69" height="6.38"/><rect class="cls-18" x="269.95" y="220.94" width="2.69" height="6.38"/><rect class="cls-18" x="283.61" y="220.94" width="2.69" height="6.38"/><rect class="cls-33" x="232.18" y="185.07" width="17.01" height="17.01"/><rect class="cls-33" x="249.64" y="185.07" width="17.01" height="17.01"/><rect class="cls-33" x="267.1" y="185.07" width="17.01" height="17.01"/><rect class="cls-33" x="232.18" y="202.75" width="17.01" height="17.01"/><rect class="cls-33" x="249.64" y="202.75" width="17.01" height="17.01"/><rect class="cls-33" x="267.1" y="202.75" width="17.01" height="17.01"/><rect class="cls-19" x="226.58" y="219.76" width="62.12" height="2.36"/><rect class="cls-19" x="226.58" y="226.14" width="62.12" height="2.36"/><rect class="cls-39" x="89.69" y="193.9" width="17.01" height="17.01"/><rect class="cls-39" x="107.15" y="193.9" width="17.01" height="17.01"/><rect class="cls-39" x="124.61" y="193.9" width="17.01" height="17.01"/><rect class="cls-39" x="89.69" y="211.58" width="17.01" height="17.01"/><rect class="cls-39" x="107.15" y="211.58" width="17.01" height="17.01"/><rect class="cls-39" x="124.61" y="211.58" width="17.01" height="17.01"/><rect class="cls-39" x="89.69" y="158.57" width="17.01" height="17.01"/><rect class="cls-39" x="107.15" y="158.57" width="17.01" height="17.01"/><rect class="cls-39" x="124.61" y="158.57" width="17.01" height="17.01"/><rect class="cls-39" x="89.69" y="176.24" width="17.01" height="17.01"/><rect class="cls-39" x="107.15" y="176.24" width="17.01" height="17.01"/><rect class="cls-39" x="124.61" y="176.24" width="17.01" height="17.01"/><rect class="cls-33" x="31.43" y="209.78" width="26.15" height="29.28"/><rect class="cls-34" x="32.59" y="232.88" width="11.23" height="5.05"/><rect class="cls-35" x="33.42" y="233.26" width="9.6" height="4.3"/><rect class="cls-36" x="44.51" y="209.78" width="0.82" height="29.28"/><rect class="cls-36" x="31.43" y="209.78" width="26.15" height="3.7"/><g class="cls-37"><rect class="cls-36" x="35.66" y="209.78" width="2.87" height="7.09"/></g><g class="cls-37"><rect class="cls-36" x="49.94" y="209.78" width="2.87" height="7.09"/></g><rect class="cls-33" x="60.6" y="209.78" width="26.15" height="29.28"/><rect class="cls-34" x="61.76" y="232.88" width="11.23" height="5.05"/><rect class="cls-35" x="62.6" y="233.26" width="9.6" height="4.3"/><rect class="cls-36" x="73.68" y="209.78" width="0.82" height="29.28"/><rect class="cls-36" x="60.6" y="209.78" width="26.15" height="3.7"/><g class="cls-37"><rect class="cls-36" x="64.83" y="209.78" width="2.87" height="7.09"/></g><g class="cls-37"><rect class="cls-36" x="79.11" y="209.78" width="2.87" height="7.09"/></g><rect class="cls-33" x="89.27" y="209.78" width="26.15" height="29.28"/><rect class="cls-34" x="90.42" y="232.88" width="11.23" height="5.05"/><rect class="cls-35" x="91.26" y="233.26" width="9.6" height="4.3"/><rect class="cls-36" x="102.34" y="209.78" width="0.82" height="29.28"/><rect class="cls-36" x="89.27" y="209.78" width="26.15" height="3.7"/><g class="cls-37"><rect class="cls-36" x="93.5" y="209.78" width="2.87" height="7.09"/></g><g class="cls-37"><rect class="cls-36" x="107.77" y="209.78" width="2.87" height="7.09"/></g><rect class="cls-33" x="31.43" y="180.1" width="26.15" height="29.28"/><rect class="cls-34" x="32.59" y="203.2" width="11.23" height="5.05"/><rect class="cls-35" x="33.42" y="203.57" width="9.6" height="4.3"/><rect class="cls-36" x="44.51" y="180.1" width="0.82" height="29.28"/><rect class="cls-36" x="31.43" y="180.1" width="26.15" height="3.7"/><g class="cls-37"><rect class="cls-36" x="35.66" y="180.1" width="2.87" height="7.09"/></g><g class="cls-37"><rect class="cls-36" x="49.94" y="180.1" width="2.87" height="7.09"/></g><rect class="cls-33" x="60.6" y="180.1" width="26.15" height="29.28"/><rect class="cls-34" x="61.76" y="203.2" width="11.23" height="5.05"/><rect class="cls-35" x="62.6" y="203.57" width="9.6" height="4.3"/><rect class="cls-36" x="73.68" y="180.1" width="0.82" height="29.28"/><rect class="cls-36" x="60.6" y="180.1" width="26.15" height="3.7"/><g class="cls-37"><rect class="cls-36" x="64.83" y="180.1" width="2.87" height="7.09"/></g><g class="cls-37"><rect class="cls-36" x="79.11" y="180.1" width="2.87" height="7.09"/></g><rect class="cls-33" x="89.27" y="180.1" width="26.15" height="29.28"/><rect class="cls-34" x="90.42" y="203.2" width="11.23" height="5.05"/><rect class="cls-35" x="91.26" y="203.57" width="9.6" height="4.3"/><rect class="cls-36" x="102.34" y="180.1" width="0.82" height="29.28"/><rect class="cls-36" x="89.27" y="180.1" width="26.15" height="3.7"/><g class="cls-37"><rect class="cls-36" x="93.5" y="180.1" width="2.87" height="7.09"/></g><g class="cls-37"><rect class="cls-36" x="107.77" y="180.1" width="2.87" height="7.09"/></g><g class="cls-40"><text class="cls-41" transform="translate(392.78 29.99)">โกดัง</text></g></g></g></svg>