<svg id="Layer_1" data-name="Layer 1" xmlns="http://www.w3.org/2000/svg" viewBox="0 0 402.87 306.68"><defs><style>.cls-1{fill:#767a7f;}.cls-2{fill:#9a9a9a;}.cls-3{fill:#929292;}.cls-4{fill:#9d9d9d;}.cls-5{fill:#0f222c;}.cls-6{fill:#e8bf7c;}.cls-7{fill:#d0a569;}.cls-8{fill:#ab7a45;}.cls-9{fill:#d0a56b;}.cls-10{fill:#986e3e;}.cls-11{fill:#a87944;}.cls-12,.cls-20{fill:#1d4259;}.cls-13{fill:#ff524f;}.cls-14{fill:#59595c;}.cls-15{fill:#f2f2f2;}.cls-16{fill:#ce3836;}.cls-17{fill:#222846;}.cls-18{fill:#1b3241;}.cls-19{opacity:0.89;}.cls-20{font-size:35px;font-family:Mitr-Regular, Mitr;}</style></defs><title>NEW-homepage ver4</title><path class="cls-1" d="M378.69,229.77H41.05a11,11,0,0,1-11-11h0a11,11,0,0,1,11-11H378.69a11,11,0,0,1,11,11h0A11,11,0,0,1,378.69,229.77Z"/><path class="cls-2" d="M349.5,243.9H75.26a12,12,0,0,1-12-12h0a12,12,0,0,1,12-12H349.5a12,12,0,0,1,12,12h0A12,12,0,0,1,349.5,243.9Z"/><path class="cls-3" d="M80.92,259.68H57.81a5,5,0,0,1-5.05-5.05h0a5,5,0,0,1,5.05-5H80.92a5,5,0,0,1,5,5h0A5,5,0,0,1,80.92,259.68Z"/><path class="cls-3" d="M388.46,249H372a5,5,0,0,1-5-5h0a5,5,0,0,1,5-5.05h16.5a5,5,0,0,1,5.05,5.05h0A5,5,0,0,1,388.46,249Z"/><path class="cls-4" d="M294.6,259.68h-55a5.36,5.36,0,0,1-5.37-5.36h0a5.36,5.36,0,0,1,5.37-5.37h55a5.37,5.37,0,0,1,5.37,5.37h0A5.37,5.37,0,0,1,294.6,259.68Z"/><path class="cls-5" d="M335.64,160a28.91,28.91,0,1,0,0,57.82h8V160Z"/><path class="cls-5" d="M184.73,160a28.91,28.91,0,1,0,0,57.82h8V160Z"/><path class="cls-5" d="M335.64,160a28.91,28.91,0,1,0,0,57.82h8V160Z"/><path class="cls-5" d="M309.86,183.5A28.91,28.91,0,1,0,281,212.4,28.9,28.9,0,0,0,309.86,183.5Z"/><path class="cls-5" d="M118.61,154.59a28.91,28.91,0,1,0,0,57.81h8V154.59Z"/><path class="cls-5" d="M155.53,183.5a28.91,28.91,0,1,0-28.9,28.9A28.9,28.9,0,0,0,155.53,183.5Z"/><rect class="cls-6" x="44.48" width="148.26" height="51.21"/><rect class="cls-6" x="133.44" y="51.07" width="118.61" height="118.61"/><rect class="cls-7" x="183.63" y="51.07" width="18.22" height="118.61" transform="translate(303.12 -82.37) rotate(90)"/><rect class="cls-8" x="180.37" y="101.27" width="24.75" height="18.22"/><rect class="cls-7" x="183.63" y="51.07" width="18.22" height="118.61"/><rect class="cls-9" x="44.48" y="51.07" width="88.96" height="118.61"/><rect class="cls-8" x="79.85" y="65.9" width="18.22" height="88.96" transform="translate(199.33 21.42) rotate(90)"/><rect class="cls-10" x="76.95" y="101.27" width="24.75" height="18.22"/><polygon class="cls-11" points="133.44 51.21 44.48 51.21 0 6.99 88.96 6.99 133.44 51.21"/><rect class="cls-8" x="80.21" y="51.07" width="18.22" height="118.61" transform="translate(178.64 220.75) rotate(-180)"/><polygon class="cls-10" points="98.43 51.07 80.21 51.07 36.13 6.99 54.35 6.99 98.43 51.07"/><polygon class="cls-9" points="133.44 51.07 252.05 51.07 296.53 6.59 177.92 6.59 133.44 51.07"/><polygon class="cls-8" points="183.63 51.07 201.85 51.07 246.33 6.59 228.11 6.59 183.63 51.07"/><path class="cls-12" d="M133.44,169.68H398.67a4.2,4.2,0,0,1,4.2,4.2V184.7a4.2,4.2,0,0,1-4.2,4.2H133.44a0,0,0,0,1,0,0V169.68A0,0,0,0,1,133.44,169.68Z"/><path class="cls-13" d="M397.16,169.68H252.05V51.07h72.72a42.75,42.75,0,0,1,35.41,18.81l29.66,43.9a42.78,42.78,0,0,1,7.32,23.93Z"/><path class="cls-14" d="M286.88,121.25V64.42h37.89a29.33,29.33,0,0,1,24.34,12.93l29.67,43.9Z"/><path class="cls-15" d="M286.46,121.25V69.73h34.35a26.62,26.62,0,0,1,22.08,11.72l26.89,39.8Z"/><rect class="cls-16" x="252.05" y="51.07" width="17.47" height="118.61"/><path class="cls-5" d="M194.08,154.59a34.3,34.3,0,0,0-34.3,34.3h68.6A34.3,34.3,0,0,0,194.08,154.59Z"/><path class="cls-5" d="M345,154.59a34.3,34.3,0,0,0-34.3,34.3h68.6A34.3,34.3,0,0,0,345,154.59Z"/><path class="cls-17" d="M221.65,188.89a28.91,28.91,0,1,0-28.91,28.91A28.91,28.91,0,0,0,221.65,188.89Z"/><circle class="cls-15" cx="192.74" cy="188.89" r="14.22" transform="translate(-27.69 33.2) rotate(-9.19)"/><circle class="cls-17" cx="343.65" cy="188.89" r="28.91"/><circle class="cls-15" cx="343.65" cy="188.89" r="14.22" transform="translate(-25.75 57.29) rotate(-9.19)"/><rect class="cls-16" x="121.05" y="148.69" width="12.39" height="11.79"/><rect class="cls-13" x="133.44" y="148.69" width="12.39" height="11.79"/><rect class="cls-16" x="44.48" y="148.69" width="12.39" height="11.79"/><path class="cls-16" d="M289.54,126h13.32a2.66,2.66,0,0,1,2.66,2.66v3.55a0,0,0,0,1,0,0H286.88a0,0,0,0,1,0,0v-3.55A2.66,2.66,0,0,1,289.54,126Z" transform="translate(592.4 258.24) rotate(-180)"/><path class="cls-17" d="M289.54,126h13.32a2.66,2.66,0,0,1,2.66,2.66v2a0,0,0,0,1,0,0H286.88a0,0,0,0,1,0,0v-2A2.67,2.67,0,0,1,289.54,126Z" transform="translate(592.4 256.7) rotate(-180)"/><path class="cls-15" d="M385.9,154.59a11.26,11.26,0,0,1,11.26-11.26v22.52A11.26,11.26,0,0,1,385.9,154.59Z"/><rect class="cls-18" x="38.77" y="169.68" width="100.37" height="19.21" rx="5.71"/><path class="cls-15" d="M123.16,179.29a4.09,4.09,0,1,1,4.08,4.08A4.09,4.09,0,0,1,123.16,179.29Z"/><path class="cls-15" d="M116.13,179.29a2,2,0,1,1,2,2A2,2,0,0,1,116.13,179.29Z"/><path class="cls-15" d="M54.76,179.29a4.09,4.09,0,1,1-4.09-4.09A4.09,4.09,0,0,1,54.76,179.29Z"/><path class="cls-15" d="M61.79,179.29a2,2,0,1,1-2-2A2.05,2.05,0,0,1,61.79,179.29Z"/><g class="cls-19"><text class="cls-20" transform="translate(120.24 286.63)">การขนส่ง</text></g></svg>