<svg id="Layer_1" data-name="Layer 1" xmlns="http://www.w3.org/2000/svg" viewBox="0 0 363.47 317.25"><defs><style>.cls-1{fill:#767a7f;}.cls-2{fill:#9a9a9a;}.cls-3{fill:#929292;}.cls-4{fill:#9d9d9d;}.cls-5{fill:#3d4051;}.cls-6{fill:#f3efe8;}.cls-12,.cls-7{fill:#fff;}.cls-8{fill:#e35c52;}.cls-9{fill:#ff6d50;}.cls-10{fill:#ece3d2;}.cls-11{fill:#00ad8e;}.cls-12{font-size:6.95px;font-family:Montserrat-Bold, Montserrat;font-weight:700;}.cls-13{letter-spacing:-0.01em;}.cls-14{letter-spacing:0em;}.cls-15{letter-spacing:-0.01em;}.cls-16{letter-spacing:-0.01em;}.cls-17{fill:#e4d5b6;}.cls-18{fill:#ffbd3e;}.cls-19{fill:#ffcd75;}.cls-20{fill:#f59f1a;}.cls-21{fill:#006593;}.cls-22{fill:#3980a4;}.cls-23{fill:#009278;}</style></defs><title>NEW-homepage ver4</title><path class="cls-1" d="M348.65,287.34H11a11,11,0,0,1-11-11H0a11,11,0,0,1,11-11H348.65a11,11,0,0,1,11,11h0A11,11,0,0,1,348.65,287.34Z"/><path class="cls-2" d="M319.46,301.47H45.22a12,12,0,0,1-12-12h0a12,12,0,0,1,12-12H319.46a12,12,0,0,1,12,12h0A12,12,0,0,1,319.46,301.47Z"/><path class="cls-3" d="M50.88,317.25H27.77a5,5,0,0,1-5.05-5.05h0a5,5,0,0,1,5.05-5.05H50.88a5,5,0,0,1,5,5.05h0A5,5,0,0,1,50.88,317.25Z"/><path class="cls-3" d="M358.41,306.52h-16.5a5,5,0,0,1-5.05-5h0a5,5,0,0,1,5.05-5.05h16.5a5.06,5.06,0,0,1,5.06,5.05h0A5.06,5.06,0,0,1,358.41,306.52Z"/><path class="cls-4" d="M264.56,317.25h-55a5.36,5.36,0,0,1-5.36-5.37h0a5.36,5.36,0,0,1,5.36-5.36h55a5.36,5.36,0,0,1,5.36,5.36h0A5.36,5.36,0,0,1,264.56,317.25Z"/><rect class="cls-5" x="57.73" width="178.69" height="276.58" rx="17.21"/><rect class="cls-6" x="64.38" y="22.09" width="165.4" height="232.4"/><rect class="cls-7" x="64.38" y="147.14" width="165.4" height="107.35"/><polygon class="cls-8" points="64.38 22.09 48.08 58.94 246.07 58.94 229.77 22.09 64.38 22.09"/><path class="cls-9" d="M57.08,77.15h0a9,9,0,0,1-9-9V58.94h18v9.21A9,9,0,0,1,57.08,77.15Z"/><path class="cls-7" d="M75.08,77.15h0a9,9,0,0,1-9-9V58.94h18v9.21A9,9,0,0,1,75.08,77.15Z"/><path class="cls-9" d="M93.08,77.15h0a9,9,0,0,1-9-9V58.94h18v9.21A9,9,0,0,1,93.08,77.15Z"/><path class="cls-7" d="M111.08,77.15h0a9,9,0,0,1-9-9V58.94h18v9.21A9,9,0,0,1,111.08,77.15Z"/><path class="cls-9" d="M129.08,77.15h0a9,9,0,0,1-9-9V58.94h18v9.21A9,9,0,0,1,129.08,77.15Z"/><path class="cls-7" d="M147.07,77.15h0a9,9,0,0,1-9-9V58.94h18v9.21A9,9,0,0,1,147.07,77.15Z"/><path class="cls-9" d="M165.07,77.15h0a9,9,0,0,1-9-9V58.94h18v9.21A9,9,0,0,1,165.07,77.15Z"/><path class="cls-7" d="M174.07,58.94h18a0,0,0,0,1,0,0V69.1a8,8,0,0,1-8,8h-1.91a8,8,0,0,1-8-8V58.94a0,0,0,0,1,0,0Z"/><path class="cls-9" d="M192.07,58.94h18a0,0,0,0,1,0,0V69.1a8,8,0,0,1-8,8h-1.91a8,8,0,0,1-8-8V58.94a0,0,0,0,1,0,0Z"/><path class="cls-7" d="M210.07,58.94h18a0,0,0,0,1,0,0V69.1a8,8,0,0,1-8,8h-1.91a8,8,0,0,1-8-8V58.94A0,0,0,0,1,210.07,58.94Z"/><path class="cls-9" d="M237.07,77.15h0a9,9,0,0,1-9-9V58.94h18v9.21A9,9,0,0,1,237.07,77.15Z"/><polygon class="cls-10" points="66.08 58.94 79.58 22.09 93.08 22.09 84.08 58.94 66.08 58.94"/><polygon class="cls-10" points="102.08 58.94 107.1 22.09 120.08 22.09 120.08 58.94 102.08 58.94"/><polygon class="cls-10" points="228.07 58.94 214.56 22.09 201.07 22.09 210.07 58.94 228.07 58.94"/><polygon class="cls-10" points="192.07 58.94 187.05 22.09 174.07 22.09 174.07 58.94 192.07 58.94"/><rect class="cls-10" x="138.07" y="22.09" width="18" height="36.85"/><path class="cls-11" d="M216.67,235.69H168A6.68,6.68,0,0,1,161.3,229h0a6.68,6.68,0,0,1,6.68-6.68h48.69a6.68,6.68,0,0,1,6.68,6.68h0A6.68,6.68,0,0,1,216.67,235.69Z"/><text class="cls-12" transform="translate(168.2 231.33)">ADD <tspan class="cls-13" x="18.78" y="0">T</tspan><tspan class="cls-14" x="23.01" y="0">O </tspan><tspan class="cls-15" x="30.85" y="0">C</tspan><tspan x="35.85" y="0">A</tspan><tspan class="cls-16" x="41.17" y="0">R</tspan><tspan x="46.21" y="0">T</tspan></text><rect class="cls-17" x="161.3" y="166.86" width="54.31" height="3.8"/><rect class="cls-6" x="161.3" y="175.13" width="28.68" height="3.8"/><rect class="cls-6" x="161.3" y="199.95" width="28.68" height="3.8"/><rect class="cls-6" x="161.3" y="183.41" width="41.87" height="3.8"/><rect class="cls-6" x="161.3" y="208.23" width="41.87" height="3.8"/><rect class="cls-6" x="161.3" y="191.68" width="54.31" height="3.8"/><rect class="cls-18" x="125.9" y="90.04" width="42.35" height="42.35" rx="1.7"/><polygon class="cls-7" points="163.79 102.83 160.81 108.59 157.26 107.67 157.26 123.61 136.9 123.61 136.9 107.67 133.35 108.59 130.36 102.83 140.11 99.38 141.68 98.82 152.48 98.82 154.04 99.38 163.79 102.83"/><path class="cls-19" d="M154,99.38c-.6,1.62-2.65,6.24-7,6.24s-6.38-4.62-7-6.24l1.57-.56h10.8Z"/><path class="cls-20" d="M152.48,98.82S151,104,147.08,104s-5.4-5.14-5.4-5.14Z"/><rect class="cls-18" x="73.77" y="89.62" width="42.35" height="42.35" rx="1.7"/><path class="cls-7" d="M110.26,104.69V115H79.63v-2.88c.67-3,9.76-5.86,13.61-6.93,1.05-.31,1.71-.47,1.71-.47Z"/><rect class="cls-20" x="79.63" y="114.96" width="30.64" height="2.33"/><path class="cls-19" d="M110.26,104.69v3.06a9.65,9.65,0,0,1-7,3.63c-4.56,0-8.33-4.07-10-6.22,1.05-.31,1.71-.47,1.71-.47Z"/><path class="cls-20" d="M94.94,104.68s3.53,4.77,8.12,4.77,7.2-4.77,7.2-4.77Z"/><path class="cls-20" d="M89.27,109a.74.74,0,0,1-.66-.41l-1.19-2.44a.73.73,0,0,1,.33-1,.74.74,0,0,1,1,.33L89.93,108a.75.75,0,0,1-.66,1.06Z"/><path class="cls-20" d="M86.79,110a.74.74,0,0,1-.66-.41l-1.19-2.44a.73.73,0,0,1,.33-1,.74.74,0,0,1,1,.33l1.19,2.44a.73.73,0,0,1-.33,1A.8.8,0,0,1,86.79,110Z"/><path class="cls-20" d="M91.75,108.2a.74.74,0,0,1-.66-.41l-1.19-2.44a.73.73,0,0,1,.33-1,.74.74,0,0,1,1,.33l1.19,2.44a.75.75,0,0,1-.66,1.06Z"/><rect class="cls-18" x="178.03" y="90.21" width="42.35" height="42.35" rx="1.7"/><polygon class="cls-7" points="195.58 123.67 199.21 108.81 202.84 123.67 210.4 123.67 209.13 101.23 189.28 101.23 188.01 123.67 195.58 123.67"/><rect class="cls-20" x="189.29" y="99.1" width="19.84" height="2.14"/><path class="cls-19" d="M197.23,106.37a.86.86,0,0,1-.27-.05.75.75,0,0,1-.41-1l2-5a.75.75,0,0,1,1-.41.74.74,0,0,1,.41,1l-2,5A.75.75,0,0,1,197.23,106.37Z"/><path class="cls-19" d="M201.18,106.37a.75.75,0,0,1-.69-.47l-2-5a.74.74,0,0,1,1.37-.54l2,5a.75.75,0,0,1-.41,1A.86.86,0,0,1,201.18,106.37Z"/><circle class="cls-11" cx="167.44" cy="130.7" r="8.62"/><polygon class="cls-7" points="165.7 134.3 162.43 130.59 163.71 129.46 165.85 131.89 171.34 127.1 172.46 128.39 165.7 134.3"/><path class="cls-17" d="M140.1,140.41a2.12,2.12,0,1,1-2.12-2.12A2.12,2.12,0,0,1,140.1,140.41Z"/><path class="cls-10" d="M149.19,140.41a2.12,2.12,0,1,1-2.12-2.12A2.11,2.11,0,0,1,149.19,140.41Z"/><path class="cls-10" d="M158.29,140.41a2.12,2.12,0,1,1-2.12-2.12A2.12,2.12,0,0,1,158.29,140.41Z"/><rect class="cls-6" x="73.77" y="166.86" width="78.71" height="68.83"/><rect class="cls-9" x="86.34" y="181.3" width="53.57" height="39.94"/><rect class="cls-8" x="125.19" y="181.3" width="14.72" height="39.94"/><rect class="cls-7" x="99.58" y="181.3" width="11.18" height="18.17"/><rect class="cls-21" x="194.8" y="169" width="163.74" height="107.58" rx="5.46"/><path class="cls-22" d="M358.54,174.47v66H194.8v-66a5.48,5.48,0,0,1,5.46-5.47H353.08A5.48,5.48,0,0,1,358.54,174.47Z"/><rect class="cls-19" x="210.66" y="195.04" width="27.29" height="22.21"/><rect class="cls-6" x="249.85" y="184.89" width="63.31" height="6.98"/><rect class="cls-6" x="210.66" y="227.65" width="36.81" height="4.76"/><rect class="cls-6" x="258.26" y="227.65" width="36.81" height="4.76"/><rect class="cls-6" x="305.86" y="227.65" width="36.81" height="4.76"/><rect class="cls-6" x="210.66" y="240.5" width="84.41" height="4.76"/><rect class="cls-6" x="234.46" y="257.04" width="84.41" height="4.76"/><circle class="cls-6" cx="333.71" cy="188.94" r="8.96"/><rect class="cls-22" x="207.12" y="49.51" width="102.29" height="27.65"/><rect class="cls-7" x="212.62" y="54.82" width="31.18" height="3.33"/><rect class="cls-7" x="212.62" y="61.67" width="41.4" height="3.33"/><rect class="cls-7" x="212.62" y="68.53" width="91.28" height="3.33"/><polygon class="cls-19" points="261.94 53.17 263.02 55.35 265.43 55.7 263.69 57.4 264.1 59.8 261.94 58.67 259.79 59.8 260.2 57.4 258.45 55.7 260.87 55.35 261.94 53.17"/><polygon class="cls-19" points="271.56 53.17 272.64 55.35 275.05 55.7 273.31 57.4 273.72 59.8 271.56 58.67 269.4 59.8 269.82 57.4 268.07 55.7 270.48 55.35 271.56 53.17"/><polygon class="cls-19" points="281.18 53.17 282.26 55.35 284.67 55.7 282.93 57.4 283.34 59.8 281.18 58.67 279.02 59.8 279.44 57.4 277.69 55.7 280.1 55.35 281.18 53.17"/><polygon class="cls-19" points="290.8 53.17 291.88 55.35 294.29 55.7 292.54 57.4 292.95 59.8 290.8 58.67 288.64 59.8 289.05 57.4 287.31 55.7 289.72 55.35 290.8 53.17"/><polygon class="cls-19" points="300.42 53.17 301.49 55.35 303.9 55.7 302.16 57.4 302.57 59.8 300.42 58.67 298.26 59.8 298.67 57.4 296.93 55.7 299.34 55.35 300.42 53.17"/><rect class="cls-11" x="229.77" y="106.43" width="102.29" height="27.65"/><rect class="cls-7" x="235.28" y="111.74" width="31.18" height="3.33"/><rect class="cls-7" x="235.28" y="118.59" width="41.4" height="3.33"/><rect class="cls-7" x="235.28" y="125.45" width="62.43" height="3.33"/><polygon class="cls-19" points="284.6 110.09 285.68 112.27 288.09 112.62 286.35 114.32 286.76 116.72 284.6 115.59 282.44 116.72 282.86 114.32 281.11 112.62 283.52 112.27 284.6 110.09"/><polygon class="cls-19" points="294.22 110.09 295.3 112.27 297.71 112.62 295.96 114.32 296.38 116.72 294.22 115.59 292.06 116.72 292.47 114.32 290.73 112.62 293.14 112.27 294.22 110.09"/><polygon class="cls-19" points="303.84 110.09 304.91 112.27 307.33 112.62 305.58 114.32 305.99 116.72 303.84 115.59 301.68 116.72 302.09 114.32 300.35 112.62 302.76 112.27 303.84 110.09"/><polygon class="cls-23" points="313.45 110.09 314.53 112.27 316.94 112.62 315.2 114.32 315.61 116.72 313.45 115.59 311.3 116.72 311.71 114.32 309.96 112.62 312.38 112.27 313.45 110.09"/><polygon class="cls-23" points="323.07 110.09 324.15 112.27 326.56 112.62 324.82 114.32 325.23 116.72 323.07 115.59 320.92 116.72 321.33 114.32 319.58 112.62 321.99 112.27 323.07 110.09"/><rect class="cls-9" x="26.94" y="178.98" width="26.72" height="43.29" transform="translate(-160.33 240.92) rotate(-90)"/><rect class="cls-8" x="11.77" y="194.15" width="26.72" height="12.96" transform="translate(-175.49 225.76) rotate(-90)"/><rect class="cls-22" x="61.95" y="169.53" width="29.08" height="44.45" transform="translate(152.98 383.52) rotate(180)"/><rect class="cls-21" x="61.95" y="169.53" width="7.91" height="44.45" transform="translate(131.8 383.52) rotate(180)"/><rect class="cls-19" x="22.52" y="142.42" width="39.42" height="44.85" transform="translate(84.47 329.68) rotate(180)"/><rect class="cls-20" x="22.52" y="142.42" width="12.01" height="44.85" transform="translate(57.06 329.68) rotate(180)"/><rect class="cls-11" x="61.95" y="146.75" width="23.88" height="22.79" transform="translate(147.77 316.28) rotate(180)"/><rect class="cls-23" x="61.95" y="146.75" width="7.91" height="22.79" transform="translate(131.8 316.28) rotate(180)"/><path class="cls-5" d="M1.61,156,14,216.92a2.46,2.46,0,0,0,2.4,2H90.51v24.5a13.31,13.31,0,0,1-13.3,13.29h-59a2.45,2.45,0,0,0,0,4.89h59a18.2,18.2,0,0,0,18.18-18.18V216.72l17-69.82h10.88a2.45,2.45,0,0,0,0-4.89h-12.8a2.43,2.43,0,0,0-2.37,1.87l-2.29,9.38L4,153H4A2.44,2.44,0,0,0,1.61,156Zm5.38,2,97.64.21L91,214H18.41Z"/><circle class="cls-6" cx="73.64" cy="266.97" r="10" transform="translate(-171.89 138.85) rotate(-47.02)"/><path class="cls-17" d="M67.42,267a6.22,6.22,0,1,0,6.22-6.21A6.21,6.21,0,0,0,67.42,267Z"/><circle class="cls-6" cx="26.37" cy="266.97" r="10" transform="translate(-186.06 103.13) rotate(-46.72)"/><path class="cls-17" d="M20.15,267a6.22,6.22,0,1,0,6.22-6.21A6.21,6.21,0,0,0,20.15,267Z"/><path class="cls-5" d="M35.39,177l2.13,19.65H13v4.88h25.1l1.55,14.31,4.86-.53L43,201.57H67.19l-1.5,13.78,4.85.53,1.56-14.31H97v-4.88H72.63L74.77,177h27.54v-4.89h-27L77.06,156l-4.86-.53-1.81,16.64H39.77L38,155.51,33.1,156l1.75,16.11H8V177Zm4.91,0H69.86l-2.14,19.65H42.44Z"/></svg>