<svg id="Layer_1" data-name="Layer 1" xmlns="http://www.w3.org/2000/svg" xmlns:xlink="http://www.w3.org/1999/xlink" viewBox="0 0 326 654.04"><defs><style>.cls-1{fill:#0f70dd;}.cls-2{fill:#e2d9d9;}.cls-23,.cls-28,.cls-3,.cls-4{fill:#fff;}.cls-4{fill-rule:evenodd;}.cls-15,.cls-16,.cls-17,.cls-18,.cls-19,.cls-20,.cls-21,.cls-24,.cls-26,.cls-5,.cls-7{fill:none;stroke-miterlimit:10;}.cls-5{stroke:#4d4d4d;stroke-width:6px;}.cls-6{fill:#c3c3c3;}.cls-7{stroke:#c3c3c3;stroke-linecap:round;stroke-width:2px;}.cls-8{fill:#4d4d4d;}.cls-9{fill:#1c97d6;}.cls-10{fill:#858585;}.cls-11{fill:#1d73a9;}.cls-12{fill:#fa7414;}.cls-13{fill:#79c322;}.cls-14{fill:#6b8da8;}.cls-15,.cls-16,.cls-17{stroke:#afafaf;}.cls-15,.cls-16{stroke-width:0.75px;}.cls-15{opacity:0.29;}.cls-16{opacity:0.52;}.cls-17,.cls-18,.cls-19,.cls-20,.cls-21{stroke-width:3px;}.cls-17{opacity:0.09;}.cls-18{stroke:#fa7414;}.cls-19{stroke:#79c322;}.cls-20{stroke:#1d73a9;}.cls-21{stroke:#6b8da8;}.cls-22{opacity:0.58;}.cls-23{opacity:0.62;}.cls-24,.cls-26{stroke:#fff;}.cls-24{stroke-width:10px;}.cls-25{fill:#707070;}.cls-26{stroke-width:17px;}.cls-27{fill:#39b14a;}.cls-28{font-size:27.21px;font-family:Mitr-Regular, Mitr;}</style></defs><title>NEW-homepage ver4</title><path class="cls-1" d="M54.26,94.67l8.09,4.67a1.11,1.11,0,0,1,.55,1v7.77a1.09,1.09,0,0,1-.55,1l-8.09,4.67a1.1,1.1,0,0,1-1.11,0L45.06,109a1.09,1.09,0,0,1-.55-1V100.3a1.11,1.11,0,0,1,.55-1l8.09-4.67A1.1,1.1,0,0,1,54.26,94.67Z"/><path class="cls-2" d="M53.74,97.17l7,4.13-6.64,3.85a1.12,1.12,0,0,1-1.13,0l-6.28-3.84Z"/><path class="cls-3" d="M53.74,97.17v5.9l-2.13,1.22-4.89-3Z"/><path id="foco-outlines" class="cls-4" d="M68.64,107.2a4.34,4.34,0,0,0,1.08.64,3.23,3.23,0,0,0,1.35.28A2.7,2.7,0,0,0,72,108a1.8,1.8,0,0,0,.59-.37,1.31,1.31,0,0,0,.31-.52,1.72,1.72,0,0,0,.1-.6,1.85,1.85,0,0,0-.12-.69,1.54,1.54,0,0,0-.35-.52,2.13,2.13,0,0,0-.59-.37c-.23-.1-.5-.2-.8-.3a10,10,0,0,1-1-.35,3.7,3.7,0,0,1-.85-.49,2.28,2.28,0,0,1-.6-.74,2.38,2.38,0,0,1-.23-1.09,2.63,2.63,0,0,1,.23-1.12,2.36,2.36,0,0,1,.64-.82,3,3,0,0,1,1-.49,4.21,4.21,0,0,1,1.21-.17,5.14,5.14,0,0,1,1.12.13,3.57,3.57,0,0,1,1,.39,2.43,2.43,0,0,1,.38.31.53.53,0,0,1,.15.37.66.66,0,0,1-.13.37,3.66,3.66,0,0,1-.33.4,3.84,3.84,0,0,0-.32-.26,2.65,2.65,0,0,0-.48-.29,3.18,3.18,0,0,0-.64-.23,2.78,2.78,0,0,0-.78-.1,2.47,2.47,0,0,0-.83.12,1.56,1.56,0,0,0-.54.31,1.37,1.37,0,0,0-.3.45,1.64,1.64,0,0,0-.09.53,1.28,1.28,0,0,0,.14.61,1.58,1.58,0,0,0,.41.45,3.57,3.57,0,0,0,.65.34,8.86,8.86,0,0,0,.88.31,7.1,7.1,0,0,1,.94.38,3.15,3.15,0,0,1,.79.54,2.81,2.81,0,0,1,.54.77,2.52,2.52,0,0,1,.21,1.07,3,3,0,0,1-.24,1.24,2.4,2.4,0,0,1-.66.91,2.74,2.74,0,0,1-1,.55,4.37,4.37,0,0,1-1.29.18,5.6,5.6,0,0,1-1.45-.17,2.86,2.86,0,0,1-1.05-.45.65.65,0,0,1-.36-.52,1,1,0,0,1,.13-.4A3.52,3.52,0,0,1,68.64,107.2ZM82.3,109l-.94-2.54H77.54L76.62,109H75.38l3.42-9.37a1.38,1.38,0,0,1,.3-.09,2.58,2.58,0,0,1,.39,0,1,1,0,0,1,.49.12.87.87,0,0,1,.35.46L83.59,109Zm-2.85-8.06-1.6,4.51H81Zm5.78-1.41h.35a.88.88,0,0,1,.27,0,.81.81,0,0,1,.29.12.75.75,0,0,1,.22.27.9.9,0,0,1,.1.46v7.54h3.28a.84.84,0,0,1,.65.22.75.75,0,0,1,.19.53v.12a.38.38,0,0,0,0,.1v.1H85.23Zm8.22,4h3.21v1.09H93.45v3.33H97a.87.87,0,0,1,.67.22.77.77,0,0,1,.21.55s0,.07,0,.1a.28.28,0,0,0,0,.09v.1H92.22V99.52h5.46a1,1,0,0,1,0,.15v.15a.8.8,0,0,1-.18.54.84.84,0,0,1-.68.22H93.45Zm12.43,2.77a3,3,0,0,1-.26,1.31,2.15,2.15,0,0,1-.77.84,3.4,3.4,0,0,1-1.2.43,8.37,8.37,0,0,1-1.57.13H99.64V99.55l1.1-.09c.35,0,.75,0,1.2,0a7.67,7.67,0,0,1,1.65.16,2.91,2.91,0,0,1,1.08.45,1.75,1.75,0,0,1,.59.74,2.73,2.73,0,0,1,.19,1,2.33,2.33,0,0,1-.15.87,2.28,2.28,0,0,1-.34.64,2.33,2.33,0,0,1-.45.44,2.54,2.54,0,0,1-.44.25,3.63,3.63,0,0,1,.55.19,2,2,0,0,1,.59.39,2.18,2.18,0,0,1,.48.67A2.37,2.37,0,0,1,105.88,106.27ZM101.76,108a10.44,10.44,0,0,0,1.16,0,2.89,2.89,0,0,0,.9-.24,1.34,1.34,0,0,0,.59-.51,1.64,1.64,0,0,0,.22-.91,1.52,1.52,0,0,0-.2-.81,1.47,1.47,0,0,0-.54-.51,2.33,2.33,0,0,0-.77-.26,5.29,5.29,0,0,0-.9-.07h-1.35V108Zm2.46-6.13a1.33,1.33,0,0,0-.18-.72,1.19,1.19,0,0,0-.49-.42,2.22,2.22,0,0,0-.74-.2,6.86,6.86,0,0,0-.94-.06h-.59a3,3,0,0,0-.41,0v3.11h1.34a2.26,2.26,0,0,0,1.44-.46A1.6,1.6,0,0,0,104.22,101.83Zm11.57,2.37a8,8,0,0,1-.23,1.93,4.69,4.69,0,0,1-.73,1.58,3.64,3.64,0,0,1-1.28,1.08,4.06,4.06,0,0,1-1.89.4,3.87,3.87,0,0,1-1.86-.41,3.47,3.47,0,0,1-1.25-1.09,4.78,4.78,0,0,1-.7-1.59,8.34,8.34,0,0,1-.22-1.88,7.08,7.08,0,0,1,.24-1.86,4.52,4.52,0,0,1,.75-1.56,3.66,3.66,0,0,1,1.3-1.06,4,4,0,0,1,1.87-.4,4.07,4.07,0,0,1,1.82.38,3.58,3.58,0,0,1,1.24,1,4.5,4.5,0,0,1,.71,1.55A7.65,7.65,0,0,1,115.79,104.2Zm-1.29,0a6.64,6.64,0,0,0-.14-1.44,3.58,3.58,0,0,0-.46-1.2,2.28,2.28,0,0,0-.85-.81,2.56,2.56,0,0,0-1.29-.3,2.71,2.71,0,0,0-1.34.3,2.42,2.42,0,0,0-.87.81,3.59,3.59,0,0,0-.48,1.2,7.33,7.33,0,0,0-.14,1.44,7.69,7.69,0,0,0,.14,1.46,3.9,3.9,0,0,0,.47,1.24,2.39,2.39,0,0,0,.86.87,2.86,2.86,0,0,0,2.63,0,2.42,2.42,0,0,0,.87-.87,3.89,3.89,0,0,0,.46-1.24A7,7,0,0,0,114.5,104.22Zm5.45,1L117.74,109h-1.35l2.87-4.76-2.63-4.57a2.78,2.78,0,0,1,.38-.12,1.72,1.72,0,0,1,.36,0,1,1,0,0,1,.93.62l1.73,3.13,1.85-3.11a1.13,1.13,0,0,1,.49-.52,1.25,1.25,0,0,1,.48-.1,1.32,1.32,0,0,1,.36,0,1.36,1.36,0,0,1,.28.11l-2.76,4.55,2.9,4.78a2.24,2.24,0,0,1-.34.11l-.32,0a.94.94,0,0,1-.61-.17,1.76,1.76,0,0,1-.44-.51Z"/><rect class="cls-5" x="21.38" y="3" width="279.33" height="576.28" rx="37.78"/><rect x="21.38" y="3" width="279.33" height="576.28" rx="37.78"/><circle class="cls-6" cx="115.75" cy="38.23" r="2.52"/><line class="cls-7" x1="137.14" y1="36.97" x2="184.95" y2="36.97"/><line class="cls-7" x1="153.5" y1="52.07" x2="168.6" y2="52.07"/><path class="cls-8" d="M15.09,89.82h5.29a1,1,0,0,1,1,1V119a1,1,0,0,1-1,1H15.09a0,0,0,0,1,0,0V89.82A0,0,0,0,1,15.09,89.82Z" transform="translate(36.47 209.84) rotate(180)"/><path class="cls-8" d="M15.09,164.06h5.29a1,1,0,0,1,1,1v62.17a1,1,0,0,1-1,1H15.09a0,0,0,0,1,0,0V164.06A0,0,0,0,1,15.09,164.06Z" transform="translate(36.47 392.29) rotate(180)"/><path class="cls-3" d="M266,12.75H59.09a25.5,25.5,0,0,0-25.5,25.5V544.68a25.5,25.5,0,0,0,25.5,25.5H266a25.5,25.5,0,0,0,25.5-25.5V64h0V38.25A25.5,25.5,0,0,0,266,12.75Z"/><rect class="cls-9" x="34" y="9.04" width="258" height="73" rx="24.24"/><rect class="cls-3" x="34" y="62.04" width="258" height="372"/><rect x="123.3" y="8.03" width="80.53" height="15.1" rx="3.94"/><rect class="cls-10" x="84.4" y="400.28" width="63.07" height="15.77" rx="1.49"/><rect class="cls-11" x="59.17" y="438.12" width="17.35" height="15.77" rx="1.49"/><rect class="cls-12" x="59.17" y="461.77" width="17.35" height="15.77" rx="1.49"/><rect class="cls-13" x="59.17" y="485.43" width="17.35" height="15.77" rx="1.49"/><rect class="cls-14" x="59.17" y="509.08" width="17.35" height="15.77" rx="1.49"/><rect class="cls-10" x="196.36" y="400.28" width="63.07" height="15.77" rx="1.49"/><rect class="cls-10" x="85.98" y="444.43" width="44.15" height="4.7" rx="0.9"/><rect class="cls-10" x="199.51" y="468.08" width="44.15" height="4.7" rx="0.9"/><rect class="cls-10" x="85.98" y="468.08" width="61.5" height="4.7" rx="0.9"/><rect class="cls-10" x="197.94" y="442.85" width="61.5" height="4.7" rx="0.9"/><rect class="cls-10" x="87.56" y="491.73" width="48.88" height="4.7" rx="0.9"/><rect class="cls-10" x="199.51" y="515.39" width="48.88" height="4.7" rx="0.9"/><rect class="cls-10" x="87.56" y="515.39" width="69.38" height="4.7" rx="0.9"/><rect class="cls-10" x="199.51" y="491.73" width="69.38" height="4.7" rx="0.9"/><line class="cls-15" x1="59.17" y1="432.6" x2="281.51" y2="432.6"/><line class="cls-15" x1="59.17" y1="457.83" x2="281.51" y2="457.83"/><line class="cls-15" x1="59.17" y1="481.49" x2="281.51" y2="481.49"/><line class="cls-15" x1="59.17" y1="505.14" x2="281.51" y2="505.14"/><line class="cls-16" x1="74.15" y1="432.6" x2="187.69" y2="432.6"/><polygon class="cls-10" points="152.89 409.74 155.62 409.74 154.25 408.16 152.89 406.58 151.52 408.16 150.16 409.74 152.89 409.74"/><polygon class="cls-10" points="266.42 409.74 269.15 409.74 267.79 408.16 266.42 406.58 265.06 408.16 263.69 409.74 266.42 409.74"/><rect class="cls-10" x="36.6" y="241.46" width="13.59" height="5.78" rx="0.9"/><rect class="cls-10" x="125.88" y="256.99" width="13.59" height="5.78" rx="0.9"/><rect class="cls-10" x="203.52" y="256.99" width="13.59" height="5.78" rx="0.9"/><rect class="cls-10" x="275.34" y="258.93" width="13.59" height="5.78" rx="0.9"/><rect class="cls-10" x="36.6" y="202.64" width="13.59" height="5.78" rx="0.9"/><line class="cls-17" x1="60.86" y1="248.26" x2="60.86" y2="158.97"/><line class="cls-17" x1="111.33" y1="249.23" x2="111.33" y2="159.94"/><line class="cls-17" x1="161.79" y1="247.29" x2="161.79" y2="158"/><line class="cls-17" x1="214.2" y1="247.29" x2="214.2" y2="158"/><line class="cls-17" x1="264.66" y1="247.29" x2="264.66" y2="158"/><path class="cls-16" d="M61.83,248.26C139,248,214.47,248,292.2,248.14"/><line class="cls-18" x1="61.83" y1="231.76" x2="110.36" y2="177.41"/><line class="cls-18" x1="110.36" y1="177.41" x2="158.88" y2="231.76"/><line class="cls-18" x1="158.88" y1="231.76" x2="264.66" y2="246.32"/><line class="cls-19" x1="61.83" y1="231.76" x2="96.77" y2="208.47"/><line class="cls-19" x1="161.79" y1="230.79" x2="95.8" y2="209.44"/><line class="cls-19" x1="160.82" y1="229.82" x2="215.17" y2="237.58"/><line class="cls-19" x1="215.17" y1="237.58" x2="264.66" y2="246.32"/><line class="cls-20" x1="64.74" y1="242.43" x2="111.33" y2="238.55"/><line class="cls-20" x1="163.73" y1="217.2" x2="111.33" y2="238.55"/><line class="cls-20" x1="264.66" y1="246.32" x2="163.73" y2="217.2"/><line class="cls-21" x1="61.83" y1="235.64" x2="133.65" y2="192.94"/><line class="cls-21" x1="159.85" y1="207.5" x2="132.68" y2="191.97"/><line class="cls-21" x1="200.61" y1="166.73" x2="159.85" y2="207.5"/><line class="cls-21" x1="264.66" y1="244.37" x2="200.61" y2="166.73"/><rect class="cls-22" x="107.51" y="550.13" width="116.39" height="12.39" rx="3.94"/><rect class="cls-23" x="227.98" y="22.89" width="47.25" height="7.86" rx="2.5"/><rect class="cls-23" x="227.98" y="33.9" width="47.25" height="7.86" rx="2.5"/><rect class="cls-23" x="227.98" y="44.91" width="47.25" height="7.86" rx="2.5"/><image width="2501" height="1667" transform="translate(1.38 234.54) scale(0.13)" xlink:href="../../../../color/Untitled-7_Pie%20Chart%205.png"/><circle class="cls-24" cx="166.21" cy="328.89" r="61.11"/><circle class="cls-3" cx="167.59" cy="328.39" r="24.45"/><rect class="cls-25" x="59.03" y="68.7" width="64.65" height="13.31" rx="6.66"/><rect class="cls-10" x="68.54" y="101.02" width="38.03" height="9.51" rx="4.75"/><rect class="cls-10" x="122.73" y="101.02" width="38.03" height="9.51" rx="4.75"/><rect class="cls-10" x="174.07" y="101.02" width="38.03" height="9.51" rx="4.75"/><rect class="cls-10" x="224.47" y="101.02" width="38.03" height="9.51" rx="4.75"/><rect class="cls-10" x="59.03" y="86.76" width="132.16" height="6.66" rx="3.33"/><rect class="cls-10" x="59.03" y="136.2" width="132.16" height="6.66" rx="3.33"/><rect class="cls-10" x="75.19" y="113.38" width="26.62" height="2.83" rx="0.9"/><rect class="cls-10" x="129.39" y="113.38" width="26.62" height="2.83" rx="0.9"/><rect class="cls-10" x="180.73" y="113.38" width="26.62" height="2.83" rx="0.9"/><rect class="cls-10" x="231.12" y="113.38" width="26.62" height="2.83" rx="0.9"/><circle class="cls-3" cx="167" cy="328.04" r="25"/><circle class="cls-26" cx="166.5" cy="328.54" r="61"/><rect class="cls-27" y="595.26" width="326" height="58.79" rx="29.39"/><text class="cls-28" transform="translate(45.98 632.67)">ควบคุมร้านจากมือถือ</text></svg>